<svg xmlns="http://www.w3.org/2000/svg" fill="none" viewBox="0 0 24 24"><path fill="currentColor" d="M19 2c1.6569 0 3 1.3432 3 3v14c0 1.6569-1.3431 3-3 3H5c-1.6568 0-3-1.3431-3-3V5c0-1.6568 1.3432-3 3-3zM4.667 7.167c-.3594 0-.6668.2792-.667.5986v5.0332c.04 1.6778 1.3984 3.0342 3.0762 3.0342 1.1983-.0001 2.2366-.7171 2.7558-1.6758.5193.9588 1.5584 1.6377 2.7168 1.6377 1.7175-.0001 3.115-1.3577 3.1153-3.0752.0399-1.6377-1.3576-2.996-3.0752-2.996-1.1585 0-2.1975.6389-2.7168 1.5976-.5193-.9586-1.5576-1.5975-2.7559-1.5977-.719 0-1.3586.2392-1.878.5987V7.7656c0-.3193-.2519-.5984-.5712-.5986m11.4766 2.7158c-.1999-.2394-.5994-.3188-.879-.1191-.2392.1998-.3186.5985-.1191.8779l1.5977 2.0781-1.5977 2.0772c-.1996.2796-.1604.6391.1191.8388.2796.1997.6792.1994.879-.08l1.3584-1.7578 1.3984 1.7978c.1998.2395.5994.2797.8789.0801.2395-.1996.2794-.5593.0801-.8389l-1.5586-2.0781 1.5586-2.0371c.1994-.2796.1994-.6793-.0801-.879-.3195-.1996-.6792-.1593-.8789.1202l-1.3984 1.7178zM7.0762 10.922c1.0383.0001 1.8767.8385 1.877 1.8369 0 1.0385-.8385 1.8377-1.877 1.8379-1.0386 0-1.878-.7993-1.878-1.8379.0003-.9985.8395-1.8369 1.878-1.8369m5.5127 0c1.0383.0001 1.8767.8385 1.8769 1.8369-.0399 1.0385-.8784 1.8377-1.8769 1.8379-1.0387 0-1.878-.7993-1.878-1.8379.0003-.9985.8395-1.8369 1.878-1.8369"/></svg>