<svg xmlns="http://www.w3.org/2000/svg" fill="none" viewBox="0 0 24 24"><path fill="currentColor" d="M12.7174 2C11.0817 2 9.7376 3.2571 9.618 4.8571h1.4255c1.32 0 2.3913 1.0667 2.3913 2.381v.8668c1.3726-.319 2.3913-1.5478 2.3913-3.0097C15.8261 3.3857 14.4343 2 12.7174 2m7.1739 1.9048a2.157 2.157 0 0 0-1.5218.6276 2.138 2.138 0 0 0-.6304 1.5152c0 .5683.2268 1.1134.6304 1.5153.4036.4018.951.6276 1.5218.6276a2.157 2.157 0 0 0 1.5218-.6276 2.138 2.138 0 0 0 .6304-1.5153 2.138 2.138 0 0 0-.6304-1.5152 2.157 2.157 0 0 0-1.5218-.6276M2.4348 5.8095C1.6438 5.8095 1 6.4505 1 7.2381v8.5714c0 .7876.6437 1.4286 1.4348 1.4286h8.6087c.791 0 1.4348-.641 1.4348-1.4286V7.2381c0-.7876-.6438-1.4286-1.4348-1.4286zm1.913 2.8572h4.7826v.9523h-1.913v4.762h-.9565V9.619h-1.913zm9.087.9523v6.1905c0 1.3143-1.0713 2.381-2.3913 2.381H8.2692c.1913.9333.6554 1.7668 1.3059 2.4144.8656.8619 2.0614 1.3951 3.3814 1.3951 2.64 0 4.7826-2.1333 4.7826-4.7619v-7.619zm5.2609 0v7.6191c0 .3905-.0385.7717-.1103 1.1384.397.1857.8372.2902 1.3059.2902 1.717 0 3.1087-1.3857 3.1087-3.0953V9.619z"/></svg>