<svg xmlns="http://www.w3.org/2000/svg" fill="none" viewBox="0 0 24 24"><g clip-path="url(#brand-microsoft-azure-a)"><g clip-path="url(#brand-microsoft-azure-b)"><path fill="red" fill-opacity=".7" d="M15.0005-.0254A.026.026 0 0 1 15.0259 0v8.9395l8.957-8.957a.025.025 0 0 1 .0352 0 .0254.0254 0 0 1 0 .035L15.061 8.9747h8.9444A.026.026 0 0 1 24.0308 9a.026.026 0 0 1-.0254.0254h-8.9795v2.9443h8.9795a.026.026 0 0 1 .0254.0254.026.026 0 0 1-.0254.0254h-8.9795v2.9541h8.9795a.026.026 0 0 1 .0254.0254.026.026 0 0 1-.0254.0254H15.061l8.9571 8.957a.0255.0255 0 0 1 0 .0352.025.025 0 0 1-.0352 0l-8.957-8.9571V24a.026.026 0 0 1-.0254.0254.0257.0257 0 0 1-.0254-.0254v-8.9746h-2.9492V24a.026.026 0 0 1-.0254.0254.0257.0257 0 0 1-.0254-.0254v-8.9746H9.0259V24a.026.026 0 0 1-.0254.0254A.0257.0257 0 0 1 8.975 24v-8.9395l-8.957 8.9571a.025.025 0 0 1-.0352 0 .025.025 0 0 1 0-.0352l8.957-8.957H.0054A.0257.0257 0 0 1-.02 15a.0257.0257 0 0 1 .0254-.0254H8.975v-2.9541H.0054a.026.026 0 0 1-.0254-.0254.0257.0257 0 0 1 .0254-.0254H8.975V9.0254H.0054A.0257.0257 0 0 1-.02 9a.0257.0257 0 0 1 .0254-.0254h8.9345L-.017.0176a.025.025 0 0 1 0-.0352.025.025 0 0 1 .0352 0l8.957 8.957V0a.0257.0257 0 0 1 .0254-.0254A.026.026 0 0 1 9.0259 0v8.9746h2.9492V0a.0257.0257 0 0 1 .0254-.0254.026.026 0 0 1 .0254.0254v8.9746h2.9492V0a.0257.0257 0 0 1 .0254-.0254m-5.9395 15h2.9141v-2.9141zm2.9649 0h2.914l-2.914-2.9141zm2.9492-.0351v-2.919h-2.9189zm-5.9492 0 2.9189-2.919h-2.919zm0-2.9698h2.9092L9.0259 9.0605zm3.04 0h2.9092V9.0605zm-.0908-.0302V9.0254h-2.914zm.0508 0 2.914-2.9141h-2.914z" opacity=".9"/><rect width="20" height="20" x="2" y="2" stroke="red" stroke-linecap="round" stroke-width=".1" rx="3"/></g><path fill="currentColor" d="M.9725 20.648 7.0376 2.68A1 1 0 0 1 7.9851 2l.0754.0002a.999.999 0 0 1 .946.679l2.5101 7.4363-1.6304 4.83h3.3368l1.9283 5.7126a.999.999 0 0 1-.1349.9015.9986.9986 0 0 1-.7875.4159h-.2322a1.004 1.004 0 0 1-.6854-.27l-4.3399-4.05-1.2252 3.6296a1 1 0 0 1-.9472.6801H1.9186a.998.998 0 0 1-.811-.416.998.998 0 0 1-.135-.9012"/><path fill="currentColor" d="m16.9619 2.7137 6.0653 17.9686a.999.999 0 0 1-.1348.9014.998.998 0 0 1-.811.4163h-6.9891a1 1 0 0 0 .4558-.1101.9978.9978 0 0 0 .4902-1.2076L9.973 2.7137a.998.998 0 0 0-.946-.6791h6.9889a.998.998 0 0 1 .946.679"/></g><defs><clipPath id="brand-microsoft-azure-a"><path fill="#fff" d="M0 0h24v24H0z"/></clipPath><clipPath id="brand-microsoft-azure-b"><path fill="#fff" d="M0 0h24v24H0z"/></clipPath></defs></svg>