<svg xmlns="http://www.w3.org/2000/svg" fill="none" viewBox="0 0 24 24"><g clip-path="url(#brand-dropbox-a)"><g clip-path="url(#brand-dropbox-b)"><path fill="red" fill-opacity=".7" d="M15.0005-.0254A.026.026 0 0 1 15.0259 0v8.9395l8.957-8.957a.025.025 0 0 1 .0352 0 .0254.0254 0 0 1 0 .035L15.061 8.9747h8.9444A.026.026 0 0 1 24.0308 9a.026.026 0 0 1-.0254.0254h-8.9795v2.9443h8.9795a.026.026 0 0 1 .0254.0254.026.026 0 0 1-.0254.0254h-8.9795v2.9541h8.9795a.026.026 0 0 1 .0254.0254.026.026 0 0 1-.0254.0254H15.061l8.9571 8.957a.0255.0255 0 0 1 0 .0352.025.025 0 0 1-.0352 0l-8.957-8.9571V24a.026.026 0 0 1-.0254.0254.0257.0257 0 0 1-.0254-.0254v-8.9746h-2.9492V24a.026.026 0 0 1-.0254.0254.0257.0257 0 0 1-.0254-.0254v-8.9746H9.0259V24a.026.026 0 0 1-.0254.0254A.0257.0257 0 0 1 8.975 24v-8.9395l-8.957 8.9571a.025.025 0 0 1-.0352 0 .025.025 0 0 1 0-.0352l8.957-8.957H.0054A.0257.0257 0 0 1-.02 15a.0257.0257 0 0 1 .0254-.0254H8.975v-2.9541H.0054a.026.026 0 0 1-.0254-.0254.0257.0257 0 0 1 .0254-.0254H8.975V9.0254H.0054A.0257.0257 0 0 1-.02 9a.0257.0257 0 0 1 .0254-.0254h8.9345L-.017.0176a.025.025 0 0 1 0-.0352.025.025 0 0 1 .0352 0l8.957 8.957V0a.0257.0257 0 0 1 .0254-.0254A.026.026 0 0 1 9.0259 0v8.9746h2.9492V0a.0257.0257 0 0 1 .0254-.0254.026.026 0 0 1 .0254.0254v8.9746h2.9492V0a.0257.0257 0 0 1 .0254-.0254m-5.9395 15h2.9141v-2.9141zm2.9649 0h2.914l-2.914-2.9141zm2.9492-.0351v-2.919h-2.9189zm-5.9492 0 2.9189-2.919h-2.919zm0-2.9698h2.9092L9.0259 9.0605zm3.04 0h2.9092V9.0605zm-.0908-.0302V9.0254h-2.914zm.0508 0 2.914-2.9141h-2.914z" opacity=".9"/><path stroke="red" stroke-linecap="round" stroke-width=".1" d="M4 21c-1.6568 0-3-1.3431-3-3V6c0-1.6569 1.3432-3 3-3h16c1.6569 0 3 1.3431 3 3v12c0 1.6569-1.3431 3-3 3z"/></g><path fill="currentColor" fill-rule="evenodd" d="m12.0042 12.5634-5.917 3.9538-4.5813-3.029c-.6745-.446-.6745-1.4668 0-1.9128l4.5812-3.029-4.5812-3.029c-.6745-.446-.6745-1.4668 0-1.9128l3.4009-2.2485c.7196-.4758 1.6404-.4747 2.359.0028l4.735 3.147 4.7353-3.147c.7183-.4775 1.6389-.4786 2.3583-.003l3.3999 2.248c.6743.4458.6743 1.4663 0 1.9122l-4.5799 3.028 4.5799 3.0282c.6743.4458.6743 1.4664 0 1.9122l-4.5799 3.0281zm-.0051-.1091L6.056 8.5249l5.9464-3.9104 5.9431 3.9082z" clip-rule="evenodd"/><path fill="currentColor" d="m5.4 19.15 6.4389-4.4 6.7611 4.4L11.8389 23z"/></g><defs><clipPath id="brand-dropbox-a"><path fill="#fff" d="M0 0h24v24H0z"/></clipPath><clipPath id="brand-dropbox-b"><path fill="#fff" d="M0 0h24v24H0z"/></clipPath></defs></svg>