<svg xmlns="http://www.w3.org/2000/svg" fill="none" viewBox="0 0 24 24"><g clip-path="url(#brand-s3-a)"><g clip-path="url(#brand-s3-b)"><path fill="red" fill-opacity=".7" d="M15.0005-.0254A.026.026 0 0 1 15.0259 0v8.9395l8.957-8.957a.025.025 0 0 1 .0352 0 .0254.0254 0 0 1 0 .035L15.061 8.9747h8.9444A.026.026 0 0 1 24.0308 9a.026.026 0 0 1-.0254.0254h-8.9795v2.9443h8.9795a.026.026 0 0 1 .0254.0254.026.026 0 0 1-.0254.0254h-8.9795v2.9541h8.9795a.026.026 0 0 1 .0254.0254.026.026 0 0 1-.0254.0254H15.061l8.9571 8.957a.0255.0255 0 0 1 0 .0352.025.025 0 0 1-.0352 0l-8.957-8.9571V24a.026.026 0 0 1-.0254.0254.0257.0257 0 0 1-.0254-.0254v-8.9746h-2.9492V24a.026.026 0 0 1-.0254.0254.0257.0257 0 0 1-.0254-.0254v-8.9746H9.0259V24a.026.026 0 0 1-.0254.0254A.0257.0257 0 0 1 8.975 24v-8.9395l-8.957 8.9571a.025.025 0 0 1-.0352 0 .025.025 0 0 1 0-.0352l8.957-8.957H.0054A.0257.0257 0 0 1-.02 15a.0257.0257 0 0 1 .0254-.0254H8.975v-2.9541H.0054a.026.026 0 0 1-.0254-.0254.0257.0257 0 0 1 .0254-.0254H8.975V9.0254H.0054A.0257.0257 0 0 1-.02 9a.0257.0257 0 0 1 .0254-.0254h8.9345L-.017.0176a.025.025 0 0 1 0-.0352.025.025 0 0 1 .0352 0l8.957 8.957V0a.0257.0257 0 0 1 .0254-.0254A.026.026 0 0 1 9.0259 0v8.9746h2.9492V0a.0257.0257 0 0 1 .0254-.0254.026.026 0 0 1 .0254.0254v8.9746h2.9492V0a.0257.0257 0 0 1 .0254-.0254m-5.9395 15h2.9141v-2.9141zm2.9649 0h2.914l-2.914-2.9141zm2.9492-.0351v-2.919h-2.9189zm-5.9492 0 2.9189-2.919h-2.919zm0-2.9698h2.9092L9.0259 9.0605zm3.04 0h2.9092V9.0605zm-.0908-.0302V9.0254h-2.914zm.0508 0 2.914-2.9141h-2.914z" opacity=".9"/><path stroke="red" stroke-linecap="round" stroke-width=".1" d="M4 21c-1.6568 0-3-1.3431-3-3V6c0-1.6569 1.3432-3 3-3h16c1.6569 0 3 1.3431 3 3v12c0 1.6569-1.3431 3-3 3z"/></g><path fill="currentColor" fill-rule="evenodd" d="m11.1724 1.6742-9 3.9762C1.4584 5.9658 1 6.6577 1 7.42v9.16c0 .7623.4584 1.4542 1.1724 1.7696l9 3.9762a2.053 2.053 0 0 0 1.6552 0l9-3.9762C22.5416 18.0342 23 17.3423 23 16.58V7.42c0-.7623-.4584-1.4542-1.1724-1.7696l-9-3.9762a2.053 2.053 0 0 0-1.6552 0m.4512 8.8657h-1.93c-.0399-.5057-.3482-.806-1.0012-.806-.624 0-.896.2509-.8997.5931-.0181.3726.2975.5894 1.0013.7452l.6094.1369c1.6398.3688 2.3145 1.2015 2.3218 2.3879-.0073 1.5361-1.1355 2.3878-3.0183 2.3878-1.9372 0-3.1996-.8745-3.2069-2.8289h1.9154c.0327.7148.4898 1.0951 1.2625 1.0951.6457 0 .9795-.27.9867-.654-.0072-.3537-.2902-.5704-1.1173-.7605l-.74-.1673c-1.317-.2966-2.1223-.9734-2.1187-2.1901C5.6778 8.9962 6.9256 8 8.6924 8c1.7993 0 2.9239 1.0114 2.9312 2.5399m6.8763 3.1179C18.5072 15.0304 17.2266 16 15.4091 16c-1.7594 0-3.011-1.0266-3.0182-2.4791h2.0315c.0072.4525.4208.7757 1.0012.7757.5587 0 .9505-.3384.9432-.8213.0073-.4715-.4498-.8061-1.1028-.8061h-.7546v-1.4601h.7546c.6022 0 1.023-.3346 1.0158-.8061.0072-.4524-.3483-.7756-.8562-.7756-.555 0-.9504.3346-.9577.8061H12.536C12.5432 9.0076 13.7404 8 15.4236 8c1.647 0 2.8079.9544 2.8006 2.2662.0073.8707-.6384 1.4676-1.5236 1.5665v.0608c1.1971.1369 1.8066.8099 1.7993 1.7643" clip-rule="evenodd"/></g><defs><clipPath id="brand-s3-a"><path fill="#fff" d="M0 0h24v24H0z"/></clipPath><clipPath id="brand-s3-b"><path fill="#fff" d="M0 0h24v24H0z"/></clipPath></defs></svg>