<svg xmlns="http://www.w3.org/2000/svg" fill="none" viewBox="0 0 24 24"><path fill="currentColor" d="M12.4595 4.5c-2.3942 0-4.1417 1.1331-5.2747 2.3557a7.6 7.6 0 0 0-.7614 1.0249c-.6926 1.119-1.5313 2.7086-2.2056 3.9876-.4862.9216-.8716 1.6556-1.101 2.0177-.3073.4984-.83.7806-1.385.7806-.1788 0-.3675-.0334-.5464-.0946-.0138-.0047-.0274-.0089-.0412-.0183.5917 2.7225 2.913 4.7817 5.7155 4.9133 2.0777-.2069 3.3528-3.2582 4.128-5.1062.1926-.4561.3575-.8509.5088-1.1425 1.2063-2.3369 3.0316-5.0171 6.4671-5.0171.2889 0 .5739.0229.8537.0652C17.5468 6.014 15.1382 4.5 12.4595 4.5M5.9647 6.9034c-2.7061.522-4.66 2.9192-4.9307 5.5994v-.0845a4.3 4.3 0 0 0-.0269.3435c-.0046.0611-.01.1271-.0054.1883.0092.362.1839.6256.482.7338.2752.094.6471.042.8627-.3013.2064-.3385.6047-1.0908 1.0634-1.9607.6834-1.2931 1.5323-2.901 2.2387-4.0437.0825-.141.1878-.3008.3162-.4748m11.9989 2.2381c-2.9447 0-4.5684 2.412-5.6555 4.5139-.133.2586-.2931.639-.4765 1.0763-.6009 1.4436-1.486 3.5508-2.8712 4.7545 2.7979.0047 7.8794.0138 9.0032.0138C20.8257 19.5 23 17.1069 23 14.3139c0-2.3276-1.5453-4.3635-3.6873-4.9795v-.0055a4.9 4.9 0 0 0-1.3491-.1874"/></svg>