<svg xmlns="http://www.w3.org/2000/svg" fill="none" viewBox="0 0 24 24"><path fill="currentColor" d="M15.6748 13.5917c1.4458 0 3.5378-.2982 3.5378-2.018a1.62 1.62 0 0 0-.0359-.3952l-.861-3.7401c-.1988-.8229-.3733-1.1962-1.818-1.9186C15.3766 4.9466 12.9344 4 12.2121 4c-.6727 0-.868.8668-1.6701.8668-.772 0-1.3453-.6472-2.0677-.6472-.6934 0-1.1453.4727-1.4944 1.4447 0 0-.972 2.7415-1.0968 3.139a.74.74 0 0 0-.0254.2243c0 1.0656 4.1954 4.5595 9.8171 4.5595m3.7597-1.3153c.1999.9466.1999 1.046.1999 1.1708 0 1.6181-1.8192 2.5161-4.2104 2.5161-5.4044.0035-10.1384-3.1633-10.1384-5.2564a2.13 2.13 0 0 1 .1745-.8472C3.5161 9.9521 1 10.299 1 12.5203c0 3.6384 8.6209 8.1227 15.4468 8.1227 5.2333 0 6.5532-2.367 6.5532-4.2359 0-1.4701-1.2713-3.139-3.5632-4.1353"/></svg>