<svg xmlns="http://www.w3.org/2000/svg" fill="none" viewBox="0 0 24 24"><path fill="currentColor" d="M12.9806 2a3.41 3.41 0 0 0-1.861.5539L3.6889 7.3663c-.4547.2929-.7333.8005-.7333 1.3423v.5081c0 .0293-.0002.0632.0047.0925H7.282l7.5196-4.7686c.3373-.2147.5371-.5665.5566-.9619.0147-.3905-.1512-.7513-.4592-.9905l-.0096-.0095-.0487-.0296A3.41 3.41 0 0 0 12.9806 2m3.3507 1.5158v.1068c-.0294.7175-.3954 1.3523-1.0065 1.7379L8.9005 9.436c1.0756.3368 1.8675 1.3469 1.8773 2.533l7.891-4.9926c.3471-.2196.5423-.5767.5423-.9867 0-.3417-.1421-.649-.3915-.8637zm3.8576 2.4987c-.0098.7273-.376 1.396-.9969 1.7865l-8.4142 5.3254v1.655l1.7942 1.1268 9.8809-6.189c.3422-.2148.5471-.5808.5471-.981v-.0296c0-.5467-.2738-1.0542-.7333-1.347zM2.7111 10.2854c-.945 0-1.7111.7649-1.7111 1.7084v5.3692c0 .9435.766 1.7084 1.7111 1.7084H8.089c.945 0 1.7111-.7649 1.7111-1.7084v-5.3692c0-.9435-.766-1.7084-1.7111-1.7084zM23 10.5295c-.0098.0049-.015.0094-.0248.0143l-9.4837 5.9459 2.1656 1.3614c.8116.5125 1.2958 1.3914 1.2958 2.3481 0 .6882-.25 1.3176-.6656 1.8008h3.7794C21.6849 22 23 20.687 23 19.0714zM5.4563 12.1397c.707 0 1.2825.2304 1.7264.6892.4459.4593.6684 1.064.6684 1.8152 0 .7717-.2302 1.3941-.6922 1.8666q-.6895.7056-1.7809.7055c-.7093 0-1.2917-.2277-1.7464-.6845-.4552-.4569-.6827-1.0534-.6827-1.7885q.0001-1.1648.6932-1.8838c.462-.4798 1.0662-.7197 1.8142-.7197m-.0305.9666c-.3936 0-.71.1448-.9501.4348-.24.2875-.361.669-.361 1.144 0 .4817.121.8633.361 1.144.24.2787.5474.4185.9224.4185.3867 0 .6982-.1367.9338-.408.2357-.2719.3533-.6494.3533-1.1336 0-.5047-.114-.8971-.3427-1.1783-.2289-.2806-.5344-.4214-.9167-.4214m5.352 2.8267v1.43c0 1.4789-1.2076 2.6846-2.689 2.6846h-4.947C3.5622 21.1897 4.6614 22 5.947 22h8.2281c.4742 0 .9053-.1855 1.2279-.4881.352-.327.572-.7954.572-1.3127 0-.6199-.3132-1.1916-.8412-1.5235l-2.5619-1.6102-1.2366-.7817z"/></svg>