<svg xmlns="http://www.w3.org/2000/svg" fill="none" viewBox="0 0 24 24"><path fill="currentColor" d="M13.438 7.063a3.715 3.715 0 0 0-2.272-.057l.003-.001c-.67.198-1.264.601-1.701 1.156s-.698 1.233-.745 1.943a3.53 3.53 0 0 0 .481 2.028c.36.61.895 1.091 1.533 1.38-1.502 1.042-4.499 1.437-8.736-.773l.386-.262c.737-.47 1.308-1.168 1.627-1.994.234-.505.503-.992.807-1.458a9 9 0 0 1-.563-1.092 2.37 2.37 0 0 0-.541-.892 2.31 2.31 0 0 0-.866-.565l-.356-.172.3-.262C4.119 5.105 5.656 4.527 7.259 4.36c.013-1.232.366-2.435 1.021-3.47L8.5.5l.232.39c.106.18.225.351.356.512.227.285.51.516.832.68a6.15 6.15 0 0 0 1.215.374c.393.083.772.223 1.126.415 1.048.557 1.901 1.432 2.441 2.505a3.743 3.743 0 0 1 .169 2.754s-.056.18-.082.256a4 4 0 0 0-.088-.189c-.021-.043-.043-.089-.068-.143a2.75 2.75 0 0 0-1.195-.99M11.066 17.677a3.75 3.75 0 0 0 2.252-.256l.007.001c.636-.291 1.169-.774 1.527-1.384a3.53 3.53 0 0 0 .476-2.028c-.049-.71-.309-1.387-.747-1.94s-1.031-.956-1.701-1.154c1.353-1.246 4.268-2.045 8.756-.441-.082.078-.35.313-.35.313-.665.568-1.135 1.337-1.343 2.196a10.8 10.8 0 0 1-.607 1.552c.257.319.492.655.704 1.006a2.36 2.36 0 0 0 .654.806c.274.216.592.366.93.44l.376.128-.263.3c-1.19 1.111-2.637 1.896-4.205 2.281a6.63 6.63 0 0 1-.55 3.579l-.169.421-.281-.352a4.05 4.05 0 0 0-.422-.454 2.51 2.51 0 0 0-.914-.556 6.47 6.47 0 0 0-1.258-.204 4.04 4.04 0 0 1-1.164-.256c-1.11-.411-2.069-1.161-2.748-2.147-.513-.797-.701-1.766-.524-2.702 0 0 .038-.193.051-.269.036.065.071.116.111.174.027.039.056.081.089.132a2.755 2.755 0 0 0 1.315.812"/></svg>