<svg xmlns="http://www.w3.org/2000/svg" fill="none" viewBox="0 0 24 24"><path fill="currentColor" d="M15.2575 2c2.3898.0042 2.4833.0243 2.9502.0918.964.139 1.7731.5236 2.4346 1.1553.3707.3567.6265.7057.8564 1.1728.2803.5707.4174 1.1111.4805 1.914.0135.176.0205 2.9158.0205 5.6573 0 2.743-.006 5.4898-.0195 5.6621-.0623.7901-.2002 1.3347-.4717 1.8946a4.188 4.188 0 0 1-2.7305 2.2353c-.4343.1122-.8274.1645-1.5039.1963-.2416.0123-2.7674.0156-5.2929.0156-2.5247 0-5.0477-.0078-5.297-.0185-.5844-.0277-1.0399-.0863-1.452-.1924-1.1906-.3077-2.2014-1.1322-2.7305-2.2305-.2768-.5736-.4074-1.0981-.4766-1.9316-.02-.2369-.0244-1.4568-.0244-5.628 0-1.4054-.0016-2.4538 0-3.25.004-2.388.0232-2.4837.0908-2.9511.1392-.9632.5237-1.774 1.1582-2.4327.3484-.3611.7018-.6185 1.1494-.8408.5808-.2891 1.114-.4239 1.9707-.495C6.6076 2.0046 7.829 2 12.0026 2zm-3.2607 2.6152c-2.0038 0-2.2557.0091-3.043.045-.7859.036-1.3226.1602-1.792.3427-.4855.1886-.8973.4411-1.3076.8516-.4106.4103-.6634.8222-.8525 1.3076-.183.4695-.3074 1.0065-.3428 1.792-.0352.7873-.044 1.0393-.044 3.0439 0 2.0052.0083 2.2565.044 3.044.0361.7859.1604 1.3226.3428 1.792.1886.4854.4412.8973.8515 1.3076.4102.4106.8224.664 1.3076.8525.4698.1826 1.0072.3068 1.793.3428.7872.0358 1.0394.0449 3.044.0449s2.2557-.0091 3.0429-.0449c.7859-.036 1.3233-.1602 1.793-.3428.4854-.1885.8974-.4418 1.3076-.8525.4104-.4102.6624-.8223.8516-1.3076.1814-.4696.3058-1.0064.3427-1.792.0354-.7874.045-1.0389.045-3.044 0-2.0047-.0096-2.2564-.045-3.0439-.0369-.786-.1612-1.3225-.3427-1.792-.1892-.4854-.4412-.8974-.8516-1.3076-.4106-.4106-.8217-.6631-1.3076-.8516-.4707-.1825-1.008-.3068-1.794-.3427-.7872-.0359-1.0381-.045-3.0429-.045m-.6612 1.3301c.1966-.0003.4167 0 .6631 0 1.9705 0 2.2044.0076 2.9825.043.7196.0329 1.1108.1528 1.371.2539.3446.1338.5904.2943.8487.5527s.4186.5042.5527.8487c.1011.26.2212.6512.2539 1.371.0354.778.043 1.0124.043 2.9825s-.0076 2.2041-.043 2.9824c-.0329.7195-.1529 1.1102-.2539 1.3701-.1338.3446-.2943.5904-.5527.8486-.2584.2584-.504.418-.8487.5518-.2599.1015-.6513.222-1.371.2549-.7779.0353-1.012.0429-2.9825.043-1.971 0-2.2055-.0077-2.9834-.043-.7196-.0332-1.1106-.1539-1.371-.2549-.3446-.1338-.5913-.2934-.8497-.5518s-.4186-.504-.5527-.8486c-.101-.2599-.2212-.6512-.254-1.3711-.0353-.7781-.0419-1.0121-.0419-2.9834s.0066-2.2044.042-2.9824c.0329-.7197.1529-1.1108.2539-1.3711.1338-.3446.2943-.5912.5527-.8496s.5051-.4177.8496-.5518c.2603-.1015.6514-.2218 1.3711-.2548.6807-.0308.9449-.0405 2.3203-.042zm.6631 2.2617c-2.0937 0-3.7918 1.6973-3.792 3.791 0 2.094 1.6982 3.7911 3.792 3.7911 2.0937-.0003 3.7901-1.6973 3.7901-3.7911-.0002-2.0936-1.6965-3.7907-3.7901-3.791m0 1.3301c1.3588.0003 2.4608 1.102 2.461 2.4609 0 1.359-1.1021 2.4617-2.461 2.462-1.3592 0-2.4619-1.1028-2.4619-2.462.0002-1.3591 1.1028-2.4609 2.4619-2.4609m3.9405-2.3662c-.4891 0-.8858.3975-.8858.8867.0002.489.3968.8857.8858.8858s.8855-.3968.8857-.8858c0-.4891-.3966-.8867-.8857-.8867"/></svg>