<svg xmlns="http://www.w3.org/2000/svg" fill="none" viewBox="0 0 24 24"><g clip-path="url(#brand-linkedin-a)"><g clip-path="url(#brand-linkedin-b)"><path fill="red" fill-opacity=".7" d="M15.0005-.0254A.026.026 0 0 1 15.0259 0v8.9395l8.957-8.957a.025.025 0 0 1 .0352 0 .0254.0254 0 0 1 0 .035L15.061 8.9747h8.9444A.026.026 0 0 1 24.0308 9a.026.026 0 0 1-.0254.0254h-8.9795v2.9443h8.9795a.026.026 0 0 1 .0254.0254.026.026 0 0 1-.0254.0254h-8.9795v2.9541h8.9795a.026.026 0 0 1 .0254.0254.026.026 0 0 1-.0254.0254H15.061l8.9571 8.957a.0255.0255 0 0 1 0 .0352.025.025 0 0 1-.0352 0l-8.957-8.9571V24a.026.026 0 0 1-.0254.0254.0257.0257 0 0 1-.0254-.0254v-8.9746h-2.9492V24a.026.026 0 0 1-.0254.0254.0257.0257 0 0 1-.0254-.0254v-8.9746H9.0259V24a.026.026 0 0 1-.0254.0254A.0257.0257 0 0 1 8.975 24v-8.9395l-8.957 8.9571a.025.025 0 0 1-.0352 0 .025.025 0 0 1 0-.0352l8.957-8.957H.0054A.0257.0257 0 0 1-.02 15a.0257.0257 0 0 1 .0254-.0254H8.975v-2.9541H.0054a.026.026 0 0 1-.0254-.0254.0257.0257 0 0 1 .0254-.0254H8.975V9.0254H.0054A.0257.0257 0 0 1-.02 9a.0257.0257 0 0 1 .0254-.0254h8.9345L-.017.0176a.025.025 0 0 1 0-.0352.025.025 0 0 1 .0352 0l8.957 8.957V0a.0257.0257 0 0 1 .0254-.0254A.026.026 0 0 1 9.0259 0v8.9746h2.9492V0a.0257.0257 0 0 1 .0254-.0254.026.026 0 0 1 .0254.0254v8.9746h2.9492V0a.0257.0257 0 0 1 .0254-.0254m-5.9395 15h2.9141v-2.9141zm2.9649 0h2.914l-2.914-2.9141zm2.9492-.0351v-2.919h-2.9189zm-5.9492 0 2.9189-2.919h-2.919zm0-2.9698h2.9092L9.0259 9.0605zm3.04 0h2.9092V9.0605zm-.0908-.0302V9.0254h-2.914zm.0508 0 2.914-2.9141h-2.914z" opacity=".9"/><rect width="20" height="20" x="2" y="2" stroke="red" stroke-linecap="round" stroke-width=".1" rx="3"/></g><path fill="currentColor" fill-rule="evenodd" d="M2 3.6708C2 2.748 2.7475 2 3.6708 2h16.6584C21.252 2 22 2.7475 22 3.6708v16.6584C22 21.252 21.2525 22 20.3292 22H3.6708C2.748 22 2 21.2525 2 20.3292zM9.9167 9.619h2.7083v1.3667c.3904-.7825 1.3908-1.4858 2.8937-1.4858 2.8809 0 3.5646 1.5575 3.5646 4.4154v5.2275h-2.9166v-4.5766c0-1.6275-.3904-2.5455-1.3834-2.5455-1.377 0-1.95.9896-1.95 2.5455v4.5766H9.9167zm-5 9.5238h2.9166V9.619H4.9167zM8.25 6.375c0 1.0354-.8396 1.875-1.875 1.875S4.5 7.4104 4.5 6.375 5.3396 4.5 6.375 4.5s1.875.8396 1.875 1.875" clip-rule="evenodd"/></g><defs><clipPath id="brand-linkedin-a"><path fill="#fff" d="M0 0h24v24H0z"/></clipPath><clipPath id="brand-linkedin-b"><path fill="#fff" d="M0 0h24v24H0z"/></clipPath></defs></svg>