<svg xmlns="http://www.w3.org/2000/svg" fill="none" viewBox="0 0 24 24"><path fill="currentColor" fill-rule="evenodd" d="M10.1544 5.8904c.7098-.741 1.6977-1.1998 2.789-1.1998 1.4551 0 2.7163.8107 3.3953 2.0187a4.68 4.68 0 0 1 1.916-.4095C20.8739 6.2998 23 8.4482 23 11.0993s-2.1261 4.7995-4.7453 4.7995a4.8 4.8 0 0 1-.9378-.0932c-.5942 1.062-1.73 1.7835-3.0234 1.7835a3.44 3.44 0 0 1-1.5199-.3502c-.6022 1.4188-2.0048 2.5528-3.6378 2.5528-1.7057 0-3.1528-1.2151-3.7106-2.7312a3.64 3.64 0 0 1-.755.0789C2.641 17.1394 1 15.4693 1 13.4181a3.742 3.742 0 0 1 1.835-3.2266 4.275 4.275 0 0 1-.3516-1.7025c0-2.3674 1.916-4.2807 4.2765-4.2807a4.254 4.254 0 0 1 3.3953 1.6863" clip-rule="evenodd"/></svg>