<svg xmlns="http://www.w3.org/2000/svg" fill="none" viewBox="0 0 24 24"><g clip-path="url(#brand-nutanix-a)"><path fill="red" fill-opacity=".7" d="M15.0005-.0254A.026.026 0 0 1 15.0259 0v8.9395l8.957-8.957a.025.025 0 0 1 .0352 0 .0254.0254 0 0 1 0 .035L15.061 8.9747h8.9444A.026.026 0 0 1 24.0308 9a.026.026 0 0 1-.0254.0254h-8.9795v2.9443h8.9795a.026.026 0 0 1 .0254.0254.026.026 0 0 1-.0254.0254h-8.9795v2.9541h8.9795a.026.026 0 0 1 .0254.0254.026.026 0 0 1-.0254.0254H15.061l8.9571 8.957a.0255.0255 0 0 1 0 .0352.025.025 0 0 1-.0352 0l-8.957-8.9571V24a.026.026 0 0 1-.0254.0254.0257.0257 0 0 1-.0254-.0254v-8.9746h-2.9492V24a.026.026 0 0 1-.0254.0254.0257.0257 0 0 1-.0254-.0254v-8.9746H9.0259V24a.026.026 0 0 1-.0254.0254A.0257.0257 0 0 1 8.975 24v-8.9395l-8.957 8.9571a.025.025 0 0 1-.0352 0 .025.025 0 0 1 0-.0352l8.957-8.957H.0054A.0257.0257 0 0 1-.02 15a.0257.0257 0 0 1 .0254-.0254H8.975v-2.9541H.0054a.026.026 0 0 1-.0254-.0254.0257.0257 0 0 1 .0254-.0254H8.975V9.0254H.0054A.0257.0257 0 0 1-.02 9a.0257.0257 0 0 1 .0254-.0254h8.9345L-.017.0176a.025.025 0 0 1 0-.0352.025.025 0 0 1 .0352 0l8.957 8.957V0a.0257.0257 0 0 1 .0254-.0254A.026.026 0 0 1 9.0259 0v8.9746h2.9492V0a.0257.0257 0 0 1 .0254-.0254.026.026 0 0 1 .0254.0254v8.9746h2.9492V0a.0257.0257 0 0 1 .0254-.0254m-5.9395 15h2.9141v-2.9141zm2.9649 0h2.914l-2.914-2.9141zm2.9492-.0351v-2.919h-2.9189zm-5.9492 0 2.9189-2.919h-2.919zm0-2.9698h2.9092L9.0259 9.0605zm3.04 0h2.9092V9.0605zm-.0908-.0302V9.0254h-2.914zm.0508 0 2.914-2.9141h-2.914z" opacity=".9"/><path stroke="red" stroke-linecap="round" stroke-width=".1" d="M4 21c-1.6568 0-3-1.3431-3-3V6c0-1.6569 1.3432-3 3-3h16c1.6569 0 3 1.3431 3 3v12c0 1.6569-1.3431 3-3 3z"/></g><path fill="currentColor" d="M14.36 12.238a.329.329 0 0 0 .098-.234.328.328 0 0 0-.098-.234l-.078-.07-8.895-7.724a.36.36 0 0 0-.226-.086H.857a.359.359 0 0 0-.351.305.375.375 0 0 0 .133.352l8.145 7.161a.391.391 0 0 1 0 .601L.623 19.415a.399.399 0 0 0-.094.437.367.367 0 0 0 .336.211h4.475a.375.375 0 0 0 .234-.086l8.7-7.677zM15.641 10.669a.383.383 0 0 0 .5 0l7.122-6.123a.399.399 0 0 0 .133-.351.359.359 0 0 0-.351-.305h-4.303a.375.375 0 0 0-.234.086l-4.998 4.217a.406.406 0 0 0-.098.465.41.41 0 0 0 .098.136zM16.117 13.347l7.224 6.107a.376.376 0 0 1 .156.352.352.352 0 0 1-.351.305h-4.319a.36.36 0 0 1-.226-.086l-4.967-4.28a.405.405 0 0 1-.133-.301.407.407 0 0 1 .133-.301l1.991-1.796a.367.367 0 0 1 .492 0"/><defs><clipPath id="brand-nutanix-a"><path fill="#fff" d="M0 0h24v24H0z"/></clipPath></defs></svg>