<svg xmlns="http://www.w3.org/2000/svg" fill="none" viewBox="0 0 24 24"><path fill="currentColor" d="M19 2c1.6569 0 3 1.3432 3 3v14c0 1.6569-1.3431 3-3 3H5c-1.6568 0-3-1.3431-3-3V5c0-1.6568 1.3432-3 3-3zm-7.1475 2.2568c-.264-.1928-.5867-.2984-.9267-.2412-.3386.057-.6115.2617-.8037.5235-.3703.5044-.491 1.2691-.3916 2.1308.0987.8552.4217 1.898 1.0625 3.0977-.442 1.9341-.9567 3.4935-1.4864 4.7344-2.1396 1.0983-3.388 2.2494-3.9462 3.2021-.2699.4606-.4496 1.0006-.3145 1.4961.0738.2705.2385.5045.4844.6494.2345.1382.4935.167.7265.1426.455-.0477.9435-.3088 1.418-.708.4865-.4093 1.0072-1.0046 1.5273-1.8096.3568-.552.7164-1.2078 1.0674-1.9775 1.4698-.7257 2.6943-1.1915 3.6993-1.4698l.0185.0196c1.2872 1.3616 2.5221 1.8716 3.5029 1.7461.4902-.0629.9224-.2901 1.2032-.6602.2852-.3759.3868-.8705.2382-1.3506-.2944-.9507-1.3789-1.4594-2.8378-1.4384-.4966.0071-1.0652.0727-1.711.2119-.9831-1.1004-1.7046-2.0999-2.2236-2.9834.201-.677.4196-1.6318.4892-2.541.0386-.5043.0344-1.0297-.0625-1.499-.0955-.463-.3005-.9592-.7334-1.2755m-3.706 12.4727c-.465.7191-.9024 1.2075-1.2686 1.5156-.221.186-.4014.2944-.5351.3545a1.9 1.9 0 0 1 .1025-.1982c.2523-.4306.7806-1.0196 1.7012-1.6719m7.9648-3.0527c1.3075-.0188 1.5869.4416 1.6104.5166.01.0323.0094.0646-.0244.1093-.0387.051-.1437.1391-.3614.167-.3488.0447-.9759-.08-1.8007-.7558a6.1 6.1 0 0 1 .5761-.0371m-4.3799-2.3809c.3621.5242.7801 1.0711 1.2598 1.6387-.6112.1977-1.2763.4511-1.998.7666.2582-.7263.5061-1.5267.7382-2.4053m-.6025-5.9424c.0616.0475.1528.1688.2129.46.0602.2919.0716.6736.0381 1.1113a9 9 0 0 1-.0977.79c-.1584-.4592-.2495-.8627-.289-1.205-.0792-.6863.0523-1.0406.1357-1.1563"/></svg>