<svg xmlns="http://www.w3.org/2000/svg" fill="none" viewBox="0 0 24 24"><path fill="currentColor" fill-rule="evenodd" d="M7.8658 8.2674c0 .446-.2092.8617-.53 1.1715-1.0465 1.0103-1.9193 2.5297-2.2791 4.0312-.133.5546 1.9674.6672 2.0759-.0053.301-1.8672 1.3356-3.6034 2.6093-4.459.0933-.0626.217-.0469.2965.0326l.975.975a.733.733 0 0 0 1.037 0l1.2428-1.2428c.0711-.0711.1789-.092.2692-.0477 1.5271.7502 2.7712 2.6221 3.1021 4.7419.0902.5783 2.9309.5444 2.7798-.0325-.2777-1.0601-.8462-2.136-1.3177-3.0575-.7318-1.4304-1.4621-2.858-1.4621-4.7921C16.6645 3.0517 14.6948 1 12.2651 1S7.8658 3.0517 7.8658 5.5827zm3.3608-2.09c.0885-.008.1678-.0614.1978-.145.0689-.1916.1075-.4063.1075-.633 0-.81-.4924-1.4665-1.0998-1.4665s-1.0999.6565-1.0999 1.4664c0 .3477.0908.6671.2424.9185.0521.0864.1582.1183.2557.0923a6 6 0 0 1 .0722-.0187.7332.7332 0 1 1 .962-.1757q.1768-.022.3621-.0384m3.083-.0265c-.0423.0942-.1465.1397-.2483.1225a9 9 0 0 0-.2763-.0422.7332.7332 0 1 0-1.2999-.4653c0 .1353.0366.262.1005.3708l-.0148-.0004c-.0962-.0024-.1843-.0592-.2143-.1507a1.89 1.89 0 0 1-.0914-.5863c0-.8099.4924-1.4664 1.0999-1.4664.6074 0 1.0998.6565 1.0998 1.4664 0 .2747-.0567.5318-.1552.7516" clip-rule="evenodd"/><path fill="currentColor" d="M9.699 22.576a.216.216 0 0 1-.149-.213l.054-1.777c.005-.164.182-.266.333-.201 1.227.528 3.347.355 4.452-.386.153-.103.371-.002.376.182l.054 2.182a.216.216 0 0 1-.149.212c-1.369.437-3.602.438-4.972.001M7.866 21.946v-5.542c0-.409-.309-.74-.691-.74-.244 0-.416.139-.573.307-.382.409-1.001.409-1.383 0-.157-.168-.328-.307-.573-.307-.6 0-.691.583-.691 1.047 0 .578-.438 1.047-.978 1.047-.483 0-.978.145-.978.74 0 .196.073.385.203.524l3.422 3.665c.299.32.701.314 1.101.308a10 10 0 0 1 .163-.002c.54 0 .978-.469.978-1.047M16.665 16.405v5.544c0 .579.438 1.048.978 1.048q.081 0 .163.002c.4.006.802.012 1.101-.308l3.422-3.666c.13-.139.203-.327.203-.524 0-.409-.309-.741-.691-.741-.652 0-1.264-.286-1.264-1.047 0-.464-.091-1.047-.691-1.047-.244 0-.416.139-.573.307-.382.409-1.001.409-1.383 0-.157-.168-.328-.307-.573-.307-.382 0-.691.332-.691.741"/></svg>