<svg xmlns="http://www.w3.org/2000/svg" fill="none" viewBox="0 0 24 24"><g clip-path="url(#brand-microsoft365-a)"><g clip-path="url(#brand-microsoft365-b)"><path fill="red" fill-opacity=".7" d="M15.0005-.0254A.026.026 0 0 1 15.0259 0v8.9395l8.957-8.957a.025.025 0 0 1 .0352 0 .0254.0254 0 0 1 0 .035L15.061 8.9747h8.9444A.026.026 0 0 1 24.0308 9a.026.026 0 0 1-.0254.0254h-8.9795v2.9443h8.9795a.026.026 0 0 1 .0254.0254.026.026 0 0 1-.0254.0254h-8.9795v2.9541h8.9795a.026.026 0 0 1 .0254.0254.026.026 0 0 1-.0254.0254H15.061l8.9571 8.957a.0255.0255 0 0 1 0 .0352.025.025 0 0 1-.0352 0l-8.957-8.9571V24a.026.026 0 0 1-.0254.0254.0257.0257 0 0 1-.0254-.0254v-8.9746h-2.9492V24a.026.026 0 0 1-.0254.0254.0257.0257 0 0 1-.0254-.0254v-8.9746H9.0259V24a.026.026 0 0 1-.0254.0254A.0257.0257 0 0 1 8.975 24v-8.9395l-8.957 8.9571a.025.025 0 0 1-.0352 0 .025.025 0 0 1 0-.0352l8.957-8.957H.0054A.0257.0257 0 0 1-.02 15a.0257.0257 0 0 1 .0254-.0254H8.975v-2.9541H.0054a.026.026 0 0 1-.0254-.0254.0257.0257 0 0 1 .0254-.0254H8.975V9.0254H.0054A.0257.0257 0 0 1-.02 9a.0257.0257 0 0 1 .0254-.0254h8.9345L-.017.0176a.025.025 0 0 1 0-.0352.025.025 0 0 1 .0352 0l8.957 8.957V0a.0257.0257 0 0 1 .0254-.0254A.026.026 0 0 1 9.0259 0v8.9746h2.9492V0a.0257.0257 0 0 1 .0254-.0254.026.026 0 0 1 .0254.0254v8.9746h2.9492V0a.0257.0257 0 0 1 .0254-.0254m-5.9395 15h2.9141v-2.9141zm2.9649 0h2.914l-2.914-2.9141zm2.9492-.0351v-2.919h-2.9189zm-5.9492 0 2.9189-2.919h-2.919zm0-2.9698h2.9092L9.0259 9.0605zm3.04 0h2.9092V9.0605zm-.0908-.0302V9.0254h-2.914zm.0508 0 2.914-2.9141h-2.914z" opacity=".9"/><rect width="20" height="20" x="2" y="2" stroke="red" stroke-linecap="round" stroke-width=".1" rx="3"/></g><path fill="currentColor" d="M9.7734 15.4106c-1.2756-.7727-2.071-2.1809-2.071-3.6759v-7.114c0-.7452.1782-1.4584.5074-2.0893L4.0173 5.0688c-1.2801.7727-2.0756 2.1808-2.0756 3.6758v6.4694c0 .7269.192 1.4356.5303 2.0573.3155.5121.7635.9419 1.3167 1.2528 1.1567.6492 2.5192.6217 3.6484-.0686l3.6667-2.2403zM20.1563 12.96l-3.8587-2.3088v1.0469c0 1.4859-.7864 2.8941-2.0528 3.6667l-6.3276 3.8725c-.695.4252-1.4585.6492-2.2266.6675l4.0828 2.4734A4.29 4.29 0 0 0 12 23a4.29 4.29 0 0 0 2.2266-.6218l5.7606-3.4884a3.1 3.1 0 0 0 .3567-.2469c.0365-.0228.0731-.0503.1051-.0731.2972-.2423.5624-.5167.7818-.8184l.0275-.0411c.352-.5441.5486-1.1842.544-1.8563-.0046-1.1978-.6172-2.2814-1.6459-2.894m-.1737-7.8912L14.2265 1.585c-.192-.1189-.3932-.215-.5989-.2972a3.45 3.45 0 0 0-.6904-.2149c-.8412-.1737-1.7191-.0366-2.4963.407-1.143.6537-1.8242 1.8241-1.8242 3.1409v4.389l1.2802-.7544a4.119 4.119 0 0 1 4.2016.0138l6.5287 3.9044c.5898.3566 1.0744.8275 1.4265 1.3807l.0045-4.8096c0-1.495-.7955-2.9032-2.0756-3.6759"/></g><defs><clipPath id="brand-microsoft365-a"><path fill="#fff" d="M0 0h24v24H0z"/></clipPath><clipPath id="brand-microsoft365-b"><path fill="#fff" d="M0 0h24v24H0z"/></clipPath></defs></svg>