<svg xmlns="http://www.w3.org/2000/svg" fill="none" viewBox="0 0 24 24"><path fill="currentColor" d="M3.0002 6.5c0 1.685 4.0275 3.5945 8.9999 3.5945S21 8.1851 21 6.5v12.2021C21 21.075 16.9726 23 12.0001 23s-8.9999-1.925-8.9999-4.2979z"/><path fill="currentColor" d="M21 5.1025c0 2.2657-4.0294 4.1024-8.9999 4.1024S3.0002 7.3682 3.0002 5.1025 7.0296 1 12.0001 1 21 2.8367 21 5.1025"/><path fill="#f4f5f5" d="M9.264 16.2017c0 .8679-.7142 1.3752-1.6304 1.3752-.4919 0-1.078-.1936-1.3946-.4873-.1482-.1402-.2358-.2938-.2358-.4673.0067-.3071.256-.5074.5187-.5074a.484.484 0 0 1 .2628.0801c.017.0112.0392.0293.0665.0516.135.1099.3958.3223.7824.3223.3099 0 .458-.1069.458-.3205 0-.2069-.1414-.2737-.4513-.4072l-.4581-.2003c-.7074-.3071-1.1251-.7077-1.1251-1.3285 0-.7878.6737-1.3019 1.5563-1.3019.7815-.0067 1.1587.3806 1.2665.5074.1011.1135.1348.2337.1348.3405 0 .2937-.2628.514-.5188.514-.0943 0-.1954-.0267-.2964-.1001a2 2 0 0 1-.0862-.0635c-.1187-.0909-.2481-.1902-.4865-.1902-.229 0-.3975.0801-.3975.2804 0 .1669.1078.247.384.3605l.512.2136c.7412.3071 1.1387.681 1.1387 1.3286"/><path fill="#f4f5f5" fill-rule="evenodd" d="M14.3855 15.2937c0 .6373-.2655 1.2103-.6972 1.6204l.2004.2979a.5106.5106 0 0 1-.1437.7121c-.2382.1574-.5599.0936-.7187-.1424l-.236-.3508a.74.74 0 0 1-.1497.0593c-.2089.06-.4312.0867-.6603.0867-1.3474 0-2.3917-1.0014-2.3917-2.2832s1.051-2.2832 2.3917-2.2832c1.3474 0 2.4052 1.0081 2.4052 2.2832m-1.5333.3776.1844.2741c.1051-.1846.1631-.4057.1631-.6517 0-.721-.5052-1.2284-1.2194-1.2284-.7141 0-1.2059.5007-1.2059 1.2284s.485 1.2284 1.2059 1.2284q.0982 0 .1903-.0123l-.1808-.2687a.5107.5107 0 0 1 .1437-.7122c.2382-.1573.56-.0935.7187.1424" clip-rule="evenodd"/><path fill="#f4f5f5" d="M15.5239 17.4968h1.9538c.3032 0 .5255-.2136.5255-.514s-.2223-.5208-.5255-.5208h-1.3811v-2.8707c0-.3338-.2425-.5808-.5794-.5808s-.5794.2804-.5794.5808v3.3247c0 .3338.2493.5808.5861.5808"/></svg>