<svg xmlns="http://www.w3.org/2000/svg" fill="none" viewBox="0 0 24 24"><g clip-path="url(#brand-acronis-cloud-a)"><path fill="red" fill-opacity=".7" d="M15.0005-.0254A.026.026 0 0 1 15.0259 0v8.9395l8.957-8.957a.025.025 0 0 1 .0352 0 .0254.0254 0 0 1 0 .035L15.061 8.9747h8.9444A.026.026 0 0 1 24.0308 9a.026.026 0 0 1-.0254.0254h-8.9795v2.9443h8.9795a.026.026 0 0 1 .0254.0254.026.026 0 0 1-.0254.0254h-8.9795v2.9541h8.9795a.026.026 0 0 1 .0254.0254.026.026 0 0 1-.0254.0254H15.061l8.9571 8.957a.0255.0255 0 0 1 0 .0352.025.025 0 0 1-.0352 0l-8.957-8.9571V24a.026.026 0 0 1-.0254.0254.0257.0257 0 0 1-.0254-.0254v-8.9746h-2.9492V24a.026.026 0 0 1-.0254.0254.0257.0257 0 0 1-.0254-.0254v-8.9746H9.0259V24a.026.026 0 0 1-.0254.0254A.0257.0257 0 0 1 8.975 24v-8.9395l-8.957 8.9571a.025.025 0 0 1-.0352 0 .025.025 0 0 1 0-.0352l8.957-8.957H.0054A.0257.0257 0 0 1-.02 15a.0257.0257 0 0 1 .0254-.0254H8.975v-2.9541H.0054a.026.026 0 0 1-.0254-.0254.0257.0257 0 0 1 .0254-.0254H8.975V9.0254H.0054A.0257.0257 0 0 1-.02 9a.0257.0257 0 0 1 .0254-.0254h8.9345L-.017.0176a.025.025 0 0 1 0-.0352.025.025 0 0 1 .0352 0l8.957 8.957V0a.0257.0257 0 0 1 .0254-.0254A.026.026 0 0 1 9.0259 0v8.9746h2.9492V0a.0257.0257 0 0 1 .0254-.0254.026.026 0 0 1 .0254.0254v8.9746h2.9492V0a.0257.0257 0 0 1 .0254-.0254m-5.9395 15h2.9141v-2.9141zm2.9649 0h2.914l-2.914-2.9141zm2.9492-.0351v-2.919h-2.9189zm-5.9492 0 2.9189-2.919h-2.919zm0-2.9698h2.9092L9.0259 9.0605zm3.04 0h2.9092V9.0605zm-.0908-.0302V9.0254h-2.914zm.0508 0 2.914-2.9141h-2.914z" opacity=".9"/><path stroke="red" stroke-linecap="round" stroke-width=".1" d="M4 21c-1.6568 0-3-1.3431-3-3V6c0-1.6569 1.3432-3 3-3h16c1.6569 0 3 1.3431 3 3v12c0 1.6569-1.3431 3-3 3z"/></g><path fill="currentColor" d="M12.028 9.899h-.053l-.06.168-1.145 2.669H13.23l-1.141-2.669zM10.318 13.764l-.376.857h4.117l-.376-.857z"/><path fill="currentColor" fill-rule="evenodd" d="M20.0093 11.518a6.88 6.88 0 0 0 .2407-1.8097c0-3.797-3.078-6.875-6.875-6.875-3.005 0-5.5597 1.928-6.4947 4.6144-2.2786.2656-4.047 2.2024-4.047 4.5523 0 .5116.0839 1.0037.2385 1.4631C1.8338 14.175 1 15.511 1 17.0417c0 2.2782 1.8468 4.125 4.125 4.125h12.8333c2.7845 0 5.0417-2.2573 5.0417-5.0417 0-2.0541-1.2284-3.8213-2.9907-4.607M7.4167 17.5l4.0269-9.1667h1.1128L16.5833 17.5h-1.2839l-.7892-1.8505H9.4898L8.7006 17.5z" clip-rule="evenodd"/><defs><clipPath id="brand-acronis-cloud-a"><path fill="#fff" d="M0 0h24v24H0z"/></clipPath></defs></svg>