<svg xmlns="http://www.w3.org/2000/svg" fill="none" viewBox="0 0 24 24"><path fill="currentColor" d="M14.183 7.26c.627-.317 1.317-.666 2.328-.666 1.339 0 3.55 1.189 4.442 2.532-1.696.644-2.9 2.273-2.9 4.18 0 1.925 1.227 3.566 2.948 4.198-.44.999-.698 1.493-1.289 2.42-.862 1.355-2.043 3.066-3.554 3.077-.621.005-1.038-.185-1.488-.389-.523-.238-1.089-.496-2.068-.488-.971.005-1.516.259-2.018.492-.438.204-.842.392-1.466.385C6.909 23 3 18.069 3 13.626c0-4.884 3.303-6.957 5.476-6.958.837 0 1.566.301 2.261.588.632.261 1.234.51 1.863.51.583 0 1.061-.242 1.582-.506M15.584 4.891c-1.137 1.126-2.622 1.622-3.885 1.423l-.001.001c-.201-1.251.299-2.723 1.436-3.849S15.756.844 17.019 1.043l.001-.001c.201 1.252-.299 2.723-1.436 3.849"/></svg>