<svg xmlns="http://www.w3.org/2000/svg" fill="none" viewBox="0 0 24 24"><g clip-path="url(#brand-meta-whatsapp-a)"><g clip-path="url(#brand-meta-whatsapp-b)"><path fill="red" fill-opacity=".7" d="M15.0005-.0254A.026.026 0 0 1 15.0259 0v8.9395l8.957-8.957a.025.025 0 0 1 .0352 0 .0254.0254 0 0 1 0 .035L15.061 8.9747h8.9444A.026.026 0 0 1 24.0308 9a.026.026 0 0 1-.0254.0254h-8.9795v2.9443h8.9795a.026.026 0 0 1 .0254.0254.026.026 0 0 1-.0254.0254h-8.9795v2.9541h8.9795a.026.026 0 0 1 .0254.0254.026.026 0 0 1-.0254.0254H15.061l8.9571 8.957a.0255.0255 0 0 1 0 .0352.025.025 0 0 1-.0352 0l-8.957-8.9571V24a.026.026 0 0 1-.0254.0254.0257.0257 0 0 1-.0254-.0254v-8.9746h-2.9492V24a.026.026 0 0 1-.0254.0254.0257.0257 0 0 1-.0254-.0254v-8.9746H9.0259V24a.026.026 0 0 1-.0254.0254A.0257.0257 0 0 1 8.975 24v-8.9395l-8.957 8.9571a.025.025 0 0 1-.0352 0 .025.025 0 0 1 0-.0352l8.957-8.957H.0054A.0257.0257 0 0 1-.02 15a.0257.0257 0 0 1 .0254-.0254H8.975v-2.9541H.0054a.026.026 0 0 1-.0254-.0254.0257.0257 0 0 1 .0254-.0254H8.975V9.0254H.0054A.0257.0257 0 0 1-.02 9a.0257.0257 0 0 1 .0254-.0254h8.9345L-.017.0176a.025.025 0 0 1 0-.0352.025.025 0 0 1 .0352 0l8.957 8.957V0a.0257.0257 0 0 1 .0254-.0254A.026.026 0 0 1 9.0259 0v8.9746h2.9492V0a.0257.0257 0 0 1 .0254-.0254.026.026 0 0 1 .0254.0254v8.9746h2.9492V0a.0257.0257 0 0 1 .0254-.0254m-5.9395 15h2.9141v-2.9141zm2.9649 0h2.914l-2.914-2.9141zm2.9492-.0351v-2.919h-2.9189zm-5.9492 0 2.9189-2.919h-2.919zm0-2.9698h2.9092L9.0259 9.0605zm3.04 0h2.9092V9.0605zm-.0908-.0302V9.0254h-2.914zm.0508 0 2.914-2.9141h-2.914z" opacity=".9"/><circle cx="12" cy="12" r="11" stroke="red" stroke-linecap="round" stroke-width=".1"/></g><path fill="currentColor" d="M12 1c6.0751 0 11 4.9249 11 11s-4.9249 11-11 11S1 18.0751 1 12 5.9249 1 12 1m0 4.5c-3.5898 0-6.5 2.9102-6.5 6.5 0 1.181.3147 2.2887.8652 3.2432L5.5 18.5l3.377-.7979c.9269.5087 1.991.7979 3.123.7979 3.5898 0 6.5-2.9102 6.5-6.5S15.5898 5.5 12 5.5m0 1.164c2.9468 0 5.3359 2.3892 5.3359 5.336-.0001 2.9468-2.3891 5.3359-5.3359 5.3359a5.31 5.31 0 0 1-2.9395-.8828l-1.995.5088.5595-1.9072A5.31 5.31 0 0 1 6.664 12c0-2.9468 2.3892-5.336 5.336-5.336m-1.7861 2.128c-.2069.017-.6224.1-.9942.4717-1.0494 1.0495.1384 2.934.1846 3.0107q.3733.6952.999 1.3213c.4176.4174.8588.751 1.3223 1 .0813.0487 1.9617 1.2314 3.0098.1836.3717-.3717.4556-.7862.4726-.9932.0065-.0794-.0402-.1525-.1123-.1865l-1.5723-.7412a.1955.1955 0 0 0-.2216.0381l-.5528.5527c-.1197.1194-.3055.1546-.4531.0723-.3616-.2015-.7098-.473-1.0303-.7871-.3141-.3205-.5854-.6687-.7871-1.0303-.0823-.1476-.0471-.3336.0723-.4531l.5527-.5528a.196.196 0 0 0 .0381-.2216l-.7412-1.5723c-.0339-.0721-.107-.1187-.1865-.1123"/></g><defs><clipPath id="brand-meta-whatsapp-a"><path fill="#fff" d="M0 0h24v24H0z"/></clipPath><clipPath id="brand-meta-whatsapp-b"><path fill="#fff" d="M0 0h24v24H0z"/></clipPath></defs></svg>