<svg xmlns="http://www.w3.org/2000/svg" fill="none" viewBox="0 0 24 24"><g clip-path="url(#brand-aws-a)"><g clip-path="url(#brand-aws-b)"><path fill="red" fill-opacity=".7" d="M15.0005-.0254A.026.026 0 0 1 15.0259 0v8.9395l8.957-8.957a.025.025 0 0 1 .0352 0 .0254.0254 0 0 1 0 .035L15.061 8.9747h8.9444A.026.026 0 0 1 24.0308 9a.026.026 0 0 1-.0254.0254h-8.9795v2.9443h8.9795a.026.026 0 0 1 .0254.0254.026.026 0 0 1-.0254.0254h-8.9795v2.9541h8.9795a.026.026 0 0 1 .0254.0254.026.026 0 0 1-.0254.0254H15.061l8.9571 8.957a.0255.0255 0 0 1 0 .0352.025.025 0 0 1-.0352 0l-8.957-8.9571V24a.026.026 0 0 1-.0254.0254.0257.0257 0 0 1-.0254-.0254v-8.9746h-2.9492V24a.026.026 0 0 1-.0254.0254.0257.0257 0 0 1-.0254-.0254v-8.9746H9.0259V24a.026.026 0 0 1-.0254.0254A.0257.0257 0 0 1 8.975 24v-8.9395l-8.957 8.9571a.025.025 0 0 1-.0352 0 .025.025 0 0 1 0-.0352l8.957-8.957H.0054A.0257.0257 0 0 1-.02 15a.0257.0257 0 0 1 .0254-.0254H8.975v-2.9541H.0054a.026.026 0 0 1-.0254-.0254.0257.0257 0 0 1 .0254-.0254H8.975V9.0254H.0054A.0257.0257 0 0 1-.02 9a.0257.0257 0 0 1 .0254-.0254h8.9345L-.017.0176a.025.025 0 0 1 0-.0352.025.025 0 0 1 .0352 0l8.957 8.957V0a.0257.0257 0 0 1 .0254-.0254A.026.026 0 0 1 9.0259 0v8.9746h2.9492V0a.0257.0257 0 0 1 .0254-.0254.026.026 0 0 1 .0254.0254v8.9746h2.9492V0a.0257.0257 0 0 1 .0254-.0254m-5.9395 15h2.9141v-2.9141zm2.9649 0h2.914l-2.914-2.9141zm2.9492-.0351v-2.919h-2.9189zm-5.9492 0 2.9189-2.919h-2.919zm0-2.9698h2.9092L9.0259 9.0605zm3.04 0h2.9092V9.0605zm-.0908-.0302V9.0254h-2.914zm.0508 0 2.914-2.9141h-2.914z" opacity=".9"/><rect width="20" height="20" x="2" y="2" stroke="red" stroke-linecap="round" stroke-width=".1" rx="3"/></g><path fill="currentColor" d="M20.778 4.6974c-.1685-.0213-.3522-.0307-.5533-.0307-.3802 0-.7275.042-1.052.1322-.3402.0945-.6329.23-.8924.4141a2.16 2.16 0 0 0-.6334.6693c-.166.273-.2484.5868-.2484.9362 0 .4355.1534.8467.4478 1.2102.2916.3681.7567.6417 1.3774.8228l1.1285.3242.1414.0451c.2678.0902.4458.1806.5304.2633.0893.0872.1301.1847.1301.3145 0 .1976-.087.3438-.2749.4563-.2159.1294-.5504.1993-.9966.1993a4.76 4.76 0 0 1-.876-.0819 4.2 4.2 0 0 1-.8051-.2374l-.2144-.0791a.74.74 0 0 0-.2194-.0335c-.2804 0-.447.2039-.447.4889v.3672l.0083.1071a.75.75 0 0 0 .0644.2087c.0614.1278.1881.2339.3585.3227.2189.1169.5342.2173.9602.3119a5.8 5.8 0 0 0 1.256.1361c.4194 0 .8102-.0534 1.1867-.1617.3722-.1042.6863-.2496.9495-.4461.2616-.1873.4763-.4292.6395-.7148.158-.2921.2371-.6165.2371-.966 0-.4386-.1397-.8352-.4174-1.1751-.2789-.3414-.7276-.5983-1.3369-.7785l-1.1047-.3241-.1515-.0477c-.2893-.0964-.4959-.1989-.602-.2922-.0975-.0858-.143-.1859-.143-.3122 0-.197.0705-.3192.2305-.41.1905-.108.4937-.1664.901-.1664.5171 0 .9791.0869 1.3879.2595l.1141.046c.1094.04.2043.0616.2864.0616.2823 0 .4468-.2114.4468-.4962v-.3383l-.0049-.0919c-.0132-.1191-.0533-.2247-.1241-.3121-.0642-.09-.1702-.1709-.3162-.248-.0915-.051-.2167-.1007-.3731-.1489a4.6 4.6 0 0 0-.2055-.058l-.2564-.0622a17 17 0 0 0-.3073-.0526z"/><path fill="currentColor" fill-rule="evenodd" d="M6.41 5.334c-.4941-.441-1.2336-.653-2.2183-.653-.4567 0-.8812.0473-1.2775.1446-.3947.0895-.7399.2036-1.0313.3423-.139.0644-.2441.138-.3146.2293-.082.1065-.1096.2392-.1096.4135v.3527l.0057.0911c.0298.2346.1778.3979.4257.3979.0586 0 .1164-.0102.1935-.0306.0829-.0219.187-.0568.3044-.1043.2416-.0894.5072-.1662.7978-.2316a3.54 3.54 0 0 1 .7804-.087c.541 0 .8987.093 1.0875.2625l.056.06.0503.0715c.1101.1799.171.4526.171.823l-.001.2006-.231-.043a8 8 0 0 0-.3606-.0542c-.3165-.0396-.5946-.0597-.8578-.0597-.8558 0-1.5451.2036-2.0719.6194C1.272 8.5025 1 9.0749 1 9.7698c0 .6462.2228 1.1794.6625 1.5783.4336.3931 1.0189.588 1.736.588l.2103-.0056.2257-.0189c.668-.0768 1.2555-.3343 1.756-.7701l.029-.0276.0793.1294.0982.1363c.068.0881.1407.1706.219.2482.1416.1193.2765.1786.4228.1786.1165 0 .2346-.0374.3439-.105l.4897-.3022.082-.0643c.125-.1099.1922-.2334.1922-.3773 0-.1077-.034-.216-.0998-.3134l-.079-.1463a3.7 3.7 0 0 1-.1427-.3206l-.023-.0808-.0186-.0961c-.0164-.1032-.0257-.2275-.0257-.3674l-.0156-.0157V7.3008l-.005-.2105c-.037-.757-.2782-1.3481-.7272-1.7563M3.1725 9.0813c.2017-.1529.5267-.2334.9958-.2334.2295 0 .4602.0137.6998.0414l.2275.0307.2505.0433.0004.0867-.0045.1513a2.03 2.03 0 0 1-.0641.4062c-.0329.1216-.1001.2366-.2045.3514-.1762.181-.3872.3133-.6193.3849-.2562.0791-.4938.1176-.7212.1176-.296 0-.5-.0661-.6295-.1911-.1395-.1242-.2066-.3029-.2066-.5724 0-.2813.089-.4752.2757-.6166" clip-rule="evenodd"/><path fill="currentColor" d="M8.569 4.854c.178 0 .317.025.408.082l.049.038c.1.07.162.166.223.325l.037.103 1.037 3.787.964-3.786c.033-.122.072-.221.125-.299l.058-.072.069-.059c.093-.065.216-.103.357-.115l.108-.005h.622c.207 0 .361.035.465.12.102.071.176.186.224.325l.03.108.98 3.848 1.079-3.865c.036-.111.078-.205.132-.283l.058-.072.067-.062c.093-.065.212-.103.35-.115l.107-.005h.723c.27 0 .463.173.463.446l-.001.048c-.002.022-.007.048-.018.114a1.1 1.1 0 0 1-.037.143l-.027.075-1.873 5.561c-.063.194-.144.333-.265.417-.092.064-.211.103-.346.115l-.104.005h-.669c-.207 0-.361-.035-.481-.132-.095-.077-.165-.189-.209-.323l-.974-3.746-.938 3.637c-.032.117-.069.213-.119.292l-.054.072-.064.061c-.095.077-.216.115-.364.128l-.116.005h-.669c-.198 0-.346-.036-.449-.12-.095-.066-.164-.167-.223-.306l-.042-.11-1.828-5.565c-.056-.174-.083-.282-.083-.369 0-.235.146-.404.368-.439l.087-.007zM18.929 15.081c-.554.076-.65-.515-.259-.827 1.229-.95 3.702-.989 4.184-.341l.045.075c.367.743-.301 3.198-1.404 4.219-.384.36-.918.088-.729-.433.526-1.433.808-2.487.653-2.702-.142-.201-1.113-.175-2.491.009"/><path fill="currentColor" d="M11.9724 19.3333c-4.0798 0-7.8759-1.625-10.7999-4.5321-.4371-.4346.0304-1.1153.5802-.7553 3.0665 1.9587 6.7604 3.0588 10.4694 3.0588 2.6435 0 5.4582-.6213 7.9776-1.7939l.0796-.0348c.6566-.2456 1.1482.5901.5537 1.0749-2.2992 1.8696-5.721 2.9824-8.8606 2.9824"/></g><defs><clipPath id="brand-aws-a"><path fill="#fff" d="M0 0h24v24H0z"/></clipPath><clipPath id="brand-aws-b"><path fill="#fff" d="M0 0h24v24H0z"/></clipPath></defs></svg>