<svg xmlns="http://www.w3.org/2000/svg" fill="none" viewBox="0 0 24 24"><path fill="currentColor" d="M1 19v-2.4q0-2.88 1.2768-5.26t3.4375-3.9L3.443 5.1275a.995.995 0 0 1-.0097-1.3844c.3881-.4065 1.0357-.411 1.4295-.01L7.4821 6.4q1.0215-.48 2.1804-.74A10.65 10.65 0 0 1 12 5.4q1.1786 0 2.3375.26t2.1804.74l2.6193-2.667c.3938-.401 1.0414-.3964 1.4295.0101a.995.995 0 0 1-.0097 1.3844L18.2857 7.44q2.1607 1.52 3.4375 3.9T23 16.6V19zm16.8339-4.46q.4518-.46.4518-1.14t-.4518-1.14-1.1196-.46q-.668 0-1.1197.46t-.4517 1.14.4517 1.14 1.1197.46q.6678 0 1.1196-.46m-9.4285 0q.4517-.46.4517-1.14t-.4517-1.14-1.1197-.46-1.1196.46-.4518 1.14.4518 1.14 1.1196.46q.6678 0 1.1197-.46"/></svg>