<svg xmlns="http://www.w3.org/2000/svg" fill="none" viewBox="0 0 24 24"><g clip-path="url(#brand-impossible-cloud-a)"><g clip-path="url(#brand-impossible-cloud-b)"><path fill="red" fill-opacity=".7" d="M15.0005-.0254A.026.026 0 0 1 15.0259 0v8.9395l8.957-8.957a.025.025 0 0 1 .0352 0 .0254.0254 0 0 1 0 .035L15.061 8.9747h8.9444A.026.026 0 0 1 24.0308 9a.026.026 0 0 1-.0254.0254h-8.9795v2.9443h8.9795a.026.026 0 0 1 .0254.0254.026.026 0 0 1-.0254.0254h-8.9795v2.9541h8.9795a.026.026 0 0 1 .0254.0254.026.026 0 0 1-.0254.0254H15.061l8.9571 8.957a.0255.0255 0 0 1 0 .0352.025.025 0 0 1-.0352 0l-8.957-8.9571V24a.026.026 0 0 1-.0254.0254.0257.0257 0 0 1-.0254-.0254v-8.9746h-2.9492V24a.026.026 0 0 1-.0254.0254.0257.0257 0 0 1-.0254-.0254v-8.9746H9.0259V24a.026.026 0 0 1-.0254.0254A.0257.0257 0 0 1 8.975 24v-8.9395l-8.957 8.9571a.025.025 0 0 1-.0352 0 .025.025 0 0 1 0-.0352l8.957-8.957H.0054A.0257.0257 0 0 1-.02 15a.0257.0257 0 0 1 .0254-.0254H8.975v-2.9541H.0054a.026.026 0 0 1-.0254-.0254.0257.0257 0 0 1 .0254-.0254H8.975V9.0254H.0054A.0257.0257 0 0 1-.02 9a.0257.0257 0 0 1 .0254-.0254h8.9345L-.017.0176a.025.025 0 0 1 0-.0352.025.025 0 0 1 .0352 0l8.957 8.957V0a.0257.0257 0 0 1 .0254-.0254A.026.026 0 0 1 9.0259 0v8.9746h2.9492V0a.0257.0257 0 0 1 .0254-.0254.026.026 0 0 1 .0254.0254v8.9746h2.9492V0a.0257.0257 0 0 1 .0254-.0254m-5.9395 15h2.9141v-2.9141zm2.9649 0h2.914l-2.914-2.9141zm2.9492-.0351v-2.919h-2.9189zm-5.9492 0 2.9189-2.919h-2.919zm0-2.9698h2.9092L9.0259 9.0605zm3.04 0h2.9092V9.0605zm-.0908-.0302V9.0254h-2.914zm.0508 0 2.914-2.9141h-2.914z" opacity=".9"/><rect width="20" height="20" x="2" y="2" stroke="red" stroke-linecap="round" stroke-width=".1" rx="3"/></g><path fill="currentColor" fill-rule="evenodd" d="M7.473.3167a1.515 1.515 0 0 1 1.5077 0l4.469 2.567c.4665.268.7539.7631.7539 1.299v2.714l2.3156-1.33a1.515 1.515 0 0 1 1.5077 0l4.4691 2.567c.4665.268.7539.7631.7539 1.299v5.134a1.499 1.499 0 0 1-.7539 1.299l-4.4691 2.567a1.514 1.514 0 0 1-1.5077 0l-2.3156-1.33v2.7149a1.499 1.499 0 0 1-.7539 1.299l-4.469 2.567a1.514 1.514 0 0 1-1.5078 0l-4.469-2.567a1.499 1.499 0 0 1-.7539-1.299v-5.134c0-.5359.2874-1.0311.7539-1.299l2.4102-1.3845-2.4102-1.3844a1.499 1.499 0 0 1-.7539-1.299v-5.134c0-.5359.2874-1.031.7539-1.299zm-.5511 12.5495L4.3698 14.332l3.832 2.0528 3.609-2.2095-2.279-1.3091-.5511.3165a1.514 1.514 0 0 1-1.5078 0zm-3.1642 6.9514v-4.1098l3.7153 1.9903v4.2535zm8.9382 0-3.7152 2.1339v-4.2823l3.7152-2.2745zm.1081-6.8039.6457.3709c.4665.2679.7539.7631.7539 1.299v.687l2.316 1.3303v-4.2528l-3.7156-1.9905zm5.2234 3.6867 3.7147-2.1337v-4.4218l-3.7147 2.2743zm2.8307-7.7755-3.585-2.0592-3.8577 2.2158 3.833 2.0533zm-8.1622-1.1621V4.8947L8.9807 7.1692v4.2814l2.3156-1.33v-.6879c0-.5359.2873-1.031.7538-1.299zM3.7577 9.3167l3.7153 2.134V7.1981L3.7577 5.2078zm4.444-3.4319 3.6099-2.21-3.5848-2.059L4.369 3.8315z" clip-rule="evenodd"/></g><defs><clipPath id="brand-impossible-cloud-a"><path fill="#fff" d="M0 0h24v24H0z"/></clipPath><clipPath id="brand-impossible-cloud-b"><path fill="#fff" d="M0 0h24v24H0z"/></clipPath></defs></svg>