<svg xmlns="http://www.w3.org/2000/svg" fill="none" viewBox="0 0 24 24"><g clip-path="url(#brand-vmware-a)"><path fill="red" fill-opacity=".7" d="M15.0005-.0254A.026.026 0 0 1 15.0259 0v8.9395l8.957-8.957a.025.025 0 0 1 .0352 0 .0254.0254 0 0 1 0 .035L15.061 8.9747h8.9444A.026.026 0 0 1 24.0308 9a.026.026 0 0 1-.0254.0254h-8.9795v2.9443h8.9795a.026.026 0 0 1 .0254.0254.026.026 0 0 1-.0254.0254h-8.9795v2.9541h8.9795a.026.026 0 0 1 .0254.0254.026.026 0 0 1-.0254.0254H15.061l8.9571 8.957a.0255.0255 0 0 1 0 .0352.025.025 0 0 1-.0352 0l-8.957-8.9571V24a.026.026 0 0 1-.0254.0254.0257.0257 0 0 1-.0254-.0254v-8.9746h-2.9492V24a.026.026 0 0 1-.0254.0254.0257.0257 0 0 1-.0254-.0254v-8.9746H9.0259V24a.026.026 0 0 1-.0254.0254A.0257.0257 0 0 1 8.975 24v-8.9395l-8.957 8.9571a.025.025 0 0 1-.0352 0 .025.025 0 0 1 0-.0352l8.957-8.957H.0054A.0257.0257 0 0 1-.02 15a.0257.0257 0 0 1 .0254-.0254H8.975v-2.9541H.0054a.026.026 0 0 1-.0254-.0254.0257.0257 0 0 1 .0254-.0254H8.975V9.0254H.0054A.0257.0257 0 0 1-.02 9a.0257.0257 0 0 1 .0254-.0254h8.9345L-.017.0176a.025.025 0 0 1 0-.0352.025.025 0 0 1 .0352 0l8.957 8.957V0a.0257.0257 0 0 1 .0254-.0254A.026.026 0 0 1 9.0259 0v8.9746h2.9492V0a.0257.0257 0 0 1 .0254-.0254.026.026 0 0 1 .0254.0254v8.9746h2.9492V0a.0257.0257 0 0 1 .0254-.0254m-5.9395 15h2.9141v-2.9141zm2.9649 0h2.914l-2.914-2.9141zm2.9492-.0351v-2.919h-2.9189zm-5.9492 0 2.9189-2.919h-2.919zm0-2.9698h2.9092L9.0259 9.0605zm3.04 0h2.9092V9.0605zm-.0908-.0302V9.0254h-2.914zm.0508 0 2.914-2.9141h-2.914z" opacity=".9"/><rect width="20" height="20" x="2" y="2" stroke="red" stroke-linecap="round" stroke-width=".1" rx="3"/></g><path fill="currentColor" d="M19 2c1.6569 0 3 1.3432 3 3v14c0 1.6569-1.3431 3-3 3H5c-1.6568 0-3-1.3431-3-3V5c0-1.6568 1.3432-3 3-3zm-6.8301 7.375c-.4432 0-.85.1572-1.167.419a1.826 1.826 0 0 0-1.166-.419c-.3873 0-.747.1202-1.043.3252a1.456 1.456 0 0 0-.9189-.3252c-.5977 0-1.1354.364-1.3574.9189l-.5147 1.2862-.7138-1.7861a.667.667 0 0 0-1.2383.4951l1.334 3.3339a.667.667 0 0 0 .6181.419.667.667 0 0 0 .6192-.419l1.1338-2.8339a.129.129 0 0 1 .1191-.0811.1285.1285 0 0 1 .128.1289v2.5381c0 .3682.2987.667.667.667a.667.667 0 0 0 .667-.667v-2.167a.5004.5004 0 0 1 .5-.5.5007.5007 0 0 1 .4999.5v2.167c0 .3681.298.6668.666.667a.667.667 0 0 0 .667-.667v-2.167a.5004.5004 0 0 1 .5-.5c.276 0 .4998.2241.5.5v2.167c0 .3682.2988.667.667.667a.667.667 0 0 0 .666-.667v-2.167c-.0002-1.0123-.8207-1.833-1.833-1.833m4.833 0a.667.667 0 0 0-.6191.419l-.624 1.5615-.4512-1.505a.667.667 0 0 0-.8301-.4472.667.667 0 0 0-.4473.8301l1 3.333a.667.667 0 0 0 1.2579.0566l.7138-1.7861.7149 1.7861a.6664.6664 0 0 0 1.2568-.0566l1-3.333a.6666.6666 0 0 0-.4463-.83.667.667 0 0 0-.8301.4472l-.4521 1.5049-.624-1.5615a.667.667 0 0 0-.6192-.419"/><defs><clipPath id="brand-vmware-a"><path fill="#fff" d="M0 0h24v24H0z"/></clipPath></defs></svg>