<svg xmlns="http://www.w3.org/2000/svg" fill="none" viewBox="0 0 24 24"><path fill="currentColor" d="M16.8052.6333a9.55 9.55 0 0 0-2.6031.3818l-.0595.019a10.3 10.3 0 0 0-1.6157-.1564c-1.1131-.019-2.0693.252-2.8403.7029-.7597-.2643-2.3357-.72-3.9968-.629-1.1565.0635-2.4188.4158-3.3543 1.4057-.9325.9899-1.4258 2.5215-1.3218 4.6054.0283.575.1918 1.5128.463 2.7271s.652 2.6361 1.1272 3.9329c.4752 1.2977.9959 2.4628 1.8094 3.2547.4063.3969.9657.7303 1.6252.7028.463-.0189.8815-.2226 1.2425-.5228.1757.232.3637.3334.5348.4272.2154.1184.4251.1989.6425.2519.3902.0976 1.0582.2283 1.8406.0948.2664-.0446.547-.1317.8267-.2558.0104.3126.0227.6185.035.9283.0387.9813.0633 1.8878.3571 2.6825.0473.1298.1767.7986.687 1.3887.5102.5911 1.5099.9595 2.6484.7151.8032-.1724 1.8246-.483 2.503-1.4511.6708-.9567.9732-2.3293 1.0327-4.5552a4.5 4.5 0 0 1 .052-.3183l.1597.0142h.0189c.8569.0388 1.7867-.0834 2.5634-.4452.6878-.3192 1.2085-.6422 1.5873-1.2153.0945-.1421.1985-.3135.2268-.6091.0284-.2955-.1408-.7578-.4214-.9709-.5622-.4281-.9156-.2652-1.2945-.1866a5.9 5.9 0 0 1-1.1357.1383c1.0923-1.8443 1.8756-3.8031 2.3225-5.5366.2646-1.023.4129-1.9664.4252-2.7914s-.0548-1.5554-.548-2.1872C20.8039 1.2017 18.6373.6561 16.9611.6371c-.052-.001-.1039-.0019-.1559-.001zm-.0444.6063c1.5855-.0152 3.6113.431 5.0654 2.2942.327.4186.4243 1.0305.4129 1.7845-.0123.753-.1511 1.6549-.4053 2.6428-.4932 1.9134-1.4249 4.1441-2.7373 6.1456a.7.7 0 0 0 .1493.0815c.274.1137.8986.2112 2.1448-.0455.3137-.0663.5433-.1108.7814.0711a.4944.4944 0 0 1 .173.4026.67.67 0 0 1-.1229.3182c-.2409.3628-.7162.7067-1.3256.9899-.5395.2519-1.3134.3836-1.9994.3912-.3439.0038-.6614-.0228-.9306-.1071l-.0171-.0066c-.1039 1.0041-.3429 2.9866-.4988 3.8912-.1248.7294-.343 1.3091-.7597 1.7429-.4158.4339-1.0044.6953-1.7962.8658-.9808.2112-1.696-.0161-2.1571-.4054-.4602-.3884-.6709-.9037-.7975-1.2191-.0869-.2179-.1323-.5001-.1757-.8771-.0435-.377-.0756-.8383-.0974-1.3584a49 49 0 0 1-.0283-2.3898 2.89 2.89 0 0 1-1.4664.7199c-.651.1108-1.2322.0019-1.579-.0853a2.15 2.15 0 0 1-.4912-.1904c-.1607-.0862-.3137-.1837-.4158-.376a.532.532 0 0 1-.0538-.3609.578.578 0 0 1 .206-.3135c.187-.1525.4346-.2378.8078-.3155.6793-.1402.9165-.2358 1.061-.3504.123-.0986.2618-.2975.5075-.5892a1 1 0 0 1-.0029-.0389 2.79 2.79 0 0 1-1.2566-.3391c-.1418.1497-.8655.9169-1.748 1.9816-.3714.4452-.7814.701-1.2142.719-.4327.0189-.824-.1999-1.1565-.5229-.6642-.6469-1.1943-1.7599-1.6563-3.0179-.4611-1.2579-.8363-2.6588-1.1027-3.8523-.2674-1.1936-.4252-2.156-.4479-2.62-.0992-1.9722.361-3.3012 1.15-4.1395.7898-.8383 1.8727-1.1556 2.928-1.2162 1.8945-.109 3.6935.5532 4.0573.6952.7011-.4774 1.6044-.7748 2.7326-.7559a6.97 6.97 0 0 1 1.5883.2065l.0189-.0085a6.5 6.5 0 0 1 .6982-.2027 9.07 9.07 0 0 1 1.9569-.2378zm.1436.6346h-.1379a8.24 8.24 0 0 0-1.6101.1819c1.1773.5228 2.0664 1.328 2.6929 2.1312a8 8 0 0 1 1.0696 1.8187c.1039.25.1738.4613.2135.6252.0199.0824.0331.1516.0378.2235a.42.42 0 0 1-.0113.1364c0 .0029-.0048.0095-.0057.0124.0283.8297-.1767 1.3924-.2013 2.1843-.0188.574.1276 1.2484.1635 1.9844.034.6915-.0491 1.4512-.497 2.1966.0378.0455.0718.091.1077.1364 1.1849-1.8707 2.039-3.9404 2.4945-5.7051.2437-.95.3732-1.8111.3845-2.4931.0095-.682-.1171-1.1765-.2787-1.383-1.268-1.6254-2.9839-2.0394-4.422-2.0507zm-4.5259.2425c-1.1168.0028-1.9181.341-2.5256.8478-.6265.5238-1.047 1.2408-1.3228 1.975-.3279.8714-.4403 1.7144-.4847 2.2866l.0122-.0076c.3374-.1895.7805-.379 1.2548-.4888.4743-.109.9855-.143 1.4485.037s.8457.6033.9846 1.2456c.6651 3.0851-.207 4.2322-.5282 5.098a9.1 9.1 0 0 0-.3128.9595c.0407-.0095.0813-.0208.1219-.0246.2268-.019.4044.0568.5102.1023.3232.1345.5452.4168.6652.7388.0312.0843.0539.1752.0671.269a.32.32 0 0 1 .0189.1203 52.4 52.4 0 0 0 .0123 3.5408c.0217.5096.0538.9586.0945 1.3128.0406.3534.0982.6224.1351.7133.1209.3031.2976.7.617.97.3194.269.7776.4489 1.6148.269.7256-.1563 1.1735-.3732 1.473-.6849.2986-.3116.4772-.7454.5915-1.4095.171-.9945.515-3.8789.5565-4.4216-.0189-.4092.0416-.7237.172-.9634.1342-.2462.342-.3968.5216-.4783a1.8 1.8 0 0 1 .2428-.0881 5.6 5.6 0 0 0-.2296-.3079 4.22 4.22 0 0 1-.6293-1.041 8 8 0 0 0-.2428-.4575c-.1257-.2273-.2844-.5115-.4507-.8307-.3326-.6394-.6945-1.4142-.8825-2.1691-.1871-.754-.2145-1.5346.2655-2.0849.4252-.4888 1.1716-.6915 2.2922-.5778-.0331-.0995-.0529-.1819-.1086-.3145a7.41 7.41 0 0 0-.9836-1.671c-.9496-1.2171-2.4869-2.4239-4.8623-2.4627h-.1087zm-6.2758.0493c-.12 0-.24.0037-.359.0104-.9543.055-1.8567.3324-2.502 1.0182-.6463.6858-1.0715 1.8102-.979 3.6715.018.3524.1711 1.3394.4338 2.512.2617 1.1727.633 2.5529 1.079 3.7719.447 1.2191.9883 2.28 1.5023 2.7821.259.251.4838.3523.688.3438.205-.0095.4516-.1279.753-.4907a41 41 0 0 1 1.7102-1.9399 3.31 3.31 0 0 1-.9321-1.3505 3.32 3.32 0 0 1-.1706-1.6333c.0973-.7.1106-1.3545.0992-1.8717-.0113-.504-.0472-.8392-.0472-1.0486a.3.3 0 0 1 0-.018v-.0047l-.001-.0057v-.001a9.39 9.39 0 0 1 .5594-3.1978c.2646-.7047.6586-1.4208 1.2491-2.0006-.5801-.1913-1.61-.483-2.725-.538a7 7 0 0 0-.359-.0094zm11.7145 5.0032c-.6416.0085-1.0016.1743-1.1906.3912-.2674.3079-.2929.8478-.1266 1.5128.1654.6659.5074 1.4104.8287 2.0289.1606.3098.3165.5883.4422.8146.1266.2274.2192.3884.2759.5258.0519.1269.1096.2387.1682.3429.2485-.5258.2929-1.042.2673-1.58-.033-.6659-.187-1.347-.1644-2.0366.0256-.806.1843-1.3308.1985-1.9541a5.5 5.5 0 0 0-.6992-.0455m-7.7801.109a2.66 2.66 0 0 0-.582.07 4.4 4.4 0 0 0-1.0894.4254 2.3 2.3 0 0 0-.3298.216l-.0208.0189c.0057.1383.0331.4736.0444.967.0114.54-.0018 1.2287-.1058 1.9741-.2258 1.6198.9468 2.9611 2.3244 2.963.0803-.3325.2126-.6697.3449-1.0249.3836-1.0363 1.1385-1.7922.5026-4.7419-.1039-.483-.3099-.6782-.5934-.788a1.39 1.39 0 0 0-.4951-.0796m7.4805.1932h.0473a.83.83 0 0 1 .1701.0208c.051.0114.0944.0284.1304.0521a.155.155 0 0 1 .0708.1042l-.0009.0076a.23.23 0 0 1-.0331.1279.63.63 0 0 1-.1039.142.64.64 0 0 1-.3648.2009.556.556 0 0 1-.3873-.0976.57.57 0 0 1-.1229-.1118.246.246 0 0 1-.0595-.1203.161.161 0 0 1 .0397-.1212.36.36 0 0 1 .1105-.0853c.0907-.0511.2136-.089.3525-.1098a1.2 1.2 0 0 1 .1511-.0124zm-7.3888.1591c.0501 0 .103.0048.1568.0123.1446.02.2731.0588.3714.1156a.42.42 0 0 1 .1256.1004.212.212 0 0 1 .0511.161.286.286 0 0 1-.0709.146.62.62 0 0 1-.1351.123.604.604 0 0 1-.4233.107.687.687 0 0 1-.3969-.2159.67.67 0 0 1-.1115-.1553.266.266 0 0 1-.0387-.1677c.0142-.1023.0983-.1553.1805-.1847a.82.82 0 0 1 .29-.0379zm8.5605 6.9555-.0029.001c-.1389.0502-.2532.071-.3496.1137a.427.427 0 0 0-.2258.2027c-.0595.1089-.1105.3021-.0954.6308a.48.48 0 0 0 .1398.0663c.1616.0493.4328.0815.7351.0767.6029-.0066 1.3446-.1477 1.7386-.3315a3.73 3.73 0 0 0 .891-.5825h-.001c-1.3162.2728-2.0598.1998-2.5161.0113a1.24 1.24 0 0 1-.3137-.1894zm-7.5882.0891h-.0199c-.0501.0047-.1228.0218-.2636.1781-.3288.3694-.4441.6015-.7153.8184-.2711.2159-.6236.3315-1.3275.4764-.223.0455-.3506.0957-.4356.1364.0274.0228.0246.0284.0662.0502.103.0569.2352.1071.342.1345.3024.0758.7993.1639 1.3181.0758.5187-.089 1.0582-.3382 1.5184-.9851.0794-.1118.0879-.2766.0227-.4537-.0662-.1772-.2107-.3297-.3128-.3723a.61.61 0 0 0-.1927-.0568z"/></svg>