<svg xmlns="http://www.w3.org/2000/svg" fill="none" viewBox="0 0 24 24"><g clip-path="url(#brand-reddit-a)"><g clip-path="url(#brand-reddit-b)"><path fill="red" fill-opacity=".7" d="M15.0005-.0254A.026.026 0 0 1 15.0259 0v8.9395l8.957-8.957a.025.025 0 0 1 .0352 0 .0254.0254 0 0 1 0 .035L15.061 8.9747h8.9444A.026.026 0 0 1 24.0308 9a.026.026 0 0 1-.0254.0254h-8.9795v2.9443h8.9795a.026.026 0 0 1 .0254.0254.026.026 0 0 1-.0254.0254h-8.9795v2.9541h8.9795a.026.026 0 0 1 .0254.0254.026.026 0 0 1-.0254.0254H15.061l8.9571 8.957a.0255.0255 0 0 1 0 .0352.025.025 0 0 1-.0352 0l-8.957-8.9571V24a.026.026 0 0 1-.0254.0254.0257.0257 0 0 1-.0254-.0254v-8.9746h-2.9492V24a.026.026 0 0 1-.0254.0254.0257.0257 0 0 1-.0254-.0254v-8.9746H9.0259V24a.026.026 0 0 1-.0254.0254A.0257.0257 0 0 1 8.975 24v-8.9395l-8.957 8.9571a.025.025 0 0 1-.0352 0 .025.025 0 0 1 0-.0352l8.957-8.957H.0054A.0257.0257 0 0 1-.02 15a.0257.0257 0 0 1 .0254-.0254H8.975v-2.9541H.0054a.026.026 0 0 1-.0254-.0254.0257.0257 0 0 1 .0254-.0254H8.975V9.0254H.0054A.0257.0257 0 0 1-.02 9a.0257.0257 0 0 1 .0254-.0254h8.9345L-.017.0176a.025.025 0 0 1 0-.0352.025.025 0 0 1 .0352 0l8.957 8.957V0a.0257.0257 0 0 1 .0254-.0254A.026.026 0 0 1 9.0259 0v8.9746h2.9492V0a.0257.0257 0 0 1 .0254-.0254.026.026 0 0 1 .0254.0254v8.9746h2.9492V0a.0257.0257 0 0 1 .0254-.0254m-5.9395 15h2.9141v-2.9141zm2.9649 0h2.914l-2.914-2.9141zm2.9492-.0351v-2.919h-2.9189zm-5.9492 0 2.9189-2.919h-2.919zm0-2.9698h2.9092L9.0259 9.0605zm3.04 0h2.9092V9.0605zm-.0908-.0302V9.0254h-2.914zm.0508 0 2.914-2.9141h-2.914z" opacity=".9"/><circle cx="12" cy="12" r="11" stroke="red" stroke-linecap="round" stroke-width=".1"/></g><path fill="currentColor" d="M10.6 13.1a1.1 1.1 0 0 0-1.1-1.1 1.1 1.1 0 0 0-.843.285A1.1 1.1 0 0 0 8.3 13.1a1.2 1.2 0 0 0 1.2 1.2 1.1 1.1 0 0 0 .815-.357 1.1 1.1 0 0 0 .285-.843M14.3 15.8a4.1 4.1 0 0 1-2.3.6 4.1 4.1 0 0 1-2.3-.6.2.2 0 0 0-.4 0 .3.3 0 0 0 0 .4 4.1 4.1 0 0 0 2.7.8 4.1 4.1 0 0 0 2.7-.8.3.3 0 0 0 0-.4.2.2 0 1 0-.4 0M13.722 12.322A1.1 1.1 0 0 1 14.5 12a1.101 1.101 0 0 1 .843.285 1.099 1.099 0 0 1 .357.815 1.2 1.2 0 0 1-1.2 1.2 1.1 1.1 0 0 1-1.1-1.2 1.1 1.1 0 0 1 .322-.778"/><path fill="currentColor" fill-rule="evenodd" d="M5.8887 2.8538a11 11 0 1 1 12.2226 18.2925A11 11 0 0 1 5.8887 2.8538M18.4 13.9v-.4a1.7 1.7 0 0 0 .9-1.5 1.6003 1.6003 0 0 0-1.6-1.6 2.1 2.1 0 0 0-1.1.4 8.1 8.1 0 0 0-4.3-1.3l.8-3.5 2.3.8a1.2 1.2 0 0 0 1.2 1 1.1 1.1 0 0 0 0-2.2.9.9 0 0 0-1 .6l-2.7-.6h-.3l-.9 3.9a7.3 7.3 0 0 0-4.3 1.3 2.1 2.1 0 0 0-1.1-.4A1.6 1.6 0 0 0 4.7 12a1.7 1.7 0 0 0 .9 1.5v.4c0 2.5 2.9 4.5 6.4 4.5s6.4-2 6.4-4.5" clip-rule="evenodd"/></g><defs><clipPath id="brand-reddit-a"><path fill="#fff" d="M0 0h24v24H0z"/></clipPath><clipPath id="brand-reddit-b"><path fill="#fff" d="M0 0h24v24H0z"/></clipPath></defs></svg>