<svg xmlns="http://www.w3.org/2000/svg" fill="none" viewBox="0 0 24 24"><g clip-path="url(#brand-synology-a)"><path fill="red" fill-opacity=".7" d="M15.0005-.0254A.026.026 0 0 1 15.0259 0v8.9395l8.957-8.957a.025.025 0 0 1 .0352 0 .0254.0254 0 0 1 0 .035L15.061 8.9747h8.9444A.026.026 0 0 1 24.0308 9a.026.026 0 0 1-.0254.0254h-8.9795v2.9443h8.9795a.026.026 0 0 1 .0254.0254.026.026 0 0 1-.0254.0254h-8.9795v2.9541h8.9795a.026.026 0 0 1 .0254.0254.026.026 0 0 1-.0254.0254H15.061l8.9571 8.957a.0255.0255 0 0 1 0 .0352.025.025 0 0 1-.0352 0l-8.957-8.9571V24a.026.026 0 0 1-.0254.0254.0257.0257 0 0 1-.0254-.0254v-8.9746h-2.9492V24a.026.026 0 0 1-.0254.0254.0257.0257 0 0 1-.0254-.0254v-8.9746H9.0259V24a.026.026 0 0 1-.0254.0254A.0257.0257 0 0 1 8.975 24v-8.9395l-8.957 8.9571a.025.025 0 0 1-.0352 0 .025.025 0 0 1 0-.0352l8.957-8.957H.0054A.0257.0257 0 0 1-.02 15a.0257.0257 0 0 1 .0254-.0254H8.975v-2.9541H.0054a.026.026 0 0 1-.0254-.0254.0257.0257 0 0 1 .0254-.0254H8.975V9.0254H.0054A.0257.0257 0 0 1-.02 9a.0257.0257 0 0 1 .0254-.0254h8.9345L-.017.0176a.025.025 0 0 1 0-.0352.025.025 0 0 1 .0352 0l8.957 8.957V0a.0257.0257 0 0 1 .0254-.0254A.026.026 0 0 1 9.0259 0v8.9746h2.9492V0a.0257.0257 0 0 1 .0254-.0254.026.026 0 0 1 .0254.0254v8.9746h2.9492V0a.0257.0257 0 0 1 .0254-.0254m-5.9395 15h2.9141v-2.9141zm2.9649 0h2.914l-2.914-2.9141zm2.9492-.0351v-2.919h-2.9189zm-5.9492 0 2.9189-2.919h-2.919zm0-2.9698h2.9092L9.0259 9.0605zm3.04 0h2.9092V9.0605zm-.0908-.0302V9.0254h-2.914zm.0508 0 2.914-2.9141h-2.914z" opacity=".9"/><rect width="20" height="20" x="2" y="2" stroke="red" stroke-linecap="round" stroke-width=".1" rx="3"/></g><path fill="currentColor" fill-rule="evenodd" d="M4.8571 2A2.857 2.857 0 0 0 2 4.8571V19.143A2.857 2.857 0 0 0 4.8571 22H19.143a2.857 2.857 0 0 0 2.0203-.8367A2.858 2.858 0 0 0 22 19.1429V4.8571c0-.7577-.301-1.4846-.8368-2.0204A2.857 2.857 0 0 0 19.1429 2zm4.0072 12.2144-2.8143.2713a5.507 5.507 0 0 0 1.7429 3.6642 6.243 6.243 0 0 0 4.1714 1.25 8.22 8.22 0 0 0 3.1143-.5214 4.106 4.106 0 0 0 1.9285-1.5998 4.4647 4.4647 0 0 0 .1072-4.5787 3.85 3.85 0 0 0-1.5786-1.4286 13.9 13.9 0 0 0-3.1143-1.0358 7.5 7.5 0 0 1-2.6571-.957 1.1 1.1 0 0 1-.4286-.8713 1.036 1.036 0 0 1 .4572-.8859A3.33 3.33 0 0 1 11.7643 7a2.857 2.857 0 0 1 1.8286.4928 2.422 2.422 0 0 1 .8 1.5786L17.25 8.95a4.186 4.186 0 0 0-1.4286-3.1571q-1.3643-1.1785-4.0571-1.1785a7.28 7.28 0 0 0-2.8572.4928 3.95 3.95 0 0 0-1.7857 1.4286 3.7646 3.7646 0 0 0 .7143 4.9215A7.94 7.94 0 0 0 11.1 12.8859c1.2071.3 1.9786.507 2.3143.6285a2.314 2.314 0 0 1 1.0357.6215c.2026.2416.3093.5491.3.8642a1.787 1.787 0 0 1-.7143 1.3857 3.257 3.257 0 0 1-2.1.5856 3.136 3.136 0 0 1-2.1-.6644 3.457 3.457 0 0 1-.9714-2.0926" clip-rule="evenodd"/><defs><clipPath id="brand-synology-a"><path fill="#fff" d="M0 0h24v24H0z"/></clipPath></defs></svg>