<svg xmlns="http://www.w3.org/2000/svg" fill="none" viewBox="0 0 24 24"><path fill="currentColor" d="M12 1c6.0751 0 11 4.9249 11 11s-4.9249 11-11 11S1 18.0751 1 12 5.9249 1 12 1m0 3c-4.4183 0-8 3.5817-8 8s3.5817 8 8 8 8-3.5817 8-8a8.06 8.06 0 0 0-.0996-1.2627.7617.7617 0 0 0-.8711-.6328c-.4156.0659-.6997.4565-.6338.8721.0528.3329.0811.6746.0811 1.0234 0 3.5767-2.8999 6.4766-6.4766 6.4766S5.5234 15.5767 5.5234 12 8.4233 5.5234 12 5.5234c1.2879 0 2.4857.3758 3.4932 1.0225.3541.2273.8263.1246 1.0537-.2295.2271-.354.1235-.8254-.2305-1.0527C15.0707 4.464 13.5884 4 12 4m0 3.8096c-2.3143 0-4.1904 1.876-4.1904 4.1904 0 2.3143 1.876 4.1904 4.1904 4.1904 2.3143 0 4.1904-1.8761 4.1904-4.1904S14.3143 7.8096 12 7.8096m0 1.5234c1.4728 0 2.667 1.1942 2.667 2.667S13.4728 14.667 12 14.667 9.333 13.4728 9.333 12 10.5272 9.333 12 9.333"/></svg>