<svg xmlns="http://www.w3.org/2000/svg" fill="none" viewBox="0 0 24 24"><g clip-path="url(#brand-wasabi-a)"><path fill="red" fill-opacity=".7" d="M15.0005-.0254A.026.026 0 0 1 15.0259 0v8.9395l8.957-8.957a.025.025 0 0 1 .0352 0 .0254.0254 0 0 1 0 .035L15.061 8.9747h8.9444A.026.026 0 0 1 24.0308 9a.026.026 0 0 1-.0254.0254h-8.9795v2.9443h8.9795a.026.026 0 0 1 .0254.0254.026.026 0 0 1-.0254.0254h-8.9795v2.9541h8.9795a.026.026 0 0 1 .0254.0254.026.026 0 0 1-.0254.0254H15.061l8.9571 8.957a.0255.0255 0 0 1 0 .0352.025.025 0 0 1-.0352 0l-8.957-8.9571V24a.026.026 0 0 1-.0254.0254.0257.0257 0 0 1-.0254-.0254v-8.9746h-2.9492V24a.026.026 0 0 1-.0254.0254.0257.0257 0 0 1-.0254-.0254v-8.9746H9.0259V24a.026.026 0 0 1-.0254.0254A.0257.0257 0 0 1 8.975 24v-8.9395l-8.957 8.9571a.025.025 0 0 1-.0352 0 .025.025 0 0 1 0-.0352l8.957-8.957H.0054A.0257.0257 0 0 1-.02 15a.0257.0257 0 0 1 .0254-.0254H8.975v-2.9541H.0054a.026.026 0 0 1-.0254-.0254.0257.0257 0 0 1 .0254-.0254H8.975V9.0254H.0054A.0257.0257 0 0 1-.02 9a.0257.0257 0 0 1 .0254-.0254h8.9345L-.017.0176a.025.025 0 0 1 0-.0352.025.025 0 0 1 .0352 0l8.957 8.957V0a.0257.0257 0 0 1 .0254-.0254A.026.026 0 0 1 9.0259 0v8.9746h2.9492V0a.0257.0257 0 0 1 .0254-.0254.026.026 0 0 1 .0254.0254v8.9746h2.9492V0a.0257.0257 0 0 1 .0254-.0254m-5.9395 15h2.9141v-2.9141zm2.9649 0h2.914l-2.914-2.9141zm2.9492-.0351v-2.919h-2.9189zm-5.9492 0 2.9189-2.919h-2.919zm0-2.9698h2.9092L9.0259 9.0605zm3.04 0h2.9092V9.0605zm-.0908-.0302V9.0254h-2.914zm.0508 0 2.914-2.9141h-2.914z" opacity=".9"/><circle cx="12" cy="12" r="11" stroke="red" stroke-linecap="round" stroke-width=".1"/></g><path fill="currentColor" d="M19.7773 4.2227c-4.2968-4.297-11.2578-4.297-15.5546 0-4.297 4.2968-4.297 11.2578 0 15.5546 4.2968 4.2969 11.2578 4.2969 15.5546 0s4.2969-11.2578 0-15.5546m1.1886 6.7796-4.7365-4.297-4.846 4.575-2.5437 2.3933v-3.5664l3.8577-3.666 2.8815-2.7226a9.046 9.046 0 0 1 5.3878 7.2828zm-.086 2.5944a8.96 8.96 0 0 1-.9453 2.701l-2.6984-2.4612v-3.5664zm-7.5002-10.517L11.3413 5.006 8.8328 7.3852V3.5506a9.036 9.036 0 0 1 4.5499-.47zm-6.52 10.6562-3.7383-3.3563a8.97 8.97 0 0 1 .9822-2.7452l2.757 2.475zm0-9.148V7.453L5.2539 6.0149a9.05 9.05 0 0 1 1.6053-1.4253zm-3.835 8.3574 4.8451 4.3472 7.3855-6.9511v3.5063L8.4422 20.293a9.043 9.043 0 0 1-3.7037-2.9402 9.044 9.044 0 0 1-1.7138-4.4075m7.6209 7.9784 4.6114-4.36v3.8526a8.97 8.97 0 0 1-3.257.6071 9.1 9.1 0 0 1-1.357-.1005zm6.5863-1.5726V16.501l1.5726 1.424a9.13 9.13 0 0 1-1.5679 1.427z"/><defs><clipPath id="brand-wasabi-a"><path fill="#fff" d="M0 0h24v24H0z"/></clipPath></defs></svg>