<svg xmlns="http://www.w3.org/2000/svg" fill="none" viewBox="0 0 24 24"><g clip-path="url(#brand-microsoft-entra-id-a)"><path fill="red" fill-opacity=".7" d="M15.0005-.0254A.026.026 0 0 1 15.0259 0v8.9395l8.957-8.957a.025.025 0 0 1 .0352 0 .0254.0254 0 0 1 0 .035L15.061 8.9747h8.9444A.026.026 0 0 1 24.0308 9a.026.026 0 0 1-.0254.0254h-8.9795v2.9443h8.9795a.026.026 0 0 1 .0254.0254.026.026 0 0 1-.0254.0254h-8.9795v2.9541h8.9795a.026.026 0 0 1 .0254.0254.026.026 0 0 1-.0254.0254H15.061l8.9571 8.957a.0255.0255 0 0 1 0 .0352.025.025 0 0 1-.0352 0l-8.957-8.9571V24a.026.026 0 0 1-.0254.0254.0257.0257 0 0 1-.0254-.0254v-8.9746h-2.9492V24a.026.026 0 0 1-.0254.0254.0257.0257 0 0 1-.0254-.0254v-8.9746H9.0259V24a.026.026 0 0 1-.0254.0254A.0257.0257 0 0 1 8.975 24v-8.9395l-8.957 8.9571a.025.025 0 0 1-.0352 0 .025.025 0 0 1 0-.0352l8.957-8.957H.0054A.0257.0257 0 0 1-.02 15a.0257.0257 0 0 1 .0254-.0254H8.975v-2.9541H.0054a.026.026 0 0 1-.0254-.0254.0257.0257 0 0 1 .0254-.0254H8.975V9.0254H.0054A.0257.0257 0 0 1-.02 9a.0257.0257 0 0 1 .0254-.0254h8.9345L-.017.0176a.025.025 0 0 1 0-.0352.025.025 0 0 1 .0352 0l8.957 8.957V0a.0257.0257 0 0 1 .0254-.0254A.026.026 0 0 1 9.0259 0v8.9746h2.9492V0a.0257.0257 0 0 1 .0254-.0254.026.026 0 0 1 .0254.0254v8.9746h2.9492V0a.0257.0257 0 0 1 .0254-.0254m-5.9395 15h2.9141v-2.9141zm2.9649 0h2.914l-2.914-2.9141zm2.9492-.0351v-2.919h-2.9189zm-5.9492 0 2.9189-2.919h-2.919zm0-2.9698h2.9092L9.0259 9.0605zm3.04 0h2.9092V9.0605zm-.0908-.0302V9.0254h-2.914zm.0508 0 2.914-2.9141h-2.914z" opacity=".9"/><rect width="20" height="20" x="2" y="2" stroke="red" stroke-linecap="round" stroke-width=".1" rx="3"/></g><path fill="currentColor" d="M16.2777 7.6248c2.649 0 4.6833 3.793 6.2909 5.5837.7076.8174.523 2.0524-.3948 2.6387l-9.1664 5.8589a1.87 1.87 0 0 1-1.0064.2925L12.0003 22a1.877 1.877 0 0 1-1.0071-.2925l-5.3462-3.418c.4742.3025 1.2625.6392 2.096.6392.759 0 1.4642-.2253 2.0485-.609l.0026-.0014 2.2062-1.4096.0007-.0014 5.3355-3.4098-4.0055-4.4363.1329-.1538c.6722-.7837 1.6833-1.2825 2.8138-1.2826"/><path fill="currentColor" d="M12.001 2.0014c.5167.0002 1.0346.2115 1.3998.6337l3.1522 3.6364c-.4851-.23-1.0279-.3639-1.6046-.364-1.1306 0-2.1416.499-2.8138 1.2827l-.1336.1538-5.3348 6.1549 3.1313 2.1196c-1.301.8314-2.6465 2.0199-4.2566 2.0201-.8334 0-1.6218-.3362-2.096-.6386-.4278-.2737-1.6188-1.1528-1.6188-1.1528-.9177-.5863-1.1023-1.8213-.3947-2.6387l9.1671-10.5748c.3665-.4222.8845-.6336 1.4025-.6337z"/><defs><clipPath id="brand-microsoft-entra-id-a"><path fill="#fff" d="M0 0h24v24H0z"/></clipPath></defs></svg>