<svg xmlns="http://www.w3.org/2000/svg" fill="none" viewBox="0 0 24 24"><path fill="currentColor" d="M6.0032 12.5a1.367 1.367 0 0 1 1.2285.7715l.041.0937.0166.041.0117.042.0186.0606.041.1387v.0302c.3339 1.4975 1.5253 2.6731 3.0312 2.9815l.0157.0029.0029.001c.619.1284 1.0898.6757 1.0898 1.3379-.0006.6633-.4729 1.2089-1.0898 1.3369l-.0059.001c-1.5412.3102-2.7583 1.5261-3.0683 3.0644l-.001.0049c-.1276.6187-.6742 1.091-1.337 1.0918-.5249-.0003-.9764-.2966-1.205-.7266l-.0752-.0752-.0595-.2949c-.309-1.5403-1.524-2.7573-3.0625-3.0674l-.005-.0009c-.6176-.1274-1.0917-.673-1.0917-1.3379l.0058-.1231c.0488-.544.416-.9909.9092-1.164l.0518-.0254.1308-.0264c1.5402-.3092 2.7565-1.5239 3.0664-3.0625l.0596-.2959.0752-.0771c.2297-.4296.6812-.7224 1.2031-.7227zm-.003 3.1807A5.94 5.94 0 0 1 3.681 17.998a5.945 5.945 0 0 1 2.3174 2.3194A5.95 5.95 0 0 1 8.3166 18a5.943 5.943 0 0 1-2.3164-2.3193m4.1016 2.956q.0074.0006.0137.001c-.0064-.0005-.0147-.0019-.0244-.0029.0038.0004.0076.0016.0107.0019M15.3118.5l.0478.0049.0947.0088.0401.0039.04.0068c.6115.109 1.1147.5809 1.2412 1.2168l.0616.2744c.6392 2.6264 2.7587 4.676 5.4218 5.2149l.0381.0078.0371.0107.0928.0264.0439.0127.043.0166c.5896.2274.9862.796.9863 1.4385-.0003.7351-.5206 1.3737-1.25 1.5146l-.0166.0029c-2.742.5621-4.9054 2.7262-5.4628 5.4678l.0009.001c-.1407.7312-.7799 1.2494-1.5136 1.25-.7325-.0002-1.369-.516-1.5127-1.2422l-.001.001c-.5551-2.7561-2.728-4.9318-5.4824-5.4893a1.541 1.541 0 0 1-1.2168-1.2431l-.0069-.0381-.0039-.04-.0097-.0948-.0088-.0957.0088-.0957.0097-.0947.004-.04.0068-.0391a1.54 1.54 0 0 1 .9638-1.17l.042-.0165.043-.0118.0928-.0263.038-.0108.0381-.0078c2.757-.5551 4.9327-2.729 5.4883-5.4834A1.542 1.542 0 0 1 15.2639.5zm-5.0313 16.1445h-.0019l-.0039-.0009s.0036.0008.0058.0009m4.9824-12.9931c-.9164 2.3226-2.7687 4.1716-5.0927 5.0859 2.3222.9165 4.1719 2.7677 5.0869 5.0908.9162-2.3217 2.7679-4.1712 5.0908-5.086-2.3217-.9168-4.1706-2.7678-5.085-5.0907"/></svg>