<svg width="16" height="16" fill="currentColor" viewBox="0 0 16 16" xmlns="http://www.w3.org/2000/svg">
  <g fill="none">
    <path fill="#488CD3" d="M8 15.5C3.8579 15.5.5 12.1421.5 8S3.8579.5 8 .5s7.5 3.3579 7.5 7.5-3.3579 7.5-7.5 7.5"/>
    <path fill="#FFF" d="M8 0c4.4183 0 8 3.5817 8 8 0 4.4182-3.5818 8-8 8s-8-3.5817-8-8 3.5817-8 8-8m0 1C4.134 1 1 4.134 1 8c0 2.1402.9605 4.0561 2.474 5.3401.6782-1.2455 1.998-2.0901 3.515-2.0901h2c1.5223 0 2.846.8502 3.5219 2.1018C14.033 12.0688 15 10.1473 15 8c0-3.866-3.134-7-7-7m-.011 2.75c1.657 0 3.0001 1.3431 3.0001 3s-1.3432 3-3 3-3-1.3431-3-3 1.3431-3 3-3"/>
  </g>
</svg>
