<svg xmlns="http://www.w3.org/2000/svg" fill="none" viewBox="0 0 32 32"><path fill="url(#ai-summaries-color--32-a)" d="M13.9997 2c.5522.0001 1 .4478 1 1s-.4478.9999-1 1h-5c-1.1044.0001-2 .8955-2 2v12h4c.552.0004 1 .448 1 1 0 .5178-.3941.9439-.8984.9951L10.9997 20h-4v1h11c.552.0004 1 .448 1 1s-.448.9996-1 1h-11v1h7c.5523 0 1 .4477 1 1s-.4477 1-1 1h-6.955c.0062.0756.0105.146.0186.206.0526.3906.206.794.206.794.346.5973.9906 1 1.7304 1h14c1.1043-.0004 2-.8957 2-2V16c0-.5523.4478-1 1-1 .5522.0001 1 .4478 1 1v10c0 2.2089-1.7912 3.9996-4 4h-14c-2.14 0-3.8878-1.6806-3.995-3.794L4.9996 26c-.0008-.0128-.0012-.0258-.002-.0391a.9023.9023 0 0 1 .002-.1172V6c0-2.209 1.791-3.9999 4-4h5Z"/><path fill="url(#ai-summaries-color--32-b)" d="M15.8064 9.9395a.2209.2209 0 0 1 .165.1357l.0098.0361c.2889 1.4408 1.4114 2.5804 2.8418 2.8955l.0654.0137c.1.0206.1748.1091.1748.2139a.2186.2186 0 0 1-.1748.2128l-.2705.0655c-1.3327.3743-2.3625 1.4718-2.6387 2.8418a.2203.2203 0 0 1-.2138.1758.2192.2192 0 0 1-.2139-.1748c-.2934-1.4626-1.4448-2.6158-2.9063-2.9102a.219.219 0 0 1-.1748-.2138.2188.2188 0 0 1 .1739-.2139c1.4626-.2934 2.6158-1.4447 2.9101-2.9063a.2194.2194 0 0 1 .2139-.1748l.0381.003Z"/><path fill="url(#ai-summaries-color--32-c)" d="M21.6394 2.4727a.3034.3034 0 0 1 .2442.2402l.0458.206c.5088 2.1163 2.2123 3.7676 4.3565 4.2012a.3042.3042 0 0 1 .2461.2988.3032.3032 0 0 1-.2461.2979c-2.2139.4453-3.9598 2.1887-4.4062 4.4014a.3041.3041 0 0 1-.5968.0019c-.4449-2.2153-2.189-3.9612-4.4033-4.4082a.3032.3032 0 0 1-.2402-.2441l-.0049-.0538.0049-.0536a.304.304 0 0 1 .1904-.2296l.0518-.0146c2.2145-.4454 3.9604-2.1897 4.4062-4.4033a.3036.3036 0 0 1 .2979-.2451l.0537.0049Z"/><defs><linearGradient id="ai-summaries-color--32-a" x1="4.9967" x2="31.4784" y1="30" y2="24.7975" gradientUnits="userSpaceOnUse"><stop offset=".2" stop-color="#3849E0"/><stop offset="1" stop-color="#FC2DF1"/></linearGradient><linearGradient id="ai-summaries-color--32-b" x1="4.9967" x2="31.4784" y1="30" y2="24.7975" gradientUnits="userSpaceOnUse"><stop offset=".2" stop-color="#3849E0"/><stop offset="1" stop-color="#FC2DF1"/></linearGradient><linearGradient id="ai-summaries-color--32-c" x1="4.9967" x2="31.4784" y1="30" y2="24.7975" gradientUnits="userSpaceOnUse"><stop offset=".2" stop-color="#3849E0"/><stop offset="1" stop-color="#FC2DF1"/></linearGradient></defs></svg>