<svg xmlns="http://www.w3.org/2000/svg" fill="none" viewBox="0 0 16 16"><g clip-path="url(#ai-sparkles-inverse-color--16-a)"><path fill="url(#ai-sparkles-inverse-color--16-b)" d="M3.754 8.499a.3857.3857 0 0 1 .3583.2432l.0186.0644c.3084 1.5379 1.5182 2.7509 3.0537 3.0635.003.0005.0067.0004.0097.001a.3853.3853 0 0 1 .3067.3769.3853.3853 0 0 1-.3067.377h-.002c-1.5405.3101-2.7543 1.5234-3.0644 3.0625v.002a.385.385 0 0 1-.754 0v-.002C3.0652 14.147 1.8518 12.9332.3126 12.623a.3874.3874 0 0 1-.3027-.3095l-.0059-.0674.0059-.0684a.3861.3861 0 0 1 .3017-.3086c1.5404-.309 2.7554-1.5223 3.0654-3.0615l.001-.001a.3848.3848 0 0 1 .376-.3076Z"/><path fill="url(#ai-sparkles-inverse-color--16-c)" d="M10.4658.0068a.5267.5267 0 0 1 .4248.416c.4732 2.3561 2.3281 4.2136 4.6826 4.6905l.0909.0254a.5284.5284 0 0 1-.0909 1.0117l-.0009-.001c-2.354.4746-4.2109 2.3291-4.6866 4.6817l.001.0009a.5279.5279 0 0 1-1.037 0C9.375 8.478 7.521 6.621 5.168 6.1445a.526.526 0 0 1-.42-.4248l-.0087-.0927.0088-.0928a.5268.5268 0 0 1 .416-.4248l.2197-.0488C7.6367 4.519 9.3958 2.7054 9.8555.4229a.5275.5275 0 0 1 .5175-.4249l.0928.0088Z"/></g><defs><linearGradient id="ai-sparkles-inverse-color--16-b" x1=".0039" x2="18.9298" y1="15.9961" y2="10.9249" gradientUnits="userSpaceOnUse"><stop offset=".4" stop-color="#fff"/><stop offset="1" stop-color="#FC2DF1"/></linearGradient><linearGradient id="ai-sparkles-inverse-color--16-c" x1=".0039" x2="18.9298" y1="15.9961" y2="10.9249" gradientUnits="userSpaceOnUse"><stop offset=".4" stop-color="#fff"/><stop offset="1" stop-color="#FC2DF1"/></linearGradient><clipPath id="ai-sparkles-inverse-color--16-a"><path fill="#fff" d="M0 0h16v16H0z"/></clipPath></defs></svg>