<svg xmlns="http://www.w3.org/2000/svg" fill="none" viewBox="0 0 32 32"><g clip-path="url(#ai-sparkles-inverse-color--32-a)"><path fill="url(#ai-sparkles-inverse-color--32-b)" d="M8.121 16.9385a.4671.4671 0 0 1 .3507.2881l.0224.0771.001.001c.6164 3.0736 3.0091 5.5034 6.0606 6.1758l.1406.0293a.4667.4667 0 0 1 .3721.456.466.466 0 0 1-.3721.4551l-.001.001c-3.1204.628-5.579 3.0842-6.207 6.2021-.044.2133-.2325.373-.456.3731a.4664.4664 0 0 1-.4561-.3721c-.626-3.1203-3.0823-5.5801-6.2002-6.208-.2133-.0439-.373-.2324-.373-.4561a.4666.4666 0 0 1 .372-.456c3.1203-.6258 5.58-3.0822 6.208-6.2002.044-.2132.2325-.3731.456-.3731l.082.0069Z"/><path fill="url(#ai-sparkles-inverse-color--32-c)" d="M20.5635 1.0088a.645.645 0 0 1 .5205.5117h.0019c.9489 4.7247 4.6678 8.4474 9.3897 9.4024a.6481.6481 0 0 1 .5264.6367.6484.6484 0 0 1-.5254.6377l-.001-.001c-4.7231.9501-8.447 4.6691-9.3994 9.3896l.0009.001a.6469.6469 0 0 1-.6367.5254.6473.6473 0 0 1-.6367-.5234c-.9492-4.726-4.6698-8.4478-9.3935-9.4014v-.002a.6451.6451 0 0 1-.5118-.5205l-.0107-.1142.0107-.1143a.6473.6473 0 0 1 .4043-.4912l.1114-.0312c4.7245-.9504 8.4483-4.671 9.3994-9.3936a.6474.6474 0 0 1 .6357-.5225l.1143.0108Z"/></g><defs><linearGradient id="ai-sparkles-inverse-color--32-b" x1="1.0029" x2="36.4922" y1="30.9971" y2="21.4878" gradientUnits="userSpaceOnUse"><stop offset=".4" stop-color="#fff"/><stop offset="1" stop-color="#FC2DF1"/></linearGradient><linearGradient id="ai-sparkles-inverse-color--32-c" x1="1.0029" x2="36.4922" y1="30.9971" y2="21.4878" gradientUnits="userSpaceOnUse"><stop offset=".4" stop-color="#fff"/><stop offset="1" stop-color="#FC2DF1"/></linearGradient><clipPath id="ai-sparkles-inverse-color--32-a"><path fill="#fff" d="M0 0h32v32H0z"/></clipPath></defs></svg>