<svg width="16" height="16" fill="none" viewBox="0 0 16 16" xmlns="http://www.w3.org/2000/svg">
  <path fill="#FFA310" fill-rule="evenodd" d="M7.24 2.028c.3276-.6962 1.1864-.7118 1.5214 0l6.1243 10.8446c.3288.6985-.0907 1.6274-.7607 1.6274H1.8762c-.6553 0-1.097-.9132-.7607-1.6274z" clip-rule="evenodd"/>
  <path fill="#fff" d="M8 5c-.5523 0-1 .4477-1 1v3c0 .5523.4477 1 1 1s1-.4477 1-1V6c0-.5523-.4477-1-1-1m0 8c.5523 0 1-.4477 1-1s-.4477-1-1-1-1 .4477-1 1 .4477 1 1 1"/>
  <path fill="#fff" fill-rule="evenodd" d="M1.1155 12.8726 7.24 2.028c.3276-.6962 1.1864-.7118 1.5214 0l6.1243 10.8446c.3288.6985-.0907 1.6274-.7607 1.6274H1.8763c-.6553 0-1.097-.9132-.7608-1.6274m8.532-11.309 6.1272 10.8495.0158.0336c.3043.6464.2543 1.3642-.0027 1.9207-.2526.5472-.8154 1.1326-1.6628 1.1326H1.8763c-.835 0-1.3992-.5753-1.6561-1.1181-.2637-.5571-.3186-1.2785-.0095-1.9352l.0158-.0336L6.354 1.5634C6.673.9197 7.29.5046 7.9914.5c.7076-.0046 1.332.4093 1.6562 1.0635" clip-rule="evenodd"/>
</svg>
