<svg width="16" height="16" fill="currentColor" viewBox="0 0 16 16" xmlns="http://www.w3.org/2000/svg">
  <g fill="none">
    <path fill="#FF8900" d="M8 15.5C3.8579 15.5.5 12.1421.5 8S3.8579.5 8 .5s7.5 3.3579 7.5 7.5-3.3579 7.5-7.5 7.5"/>
    <path fill="#FFF" d="M8 0c4.4183 0 8 3.5817 8 8 0 4.4182-3.5818 8-8 8s-8-3.5817-8-8 3.5817-8 8-8m0 1C4.134 1 1 4.134 1 8s3.134 7 7 7 7-3.134 7-7-3.134-7-7-7m-.01 9.5c.5523 0 1 .4477 1 1s-.4477 1-1 1-1-.4477-1-1 .4477-1 1-1m.0026-7c.7878 0 1.3893.7036 1.2668 1.4818l-.625 3.9694a.6498.6498 0 0 1-1.2839 0L6.726 4.9817C6.6034 4.2036 7.2049 3.5 7.9926 3.5"/>
  </g>
</svg>
