<svg width="32" height="32" fill="currentColor" viewBox="0 0 32 32" xmlns="http://www.w3.org/2000/svg">
  <g fill="none" fill-rule="evenodd">
    <path fill="#EEF4FD" fill-rule="nonzero" d="M6 30h20c.5523 0 1-.4477 1-1V11.3255a3.2 3.2 0 0 0-.9373-2.2628l-6.1254-6.1254A3.2 3.2 0 0 0 17.6745 2H6c-.5523 0-1 .4477-1 1v26c0 .5523.4477 1 1 1"/>
    <path fill="#4875B3" fill-opacity=".08" d="M17.6745 2a3.2 3.2 0 0 1 2.2628.9373l6.1254 6.1254A3.2 3.2 0 0 1 27 11.3255V29c0 .5523-.4477 1-1 1H6c-.5523 0-1-.4477-1-1V3c0-.5523.4477-1 1-1zm0 1H6v26h20V11.3255a2.2 2.2 0 0 0-.6444-1.5556l-6.1254-6.1255A2.2 2.2 0 0 0 17.6745 3"/>
    <path fill="#BBD1F0" fill-rule="nonzero" d="M5 28v1c0 .5523.4477 1 1 1h20c.5523 0 1-.4477 1-1v-1c0 .5523-.4477 1-1 1H6c-.5523 0-1-.4477-1-1"/>
    <path fill="#B9CFEE" fill-rule="nonzero" d="M19.5696 3.35v4.5064c0 .868.7036 1.5717 1.5716 1.5717H25.5c.9505 0 1.3181.675 1.5 1.5719-.1035-.6511-.3278-1.2923-.8-1.7643L20 2.8804c-.4708-.4705-1.3511-.7764-2-.8804.8957.1828 1.5696.4002 1.5696 1.35"/>
    <path fill="#488CD3" fill-rule="nonzero" d="M18 26.5a.5.5 0 0 1 .5.5v.5a.5.5 0 0 1-.5.5h-1.75a.75.75 0 0 1 0-1.5zm-1.75-3H18c.2454 0 .4496.177.492.4101L18.5 24v.5a.5.5 0 0 1-.4101.492L18 25h-1.75a.75.75 0 0 1-.1018-1.4932zH18Zm1.75-3a.5.5 0 0 1 .5.5v.5a.5.5 0 0 1-.5.5h-1.75a.75.75 0 0 1 0-1.5zm0-3c.2454 0 .4496.177.492.4101L18.5 18v.5a.5.5 0 0 1-.4101.492L18 19h-1.75a.75.75 0 0 1-.1018-1.4932L16.25 17.5zm0-3a.5.5 0 0 1 .5.5v.5a.5.5 0 0 1-.5.5h-1.75a.75.75 0 0 1 0-1.5zm0-3a.5.5 0 0 1 .5.5v.5a.5.5 0 0 1-.5.5h-1.75a.75.75 0 0 1 0-1.5z"/>
    <path fill="#0A4187" fill-rule="nonzero" d="M15.75 25a.75.75 0 0 1 0 1.5H14a.5.5 0 0 1-.5-.5v-.5a.5.5 0 0 1 .5-.5zM14 22h1.75a.75.75 0 0 1 .1018 1.4932L15.75 23.5H14a.5.5 0 0 1-.492-.4101L13.5 23v-.5c0-.2454.177-.4496.4101-.492zh1.75Zm1.75-3a.75.75 0 0 1 0 1.5H14a.5.5 0 0 1-.5-.5v-.5a.5.5 0 0 1 .5-.5zm0-3a.75.75 0 0 1 .1018 1.4932L15.75 17.5H14a.5.5 0 0 1-.492-.4101L13.5 17v-.5c0-.2454.177-.4496.4101-.492L14 16zm0-3a.75.75 0 0 1 0 1.5H14a.5.5 0 0 1-.5-.5v-.5a.5.5 0 0 1 .5-.5zm0-3a.75.75 0 0 1 0 1.5H14a.5.5 0 0 1-.5-.5v-.5a.5.5 0 0 1 .5-.5zm.3299-6a1 1 0 0 1 .9797.7996l.0168.1174.3785 3.5415a.5.5 0 0 1-.4126.5342L16.9566 9h-1.9132a.5.5 0 0 1-.4982-.4555l-.0001-.086.3785-3.5416a1 1 0 0 1 .8782-.91L15.92 4z"/>
  </g>
</svg>
