<svg width="32" height="32" fill="none" viewBox="0 0 32 32" xmlns="http://www.w3.org/2000/svg">
  <path fill="#7CB342" d="M22.6933 7.7647c.0734.5632.1149 1.136.1149 1.7191 0 7.3243-5.9537 13.2613-13.298 13.2613-.5847 0-1.1591-.0415-1.724-.1149.5242.9709 1.7926 3.0036 4.2697 4.4938.5576.3359 2.497 1.4767 4.7866 1.5956 5.7399.2983 11.842-5.9226 11.9665-11.9665.0167-.8169.0327-3.2366-1.5955-5.5844-1.5469-2.2313-3.6865-3.1105-4.5202-3.404"/>
  <path fill="#29B6F6" d="M5.4033 15.9553c0-5.8356 4.7443-10.5672 10.5967-10.5672 2.9262 0 5.5756 1.1831 7.4926 3.0954l3.8205-3.8102C24.418 1.7862 20.418 0 16 0 7.1631 0 0 7.1432 0 15.9553c0 4.4061 1.791 8.3949 4.686 11.282l3.8206-3.8101c-1.917-1.9122-3.1033-4.5536-3.1033-7.4719"/>
  <path fill="#244B71" d="M27.3139 4.673c-1.0555-1.0523-2.7659-1.0523-3.8205 0-1.0555 1.0522-1.0555 2.7579 0 3.8101 1.9178 1.9123 3.1033 4.5537 3.1033 7.4719 0 5.8356-4.7443 10.5672-10.5967 10.5672-2.9262 0-5.5756-1.1831-7.4926-3.0953-1.0555-1.0523-2.766-1.0523-3.8206 0-1.0554 1.0522-1.0554 2.7578 0 3.8101C7.582 30.1241 11.582 31.9103 16 31.9103c8.8368 0 16-7.1432 16-15.9553 0-4.4061-1.791-8.3949-4.6861-11.282"/>
</svg>
