<svg width="32" height="32" fill="none" viewBox="0 0 32 32" xmlns="http://www.w3.org/2000/svg">
  <circle cx="16" cy="16" r="16" fill="#2071C5"/>
  <path fill="#fff" d="M17 16c0 .5523-.4477 1-1 1s-1-.4477-1-1 .4477-1 1-1 1 .4477 1 1"/>
  <path fill="#fff" d="M17.5 16c0 .8284-.6716 1.5-1.5 1.5s-1.5-.6716-1.5-1.5.6716-1.5 1.5-1.5 1.5.6716 1.5 1.5M16 17c.5523 0 1-.4477 1-1s-.4477-1-1-1-1 .4477-1 1 .4477 1 1 1"/>
  <path fill="#fff" d="M15.75 11.4c-2.4024 0-4.35 1.9476-4.35 4.35s1.9476 4.35 4.35 4.35 4.35-1.9476 4.35-4.35c0-.7732.6268-1.4 1.4-1.4s1.4.6268 1.4 1.4c0 3.9488-3.2012 7.15-7.15 7.15S8.6 19.6988 8.6 15.75s3.2012-7.15 7.15-7.15c.7732 0 1.4.6268 1.4 1.4s-.6268 1.4-1.4 1.4"/>
  <path fill="#fff" d="M16 6.4c-5.3019 0-9.6 4.2981-9.6 9.6s4.2981 9.6 9.6 9.6 9.6-4.2981 9.6-9.6c0-.7732.6268-1.4 1.4-1.4s1.4.6268 1.4 1.4c0 6.8483-5.5517 12.4-12.4 12.4S3.6 22.8483 3.6 16 9.1517 3.6 16 3.6c.7732 0 1.4.6268 1.4 1.4s-.6268 1.4-1.4 1.4"/>
</svg>
