<svg width="16" height="16" fill="currentColor" viewBox="0 0 16 16" xmlns="http://www.w3.org/2000/svg">
  <g fill="none">
    <path fill="#488CD3" d="M8 15.5C3.8579 15.5.5 12.1421.5 8S3.8579.5 8 .5s7.5 3.3579 7.5 7.5-3.3579 7.5-7.5 7.5"/>
    <path fill="#FFF" d="M8 0c4.4183 0 8 3.5817 8 8 0 4.4182-3.5818 8-8 8s-8-3.5817-8-8 3.5817-8 8-8m0 1C4.134 1 1 4.134 1 8s3.134 7 7 7 7-3.134 7-7-3.134-7-7-7m.9778 3.5C10.5364 4.5 11.8 5.7825 11.8 7.3647q0 .1335-.0118.2638C12.4739 7.7317 13 8.3317 13 9.0564c0 .7973-.6368 1.4436-1.4222 1.4436H4.4222C3.6368 10.5 3 9.8537 3 9.0564c0-.709.5035-1.2986 1.1673-1.4205a1.8 1.8 0 0 1-.0117-.2036c0-.9467.7561-1.7142 1.6888-1.7142.2571 0 .5008.0583.7189.1625C7.058 5.053 7.9543 4.5 8.9778 4.5"/>
  </g>
</svg>
