<svg width="32" height="32" fill="currentColor" viewBox="0 0 32 32" xmlns="http://www.w3.org/2000/svg">
  <g fill="none" fill-rule="evenodd">
    <path fill="#D7E5F9" fill-rule="nonzero" d="M16 30c5.5228 0 10-1.3531 10-3.0222V4.5H6v22.4778C6 28.6469 10.4772 30 16 30"/>
    <path fill="#BBD1F0" fill-rule="nonzero" d="M26 4.5v22.4778C26 28.6469 21.5228 30 16 30S6 28.6469 6 26.9778V4.5zm-.999 17.8964C23.3805 23.3456 19.959 24 16 24c-3.9581 0-7.3792-.6541-9-1.603v4.5688l.0138.0313c.0292.0547.114.1723.3534.3434.3817.2727.9986.5595 1.851.8171C10.9104 28.669 13.3084 29 16 29s5.0896-.331 6.7818-.8424c.8524-.2576 1.4693-.5444 1.851-.8171.2394-.171.3242-.2887.3534-.3434L25 26.9658zm0-6C23.3805 17.3456 19.959 18 16 18c-3.9582 0-7.3793-.6541-9-1.6031v4.8864q.1575.0982.337.1931l.0302.0206c.3817.2566.9986.5265 1.851.769 1.6922.4813 4.0902.7928 6.7818.7928s5.0896-.3115 6.7818-.7928c.7577-.2156 1.3293-.4528 1.715-.683l.1661-.1066q.1801-.0951.338-.1937zm0-6C23.3805 11.3456 19.959 12 16 12c-3.9582 0-7.3793-.6541-9-1.6031v4.8864q.1575.0982.337.1931l.0302.0206c.3817.2566.9986.5265 1.851.769 1.6922.4813 4.0902.7928 6.7818.7928s5.0896-.3115 6.7818-.7928c.7577-.2156 1.3293-.4528 1.715-.683l.1661-.1066q.1801-.0951.338-.1937zM25 5.5H7v3.7833q.1576.0982.337.1931l.0302.0206c.3817.2566.9986.5265 1.851.769 1.6922.4813 4.0902.7928 6.7818.7928s5.0896-.3115 6.7818-.7928c.7577-.2156 1.3293-.4527 1.715-.683l.1661-.1066q.1801-.0951.338-.1937z"/>
    <path fill="#8EBCED" d="M26 25.5c0 1.6691-4.4772 3.5-10 3.5S6 27.1691 6 25.5v1.4778C6 28.6469 10.4772 30 16 30s10-1.3531 10-3.0222z"/>
    <ellipse cx="16" cy="4.5" fill="#EEF4FD" fill-rule="nonzero" rx="10" ry="2.5"/>
    <path fill="#CEDDF3" d="M16 2c5.5228 0 10 1.1193 10 2.5S21.5228 7 16 7 6 5.8807 6 4.5 10.4772 2 16 2m0 1c-2.7043 0-5.119.275-6.8285.7024-.8625.2156-1.4895.4564-1.8768.6853A2.2 2.2 0 0 0 7.122 4.5a2.2 2.2 0 0 0 .1727.1123c.3873.2289 1.0143.4697 1.8768.6853C10.881 5.725 13.2957 6 16 6s5.119-.275 6.8285-.7024c.8625-.2156 1.4895-.4564 1.8768-.6853A2.2 2.2 0 0 0 24.878 4.5a2.2 2.2 0 0 0-.1727-.1123c-.3873-.2289-1.0143-.4697-1.8768-.6853C21.119 3.275 18.7043 3 16 3"/>
  </g>
</svg>
