<svg width="32" height="32" fill="none" viewBox="0 0 32 32" xmlns="http://www.w3.org/2000/svg">
  <path fill="#408BEA" d="M29 16c0 7.1797-5.8203 13-13 13S3 23.1797 3 16 8.8203 3 16 3s13 5.8203 13 13"/>
  <path stroke="#243143" stroke-opacity=".1" d="M28.5 16c0 6.9036-5.5964 12.5-12.5 12.5S3.5 22.9036 3.5 16 9.0964 3.5 16 3.5 28.5 9.0964 28.5 16Z"/>
  <path fill="#fff" d="m19.5858 17-1.2929 1.2929c-.3905.3905-.3905 1.0237 0 1.4142s1.0237.3905 1.4142 0l3-3c.3905-.3905.3905-1.0237 0-1.4142l-3-3c-.3905-.3905-1.0237-.3905-1.4142 0s-.3905 1.0237 0 1.4142L19.5858 15H10c-.5523 0-1 .4477-1 1s.4477 1 1 1z"/>
</svg>
