<svg width="32" height="32" fill="none" viewBox="0 0 32 32" xmlns="http://www.w3.org/2000/svg">
  <path fill="#243143" fill-opacity=".4" d="M26 32c-3.3137 0-6-2.6863-6-6s2.6863-6 6-6 6 2.6863 6 6-2.6863 6-6 6"/>
  <path stroke="#243143" stroke-opacity=".1" d="M26 31.5c-3.0376 0-5.5-2.4624-5.5-5.5s2.4624-5.5 5.5-5.5 5.5 2.4624 5.5 5.5-2.4624 5.5-5.5 5.5Z"/>
  <path fill="#fff" d="M27.7071 23.2929c-.3905-.3905-1.0237-.3905-1.4142 0s-.3905 1.0237 0 1.4142l.2929.2929H23c-.5523 0-1 .4477-1 1s.4477 1 1 1h3.5858l-.2929.2929c-.3905.3905-.3905 1.0237 0 1.4142s1.0237.3905 1.4142 0l2-2c.3905-.3905.3905-1.0237 0-1.4142z"/>
</svg>
