<svg width="16" height="16" fill="none" viewBox="0 0 16 16" xmlns="http://www.w3.org/2000/svg">
  <path fill="#408BEA" d="M16 8c0 4.4183-3.5817 8-8 8s-8-3.5817-8-8 3.5817-8 8-8 8 3.5817 8 8"/>
  <path fill="#243143" fill-opacity=".1" fill-rule="evenodd" d="M8 15c3.866 0 7-3.134 7-7s-3.134-7-7-7-7 3.134-7 7 3.134 7 7 7m0 1c4.4183 0 8-3.5817 8-8s-3.5817-8-8-8-8 3.5817-8 8 3.5817 8 8 8" clip-rule="evenodd"/>
  <path fill="#fff" d="M10.5303 10.0303a.75.75 0 1 0-1.0606-1.0606l-.7197.7196V4.5a.75.75 0 0 0-1.5 0v5.1893l-.7197-.7196a.75.75 0 0 0-1.0606 1.0606l2 2a.75.75 0 0 0 1.0606 0z"/>
</svg>
