<svg width="32" height="32" fill="currentColor" viewBox="0 0 32 32" xmlns="http://www.w3.org/2000/svg">
  <g fill="none" fill-rule="evenodd">
    <path fill="#FFE2A7" d="M2 6c0-.5523.4477-1 1-1h10.1099a2 2 0 0 1 1.3948.5666l1.3898 1.3525a.75.75 0 0 0 .5231.2125H29c.5523 0 1 .4477 1 1V26c0 .5523-.4477 1-1 1H3c-.5523 0-1-.4477-1-1z"/>
    <path fill="#FFDA8E" d="M13.1099 5a2 2 0 0 1 1.3948.5666l1.3898 1.3525a.75.75 0 0 0 .5231.2125H29c.5523 0 1 .4477 1 1V26c0 .5523-.4477 1-1 1H3c-.5523 0-1-.4477-1-1V6c0-.5523.4477-1 1-1Zm0 1H3v20h26V8.1316H16.4176a1.75 1.75 0 0 1-1.2205-.4958l-1.3898-1.3525A1 1 0 0 0 13.1099 6"/>
    <path fill="#E6C480" fill-rule="nonzero" d="M2 25v1c0 .5523.4477 1 1 1h26c.5523 0 1-.4477 1-1v-1c0 .5523-.4477 1-1 1H3c-.5523 0-1-.4477-1-1"/>
  </g>
</svg>
