<svg width="32" height="32" fill="currentColor" viewBox="0 0 32 32" xmlns="http://www.w3.org/2000/svg">
  <g fill="none" fill-rule="evenodd">
    <path fill="#EEF4FD" fill-rule="nonzero" d="M6 30h20c.5523 0 1-.4477 1-1V11.3255a3.2 3.2 0 0 0-.9373-2.2628l-6.1254-6.1254A3.2 3.2 0 0 0 17.6745 2H6c-.5523 0-1 .4477-1 1v26c0 .5523.4477 1 1 1"/>
    <path fill="#4875B3" fill-opacity=".08" d="M17.6745 2a3.2 3.2 0 0 1 2.2628.9373l6.1254 6.1254A3.2 3.2 0 0 1 27 11.3255V29c0 .5523-.4477 1-1 1H6c-.5523 0-1-.4477-1-1V3c0-.5523.4477-1 1-1zm0 1H6v26h20V11.3255a2.2 2.2 0 0 0-.6444-1.5556l-6.1254-6.1255A2.2 2.2 0 0 0 17.6745 3"/>
    <path fill="#BBD1F0" fill-rule="nonzero" d="M5 28v1c0 .5523.4477 1 1 1h20c.5523 0 1-.4477 1-1v-1c0 .5523-.4477 1-1 1H6c-.5523 0-1-.4477-1-1"/>
    <path fill="#B9CFEE" fill-rule="nonzero" d="M19.5696 3.35v4.5064c0 .868.7036 1.5717 1.5716 1.5717H25.5c.9505 0 1.3181.675 1.5 1.5719-.1035-.6511-.3278-1.2923-.8-1.7643L20 2.8804c-.4708-.4705-1.3511-.7764-2-.8804.8957.1828 1.5696.4002 1.5696 1.35"/>
    <path fill="#2D3138" d="m14.1388 12 3.5429 8h-1.6616l-.8404-1.8824h-3.4273L10.9232 20H9.25l3.5543-8zm-.6673 2.2553-1.0559 2.3834h2.1118zm7.0109.2447q.4745 0 .8519.1078.3882.1079.6579.3559.2804.2481.4205.6471.151.399.151.9814v3.3539h-1.1539l-.0323-.3343q-.2265.1833-.5069.2911-.2804.097-.6255.0971-.4637 0-.8304-.1402-.3666-.1402-.6255-.3882-.2587-.248-.399-.5932-.1402-.345-.1402-.7549 0-.4098.1402-.7549.151-.345.4098-.5823.2695-.248.6255-.3775.3666-.1401.8088-.1402.3127 0 .5824.0647a2.6 2.6 0 0 1 .5176.1834q0-.2912-.097-.453-.0864-.1725-.2265-.248a.76.76 0 0 0-.302-.1079 2.5 2.5 0 0 0-.3235-.0215q-.2804 0-.7118.097-.4314.0863-.9166.3343v-1.2509q.399-.205.8519-.2804.4638-.0863.8736-.0863m-.1726 2.901q-.399 0-.6147.2157-.2049.2157-.2049.5068 0 .3128.2157.5285.2265.2157.6039.2156.5823 0 1.0245-.5607v-.6579q-.496-.248-1.0245-.248"/>
  </g>
</svg>
