<svg width="16" height="16" fill="currentColor" viewBox="0 0 16 16" xmlns="http://www.w3.org/2000/svg">
  <g fill="none">
    <path fill="#92BD11" d="M8 15.5C3.8579 15.5.5 12.1421.5 8S3.8579.5 8 .5s7.5 3.3579 7.5 7.5-3.3579 7.5-7.5 7.5"/>
    <path fill="#FFF" d="M8 0c4.4183 0 8 3.5817 8 8 0 4.4182-3.5818 8-8 8s-8-3.5817-8-8 3.5817-8 8-8m0 1C4.134 1 1 4.134 1 8s3.134 7 7 7 7-3.134 7-7-3.134-7-7-7M6.5 4c1.0625 0 1.996.5524 2.529 1.3856a3 3 0 0 0-.7844.6362C7.9025 5.412 7.2494 5 6.5 5c-1.1046 0-2 .8954-2 2h3.1707a3 3 0 0 0-.1636.7914L7.5 8v3c0 .3647.0976.7067.2682 1.001L4.5 12c-.5523 0-1-.4477-1-1V7c0-1.6568 1.3432-3 3-3m4 2c1.1046 0 2 .8954 2 2v3c0 .5523-.4477 1-1 1h-2c-.5523 0-1-.4477-1-1V8c0-1.1046.8954-2 2-2m0 1c-.5523 0-1 .4477-1 1v.5h2V8c0-.5523-.4477-1-1-1"/>
  </g>
</svg>
