<svg width="32" height="32" fill="currentColor" viewBox="0 0 32 32" xmlns="http://www.w3.org/2000/svg">
  <g fill="none" fill-rule="evenodd">
    <path fill="#EEF4FD" fill-rule="nonzero" d="M6 30h20c.5523 0 1-.4477 1-1V11.3255a3.2 3.2 0 0 0-.9373-2.2628l-6.1254-6.1254A3.2 3.2 0 0 0 17.6745 2H6c-.5523 0-1 .4477-1 1v26c0 .5523.4477 1 1 1"/>
    <path fill="#4875B3" fill-opacity=".08" d="M17.6745 2a3.2 3.2 0 0 1 2.2628.9373l6.1254 6.1254A3.2 3.2 0 0 1 27 11.3255V29c0 .5523-.4477 1-1 1H6c-.5523 0-1-.4477-1-1V3c0-.5523.4477-1 1-1zm0 1H6v26h20V11.3255a2.2 2.2 0 0 0-.6444-1.5556l-6.1254-6.1255A2.2 2.2 0 0 0 17.6745 3"/>
    <path fill="#BBD1F0" fill-rule="nonzero" d="M5 28v1c0 .5523.4477 1 1 1h20c.5523 0 1-.4477 1-1v-1c0 .5523-.4477 1-1 1H6c-.5523 0-1-.4477-1-1"/>
    <path fill="#B9CFEE" fill-rule="nonzero" d="M19.5696 3.35v4.5064c0 .868.7036 1.5717 1.5716 1.5717H25.5c.9505 0 1.3181.675 1.5 1.5719-.1035-.6511-.3278-1.2923-.8-1.7643L20 2.8804c-.4708-.4705-1.3511-.7764-2-.8804.8957.1828 1.5696.4002 1.5696 1.35"/>
    <path fill="#488CD3" fill-rule="nonzero" d="M10.5324 18.499c.9309-.9309 1.7935-1.114 2.9674-.999l1 1c.115 1.174.0319 2.1387-.899 3.0674-.8832.8832-2.9839 1.0633-4.351.8528.8203-.9202.3994-3.038 1.2826-3.9212"/>
    <path fill="#0A4187" fill-rule="nonzero" d="M20.9826 10.9828c-.4218-.4218-1.0661-.5229-1.5757-.2128-1.3687.8326-4.0283 2.6769-5.556 5.2232l.0044.0044-.6661 1.2797a.3.3 0 0 0 .0539.3507l1.1032 1.1031a.3.3 0 0 0 .3506.054l1.2798-.6662-.0044-.0045c2.5462-1.5277 4.3904-4.1873 5.2231-5.5559.31-.5096.209-1.1539-.2128-1.5757"/>
  </g>
</svg>
