<svg width="32" height="32" fill="currentColor" viewBox="0 0 32 32" xmlns="http://www.w3.org/2000/svg">
  <g fill="none">
    <path fill="#6DA3DC" d="M6 3.25C6 2.5596 6.5596 2 7.25 2h17.5c.6904 0 1.25.5596 1.25 1.25v25.5c0 .6904-.5596 1.25-1.25 1.25H7.25C6.5596 30 6 29.4404 6 28.75z"/>
    <path fill="#BCD2F1" d="M7 3.5a.5.5 0 0 1 .5-.5h17a.5.5 0 0 1 .5.5v25a.5.5 0 0 1-.5.5h-17a.5.5 0 0 1-.5-.5z"/>
    <path fill="#F0F6FF" d="M9.5 25.5c.5523 0 1 .4477 1 1s-.4477 1-1 1-1-.4477-1-1 .4477-1 1-1m13 0c.5523 0 1 .4477 1 1s-.4477 1-1 1-1-.4477-1-1 .4477-1 1-1M16 5.5c4.1422 0 7.5 3.3579 7.5 7.5 0 2.2718-1.0101 4.3077-2.6057 5.6831l.866 2.5978c.1747.524-.1172 1.0818-.5896 1.3681-1.0295.624-1.7888 1.6493-2.061 2.8589-.1212.5388-.5574.9921-1.1097.9921h-4c-.5523 0-.9885-.4534-1.1097-.9922-.38-1.6887-1.7094-3.0181-3.3981-3.3981C8.9534 21.9885 8.5 21.5523 8.5 21v-8c0-4.1421 3.3578-7.5 7.5-7.5m-6.5-1c.5523 0 1 .4477 1 1s-.4477 1-1 1-1-.4477-1-1 .4477-1 1-1m13 0c.5523 0 1 .4477 1 1s-.4477 1-1 1-1-.4477-1-1 .4477-1 1-1"/>
    <path fill="#BCD2F1" d="M11 17.1426c1.1917 1.4687 3.0113 2.4073 5.05 2.4073 1.0058 0 1.9581-.2284 2.8081-.6361l.4965 1.6135c.0805.2619-.0677.5355-.3115.6606-.8813.4522-1.3904 1.2948-1.5136 2.3131-.0332.2742-.2534.4989-.5295.4989h-1.2143c-.2761 0-.4973-.2262-.5589-.4954-.3459-1.5134-2.1527-3.2267-3.7305-3.5437-.2708-.0543-.4963-.2756-.4963-.5518ZM16.0498 9.55c1.933 0 3.5 1.5671 3.5 3.5s-1.567 3.5-3.5 3.5-3.5-1.567-3.5-3.5 1.567-3.5 3.5-3.5"/>
    <path fill="#255BA2" d="M26 28v1c0 .5523-.4477 1-1 1H7c-.5523 0-1-.4477-1-1v-1c0 .5523.4477 1 1 1h18c.5523 0 1-.4477 1-1M9.5166 26.0169l.0328.0119.333.1922a.1.1 0 0 1 .044.0523l.006.0343v.3846a.1.1 0 0 1-.0233.0641l-.0267.0225-.333.1922a.1.1 0 0 1-.0672.012l-.0328-.012-.333-.1922a.1.1 0 0 1-.0439-.0523l-.006-.0343v-.3846a.1.1 0 0 1 .0232-.0641l.0267-.0225.333-.1922.0328-.012zm13.0328.0119.333.1922a.1.1 0 0 1 .044.0523l.006.0343v.3846a.1.1 0 0 1-.0233.0641l-.0267.0225-.333.1922a.1.1 0 0 1-.0672.012l-.0328-.012-.333-.1922a.1.1 0 0 1-.0439-.0523l-.0061-.0343v-.3846a.1.1 0 0 1 .0233-.0641l.0267-.0225.333-.1922.0328-.012h.0344ZM9.5166 5.0168l.0328.012.333.1922a.1.1 0 0 1 .044.0523l.006.0343v.3846a.1.1 0 0 1-.0233.0641l-.0267.0225-.333.1922a.1.1 0 0 1-.0672.012l-.0328-.012-.333-.1922a.1.1 0 0 1-.0439-.0523l-.006-.0343v-.3845a.1.1 0 0 1 .0232-.0642l.0267-.0225.333-.1922.0328-.012zm13 0 .0328.012.333.1922a.1.1 0 0 1 .044.0523l.006.0343v.3846a.1.1 0 0 1-.0233.0641l-.0267.0225-.333.1922a.1.1 0 0 1-.0672.012l-.0328-.012-.333-.1922a.1.1 0 0 1-.0439-.0523l-.0061-.0343v-.3845a.1.1 0 0 1 .0233-.0642l.0267-.0225.333-.1922.0328-.012z"/>
  </g>
</svg>
