<svg width="72" height="72" fill="none" viewBox="0 0 72 72" xmlns="http://www.w3.org/2000/svg">
  <path fill="#CACACA" d="M48.6338 64.0913H23.3663a.9115.9115 0 0 1-.9112-.9113.9113.9113 0 0 1 .9112-.9112h3.5044c1.5356-.5625 2.2894-2.0363 2.25-4.3482a7.7 7.7 0 0 0-.1463-1.125l-26.578.0169a2.386 2.386 0 0 1-1.6998-.7005A2.385 2.385 0 0 1 0 54.4106l.1406-6.5981h.5625l-.1406 6.5981a1.8285 1.8285 0 0 0 1.1298 1.7008c.2232.0922.4624.1393.704.1386h26.9493l.0394.2362c.1313.4764.2291.9613.2925 1.4513.0506 2.565-.8719 4.2581-2.6663 4.905h-3.645a.3487.3487 0 1 0 0 .6975h25.2675a.3487.3487 0 1 0 0-.6975h-3.645c-1.7944-.6469-2.7169-2.34-2.6662-4.905a8.8 8.8 0 0 1 .1631-1.4006l.0394-.2869h26.9493a1.8224 1.8224 0 0 0 1.8225-1.8225v-6.615h.5625V54.45c0 1.3163-.7931 2.3625-2.1093 2.3625H42.9863a7.3 7.3 0 0 0-.1012 1.125c-.045 2.3119.7087 3.7688 2.25 4.3481h3.5043a.9113.9113 0 1 1 0 1.8225z"/>
  <path fill="#B1B0B0" d="M46.6144 62.8256c-6.12-.2363-3.42-8.4375-3.42-8.4375l-6.75-.2138h-.8437l-6.75.2138s2.7 8.2237-3.42 8.4375a19.3 19.3 0 0 0-2.25.18h25.6612a19.3 19.3 0 0 0-2.2275-.18"/>
  <path fill="#989796" d="M42.6037 57.9374a13.86 13.86 0 0 1 .5906-3.5493l-6.75-.2138h-.8437l-6.75.2138a13.85 13.85 0 0 1 .5625 3.5493z"/>
  <path fill="#595551" d="M72 47.8125V9.9788a2.099 2.099 0 0 0-1.2978-1.9451 2.1 2.1 0 0 0-.8059-.1587H2.1038A2.098 2.098 0 0 0 0 9.9788v37.8337z"/>
  <path fill="#E3E3E3" d="M.422 47.8125v6.3169a2.1035 2.1035 0 0 0 1.2947 1.9589c.2564.1067.5313.1617.809.1617h66.9375a2.1037 2.1037 0 0 0 2.1037-2.1037v-6.3338z"/>
  <path fill="#67ACE3" d="M68.625 11.25H2.9419V45H68.625z"/>
  <path fill="#000" d="M68.625 11.2446H2.9419v.8438H68.625z" opacity=".1"/>
  <path fill="#fff" d="M72.0002 49.5619V9.9788a2.096 2.096 0 0 0-.6145-1.4893 2.098 2.098 0 0 0-1.4892-.6145H2.104c-1.1644 0 69.8962 41.6869 69.8962 41.6869" opacity=".1"/>
  <path fill="#595551" d="M37.3558 52.2336a1.355 1.355 0 0 1-.8369 1.2524 1.3555 1.3555 0 1 1 .8369-1.2524"/>
  <path fill="#E3E3E3" d="M49.2638 63.1798a.63.63 0 0 1-.63.63H23.3663a.6299.6299 0 0 1 0-1.26h25.2675a.63.63 0 0 1 .63.63"/>
  <path fill="#30261B" d="M36.5624 9.5627a.529.529 0 0 1-.6285.5249.5289.5289 0 0 1 .0997-1.048.5287.5287 0 0 1 .5288.523"/>
</svg>
