<svg width="32" height="32" fill="currentColor" viewBox="0 0 32 32" xmlns="http://www.w3.org/2000/svg">
  <g fill="none" fill-rule="evenodd">
    <path fill="#EEF4FD" fill-rule="nonzero" d="M6 30h20c.5523 0 1-.4477 1-1V11.3255a3.2 3.2 0 0 0-.9373-2.2628l-6.1254-6.1254A3.2 3.2 0 0 0 17.6745 2H6c-.5523 0-1 .4477-1 1v26c0 .5523.4477 1 1 1"/>
    <path fill="#4875B3" fill-opacity=".08" d="M17.6745 2a3.2 3.2 0 0 1 2.2628.9373l6.1254 6.1254A3.2 3.2 0 0 1 27 11.3255V29c0 .5523-.4477 1-1 1H6c-.5523 0-1-.4477-1-1V3c0-.5523.4477-1 1-1zm0 1H6v26h20V11.3255a2.2 2.2 0 0 0-.6444-1.5556l-6.1254-6.1255A2.2 2.2 0 0 0 17.6745 3"/>
    <path fill="#BBD1F0" fill-rule="nonzero" d="M5 28v1c0 .5523.4477 1 1 1h20c.5523 0 1-.4477 1-1v-1c0 .5523-.4477 1-1 1H6c-.5523 0-1-.4477-1-1"/>
    <path fill="#B9CFEE" fill-rule="nonzero" d="M19.5696 3.35v4.5064c0 .868.7036 1.5717 1.5716 1.5717H25.5c.9505 0 1.3181.675 1.5 1.5719-.1035-.6511-.3278-1.2923-.8-1.7643L20 2.8804c-.4708-.4705-1.3511-.7764-2-.8804.8957.1828 1.5696.4002 1.5696 1.35"/>
    <path fill="#488CD3" fill-rule="nonzero" d="M21 13c0 1.1046-.8954 2-2 2s-2-.8954-2-2 .8954-2 2-2 2 .8954 2 2"/>
    <path fill="#0A4187" fill-rule="nonzero" d="m17.2939 18.3476-1.1745-1.0363c-1.3778-1.2157-3.5148-.9184-4.5084.6272l-2.1157 3.2912c-.214.3327.025.7704.4206.7704H22.191c.3717 0 .6134-.3912.4472-.7236l-.9944-1.9889a2 2 0 0 0-2.0691-1.0858l-1.8799.266a.5.5 0 0 1-.4009-.1202"/>
  </g>
</svg>
