<svg width="32" height="32" fill="none" viewBox="0 0 32 32" xmlns="http://www.w3.org/2000/svg">
  <path fill="#408BEA" d="M16 29C8.8203 29 3 23.1797 3 16S8.8203 3 16 3s13 5.8203 13 13-5.8203 13-13 13"/>
  <path stroke="#243143" stroke-opacity=".1" d="M16 28.5C9.0964 28.5 3.5 22.9036 3.5 16S9.0964 3.5 16 3.5 28.5 9.0964 28.5 16 22.9036 28.5 16 28.5Z"/>
  <path fill="#fff" d="m15 19.5858-1.2929-1.2929c-.3905-.3905-1.0237-.3905-1.4142 0s-.3905 1.0237 0 1.4142l3 3c.3905.3905 1.0237.3905 1.4142 0l3-3c.3905-.3905.3905-1.0237 0-1.4142s-1.0237-.3905-1.4142 0L17 19.5858V10c0-.5523-.4477-1-1-1s-1 .4477-1 1z"/>
</svg>
