<svg width="32" height="32" fill="none" viewBox="0 0 32 32" xmlns="http://www.w3.org/2000/svg">
  <path fill="#408BEA" d="M26 32c-3.3137 0-6-2.6863-6-6s2.6863-6 6-6 6 2.6863 6 6-2.6863 6-6 6"/>
  <path stroke="#243143" stroke-opacity=".1" d="M26 31.5c-3.0376 0-5.5-2.4624-5.5-5.5s2.4624-5.5 5.5-5.5 5.5 2.4624 5.5 5.5-2.4624 5.5-5.5 5.5Z"/>
  <path fill="#fff" fill-rule="evenodd" d="M27.25 27.25c1.3807 0 2.5-1.1193 2.5-2.5s-1.1193-2.5-2.5-2.5-2.5 1.1193-2.5 2.5c0 .4172.1022.8106.2829 1.1564l-2.3132 2.3133a.75.75 0 0 0 0 1.0606.75.75 0 0 0 1.0606 0l.375-.375.4912.4912a.5.5 0 0 0 .7071 0l.5429-.5429a.5.5 0 0 0 0-.7071l-.4912-.4912.6883-.6882a2.49 2.49 0 0 0 1.1564.2829m0-1.5c.5523 0 1-.4477 1-1s-.4477-1-1-1-1 .4477-1 1 .4477 1 1 1" clip-rule="evenodd"/>
</svg>
