<svg width="32" height="32" fill="currentColor" viewBox="0 0 32 32" xmlns="http://www.w3.org/2000/svg">
  <g fill="none">
    <path fill="#B9BCC1" d="M2 23h28v.5c0 .5523-.4477 1-1 1H3c-.5523 0-1-.4477-1-1z"/>
    <path fill="#505764" d="M3.5 23.55a.25.25 0 0 1 0 .5H3a.25.25 0 1 1 0-.5zM27 7c.5523 0 1 .4477 1 1v15H4V8c0-.5523.4477-1 1-1z"/>
    <path fill="#6DA3DC" d="M5 8h22v14H5z"/>
    <path fill="#FFF" d="M27.0417 7H5l20.125 16H28V8c0-.5523-.4291-1-.9583-1" opacity=".25"/>
    <path fill="#92BD11" d="M29 23.55a.25.25 0 0 1 0 .5h-.5a.25.25 0 1 1 0-.5zM17.25 7.25a.25.25 0 1 1 0 .5.25.25 0 0 1 0-.5"/>
    <path fill="#505764" d="M16 7.5a.25.25 0 1 1 .5 0 .25.25 0 0 1-.5 0"/>
  </g>
</svg>
