<svg width="72" height="72" fill="none" viewBox="0 0 72 72" xmlns="http://www.w3.org/2000/svg">
  <path fill="#4F4B47" d="M9.1405 19.6537h3.5157L7.813 16.3574a2.9814 2.9814 0 0 0-2.6944 2.9644v33.2494H7.875v-31.635a1.2826 1.2826 0 0 1 1.2656-1.2825"/>
  <path fill="#595551" d="M66.3244 19.3221a2.95 2.95 0 0 0-.2363-1.1644c.147.3567.2216.7392.2194 1.125v33.1088h-2.8744v.2025h2.88z"/>
  <path fill="#5CA2DF" d="M60.8119 52.3688 14.1244 20.6494H9.1856a1.284 1.284 0 0 0-.9052.3796 1.283 1.283 0 0 0-.3716.9086v-1.0013a1.2826 1.2826 0 0 1 1.2768-1.2825h-.045a1.2824 1.2824 0 0 0-1.2656 1.2825v31.635h55.5863v-.2025z"/>
  <path fill="#67ACE3" d="M9.1856 19.6538a1.283 1.283 0 0 0-1.277 1.2825v1.0013a1.2824 1.2824 0 0 1 1.277-1.2825h4.9387l-1.4681-1.0013z"/>
  <path fill="#5291C5" d="M9.1856 19.6538a1.283 1.283 0 0 0-1.277 1.2825v1.0013a1.2824 1.2824 0 0 1 1.277-1.2825h4.9387l-1.4681-1.0013z"/>
  <path fill="#fff" d="M66.088 18.1575a2.941 2.941 0 0 0-2.7337-1.845H53.3418h9.9956a2.981 2.981 0 0 1 2.7506 1.845"/>
  <path fill="#6A6662" d="m62.1674 19.6538.0394.1069c.7087 0 1.0631.5231 1.0631 1.2318l-.1406.4782c0-.1182.1575.2025.1293.1012l.1857 30.7969h2.8743V19.26a2.91 2.91 0 0 0-.2193-1.125 2.982 2.982 0 0 0-2.7619-1.8225h-9.9956l-18.0619.0507-27.405-.0113h-.0731l4.8543 3.3019zm-26.2013-2.0644a.427.427 0 0 1 .4275.4106.427.427 0 0 1-.4275.4275.4276.4276 0 0 1-.4275-.4275.428.428 0 0 1 .4275-.4106"/>
  <path fill="#6BABE2" d="M62.2126 20.6494H14.1245L60.812 52.3688h2.6325V21.6057a1.266 1.266 0 0 0-1.2319-.9563"/>
  <path fill="#629CCB" d="M63.4444 21.6057v-.6694a1.2826 1.2826 0 0 0-1.2769-1.2825h-49.5l1.4681.9956h48.0769a1.266 1.266 0 0 1 1.2319.9563"/>
  <path fill="#2A2219" d="M35.9664 18.4385a.422.422 0 0 0 .3999-.2708.42.42 0 0 0 .0276-.1679.427.427 0 0 0-.4275-.4275.4274.4274 0 0 0-.4275.4275.422.422 0 0 0 .2603.4067.42.42 0 0 0 .1672.032"/>
  <path fill="#000" d="M66.3301 51.2944H5.1245v2.1375h61.2056z" opacity=".1"/>
  <path fill="#595551" d="M0 52.3799v.3881a3.42 3.42 0 0 0 3.42 3.4144h65.1544a3.415 3.415 0 0 0 3.1646-2.1052A3.41 3.41 0 0 0 72 52.768v-.3881z"/>
  <path fill="#000" d="M68.5744 55.3273H3.6619c-1.89 0-3.6619-1.17-3.6619-3.0544l.0506.6469c0 1.8844 1.7213 3.2625 3.6113 3.2625h64.9125a3.415 3.415 0 0 0 2.4216-.996A3.415 3.415 0 0 0 72 52.7679v-.495c0 1.8844-1.5356 3.0544-3.4256 3.0544" opacity=".2"/>
  <path fill="#48423B" d="M28.6143 52.3633v.4275a1.2825 1.2825 0 0 0 1.2825 1.2769H41.428a1.277 1.277 0 0 0 1.2769-1.2769v-.4275z"/>
  <path fill="#67ACE3" d="M61.2225 54.2024a.243.243 0 0 1-.0407.1344.241.241 0 0 1-.2483.1028.2424.2424 0 0 1-.1763-.3298.242.242 0 0 1 .2234-.1493.236.236 0 0 1 .1728.0691.236.236 0 0 1 .0691.1728"/>
  <path fill="#48423B" d="M65.8125 54.2417a.281.281 0 0 1-.2813.2812h-2.8124a.2813.2813 0 1 1 0-.5625h2.8124a.2814.2814 0 0 1 .2813.2813"/>
</svg>
