<svg width="16" height="16" fill="currentColor" viewBox="0 0 16 16" xmlns="http://www.w3.org/2000/svg">
  <g fill="none">
    <path fill="#D92C33" d="M8 15.5C3.8579 15.5.5 12.1421.5 8S3.8579.5 8 .5s7.5 3.3579 7.5 7.5-3.3579 7.5-7.5 7.5"/>
    <path fill="#FFF" d="M8 0c4.4183 0 8 3.5817 8 8 0 4.4182-3.5818 8-8 8s-8-3.5817-8-8 3.5817-8 8-8m0 1C4.134 1 1 4.134 1 8s3.134 7 7 7 7-3.134 7-7-3.134-7-7-7m1.8257 2.2c1.6511 0 2.9896 1.3385 2.9896 2.9897s-1.3385 2.9897-2.9896 2.9897c-.16 0-.317-.0126-.4702-.0368-.3943-.0623-.8159.0094-1.0981.2917L5.878 11.8137a1 1 0 0 1-.7661.291l-.2747-.0161a1 1 0 0 1-.9392-.9392l-.0163-.2747a1 1 0 0 1 .2912-.7662l2.3996-2.3996c.2784-.2784.3522-.6929.2952-1.0825a3 3 0 0 1-.0317-.4367C6.836 4.5385 8.1745 3.2 9.8257 3.2m.8009 1.2c-.5504 0-.9966.4462-.9966.9966s.4462.9965.9966.9965.9965-.4462.9965-.9965-.4462-.9966-.9965-.9966"/>
  </g>
</svg>
