<svg width="32" height="32" fill="none" viewBox="0 0 32 32" xmlns="http://www.w3.org/2000/svg">
  <path fill="#243143" fill-opacity=".7" d="M26 32c-3.3137 0-6-2.6863-6-6s2.6863-6 6-6 6 2.6863 6 6-2.6863 6-6 6"/>
  <path fill="#fff" fill-rule="evenodd" d="M23.5 24c0-1.3807 1.1193-2.5 2.5-2.5s2.5 1.1193 2.5 2.5v1.5c.5523 0 1 .1977 1 .75V29c0 .5523-.4477 1-1 1h-5c-.5523 0-1-.4477-1-1v-2.75c0-.5523.4477-.75 1-.75zm3.5 0v1.5h-2V24c0-.5523.4477-1 1-1s1 .4477 1 1m-1 2.5c-.5523 0-1 .4477-1 1v.5c0 .5523.4477 1 1 1s1-.4477 1-1v-.5c0-.5523-.4477-1-1-1" clip-rule="evenodd"/>
</svg>
