<svg width="16" height="16" fill="currentColor" viewBox="0 0 16 16" xmlns="http://www.w3.org/2000/svg">
  <g fill="none">
    <path fill="#92BD11" d="M8 15.5C3.8579 15.5.5 12.1421.5 8S3.8579.5 8 .5s7.5 3.3579 7.5 7.5-3.3579 7.5-7.5 7.5"/>
    <path fill="#FFF" d="M8 0c4.4183 0 8 3.5817 8 8 0 4.4182-3.5818 8-8 8s-8-3.5817-8-8 3.5817-8 8-8m0 1C4.134 1 1 4.134 1 8s3.134 7 7 7 7-3.134 7-7-3.134-7-7-7m-.9865 2.5008h1.973c.5908.0037.9271.0264 1.1945.1627.2822.1438.5117.3733.6555.6555.1499.2941.1624.6716.1634 1.3795L11 5.9v4.2c0 .8401 0 1.2601-.1635 1.581a1.5 1.5 0 0 1-.6555.6555c-.2941.1499-.6716.1624-1.3795.1634L8.6 12.5H7.4c-.84 0-1.2601 0-1.581-.1635a1.5 1.5 0 0 1-.6555-.6555c-.1363-.2674-.159-.6037-.1627-1.1945v-4.973c.0037-.5908.0264-.9271.1627-1.1945a1.5 1.5 0 0 1 .6555-.6555c.2674-.1363.6037-.159 1.1945-.1627h1.973ZM8.5 10.5h-1a.5.5 0 0 0 0 1h1a.5.5 0 0 0 0-1"/>
  </g>
</svg>
