<svg width="32" height="32" fill="currentColor" viewBox="0 0 32 32" xmlns="http://www.w3.org/2000/svg">
  <g fill="none">
    <path fill="#505764" d="M9 3.25C9 2.5596 9.5596 2 10.25 2h11.5c.6904 0 1.25.5596 1.25 1.25v25.5c0 .6904-.5596 1.25-1.25 1.25h-11.5C9.5596 30 9 29.4404 9 28.75z"/>
    <path fill="#6DA3DC" d="M10 3.5a.5.5 0 0 1 .5-.5h2.191a.5.5 0 0 1 .4472.2764l.0854.1708A1 1 0 0 0 14.118 4h3.764a1 1 0 0 0 .8944-.5528l.1545-.309A.25.25 0 0 1 19.1545 3H21.5a.5.5 0 0 1 .5.5v25a.5.5 0 0 1-.5.5h-11a.5.5 0 0 1-.5-.5z"/>
    <path fill="#FFF" d="M22 2H10l13 23V3c0-.5523-.4477-1-1-1" opacity=".25"/>
  </g>
</svg>
