<svg width="32" height="32" fill="none" viewBox="0 0 32 32" xmlns="http://www.w3.org/2000/svg">
  <path fill="#408BEA" d="M25.5212 20.2086a.654.654 0 0 1 .9576 0l.4609.4892c.1631.1731.4024.2454.6305.1906l.6447-.1551c.3665-.0881.7312.1531.8056.5329l.1308.668c.0463.2364.2096.4304.4303.5112l.6238.2283c.3546.1298.5347.5358.3978.8966l-.2408.6348a.703.703 0 0 0 .0935.6695l.4048.5392c.2302.3066.1685.7483-.1362.9756l-.5361.4c-.1896.1415-.2933.3751-.273.6153l.0574.6789c.0326.386-.2513.7232-.6271.7449l-.661.0382a.65.65 0 0 0-.1847.0381v2.5846c0 .3609-.3573.6076-.6857.4736L26 31.2226l-1.8143.7404c-.3284.134-.6857-.1127-.6857-.4736v-2.5846a.65.65 0 0 0-.1847-.0381l-.661-.0382c-.3758-.0217-.6597-.3589-.6271-.7449l.0574-.6789c.0203-.2402-.0834-.4738-.273-.6153l-.5361-.4c-.3047-.2273-.3664-.669-.1362-.9756l.4048-.5392a.703.703 0 0 0 .0935-.6695l-.2408-.6348c-.1369-.3608.0432-.7668.3978-.8966l.6238-.2283c.2207-.0808.384-.2748.4303-.5112l.1308-.668c.0744-.3798.4391-.621.8056-.5329l.6447.1551c.2281.0548.4674-.0175.6305-.1906z"/>
  <path stroke="#243143" stroke-opacity=".1" d="M28.3292 28.4349 28 28.5545v2.9349a.03.03 0 0 1-.0006.0065l-.0007.0017-.0003.0005-1.8095-.7384L26 30.6826l-.1889.0771-1.8095.7384-.0003-.0005-.0007-.0017A.03.03 0 0 1 24 31.4894v-2.9349l-.3292-.1196a1.15 1.15 0 0 0-.3266-.0674l-.6611-.0382c-.081-.0046-.1678-.0839-.1577-.2036l.0574-.6789c.0345-.4084-.141-.811-.4722-1.0581l-.299.4007.299-.4007-.536-.4c-.0799-.0596-.1018-.1863-.0355-.2747l.4049-.5392a1.203 1.203 0 0 0 .1611-1.1471l-.2408-.6348c-.0419-.1103.0188-.2191.1021-.2496l.6238-.2284c.39-.1427.6703-.4818.7492-.8846l.1308-.6681c.0222-.1135.1208-.1613.1979-.1428l.6448.1551c.4054.0975.8273-.0324 1.1113-.3338l.4609-.4893c.0647-.0685.1651-.0685.2298 0l.4609.4893.3562-.3356-.3562.3356c.284.3014.7059.4313 1.1113.3338l.6448-.1551c.0771-.0185.1757.0293.1979.1428l.1308.6681.4858-.0951-.4858.0951c.0789.4028.3592.7419.7492.8846l.6238.2284c.0833.0305.144.1393.1021.2496l-.2408.6348a1.203 1.203 0 0 0 .1611 1.1471l.4049.5392c.0663.0884.0444.2151-.0355.2747l-.536.4c-.3312.2471-.5067.6497-.4722 1.0581l.0574.6789c.0101.1197-.0767.199-.1577.2036l-.6611.0382a1.15 1.15 0 0 0-.3266.0674Z"/>
  <path fill="#fff" d="M25.8205 22.6851a.25.25 0 0 1 .359 0l.2854.2943a.25.25 0 0 0 .2364.0694l.3993-.0933a.25.25 0 0 1 .3019.1941l.081.4019a.25.25 0 0 0 .1613.1862l.3864.1374a.25.25 0 0 1 .1491.3265l-.1492.3819a.25.25 0 0 0 .0351.2439l.2507.3244a.25.25 0 0 1-.0511.3553l-.3319.2407a.25.25 0 0 0-.1024.224l.0355.4085a.25.25 0 0 1-.235.2713l-.4094.023a.25.25 0 0 0-.2072.1331l-.191.3629a.25.25 0 0 1-.3444.1011l-.3568-.202a.25.25 0 0 0-.2464 0l-.3568.202a.25.25 0 0 1-.3444-.1011l-.191-.3629a.25.25 0 0 0-.2072-.1331l-.4094-.023a.25.25 0 0 1-.235-.2713l.0355-.4085a.25.25 0 0 0-.1024-.224l-.3319-.2407a.25.25 0 0 1-.0511-.3553l.2507-.3244a.25.25 0 0 0 .0351-.2439l-.1492-.3819a.25.25 0 0 1 .1491-.3265l.3864-.1374a.25.25 0 0 0 .1613-.1862l.081-.4019a.25.25 0 0 1 .3019-.1941l.3993.0933a.25.25 0 0 0 .2364-.0694z"/>
</svg>
