<svg width="32" height="32" fill="currentColor" viewBox="0 0 32 32" xmlns="http://www.w3.org/2000/svg">
  <g fill="none" fill-rule="evenodd">
    <path fill="#FFE2A7" d="M2 6c0-.5523.4477-1 1-1h10.1099a2 2 0 0 1 1.3948.5666l1.3898 1.3525a.75.75 0 0 0 .5231.2125H29c.5523 0 1 .4477 1 1V26c0 .5523-.4477 1-1 1H3c-.5523 0-1-.4477-1-1z"/>
    <path fill="#FFDA8E" d="M13.1099 5a2 2 0 0 1 1.3948.5666l1.3898 1.3525a.75.75 0 0 0 .5231.2125H29c.5523 0 1 .4477 1 1V26c0 .5523-.4477 1-1 1H3c-.5523 0-1-.4477-1-1V6c0-.5523.4477-1 1-1Zm0 1H3v20h26V8.1316H16.4176a1.75 1.75 0 0 1-1.2205-.4958l-1.3898-1.3525A1 1 0 0 0 13.1099 6"/>
    <path fill="#E6C480" fill-rule="nonzero" d="M2 25v1c0 .5523.4477 1 1 1h26c.5523 0 1-.4477 1-1v-1c0 .5523-.4477 1-1 1H3c-.5523 0-1-.4477-1-1"/>
    <path fill="#D92C33" d="m16.7308 10.2538.1029.0917.7208.7209c.1897.1897.4372.3081.701.338l.1332.0076h1.0191c.6109 0 1.1133.4642 1.1737 1.059l.0061.1207v1.0185c0 .2682.0913.527.2567.7348l.0888.0995.7214.7213c.4278.4278.4583 1.1024.0917 1.5655l-.0917.1029-.7217.7217a1.18 1.18 0 0 0-.338.701l-.0076.1332v1.0185c0 .6108-.4642 1.1132-1.059 1.1736l-.1207.0061-.0825-.0003.5657 2.7567c.0496.2973-.2351.5405-.521.4452l-3.2433-1.29a.4.4 0 0 0-.2529 0l-3.2433 1.29c-.2859.0953-.5706-.1479-.521-.4452l.5648-2.7567-.083.0003c-.6109 0-1.1133-.4642-1.1737-1.059l-.0061-.1207v-1.02a1.18 1.18 0 0 0-.2567-.7348l-.0888-.0994-.7202-.7202c-.4278-.4278-.4583-1.1024-.0917-1.5655l.0917-.1029.7198-.7198a1.18 1.18 0 0 0 .338-.701l.0076-.1332v-1.0201c0-.6108.4642-1.1132 1.059-1.1736l.1207-.0061h1.0195c.2682 0 .527-.0913.7348-.2568l.0995-.0888.7208-.7209c.4278-.4278 1.1024-.4583 1.5656-.0917M16 12.5c-1.933 0-3.5 1.567-3.5 3.5s1.567 3.5 3.5 3.5 3.5-1.567 3.5-3.5-1.567-3.5-3.5-3.5m0 1c1.3807 0 2.5 1.1193 2.5 2.5s-1.1193 2.5-2.5 2.5-2.5-1.1193-2.5-2.5 1.1193-2.5 2.5-2.5"/>
  </g>
</svg>
