<svg width="16" height="16" fill="none" viewBox="0 0 16 16" xmlns="http://www.w3.org/2000/svg">
  <path fill="#4875B3" stroke="#fff" d="m3.5983 13.6288.0724.4947-.0724-.4947c-.5526.0809-1.066-.3015-1.147-.854a1 1 0 0 1-.0024-.2755l.0865-.6725a2.748 2.748 0 0 0-1.0842-2.5542l-.2905.3901.2905-.3901-.5438-.405c-.448-.3335-.5407-.967-.2072-1.4148a1 1 0 0 1 .193-.1965l.5368-.4144-.3056-.3958.3056.3958a2.748 2.748 0 0 0 1.0395-2.5727l-.0983-.671c-.0809-.5525.3015-1.066.854-1.1469a1 1 0 0 1 .2755-.0024l.6725.0865a2.748 2.748 0 0 0 2.5542-1.0842l.405-.5438a1.0112 1.0112 0 0 1 1.6113-.014l.4144.5366a2.747 2.747 0 0 0 2.5727 1.0395l.6709-.0983c.5526-.0809 1.0661.3015 1.147.854.0133.0913.0142.184.0024.2755l-.0865.6725a2.747 2.747 0 0 0 1.0842 2.5542l.5438.405c.448.3335.5407.967.2072 1.4149a1 1 0 0 1-.1931.1964l-.5367.4144a2.748 2.748 0 0 0-1.0395 2.5727l.0983.6709c.0809.5526-.3015 1.0661-.854 1.147a1 1 0 0 1-.2755.0024l-.6725-.0865a2.747 2.747 0 0 0-2.5542 1.0842l-.405.5438c-.3335.448-.967.5407-1.4148.2072a1 1 0 0 1-.1965-.1931l-.4144-.5367a2.748 2.748 0 0 0-2.5727-1.0395z"/>
  <path fill="#fff" d="M11.4647 5.3828c-.2806-.272-.7016-.2267-.9822.0453L6.9747 8.965 5.8989 7.8767c-.2806-.272-.7015-.3174-.9822-.0453s-.2806.6801-.0467.9522l1.3563 1.3603c.421.4081 1.1225.4081 1.5435 0l3.7417-3.8089c.2806-.272.2338-.6801-.0468-.9522"/>
</svg>
