<svg width="32" height="32" fill="none" viewBox="0 0 32 32" xmlns="http://www.w3.org/2000/svg">
  <path fill="#485BD5" d="M30.4 13h-8v8c0 2.6512 2.1488 4.8 4.8 4.8S32 23.6512 32 21v-6.4c0-.884-.716-1.6-1.6-1.6"/>
  <path fill="#6D81FF" d="M8.8 13v10.1256c0 4.2607 3.2152 7.9815 7.4672 8.2567 4.66.3024 8.5328-3.388 8.5328-7.9823v-8.8c0-.884-.716-1.6-1.6-1.6z"/>
  <path fill="#5161CB" d="M16.8 1a4.8 4.8 0 1 0 0 9.6002A4.8 4.8 0 0 0 16.8 1"/>
  <path fill="#3440A0" d="M27.1999 3.4004a3.2 3.2 0 1 0 0 6.4002 3.2 3.2 0 0 0 0-6.4002"/>
  <path fill="#2D399A" d="M14.6552 24.2001H1.3448C.6024 24.2001 0 23.5977 0 22.8553V9.545c0-.7424.6024-1.3448 1.3448-1.3448h13.3104c.7424 0 1.3448.6024 1.3448 1.3448v13.3103c0 .7424-.6024 1.3448-1.3448 1.3448"/>
  <path fill="#fff" d="M11.2544 12.1992H4.7456v1.376h2.4376v6.624h1.6336v-6.624h2.4376z"/>
</svg>
