<svg width="16" height="16" fill="currentColor" viewBox="0 0 16 16" xmlns="http://www.w3.org/2000/svg">
  <g fill="none">
    <path fill="#92BD11" d="M8 15.5C3.8579 15.5.5 12.1421.5 8S3.8579.5 8 .5s7.5 3.3579 7.5 7.5-3.3579 7.5-7.5 7.5"/>
    <path fill="#FFF" d="M8 0c4.4183 0 8 3.5817 8 8 0 4.4182-3.5818 8-8 8s-8-3.5817-8-8 3.5817-8 8-8m0 1C4.134 1 1 4.134 1 8s3.134 7 7 7 7-3.134 7-7-3.134-7-7-7m.474 2.5455.7593 2.3369a.5.5 0 0 0 .4755.3455h2.4572c.4844 0 .6857.6198.2939.9045l-1.988 1.4442a.5.5 0 0 0-.1815.559l.7593 2.337c.1497.4606-.3776.8437-.7694.559l-1.988-1.4443a.5.5 0 0 0-.5877 0l-1.9879 1.4443c-.3919.2847-.9191-.0984-.7694-.559l.7593-2.337a.5.5 0 0 0-.1817-.559L3.5371 7.1324c-.3919-.2847-.1905-.9045.2939-.9045h2.457a.5.5 0 0 0 .4755-.3455l.7593-2.3369c.1497-.4607.8014-.4607.951 0"/>
  </g>
</svg>
