<svg width="32" height="32" fill="currentColor" viewBox="0 0 32 32" xmlns="http://www.w3.org/2000/svg">
  <g fill="none" fill-rule="evenodd">
    <path fill="#EEF4FD" fill-rule="nonzero" d="M6 30h20c.5523 0 1-.4477 1-1V11.3255a3.2 3.2 0 0 0-.9373-2.2628l-6.1254-6.1254A3.2 3.2 0 0 0 17.6745 2H6c-.5523 0-1 .4477-1 1v26c0 .5523.4477 1 1 1"/>
    <path fill="#4875B3" fill-opacity=".08" d="M17.6745 2a3.2 3.2 0 0 1 2.2628.9373l6.1254 6.1254A3.2 3.2 0 0 1 27 11.3255V29c0 .5523-.4477 1-1 1H6c-.5523 0-1-.4477-1-1V3c0-.5523.4477-1 1-1zm0 1H6v26h20V11.3255a2.2 2.2 0 0 0-.6444-1.5556l-6.1254-6.1255A2.2 2.2 0 0 0 17.6745 3"/>
    <path fill="#BBD1F0" fill-rule="nonzero" d="M5 28v1c0 .5523.4477 1 1 1h20c.5523 0 1-.4477 1-1v-1c0 .5523-.4477 1-1 1H6c-.5523 0-1-.4477-1-1"/>
    <path fill="#B9CFEE" fill-rule="nonzero" d="M19.5696 3.35v4.5064c0 .868.7036 1.5717 1.5716 1.5717H25.5c.9505 0 1.3181.675 1.5 1.5719-.1035-.6511-.3278-1.2923-.8-1.7643L20 2.8804c-.4708-.4705-1.3511-.7764-2-.8804.8957.1828 1.5696.4002 1.5696 1.35"/>
    <path fill="#D92C33" d="M13.6569 9.263c.5824-.0856 1.0714.246 1.3614.665.2945.4257.4483 1.0052.4483 1.6833 0 .5659-.0959 1.2889-.258 2.0835.4382.6128.9705 1.256 1.5559 1.8801.5718.6097 1.1674 1.1725 1.7376 1.6482.5839-.0467 1.1351-.0709 1.6279-.0709.7828 0 1.426.1612 1.8898.4681.4614.3053.8082.8176.7158 1.4204-.0931.6077-.5834.9859-1.1114 1.1115-.5276.1257-1.1494.0331-1.8011-.2592-.5472-.2453-1.1593-.6374-1.7872-1.121-.895.0921-1.8541.2358-2.7779.4262-.7566.1559-1.4613.3376-2.075.537-.3515.7132-.7369 1.3542-1.1372 1.7791-.4054.4303-.8359.733-1.2647.8616-.4151.1244-1.0176.1147-1.379-.3953-.329-.4644-.2116-1.0178-.0293-1.3947.1977-.4087.5532-.8132 1.0446-1.1856.4346-.3293 1.0141-.6189 1.6744-.8709.2923-.6545.5774-1.3977.8342-2.1639.2707-.8079.5027-1.6193.6785-2.3623-.4179-.6477-.7456-1.2826-.9303-1.861-.2183-.6839-.2637-1.3022-.1233-1.8085.1409-.5082.5098-.9831 1.106-1.0707m1.0915 6.291c-.1234.431-.2581.8641-.4002 1.2881-.1263.377-.26.7513-.3991 1.1157a25 25 0 0 1 1.0061-.2288 29 29 0 0 1 1.5578-.2759 22.6 22.6 0 0 1-.8425-.852 22 22 0 0 1-.9221-1.0471"/>
  </g>
</svg>
