<svg width="16" height="16" fill="currentColor" viewBox="0 0 16 16" xmlns="http://www.w3.org/2000/svg">
  <g fill="none">
    <path fill="#FF8900" d="M8 15.5C3.8579 15.5.5 12.1421.5 8S3.8579.5 8 .5s7.5 3.3579 7.5 7.5-3.3579 7.5-7.5 7.5"/>
    <path fill="#000" d="M2.6568 3a27.2 27.2 0 0 0 1.5998.9876C7.7326 5.9734 11.487 7.21 15.4742 7.4652c.0277.2567.0414.5178.0414.782l-.004.2235a25 25 0 0 1-1.5063-.136c-.11 1.2779-1.1828 2.2808-2.4897 2.2808-1.3807 0-2.5-1.1193-2.5-2.5a2.5 2.5 0 0 1 .1005-.704l.0489-.1484c-1.866-.6046-3.6694-1.416-5.4044-2.4071A29 29 0 0 1 2 3.7652c.2031-.27.422-.5254.6568-.7652m4.3049 5.2473c.0351.1273.0539.2614.0539.3999 0 .8284-.6716 1.5-1.5 1.5s-1.5-.6716-1.5-1.5c0-.0923.0083-.1827.0243-.2704l.0296-.1295z"/>
    <path fill="#FFF" d="M8 0c4.4183 0 8 3.5817 8 8 0 4.4182-3.5818 8-8 8s-8-3.5817-8-8 3.5817-8 8-8m0 1C4.134 1 1 4.134 1 8s3.134 7 7 7 7-3.134 7-7-3.134-7-7-7"/>
  </g>
</svg>
