<svg width="32" height="32" fill="currentColor" viewBox="0 0 32 32" xmlns="http://www.w3.org/2000/svg">
  <g fill="none" fill-rule="evenodd">
    <path fill="#EEF4FD" fill-rule="nonzero" d="M6 30h20c.5523 0 1-.4477 1-1V11.3255a3.2 3.2 0 0 0-.9373-2.2628l-6.1254-6.1254A3.2 3.2 0 0 0 17.6745 2H6c-.5523 0-1 .4477-1 1v26c0 .5523.4477 1 1 1"/>
    <path fill="#4875B3" fill-opacity=".08" d="M17.6745 2a3.2 3.2 0 0 1 2.2628.9373l6.1254 6.1254A3.2 3.2 0 0 1 27 11.3255V29c0 .5523-.4477 1-1 1H6c-.5523 0-1-.4477-1-1V3c0-.5523.4477-1 1-1zm0 1H6v26h20V11.3255a2.2 2.2 0 0 0-.6444-1.5556l-6.1254-6.1255A2.2 2.2 0 0 0 17.6745 3"/>
    <path fill="#BBD1F0" fill-rule="nonzero" d="M5 28v1c0 .5523.4477 1 1 1h20c.5523 0 1-.4477 1-1v-1c0 .5523-.4477 1-1 1H6c-.5523 0-1-.4477-1-1"/>
    <path fill="#B9CFEE" fill-rule="nonzero" d="M19.5696 3.35v4.5064c0 .868.7036 1.5717 1.5716 1.5717H25.5c.9505 0 1.3181.675 1.5 1.5719-.1035-.6511-.3278-1.2923-.8-1.7643L20 2.8804c-.4708-.4705-1.3511-.7764-2-.8804.8957.1828 1.5696.4002 1.5696 1.35"/>
    <path fill="#2D3138" fill-rule="nonzero" d="M17.5209 10.7131a.75.75 0 0 1 .5142.9277l-2.6185 9.1319a.7501.7501 0 0 1-1.4419-.4134l2.6185-9.132a.75.75 0 0 1 .9277-.5142m-5.748 2.8172a.75.75 0 0 1 0 1.0606l-1.5105 1.5106a.2.2 0 0 0 0 .2829l1.5106 1.5106a.75.75 0 0 1-1.0607 1.0605l-2.3589-2.3593a.5.5 0 0 1 0-.7071l2.3589-2.3588a.75.75 0 0 1 1.0606 0m9.5147.0001 2.3589 2.3593a.5.5 0 0 1-.0001.7071l-2.3588 2.3588a.75.75 0 0 1-1.0606 0 .75.75 0 0 1 0-1.0606l1.5106-1.5106a.2.2 0 0 0 0-.2828l-1.5106-1.5107a.75.75 0 1 1 1.0606-1.0605"/>
  </g>
</svg>
