<svg width="16" height="16" fill="currentColor" viewBox="0 0 16 16" xmlns="http://www.w3.org/2000/svg">
  <g fill="none">
    <path fill="#92BD11" d="M8 15.5C3.8579 15.5.5 12.1421.5 8S3.8579.5 8 .5s7.5 3.3579 7.5 7.5-3.3579 7.5-7.5 7.5"/>
    <path fill="#FFF" d="M8 0c4.4183 0 8 3.5817 8 8 0 4.4182-3.5818 8-8 8s-8-3.5817-8-8 3.5817-8 8-8m0 1C4.134 1 1 4.134 1 8s3.134 7 7 7 7-3.134 7-7-3.134-7-7-7m-.2405 3 .1427.0127c.1891.0283.3726.1035.5316.2257l.1144.1004 3.7123 3.7122c.3605.3605.3882.9277.0832 1.32l-.0832.0942-2.795 2.795c-.3605.3606-.9278.3883-1.32.0832l-.0943-.0832L4.339 8.548a1.15 1.15 0 0 1-.326-.6459l-.0124-.1426L4 6c0-1.0544.8159-1.9182 1.8507-1.9945L6 4zM6 5c-.5523 0-1 .4477-1 1s.4477 1 1 1 1-.4477 1-1-.4477-1-1-1"/>
  </g>
</svg>
