<svg width="32" height="32" fill="currentColor" viewBox="0 0 32 32" xmlns="http://www.w3.org/2000/svg">
  <g fill="none" fill-rule="evenodd">
    <path fill="#89BBEE" fill-rule="nonzero" d="M30 26V6c0-.5523-.4477-1-1-1H3c-.5523 0-1 .4477-1 1v20c0 .5523.4477 1 1 1h26c.5523 0 1-.4477 1-1"/>
    <path fill="#7EB4EE" d="M29 5c.5523 0 1 .4477 1 1v20c0 .5523-.4477 1-1 1H3c-.5523 0-1-.4477-1-1V6c0-.5523.4477-1 1-1zm0 1H3v20h26z"/>
    <path fill="#488CD3" fill-rule="nonzero" d="M2 11.8618v1.9092c0 .4344.2804.8191.694.9521l13 4.1785c.199.064.413.064.612 0l13-4.1785c.4136-.133.694-.5177.694-.9521v-1.9092a1 1 0 0 1-.5789.907l-13 6.0357a1 1 0 0 1-.8422 0l-13-6.0357A1 1 0 0 1 2 11.8618"/>
    <path fill="#BCD2F1" fill-rule="nonzero" d="M29 5H3c-.5523 0-1 .4477-1 1v5.8618a1 1 0 0 0 .5789.907l13 6.0357c.267.124.5752.124.8422 0l13-6.0357a1 1 0 0 0 .5789-.907V6c0-.5523-.4477-1-1-1"/>
    <path fill="#AFCBF5" fill-rule="nonzero" d="M2 6c0-.5523.4477-1 1-1h26c.5523 0 1 .4477 1 1v5.8618a1 1 0 0 1-.5789.907L29 12.9643V6H3v6.9643l-.4211-.1955A1 1 0 0 1 2 11.8618z"/>
    <path fill="#255BA2" fill-rule="nonzero" d="M30 25v1c0 .5523-.4477 1-1 1H3c-.5523 0-1-.4477-1-1v-1c0 .5523.4477 1 1 1h26c.5523 0 1-.4477 1-1M15 11c1.6122 0 3.0016.9538 3.6348 2.3279A2.99 2.99 0 0 1 20 13c1.6569 0 3 1.3431 3 3q0 .025-.0004.0499C24.1409 16.2814 25 17.2904 25 18.5c0 1.3807-1.1193 2.5-2.5 2.5H11c-1.6569 0-3-1.3431-3-3s1.3431-3 3-3c0-2.2091 1.7909-4 4-4"/>
  </g>
</svg>
