<svg width="72" height="72" fill="none" viewBox="0 0 72 72" xmlns="http://www.w3.org/2000/svg">
  <path fill="#464D54" d="M16.02 1.6514h-.7931a2.85 2.85 0 0 0-1.9986.8125 2.84 2.84 0 0 0-.8533 1.9792v63.0575h3.375V2.8478a2.8 2.8 0 0 1 .27-1.1964"/>
  <path fill="#565F66" d="M55.4344 1.6514H16.02a2.8 2.8 0 0 0-.27 1.1964v64.6528h39.9375V2.8478a2.805 2.805 0 0 0-.2531-1.1964"/>
  <path fill="#464D54" d="M57.8139.4887A2.815 2.815 0 0 0 56.2502 0a2.854 2.854 0 0 1 1.9912.8479 2.846 2.846 0 0 1 .8213 2v1.6458a2.846 2.846 0 0 0-.8333-2.0118 2.854 2.854 0 0 0-2.013-.836h-.7818c.1721.377.2586.7875.2531 1.202v64.6528h3.375V2.8479a2.805 2.805 0 0 0-.3259-1.3372 2.81 2.81 0 0 0-.9229-1.022"/>
  <path fill="#565F66" d="M15.2325 0a2.853 2.853 0 0 0-2.0202.8321 2.846 2.846 0 0 0-.8373 2.0157v1.6459-1.6458A2.846 2.846 0 0 1 13.2123.832 2.853 2.853 0 0 1 15.2325 0"/>
  <path fill="#565F66" d="M15.2269 1.6514h.7931A2.84 2.84 0 0 1 17.0663.4495 2.843 2.843 0 0 1 18.5963 0h-3.375a2.854 2.854 0 0 0-2.013.8361 2.846 2.846 0 0 0-.8333 2.0118V4.443a2.84 2.84 0 0 1 .8533-1.9791 2.85 2.85 0 0 1 1.9986-.8126"/>
  <path fill="#787F85" d="M16.02 1.6514h39.4144A2.84 2.84 0 0 0 54.3952.454 2.843 2.843 0 0 0 52.875 0H18.5963a2.844 2.844 0 0 0-1.53.4495 2.84 2.84 0 0 0-1.0463 1.202"/>
  <path fill="#565F66" d="M55.4344 1.6514h.7819a2.854 2.854 0 0 1 2.0109.8341 2.846 2.846 0 0 1 .8353 2.0082V2.8479A2.846 2.846 0 0 0 58.2292.836 2.854 2.854 0 0 0 56.2163 0H52.875a2.844 2.844 0 0 1 1.5202.454 2.84 2.84 0 0 1 1.0392 1.1974"/>
  <path fill="#3A4651" d="M60.2044 69.1973H11.25v2.8085h48.9544z"/>
  <path fill="#6A757A" d="M59.0737 67.4893H12.3862v1.7076h46.6875z"/>
  <path fill="#2D3138" d="M54.0223 60.2207H17.4316v5.0329h36.5907z"/>
  <path fill="#42464C" d="M26.4377 62.4341h-6.7331v1.6851h6.7331zm8.4375 0h-6.7331v1.6851h6.7331zm8.4375 0h-6.7331v1.6851h6.7331zm8.4429 0h-6.7331v1.6851h6.7331z"/>
  <path fill="#2D3138" d="M36.0059 11.8916h-23.625v2.8086h23.625z"/>
  <path fill="#787F85" d="M36.0059 14.7056h-20.25v.5617h20.25z"/>
  <path fill="#5A6066" d="M15.7502 14.7056h-3.3693v.5617h3.3693z"/>
  <path fill="#488BD3" d="M36.0115 14.7002h23.0569v-2.8086H36.0115z"/>
  <path fill="#787F85" d="M36.0057 15.2617h19.7775V14.7H36.0057z"/>
  <path fill="#5A6066" d="M55.6934 15.2617h3.375V14.7h-3.375z"/>
  <path fill="#3D6795" d="M59.0627 11.8857h-3.3693v2.8142h3.3693zm-22.4946-.0053h-.5569v2.8141h.5569z"/>
  <path fill="#2D3138" d="M36.0112 19.7554h-23.625v2.8085h23.625z"/>
  <path fill="#787F85" d="M36.0112 22.564h-20.25v.5617h20.25z"/>
  <path fill="#5A6066" d="M15.7556 22.564h-3.3694v.5617h3.3694z"/>
  <path fill="#488BD3" d="M36.0115 22.564h23.0569v-2.8086H36.0115z"/>
  <path fill="#787F85" d="M36.0169 23.1201h19.7775v-.5617H36.0169z"/>
  <path fill="#5A6066" d="M55.6934 23.1201h3.375v-.5617h-3.375z"/>
  <path fill="#3D6795" d="M59.0627 19.7441h-3.3693v2.8142h3.3693zm-22.4887-.0058h-.5569v2.8141h.5569z"/>
  <path fill="#2D3138" d="M36.0112 27.063h-23.625v2.8085h23.625z"/>
  <path fill="#787F85" d="M36.0112 29.8716h-20.25v.5617h20.25z"/>
  <path fill="#5A6066" d="M15.7556 29.8716h-3.3694v.5617h3.3694z"/>
  <path fill="#488BD3" d="M36.0115 29.8716h23.0569V27.063H36.0115z"/>
  <path fill="#787F85" d="M36.0169 30.4336h19.7775v-.5617H36.0169z"/>
  <path fill="#5A6066" d="M55.6934 30.4336h3.375v-.5617h-3.375z"/>
  <path fill="#3D6795" d="M59.0627 27.0576h-3.3693v2.8142h3.3693zm-22.4887-.0058h-.5569v2.8141h.5569z"/>
  <path fill="#2D3138" d="M35.7749 53.2052c3.7279 0 6.75-3.0179 6.75-6.7406s-3.0221-6.7405-6.75-6.7405-6.75 3.0179-6.75 6.7405c0 3.7227 3.0221 6.7406 6.75 6.7406"/>
  <path fill="#7D848A" d="M35.7189 42.0498a5.066 5.066 0 0 1 3.5797 1.4807 5.052 5.052 0 0 1 1.4828 3.5747v.0843a5.3 5.3 0 0 0 .0619-.7358 5.052 5.052 0 0 0-1.453-3.5871 5.066 5.066 0 0 0-3.5674-1.5105 5.067 5.067 0 0 0-3.592 1.4509 5.052 5.052 0 0 0-1.5126 3.5624 5.053 5.053 0 0 1 1.6966-3.0876 5.067 5.067 0 0 1 3.304-1.232"/>
  <path fill="#5C656D" d="M35.7753 51.5312a5.067 5.067 0 0 0 3.3192-1.2389 5.053 5.053 0 0 0 1.6926-3.1088v-.0842a5.05 5.05 0 0 0-1.2899-3.5569 5.065 5.065 0 0 0-3.4006-1.6671 5.067 5.067 0 0 0-3.607 1.1561 5.053 5.053 0 0 0-1.7937 3.332v.0843a5.05 5.05 0 0 0 .3788 1.9471 5.06 5.06 0 0 0 1.0999 1.6517 5.068 5.068 0 0 0 3.6007 1.4847"/>
</svg>
