<svg width="32" height="32" fill="currentColor" viewBox="0 0 32 32" xmlns="http://www.w3.org/2000/svg">
  <g fill="none" fill-rule="evenodd">
    <rect width="20" height="25" x="6" y="4" fill="#EEEEF0" fill-rule="nonzero" rx="1"/>
    <path fill="#CBCDD1" d="M25 4c.5129 0 .9355.386.9933.8834L26 5v23c0 .5129-.386.9355-.8834.9933L25 29H7c-.5128 0-.9355-.386-.9933-.8834L6 28V5c0-.5128.386-.9355.8834-.9933L7 4zm0 19H7v5h18zm-4.5 2a.5.5 0 1 1 0 1 .5.5 0 0 1 0-1m-2 0a.5.5 0 1 1 0 1 .5.5 0 0 1 0-1m6.5-8H7v5h18zm-4.5 2a.5.5 0 1 1 0 1 .5.5 0 0 1 0-1m-2 0a.5.5 0 1 1 0 1 .5.5 0 0 1 0-1m6.5-8H7v5h18zm-4.5 2a.5.5 0 1 1 0 1 .5.5 0 0 1 0-1m-2 0a.5.5 0 1 1 0 1 .5.5 0 0 1 0-1M25 5H7v5h18zm-4.5 2a.5.5 0 1 1 0 1 .5.5 0 0 1 0-1m-2 0a.5.5 0 1 1 0 1 .5.5 0 0 1 0-1"/>
    <path fill="#92BD11" fill-rule="nonzero" d="M22.5 25a.5.5 0 1 1 0 1 .5.5 0 0 1 0-1m0-6a.5.5 0 1 1 0 1 .5.5 0 0 1 0-1m0-6a.5.5 0 1 1 0 1 .5.5 0 0 1 0-1m0-6a.5.5 0 1 1 0 1 .5.5 0 0 1 0-1"/>
    <path fill="#858FA2" fill-rule="nonzero" d="M6 27v1c0 .5523.4477 1 1 1h18c.5523 0 1-.4477 1-1v-1c0 .5523-.4477 1-1 1H7c-.5523 0-1-.4477-1-1"/>
  </g>
</svg>
