<svg width="32" height="32" fill="currentColor" viewBox="0 0 32 32" xmlns="http://www.w3.org/2000/svg">
  <g fill="none" fill-rule="evenodd">
    <path fill="#FFE2A7" d="M2 6c0-.5523.4477-1 1-1h10.1099a2 2 0 0 1 1.3948.5666l1.3898 1.3525a.75.75 0 0 0 .5231.2125H29c.5523 0 1 .4477 1 1V26c0 .5523-.4477 1-1 1H3c-.5523 0-1-.4477-1-1z"/>
    <path fill="#FFDA8E" d="M13.1099 5a2 2 0 0 1 1.3948.5666l1.3898 1.3525a.75.75 0 0 0 .5231.2125H29c.5523 0 1 .4477 1 1V26c0 .5523-.4477 1-1 1H3c-.5523 0-1-.4477-1-1V6c0-.5523.4477-1 1-1Zm0 1H3v20h26V8.1316H16.4176a1.75 1.75 0 0 1-1.2205-.4958l-1.3898-1.3525A1 1 0 0 0 13.1099 6"/>
    <path fill="#E6C480" fill-rule="nonzero" d="M2 25v1c0 .5523.4477 1 1 1h26c.5523 0 1-.4477 1-1v-1c0 .5523-.4477 1-1 1H3c-.5523 0-1-.4477-1-1"/>
    <path fill="#98742B" d="M13.082 20.2841c.4465.3977.9726.696 1.5462.8792A1.747 1.747 0 0 1 16 20.5c.9665 0 1.75.7835 1.75 1.75S16.9665 24 16 24c-.7316 0-1.3583-.4489-1.6197-1.0863-.915-.2444-1.7577-.6951-2.4623-1.3228a.875.875 0 0 1 1.164-1.3068M21.25 15.25c.9665 0 1.75.7835 1.75 1.75 0 .7316-.4489 1.3583-1.0863 1.6197-.2444.915-.6951 1.7577-1.3228 2.4623a.875.875 0 1 1-1.3067-1.164c.3976-.4464.6959-.9726.8791-1.5462A1.747 1.747 0 0 1 19.5 17c0-.9665.7835-1.75 1.75-1.75m-8.6055-2.4034a.875.875 0 0 1 .0714 1.2354c-.3977.4465-.696.9726-.8792 1.5462.4041.3206.6633.8159.6633 1.3718 0 .9665-.7835 1.75-1.75 1.75S9 17.9665 9 17c0-.7316.4489-1.3583 1.0863-1.6197.2444-.915.6951-1.7577 1.3228-2.4623a.875.875 0 0 1 1.2354-.0714M16 10c.7316 0 1.3583.4489 1.6197 1.0863.915.2444 1.7577.6951 2.4623 1.3228a.875.875 0 0 1 .0713 1.2354.875.875 0 0 1-1.2353.0714c-.4465-.3977-.9726-.696-1.5462-.8792A1.747 1.747 0 0 1 16 13.5c-.9665 0-1.75-.7835-1.75-1.75S15.0335 10 16 10"/>
  </g>
</svg>
