<svg width="32" height="32" fill="currentColor" viewBox="0 0 32 32" xmlns="http://www.w3.org/2000/svg">
  <g fill="none" fill-rule="evenodd">
    <path fill="#EEF4FD" fill-rule="nonzero" d="M6 30h20c.5523 0 1-.4477 1-1V11.3255a3.2 3.2 0 0 0-.9373-2.2628l-6.1254-6.1254A3.2 3.2 0 0 0 17.6745 2H6c-.5523 0-1 .4477-1 1v26c0 .5523.4477 1 1 1"/>
    <path fill="#4875B3" fill-opacity=".08" d="M17.6745 2a3.2 3.2 0 0 1 2.2628.9373l6.1254 6.1254A3.2 3.2 0 0 1 27 11.3255V29c0 .5523-.4477 1-1 1H6c-.5523 0-1-.4477-1-1V3c0-.5523.4477-1 1-1zm0 1H6v26h20V11.3255a2.2 2.2 0 0 0-.6444-1.5556l-6.1254-6.1255A2.2 2.2 0 0 0 17.6745 3"/>
    <path fill="#BBD1F0" fill-rule="nonzero" d="M5 28v1c0 .5523.4477 1 1 1h20c.5523 0 1-.4477 1-1v-1c0 .5523-.4477 1-1 1H6c-.5523 0-1-.4477-1-1"/>
    <path fill="#B9CFEE" fill-rule="nonzero" d="M19.5696 3.35v4.5064c0 .868.7036 1.5717 1.5716 1.5717H25.5c.9505 0 1.3181.675 1.5 1.5719-.1035-.6511-.3278-1.2923-.8-1.7643L20 2.8804c-.4708-.4705-1.3511-.7764-2-.8804.8957.1828 1.5696.4002 1.5696 1.35"/>
    <path fill="#2D3138" fill-rule="nonzero" d="M16.4289 10c.205 0 .4339.1569.5104.3484l.5214 1.3032.0368.1036a4.5 4.5 0 0 1 .5282.2254l1.4616-.7304c.1888-.0943.4589-.0538.6179.1051l.5419.5416c.1525.1524.1974.4332.1052.6177l-.7314 1.4627a4.5 4.5 0 0 1 .2242.526c.0368.0113.0718.0235.1033.036l1.3032.5214c.1924.0769.3484.3105.3484.5104v.8578c0 .205-.1569.4339-.3484.5104l-1.3032.5214-.1037.0363-.0388.1065a4.5 4.5 0 0 1-.185.4192l.7314 1.4627c.0922.1845.0473.4653-.1052.6177l-.5419.5416c-.159.1589-.4291.1994-.6179.1051l-1.4616-.7304a4.5 4.5 0 0 1-.4222.1865l-.1065.0386a1.4 1.4 0 0 1-.0363.1039l-.5214 1.3032c-.0769.1924-.3105.3484-.5104.3484h-.8578c-.205 0-.4339-.1569-.5104-.3484l-.5214-1.3032-.0368-.1036a4.5 4.5 0 0 1-.5282-.2254l-1.4616.7304c-.1888.0943-.4589.0538-.6179-.1051l-.5419-.5416c-.1525-.1524-.1974-.4332-.1052-.6177l.7314-1.4627a4.5 4.5 0 0 1-.2242-.526 1.4 1.4 0 0 1-.1033-.036l-1.3032-.5214c-.1924-.0769-.3484-.3105-.3484-.5104v-.8578c0-.205.1569-.4339.3484-.5104l1.3032-.5214.1037-.0363.0388-.1065a4.5 4.5 0 0 1 .185-.4192l-.7314-1.4627c-.0922-.1845-.0473-.4653.1052-.6177l.5419-.5416c.159-.1589.4291-.1994.6179-.1051l1.4616.7304a4.5 4.5 0 0 1 .4222-.1865l.1065-.0386a1.4 1.4 0 0 1 .0363-.1039l.5214-1.3032c.0769-.1924.3105-.3484.5104-.3484zM16 13c-1.6569 0-3 1.3431-3 3s1.3431 3 3 3 3-1.3431 3-3-1.3431-3-3-3"/>
  </g>
</svg>
