<svg width="32" height="32" fill="currentColor" viewBox="0 0 32 32" xmlns="http://www.w3.org/2000/svg">
  <g fill="none">
    <path fill="#505764" d="M24.5 28v.5a.5.5 0 0 1-.5.5H8a.5.5 0 0 1-.5-.5V28zM20 24v1h-8v-1zm9-21c.5523 0 1 .4477 1 1v19H2V4c0-.5523.4477-1 1-1z"/>
    <path fill="#B9BCC1" d="m20 27 4.5 1h-17l4.5-1zm10-6v2c0 .5523-.4477 1-1 1H3c-.5523 0-1-.4477-1-1v-2z"/>
    <path fill="#6E7279" d="M20 25v2h-8v-2zM4.25 22.25a.25.25 0 1 1 0 .5h-.5a.25.25 0 1 1 0-.5zm22.5 0a.25.25 0 1 1 0 .5h-.5a.25.25 0 1 1 0-.5z"/>
    <path fill="#92BD11" d="M28.25 22.25a.25.25 0 1 1 0 .5h-.5a.25.25 0 1 1 0-.5zm-11-19a.25.25 0 1 1 0 .5.25.25 0 0 1 0-.5"/>
    <path fill="#6DA3DC" d="M3 4h26v16H3z"/>
    <path fill="#FFF" d="M16.4289 6c.205 0 .4339.157.5104.3484l.5214 1.3032.0368.1036c.1817.064.358.1395.5282.2254l1.4616-.7304c.1888-.0943.4589-.0538.6179.1051l.5419.5416c.1525.1524.1974.4332.1052.6177l-.7314 1.4627q.1283.2545.2242.526c.0368.0113.0718.0235.1033.036l1.3032.5214c.1924.0769.3484.3105.3484.5104v.8578c0 .205-.1569.4339-.3484.5104l-1.3032.5214-.1037.0363-.0388.1065a4.5 4.5 0 0 1-.185.4192l.7314 1.4627c.0922.1845.0473.4653-.1052.6177l-.5419.5416c-.159.1589-.4291.1994-.6179.1051l-1.4616-.7304a4.5 4.5 0 0 1-.4222.1865l-.1065.0386a1.4 1.4 0 0 1-.0363.1039l-.5214 1.3032c-.0769.1924-.3105.3484-.5104.3484h-.8578c-.205 0-.4339-.1569-.5104-.3484l-.5214-1.3032-.0368-.1036a4.5 4.5 0 0 1-.5282-.2254l-1.4616.7304c-.1888.0943-.4589.0538-.6179-.1051l-.5419-.5416c-.1525-.1524-.1974-.4332-.1052-.6177l.7314-1.4627a4.5 4.5 0 0 1-.2242-.526 1.4 1.4 0 0 1-.1033-.036l-1.3032-.5214c-.1924-.0769-.3484-.3105-.3484-.5104v-.8578c0-.205.1569-.4339.3484-.5104l1.3032-.5214.1037-.0363.0388-.1065a4.5 4.5 0 0 1 .185-.4192l-.7314-1.4627c-.0922-.1845-.0473-.4653.1052-.6177l.5419-.5416c.159-.1589.4291-.1994.6179-.105l1.4616.7303a4.5 4.5 0 0 1 .4222-.1865l.1065-.0386a1.4 1.4 0 0 1 .0363-.1039l.5214-1.3032c.0769-.1924.3105-.3484.5104-.3484zM16 15c1.6569 0 3-1.3431 3-3s-1.3431-3-3-3-3 1.3431-3 3 1.3431 3 3 3"/>
    <path fill="#FFF" d="M29 3H5l23 18h2V4c0-.5523-.4477-1-1-1" opacity=".25"/>
    <path fill="#505764" d="M16 3.5a.25.25 0 1 1 .5 0 .25.25 0 0 1-.5 0"/>
  </g>
</svg>
