<svg width="16" height="16" fill="currentColor" viewBox="0 0 16 16" xmlns="http://www.w3.org/2000/svg">
  <g fill="none">
    <path fill="#D92C33" d="M8 15.5C3.8579 15.5.5 12.1421.5 8S3.8579.5 8 .5s7.5 3.3579 7.5 7.5-3.3579 7.5-7.5 7.5"/>
    <path fill="#FFF" d="M8 0c4.4183 0 8 3.5817 8 8 0 4.4182-3.5818 8-8 8s-8-3.5817-8-8 3.5817-8 8-8m0 1C4.134 1 1 4.134 1 8s3.134 7 7 7 7-3.134 7-7-3.134-7-7-7m0 2.25a.75.75 0 0 1 .75.75v3.4648a.25.25 0 0 0 .1113.208L11.416 9.376a.75.75 0 0 1-.832 1.248L8.0293 8.921A1.75 1.75 0 0 1 7.25 7.465V4A.75.75 0 0 1 8 3.25"/>
  </g>
</svg>
