<svg width="32" height="32" fill="currentColor" viewBox="0 0 32 32" xmlns="http://www.w3.org/2000/svg">
  <g fill="none" fill-rule="evenodd">
    <rect width="26" height="26" x="3" y="3" fill="#EEF4FD" fill-rule="nonzero" rx="13"/>
    <path fill="#488CD3" fill-rule="nonzero" d="M21.3937 10.7685c0 .7314-.0321 1.4356-.0943 2.1083.169.3536.2402.7644.1789 1.1903l-.0096.0671c-.0962.6683-.3468 1.2772-.7104 1.7893-.3624 1.3036-.8692 2.3994-1.4935 3.2354l.1818 1.3474C19.799 20.5639 20 21 20 21l.5473 1.6419c.4884.1949 1.0638.4223 1.3792.539l3.827 1.4161c-2.3821 2.7-5.868 4.403-9.7517 4.403S8.6321 27.2969 6.25 24.5969l3.8265-1.416c.3214-.1189.9076-.3513 1.3987-.548L12.0195 21s.1934-.4195.5333-.49l.1844-1.3532c-.6233-.835-1.1301-1.9288-1.4929-3.2297-.365-.5128-.6166-1.123-.713-1.7929l-.0096-.0671c-.0613-.4259.0099-.8367.1789-1.1903-.0624-.6728-.0947-1.3769-.0947-2.1083C10.6059 5.975 15.9998 6 15.9998 6s5.3939-.025 5.3939 4.7685"/>
    <path fill="#3E7EC5" fill-rule="nonzero" d="M12.7377 19.1567c.8809 1.1801 1.9944 1.8432 3.2626 1.8432 1.2711 0 2.3847-.6623 3.265-1.8411l.0304.2254c-.8434 1.806-1.9762 3.1157-3.2955 3.1157-1.3161 0-2.449-1.311-3.2932-3.1181z"/>
    <path fill="#1A60B3" fill-opacity=".05" d="M4 16c0 6.6274 5.3726 12 12 12s12-5.3726 12-12S22.6274 4 16 4 4 9.3726 4 16M16 3C8.8203 3 3 8.8203 3 16s5.8203 13 13 13 13-5.8203 13-13S23.1797 3 16 3"/>
    <path fill="#255BA2" fill-opacity=".25" fill-rule="nonzero" d="M3.0148 15.375A13 13 0 0 0 3 15.9999c0 7.1797 5.8203 13 13 13s13-5.8203 13-13q0-.3142-.0148-.6249c-.326 6.8895-6.015 12.3751-12.9852 12.3751S3.3408 22.2645 3.0148 15.375"/>
  </g>
</svg>
