<svg width="32" height="32" fill="currentColor" viewBox="0 0 32 32" xmlns="http://www.w3.org/2000/svg">
  <g fill="none" fill-rule="evenodd">
    <path fill="#EEF4FD" fill-rule="nonzero" d="M6 30h20c.5523 0 1-.4477 1-1V11.3255a3.2 3.2 0 0 0-.9373-2.2628l-6.1254-6.1254A3.2 3.2 0 0 0 17.6745 2H6c-.5523 0-1 .4477-1 1v26c0 .5523.4477 1 1 1"/>
    <path fill="#4875B3" fill-opacity=".08" d="M17.6745 2a3.2 3.2 0 0 1 2.2628.9373l6.1254 6.1254A3.2 3.2 0 0 1 27 11.3255V29c0 .5523-.4477 1-1 1H6c-.5523 0-1-.4477-1-1V3c0-.5523.4477-1 1-1zm0 1H6v26h20V11.3255a2.2 2.2 0 0 0-.6444-1.5556l-6.1254-6.1255A2.2 2.2 0 0 0 17.6745 3"/>
    <path fill="#BBD1F0" fill-rule="nonzero" d="M5 28v1c0 .5523.4477 1 1 1h20c.5523 0 1-.4477 1-1v-1c0 .5523-.4477 1-1 1H6c-.5523 0-1-.4477-1-1"/>
    <path fill="#B9CFEE" fill-rule="nonzero" d="M19.5696 3.35v4.5064c0 .868.7036 1.5717 1.5716 1.5717H25.5c.9505 0 1.3181.675 1.5 1.5719-.1035-.6511-.3278-1.2923-.8-1.7643L20 2.8804c-.4708-.4705-1.3511-.7764-2-.8804.8957.1828 1.5696.4002 1.5696 1.35"/>
    <path fill="#0A4187" d="M8.5 13c0-.8284.6716-1.5 1.5-1.5.5552 0 1.04.3016 1.2993.75h9.4014c.2593-.4484.7441-.75 1.2993-.75.8284 0 1.5.6716 1.5 1.5s-.6716 1.5-1.5 1.5c-.5552 0-1.04-.3016-1.2993-.75h-.8277c1.1533 1.0516 1.877 2.5663 1.877 4.25v3a.75.75 0 0 1-1.5 0v-3c0-2.3472-1.9028-4.25-4.25-4.25s-4.25 1.9028-4.25 4.25v3a.75.75 0 0 1-1.5 0v-3c0-1.6837.7237-3.1984 1.877-4.25h-.8277c-.2593.4484-.7441.75-1.2993.75-.8284 0-1.5-.6716-1.5-1.5"/>
    <path fill="#488CD3" d="M11.5 19c.5523 0 1 .4477 1 1v1c0 .5523-.4477 1-1 1h-1c-.5523 0-1-.4477-1-1v-1c0-.5523.4477-1 1-1zm10 0c.5523 0 1 .4477 1 1v1c0 .5523-.4477 1-1 1h-1c-.5523 0-1-.4477-1-1v-1c0-.5523.4477-1 1-1Zm-5-7.5c.5523 0 1 .4477 1 1v1c0 .5523-.4477 1-1 1h-1c-.5523 0-1-.4477-1-1v-1c0-.5523.4477-1 1-1z"/>
  </g>
</svg>
