<svg width="32" height="32" fill="currentColor" viewBox="0 0 32 32" xmlns="http://www.w3.org/2000/svg">
  <g fill="none" fill-rule="evenodd">
    <path fill="#EEF4FD" fill-rule="nonzero" d="M6 30h20c.5523 0 1-.4477 1-1V11.3255a3.2 3.2 0 0 0-.9373-2.2628l-6.1254-6.1254A3.2 3.2 0 0 0 17.6745 2H6c-.5523 0-1 .4477-1 1v26c0 .5523.4477 1 1 1"/>
    <path fill="#4875B3" fill-opacity=".08" d="M17.6745 2a3.2 3.2 0 0 1 2.2628.9373l6.1254 6.1254A3.2 3.2 0 0 1 27 11.3255V29c0 .5523-.4477 1-1 1H6c-.5523 0-1-.4477-1-1V3c0-.5523.4477-1 1-1zm0 1H6v26h20V11.3255a2.2 2.2 0 0 0-.6444-1.5556l-6.1254-6.1255A2.2 2.2 0 0 0 17.6745 3"/>
    <path fill="#BBD1F0" fill-rule="nonzero" d="M5 28v1c0 .5523.4477 1 1 1h20c.5523 0 1-.4477 1-1v-1c0 .5523-.4477 1-1 1H6c-.5523 0-1-.4477-1-1"/>
    <path fill="#B9CFEE" fill-rule="nonzero" d="M19.5696 3.35v4.5064c0 .868.7036 1.5717 1.5716 1.5717H25.5c.9505 0 1.3181.675 1.5 1.5719-.1035-.6511-.3278-1.2923-.8-1.7643L20 2.8804c-.4708-.4705-1.3511-.7764-2-.8804.8957.1828 1.5696.4002 1.5696 1.35"/>
    <path fill="#2D3138" d="M16 10c.3099 0 .6142.0235.9114.0688C19.7926 10.5079 22 12.9961 22 16s-2.2074 5.4921-5.0886 5.9312l-.0723.0106A6.05 6.05 0 0 1 16 22l-.0443-.0002-.0443.0002A6.05 6.05 0 0 1 15 21.9312l.0119-.0122a6 6 0 0 1-.0834-.0144C12.126 21.3994 10 18.948 10 16s2.126-5.3994 4.9285-5.9046l.0094-.0017a6 6 0 0 1 .074-.0127L15 10.0688A6.05 6.05 0 0 1 15.9114 10zm1.3788 6.75h-2.8462a8.45 8.45 0 0 0 1.2518 3.7449q.1071.0051.2156.0051l.1249-.0017a8.45 8.45 0 0 0 1.2539-3.7483m3.059 0h-1.5541a9.94 9.94 0 0 1-.7997 3.2394c1.2243-.6409 2.1171-1.8289 2.3538-3.2394m-7.4101 0h-1.4655c.2291 1.3657 1.0734 2.5228 2.2382 3.1767a9.94 9.94 0 0 1-.7727-3.1767m5.0563-4.7394a9.94 9.94 0 0 1 .7997 3.2394h1.5541c-.2367-1.4105-1.1295-2.5985-2.3538-3.2394M16 11.5q-.1085 0-.2156.0051a8.45 8.45 0 0 0-1.2518 3.7449h2.8462a8.45 8.45 0 0 0-1.2539-3.7483A5 5 0 0 0 16 11.5m-2.1996.5733c-1.1648.6539-2.0091 1.811-2.2382 3.1767h1.4655a9.94 9.94 0 0 1 .7727-3.1767"/>
  </g>
</svg>
