<svg xmlns="http://www.w3.org/2000/svg" fill="none" viewBox="0 0 24 24"><g fill="#1763cf"><path d="M15.109 1.01a.598.598 0 0 1 .483.473l.072.325c.8 3.328 3.479 5.926 6.851 6.608l.103.029A.599.599 0 0 1 23 9.004a.599.599 0 0 1-.485.589l-.001-.001c-3.481.701-6.226 3.443-6.929 6.922l.001.001A.599.599 0 0 1 14.997 17a.598.598 0 0 1-.588-.485c-.701-3.481-3.442-6.226-6.922-6.93a.597.597 0 0 1-.476-.483L7 8.997l.01-.105a.598.598 0 0 1 .374-.454l.103-.029c3.483-.701 6.229-3.444 6.93-6.926A.599.599 0 0 1 15.004 1zM6.002 13a.408.408 0 0 1 .378.257l.02.067v.002c.431 2.147 2.12 3.84 4.264 4.275.003.001.007 0 .009.001.186.039.326.203.326.398 0 .195-.14.359-.325.398-2.15.433-3.846 2.126-4.278 4.275-.038.186-.203.326-.398.327-.195 0-.359-.14-.397-.325l-.001-.001c-.431-2.15-2.124-3.845-4.273-4.278-.186-.038-.326-.203-.326-.398 0-.195.14-.359.326-.397l.002-.001c2.15-.432 3.844-2.125 4.277-4.273l.001-.001A.407.407 0 0 1 6.002 13"/></g></svg>