<svg xmlns="http://www.w3.org/2000/svg" fill="none" viewBox="0 0 24 24"><path fill="#1763cf" d="M6.52 1c-1.93 0-3.5 1.57-3.5 3.5v4.335C3.745 8.015 4.805 7.5 5.98 7.5h13.5005C20.3205 7.5 21 6.8205 21 5.9805V3.5C21 2.12 19.88 1 18.5 1zM21 7.9854c-.42.32-.9495.5146-1.5195.5146H5.98c-1.295 0-2.3999.84-2.7949 2h5.085c1.515 0 2.75 1.235 2.75 2.75v2.25h8.475c.83 0 1.5049-.6749 1.5049-1.5049zM2.77 11.5c-.9664 0-1.75.7835-1.75 1.75v5.5c0 .9665.7836 1.75 1.75 1.75h5.5c.9666 0 1.7501-.7835 1.7501-1.75v-5.5c0-.9665-.7835-1.75-1.75-1.75zm5.4493 2.25-.9688 4.499-1.1582.001-.5722-2.6992-.5987 2.7002h-1.169l-.9316-4.5h.9551l.5742 2.9697.5713-2.9697h1.171l.5976 2.9697.5605-2.9697zM21 15.9902c-.42.32-.9399.5098-1.5049.5098h-8.475v2.25c0 1.515-1.235 2.75-2.75 2.75H3.6499c.635.905 1.6852 1.5 2.8702 1.5H18.5c1.38 0 2.5-1.12 2.5-2.5z"/></svg>