<svg xmlns="http://www.w3.org/2000/svg" fill="none" viewBox="0 0 24 24"><g fill="#1763cf"><path d="M.9726 20.648 7.0376 2.68A1 1 0 0 1 7.9853 2l.0753.0002a.999.999 0 0 1 .946.679l2.5102 7.4363-1.6304 4.83h3.3368l1.9283 5.7126a.998.998 0 0 1-.1349.9015.998.998 0 0 1-.7876.4159h-.2321a1.004 1.004 0 0 1-.6854-.27l-4.34-4.05-1.2252 3.6296a1 1 0 0 1-.9472.6801H1.9186a.998.998 0 0 1-.811-.416.998.998 0 0 1-.135-.9012"/><path d="m16.962 2.7137 6.0653 17.9686a.999.999 0 0 1-.1348.9014 1 1 0 0 1-.811.4163h-6.9892a.9983.9983 0 0 0 .946-1.3177L9.973 2.7137a.998.998 0 0 0-.946-.6791h6.9889a.999.999 0 0 1 .9461.679"/></g></svg>