<svg xmlns="http://www.w3.org/2000/svg" fill="none" viewBox="0 0 24 24"><path fill="#1763cf" d="M10.8.96c-3.8448 0-6.9694 3.1248-6.9694 6.96 0 .936.1872 1.8334.5231 2.6494A2.8 2.8 0 0 1 4.56 10.56h5.28c.408 0 .7964.0916 1.1372.2644.96-2.6928 3.5188-4.5844 6.5428-4.5844h.0431C16.8047 3.2112 14.064.96 10.8.96m6.72 6.24c-2.6976 0-4.9725 1.7764-5.7309 4.2244.3792.4128.6288.9499.6768 1.5403 2.9376.12 5.2941 2.5489 5.2941 5.5153 0 .2448-.0142.4801-.0478.7153 3.2256-.1008 5.8078-2.7457 5.8078-5.9953 0-3.312-2.688-6-6-6M4.56 11.52c-.9278 0-1.68.7522-1.68 1.68v5.28c0 .9279.7522 1.68 1.68 1.68h5.28c.9278 0 1.68-.7521 1.68-1.68V13.2c0-.9278-.7522-1.68-1.68-1.68zm2.8284 1.7747c.3648 0 .6854.0743.9629.2231s.4982.3624.6609.6394l-.915.4706q-.1521-.2334-.3272-.3365c-.1176-.0711-.264-.106-.4406-.106-.2112 0-.3715.0452-.4819.1369-.108.0917-.1612.2108-.1612.3572q-.0001.1887.1546.3328c.1056.0936.316.1711.6328.2306.5324.1008.9296.2835 1.1907.5494.2635.2635.3947.5971.3947 1.0003 0 .4901-.1563.8783-.4707 1.1644-.3139.2861-.763.4294-1.3453.4294-.4219 0-.8025-.0923-1.1418-.2757q-.5054-.2778-.7604-.7762l.9357-.4866c.1056.2127.2425.3689.4125.4697.1718.1008.3603.1519.5643.1519q.3407-.0001.5194-.1378c.1195-.0941.179-.2342.179-.4219q-.0002-.2198-.1724-.3712c-.1147-.1032-.3171-.1807-.6085-.2335-.5548-.1013-.9592-.2777-1.2112-.5297q-.375-.3781-.375-.9412-.0001-.7006.496-1.1203.4954-.4191 1.3077-.4191m5.0916.63V18.48c0 1.4544-1.1856 2.64-2.64 2.64H8.52c.8256 1.1616 2.184 1.92 3.72 1.92 2.52 0 4.56-2.04 4.56-4.56 0-2.4384-1.9104-4.4305-4.32-4.5553"/></svg>