<svg xmlns="http://www.w3.org/2000/svg" fill="none" viewBox="0 0 24 24"><path fill="#1763cf" d="M9.7735 15.4106c-1.2756-.7727-2.0711-2.1809-2.0711-3.6759v-7.114c0-.7452.1783-1.4584.5075-2.0893L4.0174 5.0688c-1.2802.7727-2.0757 2.1808-2.0757 3.6758v6.4694c0 .7269.192 1.4356.5304 2.0573.3154.5121.7635.9419 1.3167 1.2528 1.1567.6492 2.5191.6217 3.6484-.0686l3.6667-2.2403zM20.1564 12.96l-3.8588-2.3088v1.0469c0 1.4859-.7863 2.8941-2.0528 3.6667l-6.3275 3.8725c-.695.4252-1.4585.6492-2.2266.6675l4.0828 2.4734A4.29 4.29 0 0 0 12 23a4.29 4.29 0 0 0 2.2265-.6218l5.7607-3.4884a3.1 3.1 0 0 0 .3566-.2469c.0366-.0228.0732-.0503.1052-.0731.2972-.2423.5623-.5167.7818-.8184l.0274-.0411c.3521-.5441.5486-1.1842.5441-1.8563-.0046-1.1978-.6172-2.2814-1.6459-2.894m-.1738-7.8912L14.2265 1.585c-.192-.1189-.3931-.215-.5989-.2972a3.44 3.44 0 0 0-.6903-.2149c-.8413-.1737-1.7191-.0366-2.4963.407-1.143.6537-1.8242 1.8241-1.8242 3.1409v4.389l1.2801-.7544a4.119 4.119 0 0 1 4.2016.0138l6.5288 3.9044c.5898.3566 1.0744.8275 1.4264 1.3807l.0046-4.8096c0-1.495-.7955-2.9032-2.0757-3.6759"/></svg>