<svg xmlns="http://www.w3.org/2000/svg" fill="none" viewBox="0 0 24 24"><path fill="currentColor" d="M6.503 12a1.3666 1.3666 0 0 1 1.2286.7715l.041.0937.0166.041.0117.042.0186.0606.041.1387v.0302c.3339 1.4975 1.5253 2.6731 3.0312 2.9815l.0156.0029.003.001c.619.1284 1.0898.6757 1.0898 1.3379-.0007.6633-.4729 1.2089-1.0898 1.3369l-.0059.001c-1.5413.3102-2.7583 1.5261-3.0683 3.0644l-.001.0049c-.1276.6187-.6742 1.091-1.337 1.0918-.5249-.0003-.9764-.2966-1.205-.7266l-.0752-.0752-.0596-.2949c-.3089-1.5403-1.524-2.7573-3.0625-3.0674l-.0049-.0009c-.6176-.1274-1.0918-.673-1.0918-1.3379l.0059-.1231c.0488-.544.416-.9909.9092-1.164l.0517-.0254.1309-.0264c1.5402-.3092 2.7565-1.5239 3.0664-3.0625l.0596-.2959.0752-.0771c.2297-.4296.6812-.7224 1.2031-.7227h.002Zm-.0029 3.1807a5.9416 5.9416 0 0 1-2.3193 2.3173 5.9446 5.9446 0 0 1 2.3174 2.3194A5.9502 5.9502 0 0 1 8.8165 17.5a5.9433 5.9433 0 0 1-2.3164-2.3193Zm4.1016 2.956c.0049.0005.0095.0006.0137.001-.0064-.0005-.0147-.0019-.0245-.0029.0039.0004.0076.0016.0108.0019ZM14.8116 1l.0479.0049.0947.0088.0401.0039.04.0068c.6115.109 1.1146.5809 1.2412 1.2168l.0615.2744c.6392 2.6264 2.7588 4.676 5.4219 5.2149l.0381.0078.0371.0107.0928.0264.0439.0127.043.0166c.5896.2274.9862.796.9863 1.4385-.0004.7351-.5206 1.3737-1.25 1.5146l-.0166.0029c-2.7421.5621-4.9055 2.7262-5.4629 5.4678l.001.001c-.1407.7312-.7799 1.2494-1.5137 1.25-.7324-.0002-1.3689-.516-1.5127-1.2422l-.0009.001c-.5551-2.7561-2.7281-4.9318-5.4825-5.4893A1.5406 1.5406 0 0 1 6.545 9.5059l-.0068-.0381-.0039-.04-.0098-.0948-.0088-.0957.0088-.0957.0098-.0947.004-.04.0067-.0391a1.5406 1.5406 0 0 1 .964-1.17l.0419-.0165.043-.0118.0928-.0263.038-.0108.0381-.0078c2.757-.5551 4.9327-2.729 5.4883-5.4834A1.542 1.542 0 0 1 14.7638 1h.0478Zm-4.0312 15.1445h-.002c-.0013-.0001-.0027-.0009-.0039-.0009.0017.0001.0037.0008.0059.0009Zm3.9824-11.9931C13.8464 6.474 11.9941 8.323 9.67 9.2373c2.3223.9165 4.172 2.7677 5.087 5.0908.9162-2.3217 2.7679-4.1712 5.0908-5.086-2.3217-.9168-4.1707-2.7678-5.085-5.0907Z"/></svg>