<svg xmlns="http://www.w3.org/2000/svg" fill="none" viewBox="0 0 24 24"><path fill="currentColor" d="M6.1621 12.6807a.4206.4206 0 0 1 .3906.2656l.0205.0693v.002c.4447 2.2162 2.188 3.9625 4.4014 4.4121.0031.0004.0067.0003.0098.001.1918.0397.3359.2095.3359.4111-.0002.2014-.1442.3705-.3359.4102-2.2196.4467-3.9693 2.1944-4.416 4.4121-.0395.1919-.2096.3366-.4112.3369-.2016-.0002-.3706-.144-.4101-.336l-.001-.0009c-.4451-2.2194-2.1926-3.9683-4.4102-4.4151-.192-.0395-.3369-.2094-.3369-.4111.0002-.2016.144-.3706.336-.4102l.002-.0009c2.219-.4455 3.9674-2.1927 4.414-4.4102l.001-.001a.4195.4195 0 0 1 .4101-.3349ZM15.3652 1.0098a.5786.5786 0 0 1 .4668.457l.0694.3144c.7743 3.2204 3.366 5.7334 6.6289 6.3936l.0996.0283a.5794.5794 0 0 1 .3701.541.5795.5795 0 0 1-.4697.5694l-.001-.001c-3.3682.6783-6.0243 3.331-6.7041 6.6973l.001.0009a.5793.5793 0 0 1-.5694.4698.579.579 0 0 1-.5693-.4698c-.6783-3.368-3.3307-6.0237-6.6973-6.705a.5776.5776 0 0 1-.4609-.4668l-.0098-.1016.0098-.1016a.5785.5785 0 0 1 .3613-.4394l.0996-.0283c3.3698-.6785 6.0267-3.3327 6.7051-6.7012A.579.579 0 0 1 15.2637 1l.1015.0098Z"/></svg>