<svg xmlns="http://www.w3.org/2000/svg" fill="none" viewBox="0 0 16 16"><path fill="currentColor" d="M4.2816 8.4393a.3376.3376 0 0 1 .3137.2128l.0162.0564c.27 1.3457 1.3287 2.4072 2.6723 2.6808.0027.0005.006.0003.0086.0009a.337.337 0 0 1 0 .6597h-.0017c-1.3482.2714-2.4104 1.3332-2.6817 2.68v.0018a.337.337 0 0 1-.6597 0v-.0018c-.2704-1.348-1.3323-2.4103-2.6793-2.6817a.3389.3389 0 0 1-.2649-.2709L1 11.7183l.0051-.0598a.3377.3377 0 0 1 .2641-.27c1.348-.2705 2.4113-1.3322 2.6826-2.6792l.0008-.0008a.3367.3367 0 0 1 .329-.2692ZM10.1553 1.0077a.461.461 0 0 1 .3717.364c.4141 2.0619 2.0374 3.6874 4.0978 4.1047l.0795.0222a.4624.4624 0 0 1-.0795.8854l-.0008-.0009c-2.06.4153-3.685 2.0382-4.1012 4.0969l.0008.0009a.462.462 0 0 1-.9076 0c-.4153-2.06-2.0377-3.685-4.0969-4.102a.4603.4603 0 0 1-.3675-.3718l-.0077-.0812.0077-.0812a.461.461 0 0 1 .364-.3717l.1924-.0428c1.9715-.4739 3.511-2.061 3.9132-4.0584A.4616.4616 0 0 1 10.074 1l.0812.0077Z"/></svg>