<svg xmlns="http://www.w3.org/2000/svg" fill="none" viewBox="0 0 72 72"><path fill="currentColor" d="M21.2877 37.7564c.2981.0534.5449.2606.6544.5378l.0419.144.0019.0019c1.1507 5.7376 5.6171 10.2734 11.3134 11.5285l.2625.0546c.3979.082.6943.4342.6945.8514-.0003.417-.2967.7674-.6945.8495l-.0019.0018c-5.825 1.1723-10.4145 5.7574-11.5868 11.5777-.082.3982-.4339.6963-.8513.6964-.4175 0-.7694-.2964-.8513-.6946-1.1684-5.8247-5.7538-10.4164-11.5741-11.5886-.3982-.082-.6964-.4339-.6964-.8513.0002-.4173.2965-.7694.6945-.8514 5.8248-1.1682 10.4165-5.7535 11.5887-11.574.0822-.398.434-.6964.8513-.6964l.1532.0127ZM44.5142 8.02c.4831.0856.8729.4577.9717.9553h.0036c1.7713 8.8198 8.7134 15.769 17.5279 17.5516A1.21 1.21 0 0 1 64 27.7155c0 .5795-.4082 1.08-.9808 1.1904l-.0018-.0018C54.2007 30.6777 47.2491 37.62 45.4713 46.432l.0018.0018a1.2077 1.2077 0 0 1-1.1886.9808 1.2083 1.2083 0 0 1-1.1886-.9771c-1.772-8.8221-8.7172-15.7698-17.5352-17.5498v-.0037a1.2042 1.2042 0 0 1-.9552-.9716l-.0201-.2133.0201-.2133a1.2081 1.2081 0 0 1 .7547-.917l.2078-.0583c8.8194-1.774 15.7708-8.7195 17.5462-17.5352A1.2085 1.2085 0 0 1 44.3009 8l.2133.02Z"/></svg>