<svg xmlns="http://www.w3.org/2000/svg" fill="none" viewBox="0 0 16 16"><path fill="currentColor" d="M6 0c.5523 0 1 .4477 1 1s-.4477 1-1 1H4c-.5523 0-1 .4477-1 1v5h2c.5523 0 1 .4477 1 1s-.4477 1-1 1H3v1h5c.5523 0 1 .4477 1 1s-.4477 1-1 1H3l.0049.1025C3.0562 13.6067 3.4823 14 4 14h8l.1025-.0049A1.0003 1.0003 0 0 0 13 13V9c0-.5523.4477-1 1-1s1 .4477 1 1v4c0 1.6569-1.3431 3-3 3H4c-1.6568 0-3-1.3431-3-3V3c0-1.6568 1.3432-3 3-3h2Z"/><path fill="currentColor" d="M8.2842 4.7637a.1315.1315 0 0 1 .0986.081l.0069.0215c.1733.8644.8459 1.5482 1.7041 1.7373l.04.0078a.1322.1322 0 0 1 .1045.129.1315.1315 0 0 1-.1045.1279c-.8774.1767-1.5694.8674-1.7461 1.7441a.1326.1326 0 0 1-.129.1055.1316.1316 0 0 1-.1278-.1045c-.176-.8776-.8673-1.5695-1.7442-1.7461a.1321.1321 0 0 1-.1045-.129.1313.1313 0 0 1 .1045-.1278c.8776-.176 1.5695-.8672 1.7461-1.7442a.1315.1315 0 0 1 .128-.1045l.0234.002ZM11.7832.2832a.1827.1827 0 0 1 .1475.1436c.2668 1.3287 1.3126 2.3759 2.6406 2.6445a.1832.1832 0 0 1 .1484.1797.1824.1824 0 0 1-.1484.1787c-1.3283.2672-2.3757 1.314-2.6436 2.6416a.1819.1819 0 0 1-.3574 0c-.267-1.3292-1.314-2.3764-2.6426-2.6445a.1815.1815 0 0 1-.1435-.1465l-.003-.0322.003-.0323a.182.182 0 0 1 .1133-.1377l.0312-.0088c1.3288-.2673 2.3761-1.3143 2.6436-2.6425a.183.183 0 0 1 .1797-.1465l.0312.0029Z"/></svg>