<svg xmlns="http://www.w3.org/2000/svg" fill="none" viewBox="0 0 32 32"><path fill="currentColor" d="M8.6704 16.3336a1.4889 1.4889 0 0 1 1.3828.9414l.0166.041.0127.043.0235.0801.041.1387v.038c.4647 2.1356 2.1588 3.8144 4.3017 4.2559l.0274.0049.0029.001c.6749.1398 1.1875.7361 1.1875 1.457-.0008.7219-.5148 1.3167-1.1875 1.456l-.0059.001c-2.1865.4402-3.9118 2.1646-4.3515 4.3477l-.0322.1289c-.1827.6122-.7487 1.0646-1.4248 1.0654h-.002c-.5898-.0004-1.095-.3436-1.336-.8369l-.0624-.0625-.0596-.2959c-.4383-2.1855-2.1615-3.9097-4.3447-4.3496l-.129-.0322c-.6117-.1824-1.0654-.7484-1.0654-1.4268l.0059-.1338c.0537-.6002.4642-1.0922 1.0127-1.2754l.0459-.0224.1318-.0264c2.185-.4387 3.9088-2.1618 4.3486-4.3447l.0596-.2959.0635-.0655a1.4867 1.4867 0 0 1 1.335-.832h.002Zm-.003 3.1612c-.76 1.7055-2.132 3.0772-3.8388 3.8359a7.5855 7.5855 0 0 1 3.835 3.8379c.7602-1.7046 2.1333-3.0755 3.8388-3.835-1.7051-.7602-3.0765-2.1322-3.835-3.8388Zm5.5264 4.3583c.0042.0004.0078-.0001.0098 0a.4368.4368 0 0 1-.0137-.0009l-.0107-.001c.0059.0006.0109.0017.0146.0019Zm5.5391-22.1865.0479.005.1269.0116.0401.004.039.0068c.6773.1206 1.2351.6395 1.3828 1.3398l.083.373.0879.339c.971 3.4762 3.8337 6.166 7.4053 6.8886l.0381.0078.0371.0108.124.0351.044.0127.0429.0166a1.7227 1.7227 0 0 1 1.1016 1.6074l-.0068.1533a1.7226 1.7226 0 0 1-1.3897 1.5381l-.0166.003c-3.7789.7707-6.7626 3.7435-7.5449 7.5156l-.0068.041c-.1571.8169-.8712 1.3968-1.6915 1.3975-.8191-.0002-1.5304-.5776-1.6904-1.3897l-.001.001c-.7665-3.8062-3.7662-6.8092-7.5703-7.5791a1.7214 1.7214 0 0 1-1.3613-1.3887l-.0068-.039-.004-.0391-.0117-.127-.0097-.0957.0097-.0957.0118-.1269.0039-.0391.0068-.039a1.7228 1.7228 0 0 1 1.0771-1.3077l.042-.0156.043-.0127.124-.0351.0381-.0108.0381-.0078c3.6893-.7428 6.6243-3.583 7.501-7.2197l.0781-.3545a1.7224 1.7224 0 0 1 1.6895-1.3848h.0478Zm-.0488 2.8516c-1.13 3.7306-4.0734 6.6701-7.8057 7.7978 3.7297 1.1312 6.6685 4.0736 7.7969 7.8047 1.1301-3.7298 4.074-6.6699 7.8057-7.7978-3.7301-1.1315-6.6694-4.073-7.7969-7.8047Z"/></svg>