<svg xmlns="http://www.w3.org/2000/svg" fill="none" viewBox="0 0 24 24"><path fill="currentColor" d="M18.8493 14.7486c.2916.4676.1476 1.0823-.3215 1.3729-1.4962.9269-2.6904.48-3.6028-.7547-.644 1.7095-1.825 1.8296-2.852.4907-.6761.8107-1.3194 1.2001-2.0472 1.1356-.6725-.0595-1.2318-.4923-1.7584-1.3676-.5335.4783-1.131.8961-1.7925 1.2519-.486.2615-1.0926.0807-1.355-.4038-.2622-.4845-.0809-1.0892.4052-1.3507.7154-.3849 1.3356-.8608 1.861-1.4313-.3047-.8279-.614-1.8241-.9447-3.003-.6116-2.1806.264-4.4411 1.8225-5.3266 2.0421-1.1602 3.5559.585 3.1871 3.5702-.2463 1.994-.8375 3.6897-1.7706 5.0704.0328.0709.0653.1389.0974.2039.1603.3243.3066.5615.4301.7116.0261-.0252.0609-.0576.1033-.0993.2763-.2718.6174-.7289 1.0078-1.3634.4288-.6967 1.4701-.6113 1.7788.1458.0505.1239.0998.2398.1477.3477a4.6086 4.6086 0 0 0 .008-.0425c.0856-.4631.1705-.7919.2775-1.0394.218-.504.5852-.8683 1.23-.7919.4594.0545.695.2809.9335.6443.1185.1805.5233.9629.6071 1.1066.4583.7862.6787.9069 1.1706.6021.469-.2906 1.0856-.1471 1.3771.3205ZM9.466 8.6885c.117-.9473.0218-1.5162-.1275-1.6883.0156.018.0458.02-.0843.094-.7456.4235-1.2559 1.7411-.8867 3.0576.1357.4839.2676.9318.3956 1.3447.3393-.8246.5733-1.7593.7029-2.808ZM21.5858 12l-.4142-.4142A4 4 0 0 1 20 8.7574V6c0-1.1046-.8954-2-2-2-.5523 0-1-.4477-1-1s.4477-1 1-1c2.2091 0 4 1.7909 4 4v2.7574a2 2 0 0 0 .5858 1.4142l1.1213 1.1213c.3905.3905.3905 1.0237 0 1.4142l-1.1213 1.1213A2 2 0 0 0 22 15.2426V18c0 2.2091-1.7909 4-4 4-.5523 0-1-.4477-1-1s.4477-1 1-1c1.1046 0 2-.8954 2-2v-2.7574a4 4 0 0 1 1.1716-2.8284L21.5858 12Zm-18.7574-.4142L2.4142 12l.4142.4142A4.0002 4.0002 0 0 1 4 15.2426V18c0 1.1046.8954 2 2 2 .5523 0 1 .4477 1 1s-.4477 1-1 1c-2.2091 0-4-1.7909-4-4v-2.7574a2 2 0 0 0-.5858-1.4142L.293 12.7071c-.3905-.3905-.3905-1.0237 0-1.4142l1.1213-1.1213A2 2 0 0 0 2 8.7574V6c0-2.2091 1.7909-4 4-4 .5523 0 1 .4477 1 1s-.4477 1-1 1c-1.1046 0-2 .8954-2 2v2.7574a4.0001 4.0001 0 0 1-1.1716 2.8284Z"/></svg>