<svg xmlns="http://www.w3.org/2000/svg" fill="none" viewBox="0 0 24 24"><path fill="currentColor" d="M15.2929 2.2929A1 1 0 0 1 16 2h5c.5523 0 1 .4477 1 1v7c0 .5523-.4477 1-1 1H3c-.5523 0-1-.4477-1-1V3c0-.5523.4477-1 1-1h5.0043a1 1 0 0 1 .7086.2944L9.4155 3h5.1703l.7071-.7071ZM4 9h16V4h-3.5858l-.7071.7071A1 1 0 0 1 15 5H9a1 1 0 0 1-.7086-.2944L7.5888 4H4v5Zm5-2c0-.5523.451-1 .9908-1h4.0184C14.5564 6 15 6.4439 15 7c0 .5523-.451 1-.9908 1H9.9908C9.4436 8 9 7.5561 9 7Zm6.2929 6.2929A1.0001 1.0001 0 0 1 16 13h5c.5523 0 1 .4477 1 1v7c0 .5523-.4477 1-1 1H3c-.5523 0-1-.4477-1-1v-7c0-.5523.4477-1 1-1h5.0043c.266 0 .521.1059.7086.2944L9.4155 14h5.1703l.7071-.7071ZM4 20h16v-5h-3.5858l-.7071.7071A1.0001 1.0001 0 0 1 15 16H9a.9998.9998 0 0 1-.7086-.2944L7.5888 15H4v5Zm5-2c0-.5523.451-1 .9908-1h4.0184c.5472 0 .9908.4439.9908 1 0 .5523-.451 1-.9908 1H9.9908C9.4436 19 9 18.5561 9 18Z"/></svg>