<svg xmlns="http://www.w3.org/2000/svg" fill="none" viewBox="0 0 24 24"><path fill="currentColor" d="M11.293 6.293c.3905-.3906 1.0235-.3906 1.414 0l5 5a.9996.9996 0 0 1 0 1.414l-5 5a.9996.9996 0 0 1-1.414 0 .9996.9996 0 0 1 0-1.414L14.5859 13H7c-.5523 0-1-.4477-1-1s.4477-1 1-1h7.5859L11.293 7.707a.9997.9997 0 0 1 0-1.414Z"/><path fill="currentColor" fill-rule="evenodd" d="M12 0c6.6274 0 12 5.3726 12 12s-5.3726 12-12 12S0 18.6274 0 12 5.3726 0 12 0Zm0 2C6.4771 2 2 6.4771 2 12c0 5.5228 4.4771 10 10 10 5.5228 0 10-4.4772 10-10 0-5.5229-4.4772-10-10-10Z" clip-rule="evenodd"/></svg>