<svg xmlns="http://www.w3.org/2000/svg" fill="none" viewBox="0 0 24 24"><path fill="currentColor" fill-rule="evenodd" d="M20.4854 3.1006c.3905-.3905 1.0236-.3905 1.4141 0 .3904.3905.3904 1.0235 0 1.414l-3.0518 3.0518A6.735 6.735 0 0 1 19.2999 10v2.501c0 .4114.3679.9394.7607 1.0849l.3428.127c.9159.3395 1.5967 1.3151 1.5967 2.2969v1.4892A2.4954 2.4954 0 0 1 19.4962 20h-4.4961c0 1.6569-1.3432 3-3 3s-3-1.3431-3-3H6.414l-2.8994 2.8994c-.3905.3905-1.0235.3905-1.414 0-.3906-.3906-.3906-1.0235 0-1.414L20.4854 3.1006ZM11.0001 20c0 .5523.4477 1 1 1 .5522 0 1-.4477 1-1h-2Zm-2.586-2h11.0821c.2848 0 .5039-.2198.5039-.501v-1.4892c0-.1443-.1595-.3728-.292-.4219l-.3418-.127c-1.1768-.4359-2.0664-1.7112-2.0664-2.9599V10c0-.2775-.024-.5499-.0703-.8154L8.4141 18Z" clip-rule="evenodd"/><path fill="currentColor" d="M12.0001 1c1.1045 0 2 .8955 2 2a2.036 2.036 0 0 1-.0166.2617 7.4105 7.4105 0 0 1 2.4082 1.1455l-1.4395 1.4395C14.1097 5.3124 13.0948 5 12.0001 5c-2.9377 0-5.2998 2.2498-5.2998 5v2.501c0 1.251-.8928 2.5252-2.0664 2.9599l-.3418.127c-.1295.0479-.292.282-.292.4219v.789l-1.7627 1.7627A2.483 2.483 0 0 1 2 17.499v-1.4892c0-.9756.682-1.958 1.5966-2.2969l.3428-.127c.3913-.1449.7608-.6729.7608-1.0849V10c0-3.2148 2.254-5.9108 5.3164-6.7383A2.0183 2.0183 0 0 1 10.0001 3c0-1.1046.8954-2 2-2Z"/></svg>