<svg xmlns="http://www.w3.org/2000/svg" fill="none" viewBox="0 0 24 24"><path fill="currentColor" d="M12 5c-2.9377 0-5.3 2.2498-5.3 5v2.5014c0 1.251-.8923 2.5251-2.066 2.9598l-.3424.1268c-.1294.0479-.2916.2815-.2916.4214v1.4898c0 .2725.228.5008.5037.5008h14.9926c.2848 0 .5037-.2196.5037-.5008v-1.4898c0-.1443-.1592-.3723-.2916-.4214l-.3425-.1268c-1.1767-.4359-2.0659-1.7111-2.0659-2.9598V10c0-2.7502-2.3623-5-5.3-5Zm1.9831-1.7384C17.0456 4.0889 19.3 6.785 19.3 10v2.5014c0 .4114.3678.9388.7606 1.0843l.3424.1268c.9161.3393 1.597 1.315 1.597 2.2969v1.4898A2.495 2.495 0 0 1 19.4963 20H15c0 1.6569-1.3431 3-3 3s-3-1.3431-3-3H4.5037C3.123 20 2 18.8758 2 17.4992v-1.4898c0-.9757.6822-1.9581 1.597-2.2969l.3424-.1268c.3913-.1449.7606-.6723.7606-1.0843V10c0-3.2149 2.2544-5.9111 5.3169-6.7384A2.0336 2.0336 0 0 1 10 3c0-1.1046.8954-2 2-2s2 .8954 2 2c0 .0886-.0058.176-.0169.2616ZM13 20h-2c0 .5523.4477 1 1 1s1-.4477 1-1Z"/></svg>