<svg xmlns="http://www.w3.org/2000/svg" fill="none" viewBox="0 0 32 32"><path fill="currentColor" d="M23 12c0-3.0741-3.4312-6-7-6s-7 2.9259-7 6v4.9941c0 2.0336-1.4904 3.9401-3.4563 4.4315l-.1172.0293c-.1818.0455-.4265.3596-.4265.551v1.9848C5 24.547 5.4525 25 6.008 25H25.992A1.0063 1.0063 0 0 0 27 23.9907v-1.9848c0-.1971-.2402-.5044-.4265-.551l-.1172-.0293C24.4921 20.9346 23 19.0192 23 16.9941V12Zm-7.9983-7.9403A8.4828 8.4828 0 0 1 16 4c.3325 0 .6659.0203.9983.0597A1.0728 1.0728 0 0 0 17 4c0-.5523-.4477-1-1-1s-1 .4477-1 1c0 .02.0006.04.0017.0597Zm3.9545.454C22.2498 5.656 25 8.577 25 12v4.9941c0 1.1078.8679 2.2229 1.9414 2.4913l.1172.0292C28.1308 19.7827 29 20.8866 29 22.0059v1.9848C29 25.6527 27.6569 27 25.9921 27H20c0 2.2091-1.7909 4-4 4-2.2091 0-4-1.7909-4-4H6.008C4.3466 27 3 25.6503 3 23.9907v-1.9848c0-1.1078.868-2.2229 1.9414-2.4913l.1172-.0292C6.1308 19.2173 7 18.1134 7 16.9941V12c0-3.4231 2.7502-6.344 6.0438-7.4862A3.0203 3.0203 0 0 1 13 4c0-1.6568 1.3431-3 3-3s3 1.3432 3 3c0 .1752-.015.3468-.0438.5138Zm-2.4217 22.4836A62.696 62.696 0 0 1 16 27a62.696 62.696 0 0 1-.5345-.0027c-.768-.006-1.2067.0053-1.4652.0362C14.0182 28.1226 14.9066 29 16 29s1.9818-.8774 1.9997-1.9665c-.2585-.0309-.6972-.0422-1.4652-.0362Z"/></svg>