<svg xmlns="http://www.w3.org/2000/svg" fill="none" viewBox="0 0 16 16"><path fill="currentColor" fill-rule="evenodd" d="M12.7808 5.6247c-.345.4312-.9743.5011-1.4055.1561L8 3.2806 4.6246 5.7808c-.4312.345-1.0605.2751-1.4055-.1561-.345-.4313-.2751-1.0606.1562-1.4056l4-3a1 1 0 0 1 1.2494 0l4 3c.4312.345.5011.9743.1561 1.4056Zm-9.5616 4.7506c.345-.4312.9743-.5011 1.4055-.1561L8 12.7194l3.3753-2.5002c.4313-.345 1.0606-.2751 1.4056.1561.345.4313.2751 1.0606-.1562 1.4056l-4 3a1 1 0 0 1-1.2494 0l-4-3c-.4312-.345-.5011-.9743-.1561-1.4056Z" clip-rule="evenodd"/></svg>