<svg xmlns="http://www.w3.org/2000/svg" fill="none" viewBox="0 0 16 16"><path fill="currentColor" d="M4.6247 10.2192 8 12.7194l3.3753-2.5002c.4313-.345 1.0606-.2751 1.4056.1561.345.4313.2751 1.0606-.1562 1.4056l-4 3a1 1 0 0 1-1.2494 0l-4-3c-.4312-.345-.5011-.9743-.1561-1.4056.345-.4312.9743-.5011 1.4055-.1561Zm0-4.4383c-.4312.345-1.0605.275-1.4055-.1562-.345-.4313-.2751-1.0606.1561-1.4056l4-3a1 1 0 0 1 1.2494 0l4 3c.4313.345.5012.9743.1562 1.4056-.345.4313-.9743.5012-1.4056.1562L8 3.2806 4.6247 5.781Z"/></svg>