<svg xmlns="http://www.w3.org/2000/svg" fill="none" viewBox="0 0 24 24"><path fill="currentColor" fill-rule="evenodd" d="M12 0c6.6274 0 12 5.3726 12 12s-5.3726 12-12 12S0 18.6274 0 12 5.3726 0 12 0Zm-.0048 3.3127c-3.57.0267-5.744 1.6263-6.9994 3.5435-1.2307 1.8796-1.5583 4.0268-1.5583 5.2063 0 1.1809.3282 3.2844 1.5626 5.1191 1.2594 1.8718 3.434 3.4166 6.9951 3.4432l.1027.0002c4.3301-.0173 6.8573-3.1801 7.5415-4.8221l-1.1539-.4808c-.5561 1.3346-2.7147 4.038-6.3937 4.0529l-.0872-.0001c-3.1387-.0235-4.933-1.3536-5.9674-2.891-1.0593-1.5745-1.3497-3.4148-1.3497-4.4214 0-1.008.2912-2.8982 1.3541-4.5216C7.08 5.955 8.8746 4.586 12.0046 4.5627h.0872c3.679.0149 5.8376 2.7182 6.3937 4.0528l1.1539-.4809c-.6842-1.642-3.2113-4.8047-7.5415-4.822l-.1027.0001ZM12 6.75c-1.3807 0-2.5 1.1193-2.5 2.5 0 .9137.4902 1.7127 1.2219 2.1488L9.75 16.5625h4.5625l-1.033-5.1646C14.0104 10.9616 14.5 10.1631 14.5 9.25c0-1.3807-1.1193-2.5-2.5-2.5Z" clip-rule="evenodd"/></svg>