<svg xmlns="http://www.w3.org/2000/svg" fill="none" viewBox="0 0 24 24"><path fill="currentColor" d="M11 6c4.4183 0 8 3.5817 8 8h-2c0-3.3137-2.6863-6-6-6s-6 2.6863-6 6H3c0-4.4183 3.5817-8 8-8Zm7 7c.5523 0 1 .4477 1 1 0 3.0252.8638 5.0407 2.5547 6.1679C22.3779 20.7168 21.9894 22 21 22H7a1 1 0 0 1-.5547-.1679C4.1363 20.2927 3 17.6415 3 14c0-.5523.4477-1 1-1h14Zm-.969 2H5.033l.0238.2784c.1984 2.1223.916 3.6447 2.1358 4.6244L7.319 20h11.258l-.0512-.0734c-.8677-1.2847-1.3627-2.9134-1.4917-4.864L17.031 15ZM11 1c.5523 0 1 .4477 1 1v5h-2V2c0-.5523.4477-1 1-1Z"/></svg>