<svg xmlns="http://www.w3.org/2000/svg" fill="none" viewBox="0 0 24 24"><path fill="currentColor" d="M12 17c.5523 0 1 .4477 1 1s-.4477 1-1 1-1-.4477-1-1 .4477-1 1-1ZM11.9863 9c.4978 0 .9342.0741 1.3086.2217.3788.1428.6942.3424.9453.5996.5066.5238.7598 1.2316.7598 2.1221 0 .2425-.0399.4684-.1191.6777a2.564 2.564 0 0 1-.3174.5644 3.4538 3.4538 0 0 1-.4229.4717 50.8962 50.8962 0 0 1-.2304.2071l-.2256.1855a35.509 35.509 0 0 0-.416.3359c-.1233.1-.2157.1958-.2774.2862-.0263.0381-.0577.0971-.0928.1777-.0353.0762-.0527.1647-.0527.2647 0 .2571-.0748.469-.2246.6357-.1453.1667-.3747.25-.6875.25-.3346-.0001-.5768-.1-.7266-.2998-.1497-.2-.2246-.415-.2246-.6436.0001-.3139.051-.5851.1524-.8134.1013-.2191.2286-.4074.3828-.5645a3.0254 3.0254 0 0 1 .4961-.4219c.1936-.1331.3586-.2569.4951-.3711.1542-.1286.2824-.2715.3838-.4287.1011-.1617.1513-.3617.1513-.5996 0-.2952-.0525-.5195-.1582-.6719-.1057-.1523-.2403-.2542-.4033-.3066a1.573 1.573 0 0 0-.4961-.0791c-.4005.0001-.6666.1052-.7988.3145-.1277.2094-.1923.4617-.1924.7568 0 .3428-.1075.6-.3232.7715-.2113.1713-.4337.2577-.667.2578-.2996 0-.5425-.0885-.7276-.2647-.1848-.1807-.2772-.4117-.2773-.6923 0-.1286.0136-.289.04-.4795.0265-.1952.0766-.4023.1514-.6211.0749-.2191.1808-.4382.3174-.6573.1321-.2094.3105-.407.5351-.5927.2202-.1762.4895-.3192.8067-.4287.317-.1094.6956-.164 1.1357-.1641Z"/><path fill="currentColor" fill-rule="evenodd" d="M15 1c.5523 0 1 .4477 1 1v1h1c.5523 0 1 .4477 1 1h1.001C20.109 4 21 4.8948 21 6v15c0 1.0991-.8975 2-2.001 2H5.001C3.8933 23 3 22.1055 3 21V6c0-1.0987.8961-2 1.999-2H6c0-.5523.4477-1 1-1h1V2c0-.5523.4477-1 1-1h6ZM5 21h13.999C18.9962 20.9841 19 6 19 6h-1v1c0 .5523-.4477 1-1 1H7c-.5523 0-1-.4477-1-1V6H5v15Zm5-18c0 1.1053-.8923 2-2 2v1h8V5c-1.1053 0-2-.8923-2-2h-4Z" clip-rule="evenodd"/></svg>