<svg xmlns="http://www.w3.org/2000/svg" fill="none" viewBox="0 0 32 32"><path fill="currentColor" d="M8 9H6v20h20V9h-2v1c0 .5523-.4477 1-1 1H9c-.5523 0-1-.4477-1-1V9Zm16-2h2c1.1046 0 2 .8954 2 2v20c0 1.1046-.8954 2-2 2H6c-1.1046 0-2-.8954-2-2V9c0-1.1046.8954-2 2-2h2V6c0-.5523.4477-1 1-1h2V3.999C11 2.8967 11.8991 2 12.997 2h6.006C20.1072 2 21 2.8917 21 3.999V5h2c.5523 0 1 .4477 1 1v1ZM10 7v2h12V7h-1.001C19.8912 7 19 6.106 19 5.001V3.9997l-6.0001-.0005L13 5.001C13 6.1087 12.1059 7 11.001 7H10Zm4.5031 17.245a4.466 4.466 0 0 1-.5288-.2256l-1.4616.7304c-.1888.0943-.4589.0538-.6179-.1051l-.5419-.5416c-.1525-.1524-.1974-.4332-.1052-.6177l.7316-1.4623a4.4874 4.4874 0 0 1-.2244-.5263 1.3796 1.3796 0 0 1-.1033-.0361l-1.3032-.5213c-.1924-.077-.3484-.3106-.3484-.5105v-.8578c0-.205.1569-.4339.3484-.5105l1.3032-.5213a1.4451 1.4451 0 0 1 .1034-.0362 4.4685 4.4685 0 0 1 .2243-.5262l-.7316-1.4623c-.0922-.1845-.0473-.4653.1052-.6177l.5419-.5416c.159-.1589.4291-.1994.6179-.1051l1.4616.7304a4.4846 4.4846 0 0 1 .5289-.2257 1.4262 1.4262 0 0 1 .0361-.1033l.5214-1.3032c.0769-.1924.3105-.3484.5104-.3484h.8578c.205 0 .4339.1569.5104.3484l.5214 1.3032c.0125.0314.0246.0662.0362.1034a4.466 4.466 0 0 1 .5288.2256l1.4616-.7304c.1888-.0943.4589-.0538.6179.1051l.5419.5416c.1525.1524.1974.4332.1052.6177l-.7316 1.4623c.0855.1696.1605.3453.2244.5263.0372.0115.072.0236.1033.0361l1.3032.5213c.1924.077.3484.3106.3484.5105v.8578c0 .205-.1569.4339-.3484.5105l-1.3032.5213a1.4451 1.4451 0 0 1-.1034.0362 4.4685 4.4685 0 0 1-.2243.5262l.7316 1.4623c.0922.1845.0473.4653-.1052.6177l-.5419.5416c-.159.1589-.4291.1994-.6179.1051l-1.4616-.7304a4.4846 4.4846 0 0 1-.5289.2257 1.4262 1.4262 0 0 1-.0361.1033l-.5214 1.3032c-.0769.1924-.3105.3484-.5104.3484h-.8578c-.205 0-.4339-.1569-.5104-.3484l-.5214-1.3032a1.4451 1.4451 0 0 1-.0362-.1034ZM16 23c1.6569 0 3-1.3431 3-3s-1.3431-3-3-3-3 1.3431-3 3 1.3431 3 3 3Z"/></svg>