<svg xmlns="http://www.w3.org/2000/svg" fill="none" viewBox="0 0 32 32"><path fill="currentColor" d="M15.75 5.6a2.8001 2.8001 0 1 0-.0002-5.6002A2.8001 2.8001 0 0 0 15.75 5.6ZM28.75 21.1201a2.6799 2.6799 0 1 0 .0001 5.3598A2.6799 2.6799 0 0 0 28.75 21.12ZM5.5 23.8c0 1.5188-1.2312 2.75-2.75 2.75S0 25.3188 0 23.8c0-1.5187 1.2312-2.75 2.75-2.75S5.5 22.2813 5.5 23.8ZM25.23 25.6702a12.9496 12.9496 0 0 1-9.5 4.1491 12.9502 12.9502 0 0 1-9.5-4.1491 3.9997 3.9997 0 0 1-1.35 1.4799 14.9395 14.9395 0 0 0 16.7227 3.4373 14.94 14.94 0 0 0 4.9373-3.4373 3.9995 3.9995 0 0 1-1.31-1.4799Z"/><path fill="currentColor" fill-rule="evenodd" d="M19.5722 3.9795a3.9739 3.9739 0 0 1-.1307.361A13.0794 13.0794 0 0 1 27.75 11.8h-24a13.0805 13.0805 0 0 1 8.3-7.46 3.9194 3.9194 0 0 1-.3-1.54 3.2484 3.2484 0 0 1 0-.4499A14.9999 14.9999 0 0 0 .75 16.8a14.6807 14.6807 0 0 0 .3896 3.3385 4.0001 4.0001 0 0 1 4.2562.6615h20.7084a3.9996 3.9996 0 0 1 4.2562-.6615A14.6816 14.6816 0 0 0 30.75 16.8a15.0001 15.0001 0 0 0-11-14.4499 3.2484 3.2484 0 0 1 0 .45 3.9232 3.9232 0 0 1-.1778 1.1794ZM12.3127 18.8h1.026v-4.8542h-1.026v1.9025h-1.9225v-1.9025H9.3609V18.8h1.0293v-2.0951h1.9225V18.8Zm3.4166-3.6291c.2125-.2921.5124-.4382.8998-.4382.1771 0 .3575.0321.5412.0963.1837.0641.3664.1394.5479.2257l.332-.8367c-.4759-.228-.9496-.342-1.4211-.342-.4626 0-.8666.1018-1.2119.3055-.3431.2014-.6065.4925-.7902.8732-.1838.3786-.2756.8202-.2756 1.3248 0 .8013.187 1.4167.5611 1.8461.3741.4272.9142.6409 1.6203.6409.4914 0 .9363-.0831 1.3348-.2491v-.8632c-.4848.1704-.8976.2556-1.2385.2556-.8124 0-1.2186-.5412-1.2186-1.6236 0-.5202.1063-.9253.3188-1.2153Zm5.7641.6342c.1837-.2125.2755-.4704.2755-.7736 0-.363-.146-.6464-.4382-.85-.29-.2037-.6862-.3055-1.1887-.3055-.6132 0-1.1411.1594-1.5838.4781l.4748.7073c.2014-.1306.3841-.2225.5479-.2756.166-.0531.3287-.0797.488-.0797.4605 0 .6907.1837.6907.5512 0 .239-.0875.4084-.2623.508-.1727.0974-.4472.1461-.8235.1461h-.3752v.7869h.3686c.4073 0 .7039.0476.8898.1428.186.0951.2789.2567.2789.4847 0 .2546-.0808.4394-.2423.5545-.1616.1151-.4118.1727-.7504.1727-.2214 0-.445-.0299-.6707-.0897-.2258-.0597-.4328-.1372-.6209-.2324v.8733c.4073.1748.8743.2623 1.4011.2623.6287 0 1.1123-.1295 1.451-.3885.3387-.2612.508-.6253.508-1.0924 0-.321-.1007-.5755-.3021-.7637-.2015-.1903-.4981-.3099-.8899-.3586v-.0199c.3321-.0797.5899-.2258.7737-.4383Z" clip-rule="evenodd"/></svg>