<svg xmlns="http://www.w3.org/2000/svg" fill="none" viewBox="0 0 32 32"><path fill="currentColor" d="M14 20c0 .5523.4477 1 1 1h2c.5523 0 1-.4477 1-1h2c0 1.6569-1.3431 3-3 3h-2c-1.6569 0-3-1.3431-3-3h2Z"/><path fill="currentColor" fill-rule="evenodd" d="M24 5c.5523 0 1 .4477 1 1v4h1c.5523 0 1 .4477 1 1v4h1c.5523 0 1 .4477 1 1v12c0 .5523-.4477 1-1 1H4c-.5523 0-1-.4477-1-1V16c0-.5523.4477-1 1-1h1v-4c0-.5523.4477-1 1-1h1V6c0-.5523.4477-1 1-1h16ZM5 27h22V17H5v10Zm2-15v3h18v-3H7Zm2-2h14V7H9v3Z" clip-rule="evenodd"/></svg>