<svg xmlns="http://www.w3.org/2000/svg" fill="none" viewBox="0 0 32 32"><path fill="currentColor" fill-rule="evenodd" d="M28 3c1.1046 0 2 .8954 2 2v18c0 1.1046-.8954 2-2 2h-8l.8447 3.3789c.0788.3155-.1601.6211-.4853.6211h-8.7188c-.3252 0-.5641-.3056-.4853-.6211L12 25H4c-1.1046 0-2-.8954-2-2V5c0-1.1046.8954-2 2-2h24ZM16.9375 7c-2.0489 0-3.7903 1.3148-4.4277 3.1465-1.5536.1811-2.7598 1.5013-2.7598 3.1035 0 .3488.0576.6848.163.998-.844.4854-1.413 1.3959-1.413 2.4395 0 1.5533 1.2592 2.8125 2.8125 2.8125h8.75c1.8985 0 3.4375-1.539 3.4375-3.4375 0-1.4005-.8375-2.6059-2.0391-3.1416a4.693 4.693 0 0 0 .1641-1.2334C21.625 9.0987 19.5263 7 16.9375 7Z" clip-rule="evenodd"/></svg>