<svg xmlns="http://www.w3.org/2000/svg" fill="none" viewBox="0 0 16 16"><path fill="currentColor" fill-rule="evenodd" d="M14.8574.5713c.6309.0001 1.1424.5117 1.1426 1.1426V12c0 .6311-.5115 1.1424-1.1426 1.1426h-4.5713l.4825 1.9306a.2864.2864 0 0 1-.2774.3555H5.5088a.2863.2863 0 0 1-.2774-.3555l.4825-1.9306H1.1426C.5116 13.1424 0 12.6311 0 12V1.7139C.0002 1.0829.5117.5714 1.1426.5713h13.7148ZM8.5996 2.5c-1.311.0002-2.425.8416-2.833 2.0137C4.7723 4.6296 4 5.4746 4 6.5c0 .2232.037.4382.1045.6387-.5403.3106-.9043.8936-.9043 1.5615C3.2003 9.6942 4.006 10.5 5 10.5h5.5996c1.215 0 2.2002-.9852 2.2002-2.2002-.0001-.8962-.5358-1.6679-1.3047-2.0107a3.0019 3.0019 0 0 0 .1045-.7891c0-1.6568-1.3431-3-3-3Z" clip-rule="evenodd"/></svg>