<svg xmlns="http://www.w3.org/2000/svg" fill="none" viewBox="0 0 32 32"><path fill="currentColor" d="M12.02 10.9399c6.63 0 12-2.44 12-5.47S18.65 0 12.02 0s-12 2.45-12 5.47c0 3.02 5.37 5.4699 12 5.4699Z"/><path fill="currentColor" d="M24.0201 11.1599V7c0 1.66-1.61 3.1299-4.15 4.1399a9.9102 9.9102 0 0 1 3.79 1.3601c.229-.41.3527-.8705.36-1.3401ZM13.5 12.3999A11.0898 11.0898 0 0 0 9.57 16.51C4.12 16 .02 13.8001.02 11.1101V6.9199c0 3.03 5.37 5.48 12 5.48h1.48Z"/><path fill="currentColor" d="M8.86 17.9399A12.551 12.551 0 0 0 8.02 22c-4.65-.75-8-2.7699-8.02-5.1599v-4.1802c0 2.53 3.76 4.65 8.86 5.28ZM18.52 17c1.3807 0 2.5-1.1193 2.5-2.5s-1.1193-2.5-2.5-2.5-2.5 1.1193-2.5 2.5 1.1193 2.5 2.5 2.5ZM14.02 25.5c0 1.3807-1.1193 2.5-2.5 2.5s-2.5-1.1193-2.5-2.5 1.1193-2.5 2.5-2.5 2.5 1.1193 2.5 2.5Z"/><path fill="currentColor" d="M8.19 24.48c-.05-.32-.1-.64-.12-1-4.69-.75-8-2.7799-8-5.1699V22.5c0 2.53 3.77 4.65 8.88 5.27a3.46 3.46 0 0 1-.88-2.3 3.4098 3.4098 0 0 1 .12-.99ZM21.74 15.8601a3.4514 3.4514 0 0 0 .28-1.3601 3.4939 3.4939 0 0 0-.11-.79 8.5195 8.5195 0 0 1 5.1 7.79v.8301A3.4296 3.4296 0 0 0 25.55 22a4.753 4.753 0 0 0-.53.05 4.9466 4.9466 0 0 0 0-.55 6.5104 6.5104 0 0 0-3.28-5.6399ZM22.27 26.8a6.4594 6.4594 0 0 1-3.75 1.1998A6.4594 6.4594 0 0 1 14.77 26.8a3.4798 3.4798 0 0 1-1.25 1.5601 8.44 8.44 0 0 0 10 0A3.4811 3.4811 0 0 1 22.27 26.8ZM15.02 14.5c.0002.4676.0955.9304.28 1.3601A6.5094 6.5094 0 0 0 12.01 21.5a4.9466 4.9466 0 0 0 0 .55 4.753 4.753 0 0 0-.53-.05 3.43 3.43 0 0 0-1.46.3301V21.5a8.5196 8.5196 0 0 1 5.1-7.79 3.494 3.494 0 0 0-.1.79ZM25.52 28c1.3807 0 2.5-1.1193 2.5-2.5s-1.1193-2.5-2.5-2.5-2.5 1.1193-2.5 2.5 1.1193 2.5 2.5 2.5ZM21.02 21.5c0 1.3807-1.1193 2.5-2.5 2.5s-2.5-1.1193-2.5-2.5 1.1193-2.5 2.5-2.5 2.5 1.1193 2.5 2.5Z"/></svg>