<svg xmlns="http://www.w3.org/2000/svg" fill="none" viewBox="0 0 16 16"><path fill="currentColor" fill-rule="evenodd" d="M13.9998 3.735c0 1.5104-2.6863 2.7349-6 2.7349C4.6863 6.4699 2 5.2454 2 3.7349 2 2.2245 4.6862 1 7.9999 1c3.3136 0 5.9999 1.2246 5.9999 2.735Zm0 .765v2.0799a1.4188 1.4188 0 0 1-.18.67 4.9543 4.9543 0 0 0-1.895-.68c1.27-.505 2.075-1.24 2.075-2.07Zm-5.26 2.6998a5.5451 5.5451 0 0 0-1.9649 2.055C4.05 8.9999 2 7.9 2 6.555V4.4599c0 1.515 2.685 2.74 6 2.74h.74ZM6.42 9.9698a6.2754 6.2754 0 0 0-.42 2.03c-2.325-.375-4-1.3849-4.01-2.5799V7.33c0 1.265 1.88 2.325 4.43 2.64Zm-4.42 2.295v-2.0949c0 1.1949 1.68 2.2099 4.025 2.5849a6.0404 6.0404 0 0 0 .58 2.17c-2.64-.29-4.605-1.37-4.605-2.66Zm7.64-3.3349a1.7252 1.7252 0 0 1-.14-.68 1.745 1.745 0 0 1 .05-.395 4.2598 4.2598 0 0 0-2.55 3.8949v.415a1.7162 1.7162 0 0 1 .73-.165c.0887.0034.1772.0117.265.025a2.4637 2.4637 0 0 1 0-.275 3.2547 3.2547 0 0 1 1.645-2.8199Zm3.22 0a1.7246 1.7246 0 0 0 .14-.68 1.7444 1.7444 0 0 0-.055-.395 4.26 4.26 0 0 1 2.55 3.8949v.415a1.7162 1.7162 0 0 0-.73-.165 2.3776 2.3776 0 0 0-.265.025 2.4733 2.4733 0 0 0 0-.275 3.2553 3.2553 0 0 0-1.64-2.8199Zm.2649 5.4699a3.23 3.23 0 0 1-3.75 0 1.74 1.74 0 0 1-.625.7801 4.22 4.22 0 0 0 5 0 1.7404 1.7404 0 0 1-.625-.7801Zm-1.875-4.9c.6904 0 1.25-.5596 1.25-1.25 0-.6903-.5596-1.2499-1.25-1.2499-.6903 0-1.25.5596-1.25 1.25 0 .6903.5597 1.25 1.25 1.25Zm-3.4999 5.5c.6904 0 1.25-.5596 1.25-1.25s-.5596-1.25-1.25-1.25-1.25.5596-1.25 1.25.5596 1.25 1.25 1.25Zm6.9999 0c.6904 0 1.25-.5596 1.25-1.25s-.5596-1.25-1.25-1.25-1.25.5596-1.25 1.25.5596 1.25 1.25 1.25Z" clip-rule="evenodd"/></svg>