<svg xmlns="http://www.w3.org/2000/svg" fill="none" viewBox="0 0 32 32"><path fill="currentColor" d="M14.9074 1.6417 2.3026 9.3912c-.646.3972-.9691 1.0586-.9691 1.72l-.0041 8.8168c0 .5534.4486 1.0021 1.002 1.0021.5535 0 1.0021-.4487 1.0021-1.0021v-6.4649l11.5739 7.1175a2.0908 2.0908 0 0 0 2.1856 0l12.6047-7.7495c1.2922-.7944 1.2922-2.6455 0-3.44L17.093 1.6418a2.091 2.091 0 0 0-2.1856 0Z"/><path fill="currentColor" d="M7.9541 19.4198c-.3253-.2099-.7539.0237-.7539.4108v7.197c0 .3985.1143.7896.3932 1.0653.8545.845 3.235 2.5739 8.4068 2.5739 5.1718 0 7.5523-1.7289 8.4068-2.5739.2788-.2757.3932-.6668.3932-1.0653v-7.197c0-.3871-.4286-.6207-.7539-.4108l-7.0097 4.5224a1.9038 1.9038 0 0 1-2.0728 0l-7.0097-4.5224Z"/></svg>