<svg xmlns="http://www.w3.org/2000/svg" fill="none" viewBox="0 0 32 32"><path fill="currentColor" fill-rule="evenodd" d="M21.7843 5H10.2157a3 3 0 0 0-2.8673 2.1177L4.1758 17.4286A3.976 3.976 0 0 0 4 18.6015V24c0 1.6568 1.3431 3 3 3h18c1.6568 0 3-1.3432 3-3v-5.3985a3.978 3.978 0 0 0-.1758-1.1729L24.6516 7.1177A3 3 0 0 0 21.7843 5ZM9.3044 8.2466a1 1 0 0 1 .9674-.7466h11.4564a1 1 0 0 1 .9673.7466l2.2262 8.5c.166.6338-.3122 1.2534-.9674 1.2534H21.309a.5.5 0 0 0-.4472.2764l-.7236 1.4472A.5.5 0 0 1 19.691 20h-7.382a.5.5 0 0 1-.4472-.2764l-.7236-1.4472A.5.5 0 0 0 10.691 18H8.0456c-.6552 0-1.1333-.6196-.9674-1.2534l2.2262-8.5Z" clip-rule="evenodd"/></svg>