<svg xmlns="http://www.w3.org/2000/svg" fill="none" viewBox="0 0 24 24"><path fill="currentColor" d="M16.9999 19.9999v-1c0-.5523.4477-1 1-1s1 .4477 1 1v2c0 .5523-.4477 1-1 1h-16c-.5522 0-1-.4477-1-1v-19c0-.5522.4478-1 1-1h16c.5523 0 1 .4478 1 1v2c0 .5524-.4477 1-1 1s-1-.4476-1-1V3h-14v17h14Zm-12-15h2c.5523 0 1 .4478 1 1 0 .5523-.4477 1-1 1H5c-.5522 0-1-.4477-1-1 0-.5522.4478-1 1-1Zm0 4h4c.5523 0 1 .4478 1 1 0 .5523-.4477 1-1 1H5c-.5522 0-1-.4477-1-1 0-.5522.4478-1 1-1Zm0 3h4c.5523 0 1 .4478 1 1 0 .5523-.4477 1-1 1H5c-.5522 0-1-.4477-1-1 0-.5522.4478-1 1-1Zm0 4h1c.5523 0 1 .4477 1 1s-.4477 1-1 1H5c-.5522 0-1-.4477-1-1s.4478-1 1-1Zm18.8493-1.2514c.2915.4676.1476 1.0823-.3215 1.3729-1.4962.9269-2.6904.4801-3.6028-.7547-.644 1.7095-1.825 1.8296-2.852.4908-.676.8106-1.3194 1.2-2.0471 1.1355-.6726-.0595-1.2319-.4923-1.7585-1.3676-.5335.4784-1.131.8961-1.7924 1.2519-.486.2615-1.0927.0807-1.355-.4038-.2623-.4844-.0809-1.0892.4051-1.3506.7154-.385 1.3356-.8609 1.8611-1.4313-.3047-.8279-.6141-1.8242-.9447-3.003-.6116-2.1807.2639-4.4412 1.8224-5.3266 2.0421-1.1602 3.5559.585 3.1871 3.5701-.2463 1.9941-.8374 3.6897-1.7705 5.0704.0327.071.0652.1389.0973.204.1604.3242.3066.5614.4302.7115.026-.0252.0608-.0575.1032-.0993.2763-.2717.6174-.7289 1.0079-1.3634.4287-.6967 1.47-.6113 1.7788.1459.0505.1238.0997.2398.1477.3476l.0079-.0425c.0856-.4631.1705-.7919.2775-1.0394.218-.5039.5852-.8683 1.23-.7918.4594.0545.695.2808.9335.6442.1185.1806.5233.9629.6071 1.1066.4583.7862.6787.9069 1.1705.6022.4691-.2906 1.0857-.1472 1.3772.3204Zm-9.3833-6.06c.117-.9473.0218-1.5162-.1275-1.6883.0156.018.0459.02-.0843.094-.7455.4235-1.2558 1.741-.8866 3.0576.1357.4838.2675.9318.3955 1.3447.3393-.8247.5734-1.7593.7029-2.808Z"/></svg>