<svg xmlns="http://www.w3.org/2000/svg" fill="none" viewBox="0 0 24 24"><path fill="currentColor" d="M6.4059 19H9c.5523 0 1 .4477 1 1s-.4477 1-1 1H4c-.5523 0-1-.4477-1-1v-5c0-.5523.4477-1 1-1s1 .4477 1 1v2.5941l4.303-4.3029c.3882-.3883 1.0176-.3883 1.4058 0 .3883.3882.3883 1.0176 0 1.4059L6.4058 19ZM17.594 5H15c-.5523 0-1-.4477-1-1s.4477-1 1-1h5c.5523 0 1 .4477 1 1v5c0 .5523-.4477 1-1 1s-1-.4477-1-1V6.4059l-4.3029 4.3029c-.3883.3883-1.0177.3883-1.4059 0-.3883-.3882-.3883-1.0176 0-1.4059L17.5941 5Z"/></svg>