<svg xmlns="http://www.w3.org/2000/svg" fill="none" viewBox="0 0 32 32"><path fill="currentColor" d="M2.6667 2.6667C2.6667 1.1939 3.8607 0 5.3335 0h10.6667v5.3333C16.0001 6.8061 17.194 8 18.6667 8h5.3334v2.7336a3.3556 3.3556 0 0 0-.6662-.0669h-1.3344c-.8073 0-1.488.2948-1.9649.618-.48.3254-1.0049.8499-1.305 1.6002l-.0519.1296-.2436-.1218c-1.3265-.6629-2.9847-.3904-4.0384.6628l-.843.8425c-.5861.5858-.8679 1.2996-.9696 1.9085-.1008.6035-.0701 1.3789.3063 2.1314l.1208.2415-.1253.0501c-.7359.2944-1.2613.8068-1.5938 1.2934-.3318.4854-.6244 1.1691-.6244 1.9766v1.3343c0 .8073.2948 1.4881.6181 1.965.3254.48.8498 1.0049 1.6001 1.305l.1253.0501-.1208.2415c-.3764.7524-.4071 1.5279-.3063 2.1314.0166.0997.0381.2022.065.3065H5.3334c-1.4728 0-2.6667-1.1939-2.6667-2.6667v-24Z"/><path fill="currentColor" fill-rule="evenodd" d="M15.4379 29.0492c-.2372-.2371-.3071-.6739-.1636-.9608l1.138-2.2748a6.9667 6.9667 0 0 1-.349-.8186 2.1358 2.1358 0 0 1-.1607-.0562l-2.0273-.8109c-.2993-.1198-.5419-.4832-.5419-.7941v-1.3343c0-.3189.2441-.6749.5419-.7941l2.0273-.8109a2.137 2.137 0 0 1 .1607-.0563 6.9653 6.9653 0 0 1 .349-.8185l-1.138-2.2748c-.1435-.2869-.0736-.7238.1636-.9608l.8429-.8425c.2473-.2472.6676-.3102.9613-.1635l2.2735 1.1362a6.964 6.964 0 0 1 .8227-.3511 2.1963 2.1963 0 0 1 .0563-.1607l.8109-2.0273c.1197-.2993.4831-.5419.794-.5419h1.3344c.2399 0 .5009.1382.6662.3335a.7693.7693 0 0 1 .1278.2084l.8109 2.0273c.0195.0488.0384.1029.0564.1608.283.0997.5576.2172.8226.351l2.2736-1.1362c.2937-.1467.7139-.0837.9612.1635l.843.8425c.2372.237.3071.6739.1635.9608l-1.138 2.2748c.133.2637.2498.537.349.8185.058.018.1122.0369.1608.0563l2.0272.8109c.2993.1198.542.4832.542.7941v1.3343c0 .3188-.2442.6749-.542.7941l-2.0272.8109a2.14 2.14 0 0 1-.1608.0563 6.9485 6.9485 0 0 1-.349.8185l1.138 2.2748c.1436.2869.0737.7237-.1635.9608l-.843.8425c-.2473.2472-.6675.3102-.9612.1635l-2.2736-1.1362a6.964 6.964 0 0 1-.8227.3511 2.106 2.106 0 0 1-.0563.1607l-.8109 2.0273c-.1197.2992-.4831.5419-.794.5419h-1.3344c-.3188 0-.6749-.2442-.794-.5419l-.8109-2.0273a2.1843 2.1843 0 0 1-.0564-.1608 6.9524 6.9524 0 0 1-.8226-.351l-2.2735 1.1362c-.2937.1467-.714.0837-.9613-.1635l-.8429-.8425Zm11.2288-6.3826c0 2.2092-1.7908 4-4 4-2.2091 0-4-1.7908-4-4 0-2.2091 1.7909-3.9999 4-3.9999 2.2092 0 4 1.7908 4 3.9999Z" clip-rule="evenodd"/><path fill="currentColor" d="M18.6667.9428c0-.594.7181-.8914 1.1381-.4714l3.7239 3.7239c.4199.42.1225 1.138-.4714 1.138h-3.0572c-.7364 0-1.3334-.597-1.3334-1.3333V.9428Z"/></svg>