<svg xmlns="http://www.w3.org/2000/svg" fill="none" viewBox="0 0 32 32"><path fill="currentColor" d="M24 12h-6c-.5523 0-1-.4477-1-1V5H7v23h14v2H6c-.5523 0-1-.4477-1-1V4c0-.5523.4477-1 1-1h12a1 1 0 0 1 .7071.2929l7 7c.1875.1875.2929.4419.2929.7071v13h-2V12Zm-1.4142-2L19 6.4142V10h3.5858Zm-2.5293 12.5813 5.5809 4.6392c.4251.3533.4851.9867.134 1.4145-.3511.4279-.9804.4883-1.4055.1349l-5.7219-4.7565c-.8911.6219-1.975.9866-3.144.9866-3.0376 0-5.5-2.4624-5.5-5.5s2.4624-5.5 5.5-5.5 5.5 2.4624 5.5 5.5c0 1.1418-.3479 2.2022-.9435 3.0813ZM15.5 23c1.933 0 3.5-1.567 3.5-3.5S17.433 16 15.5 16 12 17.567 12 19.5s1.567 3.5 3.5 3.5Z"/></svg>