<svg xmlns="http://www.w3.org/2000/svg" fill="none" viewBox="0 0 16 16"><path fill="currentColor" d="M2 1h9c.5523 0 1 .4822 1 1.077V13.923C12 14.5178 11.5523 15 11 15H2c-.5523 0-1-.4822-1-1.0769V2.0769C1 1.4821 1.4477 1 2 1Zm1 2v10h7V3H3Zm1.5 2h1a.5.5 0 0 1 0 1h-1a.5.5 0 0 1 0-1Zm0 2h4a.5.5 0 0 1 0 1h-4a.5.5 0 0 1 0-1Zm0 2h2a.5.5 0 0 1 0 1h-2a.5.5 0 0 1 0-1ZM13 4.1818h-1c-.5523 0-1-.4884-1-1.0909S11.4477 2 12 2h2c.5523 0 1 .4884 1 1.091v9.8181C15 13.5116 14.5523 14 14 14h-2c-.5523 0-1-.4884-1-1.0909s.4477-1.0909 1-1.0909h1V4.1818Z"/></svg>