<svg xmlns="http://www.w3.org/2000/svg" fill="none" viewBox="0 0 16 16"><g clip-path="url(#gdpr--16-a)"><path fill="currentColor" fill-rule="evenodd" d="M7.7755.1685a.3285.3285 0 0 1 .4307 0c1.8375 1.5967 4.0632 2.6644 6.8037 3.2636a.3281.3281 0 0 1 .2061.1436.3283.3283 0 0 1 .0449.247c-1.2844 5.8284-3.6723 9.8738-7.0957 12.0216a.3266.3266 0 0 1-.1739.0498.328.328 0 0 1-.1748-.0498C4.3933 13.6964 2.0063 9.6514.7218 3.8228a.3283.3283 0 0 1 .044-.2471.327.327 0 0 1 .206-.1436c2.7403-.5992 4.966-1.667 6.8037-3.2636Zm.2158 9.6943a.1445.1445 0 0 0-.1298.08l-.1104.2247-.249.0371a.144.144 0 0 0-.1162.0977.1438.1438 0 0 0 .037.1474l.1798.1758-.043.2471a.145.145 0 0 0 .0576.1416.146.146 0 0 0 .1524.0107l.2216-.1172.2217.1172a.1429.1429 0 0 0 .1514-.0117.1428.1428 0 0 0 .0576-.1406l-.042-.2471.1797-.1758a.1432.1432 0 0 0 .0361-.1474.1435.1435 0 0 0-.1162-.0977l-.248-.0371-.1113-.2246a.1436.1436 0 0 0-.129-.08Zm-1.6386-.5224a.1445.1445 0 0 0-.13.08l-.1103.2246-.249.0371a.144.144 0 0 0-.1162.0977.144.144 0 0 0 .0371.1475l.1797.1757-.043.2471a.1449.1449 0 0 0 .0576.1416.1469.1469 0 0 0 .085.0274.1473.1473 0 0 0 .0674-.0166l.2217-.1172.2217.1172a.1444.1444 0 0 0 .21-.1524l-.043-.2471.1796-.1748a.1453.1453 0 0 0 .0362-.1484.1438.1438 0 0 0-.1162-.0977l-.248-.037-.1114-.2247a.1437.1437 0 0 0-.129-.08Zm3.3076 0a.1442.1442 0 0 0-.129.08l-.1112.2246-.248.0371a.1436.1436 0 0 0-.08.2451l.1795.1758-.042.2471a.1445.1445 0 0 0 .0567.1416.146.146 0 0 0 .1523.0108l.2217-.1172.2217.1172a.1444.1444 0 0 0 .2099-.1524l-.0429-.2471.1797-.1757a.1427.1427 0 0 0 .0371-.1475.1439.1439 0 0 0-.1162-.0977l-.2481-.037-.1113-.2247a.145.145 0 0 0-.13-.08ZM5.0323 8.227a.1435.1435 0 0 0-.1288.08l-.1114.2247-.248.036a.1442.1442 0 0 0-.1162.0987.1434.1434 0 0 0 .0361.1475l.1797.1748-.042.248a.1436.1436 0 0 0 .0566.1406.1461.1461 0 0 0 .1524.0108l.2217-.1162.2226.1162a.1427.1427 0 0 0 .1514-.0107.144.144 0 0 0 .0576-.1417l-.043-.247.1797-.1748a.1429.1429 0 0 0 .0371-.1475.1456.1456 0 0 0-.1172-.0986l-.248-.0361-.1113-.2247a.1432.1432 0 0 0-.129-.08Zm5.8506-.0342a.1443.1443 0 0 0-.1289.08l-.1113.2256-.248.0362a.1443.1443 0 0 0-.1172.0976.145.145 0 0 0 .0371.1485l.1797.1748-.042.247a.1443.1443 0 0 0 .0566.1417.1463.1463 0 0 0 .1524.0107l.2216-.1172.2217.1172a.1444.1444 0 0 0 .21-.1523l-.043-.2471.1797-.1748a.144.144 0 0 0-.0801-.2461l-.248-.0362-.1113-.2255a.1444.1444 0 0 0-.129-.0801Zm-6.2314-1.669a.1437.1437 0 0 0-.1289.0801l-.1113.2246-.248.0362a.1455.1455 0 0 0-.1173.0986.1439.1439 0 0 0 .0371.1475l.1797.1757-.043.2471a.1441.1441 0 0 0 .0577.1406.147.147 0 0 0 .085.0284.1465.1465 0 0 0 .0673-.0176l.2217-.1162.2217.1162a.1437.1437 0 0 0 .1523-.0108.1434.1434 0 0 0 .0576-.1406l-.043-.248.1798-.1749a.1435.1435 0 0 0 .037-.1474.1453.1453 0 0 0-.1171-.0986l-.248-.0362-.1114-.2246a.1434.1434 0 0 0-.1289-.08Zm6.6787-.001a.1444.1444 0 0 0-.1289.0811l-.1113.2246-.2481.0362a.1442.1442 0 0 0-.08.246l.1796.1749-.0419.247a.1447.1447 0 0 0 .0576.1416.1448.1448 0 0 0 .084.0274.145.145 0 0 0 .0673-.0166l.2217-.1172.2227.1172a.1429.1429 0 0 0 .1513-.0108.1444.1444 0 0 0 .0577-.1416l-.042-.247.1797-.1749a.1452.1452 0 0 0 .0361-.1484.1453.1453 0 0 0-.1172-.0976l-.2481-.0362-.1103-.2246a.1454.1454 0 0 0-.1299-.081Zm-.4473-1.6689a.1436.1436 0 0 0-.1289.0801l-.1113.2246-.248.0361a.144.144 0 0 0-.1162.0987.1432.1432 0 0 0 .0361.1474l.1797.1748-.042.248a.1436.1436 0 0 0 .0566.1407.1476.1476 0 0 0 .085.0283.1466.1466 0 0 0 .0674-.0175l.2216-.1163.2227.1162a.1427.1427 0 0 0 .1514-.0107.1432.1432 0 0 0 .0576-.1406l-.042-.248.1787-.1749a.1441.1441 0 0 0 .0371-.1474.1453.1453 0 0 0-.1172-.0987l-.248-.036-.1113-.2247a.1436.1436 0 0 0-.129-.08Zm-5.7841-.0342a.1439.1439 0 0 0-.129.081l-.1113.2247-.248.0361a.1445.1445 0 0 0-.08.2461l.1796.1748-.042.2471a.1447.1447 0 0 0 .0567.1416.1445.1445 0 0 0 .1523.0108l.2217-.1172.2226.1172a.1439.1439 0 0 0 .1514-.0107.1444.1444 0 0 0 .0576-.1417l-.042-.247.1797-.1749a.1448.1448 0 0 0 .0361-.1484.1439.1439 0 0 0-.1162-.0977l-.249-.0361-.1104-.2246a.1449.1449 0 0 0-.1298-.081Zm1.2539-1.1884a.1451.1451 0 0 0-.13.08l-.1103.2256-.249.0362a.1436.1436 0 0 0-.1162.0976.1447.1447 0 0 0 .0361.1484l.1797.1749-.042.247a.1437.1437 0 0 0 .0576.1406.147.147 0 0 0 .085.0284.145.145 0 0 0 .0664-.0166l.2227-.1172.2217.1162a.144.144 0 0 0 .1523-.0108.143.143 0 0 0 .0566-.1406l-.042-.247.1797-.1758a.1436.1436 0 0 0-.08-.2451l-.248-.0362-.1114-.2256a.1443.1443 0 0 0-.129-.08Zm3.3076 0a.1439.1439 0 0 0-.129.08l-.1112.2256-.248.0362a.1438.1438 0 0 0-.08.2451l.1795.1758-.042.247a.1433.1433 0 0 0 .0577.1406.145.145 0 0 0 .084.0284.1445.1445 0 0 0 .0673-.0166l.2217-.1172.2226.1162a.1426.1426 0 0 0 .1514-.0108.1432.1432 0 0 0 .0576-.1406l-.0429-.247.1797-.1758a.143.143 0 0 0-.0791-.2451l-.249-.0362-.1104-.2256a.1446.1446 0 0 0-.13-.08Zm-1.669-.4473a.145.145 0 0 0-.1298.08l-.1104.2257-.249.036a.1437.1437 0 0 0-.1162.0978.1448.1448 0 0 0 .0361.1484l.1797.1748-.042.247a.144.144 0 0 0 .209.1524l.2226-.1172.2217.1172a.1465.1465 0 0 0 .0674.0166c.0295 0 .0588-.01.084-.0283a.1429.1429 0 0 0 .0576-.1406l-.042-.2471.1797-.1758a.1446.1446 0 0 0-.08-.246l-.2481-.0352-.1113-.2256a.1441.1441 0 0 0-.129-.0801Z" clip-rule="evenodd"/></g><defs><clipPath id="gdpr--16-a"><path fill="#fff" d="M0 0h16v16H0z"/></clipPath></defs></svg>