<svg xmlns="http://www.w3.org/2000/svg" fill="none" viewBox="0 0 16 16"><path fill="currentColor" d="M7.9189 13.9076c.006.4207.012.7271.018.8774.006.018.006.042 0 .0601v.042c0 .0842.012.1683.036.2464a.8425.8425 0 0 0 .0361-.2464c0-.03.012-.4687.03-1.1718-.006.006-.012.012-.012.018a1.0518 1.0518 0 0 0-.1081.1743Zm-1.25-8.774c.0961-.1021.1863-.2223.2524-.3485-.048.1081-.2344.5168-.0541.5529.1983.036.4207-.024.8233-.5349-.012-.655-.024-1.226-.03-1.6586H7.414c-.1202 0-.3185-.012-.4508-.2104-.1442-.2163-.1502-.4387-.1562-.601-.006-.2343-.0661-.661-.3606-.9014-.2043-.1622-.7572-.2884-1.268-.0841-.1683.0661-.5048.2404-.8353.4026-.3005.1503-.6851.3366-.8053.3366.1983-.0902.4627-.2224.7512-.3846.3305-.1803.679-.3726.8533-.4447.3486-.1383 1.0157-.1803 1.3582.0961.3245.2644.3906.7212.3966.9675.006.1623.012.3606.1383.559.1142.1682.2944.1682.4026.1682h.2163v-.1562c-.1923.012-.4687.024-.5889-.2344-.1442-.3125.012-1.1118-.4687-1.4483-.4808-.3366-1.25-.2524-1.9351.1442-.679.3906-1.5805.9014-2.6923 1.3461-1.1118.4448-1.8029.625-1.935.643-.1263.0241.102.1083.5768.1203.4748.012.8714-.024.8714-.024l3.4856-1.5866S1.9634 3.3488 1.711 3.511c-.2524.1623-.4567.2164-.4387.3666.018.1503.2103.1322.7392.1202.5288-.012.643-.06.8233-.1142.1803-.054 2.1334-.9555 2.1334-.9555s-2.0914 1.0397-2.3918 1.28c-.3005.2404.024.3186.2283.3246.2104.006.7693-.024 1.0817-.1803.3125-.1563 1.2861-.7813 1.2861-.7813s-.9615.6911-1.1478.8474c-.1503.1262-.2284.2344-.1923.3666.054.1682.3425.1502.7271.012 0 0 .3967-.1382.5469-.2704.1502-.1383.5709-.5108.5709-.5108s-.4988.5168-.625.7391c-.1202.2224-.1442.2765-.0841.4027.0841.1803.7211-.006.9014-.1984.1322-.1502.2584-.3064.3726-.4747 0 0-.1923.3125-.2344.4928-.042.1803-.0901.3245.0842.3425.1923.03.3726.036.5769-.1863Zm1.1899 4.0925.054-.036c.0361-.024.0662-.042.0902-.0661.048-.03.0962-.0661.1442-.0962.006-.3425.018-.691.024-1.0336a7.9808 7.9808 0 0 0-.3064-.1262c-.006 0-.012-.006-.018-.006-.012-.006-.018-.006-.03-.012-.0722-.024-.1383-.0541-.2164-.0782-.0902-.036-.1803-.066-.2705-.1021-.601.3185-.7211.4687-.7211.7632 0 .4146.3546.601.9675.9916a6.2105 6.2105 0 0 1 .2825-.1984Zm-.7392-.7391s-.042-.2645.637-.571c.018-.006.036-.018.0541-.024.006.4147.012.8293.024 1.244-.3365-.2284-.7151-.4447-.7151-.649Zm1.0276 5.1021c-.03.036-.06.0721-.0901.1021.1743.2344.1623.4628.0661.7572.0901-.1021.2704-.3605.1202-.6971-.03-.054-.0601-.1081-.0962-.1622Zm-.2764-2.4639a1704.3448 1704.3448 0 0 0 .3726.3726c.006.006.018.012.03.024.4087-.3546.7813-.6911.7813-1.1118 0-.3305-.3185-.631-.637-.8714-.03.018-.0601.036-.0902.0601-.072.0481-.1382.0902-.1983.1322 0 0-.006 0-.006.006-.012.012-.03.018-.042.0301-.0842.06-.1623.1142-.2344.1683.012.4026.018.8052.024 1.1899Zm.2584-1.3281c.3966.2884.5529.4747.5529.679 0 .2104-.2224.4568-.583.8173.006-.4807.018-.9795.0301-1.4963Zm2.1935-5.7752s.4207.3726.5709.5108c.1502.1382.5469.2704.5469.2704.3846.1382.673.1563.7271-.012.0421-.1322-.042-.2464-.1923-.3666-.1863-.1563-1.1478-.8474-1.1478-.8474s.9735.625 1.286.7813c.3125.1562.8714.1863 1.0818.1803.2103-.006.5288-.0842.2283-.3245-.3004-.2404-2.3918-1.28-2.3918-1.28s1.9471.9074 2.1334.9554c.1803.0541.2945.0962.8233.1142.5289.012.7152.03.7392-.1202.024-.1442-.1863-.1983-.4387-.3666-.2524-.1622-3.2572-1.6586-3.2572-1.6586l3.4856 1.5865s.3966.036.8714.024c.4747-.012.7031-.096.5769-.1201-.1262-.024-.8233-.1983-1.9351-.643-1.1118-.4447-2.0132-.9495-2.6923-1.3462C10.6592.969 9.884.879 9.4033 1.2154c-.4808.3365-.3246 1.1298-.4688 1.4483-.1202.2584-.3966.2464-.589.2344 0 .048 0 .1021-.006.1562h.2224c.1082 0 .2885 0 .4026-.1683.1262-.1923.1323-.3966.1383-.5588.006-.2464.072-.7032.3966-.9676.3425-.2764 1.0096-.2343 1.3581-.0961.1743.066.5229.2584.8534.4447.2885.1622.5529.2944.7512.3846-.1262 0-.5048-.1863-.8053-.3365-.3245-.1683-.661-.3366-.8353-.4027-.5108-.2043-1.0637-.0781-1.268.0841-.3005.2404-.3546.6671-.3606.9015-.006.1622-.012.3906-.1563.601-.1261.1983-.3245.2103-.4507.2103h-.2464c-.012.4327-.024.9976-.036 1.6406.4086.5228.643.589.8353.5469.1803-.0361 0-.4448-.054-.553.072.1263.1562.2405.2523.3486.1983.2224.3846.2164.565.1923.1802-.024.1261-.1622.084-.3425-.042-.1803-.2343-.4928-.2343-.4928.1142.1623.2404.3245.3726.4748.1803.1923.8173.3846.9014.1983.0541-.1202.0361-.1803-.0841-.4027-.1142-.2223-.619-.7391-.619-.7391ZM8.009 2.1829c.0962 0 .1923-.03.2705-.0841.078-.054.1442-.1322.1802-.2164.036-.09.0481-.1863.03-.2824-.018-.0962-.066-.1803-.1321-.2524a.4893.4893 0 0 0-.2524-.1322c-.0962-.018-.1923-.012-.2825.03a.4572.4572 0 0 0-.2163.1803.4798.4798 0 0 0-.0842.2705c0 .066.012.1262.0361.1863.024.06.06.1141.1082.1562.048.048.0961.0841.1562.1082.0541.024.1202.036.1863.036Zm1.5986 3.6538s-.012-.3365-.559-.3726c-.5588-.036-.5829.2044-.5708.2945.042 0 .078.012.078.024s-.03.024-.066.024c.03.0902.1142.1984.3545.3186.1984.0961.2945.0901.4087.0721 0 0 .1322.0781.1322.2043 0 .1202-.2103.3546-1.1959.8474.0601-2.6562.1142-4.988.1142-4.988h.06c.0241 0 .0482-.012.0662-.03.018-.018.03-.042.03-.0661v-.03c0-.012 0-.024-.006-.0361-.006-.012-.012-.024-.024-.03a.6216.6216 0 0 1-.1863.1442c-.0721.036-.1502.048-.2284.048a.5984.5984 0 0 1-.2283-.048c-.0721-.03-.1383-.0842-.1863-.1442-.012.012-.018.018-.024.03-.006.012-.006.024-.006.036v.0301c0 .024.012.048.03.0661.018.018.042.03.066.03h.0602s.042 2.2657.0841 4.8738l.2644.1322c.012.006.03.012.042.018.2224.1082.4087.1984.565.2825.5288-.2043 1.0457-.4387 1.2019-.7692.2764-.613-.2764-.9616-.2764-.9616Zm-.7332-.1382c-.0601 0-.1082-.03-.1082-.066 0-.0361.0481-.0662.1082-.0662.06 0 .1082.03.1082.0661 0 .036-.0481.0661-.1082.0661Zm-.9555 7.6081c.048-.0601.0901-.1202.1382-.1742.006-.3426.018-.7272.024-1.1419-.06-.0601-.1262-.1202-.1983-.1863-.024-.018-.042-.042-.066-.0601-.0301-.03-.0602-.054-.0902-.0781-.1683.1563-.4988.5048-.4988.8053 0 .3546.3425.7151.601.9735.024-.054.054-.0961.09-.1382Zm-.036-1.4302c.012.5108.018.9795.024 1.3822-.1984-.2645-.4087-.5349-.4087-.7212 0-.1743.1022-.3726.3846-.661Zm.1381-4.5313c-1.1718-.5649-1.4122-.8233-1.4122-.9495 0-.1262.1322-.2043.1322-.2043.1142.024.2103.024.4087-.0721.2403-.1142.3245-.2284.3545-.3185-.036 0-.066-.012-.066-.024s.036-.024.078-.024v-.0061c.006-.0901-.024-.3245-.5769-.2885-.5469.0361-.5589.3726-.5589.3726s-.5529.3546-.2644.9555c.2524.5349 1.4363.8174 2.1214 1.1238.679.3065.637.571.637.571 0 .2283-.4567.4687-.8173.7211-.3606.2524-1.1238.6911-1.1238 1.2079 0 .4748.4748.8414.9375 1.25.4687.4087.619.6551.619.8834 0 .3125-.5168.7332-.7813 1.256-.2644.5228.2584 1.3341.0962.9075-.1683-.4267-.0781-.7272.1382-1.0277.2644-.3666.8293-.7271.8293-1.2139 0-.4087-.595-.8894-.595-.8894-.5288-.5289-.8653-.8293-.8653-1.0938 0-.2644.2524-.4988.9615-.9615.7031-.4567 1.1178-.637 1.1178-1.0817 0-.3906-.1983-.5289-1.3702-1.0938Zm-.9014-1.7728c.0601 0 .1082.03.1082.0661 0 .036-.0481.0661-.1082.0661-.0601 0-.1082-.03-.1082-.066 0-.0361.0481-.0662.1082-.0662Z"/></svg>