<svg xmlns="http://www.w3.org/2000/svg" fill="none" viewBox="0 0 24 24"><path fill="currentColor" d="M11.8783 20.8615c.009.631.018 1.0907.0271 1.3161a.1537.1537 0 0 1 0 .0901v.0631c0 .1262.018.2524.054.3696a1.2631 1.2631 0 0 0 .0541-.3696c0-.0451.0181-.7031.0451-1.7578-.009.009-.018.018-.018.0271a1.5743 1.5743 0 0 0-.1623.2614Zm-1.875-13.161c.1443-.1532.2795-.3335.3786-.5228-.0721.1623-.3515.7752-.0811.8293.2975.0541.631-.036 1.235-.8023-.0181-.9825-.0361-1.8389-.0451-2.488H11.1211c-.1803 0-.4778-.018-.6761-.3154-.2163-.3245-.2253-.658-.2343-.9015-.0091-.3515-.0992-.9915-.541-1.3521-.3064-.2434-1.1357-.4327-1.902-.1262-.2523.0991-.7571.3606-1.253.604-.4507.2253-1.0276.5048-1.2079.5048.2975-.1353.6942-.3336 1.1268-.577.4958-.2704 1.0187-.5589 1.28-.667.523-.2074 1.5235-.2705 2.0373.1442.4868.3966.586 1.0817.595 1.4513.009.2434.018.5409.2073.8384.1713.2523.4417.2523.604.2523H11.4817v-.2343c-.2885.018-.7031.036-.8834-.3516-.2164-.4687.018-1.6676-.7032-2.1724-.7211-.5048-1.875-.3786-2.9026.2163-1.0186.586-2.3707 1.3522-4.0384 2.0192-1.6676.667-2.7043.9375-2.9026.9646-.1893.036.1532.1622.8654.1802.7121.018 1.307-.036 1.307-.036l5.2284-2.3798S2.945 5.0233 2.5665 5.2667c-.3786.2433-.6851.3245-.658.5498.027.2254.3154.1984 1.1087.1803.7933-.018.9645-.0901 1.235-.1713.2704-.081 3.2-1.4332 3.2-1.4332s-3.137 1.5595-3.5877 1.92c-.4507.3606.0361.4778.3426.4868.3155.009 1.1538-.036 1.6226-.2704.4687-.2344 1.929-1.1719 1.929-1.1719S6.3166 6.3934 6.037 6.6278c-.2253.1893-.3425.3516-.2885.5499.0812.2524.5139.2254 1.0908.018 0 0 .595-.2073.8203-.4056.2253-.2073.8564-.7662.8564-.7662s-.7482.7752-.9375 1.1087c-.1803.3335-.2164.4147-.1262.604.1262.2704 1.0817-.009 1.3521-.2975.1983-.2253.3876-.4597.559-.7121 0 0-.2886.4687-.3517.7392-.063.2704-.1352.4867.1263.5138.2884.045.5588.054.8653-.2795Zm1.7849 6.1388.0811-.0541c.0541-.036.0992-.0631.1352-.0991.0721-.0451.1442-.0992.2164-.1443.009-.5138.027-1.0366.036-1.5504a12.0141 12.0141 0 0 0-.4597-.1893c-.009 0-.018-.0091-.0271-.0091-.018-.009-.027-.009-.045-.018-.1082-.036-.2074-.0811-.3246-.1172-.1352-.0541-.2704-.0991-.4056-.1532-.9014.4777-1.0817.7031-1.0817 1.1448 0 .622.5318.9014 1.4513 1.4874a9.2075 9.2075 0 0 1 .4237-.2975Zm-1.1088-1.1088s-.0631-.3966.9555-.8563c.0271-.009.0541-.0271.0811-.0361.0091.622.0181 1.244.0361 1.866-.5048-.3426-1.0727-.6671-1.0727-.9736Zm1.5415 7.6532c-.0451.0541-.0902.1082-.1353.1533.2615.3515.2434.6941.0992 1.1358.1352-.1533.4056-.5409.1803-1.0457-.0451-.0811-.0902-.1623-.1442-.2434Zm-.4147-3.6959.3335.3336.2254.2253c.009.009.027.018.0451.0361.6129-.5319 1.1718-1.0367 1.1718-1.6677 0-.4958-.4777-.9465-.9555-1.3071-.0451.0271-.0901.0541-.1352.0902-.1082.0721-.2073.1352-.2975.1983 0 0-.009 0-.009.009-.018.018-.0451.0271-.0631.0451-.1262.0901-.2434.1713-.3516.2524.0181.604.0271 1.2079.0361 1.7848Zm.3876-1.9921c.595.4326.8293.7121.8293 1.0186 0 .3155-.3335.6851-.8744 1.2259.0091-.7211.0271-1.4693.0451-2.2445Zm3.2902-8.6628s.631.5589.8564.7662c.2254.2073.8203.4056.8203.4056.5769.2074 1.0096.2344 1.0907-.018.0632-.1983-.0631-.3696-.2884-.5499-.2795-.2343-1.7218-1.271-1.7218-1.271s1.4604.9375 1.9291 1.1719c.4688.2344 1.3071.2794 1.6226.2704.3155-.009.7933-.1262.3425-.4868-.4507-.3605-3.5877-1.92-3.5877-1.92s2.9207 1.3611 3.2001 1.4333c.2705.081.4417.1442 1.235.1712.7933.018 1.0727.0451 1.1088-.1803.036-.2163-.2795-.2974-.6581-.5498-.3786-.2434-4.8858-2.488-4.8858-2.488l5.2284 2.3798s.5949.054 1.307.036c.7122-.018 1.0547-.1442.8654-.1802-.1893-.036-1.2349-.2975-2.9026-.9646-1.6677-.667-3.0198-1.4242-4.0384-2.0192-1.0187-.586-2.1815-.7211-2.9026-.2163-.7212.5048-.4868 1.6947-.7032 2.1724-.1803.3877-.5949.3696-.8834.3516 0 .0721 0 .1532-.009.2344H12.8428c.1623 0 .4327 0 .604-.2524.1893-.2885.1983-.595.2073-.8384.009-.3696.1082-1.0547.595-1.4513.5138-.4146 1.5144-.3515 2.0372-.1442.2614.0992.7843.3876 1.2801.667.4326.2434.8293.4417 1.1268.577-.1893 0-.7573-.2795-1.208-.5048-.4867-.2524-.9915-.5048-1.253-.604-.7662-.3065-1.5955-.1172-1.902.1262-.4507.3606-.5318 1.0006-.5409 1.3522-.009.2433-.018.5859-.2343.9014-.1893.2975-.4868.3155-.6761.3155H12.5093c-.018.649-.036 1.4964-.0541 2.461.613.7842.9646.8833 1.253.8202.2705-.054 0-.667-.0811-.8293.1082.1893.2344.3606.3786.5228.2975.3336.5769.3245.8473.2885.2705-.036.1893-.2434.1262-.5138-.0631-.2705-.3515-.7392-.3515-.7392.1713.2434.3606.4868.5589.7121.2704.2885 1.2259.577 1.3521.2975.0812-.1803.0541-.2704-.1262-.604-.1713-.3335-.9285-1.1087-.9285-1.1087Zm-3.4705-2.7584a.7197.7197 0 0 0 .4057-.1262c.1172-.0812.2163-.1983.2704-.3245.0541-.1352.0721-.2795.0451-.4237-.0271-.1442-.0992-.2704-.1983-.3786a.7341.7341 0 0 0-.3786-.1983c-.1443-.027-.2885-.018-.4237.045-.1352.0541-.2524.1533-.3245.2705a.719.719 0 0 0-.1262.4056c0 .0992.018.1893.054.2795.0361.0901.0902.1712.1623.2343.0721.0722.1442.1262.2344.1623.0811.036.1803.054.2794.054Zm2.3978 5.4807s-.018-.5048-.8383-.5589c-.8383-.054-.8744.3065-.8564.4417.0631 0 .1172.018.1172.036 0 .0181-.045.0361-.0991.0361.045.1352.1712.2975.5318.4778.2975.1442.4417.1352.613.1082 0 0 .1983.1172.1983.3065 0 .1802-.3155.5318-1.7938 1.271.0901-3.9844.1712-7.482.1712-7.482h.0902c.036 0 .0721-.018.0991-.045.0271-.027.0451-.0631.0451-.0992v-.045c0-.018 0-.036-.009-.0541-.009-.018-.018-.036-.0361-.045-.0811.09-.1712.1622-.2794.2163-.1082.054-.2254.072-.3426.072-.1171 0-.2343-.027-.3425-.072-.1082-.0451-.2073-.1262-.2795-.2164-.018.018-.027.027-.036.045-.009.0181-.009.0361-.009.0542v.045c0 .0361.018.0722.045.0992.0271.027.0631.045.0992.045h.0901s.0631 3.3985.1262 7.3107l.3967.1983c.018.009.0451.018.0631.0271.3335.1622.613.2974.8473.4236.7933-.3065 1.5685-.658 1.8029-1.1538.4147-.9195-.4147-1.4423-.4147-1.4423Zm-1.0997-.2073c-.0902 0-.1623-.0451-.1623-.0992 0-.054.0721-.0991.1623-.0991.0901 0 .1622.045.1622.0991 0 .0541-.0721.0992-.1622.0992ZM11.8783 19.96c.0721-.0901.1352-.1803.2073-.2614.0091-.5138.0271-1.0907.0361-1.7127-.0901-.0901-.1893-.1803-.2975-.2795-.036-.027-.0631-.063-.0991-.0901-.0451-.0451-.0902-.0811-.1353-.1172-.2524.2344-.7481.7572-.7481 1.2079 0 .5319.5138 1.0727.9014 1.4604.0361-.0812.0811-.1443.1352-.2074Zm-.0541-2.1454c.018.7662.0271 1.4694.0361 2.0733-.2975-.3966-.613-.8023-.613-1.0817 0-.2614.1532-.5589.5769-.9916Zm.2074-6.7968c-1.7578-.8473-2.1184-1.235-2.1184-1.4243 0-.1893.1983-.3064.1983-.3064.1713.036.3155.036.613-.1082.3605-.1713.4867-.3426.5318-.4778-.0541 0-.0991-.018-.0991-.036s.054-.036.1171-.036V8.62c.0091-.1352-.036-.4868-.8653-.4327-.8203.054-.8384.5589-.8384.5589s-.8293.5318-.3966 1.4333c.3786.8022 2.1544 1.2259 3.1821 1.6857 1.0186.4597.9555.8563.9555.8563 0 .3426-.6851.7031-1.226 1.0817-.5408.3786-1.6856 1.0367-1.6856 1.8119 0 .7122.7121 1.262 1.4062 1.875.7031.613.9285.9826.9285 1.3251 0 .4688-.7753 1.0998-1.1719 1.884-.3966.7843.3876 2.0012.1442 1.3612-.2524-.64-.1172-1.0908.2074-1.5415.3966-.5499 1.2439-1.0907 1.2439-1.8209 0-.6129-.8924-1.3341-.8924-1.3341-.7932-.7933-1.298-1.244-1.298-1.6406 0-.3966.3786-.7482 1.4423-1.4423 1.0546-.6851 1.6766-.9555 1.6766-1.6226 0-.5859-.2975-.7932-2.0552-1.6406Zm-1.3522-2.6592c.0901 0 .1623.045.1623.0991 0 .0541-.0722.0992-.1623.0992s-.1623-.045-.1623-.0992c0-.054.0722-.0991.1623-.0991Z"/></svg>