<svg xmlns="http://www.w3.org/2000/svg" fill="none" viewBox="0 0 16 16"><g fill="currentColor" clip-path="url(#history--16-a)"><path d="M6.3762.1673a8.0019 8.0019 0 0 1 5.5537.8643 8.0022 8.0022 0 0 1 3.6133 4.3047 8.002 8.002 0 0 1-.1084 5.6191 8.0017 8.0017 0 0 1-9.3613 4.8096 8.0036 8.0036 0 0 1-4.6319-3.1836A8.0007 8.0007 0 0 1 .0471 7.138c.0596-.549.5526-.9461 1.1016-.8867.5486.0598.946.5528.8867 1.1016a6.0024 6.0024 0 0 0 1.0459 4.0839 6.0023 6.0023 0 0 0 7.6611 1.9004 6.0022 6.0022 0 0 0 2.834-3.1211 6.0017 6.0017 0 0 0-2.6289-7.4423 6.0016 6.0016 0 0 0-6.3164.2617c.3892.1368.669.5064.669.9424-.0002.552-.448.9998-1 1H2.177c-.595-.0004-1.0781-.4831-1.0781-1.0782l.001-2.122c0-.5523.4477-1 1-1 .5195 0 .9464.3965.995.9033A8.0022 8.0022 0 0 1 6.3763.1673Z"/><path d="M8.0002 4.0003c.5522.0001 1 .4478 1 1v2.586l1.7071 1.707c.3902.3905.3904 1.0236 0 1.414-.3905.3904-1.0236.3903-1.4141 0L7.3664 8.7806a1.2507 1.2507 0 0 1-.3662-.8838V5.0003c0-.5523.4477-1 1-1Z"/></g><defs><clipPath id="history--16-a"><path fill="#fff" d="M0 0h16v16H0z"/></clipPath></defs></svg>