<svg xmlns="http://www.w3.org/2000/svg" fill="none" viewBox="0 0 24 24"><path fill="currentColor" d="M11.9089 1c.4789 0 .8707.4043.8899.9075l-.0025.2545-.0717.4345-.0133.044-.0141.0625-.0023.0672-.0402.4147-.0194.2604a4.327 4.327 0 0 0-.0076.2097l.0039.1753a.1.1 0 0 0 .019.0501l.1156.1178.0738.1596.0046.061c1.5417.182 3.0167.7913 4.2468 1.7595l.4696.4132c.0304.028.0593.0549.0874.0815l.1624.159.074-.0494.1387-.0422h.0413l.1119.0265-.017-.0061.0291.0003c.0099 0 .0245-.0048.0435-.0175.1817-.1264.3703-.2884.5727-.4906l.2468-.2515.0526-.0495.0459-.0511.0668-.0801.0732-.0807.1676-.169.0827-.0644.0756-.0703.034-.0236c.1818-.1228.3635-.1872.563-.1872.2683 0 .5287.1226.6734.3263.2827.3693.2109.9133-.152 1.2526l-.0241.0216-.0074.013-.1395.1147-.1246.0832-.0904.0555-.1972.1098-.1217.064-.3852.2382-.2195.1438a3.8664 3.8664 0 0 0-.168.1206l-.1293.106c-.0335.0421-.0463.0807-.048.1318l-.0004.0654-.0828.1853-.0496.0449a8.8112 8.8112 0 0 1 1.076 2.6162 8.494 8.494 0 0 1 .1738 2.8045l.2104.065.0227.1089.0266.0548c.0204.0373.0343.0509.0586.0628.2095.0657.4378.1081.7557.1445l.2852.0308.0814.0075a.4048.4048 0 0 0 .0862.0125l.1473.0034.129.012c.0237.0028.0487.0061.0756.0098l.4743.1093c.3867.159.6604.5353.65.9592-.1169.3817-.4873.6546-.9025.6546l-.0545-.0006c-.0348-.0011-.1558-.0249-.363-.0713-.1554-.0446-.2732-.091-.3822-.1485l-.0305-.0113-.1302-.0615.0539.0027-.1066-.0153-.3173-.1146-.2921-.0943a3.0774 3.0774 0 0 0-.2416-.0609l-.1373-.0262h-.0413a.064.064 0 0 0-.0287.0055l-.2196.1115-.1027.0041-.0376-.0063c-.1333.3829-.4083.9557-.8251 1.7184-.683 1.0897-1.5755 1.9897-2.6247 2.6461l.0204.0492.0139.1482-.0206.0657-.0092.0139-.0188.081c-.0073.0355-.0071.0568-.0002.0819.0572.1724.1534.3558.3172.6173l.193.3015.2195.3085.0699.1034c.017.0288.0906.1409.1371.2342l.0423.0885c.0855.2006.0934.4248.0386.645-.0565.2271-.2136.4074-.4407.5373-.1164.0585-.2371.0888-.3597.0888-.2934 0-.5743-.1449-.754-.3873l-.0971-.1493-.0258-.0594-.0563-.0981-.054-.1336-.0764-.2571-.1499-.4472c-.1336-.3618-.2214-.5691-.3167-.7379-.0379-.0571-.0563-.0691-.1095-.0798l-.0398-.0191-.1079-.0096-.0871-.1604c-.3015.1-.5967.1822-.8949.2487-.5745.1443-1.2083.2151-1.8579.2151a8.299 8.299 0 0 1-2.781-.4815l-.0795.1388-.021.0209-.064.0436-.0438.0133-.0865.0387c-.031.0151-.0461.0272-.0603.0485-.1037.162-.1828.3417-.288.6387l-.119.3424-.0601.1812-.0752.2454-.0312.0836-.059.1203-.0502.0838-.013.0366-.0174.0305C7.9678 22.8022 7.648 23 7.323 23a.7873.7873 0 0 1-.3536-.0858c-.4301-.2016-.6018-.7263-.4018-1.1986l.282-.4599.1808-.262.1985-.3169c.1447-.2396.2403-.4232.308-.5909.0124-.0435.0095-.0726-.0037-.1051l-.032-.0737-.0057-.0196-.0226-.0442-.0022-.0103.0177-.1569.0306-.0665c-.2772-.1728-.5014-.3278-.7225-.5022-1.2456-.9846-2.1973-2.3228-2.7245-3.8284l-.1675.0172-.0654-.0207-.0203-.0148c.0175.008-.019-.0138-.1098-.0653l-.039-.0173-.0343-.003c-.2024.0254-.4258.0862-.7333.1942l-.2926.0936.0016.0038-.1756.0781c-.1418.0712-.2596.1175-.4426.1684l-.296.0643-.0757.0013c-.446 0-.818-.2657-.9068-.6822-.085-.455.2093-.9122.6768-1.0461.0372-.022.175-.0489.4137-.0807.107-.0144.1881-.0215.1917-.0086.0679-.0227.1371-.031.227-.0332l.055.0007.3319-.0342.2902-.0383c.171-.0264.3002-.055.4059-.0889.049-.0246.0779-.0512.102-.0912a.25.25 0 0 1 .0224-.0508l.0208-.0996.2081-.0643c-.2081-1.7999.1537-3.5926 1.0332-5.1208l.179-.2994-.051-.046-.0828-.1867-.001-.1068c-.0021-.036-.0076-.047-.0212-.0608-.1242-.1145-.273-.2244-.4763-.356l-.4965-.311a.544.544 0 0 0-.0855-.0406 3.2088 3.2088 0 0 1-.3249-.188l-.0707-.048-.0675-.0542-.0412-.0252-.0264-.0232-.0199-.01-.028-.0252c-.3591-.3358-.431-.8799-.1535-1.242.15-.2108.4103-.3334.6787-.3334.2072 0 .4146.0711.5846.2003l.0253.0201.1665.1442c.2107.2175.3297.3416.3571.3722l.0433.0498.3138.3276c.1871.1868.3408.3206.4866.422.0227.0152.0372.02.0472.02l.091-.0184.0661-.0021.1516.0453.0321.0225c1.114-1.123 2.5106-1.8956 4.067-2.2408a6.882 6.882 0 0 1 .5763-.102l.3599-.0452.0048-.0626.072-.1579.1088-.109c.0168-.0194.0237-.0335.027-.0562.0181-.1458.0149-.3115-.0068-.5417l-.0567-.5434-.0225-.1253-.0445-.164a1.503 1.503 0 0 1-.036-.2898l.0002-.259c.01-.2363.098-.4486.2583-.6096.1735-.1743.4013-.2811.6313-.2811Zm.0466 10.1c-.8289 0-1.5008.6749-1.5008 1.5075 0 .8325.6719 1.5074 1.5008 1.5074.8288 0 1.5007-.6749 1.5007-1.5074 0-.8326-.6719-1.5075-1.5007-1.5075Zm-.2537 4.8153-.0643.0519-1.4655 2.6646c.5721.154 1.1467.2344 1.7162.2344.362 0 .7242-.0345 1.0981-.1012l.2828-.0562.2927-.0792-1.4165-2.5742-.0186-.024c-.0468-.0583-.1012-.1074-.1517-.138-.0812-.0445-.1836-.0354-.2732.0219Zm-2.59-1.4037-2.9727.5065c.4133.9901 1.0715 1.8561 1.8952 2.5084l.2287.1726 1.1385-2.7555.0178-.0684c.0038-.0341.0018-.0736-.0058-.1211-.0332-.1445-.1624-.2464-.3018-.2425Zm5.5256-.019-.0596.0058a.345.345 0 0 0-.0988.0296.3031.3031 0 0 0-.1693.2688l.0062.0677 1.1756 2.8328c.6733-.4877 1.2317-1.0768 1.6645-1.7721.1565-.2297.2854-.4586.3874-.6908l.0932-.2334-2.9992-.5084Zm2.7034-4.8988-2.2597 2.0443c-.0253.0255-.0468.066-.0563.1033-.0291.1367.0298.27.135.3352l.0562.0266 2.8887.835a6.302 6.302 0 0 0-.1598-1.7122c-.1333-.5859-.3374-1.1352-.6041-1.6322ZM6.415 9.5915l-.143.2803c-.4073.8508-.62 1.7899-.626 2.7463l.0057.3193 2.9236-.8518c.0338-.0068.0659-.0289.1033-.0787.0825-.1012.0898-.2472.0303-.3481l-.0436-.0544L6.415 9.5915Zm4.3998-3.158-.3376.0636c-.9322.2135-1.7819.6294-2.5056 1.224l-.2365.2047 2.4947 1.7901c.0113.0076.0641.02.1091.02.1346 0 .2474-.0884.2905-.217l.0156-.0674.1698-3.018Zm2.1456.0075.1673 3.0495c.0166.0642.0259.0846.049.1093.0817.1005.2062.1378.3144.1084l.0624-.0258 2.4664-1.7571a6.003 6.003 0 0 0-2.728-1.4211l-.2789-.0556-.0526-.0076Z"/></svg>