<svg xmlns="http://www.w3.org/2000/svg" fill="none" viewBox="0 0 16 16"><path fill="currentColor" d="M7.9684 0c.5083 0 .9159.4187.936.9444l-.0047.2176-.0061.0422-.0588.3186-.0404.449-.0078.1597.0856.0857c.9251.1445 1.8108.5025 2.5876 1.0501l.2549.1895.3438.302h.1142c.11-.0857.2289-.196.3619-.336l.0972-.0928.0732-.0874.1608-.168.0737-.053-.0209.0085.0257-.025.0509-.0388.0378-.0334.1334-.083c.1437-.0769.2957-.1188.4613-.1188.2851 0 .5637.1306.72.35.2954.384.2294.9298-.1249 1.2771a.249.249 0 0 1-.051.0563l-.0893.0699-.0508.0355c-.105.07-.1923.1216-.2393.1408a.949.949 0 0 1-.1081.0619l-.1805.108-.3196.2063-.0011.1729a6.2845 6.2845 0 0 1 .6358 1.638 6.0618 6.0618 0 0 1 .1475 1.7407l.104.1567c.0583.0126.1229.0237.1988.0341l.2668.0305.0208.003.1213.0149.0195-.0009.1262.005.212.0282.5137.1927c.2717.1864.4505.4872.4505.795l-.0221.147c-.1224.3978-.5029.6768-.9333.6768l-.0442-.0006a.7367.7367 0 0 1-.1205-.0132l-.0871-.0215-.0097-.0052-.1103-.021c-.1257-.0359-.225-.0748-.2741-.105l-.067-.0257-.0619-.0295-.0255-.0058-.306-.1077-.1612-.0471-.0675-.0154-.0787.0398a5.9865 5.9865 0 0 1-.3458.7415l-.1776.2979c-.4521.7181-1.0328 1.3223-1.7135 1.7825l-.0081.0386-.0183.0574c.0318.0735.081.1609.1638.2925l.1836.2839.1122.1487.0839.1307.1049.2036v.0113c.0738.1965.0777.4065.0273.6081-.0627.2505-.2296.4414-.4727.5793a.872.872 0 0 1-.3925.0951c-.2897 0-.5649-.1337-.752-.3636l-.1131-.1604-.0335-.0692-.0273-.0493a1.0262 1.0262 0 0 1-.0648-.1595l-.0393-.1355-.0497-.1505-.0039-.024-.132-.35-.0612-.1442-.161-.0515a6.2253 6.2253 0 0 1-.3696.0942c-.419.1047-.8776.1557-1.346.1557a6.0146 6.0146 0 0 1-1.4942-.1895l-.29-.0824-.0758.0484-.0357.0121c-.0298.0552-.0586.1208-.0918.2081l-.1145.3231-.1124.347-.029.0719-.0626.0924-.0194.0575-.0152.0265c-.1763.294-.4988.4927-.841.4927a.8555.8555 0 0 1-.3804-.0892c-.4437-.207-.6272-.7229-.4575-1.1902v-.0164l.034-.0626.0689-.1333.158-.232.0202-.0251.0807-.1209a7.5654 7.5654 0 0 0 .1952-.3159l.0797-.1468-.0173-.0346v-.0307l-.017-.0773a5.092 5.092 0 0 1-.3271-.2365c-.836-.6577-1.4878-1.5347-1.881-2.5255H2.368l-.088-.059c-.0698.0144-.1493.0367-.2495.0697l-.2811.0994-.0197.0035-.1526.0698a1.69 1.69 0 0 1-.183.0683l-.1627.0485-.0947.0223-.073.0111-.0648.0039-.1529-.0054c-.4037-.0421-.7418-.3118-.8304-.7259-.0797-.4253.152-.845.545-1.0304l.1745-.0704.0631-.016.1309-.0193.1942-.0257.0774-.0059a.9851.9851 0 0 1 .1653-.0153l.3217-.0317.2054-.0298.1008-.1618c-.0843-1.1832.176-2.3539.7585-3.3806l-.0001-.1658a2.4382 2.4382 0 0 0-.134-.0948l-.375-.2355-.0452-.0212a2.5269 2.5269 0 0 1-.2552-.147l.0158.0062-.0664-.0385-.0572-.0444-.1085-.0835c-.3644-.3391-.4385-.8984-.1482-1.2753.1668-.2336.4455-.3643.7307-.3643.1708 0 .34.0461.4923.1338.14.1036.2213.1655.2437.1855l.1503.152.0564.0634.0747.0743.2401.2521.1385.13c.021.0185.0412.0355.0606.0511l.0693-.0004c.778-.7291 1.7317-1.2335 2.786-1.4663.143-.0317.278-.055.4457-.0776l.0876-.0875-.0041-.1186-.043-.432-.0131-.0769-.0293-.1083a1.365 1.365 0 0 1-.0323-.26L7.033.92c.0102-.2407.1029-.4634.2722-.6327C7.4819.1104 7.7185 0 7.9683 0Zm.0315 9c.5523 0 1-.4478 1-1 0-.5524-.4477-1-1-1s-1 .4476-1 1c0 .5522.4477 1 1 1Zm-.0578 1.8781-.6553 1.1861c.2235.0376.4464.0568.6675.0568.143 0 .2866-.0086.4292-.0246l.2128-.0295-.6542-1.1888ZM5.8729 9.8623l-1.3495.2291c.1725.3131.386.6005.6328.8535l.1911.1831.5256-1.2657Zm4.1393-.0135.5336 1.2787a3.9092 3.9092 0 0 0 .5999-.6683l.1885-.2841.0566-.0937-1.3786-.2326Zm1.5486-3.1472-1.0129.912 1.3093.3765a3.9273 3.9273 0 0 0-.0966-.6495 4.2087 4.2087 0 0 0-.1998-.639ZM4.3325 6.696l-.0928.2488a4.0354 4.0354 0 0 0-.1776.7775l-.025.2666 1.3185-.3816-1.023-.9113Zm2.537-2.2657-.2586.0827a3.7927 3.7927 0 0 0-.7228.3491l-.2214.149 1.1249.8036.0779-1.3844Zm2.1658.0046.07 1.3706 1.1204-.7954a3.7678 3.7678 0 0 0-.9367-.4942l-.2537-.081Z"/></svg>