<svg xmlns="http://www.w3.org/2000/svg" fill="none" viewBox="0 0 32 32"><path fill="currentColor" d="M3.5728 19.6754 7.2313 5.2051C7.5694 3.9588 8.8174 3 10.096 3h11.808c1.2803 0 2.5265.9585 2.8646 2.2051l3.6561 14.4601c.3673.6966.5753 1.4915.5753 2.337v1.9956C29 26.7604 26.7608 29 24.0023 29H7.9977C5.2375 29 3 26.771 3 23.9978v-1.9956c0-.84.207-1.6317.5728-2.3268Zm22.1882-2.3581L22.8343 5.742c-.0988-.3643-.5522-.713-.9303-.713H10.096c-.3768 0-.8317.3494-.9303.713L6.2385 17.3189A4.9813 4.9813 0 0 1 7.9977 17h16.0046c.619 0 1.2117.1121 1.7587.3173ZM5 22.0022v1.9956C5 25.6625 6.3382 27 7.9977 27h16.0046C25.6565 27 27 25.6556 27 23.9978v-1.9956C27 20.3375 25.6618 19 24.0023 19H7.9977C6.3435 19 5 20.3444 5 22.0022ZM23 24c.5523 0 1-.4477 1-1s-.4477-1-1-1-1 .4477-1 1 .4477 1 1 1ZM8 23c0-.5523.4463-1 .9975-1h7.005A.9963.9963 0 0 1 17 23c0 .5523-.4463 1-.9975 1h-7.005A.9963.9963 0 0 1 8 23Z"/></svg>