<svg xmlns="http://www.w3.org/2000/svg" fill="none" viewBox="0 0 24 24"><path fill="currentColor" d="M13.336 21.008c.02.05.049.098.07.148.105.272.227.535.368.786.01.019.017.039.027.058H1.992C1.444 22 1 21.545 1 21.008V2.992C1 2.444 1.455 2 1.992 2h20.016c.548 0 .992.455.992.992v11.527c-.057-.049-.113-.089-.169-.136-.014-.011-.028-.022-.041-.033-.264-.214-.527-.408-.79-.563-.333-.197-.667-.347-1-.45V10H3v4h12.671c-.057.042-.107.084-.162.126a6.002 6.002 0 0 0-.847.736c-.033.034-.074.067-.105.099-.065.069-.114.138-.173.207l-.023.028c-.228.268-.423.536-.56.804H3v4h10.083c.036.339.12.675.253 1.008ZM3 4v4h18V4H3Zm15 2c0-.552.448-1 1-1s1 .448 1 1-.448 1-1 1-1-.448-1-1Zm-3 0c0-.552.448-1 1-1s1 .448 1 1-.448 1-1 1-1-.448-1-1ZM4 6c0-.552.448-1 1-1s1 .448 1 1-.448 1-1 1-1-.448-1-1Zm9 7c-.552 0-1-.448-1-1s.448-1 1-1 1 .448 1 1-.448 1-1 1Zm-8 0c-.552 0-1-.448-1-1s.448-1 1-1 1 .448 1 1-.448 1-1 1Zm0 6c-.552 0-1-.448-1-1s.448-1 1-1 1 .448 1 1-.448 1-1 1Zm14-8c.552 0 1 .448 1 1s-.448 1-1 1-1-.448-1-1 .448-1 1-1Zm-4 1c0-.552.448-1 1-1s1 .448 1 1-.448 1-1 1-1-.448-1-1Zm8.9596 6.396c.0266.2012.0404.404.0404.604 0 .2-.0138.4028-.04.6044-.0529.3931-.3988.6895-.8054.6895a.8288.8288 0 0 1-.2838-.0502c-.2091-.0759-.4196.0313-.5046.2148a3.5324 3.5324 0 0 1-.3716.622c-.1288.1727-.105.3992.0558.5265.1917.1526.2988.3767.2938.616-.005.2426-.1242.4662-.3259.614-.332.243-.695.4445-1.0779.6a.853.853 0 0 1-.3217.063c-.3991-.0004-.7358-.2735-.8008-.6501-.0341-.198-.2287-.3309-.4479-.3097a3.6707 3.6707 0 0 1-.7396 0c-.2187-.0208-.4137.1117-.4479.3097-.065.3766-.4017.6501-.8008.6501a.8566.8566 0 0 1-.3221-.063 5.0607 5.0607 0 0 1-1.0779-.6c-.2021-.1478-.3209-.3714-.3259-.6144-.005-.2389.1021-.4634.2938-.6152.1604-.1277.185-.3542.0558-.5273a3.5304 3.5304 0 0 1-.3712-.622c-.085-.1831-.3121-.2851-.5-.2164-.5038.1811-1.0288-.1518-1.0938-.6377A4.5843 4.5843 0 0 1 14 19c0-.2012.0138-.4048.04-.604.0529-.3931.3988-.6895.8054-.6895a.838.838 0 0 1 .2838.0498c.2095.0759.4195-.0317.5045-.2148a3.539 3.539 0 0 1 .3717-.622c.1288-.1727.105-.3992-.0558-.5265-.1917-.1526-.2988-.3767-.2938-.616.005-.2426.1238-.4662.3254-.614a5.0396 5.0396 0 0 1 1.0784-.6.853.853 0 0 1 .3217-.063c.3991 0 .7358.2735.8008.6501.0341.198.2296.3325.4479.3097a3.6707 3.6707 0 0 1 .7396 0c.2191.0228.4137-.1117.4479-.3097.065-.3766.4017-.6501.8008-.6501a.8566.8566 0 0 1 .3221.063 5.0607 5.0607 0 0 1 1.0779.6c.2021.1478.3209.3714.3259.6144.005.2389-.1021.4634-.2938.6152-.1604.1277-.185.3542-.0558.5273.145.1943.2696.4035.3712.622.085.1831.3117.2851.5.2164.5029-.1815 1.0284.1514 1.0938.6377ZM19 20.5c.8272 0 1.5-.6728 1.5-1.5s-.6728-1.5-1.5-1.5-1.5.6728-1.5 1.5.6728 1.5 1.5 1.5Z"/></svg>