<svg xmlns="http://www.w3.org/2000/svg" fill="none" viewBox="0 0 32 32"><path fill="currentColor" fill-rule="evenodd" d="M13.417 2.7239c1.8243-1.104 3.9194-.6717 5.4736.1719l6.8174 3.7001c1.9745 1.0717 3.2039 3.1416 3.2041 5.3907v7.9931c0 .0097-.0009.0195-.001.0293.0001.003.001.0059.001.0088 0 .0084-.0009.0171-.001.0254-.0003.025-.0003.0508-.0009.0762-.0005.0157-.0028.0313-.004.0469-.0528 2.1906-1.267 4.192-3.1982 5.2392l-6.8184 3.6973a6.102 6.102 0 0 1-5.8183 0l-6.8184-3.6973a6.0636 6.0636 0 0 1-.4883-.2949c-.009-.0061-.0175-.0132-.0263-.0195-1.8712-1.1419-2.6503-3.1552-2.6504-5.1787v-7.9043c.0003-2.2294 1.2307-4.2753 3.1982-5.336l7.0313-3.9004c.0326-.018.066-.0337.0996-.0478Zm7.8252 13.1357c0 2.2483-1.2294 4.3177-3.2041 5.3887l-6.8184 3.6973a6.1114 6.1114 0 0 1-.8945.3935l3.6992 2.0059a4.1027 4.1027 0 0 0 3.9121 0l6.8184-3.6973c1.3076-.7091 2.1291-2.0704 2.1543-3.5596-.0433-1.5127-.9077-2.8834-2.2569-3.5674l-3.4101-1.7294v1.0683ZM7.2559 8.4211c-.004.0023-.0087.0047-.0127.0069-1.3308.7136-2.155 2.0897-2.1553 3.5801v7.9043c0 1.5373.5738 2.7916 1.709 3.4794a4.101 4.101 0 0 0 3.4697-.205l3.6602-1.9854-.0752-.042c-1.9354-1.0762-3.1328-3.1263-3.1328-5.3476v-2.419c0-.0393.0024-.0781.0068-.1162a.9957.9957 0 0 1-.0068-.1123V7.803c0-.475.056-.9422.1611-1.3936l-3.624 2.0117Zm10.5781 4.6436a4.0993 4.0993 0 0 0-3.708 0l-1.4072.7129v2.0342c0 1.5019.8096 2.8805 2.1044 3.6006l1.1866.6591 1.0742-.582c1.3283-.7204 2.1582-2.1134 2.1582-3.6299v-2.082l-1.4082-.7129Zm.1025-8.4111c-1.2272-.6662-2.5084-.8083-3.4844-.2188-1.0783.768-1.7332 2.02-1.7333 3.3682v3.7324l.5029-.2549a6.0997 6.0997 0 0 1 5.5166 0l6.8183 3.457.3702.2032c.3557.2123.685.4584.9853.7324v-3.6865c-.0002-1.5178-.8294-2.912-2.1572-3.6328l-6.8184-3.7002Z" clip-rule="evenodd"/></svg>