<svg xmlns="http://www.w3.org/2000/svg" fill="none" viewBox="0 0 16 16"><path fill="currentColor" fill-rule="evenodd" d="M6.4463.5689c1.125-.666 2.3825-.3827 3.2676.0976l3.6494 1.9805c1.1747.6376 1.9051 1.869 1.9053 3.206v4.2784c.0001.0068.0009.0136.0009.0205 0 1.3368-.7315 2.5679-1.9062 3.205l-3.6494 1.9786a3.6311 3.6311 0 0 1-3.462 0l-3.6494-1.9786a3.6287 3.6287 0 0 1-.291-.1757c-.0073-.0049-.0143-.0106-.0215-.0157-1.1227-.6956-1.574-1.9036-1.5742-3.0693V5.8657c0-1.3273.7324-2.5443 1.9004-3.1757L6.38.602A.9204.9204 0 0 1 6.4463.569Zm4.7168 7.3798c-.0081 1.3282-.7371 2.549-1.9053 3.1827l-3.4922 1.8935 1.3438.7285a1.8315 1.8315 0 0 0 1.746 0l3.6495-1.9785c.5766-.3128.9422-.9109.9619-1.5674-.0168-.6795-.4034-1.2951-1.0078-1.6015l-1.2959-.6573ZM3.4893 4.2642l-.0118.0058c-.595.3192-.9609.9335-.9609 1.5957v4.2305c0 .7143.2548 1.2386.7041 1.5293a1.8295 1.8295 0 0 0 1.5293-.0977l1.4268-.7744a3.6434 3.6434 0 0 1-1.376-2.8525v-1.295c0-.023.0012-.0457.003-.0683-.0012-.0178-.003-.0357-.003-.0537V3.6138c0-.0264.0014-.0528.002-.0791l-1.3135.7295Zm5.3203 2.4912a1.8305 1.8305 0 0 0-1.6553 0l-.5527.2803v.8652c0 .6726.3622 1.288.9384 1.6084l.461.2559.3984-.2159c.593-.3217.9639-.9449.9639-1.623v-.8906l-.5537-.2803Zm.0459-4.5069c-.5918-.3211-1.1248-.3462-1.4922-.1308a1.8485 1.8485 0 0 0-.7617 1.496v1.418A3.6287 3.6287 0 0 1 9.623 5.15l3.6504 1.8506c.0666.0337.1315.07.1954.1074V5.853c-.0002-.679-.3711-1.3022-.9639-1.624L8.8555 2.2485Z" clip-rule="evenodd"/></svg>