<svg xmlns="http://www.w3.org/2000/svg" fill="none" viewBox="0 0 16 16"><g fill="currentColor" clip-path="url(#nas-included--16-a)"><path d="M0 2c0-.5523.4477-1 1-1h14c.5523 0 1 .4477 1 1v8.1886c-.2782-.1316-.5833-.1886-.8851-.1886H14V3H2v7h9.7469c-.6136 0-1.101.2519-1.465.6279l-.0327.0337L9.1767 12H9v.2205l-.047.0587c-.643.7026-.643 1.739 0 2.4416L9.1766 15H5c-.5523 0-1-.4477-1-1s.4477-1 1-1h2v-1H1c-.5523 0-1-.4477-1-1V2Z"/><path d="M4 4c-.5523 0-1 .4477-1 1v3c0 .5523.4477 1 1 1s1-.4477 1-1V5c0-.5523-.4477-1-1-1ZM6 5c0-.5523.4477-1 1-1s1 .4477 1 1v3c0 .5523-.4477 1-1 1s-1-.4477-1-1V5ZM12 6c.5523 0 1-.4477 1-1s-.4477-1-1-1-1 .4477-1 1 .4477 1 1 1Z"/><path fill-rule="evenodd" d="M11.0003 11.3235c.1983-.2048.4347-.3235.7466-.3235h3.368c.5768 0 .8854.3424.8854.8333v3.3334c0 .4909-.3086.8333-.8854.8333h-3.368c-.3119 0-.5483-.1187-.7466-.3235l-1.2912-1.6111c-.3179-.3284-.3179-.8024 0-1.1308l1.2912-1.6111ZM12 13.5a.5.5 0 1 1-1 0 .5.5 0 0 1 1 0Z" clip-rule="evenodd"/></g><defs><clipPath id="nas-included--16-a"><path fill="#fff" d="M0 0h16v16H0z"/></clipPath></defs></svg>