<svg xmlns="http://www.w3.org/2000/svg" fill="none" viewBox="0 0 24 24"><g fill="currentColor" clip-path="url(#nas-included--24-a)"><path d="M4 5c0-.5523.4477-1 1-1s1 .4477 1 1v6c0 .5523-.4477 1-1 1s-1-.4477-1-1V5ZM18 5c0 .5523.4477 1 1 1s1-.4477 1-1-.4477-1-1-1-1 .4477-1 1ZM7 5c0-.5523.4477-1 1-1s1 .4477 1 1v6c0 .5523-.4477 1-1 1s-1-.4477-1-1V5ZM10 5c0-.5523.4477-1 1-1s1 .4477 1 1v6c0 .5523-.4477 1-1 1s-1-.4477-1-1V5Z"/><path fill-rule="evenodd" d="M22 1H2c-.5523 0-1 .4477-1 1v12c0 .5523.4477 1 1 1h9v2.2676a2.0095 2.0095 0 0 0-.7324.7324H5c-.5523 0-1 .4477-1 1s.4477 1 1 1h5.2676c.3419.5912.9778.9911 1.7078.9999-.5801-1.2207-.415-2.687.4952-3.7678L13 16.5172V15h1.1237l.5053-.6824.0618-.069C15.3345 13.5293 16.2439 13 17.4232 13l5.104.0001c.1577 0 .3157.009.4728.0276V2c0-.5523-.4477-1-1-1Zm-4.5768 12H3V3h18v10h-3.5768Z" clip-rule="evenodd"/><path fill-rule="evenodd" d="M16.1811 15.5823c.33-.3687.7233-.5823 1.2421-.5823l5.104.0001c.9594 0 1.4728.6163 1.4728 1.5v6c0 .8836-.5134 1.5-1.4728 1.5L17.4232 24c-.5188 0-.9121-.2136-1.2421-.5823l-2.1477-2.9c-.5289-.591-.5289-1.4443 0-2.0353l2.1477-2.9001Zm1.7365 3.936c0 .5538-.449 1.0028-1.0028 1.0028-.5538 0-1.0027-.449-1.0027-1.0028 0-.5537.4489-1.0027 1.0027-1.0027.5538 0 1.0028.449 1.0028 1.0027Z" clip-rule="evenodd"/></g><defs><clipPath id="nas-included--24-a"><path fill="#fff" d="M0 0h24v24H0z"/></clipPath></defs></svg>