<svg xmlns="http://www.w3.org/2000/svg" fill="none" viewBox="0 0 24 24"><path fill="currentColor" d="M11 17H4c-.5523 0-1-.4477-1-1V3c0-.5523.4477-1 1-1h8a1 1 0 0 1 .9487.6838L13.7208 5H20c.5523 0 1 .4477 1 1v10c0 .5523-.4477 1-1 1h-7v2.2676c.3036.1756.5568.4288.7324.7324H19c.5523 0 1 .4477 1 1s-.4477 1-1 1h-5.2676c-.3458.5978-.9921 1-1.7324 1s-1.3866-.4022-1.7324-1H5c-.5523 0-1-.4477-1-1s.4477-1 1-1h5.2676A2.0095 2.0095 0 0 1 11 19.2676V17ZM5 4v4h14V7h-6a1 1 0 0 1-.9487-.6838L11.2792 4H5Zm0 6v5h14v-5H5Z"/></svg>