<svg xmlns="http://www.w3.org/2000/svg" fill="none" viewBox="0 0 16 16"><g fill="currentColor" clip-path="url(#new-chat--16-a)"><path d="M7 0c.5523 0 1 .4477 1 1s-.4477 1-1 1H2.4004A.4007.4007 0 0 0 2 2.4004v11.1992c0 .2209.1795.4004.4004.4004h11.1992A.4007.4007 0 0 0 14 13.5996V9c0-.5523.4477-1 1-1s1 .4477 1 1v4.5996C16 14.9251 14.9251 16 13.5996 16H2.4004C1.0749 16 0 14.9251 0 13.5996V2.4004C0 1.0749 1.075 0 2.4004 0H7Z"/><path fill-rule="evenodd" d="M11.7764.3428c.41-.4099 1.0743-.4099 1.4843 0L15.665 2.747c.4099.41.4099 1.0743 0 1.4843L9.1836 10.713a1.0528 1.0528 0 0 1-.5117.2822l-3.1045.7002c-.752.1692-1.424-.5028-1.2549-1.2549l.7002-3.1054a1.053 1.053 0 0 1 .2822-.5118L11.7764.3428ZM6.9043 8.043 6.5947 9.412l1.3701-.3086 5.6143-5.6142-1.0605-1.0606L6.9043 8.043Z" clip-rule="evenodd"/></g><defs><clipPath id="new-chat--16-a"><path fill="#fff" d="M0 0h16v16H0z"/></clipPath></defs></svg>