<svg xmlns="http://www.w3.org/2000/svg" fill="none" viewBox="0 0 24 24"><path fill="currentColor" d="M12 2c.5523 0 1 .4477 1 1s-.4477 1-1 1H5c-.5523 0-1 .4477-1 1v14c0 .5523.4477 1 1 1h14c.5523 0 1-.4477 1-1v-7c0-.5523.4477-1 1-1s1 .4477 1 1v7c0 1.6569-1.3431 3-3 3H5c-1.6568 0-3-1.3431-3-3V5c0-1.6568 1.3432-3 3-3h7Zm5.1182.293c.3905-.3905 1.0235-.3905 1.414 0l3.1699 3.169c.3905.3903.3902 1.0234 0 1.414l-8.875 8.875a1.001 1.001 0 0 1-.4814.2666l-4.121.9512a1.0007 1.0007 0 0 1-1.1992-1.1993l.951-4.1201a1.0018 1.0018 0 0 1 .2676-.4824l8.8741-8.874ZM9.8613 12.3789l-.5273 2.2813 2.2822-.5264 7.9649-7.9649-1.7559-1.7548-7.9639 7.9648Z"/></svg>