<svg xmlns="http://www.w3.org/2000/svg" fill="none" viewBox="0 0 32 32"><path fill="currentColor" fill-rule="evenodd" d="M3 4c0-.5523.4477-1 1-1h7.7771c.893 0 1.6777.592 1.923 1.4505L14.1428 6H27c1.1045 0 2 .8954 2 2v15c0 1.1045-.8955 2-2 2H17v2h11c.5523 0 1 .4477 1 1s-.4477 1-1 1H4c-.5523 0-1-.4477-1-1s.4477-1 1-1h11v-2H5c-1.1046 0-2-.8955-2-2V4Zm21.0863 15.461c.4349-.4473.6523-1.0916.6523-1.9328 0-.5253-.1191-.9931-.3575-1.4035-.2342-.4104-.6503-.8126-1.2483-1.2065-.4432-.2873-.7548-.5438-.9346-.7695-.1756-.2257-.2634-.4904-.2634-.794 0-.3078.0731-.5499.2195-.7264.1505-.1806.3638-.2708.6398-.2708.2509 0 .4851.0451.7026.1354a5.295 5.295 0 0 1 .6335.3078l.5645-1.342c-.6481-.3857-1.3235-.5786-2.026-.5786-.736 0-1.3236.2257-1.7627.6771-.4349.4514-.6523 1.0629-.6523 1.8344 0 .4022.0543.7551.1631 1.0588.1129.3036.2697.5786.4704.8248.2049.2421.5039.4966.897.7633.4516.3037.7757.5807.9723.831.1965.2462.2948.5191.2948.8187 0 .3037-.0836.5437-.2509.7202-.1631.1765-.4077.2647-.7339.2647-.5729 0-1.2023-.2196-1.8881-.6587v1.6559c.5604.3078 1.2399.4617 2.0386.4617.8155 0 1.4386-.2237 1.8693-.671Zm-10.4001.5479h-2.0826l-2.8352-6.5188h-.0816c.1046.4965.1569 1.03.1569 1.6004v4.9184H7.2629v-8.9995H9.358l2.8102 6.451h.069c-.0795-.4309-.1192-.9438-.1192-1.5389v-4.9121h1.5682v8.9995Zm1.6183 0h1.6936v-3.6072H19.25v-1.4466h-2.2519v-2.4992h2.415v-1.4465h-4.1086v8.9995Z" clip-rule="evenodd"/></svg>