<svg xmlns="http://www.w3.org/2000/svg" fill="none" viewBox="0 0 24 24"><path fill="currentColor" d="M6 1h7.8156c1.2454 0 2.446.4648 3.3667 1.3033l4.1844 3.811A4.9998 4.9998 0 0 1 23 9.8108V18c0 2.7614-2.2386 5-5 5H6c-2.7614 0-5-2.2386-5-5V6c0-2.7614 2.2386-5 5-5Zm3.5508 14V9.289h-.8555v2.9922c0 .211.0078.5046.0235.8809.0156.3763.026.5944.0312.6543h-.0234L5.9258 9.2891H4.793V15h.8476v-2.9688c0-.401-.0182-.8437-.0547-1.3281l-.0195-.2539h.0313L8.4063 15h1.1445Zm2.4336 0v-2.3438h2.1523v-.7929h-2.1523v-1.7852h2.2968v-.789h-3.2226V15h.9258Zm6.625-1.5508c0-.2578-.0456-.4818-.1367-.6719-.0912-.1901-.2344-.3606-.4297-.5117-.1953-.151-.5026-.3138-.9219-.4883-.3724-.1536-.6302-.2773-.7734-.3711-.1433-.0937-.2461-.1933-.3086-.2988-.0625-.1054-.0938-.2324-.0938-.3808 0-.2162.0781-.39.2344-.5215.1562-.1315.3854-.1973.6875-.1973.3984 0 .8515.1068 1.3594.3203l.2968-.7617c-.5416-.2396-1.0859-.3594-1.6328-.3594-.5703 0-1.0247.1367-1.3633.4102-.3385.2734-.5078.6484-.5078 1.125 0 .3802.1068.7057.3203.9766.2136.2708.5808.5117 1.1016.7226.5052.2031.8385.3789 1 .5274.1615.1484.2422.3294.2422.5429 0 .237-.0879.4258-.2637.5664-.1758.1407-.4485.211-.8183.211-.2526 0-.5254-.0352-.8184-.1055a4.3086 4.3086 0 0 1-.8301-.2891v.8828c.4115.2006.9401.3008 1.586.3008.6458 0 1.1523-.1445 1.5195-.4336.3672-.289.5508-.6875.5508-1.1953Z"/></svg>