<svg xmlns="http://www.w3.org/2000/svg" fill="none" viewBox="0 0 16 16"><path fill="currentColor" fill-rule="evenodd" d="M14 0c.5523 0 1 .4477 1 1v2c0 .5523-.4477 1-1 1h-1v9.5c0 1.3807-1.1193 2.5-2.5 2.5h-4C5.1193 16 4 14.8807 4 13.5V11h-.5a.5.5 0 0 1-.5-.5v-5a.5.5 0 0 1 .5-.5H4V4H2c-.5523 0-1-.4477-1-1s.4477-1 1-1h11V1c0-.5523.4477-1 1-1ZM6 13.5a.5.5 0 0 0 .5.5h4a.5.5 0 0 0 .5-.5v-1.5996H9a.9008.9008 0 0 1-.6367-.2637A.9008.9008 0 0 1 8.0996 11l.001-7H6v9.5Zm3.9004-3.4004H11V4H9.9004v6.0996Z" clip-rule="evenodd"/></svg>