<svg xmlns="http://www.w3.org/2000/svg" fill="none" viewBox="0 0 24 24"><path fill="currentColor" fill-rule="evenodd" d="M6.5485 3.0923c-.0915-.0455-.1896-.0767-.2778-.0877-.0804-.0101-.1457-.0034-.2085.0183-.851.2945-2.0843 1.1522-2.774 3.0173-.6983 1.8886-.0504 4.0538 1.2182 5.864 2.5788 3.6797 5.6244 6.2948 7.9556 7.869 1.5556 1.0504 3.4142 1.5399 5.0832 1.0098 2.0001-.6353 2.9606-1.9126 3.4044-2.8554.0711-.1509.0739-.3634-.04-.5902a6.8822 6.8822 0 0 0-3.0854-3.0704l-.0594-.0296a.1748.1748 0 0 0-.1998.0311l-1.1241 1.119c-1.3259 1.3198-3.4717 1.3198-4.7976 0l-3.0336-3.0198c-1.3309-1.3249-1.3309-3.4766 0-4.8015l1.1241-1.119a.1503.1503 0 0 0 .0298-.1754C9.0776 4.906 7.9643 3.797 6.5891 3.1125l-.0406-.0202Zm.9318-1.7702c1.7615.8767 3.1898 2.2985 4.0705 4.052a2.1502 2.1502 0 0 1-.406 2.4905l-1.1241 1.119c-.5455.5431-.5455 1.4236 0 1.9667l3.0336 3.0198c.5456.543 1.4301.543 1.9756-.0001l1.1241-1.1189c.6597-.6567 1.6675-.8195 2.502-.4042l.0594.0296c1.7229.8575 3.1199 2.2482 3.9814 3.9633.3287.6543.4477 1.521.0623 2.3397-.6293 1.3369-1.9724 3.0724-4.6084 3.9096-2.4377.7743-4.933.0076-6.8079-1.2584-2.4977-1.6866-5.7322-4.466-8.4743-8.3787-1.4522-2.0723-2.478-4.9417-1.4561-7.7054.904-2.4445 2.5972-3.7297 3.9958-4.2137.774-.2678 1.5126-.0893 2.0315.169l.0406.0201Z" clip-rule="evenodd"/></svg>