<svg xmlns="http://www.w3.org/2000/svg" fill="none" viewBox="0 0 24 24"><g fill="currentColor" clip-path="url(#partner-vcd--24-a)"><path d="M11 0C7.603 0 4.5942 1.9992 3.3385 4.9767 1.324 5.9427 0 7.9427 0 10.1875c0 3.0178 2.3796 5.518 5.4514 5.8081L6 16c.5523 0 1-.4477 1-1s-.4477-1-1-1h-.4546C3.576 13.8096 2 12.1537 2 10.1875c0-1.5563.9895-2.945 2.4834-3.5291a1 1 0 0 0 .5778-.5955C5.9187 3.6576 8.29 2 11 2c2.9895 0 5.5387 2.0141 6.14 4.7653a.9999.9999 0 0 0 .623.7218C19.1065 7.9955 20 9.2347 20 10.625 20 12.4802 18.421 14 16.4545 14h-.4522c-.5523 0-1 .4477-1 1 0 .0589.0051.1167.0149.1728a3.022 3.022 0 0 1 .6098.299A4.9798 4.9798 0 0 1 17.7499 15c.5388 0 1.0576.0852 1.5438.2429C20.9126 14.3062 22 12.5921 22 10.625c0-2.0585-1.2031-3.8926-3.035-4.794C17.975 2.419 14.7392 0 11 0Z"/><path d="M14 14.9971a3.011 3.011 0 0 0-1.9983.7693c-.8255-.7343-2.0268-.9829-3.1204-.5408a2.9992 2.9992 0 0 0-.7159.4111A1.0003 1.0003 0 0 1 8 15.0858V12.5c0-.8284.6716-1.5 1.5-1.5h3c.8284 0 1.5.6716 1.5 1.5v2.4971ZM9 8c0 1.1046.8954 2 2 2s2-.8954 2-2-.8954-2-2-2-2 .8954-2 2ZM10.9287 17.6289c-.2051-.5128-.787-.7622-1.2998-.5571-.5128.2051-.7622.7871-.5571 1.2999l2 5a1.0002 1.0002 0 0 0 1.8569 0l1.7002-4.2504a.1925.1925 0 0 1 .3714.0715v3.8076c0 .5523.4477 1 1 1s1-.4477 1-1v-3.25a.75.75 0 0 1 1.5 0v3.25c0 .5523.4477 1 1 1s1-.4477 1-1v-3.25a.75.75 0 0 1 1.5 0v3.25c0 .5523.4477 1 1 1s1-.4477 1-1v-3.25c0-1.5188-1.2312-2.75-2.75-2.75a2.739 2.739 0 0 0-1.75.6285 2.7392 2.7392 0 0 0-1.75-.6285 2.737 2.737 0 0 0-1.5638.4876 2.1834 2.1834 0 0 0-1.3788-.4878 2.1928 2.1928 0 0 0-2.0358 1.3783l-.7716 1.9292-1.0716-2.6788Z"/></g><defs><clipPath id="partner-vcd--24-a"><path fill="#fff" d="M0 0h24v24H0z"/></clipPath></defs></svg>