<svg xmlns="http://www.w3.org/2000/svg" fill="none" viewBox="0 0 16 16"><g clip-path="url(#pause--16-a)"><circle cx="8" cy="8" r="8" fill="#949AA3"/><circle cx="8" cy="8" r="7.5" stroke="#243143" stroke-opacity=".1"/><path fill="#fff" d="M5.5 4.5c-.5523 0-1 .4477-1 1v5c0 .5523.4477 1 1 1s1-.4477 1-1v-5c0-.5523-.4477-1-1-1ZM10.5 4.5c-.5523 0-1 .4477-1 1v5c0 .5523.4477 1 1 1s1-.4477 1-1v-5c0-.5523-.4477-1-1-1Z"/></g><defs><clipPath id="pause--16-a"><path fill="#fff" d="M0 0h16v16H0z"/></clipPath></defs></svg>