<svg xmlns="http://www.w3.org/2000/svg" fill="none" viewBox="0 0 24 24"><path fill="currentColor" d="M6.4111 10.3073c.81 0 1.2266.2784 1.2266.8339-.0001.3007-.116.5318-.3242.6475-.2084.1389-.5323.208-.9258.208h-.2773v-1.6894h.3007Z"/><path fill="currentColor" fill-rule="evenodd" d="m24 14.0797-3.8652 1.2129V8.9655h-2.4297v6.3408h2.3867L5.416 19.9117 0 5.1696l19.5098-1.088L24 14.0798Zm-9.4424-5.207c-.6017 0-1.1578.0693-1.667.2314-.5087.162-.9482.3934-1.3183.671a3.331 3.331 0 0 0-.8565 1.0419c-.2081.4164-.3007.8559-.3008 1.3418 0 .4859.0923.9262.2774 1.3428.1851.3934.4627.7407.833 1.0185.3702.2776.8104.4854 1.3428.6475.5093.1619 1.1111.2314 1.7822.2314.4858 0 .9024-.0458 1.2725-.1152.3702-.0695.4169-.0931.7871-.1855v-1.5967c-.301.1387-.6023.2078-.8799.2773-.2777.0694-.5786.0928-.8565.0928-.2774 0-.5324-.0466-.7871-.1162-.254-.0693-.4624-.1846-.6474-.3232-.1852-.1388-.3238-.3241-.4395-.5323-.1156-.2314-.1621-.4867-.1621-.7646.0001-.578.1619-.9942.5088-1.2949.3472-.278.7875-.4405 1.3428-.4405.3237.0001.6476.0461.9482.1387.3008.0692.5793.1855.8106.3242V9.1735c-.3009-.1158-.301-.1155-.6944-.208-.3933-.0696-.833-.0928-1.2959-.0928Zm-10.831 6.4101h2.4062v-1.8974h.3701c.5323 0 .9956-.0463 1.4121-.1387.4167-.0927.787-.2319 1.088-.417.3007-.185.5323-.4392.6943-.7168.1619-.3007.2548-.6249.2548-.9951 0-.7173-.3014-1.273-.9033-1.6201-.6017-.3471-1.4346-.5332-2.499-.5332H3.7266v6.3183Zm15.205-9.6962c-.4165 0-.7642.1155-1.042.37-.2776.2546-.416.579-.416 1.0186.0001.4163.1384.7637.416.9951.2778.2546.6255.3702 1.042.3702.4164 0 .7635-.139 1.0411-.3702.2776-.2314.4169-.5787.4169-.995 0-.44-.1392-.7872-.4169-1.0186-.2777-.2545-.6246-.3701-1.0411-.3701Z" clip-rule="evenodd"/></svg>