<svg xmlns="http://www.w3.org/2000/svg" fill="none" viewBox="0 0 16 16"><path fill="currentColor" d="M4.2734 6.8715c.54 0 .8184.1853.8184.5556 0 .2004-.0773.3544-.2158.4317-.1389.0926-.355.1396-.6172.1396h-.1856v-1.127h.2002Z"/><path fill="currentColor" fill-rule="evenodd" d="m16 9.3871-2.5771.8086V5.977h-1.6192v4.2275h1.5918l-9.7851 3.0703L0 3.4467l13.0068-.7256L16 9.3871ZM9.705 5.9154c-.401 0-.7718.0463-1.1113.1543-.3391.108-.6321.2622-.8789.4473a2.2208 2.2208 0 0 0-.5713.6943c-.1387.2776-.2001.5707-.2001.8946 0 .324.0611.6177.1845.8955.1234.2622.3089.4934.5557.6787.2468.185.5406.3236.8955.4316.3394.1079.7403.1543 1.1875.1543.324 0 .6019-.0308.8486-.0771.2468-.0463.2778-.0615.5244-.1231V9.0014c-.2004.0924-.4009.1382-.5859.1845-.1851.0463-.386.0616-.5713.0616-.185 0-.3546-.0308-.5244-.0772-.1695-.0462-.3082-.1233-.4316-.2158-.1234-.0925-.2159-.2157-.293-.3545-.077-.1543-.1084-.3245-.1084-.5098 0-.3854.1085-.6627.3398-.8632.2315-.1852.5245-.294.8946-.294.216 0 .4323.031.6328.0928a1.883 1.883 0 0 1 .54.2158v-1.126c-.2005-.0771-.2009-.077-.4629-.1386-.2622-.0464-.5556-.0616-.8642-.0616ZM2.4845 10.189h1.6045V8.9232h.247c.3546 0 .663-.0302.9405-.0917.2777-.0618.525-.155.7256-.2784.2004-.1233.3549-.2926.4628-.4775.108-.2006.17-.4172.17-.664 0-.4781-.2006-.8487-.6016-1.0801-.4012-.2315-.9573-.3545-1.667-.3545H2.4844v4.2119ZM12.621 3.724c-.2777 0-.5092.0774-.6943.2471-.1852.1697-.2774.3856-.2774.6787 0 .2776.0923.5088.2774.6631.1851.1697.4166.247.6943.247s.5092-.0927.6943-.247c.185-.1543.2774-.3856.2774-.663-.0001-.2932-.0923-.5245-.2774-.6788-.1851-.1697-.4166-.247-.6943-.247Z" clip-rule="evenodd"/></svg>