<svg xmlns="http://www.w3.org/2000/svg" fill="none" viewBox="0 0 24 24"><path fill="currentColor" d="M1.5002 2h16.9999C19.3284 2 20 2.6715 20 3.5V6.977a1.0993 1.0993 0 0 1 0 .0445v3.3406l-1.2056-.3236a1.1382 1.1382 0 0 0-.5886 0l-.2057.0552V8.5387l-7.1877 3.1945a2.0002 2.0002 0 0 1-1.6245 0L2.0002 8.5387v7.4611h8.9999v2H1.5002c-.8284 0-1.5-.6716-1.5-1.5V7.0217a.9946.9946 0 0 1 0-.0446V3.5c0-.8285.6716-1.5 1.5-1.5Zm8.4999 7.9056 8-3.5555V4H2.0002v2.35l7.9999 3.5556ZM24 19.895c0 1.4908-1.744 2.844-5.232 4.0595a.8164.8164 0 0 1-.5359 0c-3.488-1.2156-5.232-2.5687-5.232-4.0595v-5.8464c0-.337.2326-.6332.5699-.7258l4.7142-1.294a.8175.8175 0 0 1 .4318 0l4.7141 1.294c.3373.0926.5699.3888.5699.7258v5.8464Zm-3.7071-4.1024-2.2928 2.2929-1.2929-1.2929c-.3905-.3905-1.0237-.3905-1.4142 0-.3905.3905-.3905 1.0237 0 1.4142l2 2c.3905.3905 1.0237.3905 1.4142 0l2.9999-3c.3905-.3905.3905-1.0237 0-1.4142-.3905-.3905-1.0237-.3905-1.4142 0Z"/></svg>