<svg xmlns="http://www.w3.org/2000/svg" fill="none" viewBox="0 0 32 32"><path fill="currentColor" d="M9 6V4c0-.5523.4477-1 1-1h4c.5523 0 1 .4477 1 1v10c0 .5523-.4477 1-1 1H3c-.5523 0-1-.4477-1-1V4c0-.5523.4477-1 1-1h4c.5523 0 1 .4477 1 1v2h1ZM4 5v8h9V5h-2v2c0 .5523-.4477 1-1 1H7c-.5523 0-1-.4477-1-1V5H4Zm20-1c0-.5523.4477-1 1-1h4c.5523 0 1 .4477 1 1v10c0 .5523-.4477 1-1 1H18c-.5523 0-1-.4477-1-1V4c0-.5523.4477-1 1-1h4c.5523 0 1 .4477 1 1v2h1V4Zm-5 1v8h9V5h-2v2c0 .5523-.4477 1-1 1h-3c-.5523 0-1-.4477-1-1V5h-2Zm5 13c0-.5523.4477-1 1-1h4c.5523 0 1 .4477 1 1v10c0 .5523-.4477 1-1 1H18c-.5523 0-1-.4477-1-1V18c0-.5523.4477-1 1-1h4c.5523 0 1 .4477 1 1v2h1v-2Zm-5 1v8h9v-8h-2v2c0 .5523-.4477 1-1 1h-3c-.5523 0-1-.4477-1-1v-2h-2ZM9 18c0-.5523.4477-1 1-1h4c.5523 0 1 .4477 1 1v10c0 .5523-.4477 1-1 1H3c-.5523 0-1-.4477-1-1V18c0-.5523.4477-1 1-1h4c.5523 0 1 .4477 1 1v2h1v-2Zm-5 1v8h9v-8h-2v2c0 .5523-.4477 1-1 1H7c-.5523 0-1-.4477-1-1v-2H4Z"/></svg>