<svg xmlns="http://www.w3.org/2000/svg" fill="none" viewBox="0 0 24 24"><path fill="currentColor" d="M12 23c-2.249 0-9-8.6041-9-12.8182C3 5.1158 7.0243 1 12 1s9 4.1158 9 9.1818C21 14.3959 14.2491 23 12 23Zm.0434-2.1317c.2497-.1813.5741-.4581.9407-.8054.8136-.7707 1.7456-1.8006 2.6042-2.8948C17.6852 14.4956 19 11.9129 19 10.1818 19 6.2104 15.8609 3 12 3s-7 3.2104-7 7.1818c0 1.7311 1.3148 4.3138 3.4117 6.9863.8586 1.0942 1.7906 2.1241 2.6042 2.8948.3666.3473.691.6241.9407.8054a4.53 4.53 0 0 0 .0434.031 4.53 4.53 0 0 0 .0434-.031ZM12 14c-2.2091 0-4-1.7909-4-4 0-2.2091 1.7909-4 4-4 2.2091 0 4 1.7909 4 4 0 2.2091-1.7909 4-4 4Zm0-2c1.1046 0 2-.8954 2-2s-.8954-2-2-2-2 .8954-2 2 .8954 2 2 2Z"/></svg>