<svg xmlns="http://www.w3.org/2000/svg" fill="none" viewBox="0 0 16 16"><g clip-path="url(#rocket--16-a)"><path fill="currentColor" d="M1.9853 11.9307a.84.84 0 0 1 .7286.2353l1.12 1.1201a.8403.8403 0 0 1 .2354.7285.8402.8402 0 0 1-.454.6163L1.376 15.751a.8402.8402 0 0 1-.9698-.1572.8402.8402 0 0 1-.1572-.9698l1.1201-2.2392.0498-.0879a.8403.8403 0 0 1 .5664-.3662ZM15 .1602l.0859.0039A.8402.8402 0 0 1 15.8398 1v.0518c-.0004.0299-.0021.0724-.0039.126-.0036.1074-.0104.261-.0244.452-.0279.382-.0836.9184-.1943 1.546-.2201 1.247-.6655 2.8964-1.5772 4.416-.3849.6415-.9366 1.2407-1.5615 1.789.0002.0064.002.0132.002.0196v.0049c0 .0028-.001.007-.001.0117-.0001.0094.0002.0225 0 .039-.0005.033-.0012.08-.0029.1387a12.4741 12.4741 0 0 1-.0245.4854c-.0278.3987-.084.9438-.1982 1.5146-.1127.5636-.2902 1.1948-.5801 1.7422-.2859.5402-.7386 1.1033-1.4482 1.3399-.9143.3047-1.8166.4543-2.4824.5283-.3351.0372-.6158.0559-.8145.0654a8.7636 8.7636 0 0 1-.2344.0078c-.0279.0006-.0506.0018-.0664.002h-.0273l-.001-.8399v.8399a.8403.8403 0 0 1-.8144-.6367l-.505-2.0157-1.9091-1.9091-2.0147-.504a.8402.8402 0 0 1-.6367-.8144h.8399l-.8399-.001v-.0273c.0002-.0159.0014-.0385.002-.0664.0012-.0558.003-.1351.0078-.2344a13.069 13.069 0 0 1 .0654-.8145c.074-.6658.2236-1.5681.5283-2.4824.2366-.7096.7997-1.1623 1.3399-1.4482.5474-.2899 1.1786-.4674 1.7422-.5801.5708-.1142 1.1159-.1704 1.5146-.1983.2006-.014.3677-.0208.4854-.0244a8.2204 8.2204 0 0 1 .1386-.0029c.0166-.0002.0297 0 .0391 0 .0047 0 .0089-.001.0117-.001h.005c.006 0 .0124.0009.0185.001.5483-.6248 1.1485-1.1756 1.79-1.5605 1.5196-.9118 3.169-1.3571 4.416-1.5772a15.4841 15.4841 0 0 1 1.5459-.1943c.1912-.014.3447-.0208.4522-.0244.0535-.0018.096-.0035.1259-.004H15Zm-4.3027 10.5527c-.4209.2735-.839.5245-1.2344.748a29.8165 29.8165 0 0 1-2.17 1.1084c-.0937.0432-.1836.0805-.2656.1172l.2188.878c.0956-.0082.2002-.017.3115-.0293.594-.0661 1.3713-.1971 2.1367-.4522.1304-.0434.3077-.18.4942-.5322.1826-.345.3207-.7989.4179-1.2852a9.2266 9.2266 0 0 0 .0909-.5527Zm3.3994-8.8106c-.2798.0293-.6124.0699-.9805.1348-1.1328.2-2.5634.5951-3.8437 1.3633-1.194.7163-2.3638 2.357-3.2715 3.9629-.4407.7796-.7972 1.5107-1.044 2.0469-.061.1324-.1133.2534-.1601.3593l1.4326 1.4326c.106-.0469.2277-.0981.3603-.1591.5362-.2469 1.2673-.6033 2.047-1.044 1.6058-.9077 3.2464-2.0775 3.9628-3.2715.7682-1.2803 1.1634-2.7109 1.3633-3.8437.065-.3685.1045-.7015.1338-.9815ZM5.2861 5.3018a9.2445 9.2445 0 0 0-.5517.0918c-.4863.0972-.9402.2353-1.2852.418-.3522.1864-.4888.3637-.5322.494-.2551.7655-.3861 1.5427-.4522 2.1368-.0123.111-.0221.2152-.0302.3105l.8779.2188c.0367-.0818.075-.171.1182-.2647.2606-.5662.6392-1.3398 1.1084-2.1699.2235-.3956.4735-.8144.747-1.2353Zm5.2334-.1016a.28.28 0 0 0-.2793.2803l.0059.0556a.2795.2795 0 0 0 .5478 0l.0059-.0556-.0059-.0567a.2795.2795 0 0 0-.2177-.2177l-.0567-.0059Zm1.4004.2803c-.0002.773-.6273 1.3994-1.4004 1.3994-.7247-.0003-1.321-.551-1.3925-1.2569L9.12 5.4806l.0069-.1436c.0716-.7058.6678-1.2566 1.3925-1.2568l.1436.0068c.706.0717 1.2568.6687 1.2568 1.3936Z"/></g><defs><clipPath id="rocket--16-a"><path fill="#fff" d="M0 0h16v16H0z"/></clipPath></defs></svg>