<svg xmlns="http://www.w3.org/2000/svg" fill="none" viewBox="0 0 24 24"><path fill="currentColor" d="M3.9444 17.2646c.357-.0579.7208.0588.9765.3145l1.5 1.5c.2557.2557.3724.6196.3145.9766a1.1247 1.1247 0 0 1-.6075.8252l-3 1.5a1.1253 1.1253 0 0 1-1.2988-.21 1.1251 1.1251 0 0 1-.21-1.2988l1.5-3 .0674-.1172a1.1252 1.1252 0 0 1 .7579-.4903ZM21.374 1.5c.0004 0 .001 0 .001 1.125l1.125.001v.0215c-.0001.0115-.0006.0272-.001.0468-.0006.0402-.0014.0971-.0039.169-.0048.1439-.0144.3494-.0332.6054-.0374.5116-.1124 1.2297-.2607 2.0704-.2948 1.6702-.8902 3.8798-2.1113 5.915-.5157.8594-1.2548 1.6619-2.0918 2.3965.0001.0081.0019.0162.0019.0244h-.0303l.0303.001v.0215c-.0001.0126-.0006.0306-.001.0527a10.4724 10.4724 0 0 1-.0039.1855 16.4684 16.4684 0 0 1-.0332.6495c-.0372.534-.1117 1.2645-.2646 2.0293-.151.7547-.3892 1.5998-.7774 2.333-.3829.7234-.9891 1.4781-1.9394 1.7949-1.2246.4081-2.4335.6079-3.3252.707a17.5852 17.5852 0 0 1-1.0898.0879 11.937 11.937 0 0 1-.3145.0107c-.0373.0009-.0667.0018-.0879.002h-.0381a1.1258 1.1258 0 0 1-1.0918-.8525l-.6748-2.6973-2.5595-2.5596-2.6963-.6738a1.126 1.126 0 0 1-.8487-.9961L2.25 13.875v-.0381c.0002-.0211.0011-.0506.002-.0879a12.077 12.077 0 0 1 .0107-.3144c.0127-.266.038-.6413.088-1.0899.099-.8917.2988-2.1006.707-3.3252.3167-.9503 1.0715-1.5564 1.7949-1.9394.7332-.3882 1.5782-.6264 2.333-.7774.7647-.153 1.4952-.2273 2.0293-.2646.2685-.0187.4917-.0284.6494-.0332.0787-.0024.1413-.0033.1855-.004.0222-.0002.0401-.0008.0528-.0009h.0214v.0293l.001-.002V6c.0079 0 .0157.0008.0235.001.7345-.837 1.5381-1.5752 2.3974-2.0908 2.0352-1.2212 4.2448-1.8166 5.9151-2.1114.8406-.1483 1.5587-.2233 2.0703-.2607.256-.0188.4615-.0284.6054-.0332.0719-.0024.1289-.0033.169-.004.0196-.0002.0353-.0008.0469-.0009h.0214Zm-5.7627 14.1357a31.3752 31.3752 0 0 1-1.6513 1c-1.1119.6285-2.1489 1.1343-2.9072 1.4834-.1256.0579-.2458.1081-.3555.1573l.2939 1.1757c.1278-.0108.2673-.0225.416-.039.7957-.0884 1.8371-.2637 2.8624-.6055.1746-.0583.4124-.2412.6621-.7129.2446-.4621.4283-1.0702.5586-1.7217.05-.2503.0883-.4991.121-.7373Zm4.5586-11.8066a18.8606 18.8606 0 0 0-1.3183.1846c-1.5172.2677-3.4328.7974-5.1475 1.8261-1.599.9594-3.1652 3.1569-4.3808 5.3077-.5902 1.0441-1.0689 2.023-1.3994 2.7412-.0813.1766-.1513.3381-.214.4795l1.921 1.9209c.1415-.0627.3036-.1315.4804-.2129.7182-.3306 1.6971-.8093 2.7413-1.3994 2.1508-1.2157 4.3482-2.7819 5.3076-4.3809 1.0288-1.7147 1.5584-3.6302 1.8261-5.1475.0875-.4957.1444-.9433.1836-1.3193ZM8.3633 8.3877c-.2379.0328-.4862.072-.7363.122-.6515.1304-1.2596.314-1.7217.5587-.4716.2496-.6546.4875-.7129.662-.3417 1.0253-.517 2.0667-.6055 2.8624a15.9533 15.9533 0 0 0-.04.415l1.1758.294c.0491-.1097.1004-.2291.1582-.3545.349-.7584.855-1.7954 1.4834-2.9073.299-.5291.6332-1.0893.999-1.6523ZM15.375 8.25a.375.375 0 1 0 0 .75.375.375 0 0 0 0-.75Zm6-6.75c.6213 0 1.125.5037 1.125 1.125h-1.125V1.5ZM17.25 8.625c0 1.0355-.8394 1.875-1.875 1.875-1.0355 0-1.875-.8395-1.875-1.875 0-1.0355.8395-1.875 1.875-1.875 1.0356 0 1.875.8395 1.875 1.875Z"/></svg>