<svg xmlns="http://www.w3.org/2000/svg" fill="none" viewBox="0 0 24 24"><path fill="currentColor" d="M5.079 16h2.655c.443 1.225 1.09 2.442 1.936 3.653-1.954-.594-3.586-1.919-4.591-3.653Zm-.817-2C4.097 13.359 4 12.692 4 12s.097-1.359.262-2h2.933C7.076 10.665 7 11.331 7 12s.076 1.335.195 2H4.262ZM9.67 4.347C8.824 5.558 8.177 6.775 7.734 8H5.079C6.084 6.266 7.716 4.941 9.67 4.347Zm2.3301.214c.92 1.155 1.627 2.3 2.121 3.439h-4.242c.494-1.139 1.2-2.284 2.121-3.439ZM18.9211 8h-2.655c-.443-1.225-1.09-2.442-1.937-3.653 1.955.594 3.587 1.919 4.592 3.653Zm-9.699 6C9.076 13.331 9 12.664 9 12c0-.664.076-1.331.222-2h5.556c.146.669.222 1.336.222 2 0 .644-.074 1.29-.212 1.937a5.9512 5.9512 0 0 1 2.145-.836c.041-.367.067-.734.067-1.101 0-.669-.076-1.335-.195-2h2.933c.165.641.262 1.308.262 2 0 .446-.052.878-.125 1.303.678.223 1.302.563 1.849.998.174-.74.276-1.508.276-2.301 0-5.522-4.477-10-10-10s-10 4.478-10 10 4.477 10 10 10c.265 0 .525-.02.785-.04-.433-.761-.702-1.625-.764-2.548a.3175.3175 0 0 1-.021.027c-.92-1.155-1.627-2.3-2.121-3.439h2.93c.465-.803 1.106-1.488 1.877-2h-5.464ZM19 21c-.827 0-1.5-.673-1.5-1.5S18.173 18 19 18s1.5.673 1.5 1.5S19.827 21 19 21Zm4.959-2.104c-.065-.486-.59-.819-1.093-.638-.188.069-.415-.033-.5-.216a3.5247 3.5247 0 0 0-.371-.622c-.13-.173-.105-.399.055-.527.192-.152.299-.377.294-.616-.005-.243-.124-.466-.325-.614a5.0391 5.0391 0 0 0-1.079-.6.8473.8473 0 0 0-.322-.063c-.399 0-.736.273-.801.65-.034.198-.228.332-.447.31a3.66 3.66 0 0 0-.74 0c-.218.022-.414-.112-.448-.31-.065-.377-.402-.65-.801-.65a.846.846 0 0 0-.321.063c-.384.155-.747.357-1.079.6-.201.148-.32.371-.325.614-.005.239.102.463.294.616.16.128.184.354.055.526-.145.195-.27.404-.371.623-.085.183-.295.29-.505.214a.8566.8566 0 0 0-.284-.049c-.407 0-.752.296-.805.689-.026.199-.04.403-.04.604 0 .201.014.405.041.604.064.486.589.819 1.093.638.188-.069.415.033.5.216.102.219.226.428.371.622.13.173.105.399-.055.527-.192.152-.299.376-.294.616.005.242.124.466.325.614.333.243.696.445 1.079.6.103.042.211.063.322.063.399 0 .736-.273.801-.65.034-.198.229-.33.447-.31.244.025.496.025.74 0 .219-.021.414.112.448.31.065.377.402.65.801.65.11 0 .218-.021.321-.063.383-.155.747-.357 1.079-.6.201-.148.32-.372.325-.614.005-.24-.102-.463-.294-.616-.16-.128-.184-.354-.055-.526.145-.195.27-.404.371-.623.085-.183.296-.29.505-.214.091.033.187.05.284.05.407 0 .752-.296.805-.69.026-.201.04-.404.04-.604 0-.2-.014-.403-.041-.604Z"/></svg>