<svg xmlns="http://www.w3.org/2000/svg" fill="none" viewBox="0 0 16 16"><path fill="currentColor" d="M13.696 10.1317a.9973.9973 0 0 0-1.366.366c-1.379 2.388-4.442 3.21-6.83 1.83-.96-.554-1.655-1.384-2.061-2.33H5c.552 0 1-.448 1-1 0-.553-.448-1-1-1H1c-.553 0-1 .447-1 1v4c0 .552.447 1 1 1 .552 0 1-.448 1-1v-1.424c.59.997 1.426 1.866 2.5 2.486 1.099.634 2.301.936 3.488.936 2.421 0 4.779-1.255 6.074-3.498.276-.478.113-1.09-.366-1.366Zm1.3037-8.1342c-.552 0-1 .448-1 1v1.424c-.59-.998-1.426-1.866-2.5-2.486-3.343-1.928-7.632-.78-9.562 2.562-.276.478-.113 1.09.366 1.366.477.276 1.09.112 1.365-.366 1.38-2.387 4.445-3.209 6.831-1.83.96.554 1.654 1.383 2.061 2.33h-1.561c-.552 0-1 .448-1 1s.448 1 1 1h4c.552 0 1-.448 1-1v-4c0-.552-.448-1-1-1Z"/></svg>