<svg xmlns="http://www.w3.org/2000/svg" fill="none" viewBox="0 0 32 32"><path fill="currentColor" d="m25.2236 18.2197-1.1601.6504a4.7797 4.7797 0 0 1 2.6611 1.6338 4.7805 4.7805 0 0 1 1.084 2.9287 4.7809 4.7809 0 0 1-.9551 2.9736 4.7803 4.7803 0 0 1-5.7031 1.5254 4.7797 4.7797 0 0 1-2.3125-2.0976 4.781 4.781 0 0 1 .9658-5.8242l.8096.8798a3.6316 3.6316 0 0 0-.8526 1.2002 3.6328 3.6328 0 0 0-.3066 1.4405 3.5596 3.5596 0 0 0 .5742 1.9414 3.5614 3.5614 0 0 0 3.5488 1.5762 3.5616 3.5616 0 0 0 1.8262-.876 3.5621 3.5621 0 0 0 1.0528-1.7305 3.5618 3.5618 0 0 0-.0616-2.0244 3.5595 3.5595 0 0 0-1.1552-1.6631 3.5615 3.5615 0 0 0-1.876-.7637l.9004 1.6202-.7198.3994-1.6201-2.8897L24.8232 17.5l.4004.7197Z"/><path fill="currentColor" fill-rule="evenodd" d="M28 3c1.1046 0 2 .8954 2 2v12.3428c-.0074-.0091-.016-.0173-.0234-.0264.0492.0604.0968.122.1445.1836.0082.0106.0172.0206.0254.0312.009.0118.0182.0235.0273.0352.2119.2793.4073.5715.586.875.0336.0571.0662.1149.0986.1729.0294.0525.0586.105.0869.1582a8.9705 8.9705 0 0 1 .4785 1.0576c.0124.0329.0261.0655.0381.0986a8.9894 8.9894 0 0 1 .1582.4824c.0234.078.0451.1565.0664.2354.0126.0465.0263.0928.0381.1396a8.894 8.894 0 0 1 .083.3623c.0076.0361.0154.0722.0225.1084a10.4764 10.4764 0 0 1 .0713.4151 9.03 9.03 0 0 1 .0498.3926c.0019.0181.0031.0364.0049.0546.0115.1192.0204.239.0273.3594.0021.0374.0042.0748.0059.1123.006.1357.0107.272.0107.4092 0 4.9706-4.0294 9-9 9a9.0851 9.0851 0 0 1-.4854-.0137c-.0604-.0032-.1205-.0092-.1806-.0136-.0909-.0067-.1814-.0132-.2715-.0225-.0821-.0085-.1637-.0196-.2451-.0303-.079-.0104-.158-.0198-.2363-.0322-.0639-.0101-.1271-.0227-.1905-.0342a9.1635 9.1635 0 0 1-.2744-.0527c-.0612-.0131-.1219-.0277-.1826-.042a9.2255 9.2255 0 0 1-.2637-.0654 9.0911 9.0911 0 0 1-.1806-.0508 8.9222 8.9222 0 0 1-.2832-.0869c-.0452-.0148-.09-.0305-.1348-.0459a8.9017 8.9017 0 0 1-.7119-.2793c-.0523-.0232-.1045-.0462-.1563-.0703a8.898 8.898 0 0 1-.2724-.1329c-.0402-.0203-.0804-.0405-.1202-.0615a8.9089 8.9089 0 0 1-.3056-.1699c-.0287-.0166-.0575-.0329-.086-.0498a9.0704 9.0704 0 0 1-.2812-.1738c-.0394-.0254-.0792-.0502-.1182-.0762a9.128 9.128 0 0 1-.2383-.166c-.045-.0321-.0903-.0638-.1347-.0967a9.0476 9.0476 0 0 1-1.5195-1.4258c.0545.0645.1087.1295.165.1924h-4.6514c-.3252 0-.5641-.3056-.4853-.6211L12 25H4c-1.1046 0-2-.8954-2-2V5c0-1.1046.8954-2 2-2h24Zm-5 13c-3.866 0-7 3.134-7 7s3.134 7 7 7 7-3.134 7-7-3.134-7-7-7Zm-7.0234-1.6104c-.047 0-1.2454 1.3027-2.6748 2.8936-1.4291 1.58-2.603 2.9156-2.627 2.9736-.0235.047.1374.2081.3457.3565.276.2084.5758.289 1.1406.3125.9885.0636 1.393-.147 2.544-1.4229.6096-1.4443 1.5858-2.6954 2.8115-3.6386-.0238.0183-.0486.0361-.0723.0546-.8101-.8728-1.4327-1.5289-1.4677-1.5293Zm-5.1407-5.4199c-.5415-.2654-1.4167-.3088-1.9716-.0898-.5648.219-.8643.427-.8643.586.0015.082.8889 1.1211 1.961 2.3075 1.0833 1.1874 1.9579 2.1792 1.9579 2.2002-.0056.0296-.8914 1.0195-1.9609 2.2032-1.0827 1.1971-1.9467 2.246-1.9346 2.3378.0575.3125 1.0025.7061 1.6924.7061 1.12-.013 1.3729-.2093 3.7373-2.8027 1.1873-1.3018 2.1533-2.4088 2.1533-2.4453-.0037-.0485-.9578-1.1297-2.1298-2.419-1.534-1.672-2.2842-2.4225-2.6407-2.584Zm11.5157-.2168c-.5315-.0235-.8079.024-1.1748.209V8.96c-.336.172-1.1772 1.0026-2.6299 2.5938-1.1745 1.2915-2.1328 2.3754-2.1328 2.4199.0021.0392.6006.7245 1.4326 1.6475-.0196.0137-.0381.0291-.0576.043.9899-.7045 2.1273-1.2151 3.3584-1.4727a8.9441 8.9441 0 0 0-.708.1777c-.2111-.2409-.335-.3867-.335-.3955.0095-.0314.8934-1.0319 1.958-2.2129C23.146 10.5758 24.0105 9.5363 24 9.4453c-.058-.2994-.9117-.6459-1.6484-.6924ZM13.418 7.2422c-.5315-.2995-1.6138-.323-2.1348-.0576h.0029c-.7261.3698-.7262.4271-.0468 1.1875 3.7677 4.1952 4.6698 5.1865 4.7373 5.1865.1065-.0036 5.3119-5.6921 5.372-5.8662.0235-.047-.1382-.209-.3466-.3574-.276-.2084-.5758-.289-1.1407-.3125-1.0597-.0675-1.4297.1623-2.7451 1.6386-.5926.6594-1.0961 1.2094-1.1064 1.2207-.0105 0-.505-.541-1.0938-1.1972-.589-.6565-1.2685-1.315-1.498-1.4424Z" clip-rule="evenodd"/></svg>