<svg xmlns="http://www.w3.org/2000/svg" fill="none" viewBox="0 0 32 32"><path fill="currentColor" d="M23.7928 15.282h-.32v-2.8371h.4061c.3857 0 .6709.1149.8555.3446.1846.2257.2769.5744.2769 1.0463 0 .5128-.1005.8821-.3015 1.1077-.2011.2257-.5067.3385-.917.3385Z"/><path fill="currentColor" fill-rule="evenodd" d="M3 4c0-.5523.4477-1 1-1h7.7771c.893 0 1.6777.592 1.923 1.4505L14.1428 6H27c1.1045 0 2 .8954 2 2v15c0 1.1045-.8955 2-2 2H17v2h11c.5523 0 1 .4477 1 1s-.4477 1-1 1H4c-.5523 0-1-.4477-1-1s.4477-1 1-1h11v-2H5c-1.1046 0-2-.8955-2-2V4Zm6.4408 15.4485c.4268-.4472.6401-1.0913.6401-1.9324 0-.5252-.117-.9929-.3508-1.4032-.2298-.4103-.638-.8124-1.2247-1.2063-.435-.2872-.7406-.5436-.917-.7693-.1723-.2256-.2585-.4903-.2585-.7939 0-.3077.0718-.5498.2154-.7262.1477-.1805.357-.2708.6277-.2708.2462 0 .476.0452.6893.1354.2175.0903.4247.1929.6216.3077l.5539-1.3416c-.636-.3857-1.2986-.5785-1.9878-.5785-.7222 0-1.2986.2256-1.7294.677-.4267.4513-.64 1.0626-.64 1.8339 0 .4021.0533.755.16 1.0586.1107.3036.2646.5785.4615.8247.201.2421.4944.4964.8801.7631.4431.3036.761.5806.954.8309.1928.2461.2892.519.2892.8185 0 .3036-.082.5436-.2462.72-.16.1765-.4.2647-.72.2647-.5621 0-1.1796-.2195-1.8525-.6585v1.6555c.5498.3077 1.2165.4616 2.0001.4616.8001 0 1.4115-.2236 1.834-.6709Zm1.7479.5478h1.6617v-3.6065h2.2094v-1.4462h-2.2094v-2.4987h2.3694v-1.4463h-4.0311v8.9977Zm7.9206 0h-1.6678v-7.5268h-1.7232v-1.4709h5.1143v1.4709h-1.7233v7.5268Zm6.8683-4.025c.4841-.5128.7262-1.2473.7262-2.2032 0-1.8463-.8739-2.7695-2.6218-2.7695h-2.2832v8.9977h1.674v-3.2618h.4185c.9108 0 1.6062-.2544 2.0863-.7632Z" clip-rule="evenodd"/></svg>