<svg xmlns="http://www.w3.org/2000/svg" fill="none" viewBox="0 0 32 32"><path fill="currentColor" d="m24.2243 7.0944.5549-2.7943c.2986-.793 1.0656-1.3133 1.9159-1.2998l3.315.0366c.5555.0089.9986.4645.9898 1.0177-.0089.5532-.4504.9542-1.0059.9454l-3.331.0036-3.5976 16.2792C22.9238 22.2681 22.0749 23 21.0736 23H7.6959c-.952 0-1.7707-.6627-1.9678-1.583l-2.6715-9.1307-.0238-.1004c-.1988-1.0868.5263-2.1279 1.6196-2.3255.023-.004.023-.004.0461-.0078l.0154-.0023 19.5104-2.7559ZM5.0177 11.8275l2.6544 9.0721.0238.1004h13.3777l.015-.0805 2.687-11.7206.0031-.0214-18.761 2.65ZM22 30c-1.6569 0-3-1.3431-3-3s1.3431-3 3-3 3 1.3431 3 3-1.3431 3-3 3Zm0-2c.5523 0 1-.4477 1-1s-.4477-1-1-1-1 .4477-1 1 .4477 1 1 1ZM7 30c-1.6569 0-3-1.3431-3-3s1.3431-3 3-3 3 1.3431 3 3-1.3431 3-3 3Zm0-2c.5523 0 1-.4477 1-1s-.4477-1-1-1-1 .4477-1 1 .4477 1 1 1Z"/></svg>