<svg xmlns="http://www.w3.org/2000/svg" fill="none" viewBox="0 0 32 32"><path fill="currentColor" fill-rule="evenodd" d="m20.3127 9.7325-2.9023-6.1489c-.2659-.5594-.8117-.9144-1.4104-.917-.5961.0026-1.1433.3576-1.408.917l-2.905 6.149c-.2296.4845-.6688.8201-1.1818.8985l-6.4927.9855c-.5916.0917-1.0833.5238-1.2685 1.1175-.185.595-.0317 1.2474.397 1.6821l4.6994 4.7863c.3691.3783.5412.9218.451 1.453l-1.108 6.7596c-.1007.6147.1416 1.2366.623 1.6049.485.366 1.1259.4162 1.6553.125l5.8074-3.1904c.4603-.2507 1.0039-.253 1.4642 0l5.8062 3.1904c.5294.2912 1.1678.241 1.6563-.125.4813-.366.7227-.9902.6232-1.6049l-1.1092-6.7583c-.0892-.5325.0818-1.076.4507-1.4543l4.6994-4.7863c.4267-.4347.5811-1.0883.3971-1.6821-.1861-.5937-.677-1.0258-1.2683-1.1175l-6.493-.9855c-.513-.0784-.9522-.414-1.183-.8986Zm6.2474 4.1713c.1714-.1746.0729-.47-.1691-.5068l-5.1974-.7889c-1.2019-.1836-2.1855-.9638-2.6865-2.0154l-.0031-.0065-2.2318-4.7285c-.1082-.2292-.4343-.2293-.5426-.0001l-2.2352 4.7314c-.5001 1.0553-1.4856 1.8355-2.6871 2.0191l-.0019.0003-5.1955.7887c-.242.0367-.3405.3321-.169.5068l3.831 3.9019c.8141.8343 1.1871 2.0183.9924 3.1778l-.88 5.3685c-.0404.2469.2212.4319.4405.3115l4.4875-2.4653c1.0508-.5724 2.3181-.5824 3.3841.0035l4.4809 2.4621c.2193.1205.4811-.0646.4405-.3115l-.8805-5.3651-.0006-.0034c-.1925-1.1554.1752-2.3401.9918-3.1776l.0049-.005 3.8267-3.8975Z" clip-rule="evenodd"/></svg>