<svg xmlns="http://www.w3.org/2000/svg" fill="none" viewBox="0 0 17 16"><path fill="currentColor" d="M2.6914 6.0996c.6886.2289 1.0245.576 1.21 1.0469.1897.4821.243 1.1502.168 2.0674l-.0401.4082v.0078l-.0176.166-.001.0078c-.0455.4937-.046.972.0967 1.3535l.004.0117.0058.0157.3506.8896.8838-.4531.0097-.0059.0498-.0244.045-.0303c.3456-.2348.6487-.5918.918-1.0351l.0028-.0059.004-.0058.0879-.1514.0039-.0068.0029-.0049c.1882-.3361.3605-.7238.5195-1.1602 1.188 1.4897 1.2696 2.9712.6992 4.3047l-.0039.0098-.0693.167c-.6076 1.3785-2.0406 2.3025-3.6592 2.3027-2.1474 0-3.9045-1.6141-3.9619-3.6562.0034-1.1618.4223-2.2918 1.3643-3.8594l.9082-1.4766.0097-.0176c.1824-.3141.3309-.6074.4092-.8652Z"/><path fill="currentColor" fill-rule="evenodd" d="M8.0185.0254c1.4967 0 2.9054.1717 3.9864.4805.5305.1515 1.0656.3592 1.501.6533.3848.26 1.0379.8297 1.038 1.7656v10.1504c0 .5819-.3176 1.0495-.7001 1.3887-.3835.34-.8974.6135-1.4698.8281-1.1374.4265-2.6564.6752-4.3008.6807.4243-.4303.7806-.9299 1.045-1.4903 1.0825-.0821 2.0316-.2805 2.747-.5488.4769-.1788.8131-.3734 1.0166-.5537.2038-.1806.2119-.2857.212-.3047V9.8965c-.2241.1186-.4665.2253-.7198.3203-.7684.2881-1.7113.4932-2.749.5996-.0956-.4714-.2569-.9423-.4873-1.4101 1.0744-.083 2.0164-.2812 2.7275-.5479.4769-.1789.8131-.3734 1.0166-.5537.2044-.1812.212-.2862.212-.3047V4.9316c-.3409.1723-.7163.3067-1.0889.4131-1.0809.3088-2.4898.4805-3.9863.4805-1.1242 0-2.1988-.0973-3.1221-.2764a3.2166 3.2166 0 0 0-.2734-.2793c-.408-.3678-.887-.6141-1.3956-.7832l-1.6552-.5498-.0791.2598V2.9248c0-.936.6532-1.5057 1.038-1.7656.4354-.294.9705-.5018 1.501-.6533C5.1132.197 6.522.0254 8.0185.0254Zm0 1.4492c-2.8025 0-5.0747.6495-5.0751 1.4502 0 .8008 2.2723 1.4502 5.0751 1.4502 2.8029 0 5.0753-.6494 5.0753-1.4502-.0005-.8007-2.2727-1.4502-5.0753-1.4502Z" clip-rule="evenodd"/><path fill="currentColor" d="M11.6436 11.625a.7248.7248 0 0 1 .7246.7246c0 .4004-.3242.7256-.7246.7256-.4005 0-.7247-.3252-.7247-.7256a.7248.7248 0 0 1 .7247-.7246ZM11.6436 6.5498c.4004 0 .7246.3252.7246.7256a.7247.7247 0 0 1-1.4493 0c0-.4004.3242-.7256.7247-.7256Z"/></svg>