<svg xmlns="http://www.w3.org/2000/svg" fill="none" viewBox="0 0 24 24"><path fill="currentColor" d="M5.7497 11c.6203.0004 1.1365.4874 1.1367 1.1074l.002 3.2334 2.9081-1.623c.5404-.3037 1.2315-.1251 1.5489.4023.3218.5351.1258 1.2161-.417 1.5186L8.0397 17.249l2.8887 1.6094c.5166.3205.7423.9706.417 1.5176-.3157.5303-1.01.7022-1.5479.4033l-2.9092-1.6191-.002 3.2324c0 .62-.5163 1.107-1.1366 1.1074-.6207 0-1.1376-.4872-1.1377-1.1074l-.003-3.2324-3.0078 1.6709c-.5206.2255-1.1493.042-1.4453-.4551-.3178-.5343-.1264-1.2132.4121-1.5215l.002-.001 2.8877-1.6103-2.8848-1.6094c-.5431-.3023-.7388-.9833-.417-1.5186.3172-.527 1.01-.7084 1.5498-.3925l-.001.0009 2.9043 1.6172.003-3.2334C4.612 11.4872 5.129 11 5.7497 11Z"/><path fill="currentColor" fill-rule="evenodd" d="M11.9997 1c2.0644 0 4.008.2371 5.499.663.7318.2092 1.4697.4958 2.0703.9014.5308.3586 1.4307 1.1445 1.4307 2.4356v14c0 .8028-.4372 1.4481-.9649 1.916-.5289.4689-1.2379.8456-2.0273 1.1416-1.5863.5948-3.7107.9424-6.0078.9424-.2208 0-.4401-.0044-.6573-.0107.6847-.3209 1.3017-.8863 1.7207-1.5899l.001-.001a3.2507 3.2507 0 0 0 .2188-.4423c1.59-.1012 2.9845-.3823 4.0224-.7715.658-.2468 1.1216-.5159 1.4024-.7647.2818-.2499.292-.3944.292-.4199v-4.3838c-.3091.1636-.6429.3104-.9922.4414-1.3028.4885-2.9687.8088-4.795.9082.2869-.6198.3707-1.3285.2012-2.0176 1.5357-.1081 2.8822-.3851 3.8916-.7636.658-.2468 1.1216-.5159 1.4024-.7647.2818-.2499.292-.3944.292-.4199V7.7676c-.4702.2376-.9872.4225-1.501.5693-1.491.426-3.4346.6631-5.499.6631-2.0645 0-4.0081-.2371-5.499-.663-.5139-.1469-1.031-.3318-1.501-.5694v1.3262c-.8429.2073-1.5755.755-2 1.5156V5c0-1.291.8998-2.0769 1.4306-2.4356.6006-.4056 1.3385-.6922 2.0703-.9013C7.9916 1.237 9.9352 1 11.9997 1Zm0 2c-3.866 0-7 .8954-7 2 0 1.1045 3.134 2 7 2s7-.8954 7-2-3.134-2-7-2Z" clip-rule="evenodd"/><path fill="currentColor" d="M16.9997 17c.5522 0 1 .4477 1 1s-.4478 1-1 1c-.5522-.0001-1-.4478-1-1s.4478-.9999 1-1ZM16.9997 10c.5522 0 1 .4477 1 1s-.4478 1-1 1c-.5522-.0001-1-.4478-1-1s.4478-.9999 1-1Z"/></svg>