<svg xmlns="http://www.w3.org/2000/svg" fill="none" viewBox="0 0 32 32"><path fill="currentColor" d="M9 9v18h14V9H9Zm16 0v18c0 1.1046-.8954 2-2 2H9c-1.1046 0-2-.8954-2-2V9H6c-.5523 0-1-.4477-1-1s.4477-1 1-1h20c.5523 0 1 .4477 1 1s-.4477 1-1 1h-1ZM13 3h6c.5523 0 1 .4477 1 1s-.4477 1-1 1h-6c-.5523 0-1-.4477-1-1s.4477-1 1-1Zm0 8c.5523 0 1 .4179 1 .9333v12.1334c0 .5154-.4477.9333-1 .9333s-1-.4179-1-.9333V11.9333c0-.5154.4477-.9333 1-.9333Zm6 0c.5523 0 1 .4179 1 .9333v12.1334c0 .5154-.4477.9333-1 .9333s-1-.4179-1-.9333V11.9333c0-.5154.4477-.9333 1-.9333Z"/></svg>