<svg xmlns="http://www.w3.org/2000/svg" fill="none" viewBox="0 0 16 16"><path fill="currentColor" fill-rule="evenodd" d="M6.0056 8.9736c1.2297.001 2.5124.9032 2.795 2.001h5.1796s1.0245-.0004 1.0049 1.0332c-.0196 1.0219-1.0054.9692-1.0283.9678l-5.1319.0117c-.4144 1.1818-1.5073 1.9894-2.8252 1.9941-1.2578.0044-2.5543-.908-2.8369-2.0058h-1.166c-.0105-.0001-.9591-.0135-.9629-.9756.0161-1.027.9543-1.0004.9668-1l1.1504-.0254c.4384-1.1146 1.6088-2.0018 2.8545-2.001Zm.0068 1.9981c-.4842.0101-1.0226.3564-.997 1.0576.025.6797.593.9466 1.0322.9492.7028.0038.9457-.5985.9258-1.0693-.019-.447-.5137-.9465-.961-.9375ZM9.9802.9922c1.2456-.0009 2.4151.8855 2.8535 2l1.1514.0254c.0234-.0007.9505-.0205.9668 1-.0037.9562-.941.9762-.9629.9765h-1.167C12.5392 6.0918 11.2429 7.0045 9.985 7c-1.3176-.0048-2.4097-.8126-2.8241-1.9941L2.029 4.994c-.013.0009-1.0084.0592-1.0283-.9677-.0198-1.034 1.0049-1.0342 1.0049-1.0342h5.1787c.2826-1.0979 1.5661-1.9991 2.7959-2Zm-.0068 1.998c-.4472-.0092-.9417.4896-.961.9366-.0199.4707.2221 1.073.9248 1.0693.4393-.0024 1.0085-.269 1.0332-.9492.0255-.701-.5128-1.0465-.997-1.0567Z" clip-rule="evenodd"/></svg>