<svg xmlns="http://www.w3.org/2000/svg" fill="none" viewBox="0 0 32 32"><path fill="currentColor" fill-rule="evenodd" d="M17.053 21.0909h12.8877v2.5454H17.053c-.5651 2.1958-2.5584 3.8182-4.9305 3.8182-2.3722 0-4.3654-1.6224-4.9305-3.8182H1.9407v-2.5454H7.192c.5651-2.1958 2.5583-3.8182 4.9305-3.8182 2.3721 0 4.3654 1.6224 4.9305 3.8182ZM14.8283 8.3636c.5652-2.1958 2.5584-3.8182 4.9306-3.8182 2.3721 0 4.3653 1.6224 4.9305 3.8182h5.2513v2.5454h-5.2513c-.5652 2.1958-2.5584 3.8182-4.9305 3.8182-2.3722 0-4.3654-1.6224-4.9306-3.8182H1.9407V8.3636h12.8876Zm4.9306 3.8182c1.4058 0 2.5454-1.1397 2.5454-2.5455 0-1.4058-1.1396-2.5454-2.5454-2.5454-1.4059 0-2.5455 1.1396-2.5455 2.5454s1.1396 2.5455 2.5455 2.5455ZM12.1225 24.909c1.4058 0 2.5454-1.1396 2.5454-2.5454s-1.1396-2.5455-2.5454-2.5455-2.5455 1.1397-2.5455 2.5455c0 1.4058 1.1397 2.5454 2.5455 2.5454Z" clip-rule="evenodd"/></svg>