<svg xmlns="http://www.w3.org/2000/svg" fill="none" viewBox="0 0 24 24"><g fill="currentColor" clip-path="url(#users--24-a)"><path fill-rule="evenodd" d="M12 7c-1.6569 0-3-1.3431-3-3 0-1.6568 1.3431-3 3-3s3 1.3432 3 3c0 1.6569-1.3431 3-3 3Zm0-1.7c.7179 0 1.3-.582 1.3-1.3 0-.718-.5821-1.3-1.3-1.3-.718 0-1.3.582-1.3 1.3 0 .718.582 1.3 1.3 1.3ZM2 6c0 1.6569 1.3432 3 3 3 1.6569 0 3-1.3431 3-3S6.6569 3 5 3C3.3432 3 2 4.3431 2 6Zm4.3 0c0 .718-.582 1.3-1.3 1.3-.718 0-1.3-.582-1.3-1.3 0-.718.582-1.3 1.3-1.3.718 0 1.3.582 1.3 1.3ZM16 6c0 1.6569 1.3431 3 3 3s3-1.3431 3-3-1.3431-3-3-3-3 1.3431-3 3Zm4.3 0c0 .718-.5821 1.3-1.3 1.3-.718 0-1.3-.582-1.3-1.3 0-.718.582-1.3 1.3-1.3.7179 0 1.3.582 1.3 1.3ZM11.9989 23c1.6346.0015 2.6173-.202 2.6173-1.3112l.4795-4.8706a4.4493 4.4493 0 0 0 .1359-.0803c.566-.3484.9488-.7513.9834-1.3347l.7494-4.4776C17.2298 9.34 15.9801 8 14.2462 8H9.7537c-1.7376 0-2.9829 1.3442-2.7182 2.9256l.7494 4.4777c.0347.5812.4159.9814.9816 1.3312a4.615 4.615 0 0 0 .1371.0814l.4842 4.9571c-.0041 1.0218.9759 1.2254 2.6111 1.227Zm1.7495-7.64c-.3496.1301-.5902.425-.6241.7651l-.4837 4.8426c-.1851.0207-.4078.0325-.6395.0323-.2339-.0002-.4589-.0126-.6455-.0341l-.4798-4.8408c-.0338-.3384-.2721-.6322-.6192-.7633-.0782-.0295-.2248-.096-.3609-.1782a1.3571 1.3571 0 0 1-.1068-.0711l-.7472-4.3653c-.0747-.4361.22-.7472.712-.7472h4.4926c.4914 0 .787.3098.7121.7472l-.7477 4.3682a1.328 1.328 0 0 1-.1046.0693c-.135.0812-.2806.1466-.3577.1753Z" clip-rule="evenodd"/><path d="M21.1897 16.6553c.0422-.028.078-.0546.1054-.0772l.6891-3.7921c.0855-.4707-.1781-.786-.659-.786h-1.2157c-.5523 0-1-.4477-1-1s.4477-1 1-1h1.2157c1.7277 0 2.9356 1.4443 2.6268 3.1436l-.685 3.7693c-.0397.6144-.416 1.0398-.9703 1.4082a4.2704 4.2704 0 0 1-.1307.0834L21.8113 21.6c0 1.134-.9415 1.4003-2.254 1.3993-1.3129-.001-2.2526-.2665-2.2507-1.335l-.3046-3.8296c-.0347-.5511.3839-1.0262.9351-1.0609.5512-.0348 1.0262.3839 1.061.935l.268 3.2774c.0906.0083.1901.013.2926.0131a3.2509 3.2509 0 0 0 .3006-.0134l.3601-3.2976a.9999.9999 0 0 1 .6163-.8414c.0764-.0314.2205-.1028.354-.1916ZM3.1645 16.8469c-.0764-.0314-.2205-.1028-.354-.1916a1.2857 1.2857 0 0 1-.1054-.0772l-.689-3.7921c-.0856-.4707.178-.786.659-.786h1.2157c.5523 0 1-.4477 1-1s-.4477-1-1-1H2.675C.9473 10-.2605 11.4443.0483 13.1436l.685 3.7693c.0397.6144.416 1.0398.9703 1.4082.044.0292.0876.057.1307.0834L2.1889 21.6c0 1.134.9416 1.4003 2.254 1.3993 1.313-.001 2.2527-.2665 2.2507-1.335l.3046-3.8296c.0348-.5511-.3839-1.0262-.935-1.0609-.5513-.0348-1.0263.3839-1.061.935l-.268 3.2774a3.2764 3.2764 0 0 1-.2927.0131 3.2509 3.2509 0 0 1-.3006-.0134l-.36-3.2976a.9999.9999 0 0 0-.6164-.8414Z"/></g><defs><clipPath id="users--24-a"><path fill="#fff" d="M0 0h24v24H0z"/></clipPath></defs></svg>