<svg xmlns="http://www.w3.org/2000/svg" fill="none" viewBox="0 0 32 32"><path fill="currentColor" d="M19.7496 13.1532h-.2478v-1.5005h.2408c.2194 0 .3811.0566.4849.1698.1062.1109.1593.2985.1593.5627 0 .2548-.0495.4471-.1486.5769-.0992.1274-.262.1911-.4886.1911ZM13.1227 13.2841h-.1841v-1.6314h.2336c.2219 0 .3859.066.4921.1982.1062.1297.1593.3303.1593.6016 0 .2949-.0578.5072-.1735.637-.1156.1297-.2914.1946-.5274.1946ZM21.2481 19.4213c-.3334-.1904-.7481.0502-.7481.434v6.2749c0 .3838.4147.6244.7481.434l5.4922-3.1375c.3359-.1919.3359-.676 0-.8679l-5.4922-3.1375Z"/><path fill="currentColor" fill-rule="evenodd" d="M2 4.9984c0-1.1042.8954-1.9994 2-1.9994h24c1.1046 0 2 .8952 2 1.9994v12.3388c1.2508 1.5452 2 3.5129 2 5.6556 0 4.969-4.0294 8.9971-9 8.9971-2.6655 0-5.0604-1.1584-6.7083-2.999h-4.6513c-.3253 0-.564-.3056-.4851-.6211L12 24.9921H4c-1.1046 0-2-.8951-2-1.9993V4.9984Zm15.3427 10.9965a9.0948 9.0948 0 0 1 .4422-.3358v-.5064h-1.37v-1.4333h1.2709v-.8352h-1.2709v-1.2315h1.37v-.8317H15.452v5.1739h1.8907Zm1.1962-.8181a8.9706 8.9706 0 0 1 .9629-.4763v-.7192h.3434l.2064.5082c.284-.0984.5744-.183.8704-.2529l-.2236-.5101c.4413-.2595.662-.7161.662-1.3696 0-.519-.1275-.9048-.3824-1.1572-.2525-.2524-.6454-.3787-1.1788-.3787h-1.2603v4.3558Zm3.4233-1.1221a9.1176 9.1176 0 0 1 1.7806-.0289v-.3878h-1.7806v.4167Zm2.8233.1179c.3213.0647.6363.1464.9442.2443a6.9732 6.9732 0 0 0-.0824-.4356l-.6761-3.1603h-.97l.7843 3.3516Zm1.1345.3071c.2724.0933.5389.1994.7987.3174l.9358-3.9761h-.9699l-.6691 3.1603a10.1414 10.1414 0 0 0-.0955.4984ZM6.6904 15.9949h.963V10.821h-.963v2.0561H5.4196V10.821h-.963v5.1739h.963v-2.2684h1.2708v2.2684Zm3.8162-5.1739-.6903 2.042-.6868-2.042h-1.016l1.2249 3.1391v2.0348h.9487v-2.0738l1.2284-3.1001h-1.0089Zm3.8728 2.8595c.2785-.2949.4177-.7172.4177-1.2669 0-1.0617-.5027-1.5926-1.508-1.5926h-1.3134v5.1739h.9629v-1.8756h.2407c.5239 0 .924-.1463 1.2001-.4388ZM23 29.9906c3.866 0 7-3.1331 7-6.9978 0-3.8648-3.134-6.9979-7-6.9979s-7 3.1331-7 6.9979c0 3.8647 3.134 6.9978 7 6.9978Z" clip-rule="evenodd"/></svg>