<svg xmlns="http://www.w3.org/2000/svg" fill="none" viewBox="0 0 16 16"><path fill="currentColor" d="M16 9c0 1.7028-1.0829 3.2034-2.6637 3.7679-.5202.1857-1.0924-.0854-1.2781-.6055-.1857-.5202.0854-1.0924.6055-1.2781C13.4568 10.6012 14 9.8484 14 9c0-.873-.5646-1.6376-1.3815-1.9028a.9999.9999 0 0 1-.6766-.7815C11.6143 4.412 9.9545 3 8 3S4.3857 4.412 4.0582 6.3157a1 1 0 0 1-.6767.7815 2.0012 2.0012 0 0 0-.0462 3.79c.5209.1834.7944.7545.611 1.2754-.1836.5209-.7546.7944-1.2755.611C1.0832 12.2144 0 10.7103 0 9c0-1.541.8791-2.9122 2.2098-3.578C2.9086 2.8477 5.2608 1 8 1c2.7392 0 5.0914 1.8477 5.7902 4.422C15.1209 6.0878 16 7.459 16 9Zm-9 5v-2H5.5a.5.5 0 0 1-.5-.5v-2a.5.5 0 0 1 .5-.5h5a.5.5 0 0 1 .5.5v2a.5.5 0 0 1-.5.5H9v2h1c.5523 0 1 .4477 1 1s-.4477 1-1 1H6c-.5523 0-1-.4477-1-1s.4477-1 1-1h1Zm2.5-3a.5.5 0 1 0 0-1 .5.5 0 0 0 0 1Z"/></svg>