<svg xmlns="http://www.w3.org/2000/svg" fill="none" viewBox="0 0 16 16"><path fill="currentColor" d="M14.8803 6.704c.0937.5.1336 1.0258.1152 1.5484C14.8627 12.0015 11.7815 15 8 15c-.9318 0-1.8513-.1814-2.7092-.5436C2.7701 13.3975 1 10.9055 1 8c0-3.866 3.134-7 7-7 3.4232 0 6.2725 2.4572 6.8803 5.704Zm-1.115 2.9633c-.6776.3308-1.5597.0932-1.9339-.6553a1.4493 1.4493 0 0 0-1.0579-.7813l-.0713-.0119a1.5568 1.5568 0 0 1-1.3008-1.5356v-.1545c0-.181.0492-.3587.1423-.514l.3197-.5327.0056-.0093.217-.3618.1774-.2956c.0827-.1379-.0166-.3133-.1774-.3133-.1537 0-.2537-.1618-.185-.2993l.185-.37.0761-.1522a.518.518 0 0 0 .0512-.1686l.0004-.0034c.0293-.25-.1284-.498-.3897-.5633-.338-.0845-.4915-.466-.327-.757A6.011 6.011 0 0 0 8 2a6.048 6.048 0 0 0-.9017.0673 1.8417 1.8417 0 0 1 .2652.6468 1.833 1.833 0 0 1-1.053 2.0346l-1.0665.474a2 2 0 0 0-1.0447 1.0848l-.2138.5344A.9436.9436 0 0 0 5.212 8.0686l.2546-.1019a1.2815 1.2815 0 0 1 1.382.2837l1.0076 1.0075a.495.495 0 0 0 .35.145c.441 0 .6618.5332.35.845l-1.6066 1.6066a1.436 1.436 0 0 0-.4096.8373l-.1366 1.0935A6.0058 6.0058 0 0 0 8 14c2.7352 0 5.0429-1.8302 5.7653-4.3327Zm.2342-1.7438c-.0268-2.148-1.1823-4.024-2.9008-5.0624.1532.3649.1656.7898-.0042 1.1848.2392.365.2834.8555.0264 1.2839l-.7195 1.1992v.1542c0 .2722.1967.5045.4652.5492l.0713.012a2.449 2.449 0 0 1 1.7879 1.3204c.1509.3018.5682.3356.7657.0621l.508-.7034ZM5.3958 13.407l.0658-.659a1.6951 1.6951 0 0 0-.6015-1.471l-.8794-.7328a1.4717 1.4717 0 0 1-.5295-1.1306V8.966a.8507.8507 0 0 0-.5817-.807.8507.8507 0 0 1-.5652-.6402L2.17 6.8466a1.9707 1.9707 0 0 0-.0316-.1335A6.022 6.022 0 0 0 2 8c0 2.3805 1.3864 4.4373 3.3958 5.4069Zm-2.8095-7.997c.2254.2936.3962.6277.5011.9847l.1834-.4585a3 3 0 0 1 1.567-1.6273l1.0665-.474a.833.833 0 0 0 .3752-1.1911.898.898 0 0 0-.2913-.2981c-1.4976.5328-2.721 1.6438-3.402 3.0643Zm1.8649 3.6822v.3214c0 .14.0621.2727.1697.3623l.8794.7329c.2583.2153.4702.4735.6293.7593a2.4086 2.4086 0 0 1 .1129-.1207l1.0535-1.0535a1.4954 1.4954 0 0 1-.147-.1289L6.1417 8.9574a.2815.2815 0 0 0-.3036-.0623l-.2546.1018a1.9388 1.9388 0 0 1-1.1322.0952Z"/></svg>