<svg xmlns="http://www.w3.org/2000/svg" fill="none" viewBox="0 0 16 16"><g fill="currentColor" clip-path="url(#workstations-premium--16-a)"><path fill-rule="evenodd" d="M15 8.416V2c0-.5523-.4477-1-1-1H2c-.5523 0-1 .4477-1 1v9c0 .5523.4477 1 1 1h5v1H6c-.5523 0-1 .4477-1 1s.4477 1 1 1h2.416A4.9834 4.9834 0 0 1 8 13a4.978 4.978 0 0 1 .9996-3H3V9h6.9995A4.978 4.978 0 0 1 13 8c.7111 0 1.3875.1485 2 .416ZM3 3h10v4H3V3Z" clip-rule="evenodd"/><path d="M15.6323 11.9448a.4347.4347 0 0 1 .345.2925.4356.4356 0 0 1-.0997.4417l-1.1453 1.1791.2647 1.6358a.4318.4318 0 0 1-.096.3525.4356.4356 0 0 1-.3307.1537.4445.4445 0 0 1-.21-.0547l-1.3605-.7561-1.3598.7561a.4331.4331 0 0 1-.6375-.4515l.2655-1.6358-1.1453-1.1791a.4377.4377 0 0 1-.1005-.4417.4381.4381 0 0 1 .3458-.2933l1.5622-.2392.6773-1.4543a.433.433 0 0 1 .7853 0l.6772 1.455 1.5623.2393Z"/></g><defs><clipPath id="workstations-premium--16-a"><path fill="#fff" d="M0 0h16v16H0z"/></clipPath></defs></svg>