<svg xmlns="http://www.w3.org/2000/svg" fill="none" viewBox="0 0 16 16"><path fill="currentColor" d="M6.6875 0c3.6936 0 6.6874 2.9935 6.6874 6.6875 0 .45-.049.8967-.1435 1.3403l-.0155.0612 1.7221 1.7225c1.3654 1.3654 1.4141 3.5484.1465 4.9714l-.1463.1549a3.6147 3.6147 0 0 1-2.5633 1.0621 3.6163 3.6163 0 0 1-2.5631-1.0619L8.09 13.2159l-.0607.0153a6.4876 6.4876 0 0 1-1.0044.1346l-.3374.0091C2.9938 13.3749 0 10.3815 0 6.6875c0-.9762.215-1.9263.6213-2.8048.308-.6658.9972-.8204 1.595-.5699.2847.1193.5676.3288.8982.637.4644.4332 1.0602 1.1042 1.7985 2.0218l.4168.525c.173.2205.4608.3165.6922.2553l.1148-.035a.961.961 0 0 0 .6042-.6559.699.699 0 0 0-.2438-.7309C5.3062 4.396 4.462 3.6635 3.9498 3.1146c-.3084-.3306-.5179-.6136-.6372-.8984-.2504-.5979-.0956-1.2871.5703-1.595C4.762.215 5.7115 0 6.6875 0Zm0 2a4.611 4.611 0 0 0-.8648.0817l-.0657.0143c.4125.3896.9864.8774 1.723 1.462l.2515.1984a2.699 2.699 0 0 1 .9413 2.8223c-.2519.9398-.9488 1.6945-1.901 2.0343l-.193.0594a2.6995 2.6995 0 0 1-2.8225-.9413c-.5237-.6676-.9756-1.2141-1.3518-1.6365L2.095 5.757l-.0133.0655a4.6125 4.6125 0 0 0-.0726.5738L2 6.6875c0 2.5894 2.0983 4.6875 4.6875 4.6875.4638 0 .9294-.0769 1.4008-.2263l.5795-.1837 2.5582 2.5588a1.6166 1.6166 0 0 0 1.1489.4761c.4292 0 .8394-.1663 1.1491-.4762.6346-.6344.6346-1.6631-.0003-2.298l-2.5578-2.5583.1829-.579c.1492-.4723.2261-.938.2261-1.401C11.3749 4.0982 9.2766 2 6.6875 2Z"/></svg>