<svg xmlns="http://www.w3.org/2000/svg" fill="none" viewBox="0 0 16 16"><path fill="currentColor" d="M10 5a.5.5 0 0 1 .5.5v1a.5.5 0 0 1-.5.5H9v4.5a.5.5 0 0 1-.5.5h-1a.5.5 0 0 1-.5-.5V7H6a.5.5 0 0 1-.5-.5v-1A.5.5 0 0 1 6 5h4ZM4.5 5a.5.5 0 0 1 .5.5v1.319a.5.5 0 0 1-.1159.32L2.5 10h2a.5.5 0 0 1 .5.5v1a.5.5 0 0 1-.5.5h-4a.5.5 0 0 1-.5-.5v-1.319a.5.5 0 0 1 .1159-.32L2.5 7h-2a.5.5 0 0 1-.5-.5v-1A.5.5 0 0 1 .5 5h4ZM14 5c1.1046 0 2 .8954 2 2v.2a.3.3 0 0 1-.3.3h-1.4a.3.3 0 0 1-.3-.3V7a.5.5 0 0 0-.9919-.0899L13 7v3a.5.5 0 0 0 .9919.0899L14 10v-.2a.3.3 0 0 1 .3-.3h1.4a.3.3 0 0 1 .3.3v.2c0 1.1046-.8954 2-2 2h-1c-1.1046 0-2-.8954-2-2V7c0-1.1046.8954-2 2-2h1Z"/></svg>