<svg xmlns="http://www.w3.org/2000/svg" fill="none" viewBox="0 0 24 24"><path fill="url(#acronis-ai-multi-a)" d="M15.109 1.01a.598.598 0 0 1 .4825.4725l.0716.325c.8004 3.3284 3.479 5.9257 6.8514 6.608l.103.0294A.599.599 0 0 1 23 9.004a.599.599 0 0 1-.4855.5885l-.001-.001c-3.4812.701-6.2264 3.4428-6.9291 6.922l.001.001A.599.599 0 0 1 14.997 17a.5984.5984 0 0 1-.5885-.4855c-.701-3.4811-3.4424-6.2258-6.922-6.93a.597.597 0 0 1-.4764-.4826L7 8.997l.01-.1049a.598.598 0 0 1 .3735-.4542l.103-.0293c3.4829-.7013 6.229-3.4445 6.9301-6.926A.5985.5985 0 0 1 15.004 1z"/><path fill="url(#acronis-ai-multi-b)" d="M6.0024 13a.408.408 0 0 1 .3784.2574l.0199.0672v.0019c.4308 2.1474 2.12 3.8395 4.2644 4.2751.0029.0005.0065.0004.0094.001.1859.0385.3255.203.3255.3983-.0002.1952-.1398.359-.3255.3975-2.1505.4328-3.8457 2.1263-4.2785 4.2751-.0383.186-.2031.3263-.3984.3265-.1953-.0001-.359-.1396-.3974-.3255l-.0009-.001c-.4313-2.1504-2.1243-3.845-4.2729-4.278-.186-.0383-.3264-.2029-.3264-.3983.0001-.1954.1396-.3591.3255-.3975l.0019-.0009c2.15-.4316 3.844-2.1246 4.2766-4.2733l.001-.0009A.4065.4065 0 0 1 6.0024 13"/><defs><linearGradient id="acronis-ai-multi-a" x1="15" x2="15" y1="1" y2="17" gradientUnits="userSpaceOnUse"><stop offset=".2" stop-color="#3849e0"/><stop offset="1" stop-color="#fc2df1"/></linearGradient><linearGradient id="acronis-ai-multi-b" x1="6" x2="6" y1="13" y2="23" gradientUnits="userSpaceOnUse"><stop offset=".2" stop-color="#3849e0"/><stop offset="1" stop-color="#fc2df1"/></linearGradient></defs></svg>