<svg xmlns="http://www.w3.org/2000/svg" fill="none" viewBox="0 0 24 24"><g stroke="#1763cf" stroke-linecap="round" stroke-linejoin="round" stroke-width="2"><path d="M17.67 22.4726c2.08-.7249 3.83-1.9748 3.83-4.4744v-4.9994h-8v4.9994c0 2.4996 1.75 3.7495 3.835 4.4694a.5.5 0 0 0 .335.005"/><path d="m3.2652 7.5858 6.7429 3.4074m.3652 10.0209-6.4099-3.8848A2 2 0 0 1 3 15.4189V8.581a2 2 0 0 1 .9634-1.7103l7-4.2425a2 2 0 0 1 2.0732 0l7 4.2425c.3099.1878.5573.4524.7238.761m0 0A2 2 0 0 1 21 8.581v.4202m-.2396-1.3695-.1042.048L16.5 9.7544"/></g></svg>