<svg xmlns="http://www.w3.org/2000/svg" fill="none" viewBox="0 0 24 24"><g stroke="#1763cf" stroke-linecap="round" stroke-linejoin="round" stroke-width="2"><path d="M7 18c1.105 0 2-.895 2-2s-.895-2-2-2-2 .895-2 2 .895 2 2 2M9 16h6M17 18c1.105 0 2-.895 2-2s-.895-2-2-2-2 .895-2 2 .895 2 2 2"/><path d="M19.5 16h.0585a2 2 0 0 0 1.8973-1.3675l.4398-1.3194c.3382-1.0144-.1814-2.1153-1.1794-2.4992l-3.9239-1.5092a4 4 0 0 1-1.3925-.905l-1.814-1.814A2 2 0 0 0 12.1716 6H9.7082a6 6 0 0 0-5.3666 3.3167L4 10m.5 6H4c-1.1046 0-2-.8954-2-2v-2c0-1.1046.8954-2 2-2m0 0h14.6"/></g></svg>