<svg xmlns="http://www.w3.org/2000/svg" fill="none" viewBox="0 0 24 24"><g stroke="#1763cf" stroke-width="2"><path d="M17.5681 12.5053a.374.374 0 0 1 .3016.2953l.0448.2031c.5002 2.0802 2.1743 3.7036 4.2821 4.1301l.0643.0183a.374.374 0 0 1 .2391.3494.3744.3744 0 0 1-.3034.3678c-2.1758.4382-3.8922 2.1511-4.3313 4.3257a.3741.3741 0 0 1-.735.0006c-.4381-2.1757-2.1515-3.8912-4.3262-4.3313a.373.373 0 0 1-.2978-.3016l-.0063-.0656.0063-.0656a.374.374 0 0 1 .2334-.2839l.0644-.0182c2.1768-.4384 3.8931-2.1529 4.3313-4.3288a.374.374 0 0 1 .3671-.3016z"/><path stroke-linecap="round" stroke-linejoin="round" d="M13.999 2v4.9998c0 .5448.4554 1.0002 1.0002 1.0002H20V7l-4.4142-4.4142A2 2 0 0 0 14.1716 2H6c-1.0893 0-2 .9107-2 2v16c0 1.0893.9107 2 2 2h5m9-15v2.5"/></g></svg>