<svg xmlns="http://www.w3.org/2000/svg" fill="none" viewBox="0 0 24 24"><g stroke="#1763cf" stroke-linecap="round" stroke-width="2"><path d="M22 10v-.3062c0-.8985-.7326-1.6268-1.6364-1.6268h-6.9915a.818.818 0 0 1-.7596-.5113l-1.0192-3.533C11.3448 3.405 10.7431 3 10.0739 3H3.6364C2.7326 3 2 3.7283 2 4.6268v13.7464C2 19.2717 2.7326 20 3.6364 20H9"/><path stroke-linejoin="round" d="M17.67 22.6174c2.08-.6976 3.83-1.9004 3.83-4.306V13.5h-8v4.8114c0 2.4056 1.75 3.6084 3.835 4.3012a.52.52 0 0 0 .335.0048"/></g></svg>