<svg xmlns="http://www.w3.org/2000/svg" fill="none" viewBox="0 0 24 24"><path stroke="#1763cf" stroke-linecap="round" stroke-linejoin="round" stroke-width="2" d="m15.5 12.3278 4.9729-5.5353c.1946-.189.2913-.2836.3609-.394a1.08 1.08 0 0 0 .1354-.3159C21 5.958 21 5.8256 21 5.5636c0-.595.158-1.4307-.1231-1.9667C20.54 2.9542 19.8299 3 19.1996 3h-14.4c-.63 0-1.3402-.0454-1.677.5969C3 3.8307 3 4.137 3 4.7495c0 .8215-.0851 1.4478.5273 2.043L8.473 12.336c.3926.3815.5271.6955.5271 1.2285v8.4353l5.9727-2.5876v-5.8477c0-.5494.1408-.8613.5234-1.2332z"/></svg>