<svg xmlns="http://www.w3.org/2000/svg" fill="none" viewBox="0 0 24 24"><g stroke="#1763cf" stroke-linecap="round" stroke-linejoin="round" stroke-width="2"><path d="M13.75 17.5H12.5m1.25 0c0 2.071 1.679 3.75 3.75 3.75m-3.75-3.75c0-2.071 1.679-3.75 3.75-3.75m-2.651 6.403L13.75 21.25m0-7.5 1.099 1.098M17.5 21.25v1.25m0-1.25c2.071 0 3.75-1.679 3.75-3.75M17.5 13.75V12.5m0 1.25c2.071 0 3.75 1.679 3.75 3.75m0 3.75-1.099-1.098m0-5.305 1.099-1.098m0 3.75h1.25M10 21.946c-1.616-.199-3-1.034-3-3.945v-8H6C5.664 10.001 5 10 5 10c-2 0-3 1.837-3 3.5v1c0 3 2 3.501 5 3.501m-1-8C6 4.966 7.5 2 12 2c4.193 0 5.782 2.575 5.979 7"/></g></svg>