<svg xmlns="http://www.w3.org/2000/svg" fill="none" viewBox="0 0 24 24"><g stroke="#1763cf" stroke-linecap="round" stroke-linejoin="round" stroke-width="2"><path d="m10 15.5-1.4142-1.4142A2 2 0 0 0 7.1716 13.5H2"/><path d="M9 20H4c-1.089 0-2-.911-2-2v-4.5l3.45-9.39C5.781 3.444 6.496 3 7.24 3h9.52c.744 0 1.459.444 1.79 1.11l1.785 5.39M7.5 10H14M9 6.5h6"/><path d="M19.5 16v-1.5a2 2 0 0 0-4 0V16m-1 0h6c.5523 0 1 .4477 1 1v4c0 .5523-.4477 1-1 1h-6c-.5523 0-1-.4477-1-1v-4c0-.5523.4477-1 1-1"/></g></svg>