<svg xmlns="http://www.w3.org/2000/svg" fill="none" viewBox="0 0 24 24"><g stroke="#1763cf" stroke-width="2"><path stroke-linecap="round" stroke-linejoin="round" d="M2 14.5h5.1716a2 2 0 0 1 1.4142.5858L10 16.5h2"/><path stroke-linecap="round" stroke-linejoin="round" d="M20.275 8.805 18.55 4.11c-.3312-.6664-1.0458-1.1096-1.79-1.11H7.24c-.7442.0004-1.4588.4436-1.79 1.11L2 14.5V19c0 1.0893.9107 2 2 2h5.5"/><path d="M18 17c-.9981 0-2-.9204-2-3.4491 0-1.1627 1.0542-1.5511 2.0054-1.5509.9745-.0015 1.9946.3512 1.9946 1.5509C20 16.0796 18.9981 17 18 17Z"/><path stroke-linecap="round" stroke-linejoin="round" d="M14 22.5c0-1.308.729-2.5 1.6-2.5 1.875.333 2.925.303 4.8 0 .872 0 1.6 1.192 1.6 2.5M7.5 11H12M9 7h6"/></g></svg>