<svg xmlns="http://www.w3.org/2000/svg" fill="none" viewBox="0 0 24 24"><g stroke="#1763cf" stroke-width="2"><path d="M20.111 12 13.889 12a.889.889 0 0 0-.889.889v7.222a.889.889 0 0 0 .889.889l6.222 0A.889.889 0 0 0 21 20.111v-7.222a.889.889 0 0 0-.889-.889ZM20.111 3 13.889 3A.889.889 0 0 0 13 3.889V7.111c0 .491.398.889.889.889l6.222 0A.889.889 0 0 0 21 7.111V3.889a.889.889 0 0 0-.889-.889ZM8.111 3 3.889 3A.889.889 0 0 0 3 3.889V20.111A.889.889 0 0 0 3.889 21l4.222 0A.889.889 0 0 0 9 20.111V3.889a.889.889 0 0 0-.889-.889Z"/></g></svg>