<svg xmlns="http://www.w3.org/2000/svg" fill="none" viewBox="0 0 24 24"><g stroke="#1763cf" stroke-linecap="round" stroke-width="2"><path stroke-linejoin="round" d="M8 9V5.8889c0-1.0314.4214-2.0206 1.1716-2.7499S10.939 2 12 2s2.0783.4097 2.8284 1.139C15.5786 3.8683 16 4.8575 16 5.889V9"/><path d="M20 10.5c0-.8284-.6716-1.5-1.5-1.5H6c-1.1046 0-2 .8954-2 2v8c0 1.1046.8954 2 2 2h3.5"/><path stroke-linejoin="round" d="M11.5 16.2857C12.6 15.1429 14.8 14 17 14s4.4 1.1429 5.5 2.2857m-8.965 2.7177c.9253-.8576 2.1693-1.338 3.465-1.338s2.5397.4804 3.465 1.338M15.35 22c.4636-.5714 1.1-.8571 1.65-.8571s1.2087.2857 1.65.8571"/></g></svg>