<svg xmlns="http://www.w3.org/2000/svg" fill="none" viewBox="0 0 24 24"><g stroke="#1763cf" stroke-linecap="round" stroke-width="2"><path stroke-linejoin="round" d="M9 21h6m-3-4v4"/><path d="M21 14.5c0 .8284-.6716 1.5-1.5 1.5H5c-1.1046 0-2-.8954-2-2V5c0-1.1046.8954-2 2-2h4.5"/><path stroke-linejoin="round" d="M17.4082 1.557a.1025.1025 0 0 1 .1836 0l1.4895 3.0112 3.331.4859a.1022.1022 0 0 1 .0566.1744L20.0588 7.571l.5688 3.3092a.1023.1023 0 0 1-.1485.1078L17.5 9.4247l-2.9791 1.5633a.1023.1023 0 0 1-.1485-.1078l.5688-3.3092-2.4101-2.3425a.1022.1022 0 0 1 .0566-.1744l3.331-.4859z"/></g></svg>