<svg xmlns="http://www.w3.org/2000/svg" fill="none" viewBox="0 0 24 24"><g stroke="#1763cf" stroke-linecap="round" stroke-width="2"><path stroke-linejoin="round" d="M9 21h6m-3-4v4"/><path d="M21 13.5v.5c0 1.1046-.8954 2-2 2H5c-1.1046 0-2-.8954-2-2V5c0-1.1046.8954-2 2-2h3.5"/><path stroke-linejoin="round" d="M15.5 10c-2.2657-.0012-4-1.7134-4-4 0-1.9532 1.6913-3.942 3.7243-3.9985 1.7017-.0473 3.3127 1.0541 3.8823 2.6651C20.6228 4.6667 22 5.7193 22 7.3334 22 8.7858 20.7857 10 19.3333 10z"/></g></svg>