<svg xmlns="http://www.w3.org/2000/svg" fill="none" viewBox="0 0 24 24"><path stroke="#1763cf" stroke-linecap="round" stroke-linejoin="round" stroke-width="2" d="M12 15c-1.1702 0-2.1839-.67-2.6784-1.6473A2.99 2.99 0 0 1 9 12c0-.4867.1159-.9463.3216-1.3527C9.816 9.67 10.8298 9 12 9m-2.6784 4.3527-6.0462 3.0791m11.403-5.7845c.2057.4064.3216.866.3216 1.3527s-.1159.9463-.3216 1.3527C14.1839 14.33 13.1702 15 12 15m0 0v6.6614M12 9c1.1702 0 2.1839.67 2.6784 1.6473M12 9V2.3386m-2.6784 8.3087L3.2652 7.5859m11.4132 3.0614 6.0807-3.0178m-6.0807 5.7232 6.0462 3.0791m-7.688-13.8036 7 4.2425A2 2 0 0 1 21 8.581v6.8378c0 .6994-.3653 1.348-.9634 1.7104l-7 4.2425a2 2 0 0 1-2.0732 0l-7-4.2425A2 2 0 0 1 3 15.4189V8.5811a2 2 0 0 1 .9634-1.7104l7-4.2425a2 2 0 0 1 2.0732 0"/></svg>