<svg xmlns="http://www.w3.org/2000/svg" fill="none" viewBox="0 0 24 24"><path stroke="#1763cf" stroke-linecap="round" stroke-linejoin="round" stroke-width="2" d="m5.1747 13.3812 5.6407-7.7696M12 18V6m0 12c1.1046 0 2 .8954 2 2s-.8954 2-2 2-2-.8954-2-2 .8954-2 2-2m0-12c-1.1046 0-2-.8954-2-2s.8954-2 2-2 2 .8954 2 2-.8954 2-2 2m6.3051 10.0622-4.6071 2.8805m-8.0026-2.8812 4.6066 2.8812m2.8602-13.3148 5.6597 7.7557M6 15c0-1.1046-.8954-2-2-2s-2 .8954-2 2 .8954 2 2 2 2-.8954 2-2m16 0c0-1.1046-.8954-2-2-2s-2 .8954-2 2 .8954 2 2 2 2-.8954 2-2"/></svg>