<svg xmlns="http://www.w3.org/2000/svg" fill="none" viewBox="0 0 24 24"><g stroke="#1763cf" stroke-linecap="round" stroke-width="2" clip-path="url(#patch-a)"><path d="M21 9 9 21c-1.657 1.657-4.343 1.657-6 0-1.657-1.657-1.657-4.343 0-6L15 3c1.657-1.657 4.343-1.657 6 0s1.657 4.343 0 6ZM18.5 11.5l-6-6m-1 13-6-6M15 20.396l.54.54c1.419 1.419 3.978 1.419 5.396 0s1.419-3.977 0-5.396L20.396 15M9 3.604l-.54-.54c-1.419-1.419-3.977-1.419-5.396 0s-1.419 3.978 0 5.396L3.604 9"/></g><defs><clipPath id="patch-a"><path fill="#fff" d="M0 0h24v24H0z"/></clipPath></defs></svg>