<svg xmlns="http://www.w3.org/2000/svg" fill="none" viewBox="0 0 24 24"><path stroke="#1763cf" stroke-linecap="round" stroke-linejoin="round" stroke-width="2" d="M20 7h-2.1514C17.3511 7 17 6.4975 17 6c0-1.6569-1.3431-3-3-3s-3 1.3431-3 3c0 .4975-.3512 1-.8487 1H8c-.5523 0-1 .4477-1 1v2.1513C7 10.6488 6.4975 11 6 11c-1.6569 0-3 1.3431-3 3s1.3431 3 3 3c.4975 0 1 .3511 1 .8486V20c0 .5523.4477 1 1 1h12c.5523 0 1-.4477 1-1v-2.1514c0-.4975-.5025-.8486-1-.8486-1.6569 0-3-1.3431-3-3s1.3431-3 3-3c.4975 0 1-.3512 1-.8487V8c0-.5523-.4477-1-1-1"/></svg>