<svg xmlns="http://www.w3.org/2000/svg" fill="none" viewBox="0 0 24 24"><g stroke="#1763cf" stroke-linecap="round" stroke-width="2"><path d="M2 8.997v9.0001c0 1.1045.8954 2 2 2h12c1.1046 0 2-.8955 2-2v-9c0-1.1046-.8954-2-2-2H4c-1.1046 0-2 .8954-2 2Z"/><path d="M19.3333 16H20c1.1046 0 2-.8954 2-2V5c0-1.1046-.8954-2-2-2H8c-1.1046 0-2 .8954-2 2v2"/><path stroke-linejoin="round" d="M6.5 14.5c.552 0 1-.448 1-1s-.448-1-1-1-1 .448-1 1 .448 1 1 1M13.5 14.5c.552 0 1-.448 1-1s-.448-1-1-1-1 .448-1 1 .448 1 1 1"/><path d="M6.5 14.5h7"/></g></svg>