<svg xmlns="http://www.w3.org/2000/svg" fill="none" viewBox="0 0 24 24"><g stroke="#1763cf" stroke-width="2"><path d="M12 12c-1.9962 0-4-1.8408-4-6.8981C8 2.7765 10.1084 1.9996 12.0107 2 13.9599 1.997 16 2.7023 16 5.102 16 10.1592 13.9962 12 12 12Z"/><path stroke-linecap="round" stroke-linejoin="round" d="M3 21v-2c0-.5523.4266-1.1303.941-1.3314 1.0476-.4097 2.6937-1.0956 3.5313-1.4467.328-.1375.6988-.0838 1.0092.0901 1.9365 1.0844 5.1025 1.0841 7.0384-.0008.3096-.1735.6792-.2276 1.0068-.0911.8379.3493 2.4868 1.0329 3.534 1.4438.5142.2018.9393.7838.9393 1.3361v2"/></g></svg>