<svg xmlns="http://www.w3.org/2000/svg" fill="none" viewBox="0 0 24 24"><g stroke="#1763cf" stroke-width="2"><path stroke-linecap="round" stroke-linejoin="round" d="M4 21v-2c0-.552.419-1.155.914-1.399.78-.384 1.87-.956 2.524-1.302.344-.182.757-.142 1.099.044.148.08.303.154.463.222M17.413 13.054a.097.097 0 0 1 .174 0l1.411 2.853 3.156.46a.097.097 0 0 1 .054.165l-2.283 2.219.539 3.135a.097.097 0 0 1-.141.102L17.5 20.508l-2.822 1.481a.097.097 0 0 1-.141-.102l.539-3.135-2.283-2.219a.097.097 0 0 1 .054-.165l3.156-.46z"/><path d="M12 12c-1.9962 0-4-1.8408-4-6.8981C8 2.7765 10.1084 1.9996 12.0107 2 13.9599 1.997 16 2.7023 16 5.102 16 10.1592 13.9962 12 12 12Z"/></g></svg>