<svg xmlns="http://www.w3.org/2000/svg" fill="none" viewBox="0 0 24 24"><g stroke="#1763cf" stroke-width="2"><path d="M12 12c-1.9962 0-4-1.8408-4-6.8981C8 2.7765 10.1084 1.9996 12.0107 2 13.9599 1.997 16 2.7023 16 5.102 16 10.1592 13.9962 12 12 12Z"/><path stroke-linecap="round" stroke-linejoin="round" d="M4 21v-2c0-.552.419-1.155.914-1.399.78-.384 1.87-.956 2.524-1.302.344-.182.757-.142 1.099.044.148.08.303.154.463.222M14.625 18H13.5m1.125 0c0 1.864 1.511 3.375 3.375 3.375m-3.375-3.375c0-1.864 1.511-3.375 3.375-3.375m-2.386 5.762-.989.988m0-6.75.989.988M18 21.375V22.5m0-1.125c1.864 0 3.375-1.511 3.375-3.375M18 14.625V13.5m0 1.125c1.864 0 3.375 1.511 3.375 3.375m0 3.375-.989-.988m0-4.774.989-.988m0 3.375H22.5"/></g></svg>