<svg xmlns="http://www.w3.org/2000/svg" fill="none" viewBox="0 0 24 24"><g stroke="#1763cf" stroke-width="2"><path d="M9 12c-1.9962 0-4-1.8408-4-6.8981C5 2.7765 7.1084 1.9996 9.0107 2 10.9599 1.997 13 2.7023 13 5.102 13 10.1592 10.9962 12 9 12Z"/><path stroke-linecap="round" d="M17.008 4C18.4699 3.9975 20 4.562 20 6.4815 20 10.5274 18.4972 12 17 12a2.19 2.19 0 0 1-1-.2391"/><path stroke-linecap="round" stroke-linejoin="round" d="M2 21v-2c0-.552.419-1.155.914-1.399.78-.384 1.87-.956 2.524-1.302.344-.182.757-.143 1.088.061q2.475 1.531 4.95-.001c.33-.204.742-.243 1.085-.063.655.344 1.748.914 2.528 1.299.495.244.912.853.912 1.405v2M22 21v-2c0-.552-.416-1.161-.912-1.405C19.904 17.011 18 16 18 16"/></g></svg>