<svg xmlns="http://www.w3.org/2000/svg" fill="none" viewBox="0 0 24 24"><path stroke="#1763cf" stroke-linecap="round" stroke-linejoin="round" stroke-width="2" d="m3.5567 7.457 2.9637 3.0235c1.09 1.1121 2.878 1.121 3.9792.0199 1.1014-1.1014 1.0922-2.89-.0206-3.98L7.4545 3.558c-.4172-.4185-.2846-1.1229.2847-1.2789a7.7984 7.7984 0 0 1 9.1722 10.7342l4.514 4.5877a2.757 2.757 0 0 1 .0007 3.8985 2.7568 2.7568 0 0 1-3.8986.0006l-4.514-4.5877a7.799 7.799 0 0 1-8.2811-1.1759 7.798 7.798 0 0 1-2.4534-7.996c.156-.5693.8617-.7019 1.2777-.2834"/></svg>