<svg width="24" height="24" fill="currentColor" viewBox="0 0 24 24" xmlns="http://www.w3.org/2000/svg">
  <path d="M12 10C7.0294 10 3 8.2091 3 6s4.0294-4 9-4 9 1.7909 9 4-4.0294 4-9 4M3 7.9666C4.6207 9.7622 8.0418 11 12 11s7.3793-1.2378 9-3.0334V10.5c0 1.933-4.0294 3.5-9 3.5s-9-1.567-9-3.5zm0 4.2818C4.6207 13.8772 8.0418 15 12 15s7.3793-1.1228 9-2.7516V14.5c0 1.933-4.0294 3.5-9 3.5s-9-1.567-9-3.5zm0 4C4.6207 17.8772 8.0418 19 12 19s7.3793-1.1228 9-2.7516V18.5c0 1.933-4.0294 3.5-9 3.5s-9-1.567-9-3.5z"/>
</svg>
