<svg width="32" height="32" fill="currentColor" viewBox="0 0 32 32" xmlns="http://www.w3.org/2000/svg">
  <path d="M16 29C8.8203 29 3 23.1797 3 16S8.8203 3 16 3s13 5.8203 13 13-5.8203 13-13 13m-7.8878-5.333c.6083-.292 1.419-.5333 2.4322-.6895q2.8115-.4336 2.948-2.0211V18.796C12.5825 17.8852 12 16.6768 12 15.9847q-1-.4933-1-2.0077.0585-.6077.6424-.8801-.2158-1.091-.111-2.62c.1883-1.216.7103-3.1267 3.9582-3.4553q1.8711-.167 2.7558.9583 2.2053.3132 2.2708 2.9677c0 .9129-.0875 1.6017-.2054 2.1283q.6283.2695.6892.901 0 1.5145-1 2.0078c0 .6921-.5823 1.9005-1.4925 2.8114v2.1603q.1366 1.5875 2.9481 2.021c1.0132.1563 1.8239.3977 2.4322.6896C25.8138 21.6858 27 18.9814 27 16c0-6.0751-4.9249-11-11-11S5 9.9249 5 16c0 2.9814 1.1861 5.6858 3.1122 7.667"/>
</svg>
