<svg width="24" height="24" fill="currentColor" viewBox="0 0 24 24" xmlns="http://www.w3.org/2000/svg">
  <path d="M20.2206 3.8342A1 1 0 0 1 21 4.8107l-.012 9.0946c-.1157 2.3958-1.7225 4.4255-4.2385 6.0627C15.0311 21.0862 12.8038 22 12 22c-.8036 0-3.031-.9136-4.7506-2.0318-2.517-1.6368-4.1268-3.6657-4.2494-6.111V4.8094a1 1 0 0 1 .7794-.9753l8-1.8096a1 1 0 0 1 .4412 0zM12 4.0252 4.9999 5.6087l-.0012 8.198c.082 1.6184 1.3068 3.1622 3.341 4.4849C9.7633 19.2172 11.6717 20 12 20s2.2364-.7828 3.6587-1.7083c2.0321-1.3224 3.2535-2.8652 3.3304-4.4358l.01-8.2475zM13 11h1.4985a.52.52 0 0 1 .215.0465c.2502.1141.3567.4013.2379.6414l-2.997 5.0372c-.0831.168-.2594.2749-.453.2749-.277 0-.5014-.2155-.5014-.4814V12H9.5015a.52.52 0 0 1-.215-.0465c-.2502-.1141-.3567-.4013-.2379-.6414l2.997-5.0372c.0831-.168.2594-.2749.453-.2749.277 0 .5014.2155.5014.4814z"/>
</svg>
