<svg width="16" height="16" fill="currentColor" viewBox="0 0 16 16" xmlns="http://www.w3.org/2000/svg">
  <path d="M15 10.5q0 2.9626-6.659 5.3782a1 1 0 0 1-.682 0Q1 13.4626 1 10.5V2.7543a1 1 0 0 1 .7253-.9615l6-1.7143a1 1 0 0 1 .5494 0l6 1.7143A1 1 0 0 1 15 2.7543zM8 2.08 3 3.5086V10.5c0 .811 1.5267 2.0693 5 3.3723 3.4733-1.303 5-2.5614 5-3.3723V3.5086zM7 8h-.5042a.49.49 0 0 1-.278-.0862c-.2267-.1553-.286-.4669-.1325-.696L8.094 4.22A.494.494 0 0 1 8.5043 4C8.778 4 9 4.2244 9 4.5012V7h.5042c.0992 0 .196.03.278.0862.2267.1553.286.4669.1325.696L7.906 10.78a.494.494 0 0 1-.4103.22C7.222 11 7 10.7756 7 10.4988z"/>
</svg>
