<svg xmlns="http://www.w3.org/2000/svg" fill="none" viewBox="0 0 16 16"><g clip-path="url(#actions-o--16-a)"><path fill="currentColor" fill-rule="evenodd" d="M4 0C1.7909 0 0 1.7909 0 4v8c0 2.2091 1.7909 4 4 4h8c2.2091 0 4-1.7909 4-4V4c0-2.2091-1.7909-4-4-4H4Zm1 8c0 .5523-.4477 1-1 1s-1-.4477-1-1 .4477-1 1-1 1 .4477 1 1Zm4 0c0 .5523-.4477 1-1 1s-1-.4477-1-1 .4477-1 1-1 1 .4477 1 1Zm4 0c0 .5523-.4477 1-1 1s-1-.4477-1-1 .4477-1 1-1 1 .4477 1 1Z" clip-rule="evenodd"/></g><defs><clipPath id="actions-o--16-a"><path fill="#fff" d="M0 0h16v16H0z"/></clipPath></defs></svg>