<svg width="32" height="32" fill="currentColor" viewBox="0 0 32 32" xmlns="http://www.w3.org/2000/svg">
  <path d="M16.67 3.5898Q19.33 6.0642 27 7v13c-.0332 2.3126-1.3071 4.3924-3.35 5.5399L16 29l-7.64-3.4601C6.3133 24.3949 5.0353 22.3147 5 20V7q7.66-.926 10.33-3.4102L16 3zM7 8.7434l-.0002 11.2261c.0237 1.5597.8704 2.9748 2.2692 3.7865l6.7315 3.0487 6.7392-3.0481C24.1347 22.943 24.9778 21.5294 25 20V8.7417c-4.0472-.633-7.0366-1.6417-8.9997-3.1108-1.967 1.474-4.957 2.4833-9.0003 3.1125M16.2483 17H12l4.1514-6.5145c.3017-.4736.9541-.6271 1.4571-.343.503.2842.6661.8984.3643 1.372L15.7517 15H20l-4.1514 6.5145c-.3017.4736-.9541.6271-1.4571.343-.503-.2842-.6661-.8984-.3643-1.372z"/>
</svg>
