<svg width="32" height="32" fill="currentColor" viewBox="0 0 32 32" xmlns="http://www.w3.org/2000/svg">
  <path d="M10 10.6333C10 6.6693 12.5168 4 16 4s6 2.6692 6 6.6333c0 2.2117-.7604 4.4805-1.992 6.0936 2.123.7345 4.3897 2.0238 6.8072 3.861A3 3 0 0 1 28 22.9766V27c0 .5523-.4477 1-1 1H5c-.5523 0-1-.4477-1-1v-4.0235a3 3 0 0 1 1.1848-2.3885c2.5203-1.9154 4.8768-3.2353 7.0775-3.9518C10.7633 14.3297 10 12.3399 10 10.6333m16 12.3432a1 1 0 0 0-.395-.7962c-2.8522-2.1677-5.4232-3.4863-7.698-3.9699-.8385-.1782-1.0787-1.26-.3943-1.7764C18.949 15.3502 20 12.945 20 10.6333 20 7.7483 18.3514 6 16 6s-4 1.7484-4 4.6333c0 1.4848.884 3.5068 2.6955 6.0132.4234.5859.1045 1.4136-.6025 1.564-2.2748.4835-4.8458 1.8021-7.698 3.9698a1 1 0 0 0-.395.7962V26h20z"/>
</svg>
