<svg width="24" height="24" fill="currentColor" viewBox="0 0 24 24" xmlns="http://www.w3.org/2000/svg">
  <path fill-rule="evenodd" d="M11.0002 21a.996.996 0 0 1-.126.4856c-.2683.4828-.877.6568-1.3598.3886l-9-5A1 1 0 0 1 0 16V6a1 1 0 0 1 .5144-.8742l9-5a1 1 0 0 1 .9712 0l9 5A1 1 0 0 1 20 6v4c0 .5523-.4477 1-1 1s-1-.4477-1-1V7.8084l-6.9958 3.6594V21zM9 19.3005v-7.8327L2 7.8062v7.6054zM18 24c3.3137 0 6-2.6863 6-6s-2.6863-6-6-6-6 2.6863-6 6 2.6863 6 6 6m-.9841-17.9583L10 2.144 2.9862 6.0405l7.0159 3.6834zM19 17.4142V21c0 .5523-.4477 1-1 1s-1-.4477-1-1v-3.5858l-1.2929 1.2929c-.3905.3905-1.0237.3905-1.4142 0s-.3905-1.0237 0-1.4142l3-3c.3905-.3905 1.0237-.3905 1.4142 0l3 3c.3905.3905.3905 1.0237 0 1.4142s-1.0237.3905-1.4142 0z"/>
</svg>
