<svg xmlns="http://www.w3.org/2000/svg" fill="none" viewBox="0 0 24 24"><g fill="currentColor" clip-path="url(#adv-security-pack-mdr-adv--24-a)"><path d="M10.1111 16.6639c-1.7368-.2768-3.2987-1.0763-4.5184-2.2319l-3.84 3.488c-.3667.3331-.9347.3065-1.2687-.0593A.8943.8943 0 0 1 .465 16.676l.0786-.0809 3.8835-3.526c-.941-1.3681-1.4915-3.0242-1.4915-4.8086 0-4.7002 3.82-8.5105 8.5322-8.5105C16.18-.25 20 3.5603 20 8.2605a8.5114 8.5114 0 0 1-.2222 1.9378A8.0225 8.0225 0 0 0 18 10h-.0242a6.711 6.711 0 0 0 .2279-1.7395c0-3.7107-3.0158-6.7188-6.736-6.7188-3.7202 0-6.736 3.008-6.736 6.7188 0 3.4215 2.5642 6.2457 5.8804 6.665a7.9367 7.9367 0 0 0-.501 1.7384Z"/><path fill-rule="evenodd" d="M18 24c3.3137 0 6-2.6863 6-6s-2.6863-6-6-6-6 2.6863-6 6 2.6863 6 6 6Zm1-6.5858V21c0 .5523-.4477 1-1 1s-1-.4477-1-1v-3.5858l-1.2929 1.2929c-.3905.3905-1.0237.3905-1.4142 0-.3905-.3905-.3905-1.0237 0-1.4142l3-3c.3905-.3905 1.0237-.3905 1.4142 0l3 3c.3905.3905.3905 1.0237 0 1.4142-.3905.3905-1.0237.3905-1.4142 0L19 17.4142Z" clip-rule="evenodd"/><path d="m12.5807 7.3336.3712-2.9643c.0187-.183-.1055-.3474-.2773-.3673-.1093-.0127-.2168.0366-.2833.1298l-3.3276 4c-.1045.1465-.0776.3556.0601.4668a.3009.3009 0 0 0 .1893.0678h1.1062l-.3712 2.9643c-.0187.183.1055.3474.2773.3673.1093.0127.2168-.0366.2833-.1298l3.3276-4c.1045-.1465.0776-.3556-.0601-.4668a.301.301 0 0 0-.1893-.0678h-1.1062Z"/></g><defs><clipPath id="adv-security-pack-mdr-adv--24-a"><path fill="#fff" d="M0 0h24v24H0z"/></clipPath></defs></svg>