<svg width="24" height="24" fill="currentColor" viewBox="0 0 24 24" xmlns="http://www.w3.org/2000/svg">
  <path fill-rule="evenodd" d="M9 16H1.5033C.673 16 0 15.3361 0 14.5069V1.4931C0 .6685.6654 0 1.5033 0h16.9934C19.327 0 20 .6639 20 1.4931v8.7589A8.02 8.02 0 0 0 18 10V2H2v8h16c-2.0289 0-3.8814.7553-5.2916 2H2v2h9.0703C10.3896 15.1767 10 16.5429 10 18c0 .6906.0875 1.3608.252 2H6.997A.996.996 0 0 1 6 19c0-.5523.453-1 .997-1H9zm9 8c3.3137 0 6-2.6863 6-6s-2.6863-6-6-6-6 2.6863-6 6 2.6863 6 6 6m1-6.5858V21c0 .5523-.4477 1-1 1s-1-.4477-1-1v-3.5858l-1.2929 1.2929c-.3905.3905-1.0237.3905-1.4142 0s-.3905-1.0237 0-1.4142l3-3c.3905-.3905 1.0237-.3905 1.4142 0l3 3c.3905.3905.3905 1.0237 0 1.4142s-1.0237.3905-1.4142 0z"/>
</svg>
