<svg width="24" height="24" fill="currentColor" viewBox="0 0 24 24" xmlns="http://www.w3.org/2000/svg">
  <path fill-rule="evenodd" d="M.9918 0C.4553 0 0 .444 0 .9918v18.0164C0 19.5447.444 20 .9918 20h9.2602A8.02 8.02 0 0 1 10 18H2v-4h9.0703a8.03 8.03 0 0 1 1.6381-2H2V8h18v2.252a7.95 7.95 0 0 1 2 .8183V.9918C22 .4553 21.556 0 21.0082 0zM20 6H2V2h18zM4 5c-.5523 0-1-.4477-1-1s.4477-1 1-1 1 .4477 1 1-.4477 1-1 1m10-1c0 .5523.4477 1 1 1s1-.4477 1-1-.4477-1-1-1-1 .4477-1 1m3 0c0 .5523.4477 1 1 1s1-.4477 1-1-.4477-1-1-1-1 .4477-1 1m-2.5556 6.8316a7.95 7.95 0 0 1 1.5212-.5706A1 1 0 0 0 16 10c0-.5523-.4477-1-1-1s-1 .4477-1 1a.999.999 0 0 0 .4444.8316M18 10c.338 0 .6711.021.9981.0617A1 1 0 0 0 19 10c0-.5523-.4477-1-1-1s-1 .4477-1 1q0 .031.0019.0617A8.1 8.1 0 0 1 18 10M4 11c-.5523 0-1-.4477-1-1s.4477-1 1-1 1 .4477 1 1-.4477 1-1 1m8 0c-.5523 0-1-.4477-1-1s.4477-1 1-1 1 .4477 1 1-.4477 1-1 1m-8 6c-.5523 0-1-.4477-1-1s.4477-1 1-1 1 .4477 1 1-.4477 1-1 1m14 7c3.3137 0 6-2.6863 6-6s-2.6863-6-6-6-6 2.6863-6 6 2.6863 6 6 6m1-6.5858V21c0 .5523-.4477 1-1 1s-1-.4477-1-1v-3.5858l-1.2929 1.2929c-.3905.3905-1.0237.3905-1.4142 0s-.3905-1.0237 0-1.4142l3-3c.3905-.3905 1.0237-.3905 1.4142 0l3 3c.3905.3905.3905 1.0237 0 1.4142s-1.0237.3905-1.4142 0z"/>
</svg>
