<svg width="16" height="16" fill="currentColor" viewBox="0 0 16 16" xmlns="http://www.w3.org/2000/svg">
  <path fill-rule="evenodd" d="M8.394.0809a1 1 0 0 0-.788 0l-7 3A1 1 0 0 0 0 4v8a1 1 0 0 0 .606.9191l7 3a1 1 0 0 0 .788 0l.4218-.1808C8.3 14.9517 8 14.0109 8 13a4.978 4.978 0 0 1 1-3.0005V7.6594l5-2.1429V8.1a4.98 4.98 0 0 1 2 .8996V4a1 1 0 0 0-.6061-.9192zM2 11.3406v-5.824l5 2.1428v5.8241zM8 5.912 3.5386 4 8 2.088 12.4614 4zM16 13c0 1.6569-1.3431 3-3 3s-3-1.3431-3-3 1.3431-3 3-3 3 1.3431 3 3m-3.3536-1.8536-1 1a.5.5 0 0 0 0 .7072.5.5 0 0 0 .7072 0l.1464-.1465V14.5a.5.5 0 0 0 1 0v-1.7929l.1464.1465a.5.5 0 0 0 .7072 0 .5.5 0 0 0 0-.7072l-.9998-.9997a.5005.5005 0 0 0-.7074-.0003"/>
</svg>
