<svg xmlns="http://www.w3.org/2000/svg" fill="none" viewBox="0 0 16 16"><g clip-path="url(#adv--16-a)"><path fill="currentColor" fill-rule="evenodd" d="M8 16c4.4183 0 8-3.5817 8-8s-3.5817-8-8-8-8 3.5817-8 8 3.5817 8 8 8ZM7.2929 3.2929a.9971.9971 0 0 1 .3243-.217l1.09.217 2.9999 3c.3905.3905.3905 1.0237 0 1.4142-.3905.3905-1.0237.3905-1.4142 0L9 6.4142V12c0 .5523-.4477 1-1 1s-1-.4477-1-1V6.4142l-1.2929 1.293c-.3905.3904-1.0237.3904-1.4142 0-.3905-.3906-.3905-1.0238 0-1.4143l3-3Zm.3243-.217 1.0878.2149A.9968.9968 0 0 0 8 3a.997.997 0 0 0-.3828.0759Z" clip-rule="evenodd"/></g><defs><clipPath id="adv--16-a"><path fill="#fff" d="M0 0h16v16H0z"/></clipPath></defs></svg>