<svg xmlns="http://www.w3.org/2000/svg" fill="none" viewBox="0 0 32 32"><path fill="currentColor" d="M13.9999 2c.5522.0001 1 .4478 1 1s-.4478.9999-1 1h-5c-1.1045.0001-2 .8955-2 2v12h4c.5519.0004 1 .448 1 1 0 .5178-.3942.9439-.8985.9951L10.9999 20h-4v1h11c.5519.0004 1 .448 1 1s-.4481.9996-1 1h-11v1h7c.5523 0 1 .4477 1 1s-.4477 1-1 1H7.0448c.0062.0756.0105.146.0185.2061.0527.3905.2061.7939.2061.7939.346.5973.9906 1 1.7305 1h14c1.1042-.0004 2-.8957 2-2V16c0-.5523.4477-1 1-1 .5521.0001 1 .4478 1 1v10c0 2.2089-1.7912 3.9996-4 4h-14c-2.14-.0001-3.888-1.6806-3.9951-3.7939L4.9998 26l-.0019-.0391A.89.89 0 0 1 5 25.8438V6c0-2.209 1.791-3.9999 4-4h5Z"/><path fill="currentColor" d="M15.8065 9.9395a.221.221 0 0 1 .1651.1357l.0097.0361c.289 1.4408 1.4114 2.5804 2.8418 2.8955l.0654.0137c.1.0206.1748.1091.1749.2139a.2188.2188 0 0 1-.1749.2129l-.2705.0654c-1.3327.3743-2.3625 1.4718-2.6386 2.8418a.2204.2204 0 0 1-.2139.1758.2193.2193 0 0 1-.2139-.1748c-.2933-1.4626-1.4448-2.6158-2.9062-2.9102a.219.219 0 0 1-.1748-.2139.2186.2186 0 0 1 .1738-.2138c1.4627-.2934 2.6158-1.4447 2.9102-2.9063a.2193.2193 0 0 1 .2138-.1748l.0381.003ZM21.6395 2.4727a.3034.3034 0 0 1 .2442.2402l.0459.206c.5087 2.1163 2.2122 3.7676 4.3564 4.2012a.3042.3042 0 0 1 .2461.2988.3031.3031 0 0 1-.2461.2979c-2.2139.4454-3.9597 2.1887-4.4062 4.4014a.304.304 0 0 1-.5967.0019c-.445-2.2153-2.1891-3.9612-4.4033-4.4082a.3032.3032 0 0 1-.2403-.2441l-.0049-.0537.0049-.0537a.304.304 0 0 1 .1905-.2295l.0517-.0147c2.2146-.4455 3.9604-2.1897 4.4063-4.4033a.3035.3035 0 0 1 .2978-.2451l.0537.0049Z"/></svg>