<svg xmlns="http://www.w3.org/2000/svg" fill="none" viewBox="0 0 24 24"><path fill="currentColor" d="M9.9999 1c.5522.0001 1 .4478 1 1s-.4478.9999-1 1h-3c-1.1045.0001-2 .8955-2 2v7h4c.552.0004 1 .448 1 1 0 .5178-.3942.9439-.8985.9951L9 14h-4v1h8c.5519.0004 1 .448 1 1s-.4481.9996-1 1h-8v1h6c.5519.0004 1 .448 1 1s-.4481.9996-1 1H5.2694c.346.5973.9906 1 1.7305 1h10c1.1042-.0004 2-.8957 2-2v-8c0-.5523.4477-1 1-1 .5522.0001 1 .4478 1 1v8c0 2.2089-1.7912 3.9996-4 4h-10c-2.14-.0001-3.888-1.6806-3.9951-3.7939L2.9998 19l-.0019-.0391A.89.89 0 0 1 3 18.8438V5c0-2.209 1.791-3.9999 4-4h3Z"/><path fill="currentColor" d="M12.7919 6.8223a.1607.1607 0 0 1 .1201.0986l.0078.0273c.2119 1.0566 1.035 1.892 2.084 2.123l.0478.0099a.161.161 0 0 1 .128.1572.1603.1603 0 0 1-.128.1562l-.1982.0479c-.9775.2744-1.7331 1.0792-1.9356 2.084a.1616.1616 0 0 1-.1572.1289.1605.1605 0 0 1-.1562-.128c-.2152-1.0726-1.0601-1.9189-2.1319-2.1347a.1604.1604 0 0 1-.1279-.1563.161.161 0 0 1 .1279-.1572c1.0726-.2151 1.9179-1.059 2.1338-2.1309a.161.161 0 0 1 .1572-.1279l.0284.002ZM17.0682 1.3467a.2225.2225 0 0 1 .1797.1758l.0723.2998c.415 1.4802 1.6344 2.6248 3.1562 2.9326a.223.223 0 0 1 .1807.2187.223.223 0 0 1-.1807.2188l-.3007.0722c-1.4796.4156-2.6238 1.634-2.9307 3.1553l-.0273.0733a.223.223 0 0 1-.1915.1074.2223.2223 0 0 1-.2187-.1797c-.3263-1.6245-1.6057-2.9046-3.2295-3.2324a.2222.2222 0 0 1-.1758-.1787l-.0029-.0391.0029-.04a.2239.2239 0 0 1 .1397-.169l.0381-.0107c1.6238-.3268 2.9035-1.6053 3.2304-3.2285a.2232.2232 0 0 1 .2188-.1797l.039.0039Z"/></svg>