<svg xmlns="http://www.w3.org/2000/svg" fill="none" viewBox="0 0 24 24"><path fill="currentColor" d="M7.9999 2c0-.5522-.4478-.9999-1-1-2.209.0001-4 1.791-4 4v13.8438a.89.89 0 0 0-.002.1171c.0007.0133.0012.0263.002.0391l.0049.2061C3.112 21.3194 4.8599 22.9999 6.9998 23H17c2.2088-.0004 4-1.7911 4-4v-4c0-.5522-.4478-.9999-1-1-.5523 0-1 .4477-1 1v4c0 1.1043-.8958 1.9996-2 2h-10c-.7399 0-1.3846-.4027-1.7305-1H11c.5519-.0004 1-.448 1-1s-.4481-.9996-1-1h-6v-1h8c.5519-.0004 1-.448 1-1s-.4481-.9996-1-1h-8v-1h4l.1015-.0049C9.6057 13.9439 10 13.5178 10 13c0-.552-.448-.9996-1-1h-4V5c0-1.1045.8955-1.9999 2-2 .5522-.0001 1-.4478 1-1ZM20.6066 10.1924c.3905.3905.3905 1.0237 0 1.4142-.3905.3905-1.0237.3905-1.4142 0l-8.4853-8.4853c-.3905-.3905-.3905-1.0237 0-1.4142.3905-.3905 1.0237-.3905 1.4142 0l8.4853 8.4853Z"/><path fill="currentColor" d="M12.1213 11.6066c-.3905.3905-1.0237.3905-1.4142 0-.3905-.3905-.3905-1.0237 0-1.4142l8.4853-8.4853c.3905-.3905 1.0237-.3905 1.4142 0 .3905.3905.3905 1.0237 0 1.4142l-8.4853 8.4853Z"/></svg>