<svg xmlns="http://www.w3.org/2000/svg" fill="none" viewBox="0 0 16 16"><path fill="currentColor" d="M4 0c.5523 0 1 .4477 1 1s-.4477 1-1 1-1 .4477-1 1v5h2c.5523 0 1 .4477 1 1s-.4477 1-1 1H3v1h5c.5523 0 1 .4477 1 1s-.4477 1-1 1H3l.0049.1025C3.0562 13.6067 3.4823 14 4 14h8l.1025-.0049A1.0003 1.0003 0 0 0 13 13v-2c0-.5523.4477-1 1-1s1 .4477 1 1v2c0 1.6569-1.3431 3-3 3H4c-1.6568 0-3-1.3431-3-3V3c0-1.6568 1.3432-3 3-3Z"/><path fill="currentColor" d="M12.9501.7071c.3905-.3905 1.0237-.3905 1.4142 0 .3906.3905.3906 1.0237 0 1.4142L8.7075 7.7782c-.3905.3905-1.0237.3905-1.4142 0-.3906-.3906-.3906-1.0237 0-1.4142L12.95.707Z"/><path fill="currentColor" d="M14.3643 6.364c.3906.3905.3906 1.0236 0 1.4142-.3905.3905-1.0237.3905-1.4142 0L7.2933 2.1213c-.3906-.3905-.3906-1.0237 0-1.4142.3905-.3905 1.0236-.3905 1.4142 0l5.6568 5.6569Z"/></svg>