<svg xmlns="http://www.w3.org/2000/svg" fill="none" viewBox="0 0 24 24"><path fill="currentColor" d="m21.5858 12-.4142-.4142A4 4 0 0 1 20 8.7574V6c0-1.1046-.8954-2-2-2-.5523 0-1-.4477-1-1s.4477-1 1-1c2.2091 0 4 1.7909 4 4v2.7574a2 2 0 0 0 .5858 1.4142l1.1213 1.1213c.3905.3905.3905 1.0237 0 1.4142l-1.1213 1.1213A2 2 0 0 0 22 15.2426V18c0 2.2091-1.7909 4-4 4-.5523 0-1-.4477-1-1s.4477-1 1-1c1.1046 0 2-.8954 2-2v-2.7574a4 4 0 0 1 1.1716-2.8284L21.5858 12ZM15 14.5287v2.2867c0 .5374-.4356.9729-.9729.9729a.9726.9726 0 0 1-.5271-.1551l-1.2291-.7922a.5001.5001 0 0 0-.5418 0l-1.2291.7922c-.4516.2911-1.0538.161-1.3449-.2907A.9728.9728 0 0 1 9 16.8154V14.481c-.0566-.0896-.1174-.1707-.185-.2383-.4445-.4445-1.4568-.5432-1.7201-1.1605-.2634-.6172.3703-1.3826.362-2.041-.0081-.6585-.6419-1.4485-.4032-2.0411.2387-.5926 1.2592-.7407 1.7036-1.1852.4445-.4444.5432-1.4567 1.1605-1.72.6172-.2634 1.3826.3703 2.041.362.6585-.0081 1.4485-.6419 2.0411-.4032.5926.2387.7407 1.2592 1.1852 1.7036.4444.4445 1.4567.5432 1.72 1.1605.2634.6172-.3621 1.4073-.3621 2.041.0083.6173.642 1.4485.4033 2.0411-.2387.5926-1.2592.7407-1.7036 1.1852-.0935.0935-.1717.2121-.2427.3436ZM12 14c1.6569 0 3-1.3431 3-3s-1.3431-3-3-3-3 1.3431-3 3 1.3431 3 3 3Zm0-2c-.5523 0-1-.4477-1-1s.4477-1 1-1 1 .4477 1 1-.4477 1-1 1Zm-9.1716-.4142L2.4142 12l.4142.4142A4.0002 4.0002 0 0 1 4 15.2426V18c0 1.1046.8954 2 2 2 .5523 0 1 .4477 1 1s-.4477 1-1 1c-2.2091 0-4-1.7909-4-4v-2.7574a2 2 0 0 0-.5858-1.4142L.293 12.7071c-.3905-.3905-.3905-1.0237 0-1.4142l1.1213-1.1213A2 2 0 0 0 2 8.7574V6c0-2.2091 1.7909-4 4-4 .5523 0 1 .4477 1 1s-.4477 1-1 1c-1.1046 0-2 .8954-2 2v2.7574a4.0001 4.0001 0 0 1-1.1716 2.8284Z"/></svg>