<svg width="24" height="24" fill="currentColor" viewBox="0 0 24 24" xmlns="http://www.w3.org/2000/svg">
  <path d="M15.964 1c.1743 1.2608-.307 2.4972-.9416 3.3734-.6782.9391-1.8469 1.6643-2.977 1.625-.2068-1.2052.3244-2.4514.9649-3.29C13.718 1.7872 14.928 1.0759 15.964 1m3.6762 17.9711c-.8837 1.3416-2.1306 3.0156-3.672 3.027-1.3721.0108-1.7256-.8923-3.5878-.8784-1.8605.009-2.2492.894-3.622.8801-1.5415-.0131-2.7222-1.5221-3.6066-2.8612-2.471-3.7553-2.7311-8.1575-1.2036-10.4999 1.08-1.6609 2.7908-2.6362 4.397-2.6362 1.6363 0 2.664.8965 4.0164.8965 1.3116 0 2.111-.899 4.0034-.899 1.431 0 2.9438.7775 4.0238 2.119-3.5345 1.9327-2.961 6.9696.6112 8.3185-.4925 1.087-.7282 1.573-1.3598 2.5336"/>
</svg>
