<svg width="32" height="32" fill="currentColor" viewBox="0 0 32 32" xmlns="http://www.w3.org/2000/svg">
  <path d="M19.3518 7.0481c-.8478 1.127-2.3086 1.9971-3.7213 1.95-.2584-1.4463.4055-2.9417 1.2062-3.948C17.7213 3.9446 19.234 3.091 20.5288 3c.2178 1.513-.3838 2.9966-1.177 4.0481M27 21.3945c-.602 1.2909-.89 1.868-1.662 3.0087-1.08 1.593-2.604 3.581-4.488 3.5947-1.677.0126-2.109-1.0598-4.385-1.0432-2.274.0107-2.749 1.0617-4.427 1.0451-1.884-.0156-3.327-1.8075-4.408-3.3977-3.02-4.4594-3.338-9.687-1.471-12.4686 1.32-1.9723 3.411-3.1306 5.374-3.1306 2 0 3.256 1.0647 4.909 1.0647 1.603 0 2.58-1.0676 4.893-1.0676 1.749 0 3.598.9233 4.918 2.5163-4.32 2.295-3.619 8.2764.747 9.8782"/>
</svg>
