<svg width="24" height="24" fill="currentColor" viewBox="0 0 24 24" xmlns="http://www.w3.org/2000/svg">
  <path d="M4 12v4h16v-4h2v4.5069C22 17.3315 21.3346 18 20.4967 18H13v2h2.003A.996.996 0 0 1 16 21c0 .5523-.453 1-.997 1H8.997A.996.996 0 0 1 8 21c0-.5523.453-1 .997-1H11v-2H3.5033C2.673 18 2 17.3361 2 16.5069V12zm19-4c.5523 0 1 .4477 1 1s-.4477 1-1 1H1c-.5523 0-1-.4477-1-1s.4477-1 1-1zm-2.5033-6c.7815 0 1.4236.588 1.4964 1.3486L22 3.493V6h-2V4H4v2H2V3.4931c0-.7761.5895-1.414 1.3573-1.4863L3.5033 2z"/>
</svg>
