<svg xmlns="http://www.w3.org/2000/svg" fill="none" viewBox="0 0 16 16"><path fill="currentColor" d="m.2809 14.0223 1.4419-4.2717.834-2.4708 1.9696-5.835a.6998.6998 0 0 1 .6633-.476h.0527a.699.699 0 0 1 .6622.4754l1.7571 5.2054-1.1413 3.381h2.3358l1.3498 3.9988a.6988.6988 0 0 1-.6457.9222h-.1625a.7033.7033 0 0 1-.4798-.189l-3.038-2.835-.8576 2.5407a.6997.6997 0 0 1-.663.4761H.943a.6994.6994 0 0 1-.5677-.2912.6985.6985 0 0 1-.0945-.6309Z"/><path fill="currentColor" d="m11.4734 1.4683 1.97 5.8362.8571 2.539 1.4186 4.2029a.6987.6987 0 0 1-.662.9224h-4.8924a.6988.6988 0 0 0 .6912-.5955.6988.6988 0 0 0-.029-.3269L6.5811 1.4684A.6988.6988 0 0 0 5.919.993h4.8923a.6987.6987 0 0 1 .6622.4753Z"/></svg>