<svg xmlns="http://www.w3.org/2000/svg" fill="none" viewBox="0 0 16 16"><g clip-path="url(#ban-o--16-a)"><path fill="currentColor" d="M3.0883 4.553C2.4026 5.5285 2 6.7173 2 8c0 3.3137 2.6863 6 6 6 1.2828 0 2.4716-.4026 3.4469-1.0883L3.0883 4.5531ZM4.494 3.1305l8.3757 8.3756C13.5809 10.5198 14 9.3088 14 8c0-3.3137-2.6863-6-6-6-1.3088 0-2.5198.419-3.506 1.1303ZM8 16c-4.4183 0-8-3.5817-8-8s3.5817-8 8-8 8 3.5817 8 8-3.5817 8-8 8Z"/></g><defs><clipPath id="ban-o--16-a"><path fill="#fff" d="M0 0h16v16H0z"/></clipPath></defs></svg>