<svg xmlns="http://www.w3.org/2000/svg" fill="none" viewBox="0 0 16 16"><g clip-path="url(#ban--16-a)"><path fill="currentColor" d="M8 16c-4.4183 0-8-3.5817-8-8s3.5817-8 8-8 8 3.5817 8 8-3.5817 8-8 8Zm0-2c3.3137 0 6-2.6863 6-6s-2.6863-6-6-6-6 2.6863-6 6 2.6863 6 6 6Zm2.0161-2.5445A3.982 3.982 0 0 1 8 12c-2.2091 0-4-1.7909-4-4 0-.7352.1983-1.4241.5445-2.016l5.4716 5.4715Zm1.4207-1.4077L5.9522 4.5632A3.9814 3.9814 0 0 1 8 4c2.2091 0 4 1.7909 4 4a3.9813 3.9813 0 0 1-.5632 2.0478Z"/></g><defs><clipPath id="ban--16-a"><path fill="#fff" d="M0 0h16v16H0z"/></clipPath></defs></svg>