<svg xmlns="http://www.w3.org/2000/svg" fill="none" viewBox="0 0 24 24"><path fill="currentColor" d="M13.9831 3.2616a7.409 7.409 0 0 1 2.4082 1.146l-1.4392 1.4392C14.1096 5.3124 13.0948 5 12 5c-2.9377 0-5.3 2.2498-5.3 5v2.5014c0 1.251-.8923 2.5251-2.066 2.9598l-.3424.1268c-.1294.0479-.2916.2815-.2916.4214v.7894l-1.7624 1.7624A2.481 2.481 0 0 1 2 17.4992v-1.4898c0-.9757.6822-1.9581 1.597-2.2969l.3424-.1268c.3913-.1449.7606-.6723.7606-1.0843V10c0-3.2149 2.2544-5.9111 5.317-6.7384A2.0157 2.0157 0 0 1 10 3c0-1.1046.8954-2 2-2s2 .8954 2 2c0 .0886-.0058.176-.0169.2616Z"/><path fill="currentColor" fill-rule="evenodd" d="m18.8474 7.5668 3.0521-3.0521c.3905-.3905.3905-1.0237 0-1.4142-.3905-.3905-1.0237-.3905-1.4142 0L2.1005 21.4853c-.3905.3905-.3905 1.0236 0 1.4142.3905.3905 1.0237.3905 1.4142 0L6.4142 20H9c0 1.6569 1.3432 3 3 3 1.6569 0 3-1.3431 3-3h4.4963A2.495 2.495 0 0 0 22 17.4992v-1.4898c0-.9819-.6809-1.9576-1.597-2.2969l-.3424-.1268c-.3928-.1455-.7606-.6729-.7606-1.0843V10c0-.8564-.16-1.676-.4526-2.4332Zm-1.6177 1.6177L8.4142 18h11.0821c.2848 0 .5037-.2196.5037-.5008v-1.4898c0-.1443-.1591-.3723-.2916-.4214l-.3424-.1268c-1.1768-.4359-2.066-1.7111-2.066-2.9598V10c0-.2775-.024-.55-.0703-.8155ZM12 21c-.5523 0-1-.4477-1-1h2c0 .5523-.4477 1-1 1Z" clip-rule="evenodd"/></svg>