<svg xmlns="http://www.w3.org/2000/svg" fill="none" viewBox="0 0 32 32"><path fill="currentColor" d="M5 2h22c1.6569 0 3 1.3432 3 3v22c0 1.6569-1.3431 3-3 3H5c-1.6568 0-3-1.3431-3-3V5c0-1.6568 1.3432-3 3-3Zm0 2c-.5523 0-1 .4477-1 1v5h24V5c0-.5523-.4477-1-1-1H5Zm-1 8v15c0 .5523.4477 1 1 1h22c.5523 0 1-.4477 1-1V12H4Zm13.414 8 2.829 2.828a1.0006 1.0006 0 1 1-1.415 1.415L16 21.414l-2.828 2.829c-.3907.3907-1.0243.3907-1.415 0-.3907-.3907-.3907-1.0243 0-1.415L14.586 20l-2.829-2.828c-.3907-.3907-.3907-1.0243 0-1.415.3907-.3907 1.0243-.3907 1.415 0L16 18.586l2.828-2.829c.3907-.3907 1.0243-.3907 1.415 0 .3907.3907.3907 1.0243 0 1.415L17.414 20ZM7 6c.5523 0 1 .4477 1 1s-.4477 1-1 1-1-.4477-1-1 .4477-1 1-1Zm4 0c.5523 0 1 .4477 1 1s-.4477 1-1 1-1-.4477-1-1 .4477-1 1-1Z"/></svg>