<svg xmlns="http://www.w3.org/2000/svg" fill="none" viewBox="0 0 16 16"><g clip-path="url(#bucket--16-a)"><path fill="currentColor" fill-rule="evenodd" d="M4.5324 1.4311C5.7115 1.1591 7.2905 1 9 1c1.7094 0 3.2884.159 4.4675.4311.5815.1342 1.1212.3083 1.5399.5367.2088.114.4346.2665.6189.4743.1897.214.3737.5336.3737.9425a1.303 1.303 0 0 1-.0012.0561C15.9996 3.4602 16 3.48 16 3.5c0 .2098-.0441.3962-.1154.5606l-1.7359 8.6792c-.0462.5629-.4.9617-.7024 1.2-.3354.2643-.7588.4586-1.1929.6033C11.3748 14.836 10.2246 15 9 15c-1.2247 0-2.3749-.164-3.2535-.4569-.434-.1447-.8575-.339-1.193-.6033-.1887-.1488-.3975-.3601-.539-.6348a5.5798 5.5798 0 0 1-.5625-.0042c-.6778-.0402-1.3932-.216-2.0095-.631-.6359-.4282-1.1074-1.0732-1.3209-1.9272-.3369-1.3477.0673-2.4507.6838-3.2354.5249-.668 1.2032-1.1125 1.7283-1.355l-.4184-2.0916A1.3947 1.3947 0 0 1 2 3.5c0-.02.0005-.0398.0012-.0593A1.3195 1.3195 0 0 1 2 3.3847c0-.409.184-.7286.3737-.9426.1843-.2078.41-.3603.619-.4743.4186-.2284.9583-.4024 1.5398-.5367ZM2.9463 8.2148c-.1978.1383-.4012.3157-.5681.5281-.3002.382-.4793.8624-.3162 1.5147.0957.3826.2788.606.4977.7534.2375.1599.575.2667 1.0044.293l-.6178-3.0892Zm3.5665 4.4733c.2292-.1087.4422-.2282.6338-.3559.7297-.4865 1.3782-.9965 1.8676-1.4125A1.499 1.499 0 0 0 9.5 11c.8284 0 1.5-.6716 1.5-1.5S10.3284 8 9.5 8c-.6915 0-1.2736.4678-1.4473 1.1042-.4341.3901-1.162.9947-2.0156 1.5638-.1441.096-.316.1876-.5067.2698l-1.085-5.4246.0694.0176C5.7007 5.8273 7.286 6 8.9999 6c1.714 0 3.2993-.1727 4.4852-.4692l.0693-.0176-1.3755 6.8776c-.095.0665-.2731.16-.558.255-.6247.2082-1.5515.3542-2.621.3542-.9956 0-1.8675-.1265-2.4872-.312ZM4.6697 3.5a7.2203 7.2203 0 0 1 .3302-.0905C5.9855 3.163 7.4002 3 8.9999 3c1.5998 0 3.0145.163 4.0002.4095.1194.0299.2294.0602.3301.0905a7.2238 7.2238 0 0 1-.3301.0905C12.0144 3.837 10.5997 4 9 4c-1.5998 0-3.0145-.163-4.0001-.4095A7.2203 7.2203 0 0 1 4.6697 3.5Z" clip-rule="evenodd"/></g><defs><clipPath id="bucket--16-a"><path fill="#fff" d="M0 0h16v16H0z"/></clipPath></defs></svg>