<svg width="24" height="24" fill="currentColor" viewBox="0 0 24 24" xmlns="http://www.w3.org/2000/svg">
  <path d="M7 7V6c0-1.6569 1.3431-3 3-3h4c1.6569 0 3 1.3431 3 3v1h2c1.6569 0 3 1.3431 3 3v8c0 1.6569-1.3431 3-3 3H5c-1.6569 0-3-1.3431-3-3v-8c0-1.6569 1.3431-3 3-3zm0 2H5c-.5523 0-1 .4477-1 1v3h5c0-1.1046.8954-2 2-2h2c1.1046 0 2 .8954 2 2h5v-3c0-.5523-.4477-1-1-1zm-3 9c0 .5523.4477 1 1 1h14c.5523 0 1-.4477 1-1v-3h-5c0 1.1046-.8954 2-2 2h-2c-1.1046 0-2-.8954-2-2H4zm7-5v2h2v-2zm4-6V6c0-.5523-.4477-1-1-1h-4c-.5523 0-1 .4477-1 1v1z"/>
</svg>
