<svg width="24" height="24" fill="currentColor" viewBox="0 0 24 24" xmlns="http://www.w3.org/2000/svg">
  <path d="M13 10.1663c0-.4308 .141-.8218 .3942-1.1663Q15.2364 10.4667 18 10.4667T22.6058 9c.2531 .3445 .3942 .7355 .3942 1.1663C23 11.9093 20.6906 13 18 13s-5-1.0907-5-2.8337m0 4c0-.4308 .141-.8218 .3942-1.1663Q15.2364 14.4667 18 14.4667T22.6058 13c.2531 .3445 .3942 .7355 .3942 1.1663C23 15.9093 20.6906 17 18 17s-5-1.0907-5-2.8337m0 4c0-.4308 .141-.8218 .3942-1.1663Q15.2364 18.4667 18 18.4667T22.6058 17c.2531 .3445 .3942 .7355 .3942 1.1663C23 19.9093 20.6906 21 18 21s-5-1.0907-5-2.8337m-12 0c0-.4308 .141-.8218 .3942-1.1663Q3.2364 18.4667 6 18.4667T10.6058 17c.2531 .3445 .3942 .7355 .3942 1.1663C11 19.9093 8.6906 21 6 21s-5-1.0907-5-2.8337M18 9c-2.6906 0-5-1.1547-5-3s2.3094-3 5-3 5 1.1547 5 3-2.3094 3-5 3M6 17c-2.6906 0-5-1.1547-5-3s2.3094-3 5-3 5 1.1547 5 3-2.3094 3-5 3"/>
</svg>
