<svg width="32" height="32" fill="currentColor" viewBox="0 0 32 32" xmlns="http://www.w3.org/2000/svg">
  <path d="M15 20.7428V24h13V8H4v16h4v-3.2572C6.7785 19.734 6 18.208 6 16.5c0-3.0376 2.4624-5.5 5.5-5.5s5.5 2.4624 5.5 5.5c0 1.708-.7785 3.234-2 4.2428m-2 1.0502a5.5 5.5 0 0 1-1.5.207 5.5 5.5 0 0 1-1.5-.207v3.0827l1.5-1.1893 1.5 1.1893zM8 26H2V6h28v20H15v3l-3.5-2.7751L8 29zm11-15h7v2h-7zm0 4h7v2h-7zm0 4h7v2h-7zm-7.5 1c1.933 0 3.5-1.567 3.5-3.5S13.433 13 11.5 13 8 14.567 8 16.5 9.567 20 11.5 20m0-2c-.8284 0-1.5-.6716-1.5-1.5s.6716-1.5 1.5-1.5 1.5.6716 1.5 1.5-.6716 1.5-1.5 1.5"/>
</svg>
