<svg width="16" height="16" fill="currentColor" viewBox="0 0 16 16" xmlns="http://www.w3.org/2000/svg">
  <path d="m8.8043 13-2.98 2.6075c-.4571.4-1.152.3537-1.5521-.1035A1.1 1.1 0 0 1 4 14.7796V13H1.1C.4925 13 0 12.5075 0 11.9V1.1C0 .4925.4925 0 1.1 0h13.8c.6075 0 1.1.4925 1.1 1.1v10.8c0 .6075-.4925 1.1-1.1 1.1zm-.7515-2H14V2H2v9h4v1.7962zM5 4h6c.5523 0 1 .4477 1 1s-.4477 1-1 1H5c-.5523 0-1-.4477-1-1s.4477-1 1-1m0 3h3c.5523 0 1 .4477 1 1s-.4477 1-1 1H5c-.5523 0-1-.4477-1-1s.4477-1 1-1"/>
</svg>
