<svg xmlns="http://www.w3.org/2000/svg" fill="none" viewBox="0 0 16 16"><g clip-path="url(#check-circle-o--16-a)"><path fill="currentColor" fill-rule="evenodd" d="M2 8c0-3.3137 2.6863-6 6-6s6 2.6863 6 6-2.6863 6-6 6-6-2.6863-6-6Zm6-8C3.5817 0 0 3.5817 0 8s3.5817 8 8 8 8-3.5817 8-8-3.5817-8-8-8Zm3.7071 6.7071c.3905-.3905.3905-1.0237 0-1.4142-.3905-.3905-1.0237-.3905-1.4142 0L7 8.5858l-1.2929-1.293c-.3905-.3904-1.0237-.3904-1.4142 0-.3905.3906-.3905 1.0238 0 1.4143l2 2c.3905.3905 1.0237.3905 1.4142 0l4-4Z" clip-rule="evenodd"/></g><defs><clipPath id="check-circle-o--16-a"><path fill="#fff" d="M0 0h16v16H0z"/></clipPath></defs></svg>