<svg xmlns="http://www.w3.org/2000/svg" fill="none" viewBox="0 0 16 16"><g clip-path="url(#check-circle--16-a)"><path fill="currentColor" d="M8 16c-4.4183 0-8-3.5817-8-8s3.5817-8 8-8 8 3.5817 8 8-3.5817 8-8 8ZM5.7071 7.2929c-.3905-.3905-1.0237-.3905-1.4142 0-.3905.3905-.3905 1.0237 0 1.4142l2 2c.3905.3905 1.0237.3905 1.4142 0l4-4c.3905-.3905.3905-1.0237 0-1.4142-.3905-.3905-1.0237-.3905-1.4142 0L7 8.5858l-1.2929-1.293Z"/></g><defs><clipPath id="check-circle--16-a"><path fill="#fff" d="M0 0h16v16H0z"/></clipPath></defs></svg>