<svg width="32" height="32" fill="currentColor" viewBox="0 0 32 32" xmlns="http://www.w3.org/2000/svg">
  <path d="M5.5547 29.832C4.8901 30.275 4 29.7988 4 29V3c0-.5523 .4477-1 1-1h22c.5523 0 1 .4477 1 1v26c0 .7987-.8901 1.275-1.5547 .832L24 28.202l-2.4453 1.6302a1 1 0 0 1-1.1094 0l-2.3179-1.5453-1.4203 1.4203a1 1 0 0 1-1.2618 .125l-2.3179-1.5453-1.4203 1.4203a1 1 0 0 1-1.2618 .125L8 28.2019zm1.8906-3.664a1 1 0 0 1 1.1094 0l2.3179 1.5452 1.4203-1.4203a1 1 0 0 1 1.2618-.125l2.3179 1.5453 1.4203-1.4203a1 1 0 0 1 1.2618-.125L21 27.7981l2.4453-1.6302a1 1 0 0 1 1.1094 0L26 27.1315V4H6v23.1315zM9 7h7c.5523 0 1 .4477 1 1s-.4477 1-1 1H9c-.5523 0-1-.4477-1-1s.4477-1 1-1m13 0h1c.5523 0 1 .4477 1 1s-.4477 1-1 1h-1c-.5523 0-1-.4477-1-1s.4477-1 1-1m0 4h1c.5523 0 1 .4477 1 1s-.4477 1-1 1h-1c-.5523 0-1-.4477-1-1s.4477-1 1-1m0 4h1c.5523 0 1 .4477 1 1s-.4477 1-1 1h-1c-.5523 0-1-.4477-1-1s.4477-1 1-1m-4 6h5c.5523 0 1 .4477 1 1s-.4477 1-1 1h-5c-.5523 0-1-.4477-1-1s.4477-1 1-1M9 11h2c.5523 0 1 .4477 1 1s-.4477 1-1 1H9c-.5523 0-1-.4477-1-1s.4477-1 1-1m0 4h5c.5523 0 1 .4477 1 1s-.4477 1-1 1H9c-.5523 0-1-.4477-1-1s.4477-1 1-1"/>
</svg>
