<svg xmlns="http://www.w3.org/2000/svg" fill="none" viewBox="0 0 16 16"><path fill="currentColor" d="M7.0037 0c.5526 0 1.0006.4477 1.0006 1v3.083c2.8394.476 5.003 2.944 5.003 5.917v.8377c0 1.4918.4908 2.5487 1.4064 3.0381.5692.3043.6262.8954.5686 1.2054-.0571.3081-.3549.9188-1.0872.9188h-9.393c-1.373 0-2.2653-.9789-2.7576-1.9124C1.2414 13.1336 1 11.9701 1 11v-1c0-2.973 2.1636-5.441 5.003-5.917V1c0-.5523.448-1 1.0007-1Zm4.004 11H3.0012c0 .6868.1805 1.5233.5137 2.1551.344.6523.7023.8449.9872.8449h7.2706c-.5236-.8966-.7445-1.9593-.765-3Zm-4.004-5c-1.865 0-3.432 1.2748-3.8764 3H10.88c-.4443-1.7252-2.0114-3-3.8763-3Z"/></svg>