<svg width="24" height="24" fill="currentColor" viewBox="0 0 24 24" xmlns="http://www.w3.org/2000/svg">
  <path d="M12 8c1.1046 0 2-.8954 2-2s-.8954-2-2-2-2 .8954-2 2 .8954 2 2 2m-1 1.8758C9.271 9.4343 8 7.8665 8 6c0-2.2091 1.7909-4 4-4s4 1.7909 4 4c0 1.8665-1.271 3.4345-3 3.8759V12h5.006C19.6621 12 21 13.3382 21 15v1.1707c1.1652.4118 2 1.523 2 2.8293 0 1.6569-1.3431 3-3 3s-3-1.3431-3-3c0-1.3062.8348-2.4175 2-2.8293V15c0-.5574-.4425-1-.994-1H13v2.166c1.172.4082 2 1.5229 2 2.834 0 1.6569-1.3431 3-3 3s-3-1.3431-3-3c0-1.3113.8277-2.426 2-2.834V14H5.994C5.4468 14 5 14.4478 5 15v1.1707c1.1652.4118 2 1.523 2 2.8293 0 1.6569-1.3431 3-3 3s-3-1.3431-3-3c0-1.3062.8348-2.4175 2-2.8293V15c0-1.6557 1.3411-3 2.994-3H11zM20 20c.5523 0 1-.4477 1-1s-.4477-1-1-1-1 .4477-1 1 .4477 1 1 1M4 20c.5523 0 1-.4477 1-1s-.4477-1-1-1-1 .4477-1 1 .4477 1 1 1m8 0c.5523 0 1-.4477 1-1s-.4477-1-1-1-1 .4477-1 1 .4477 1 1 1"/>
</svg>
