<svg width="16" height="16" viewBox="0 0 16 16" fill="currentColor" xmlns="http://www.w3.org/2000/svg">
  <path d="M9 11.5v-2h4v2c0 .0862.0109.1699.0314.2498C12.4163 12.0909 12 12.7468 12 13.5c0 1.1046.8954 2 2 2s2-.8954 2-2c0-.7532-.4163-1.4091-1.0314-1.7502A1 1 0 0 0 15 11.5v-2c0-1.1046-.8954-2-2-2H9v-.9999q-.0001-.0849-.0137-.166C10.1586 5.9261 11 4.8113 11 3.5c0-1.6568-1.3431-3-3-3s-3 1.3432-3 3c0 1.3114.8414 2.4262 2.0138 2.8341A1 1 0 0 0 7 6.5001V7.5H3c-1.1046 0-2 .8954-2 2v2c0 .0862.011.1699.0314.2498C.4164 12.0909 0 12.7468 0 13.5c0 1.1046.8954 2 2 2s2-.8954 2-2c0-.7532-.4163-1.4091-1.0314-1.7502A1 1 0 0 0 3 11.5v-2h4v2c0 .0862.011.1699.0315.2497C6.4164 12.0908 6 12.7468 6 13.5c0 1.1046.8954 2 2 2s2-.8954 2-2c0-.7532-.4163-1.4091-1.0314-1.7502A1 1 0 0 0 9 11.5m0-8c0 .5523-.4477 1-1 1s-1-.4477-1-1 .4477-1 1-1 1 .4477 1 1"/>
</svg>
