<svg width="32" height="32" fill="currentColor" viewBox="0 0 32 32" xmlns="http://www.w3.org/2000/svg">
  <path d="M15 11.9c-2.2822-.4633-4-2.481-4-4.9 0-2.7614 2.2386-5 5-5s5 2.2386 5 5c0 2.419-1.7178 4.4367-4 4.9V16h8.0088C26.6606 16 28 17.3457 28 18.998v3.128c1.7252 .444 3 2.0102 3 3.874 0 2.2091-1.7909 4-4 4s-4-1.7909-4-4c0-1.8638 1.2748-3.43 3-3.874v-3.128c0-.5498-.4461-.998-.9912-.998H17v4.0015a1 1 0 0 1-.0074 .1226C18.7216 22.5656 20 24.1335 20 26c0 2.2091-1.7909 4-4 4s-4-1.7909-4-4c0-1.8665 1.2785-3.4345 3.0075-3.8759A1 1 0 0 1 15 22.0015V18H6.9912C6.4435 18 6 18.4453 6 18.998v3.128c1.7252 .444 3 2.0102 3 3.874 0 2.2091-1.7909 4-4 4s-4-1.7909-4-4c0-1.8638 1.2748-3.43 3-3.874v-3.128C4 17.3424 5.3371 16 6.9912 16H15zM16 10c1.6569 0 3-1.3431 3-3s-1.3431-3-3-3-3 1.3431-3 3 1.3431 3 3 3m11 18c1.1046 0 2-.8954 2-2s-.8954-2-2-2-2 .8954-2 2 .8954 2 2 2M5 28c1.1046 0 2-.8954 2-2s-.8954-2-2-2-2 .8954-2 2 .8954 2 2 2m11 0c1.1046 0 2-.8954 2-2s-.8954-2-2-2-2 .8954-2 2 .8954 2 2 2"/>
</svg>
