<svg width="32" height="32" fill="currentColor" viewBox="0 0 32 32" xmlns="http://www.w3.org/2000/svg">
  <path d="M24 6h1.9906C27.1058 6 28 6.8934 28 8.0025v19.995A1.9965 1.9965 0 0 1 25.9975 30H6.0025A1.997 1.997 0 0 1 4 27.997V8.003C4 6.8872 4.899 6 6.0094 6H8V5c0-.5523 .4477-1 1-1h2V2.999C11 1.8967 11.899 1 12.997 1h6.006C20.1072 1 21 1.8917 21 2.999V4h2c.5523 0 1 .4477 1 1zM8 7.9995c-.8726-.0001-2 .0003-2 .0036C6 8.003 5.9966 28 6.0025 28c0 0 19.9975 .0036 19.9975-.0025C26 27.9975 26.0016 8 25.9906 8H24v1c0 .5523-.4477 1-1 1H9c-.5523 0-1-.4477-1-1zM10 6v2h12V6h-1.001C19.8912 6 19 5.106 19 4.001L18.9994 3l-6.0027-.0003L13 4.001C13 5.1088 12.106 6 11.001 6zm-1 9c0-.5523 .4434-1 1.0094-1h1.9812C12.5481 14 13 14.4439 13 15c0 .5523-.4434 1-1.0094 1H10.0094C9.4519 16 9 15.5561 9 15m6 0c0-.5523 .453-1 .997-1h6.006A.996 .996 0 0 1 23 15c0 .5523-.453 1-.997 1h-6.006A.996 .996 0 0 1 15 15m-6 4c0-.5523 .451-1 .9908-1h4.0184c.5472 0 .9908 .4439 .9908 1 0 .5523-.451 1-.9908 1H9.9908C9.4436 20 9 19.5561 9 19m8 0c0-.5523 .451-1 .9908-1h4.0184c.5472 0 .9908 .4439 .9908 1 0 .5523-.451 1-.9908 1h-4.0184C17.4436 20 17 19.5561 17 19m-8 4c0-.5523 .4434-1 1.0094-1h1.9812C12.5481 22 13 22.4439 13 23c0 .5523-.4434 1-1.0094 1H10.0094C9.4519 24 9 23.5561 9 23m6 0c0-.5523 .4427-1 .999-1h1.002A.997 .997 0 0 1 18 23c0 .5523-.4427 1-.999 1h-1.002A.997 .997 0 0 1 15 23"/>
</svg>
