<svg xmlns="http://www.w3.org/2000/svg" fill="none" viewBox="0 0 32 32"><path fill="currentColor" d="M8 6V5c0-.5523.4477-1 1-1h2V2.999C11 1.8967 11.8991 1 12.997 1h6.006C20.1072 1 21 1.8917 21 2.999V4h2c.5523 0 1 .4477 1 1v1h2c1.1046 0 2 .8954 2 2v6c0 .5523-.4477 1-1 1s-1-.4477-1-1V8h-2v1c0 .5523-.4477 1-1 1H9c-.5523 0-1-.4477-1-1V8H6v20h20v-4c0-.5523.4477-1 1-1s1 .4477 1 1v4c0 1.1046-.8954 2-2 2H6c-1.1046 0-2-.8954-2-2V8c0-1.1046.8954-2 2-2h2Zm2 0v2h12V6h-1.001C19.8912 6 19 5.106 19 4.001V3l-6-.0003V4.001C13 5.1087 12.1059 6 11.001 6H10Zm-1 9c0-.5523.4379-1 1.0029-1h4.9942C15.551 14 16 14.4439 16 15c0 .5523-.4379 1-1.0029 1h-4.9942C9.449 16 9 15.5561 9 15Zm0 4c0-.5523.4434-1 1.0094-1h1.9812C12.5481 18 13 18.4439 13 19c0 .5523-.4434 1-1.0094 1h-1.9812C9.4519 20 9 19.5561 9 19Zm0 4c0-.5523.451-1 .9908-1h4.0184c.5472 0 .9908.4439.9908 1 0 .5523-.451 1-.9908 1H9.9908C9.4436 24 9 23.5561 9 23Zm10.4142-3 2.2929 2.2929c.3905.3905.3905 1.0237 0 1.4142-.3905.3905-1.0237.3905-1.4142 0l-4-4c-.3905-.3905-.3905-1.0237 0-1.4142l4-4c.3905-.3905 1.0237-.3905 1.4142 0 .3905.3905.3905 1.0237 0 1.4142L19.4142 18H31c.5523 0 1 .4477 1 1s-.4477 1-1 1H19.4142Z"/></svg>