<svg xmlns="http://www.w3.org/2000/svg" fill="none" viewBox="0 0 32 32"><path fill="currentColor" d="M7 4h18c2.2091 0 4 1.7909 4 4v19c0 2.2091-1.7909 4-4 4H7c-2.2091 0-4-1.7909-4-4V8c0-2.2091 1.7909-4 4-4Zm1.7504 13L12 13.4618 10.6027 12 5 18l5.6027 6L12 22.5382 8.7504 19H29v-2H8.7504ZM16 12v2h13v-2H16Zm0 10v2h13v-2H16ZM8 4v2.5C8 7.3284 8.6716 8 9.5 8h13c.8284 0 1.5-.6716 1.5-1.5V4H8Zm4-1c0-1.1046.8954-2 2-2h4c1.1046 0 2 .8954 2 2h1c1.1046 0 2 .8954 2 2v1c0 .5523-.4477 1-1 1H10c-.5523 0-1-.4477-1-1V5c0-1.1046.8954-2 2-2h1Z"/></svg>