<svg width="24" height="24" fill="currentColor" viewBox="0 0 24 24" xmlns="http://www.w3.org/2000/svg">
  <path d="M12 2c3.7392 0 6.975 2.419 7.965 5.831C21.7967 8.7324 23 10.5665 23 12.625c0 2.2807-1.4944 4.2867-3.6676 5.0526-.5209.1836-1.092-.0898-1.2756-.6107s.09-1.092.6108-1.2755C20.0584 15.3012 21 14.0373 21 12.625c0-1.3903-.8936-2.6295-2.237-3.1379a1 1 0 0 1-.623-.7218C17.5385 6.0141 14.9893 4 12 4 9.2901 4 6.9187 5.6576 6.0612 8.0629a1 1 0 0 1-.5778.5955C3.9895 9.2425 3 10.6312 3 12.1875c0 1.5213.9452 2.8843 2.389 3.4908.5092.2139.7486.8001.5347 1.3093s-.8001.7485-1.3093.5346C2.442 16.6096 1 14.5301 1 12.1875c0-2.2448 1.324-4.2448 3.3385-5.2108C5.5942 3.9993 8.603 2 12 2M8 12h2c.5523 0 1 .4477 1 1v2c0 .5523-.4477 1-1 1H8c-.5523 0-1-.4477-1-1v-2c0-.5523.4477-1 1-1m6 0h2c.5523 0 1 .4477 1 1v2c0 .5523-.4477 1-1 1h-2c-.5523 0-1-.4477-1-1v-2c0-.5523.4477-1 1-1m-6 6h2c.5523 0 1 .4477 1 1v2c0 .5523-.4477 1-1 1H8c-.5523 0-1-.4477-1-1v-2c0-.5523.4477-1 1-1m6 0h2c.5523 0 1 .4477 1 1v2c0 .5523-.4477 1-1 1h-2c-.5523 0-1-.4477-1-1v-2c0-.5523.4477-1 1-1"/>
</svg>
