<svg width="16" height="16" fill="currentColor" viewBox="0 0 16 16" xmlns="http://www.w3.org/2000/svg">
  <path d="M16 9c0 1.7028-1.0829 3.2034-2.6637 3.7679-.5202.1857-1.0924-.0854-1.278-.6055-.1858-.5202.0853-1.0924.6054-1.278C13.4568 10.6011 14 9.8483 14 9c0-.873-.5646-1.6376-1.3815-1.9028a1 1 0 0 1-.6766-.7815C11.6143 4.412 9.9545 3 8 3S4.3857 4.412 4.0581 6.3157a1 1 0 0 1-.6766.7815 2.0012 2.0012 0 0 0-.0462 3.79c.5209.1834.7944.7545.611 1.2754-.1836.521-.7546.7944-1.2755.611C1.0832 12.2144 0 10.7103 0 9c0-1.541.8791-2.9122 2.2098-3.578C2.9086 2.8477 5.2608 1 8 1s5.0914 1.8477 5.7902 4.422C15.121 6.0878 16 7.459 16 9M5.5 9h5a.5.5 0 0 1 .5.5v2a.5.5 0 0 1-.5.5h-5a.5.5 0 0 1-.5-.5v-2a.5.5 0 0 1 .5-.5m0 4h5a.5.5 0 0 1 .5.5v2a.5.5 0 0 1-.5.5h-5a.5.5 0 0 1-.5-.5v-2a.5.5 0 0 1 .5-.5m4-2a.5.5 0 1 0 0-1 .5.5 0 0 0 0 1m0 4a.5.5 0 1 0 0-1 .5.5 0 0 0 0 1m-2 0a.5.5 0 1 0 0-1 .5.5 0 0 0 0 1"/>
</svg>
