<svg width="24" height="24" fill="currentColor" viewBox="0 0 24 24" xmlns="http://www.w3.org/2000/svg">
  <path d="M12 2c3.7392 0 6.975 2.419 7.965 5.831C21.7969 8.7324 23 10.5665 23 12.625c0 2.2807-1.4944 4.2867-3.6676 5.0526-.5209.1836-1.092-.0898-1.2755-.6107-.1836-.5209.0898-1.092.6107-1.2755C20.0584 15.3012 21 14.0373 21 12.625c0-1.3903-.8935-2.6296-2.237-3.1379a1 1 0 0 1-.623-.7218C17.5387 6.0141 14.9895 4 12 4 9.2901 4 6.9187 5.6576 6.0612 8.0629a1 1 0 0 1-.5778.5955C3.9895 9.2425 3 10.6312 3 12.1875c0 1.5213.9452 2.8843 2.389 3.4908.5092.214.7486.8001.5347 1.3093s-.8001.7485-1.3093.5346C2.442 16.6096 1 14.5301 1 12.1875c0-2.2448 1.324-4.2448 3.3385-5.2108C5.5943 3.9993 8.603 2 12 2m5 9.5v2a.5.5 0 0 1-.5.5h-9a.5.5 0 0 1-.5-.5v-2a.5.5 0 0 1 .5-.5h9a.5.5 0 0 1 .5.5M15.5 13a.5.5 0 1 0 0-1 .5.5 0 0 0 0 1m-2 0a.5.5 0 1 0 0-1 .5.5 0 0 0 0 1m-5 0a.5.5 0 1 0 0-1 .5.5 0 0 0 0 1m8.5 2.5v2a.5.5 0 0 1-.5.5h-9a.5.5 0 0 1-.5-.5v-2a.5.5 0 0 1 .5-.5h9a.5.5 0 0 1 .5.5M15.5 17a.5.5 0 1 0 0-1 .5.5 0 0 0 0 1m-2 0a.5.5 0 1 0 0-1 .5.5 0 0 0 0 1m-2 0a.5.5 0 1 0 0-1 .5.5 0 0 0 0 1m-3 0a.5.5 0 1 0 0-1 .5.5 0 0 0 0 1m8.5 2.5v2a.5.5 0 0 1-.5.5h-9a.5.5 0 0 1-.5-.5v-2a.5.5 0 0 1 .5-.5h9a.5.5 0 0 1 .5.5M15.5 21a.5.5 0 1 0 0-1 .5.5 0 0 0 0 1m-2 0a.5.5 0 1 0 0-1 .5.5 0 0 0 0 1m-5 0a.5.5 0 1 0 0-1 .5.5 0 0 0 0 1"/>
</svg>
