<svg width="24" height="24" fill="currentColor" viewBox="0 0 24 24" xmlns="http://www.w3.org/2000/svg">
  <path d="M3 4h1c0-1.1046.8954-2 2-2h12c1.1046 0 2 .8954 2 2h1c1.1046 0 2 .8954 2 2v12c0 1.1046-.8954 2-2 2h-1c0 1.1046-.8954 2-2 2H6c-1.1046 0-2-.8954-2-2H3c-1.1046 0-2-.8954-2-2V6c0-1.1046.8954-2 2-2m0 2v12h1V6zm17 0v12h1V6zM6 16v4h12v-4zm0-6v4h12v-4zm0-6v4h12V4zm2 3c-.5523 0-1-.4477-1-1s.4477-1 1-1 1 .4477 1 1-.4477 1-1 1m0 6c-.5523 0-1-.4477-1-1s.4477-1 1-1 1 .4477 1 1-.4477 1-1 1m0 6c-.5523 0-1-.4477-1-1s.4477-1 1-1 1 .4477 1 1-.4477 1-1 1m3-12c-.5523 0-1-.4477-1-1s.4477-1 1-1 1 .4477 1 1-.4477 1-1 1m0 6c-.5523 0-1-.4477-1-1s.4477-1 1-1 1 .4477 1 1-.4477 1-1 1m0 6c-.5523 0-1-.4477-1-1s.4477-1 1-1 1 .4477 1 1-.4477 1-1 1"/>
</svg>
