<svg width="32" height="32" fill="currentColor" viewBox="0 0 32 32" xmlns="http://www.w3.org/2000/svg">
  <path d="m27.832 8.5547-1.8618 2.7927c.147.3144.279.6358.3955.9633l2.8768.7192A1 1 0 0 1 30 14v4a1 1 0 0 1-.7575.9701l-2.8768.7192a11 11 0 0 1-.3955.9633l1.8619 2.7927a1 1 0 0 1-.125 1.2618l-3 3a1 1 0 0 1-1.2618.125l-2.7927-1.8619c-.3144.147-.6358.279-.9633.3955l-.7192 2.8768A1 1 0 0 1 18 30h-4a1 1 0 0 1-.9701-.7575l-.7192-2.8768a11 11 0 0 1-.9633-.3955l-2.7927 1.8619a1 1 0 0 1-1.2618-.125l-3-3a1 1 0 0 1-.125-1.2618l1.8619-2.7927a11 11 0 0 1-.3955-.9633l-2.8768-.7192A1 1 0 0 1 2 18v-4a1 1 0 0 1 .7575-.9701l2.8768-.7192c.1165-.3275.2485-.649.3955-.9633L4.1679 8.5547a1 1 0 0 1 .125-1.2618l3-3a1 1 0 0 1 1.2618-.125l2.7927 1.8619c.3144-.147.6358-.279.9633-.3955l.7192-2.8768A1 1 0 0 1 14 2h4a1 1 0 0 1 .9701.7575l.7192 2.8768c.3275.1165.649.2485.9633.3955l2.7927-1.8619a1 1 0 0 1 1.2618.125l3 3a1 1 0 0 1 .125 1.2618M28 17.2192v-2.4384l-2.6555-.6639a1 1 0 0 1-.716-.6853 8.94 8.94 0 0 0-.7226-1.7363 1 1 0 0 1 .1707-1.1861l.1463-.1463 1.4903-2.2355-1.8406-1.8406-2.2355 1.4903-.1463.1463a1 1 0 0 1-1.1861.1707 8.94 8.94 0 0 0-1.7363-.7226 1 1 0 0 1-.6853-.716L17.2192 4h-2.4384l-.6639 2.6555a1 1 0 0 1-.6853.716 8.94 8.94 0 0 0-1.7363.7226 1 1 0 0 1-1.1861-.1707l-.1463-.1463-2.2355-1.4903-1.8406 1.8406L7.7771 10.363l.1463.1463a1 1 0 0 1 .1707 1.1861 8.94 8.94 0 0 0-.7226 1.7363 1 1 0 0 1-.716.6853L4 14.7808v2.4384l2.6555.6639a1 1 0 0 1 .716.6853 8.94 8.94 0 0 0 .7226 1.7363 1 1 0 0 1-.1707 1.1861l-.1463.1463-1.4903 2.2355 1.8406 1.8406 2.2355-1.4903.1463-.1463a1 1 0 0 1 1.1861-.1707 8.94 8.94 0 0 0 1.7363.7226 1 1 0 0 1 .6853.716L14.7808 28h2.4384l.6639-2.6555a1 1 0 0 1 .6853-.716 8.94 8.94 0 0 0 1.7363-.7226 1 1 0 0 1 1.1861.1707l.1463.1463 2.2355 1.4903 1.8406-1.8406-1.4903-2.2355-.1463-.1463a1 1 0 0 1-.1707-1.1861 8.94 8.94 0 0 0 .7226-1.7363 1 1 0 0 1 .716-.6853zM16 22c-3.3137 0-6-2.6863-6-6s2.6863-6 6-6 6 2.6863 6 6-2.6863 6-6 6m0-2c2.2091 0 4-1.7909 4-4s-1.7909-4-4-4-4 1.7909-4 4 1.7909 4 4 4"/>
</svg>
