<svg width="16" height="16" fill="currentColor" viewBox="0 0 16 16" xmlns="http://www.w3.org/2000/svg">
  <path d="M6.0042 13.66a6 6 0 0 1-.7051-.3008l-1.9488.9738c-.2518.1258-.612.0718-.824-.14l-.7225-.7222c-.2033-.2032-.2632-.5776-.1402-.8236l.9755-1.9498a6 6 0 0 1-.2992-.7016 2 2 0 0 1-.1377-.0483l-1.7377-.695C.208 9.1499 0 8.8384 0 8.5719V7.428c0-.2732.2092-.5785.4645-.6806l1.7377-.695a2 2 0 0 1 .1377-.0483 6 6 0 0 1 .2992-.7016l-.9755-1.9498c-.123-.246-.063-.6204.1402-.8236l.7225-.7221c.212-.2119.5722-.266.824-.1401l1.9488.9738a6 6 0 0 1 .7051-.3009 2 2 0 0 1 .0483-.1377l.695-1.7377C6.8501.208 7.1616 0 7.4281 0H8.572c.2732 0 .5785.2092.6806.4645l.695 1.7377c.0167.0417.033.0881.0483.1377a6 6 0 0 1 .7051.301l1.9488-.974c.2518-.1257.612-.0717.824.1402l.7225.7221c.2033.2032.2632.5776.1402.8236l-.9755 1.9498c.114.226.214.4603.2992.7016.0497.0154.096.0316.1377.0483l1.7377.695c.2565.1026.4645.4141.4645.6806V8.572c0 .2732-.2092.5785-.4645.6806l-1.7377.695a2 2 0 0 1-.1377.0483 6 6 0 0 1-.2992.7016l.9755 1.9498c.123.246.063.6204-.1402.8236l-.7225.7221c-.212.2119-.5722.266-.824.1401l-1.9488-.9738a6 6 0 0 1-.7051.3009 2 2 0 0 1-.0483.1377l-.695 1.7377c-.1026.2565-.4141.4645-.6806.4645H7.428c-.2732 0-.5785-.2092-.6806-.4645l-.695-1.7377a2 2 0 0 1-.0483-.1377M8 12c2.2091 0 4-1.7909 4-4s-1.7909-4-4-4-4 1.7909-4 4 1.7909 4 4 4"/>
</svg>
