<svg width="24" height="24" fill="currentColor" viewBox="0 0 24 24" xmlns="http://www.w3.org/2000/svg">
  <path d="m14.3354 3.3966.2998 1.1993q.3511.1249.688.2825l1.091-.7272.9039-.6027a.714.714 0 0 1 .9013.0893l2.1428 2.1428a.714.714 0 0 1 .0893.9013l-.6027.904-.7272 1.0908c.105.2246.1993.4542.2825.688l1.1993.2999.8556.2139a.714.714 0 0 1 .541.693v2.857a.714.714 0 0 1-.541.693l-.8556.214-1.1993.2997a7.8 7.8 0 0 1-.2825.688l.7272 1.091.6027.9039a.714.714 0 0 1-.0893.9013l-2.1428 2.1428a.714.714 0 0 1-.9013.0893l-.904-.6027-1.0908-.7272a7.8 7.8 0 0 1-.688.2825l-.2999 1.1993-.2139.8556a.714.714 0 0 1-.693.541h-2.857a.714.714 0 0 1-.693-.541l-.214-.8556-.2997-1.1993a7.8 7.8 0 0 1-.688-.2825l-1.091.7272-.9039.6027a.714.714 0 0 1-.9013-.0893l-2.1428-2.1428a.714.714 0 0 1-.0893-.9013l.6027-.904.7272-1.0908a7.8 7.8 0 0 1-.2825-.688l-1.1993-.2999-.8556-.2139a.714.714 0 0 1-.541-.693v-2.857c0-.3278.223-.6135.541-.693l.8556-.214 1.1993-.2997a7.8 7.8 0 0 1 .2825-.688l-.7272-1.091-.6027-.9039a.714.714 0 0 1 .0893-.9013l2.1428-2.1428a.714.714 0 0 1 .9013-.0893l.904.6027 1.0908.7272a7.8 7.8 0 0 1 .688-.2825l.2999-1.1993.2139-.8556A.714.714 0 0 1 10.5715 2h2.857c.3278 0 .6135.223.693.541zm3.215 2.4007-1.1177.7452a2 2 0 0 1-1.9562.1478 5.8 5.8 0 0 0-.512-.2102A2 2 0 0 1 12.695 5.081L12.4247 4h-.8494L11.305 5.081A2 2 0 0 1 10.0354 6.48a5.8 5.8 0 0 0-.5119.2102 2 2 0 0 1-1.9562-.1478l-1.1178-.7452-.6522.6522.7452 1.1178a2 2 0 0 1 .1478 1.9562 5.8 5.8 0 0 0-.2102.512A2 2 0 0 1 5.081 11.305L4 11.5753v.8494l1.081.2703a2 2 0 0 1 1.399 1.2696q.0929.2608.2102.5119a2 2 0 0 1-.1478 1.9562l-.7452 1.1178.6522.6522 1.1178-.7452a2 2 0 0 1 1.9562-.1478q.251.1173.512.2102A2 2 0 0 1 11.305 18.919L11.5753 20h.8494l.2703-1.081a2 2 0 0 1 1.2696-1.3991 5.8 5.8 0 0 0 .5119-.2102 2 2 0 0 1 1.9562.1478l1.1178.7452.6522-.6522-.7452-1.1178a2 2 0 0 1-.1478-1.9562 5.8 5.8 0 0 0 .2102-.512 2 2 0 0 1 1.3991-1.2695L20 12.4247v-.8494l-1.081-.2703a2 2 0 0 1-1.399-1.2696 5.8 5.8 0 0 0-.2102-.5119 2 2 0 0 1 .1478-1.9562l.7452-1.1178zM12 16c-2.2091 0-4-1.7909-4-4s1.7909-4 4-4 4 1.7909 4 4-1.7909 4-4 4m0-2c1.1046 0 2-.8954 2-2s-.8954-2-2-2-2 .8954-2 2 .8954 2 2 2"/>
</svg>
