<svg xmlns="http://www.w3.org/2000/svg" fill="none" viewBox="0 0 16 16"><g clip-path="url(#collapse-all--16-a)"><path fill="currentColor" fill-rule="evenodd" d="M6.705 6.7092A.9967.9967 0 0 1 6 7H3c-.5523 0-1-.4477-1-1s.4477-1 1-1h.5858L.2928 1.7071C-.0975 1.3166-.0975.6834.2929.293c.3906-.3905 1.0238-.3905 1.4143 0L5 3.5858V3c0-.5523.4477-1 1-1s1 .4477 1 1v3c0 .275-.111.5242-.2908.705l-.0042.0042Zm2.59 2.5816A.9967.9967 0 0 1 10 9h3c.5523 0 1 .4477 1 1s-.4477 1-1 1h-.5858l3.2929 3.2929c.3905.3905.3905 1.0237 0 1.4142-.3905.3905-1.0237.3905-1.4142 0L11 12.4142V13c0 .5523-.4477 1-1 1s-1-.4477-1-1v-3c0-.275.111-.5242.2908-.705l.0042-.0042Zm-.2191-2.908c.0484.117.12.2268.2149.3222l.0042.0042A.9968.9968 0 0 0 10 7h3c.5523 0 1-.4477 1-1s-.4477-1-1-1h-.5858l3.2929-3.2929c.3905-.3905.3905-1.0237 0-1.4142-.3905-.3905-1.0237-.3905-1.4142 0L11 3.5858V3c0-.5523-.4477-1-1-1s-1 .4477-1 1v3a.997.997 0 0 0 .0759.3828ZM6.7092 9.295A.9967.9967 0 0 1 7 10v3c0 .5523-.4477 1-1 1s-1-.4477-1-1v-.5858l-3.2929 3.2929c-.3905.3905-1.0237.3905-1.4142 0-.3905-.3905-.3905-1.0237 0-1.4142L3.5858 11H3c-.5523 0-1-.4477-1-1s.4477-1 1-1h3c.275 0 .5242.111.705.2908l.0042.0042Z" clip-rule="evenodd"/></g><defs><clipPath id="collapse-all--16-a"><path fill="#fff" d="M0 0h16v16H0z"/></clipPath></defs></svg>