<svg width="16" height="16" fill="currentColor" viewBox="0 0 16 16" xmlns="http://www.w3.org/2000/svg">
  <path fill-rule="evenodd" d="M14 8c0 3.3137-2.6863 6-6 6s-6-2.6863-6-6 2.6863-6 6-6 6 2.6863 6 6m-6 8c4.4183 0 8-3.5817 8-8s-3.5817-8-8-8-8 3.5817-8 8 3.5817 8 8 8m1.7929-7.0429c.3905.3905 1.0237.3905 1.4142 0s.3905-1.0237 0-1.4142l-.7929-.7929.7929-.7929c.3905-.3905.3905-1.0237 0-1.4142s-1.0237-.3905-1.4142 0l-1.5 1.5c-.3905.3905-.3905 1.0237 0 1.4142zM6.207 7.043c-.3905-.3905-1.0237-.3905-1.4142 0s-.3905 1.0237 0 1.4142l.7929.7929-.793.7929c-.3904.3905-.3904 1.0237 0 1.4142.3906.3905 1.0238.3905 1.4143 0l1.5-1.5c.3905-.3905.3905-1.0237 0-1.4142z"/>
</svg>
