<svg width="16" height="16" fill="currentColor" viewBox="0 0 16 16" xmlns="http://www.w3.org/2000/svg">
  <path d="M2 1h12c.5523 0 1 .4477 1 1v12c0 .5523-.4477 1-1 1H2c-.5523 0-1-.4477-1-1V2c0-.5523 .4477-1 1-1m1 12h10V3H3zm2.2929-3.7071L6.5858 8l-1.293-1.2929c-.3904-.3905-.3904-1.0237 0-1.4142 .3906-.3905 1.0238-.3905 1.4143 0l2 2c.3905 .3905 .3905 1.0237 0 1.4142l-2 2c-.3905 .3905-1.0237 .3905-1.4142 0s-.3905-1.0237 0-1.4142M10 11c-.5523 0-1-.4477-1-1s.4477-1 1-1 1 .4477 1 1-.4477 1-1 1"/>
</svg>
