<svg width="24" height="24" fill="currentColor" viewBox="0 0 24 24" xmlns="http://www.w3.org/2000/svg">
  <path d="M13 18c0-.5523.4477-1 1-1s1 .4477 1 1c0 .0316.0419.106.1973.2382C15.716 18.6792 16.794 19 18 19c1.222 0 2.3017-.3177 2.8094-.7553.1459-.1256.1906-.2076.1906-.2447 0-.5523.4477-1 1-1s1 .4477 1 1c0 .6768-.3299 1.2814-.885 1.7598C21.201 20.5475 19.6634 21 18 21c-1.6453 0-3.1788-.4563-4.0983-1.2382C13.3344 19.2794 13 18.6846 13 18M1 18c0-.5523.4477-1 1-1s1 .4477 1 1c0 .0316.0419.106.1973.2382C3.716 18.6792 4.794 19 6 19c1.222 0 2.3017-.3177 2.8094-.7553C8.9553 18.1191 9 18.0371 9 18c0-.5523.4477-1 1-1s1 .4477 1 1c0 .6768-.3299 1.2814-.885 1.7598C9.201 20.5475 7.6634 21 6 21c-1.6453 0-3.1788-.4563-4.0983-1.2382C1.3344 19.2794 1 18.6846 1 18m12-4c0-.5523.4477-1 1-1s1 .4477 1 1c0 .0316.0419.106.1973.2382C15.716 14.6792 16.794 15 18 15c1.222 0 2.3017-.3177 2.8094-.7553.1459-.1256.1906-.2076.1906-.2447 0-.5523.4477-1 1-1s1 .4477 1 1c0 .6768-.3299 1.2814-.885 1.7598C21.201 16.5475 19.6634 17 18 17c-1.6453 0-3.1788-.4563-4.0983-1.2382C13.3344 15.2794 13 14.6846 13 14m0-4c0-.5523.4477-1 1-1s1 .4477 1 1c0 .0316.0419.106.1973.2382C15.716 10.6792 16.794 11 18 11c1.222 0 2.3017-.3177 2.8094-.7553.1459-.1256.1906-.2076.1906-.2447 0-.5523.4477-1 1-1s1 .4477 1 1c0 .6768-.3299 1.2814-.885 1.7598C21.201 12.5475 19.6634 13 18 13c-1.6453 0-3.1788-.4563-4.0983-1.2382C13.3344 11.2794 13 10.6846 13 10m5-1c-2.6906 0-5-1.1547-5-3s2.3094-3 5-3 5 1.1547 5 3-2.3094 3-5 3m0-2c1.6569 0 3-.4477 3-1s-1.3431-1-3-1-3 .4477-3 1 1.3431 1 3 1M6 17c-2.6906 0-5-1.1547-5-3s2.3094-3 5-3 5 1.1547 5 3-2.3094 3-5 3m0-2c1.6569 0 3-.4477 3-1s-1.3431-1-3-1-3 .4477-3 1 1.3431 1 3 1"/>
</svg>
