<svg width="16" height="16" fill="currentColor" viewBox="0 0 16 16" xmlns="http://www.w3.org/2000/svg">
  <path d="M8 6.5c0-.5523.4477-1 1-1s1 .4477 1 1c0 .1402.5997.5 1.5.5s1.5-.3598 1.5-.5c0-.5523.4477-1 1-1s1 .4477 1 1C15 8.0167 13.3611 9 11.5 9S8 8.0167 8 6.5m0 3c0-.5523.4477-1 1-1s1 .4477 1 1c0 .1402.5997.5 1.5.5s1.5-.3598 1.5-.5c0-.5523.4477-1 1-1s1 .4477 1 1c0 1.5167-1.6389 2.5-3.5 2.5S8 11.0167 8 9.5m0 3c0-.5523.4477-1 1-1s1 .4477 1 1c0 .1402.5997.5 1.5.5s1.5-.3598 1.5-.5c0-.5523.4477-1 1-1s1 .4477 1 1c0 1.5167-1.6389 2.5-3.5 2.5S8 14.0167 8 12.5m-8 0c0-.5523.4477-1 1-1s1 .4477 1 1c0 .1402.5997.5 1.5.5s1.5-.3598 1.5-.5c0-.5523.4477-1 1-1s1 .4477 1 1C7 14.0167 5.3611 15 3.5 15S0 14.0167 0 12.5M11.5 6C9.567 6 8 4.8807 8 3.5S9.567 1 11.5 1 15 2.1193 15 3.5 13.433 6 11.5 6m1.4971-2.4947c-.0104-.0008-.0528-.0514-.1847-.1456C12.5094 3.1433 12.0351 3 11.5 3s-1.0094.1433-1.3124.3597C10.0298 3.4724 10 3.5227 10 3.5s.0298.0276.1876.1403c.303.2164.7773.3597 1.3124.3597s1.0094-.1433 1.3124-.3597c.132-.0943.1744-.1449.1848-.1456zM3.5 12C1.567 12 0 10.8807 0 9.5S1.567 7 3.5 7 7 8.1193 7 9.5 5.433 12 3.5 12m1.4971-2.4947c-.0104-.0008-.0528-.0514-.1847-.1456C4.5094 9.1433 4.0351 9 3.5 9s-1.0094.1433-1.3124.3597C2.0298 9.4724 2 9.5227 2 9.5s.0298.0276.1876.1403C2.4906 9.8567 2.9649 10 3.5 10s1.0094-.1433 1.3124-.3597c.132-.0943.1744-.1449.1848-.1456z"/>
</svg>
