<svg width="24" height="24" fill="currentColor" viewBox="0 0 24 24" xmlns="http://www.w3.org/2000/svg">
  <path d="M21 12.5207V19h1c.5523 0 1 .4477 1 1s-.4477 1-1 1H2c-.5523 0-1-.4477-1-1s.4477-1 1-1h1V12.5207l-.4265 .2985C2.121 13.136 1.4975 13.026 1.1808 12.5735s-.2067-1.076 .2457-1.3927l10-7a1 1 0 0 1 1.147 0l10 7c.4524 .3167 .5624 .9402 .2457 1.3927s-.9402 .5624-1.3927 .2457zm-2-1.4-7-4.9-7 4.9V19h14zM12 10c.5523 0 1 .4477 1 1v2c0 .5523-.4477 1-1 1s-1-.4477-1-1V11c0-.5523 .4477-1 1-1m6-5c.5523 0 1 .4477 1 1v3c0 .5523-.4477 1-1 1s-1-.4477-1-1V6c0-.5523 .4477-1 1-1M8 15c.5523 0 1 .4477 1 1v1c0 .5523-.4477 1-1 1s-1-.4477-1-1v-1c0-.5523 .4477-1 1-1m8 0c.5523 0 1 .4477 1 1v1c0 .5523-.4477 1-1 1s-1-.4477-1-1v-1c0-.5523 .4477-1 1-1m0-4c.5523 0 1 .4477 1 1v1c0 .5523-.4477 1-1 1s-1-.4477-1-1V12c0-.5523 .4477-1 1-1M8 11c.5523 0 1 .4477 1 1v1c0 .5523-.4477 1-1 1s-1-.4477-1-1V12c0-.5523 .4477-1 1-1m4 4c.5523 0 1 .4477 1 1v3c0 .5523-.4477 1-1 1s-1-.4477-1-1v-3c0-.5523 .4477-1 1-1"/>
</svg>
