<svg xmlns="http://www.w3.org/2000/svg" fill="none" viewBox="0 0 16 16"><g clip-path="url(#customer--16-a)"><path fill="currentColor" fill-rule="evenodd" d="m13.998 6.0554 1.5833 1.1309c.4494.321.5535.9455.2325 1.395A.999.999 0 0 1 15 9V13c.5523 0 1 .4477 1 1s-.4477 1-1 1H1c-.5523 0-1-.4477-1-1s.4477-1 1-1V9a.9988.9988 0 0 1-.8137-.4188c-.321-.4494-.217-1.074.2325-1.395l7-5a1 1 0 0 1 1.1625 0L12 4.6283v-.6188C12 3.4519 12.4439 3 13 3c.5523 0 1 .4434 1 1.0094v1.9812c0 .0218-.0007.0434-.002.0648ZM9 13h4V7.8003L8 4.229 3 7.8003V13h4v-2.0002A.9974.9974 0 0 1 8 10c.5523 0 1 .4437 1 .9998V13Zm0-6c0-.5523-.4477-1-1-1-.5522 0-1 .4477-1 1v1c0 .5523.4478 1 1 1 .5523 0 1-.4477 1-1V7ZM5 8c.5523 0 1 .4477 1 1v1c0 .5523-.4477 1-1 1-.5522 0-1-.4477-1-1V9c0-.5523.4478-1 1-1Zm7 1c0-.5523-.4477-1-1-1s-1 .4477-1 1v1c0 .5523.4477 1 1 1s1-.4477 1-1V9Z" clip-rule="evenodd"/></g><defs><clipPath id="customer--16-a"><path fill="#fff" d="M0 0h16v16H0z"/></clipPath></defs></svg>