<svg width="16" height="16" fill="currentColor" viewBox="0 0 16 16" xmlns="http://www.w3.org/2000/svg">
  <path d="m13.998 6.0554 1.5832 1.1309c.4495.321.5535.9455.2325 1.395A.999.999 0 0 1 15 9v4c.5523 0 1 .4477 1 1s-.4477 1-1 1H1c-.5523 0-1-.4477-1-1s.4477-1 1-1V9a.999.999 0 0 1-.8137-.4188c-.321-.4494-.217-1.074.2325-1.395l7-5a1 1 0 0 1 1.1624 0L12 4.6283v-.6188C12 3.4519 12.4439 3 13 3c.5523 0 1 .4434 1 1.0094v1.9812q0 .0327-.002.0648M9 13h4V7.8003L8 4.229 3 7.8003V13h4V10.9998A.9974.9974 0 0 1 8 10c.5523 0 1 .4437 1 .9998zM5 8c.5523 0 1 .4477 1 1v1c0 .5523-.4477 1-1 1s-1-.4477-1-1V9c0-.5523.4477-1 1-1m6 0c.5523 0 1 .4477 1 1v1c0 .5523-.4477 1-1 1s-1-.4477-1-1V9c0-.5523.4477-1 1-1M8 6c.5523 0 1 .4477 1 1v1c0 .5523-.4477 1-1 1s-1-.4477-1-1V7c0-.5523.4477-1 1-1"/>
</svg>
