<svg width="24" height="24" fill="currentColor" viewBox="0 0 24 24" xmlns="http://www.w3.org/2000/svg">
  <path d="M21.994 13.372 22 18.5949c0 .709-.373 1.364-.983 1.725l-4.066 2.401a2.001 2.001 0 0 1-2.035 0l-2.915-1.723-2.917 1.718a1.993 1.993 0 0 1-1.015.277c-.352 0-.703-.092-1.017-.278l-4.069-2.403A1.999 1.999 0 0 1 2 18.5899V13.368c0-.708.375-1.363.985-1.722l2.949-1.739V6.402c0-.708.373-1.363.982-1.722l4.067-2.402C11.297 2.093 11.648 2 12 2s.704.093 1.018.279l4.059 2.401c.608.359.982 1.014.982 1.721v3.511l2.951 1.74c.609.359.984 1.013.984 1.72m-6.06 7.6269L20 18.5979l-.006-5.2229L18 12.2v3.8199a2 2 0 0 1-.992 1.728l-3.309 1.93zm-7.865-.006 2.233-1.315-3.309-1.93A1.999 1.999 0 0 1 6 16.0199V12.189l-2 1.179v5.2219zm3.932-2.64L16 16.0199V10.978l-3.999-2.333L8 10.978v5.0419zM12 4 7.934 6.402v2.3l3.059-1.784c.312-.182.66-.273 1.008-.273s.696.091 1.008.273l3.05 1.779V6.401z"/>
</svg>
