<svg width="16" height="16" fill="currentColor" viewBox="0 0 16 16" xmlns="http://www.w3.org/2000/svg">
  <path d="m15.995 8.4908.005 4.387c0 .35-.183.675-.482.857l-3.549 2.1225c-.16.096-.339.144-.519.144s-.359-.048-.519-.145L8.5 14.4108l-2.432 1.4425a1 1 0 0 1-1.035-.001l-3.551-2.1235a.997.997 0 0 1-.482-.855v-4.386a1 1 0 0 1 .482-.856l2.468-1.492v-3.011c0-.35.183-.674.481-.855L7.981.144C8.14.048 8.32 0 8.5 0c.179 0 .359.048.518.145l3.544 2.1288c.299.181.482.505.482.855v3.016l2.468 1.492c.299.181.483.505.483.854m-4.545 5.369 2.55-1.544-.004-3.259-.996-.602v2.591c0 .372-.207.714-.537.886l-2.251 1.178zm-5.898-.004 1.236-.747-2.251-1.177a1 1 0 0 1-.537-.886v-2.599l-1 .605v3.258zm2.948-2.109 2.5-1.306v-2.984l-2.5-1.582L6 7.4568v2.983zm0-9.599-2.55 1.545v1.429l2.016-1.276a1 1 0 0 1 .534-.155c.186 0 .372.052.535.155l2.009 1.272v-1.426z"/>
</svg>
