<svg width="32" height="32" fill="currentColor" viewBox="0 0 32 32" xmlns="http://www.w3.org/2000/svg">
  <path d="M17 5.0313v.9697A.997 .997 0 0 1 16 7c-.5523 0-1-.4427-1-.999v-.9697c-3.2891 .2073-6.127 1.434-8.216 3.3385l.9231 .923c.3905 .3906 .3905 1.0238 0 1.4143s-1.0237 .3905-1.4142 0l-.8681-.8681C3.8805 11.8257 3 14.2956 3 17h1.001A.997 .997 0 0 1 5 18c0 .5523-.4427 1-.999 1h-.9153c.1937 2.2149 .7065 4.1602 1.4445 5.7326 .374 .7967 .7858 1.4455 1.1724 1.8832 .1548 .1753 .294 .3028 .4105 .3842h4.3626c.0297-.0832 .0655-.187 .1114-.322 .1393-.4097 .2013-.5805 .291-.7784 .2646-.5835 .5103-.8996 1.1658-.8996h7.9252c.6527 0 .9013 .3163 1.167 .8958 .0908 .1982 .1534 .3691 .2944 .779 .047 .1368 .0835 .2415 .1138 .3252 0 0 4.3458-.0044 4.3524-.009 .1066-.0724 .2459-.2 .4007-.3752 .3866-.4377 .7984-1.0865 1.1724-1.8832 .738-1.5724 1.2508-3.5177 1.4445-5.7326h-.9153A.997 .997 0 0 1 27 18c0-.5523 .4427-1 .999-1H29c0-6.4243-4.9689-11.5256-12-11.9687M19.4254 27H12.592a23 23 0 0 0-.1114 .322c-.1393 .4097-.2012 .5805-.291 .7784-.2646 .5835-.5102 .8996-1.1658 .8996H6c-2.3402 0-5-5.6667-5-12C1 9.1562 7.354 3 16 3s15 6.1562 15 14c0 6.3333-2.6598 12-5 12h-4.9995c-.6527 0-.9013-.3163-1.1669-.8958-.0909-.1982-.1535-.3691-.2945-.779A23 23 0 0 0 19.4254 27m-.7178-10.2934C18.895 17.0982 19 17.5369 19 18c0 1.6569-1.3431 3-3 3s-3-1.3431-3-3 1.3431-3 3-3c.4631 0 .9018 .105 1.2934 .2924l3.9995-3.9995c.3905-.3905 1.0237-.3905 1.4142 0s.3905 1.0237 0 1.4142zM16 19c.5523 0 1-.4477 1-1s-.4477-1-1-1-1 .4477-1 1 .4477 1 1 1"/>
</svg>
