<svg xmlns="http://www.w3.org/2000/svg" fill="none" viewBox="0 0 16 16"><g clip-path="url(#db-cluster-active--16-a)"><path fill="currentColor" fill-rule="evenodd" d="M14 3.735c0 1.5105-2.6863 2.735-6 2.735S2 5.2455 2 3.735 4.6863 1 8 1s6 1.2245 6 2.735Zm0 .765v2.08a1.4189 1.4189 0 0 1-.18.67 4.9542 4.9542 0 0 0-1.895-.68C13.195 6.065 14 5.33 14 4.5ZM8.74 7.2a5.5452 5.5452 0 0 0-1.965 2.055C4.05 9 2 7.9 2 6.555V4.46C2 5.975 4.685 7.2 8 7.2h.74ZM6.42 9.97A6.2754 6.2754 0 0 0 6 12c-2.325-.375-4-1.385-4.01-2.58V7.33c0 1.265 1.88 2.325 4.43 2.64ZM2 12.265V10.17c0 1.195 1.68 2.21 4.025 2.585a6.0402 6.0402 0 0 0 .58 2.17C3.965 14.635 2 13.555 2 12.265ZM9.64 8.93a1.7252 1.7252 0 0 1-.14-.68 1.7452 1.7452 0 0 1 .05-.395A4.26 4.26 0 0 0 7 11.75v.415A1.7163 1.7163 0 0 1 7.73 12a2.377 2.377 0 0 1 .265.025 2.4637 2.4637 0 0 1 0-.275A3.2548 3.2548 0 0 1 9.64 8.93Zm3.2201 0a1.7247 1.7247 0 0 0 .14-.68 1.7446 1.7446 0 0 0-.055-.395 4.2601 4.2601 0 0 1 2.55 3.895v.415a1.7162 1.7162 0 0 0-.73-.165 2.3776 2.3776 0 0 0-.265.025 2.4733 2.4733 0 0 0 0-.275 3.2554 3.2554 0 0 0-1.64-2.82Zm.2649 5.47a3.23 3.23 0 0 1-3.75 0 1.74 1.74 0 0 1-.625.7801 4.2201 4.2201 0 0 0 5 0 1.7404 1.7404 0 0 1-.625-.7801ZM12.5 8.25c0 .6904-.5596 1.25-1.25 1.25S10 8.9404 10 8.25 10.5596 7 11.25 7s1.25.5596 1.25 1.25ZM9 13.75C9 14.4404 8.4404 15 7.75 15s-1.25-.5596-1.25-1.25.5596-1.25 1.25-1.25S9 13.0596 9 13.75ZM14.75 15c.6904 0 1.25-.5596 1.25-1.25s-.5596-1.25-1.25-1.25-1.25.5596-1.25 1.25.5596 1.25 1.25 1.25Zm-2.25-2.85c0 .6904-.5596 1.25-1.25 1.25S10 12.8404 10 12.15s.5596-1.25 1.25-1.25 1.25.5596 1.25 1.25Z" clip-rule="evenodd"/></g><defs><clipPath id="db-cluster-active--16-a"><path fill="#fff" d="M0 0h16v16H0z"/></clipPath></defs></svg>