<svg xmlns="http://www.w3.org/2000/svg" fill="none" viewBox="0 0 32 32"><path fill="currentColor" d="M24.02 5.47c0 3.021-5.3726 5.4699-12 5.4699s-12-2.449-12-5.47S5.3926 0 12.02 0s12 2.449 12 5.47Z"/><path fill="currentColor" d="M24.0201 7v4.1599a2.8388 2.8388 0 0 1-.36 1.3401 9.9102 9.9102 0 0 0-3.79-1.3601c2.54-1.01 4.15-2.4799 4.15-4.1399ZM9.57 16.51a11.0898 11.0898 0 0 1 3.93-4.1101h-1.48c-6.63 0-12-2.45-12-5.48v4.1902c0 2.69 4.1 4.8899 9.55 5.3999Z"/><path fill="currentColor" d="M8.02 22a12.551 12.551 0 0 1 .84-4.0601c-5.1-.63-8.86-2.75-8.86-5.28v4.1802C.02 19.2301 3.37 21.25 8.02 22Z"/><path fill="currentColor" d="M.02 22.53v-4.1899c0 2.39 3.36 4.4199 8.05 5.1699a12.0802 12.0802 0 0 0 1.16 4.3401C3.95 27.2701.02 25.11.02 22.53ZM18.52 17c1.3807 0 2.5-1.1193 2.5-2.5s-1.1193-2.5-2.5-2.5-2.5 1.1193-2.5 2.5 1.1193 2.5 2.5 2.5ZM14.02 25.5c0 1.3807-1.1193 2.5-2.5 2.5s-2.5-1.1193-2.5-2.5 1.1193-2.5 2.5-2.5 2.5 1.1193 2.5 2.5ZM22.02 14.5a3.4514 3.4514 0 0 1-.28 1.3601A6.5098 6.5098 0 0 1 25.02 21.5a4.9466 4.9466 0 0 1 0 .55 4.753 4.753 0 0 1 .53-.05 3.4296 3.4296 0 0 1 1.46.3301V21.5a8.5196 8.5196 0 0 0-5.1-7.79c.0667.2582.1036.5233.11.79ZM18.52 27.9998A6.4594 6.4594 0 0 0 22.27 26.8a3.4811 3.4811 0 0 0 1.25 1.5601 8.4398 8.4398 0 0 1-10 0A3.4798 3.4798 0 0 0 14.77 26.8a6.4594 6.4594 0 0 0 3.75 1.1998ZM15.3 15.8601a3.4514 3.4514 0 0 1-.28-1.3601 3.494 3.494 0 0 1 .1-.79 8.5195 8.5195 0 0 0-5.1 7.79v.8301A3.43 3.43 0 0 1 11.48 22a4.753 4.753 0 0 1 .53.05 4.9466 4.9466 0 0 1 0-.55 6.5105 6.5105 0 0 1 3.29-5.6399ZM28.02 25.5c0 1.3807-1.1193 2.5-2.5 2.5s-2.5-1.1193-2.5-2.5 1.1193-2.5 2.5-2.5 2.5 1.1193 2.5 2.5Z"/></svg>