<svg width="16" height="16" fill="currentColor" viewBox="0 0 16 16" xmlns="http://www.w3.org/2000/svg">
  <path d="M16 3.5v9c0 1.933-3.5817 3.5-8 3.5s-8-1.567-8-3.5v-9C0 1.567 3.5817 0 8 0s8 1.567 8 3.5m-2 7.1458C12.5341 11.4762 10.3894 12 8 12s-4.5341-.5238-6-1.3542v1.8264c.203.21.6381.4487 1.1448.6704C4.3667 13.677 6.1115 14 8 14s3.6333-.3229 4.8552-.8574c.5067-.2217.9418-.4603 1.1448-.6704q.0543-.0561 0-1.8264m0-4C12.5341 7.4762 10.3894 8 8 8s-4.5341-.5238-6-1.3542v1.8264c.203.21.6381.4487 1.1448.6704C4.3667 9.677 6.1115 10 8 10s3.6333-.3229 4.8552-.8574c.5067-.2217.9418-.4603 1.1448-.6704q.0543-.0561 0-1.8264M8 6c3.3137 0 6-.8954 6-2s-2.6863-2-6-2-6 .8954-6 2 2.6863 2 6 2"/>
</svg>
