<svg width="32" height="32" fill="currentColor" viewBox="0 0 32 32" xmlns="http://www.w3.org/2000/svg">
  <path d="M12 27h8v2h-8zM24.1872 9.257C24.709 10.3969 25 11.6645 25 13c0 3.5337-2.0366 6.5918-5 8.0645V25h-8v-3.5558L6.4442 27 5 25.5558 27.5558 3 29 4.4442zM13.7456 19.6987 14 19.825V23h4v-3.175l1.11-.5515C21.474 18.0985 23 15.6865 23 13a7 7 0 0 0-.3535-2.2023zm8.075-13.5633-1.4204 1.4203C19.198 6.5827 17.667 6 16 6c-3.866 0-7 3.134-7 7 0 1.643.5707 3.1834 1.5549 4.4009l-1.4196 1.4196C7.8034 17.2513 7 15.2195 7 13c0-4.9706 4.0294-9 9-9 2.2195 0 4.2513.8034 5.8205 2.1353"/>
</svg>
