<svg xmlns="http://www.w3.org/2000/svg" fill="none" viewBox="0 0 16 16"><g clip-path="url(#discount-solid--16-a)"><path fill="currentColor" fill-rule="evenodd" d="m14.3629 3.8668.0526.6694c.0403.5081.2401.9918.5712 1.379l.4346.5117c.7728.9077.7728 2.2411 0 3.147l-.4346.5117a2.4275 2.4275 0 0 0-.5712 1.3808l-.0543.6694c-.0946 1.188-1.0374 2.1308-2.2254 2.2254l-.6694.0526a2.4268 2.4268 0 0 0-1.3808.5712l-.5116.4346c-.9077.7727-2.2412.7727-3.1471 0l-.5134-.4346a2.4266 2.4266 0 0 0-1.3808-.5712l-.6694-.0544c-1.188-.0946-2.1307-1.0373-2.2254-2.2254l-.0525-.6693a2.4267 2.4267 0 0 0-.5713-1.3808l-.4345-.5117c-.7728-.9077-.7728-2.2411 0-3.147l.4363-.5117c.3312-.389.531-.8727.5712-1.3808l.0543-.6694c.0947-1.188 1.0374-2.1307 2.2254-2.2254l.6694-.0525A2.4268 2.4268 0 0 0 5.917 1.014l.5117-.4345c.9076-.7728 2.2411-.7728 3.147 0l.5117.4363c.389.3312.8726.531 1.3808.5712l.6694.0543c1.188.0947 2.1307 1.0374 2.2253 2.2254ZM6.5 5.25c0 .6904-.5596 1.25-1.25 1.25S4 5.9404 4 5.25 4.5596 4 5.25 4s1.25.5596 1.25 1.25Zm5.5 5.5c0 .6904-.5596 1.25-1.25 1.25s-1.25-.5596-1.25-1.25.5596-1.25 1.25-1.25 1.25.5596 1.25 1.25Zm-.6843-6.0665a.8.8 0 0 1 0 1.1314l-5.5 5.5a.8.8 0 0 1-1.1314-1.1314l5.5-5.5a.8.8 0 0 1 1.1314 0Z" clip-rule="evenodd"/></g><defs><clipPath id="discount-solid--16-a"><path fill="#fff" d="M0 0h16v16H0z"/></clipPath></defs></svg>