<svg xmlns="http://www.w3.org/2000/svg" fill="none" viewBox="0 0 16 16"><g fill="currentColor" clip-path="url(#discount--16-a)"><path fill-rule="evenodd" d="M10.6377 5.3636a.9.9 0 0 1 0 1.2728l-4 4A.9.9 0 0 1 5.365 9.3636l4-4a.9.9 0 0 1 1.2728 0Z" clip-rule="evenodd"/><path d="M9.8763 11c.6213 0 1.125-.5037 1.125-1.125s-.5037-1.125-1.125-1.125-1.125.5037-1.125 1.125S9.255 11 9.8763 11Z"/><path fill-rule="evenodd" d="M9.8763 10.3077a.4327.4327 0 1 0 0-.8653.4327.4327 0 0 0 0 .8653Zm1.125-.4327c0 .6213-.5037 1.125-1.125 1.125s-1.125-.5037-1.125-1.125.5037-1.125 1.125-1.125 1.125.5037 1.125 1.125Z" clip-rule="evenodd"/><path d="M6.1263 7.25c.6213 0 1.125-.5037 1.125-1.125S6.7476 5 6.1263 5s-1.125.5037-1.125 1.125.5037 1.125 1.125 1.125Z"/><path fill-rule="evenodd" d="M6.1263 6.5577a.4327.4327 0 1 0 0-.8654.4327.4327 0 0 0 0 .8654Zm1.125-.4327c0 .6213-.5037 1.125-1.125 1.125s-1.125-.5037-1.125-1.125S5.505 5 6.1263 5s1.125.5037 1.125 1.125Z" clip-rule="evenodd"/><path fill-rule="evenodd" d="m14.4155 4.5366-.0526-.6694c-.0946-1.188-1.0373-2.1307-2.2253-2.2253l-.6694-.0543a2.4267 2.4267 0 0 1-1.3808-.5713L9.5757.58c-.9059-.7728-2.2394-.7728-3.147 0l-.5117.4346a2.4269 2.4269 0 0 1-1.3808.5712l-.6694.0526c-1.188.0946-2.1307 1.0373-2.2254 2.2253l-.0543.6694A2.4268 2.4268 0 0 1 1.016 5.914l-.4363.5117c-.7728.9059-.7728 2.2394 0 3.147l.4345.5117c.3312.389.531.8726.5713 1.3808l.0525.6694c.0947 1.188 1.0374 2.1307 2.2254 2.2254l.6694.0543c.5081.0403.9918.24 1.3808.5712l.5134.4346c.906.7727 2.2394.7727 3.147 0l.5117-.4346a2.4268 2.4268 0 0 1 1.3808-.5712l.6694-.0526c1.188-.0946 2.1308-1.0373 2.2254-2.2254l.0543-.6693a2.4272 2.4272 0 0 1 .5712-1.3808l.4346-.5117c.7728-.906.7728-2.2394 0-3.147l-.4346-.5117a2.4172 2.4172 0 0 1-.5712-1.379Zm-.9487 2.679-.0024-.0029a4.4164 4.4164 0 0 1-1.0426-2.518l-.0525-.6687a.4256.4256 0 0 0-.3905-.3905l-.003-.0002-.6657-.054a4.4268 4.4268 0 0 1-2.5192-1.0421l-.5129-.4374a.4262.4262 0 0 0-.5529.001l-.0018.0016-.5098.433a4.4267 4.4267 0 0 1-2.5192 1.0421l-.6687.0525c-.0002 0 .0002 0 0 0a.4257.4257 0 0 0-.3905.3905l-.0002.003-.054.6657-.0002.0022a4.4268 4.4268 0 0 1-1.042 2.517l-.4373.5129a.4262.4262 0 0 0 .001.5529l.0016.0018.433.5098.0007.0008A4.4269 4.4269 0 0 1 3.579 11.307l.0525.6687c0-.0002 0 .0002 0 0a.4258.4258 0 0 0 .3905.3905l.003.0002.6657.054.0022.0002a4.427 4.427 0 0 1 2.5144 1.0398l.0026.0022.509.4308.0058.005a.4259.4259 0 0 0 .5527-.0013l.0018-.0015.5099-.433c-.0003.0002.0002-.0002 0 0a4.4297 4.4297 0 0 1 2.5191-1.0422l.6687-.0525c-.0001 0 .0002 0 0 0a.4254.4254 0 0 0 .3905-.3905l.0002-.0029.0541-.6658.0001-.0022a4.4272 4.4272 0 0 1 1.0413-2.5161l.0007-.0008.4358-.5131a.4259.4259 0 0 0-.0013-.5527l-.0015-.0018-.4301-.5065Z" clip-rule="evenodd"/></g><defs><clipPath id="discount--16-a"><path fill="#fff" d="M0 0h16v16H0z"/></clipPath></defs></svg>