<svg width="24" height="24" fill="currentColor" viewBox="0 0 24 24" xmlns="http://www.w3.org/2000/svg">
  <path fill-rule="evenodd" d="M1.9918 2C1.4553 2 1 2.444 1 2.9918v18.0164c0 .5365.444.9918.9918.9918H14v-2H3v-4h12.2561a4.51 4.51 0 0 1 1.4152-2H3v-4h18v3.2561a4.51 4.51 0 0 1 2 1.4152V2.9918C23 2.4553 22.556 2 22.0082 2zM21 8H3V4h18zM4 6c0 .5523.4477 1 1 1s1-.4477 1-1-.4477-1-1-1-1 .4477-1 1m12 1c-.5523 0-1-.4477-1-1s.4477-1 1-1 1 .4477 1 1-.4477 1-1 1m2-1c0 .5523.4477 1 1 1s1-.4477 1-1-.4477-1-1-1-1 .4477-1 1M5 13c-.5523 0-1-.4477-1-1s.4477-1 1-1 1 .4477 1 1-.4477 1-1 1m7-1c0 .5523.4477 1 1 1s1-.4477 1-1-.4477-1-1-1-1 .4477-1 1m3 0c0 .5523.4477 1 1 1s1-.4477 1-1-.4477-1-1-1-1 .4477-1 1m4 1c-.5523 0-1-.4477-1-1s.4477-1 1-1 1 .4477 1 1-.4477 1-1 1M4 18c0 .5523.4477 1 1 1s1-.4477 1-1-.4477-1-1-1-1 .4477-1 1m13-.5c0-1.3807 1.1193-2.5 2.5-2.5s2.5 1.1193 2.5 2.5v1c.5523 0 1 .4477 1 1v3c0 .5523-.4477 1-1 1h-5c-.5523 0-1-.4477-1-1v-3c0-.5523.4477-1 1-1zm3.5 0c0-.5523-.4477-1-1-1s-1 .4477-1 1v1h2z"/>
</svg>
