<svg width="16" height="16" fill="currentColor" viewBox="0 0 16 16" xmlns="http://www.w3.org/2000/svg">
  <path fill-rule="evenodd" d="M15 7.5351V2c0-.5523-.4477-1-1-1H2c-.5523 0-1 .4477-1 1v9c0 .5523.4477 1 1 1h5v1H6c-.5523 0-1 .4477-1 1s.4477 1 1 1h2v-3c0-.7707.436-1.4396 1.0747-1.7736q.0225-.1143.0513-.2264H3V9h6.5351C10.6274 7.1119 13.1233 6.4495 15 7.5351M3 3h10v4H3zm8 8c0-1.1046.8954-2 2-2s2 .8954 2 2v1c.5523 0 1 .4477 1 1v2c0 .5523-.4477 1-1 1h-4c-.5523 0-1-.4477-1-1v-2c0-.5523.4477-1 1-1zm2.75 0a.75.75 0 0 0-1.5 0v1h1.5z"/>
</svg>
