<svg width="24" height="24" fill="currentColor" viewBox="0 0 24 24" xmlns="http://www.w3.org/2000/svg">
  <path fill-rule="evenodd" d="M2 2.9918C2 2.444 2.4553 2 2.9918 2h18.0164c.5478 0 .9918.4553.9918.9918v18.0164c0 .5478-.4553.9918-.9918.9918H2.9918C2.444 22 2 21.5447 2 21.0082zM20 10h-9v10h9zM4 10v10h5V10zm16-6H4v4h16zM5 6c0-.5523.4427-1 .999-1h1.002A.997.997 0 0 1 8 6c0 .5523-.4427 1-.999 1H5.999A.997.997 0 0 1 5 6m0 6c0-.5523.4427-1 .999-1h1.002A.997.997 0 0 1 8 12c0 .5523-.4427 1-.999 1H5.999A.997.997 0 0 1 5 12m0 3c0-.5523.4427-1 .999-1h1.002A.997.997 0 0 1 8 15c0 .5523-.4427 1-.999 1H5.999A.997.997 0 0 1 5 15m.999 2A.9965.9965 0 0 0 5 18c0 .5561.4473 1 .999 1h1.002A.9965.9965 0 0 0 8 18a.997.997 0 0 0-.999-1zm12.9256.0619c.1458.1949.0738.451-.1607.572-.7481.3863-1.3452.2001-1.8014-.3144-.322.7123-.9125.7623-1.426.2045-.338.3377-.6597.5-1.0235.4731-.3363-.0248-.6159-.2051-.8793-.5698q-.4001.2991-.8961.5216c-.2431.109-.5464.0336-.6775-.1682-.1312-.2019-.0405-.4539.2025-.5628.3577-.1604.6678-.3587.9306-.5964-.1524-.3449-.3071-.76-.4724-1.2512-.3058-.9087.132-1.8505.9112-2.2195 1.021-.4834 1.7779.2438 1.5935 1.4876-.1231.8309-.4187 1.5374-.8852 2.1127q.0245.0443.0486.085c.0802.1351.1533.2339.2151.2964l.015-.0119.0366-.0294c.1382-.1133.3087-.3037.5039-.5681.2144-.2903.7351-.2547.8894.0608q.038.0774.0739.1448l.0039-.0177c.0428-.193.0853-.33.1388-.4331.109-.21.2926-.3618.615-.3299.2297.0227.3475.117.4667.2684.0379.0481.1341.1984.2096.3164l.0001.0001c.0427.0667.0787.123.0938.1446.2292.3276.3394.3779.5853.2509.2346-.1211.5428-.0613.6886.1335m-4.6915-2.525c.0566-.3818.0139-.6161-.0565-.6959l-.0044-.0051-.0029-.0025s.0049.0049.0073.0076c.0005.0048-.0088.0123-.0494.0316-.3728.1765-.628.7254-.4434 1.274q.1018.3023.1978.5603c.1697-.3436.2867-.7331.3515-1.17"/>
</svg>
