<svg width="16" height="16" fill="currentColor" viewBox="0 0 16 16" xmlns="http://www.w3.org/2000/svg">
  <path fill-rule="evenodd" d="M1 0h14c.5523 0 1 .4477 1 1v14c0 .5523-.4477 1-1 1H1c-.5523 0-1-.4477-1-1V1c0-.5523.4477-1 1-1m1 2v3h12V2zm6 12h6V7H8zM6 7H2v7h4zM4.5 3h-1a.5.5 0 0 0 0 1h1a.5.5 0 0 0 0-1m.5 7.5a.5.5 0 0 0-.5-.5h-1a.5.5 0 0 0 0 1h1a.5.5 0 0 0 .5-.5M3.5 12h1a.5.5 0 0 1 0 1h-1a.5.5 0 0 1 0-1m0-4h1a.5.5 0 0 1 0 1h-1a.5.5 0 0 1 0-1m9.4569 4.4372c.0833.1169.0422.2705-.0918.3432-.4275.2317-.7687.12-1.0294-.1887-.184.4274-.5214.4574-.8148.1227-.1932.2026-.377.3-.5849.2839-.1922-.0149-.352-.1231-.5024-.3419a2.67 2.67 0 0 1-.5121.313c-.1389.0653-.3122.0201-.3872-.101s-.023-.2723.1158-.3377q.3066-.1441.5317-.3578c-.087-.207-.1755-.456-.27-.7507-.1747-.5452.0755-1.1103.5208-1.3317.5834-.29 1.0159.1463.9106.8925-.0704.4986-.2393.9225-.5059 1.2676a2 2 0 0 0 .0278.051c.0458.0811.0876.1404.1229.1779l.0086-.0072q.009-.0074.0209-.0176c.0789-.0679.1764-.1822.288-.3409.1224-.1741.42-.1528.5082.0365q.0216.0465.0422.0869l.0022-.0106c.0245-.1158.0487-.198.0793-.2599.0623-.1259.1672-.217.3514-.1979.1313.0136.1986.0702.2667.161.0217.0289.0766.119.1198.1898v.0001c.0244.04.0451.0738.0537.0868.1309.1966.1939.2267.3344.1505.1341-.0726.3102-.0367.3935.0802m-2.6809-1.5151c.0324-.229.008-.3696-.0322-.4175l-.0025-.0031-.0017-.0014.0042.0045c.0003.0029-.0051.0074-.0283.0189-.213.1059-.3588.4353-.2533.7645q.0582.1813.113.3361c.0969-.2061.1638-.4398.2008-.702"/>
</svg>
