<svg width="16" height="16" fill="currentColor" viewBox="0 0 16 16" xmlns="http://www.w3.org/2000/svg">
  <path fill-rule="evenodd" d="M9 0H2C.897 0 0 .897 0 2v7c0 1.103.897 2 2 2h1v2c0 1.103.897 2 2 2h3.416A4.98 4.98 0 0 1 8 13H5v-2h3.416a5.02 5.02 0 0 1 1.5835-2H5V5h8.001l-.0004 3A4.98 4.98 0 0 1 15 8.416V5c0-1.103-.897-2-2-2h-2V2c0-1.103-.897-2-2-2M3 5H2V2h7v1H5c-1.103 0-2 .897-2 2m0 4H2V7h1zm5.5-2c0 .552.448 1 1 1s1-.448 1-1-.448-1-1-1-1 .448-1 1m-2 1c-.552 0-1-.448-1-1s.448-1 1-1 1 .448 1 1-.448 1-1 1m9.5 5c0 1.6569-1.3431 3-3 3s-3-1.3431-3-3 1.3431-3 3-3 3 1.3431 3 3m-3.3536-1.8536-1 1a.5.5 0 0 0 0 .7072.5.5 0 0 0 .7072 0l.1464-.1465V14.5a.5.5 0 0 0 1 0v-1.7929l.1464.1465a.5.5 0 0 0 .7072 0 .5.5 0 0 0 0-.7072l-.9998-.9997-.0002-.0003a.5.5 0 0 0-.7072 0"/>
</svg>
