<svg width="24" height="24" fill="currentColor" viewBox="0 0 24 24" xmlns="http://www.w3.org/2000/svg">
  <path d="M9 17c0 .6442 .4683 1.377 1.3486 2.0577 .3997 .3092 .8491 .5763 1.2668 .7637 .1434 .0643 .274 .115 .3812 .1496 .1064-.035 .2362-.0862 .379-.1511 .4181-.19 .8695-.461 1.2715-.7736C14.5295 18.36 15 17.626 15 17v-4.3604l-3-.6-3 .6zM7.8039 10.8392l3.8039-.7608a2 2 0 0 1 .7844 0l3.804 .7608A1 1 0 0 1 17 11.8198V17c0 3-4 5-5 5s-5-1.9606-5-5V11.8198a1 1 0 0 1 .8039-.9806M12 2c3.7392 0 6.975 2.419 7.965 5.831C21.7969 8.7324 23 10.5665 23 12.625c0 2.2807-1.4944 4.2867-3.6676 5.0526-.5209 .1836-1.092-.0898-1.2755-.6107-.1836-.5209 .0898-1.092 .6107-1.2755C20.0584 15.3012 21 14.0373 21 12.625c0-1.3903-.8935-2.6296-2.237-3.1379a1 1 0 0 1-.623-.7218C17.5387 6.0141 14.9895 4 12 4 9.2901 4 6.9187 5.6576 6.0612 8.0629a1 1 0 0 1-.5778 .5955C3.9895 9.2425 3 10.6312 3 12.1875c0 1.5213 .9452 2.8843 2.389 3.4908 .5092 .214 .7486 .8001 .5347 1.3093s-.8001 .7485-1.3093 .5346C2.442 16.6096 1 14.5301 1 12.1875c0-2.2448 1.324-4.2448 3.3385-5.2108C5.5943 3.9993 8.603 2 12 2m0 12c.5523 0 1 .4477 1 1v2c0 .5523-.4477 1-1 1s-1-.4477-1-1v-2c0-.5523 .4477-1 1-1"/>
</svg>
