<svg xmlns="http://www.w3.org/2000/svg" fill="none" viewBox="0 0 16 16"><g fill="currentColor" clip-path="url(#e8--16-a)"><path d="M3.8135 11.6309c.118.0298.2246.0984.3037.2421-.0818.1405-.1894.2061-.3076.2325-.1454.0322-.3216.0083-.503-.0489-.171-.0539-.3335-.1328-.458-.2021.1259-.0658.29-.1405.462-.1895.1823-.0519.3583-.0706.5029-.0341ZM12.1865 11.6309c.1446-.0364.3206-.0179.503.0341.1721.0492.3369.1245.4628.1905-.124.0692-.2863.1484-.457.2021-.1809.0569-.3564.0802-.5019.0479-.1189-.0265-.2277-.0923-.3106-.2334.079-.1432.1859-.2115.3037-.2412ZM2.2451 9.958c.1894-.0091.3645.0128.497.0811.1082.0557.1969.1462.2413.3037-.1126.1183-.2329.1575-.3545.1562-.1492-.0016-.3151-.0644-.4785-.1611-.154-.0912-.2934-.2052-.3984-.3008.1375-.0354.3145-.0705.4931-.079ZM13.7549 9.958c.1787.0086.3556.0437.4931.0791-.105.0956-.2445.2097-.3984.3008-.1634.0967-.3293.1595-.4785.1611-.1216.0013-.2419-.0379-.3545-.1562.0444-.1575.1331-.248.2412-.3037.1326-.0683.3077-.0902.4971-.081ZM1.3516 7.998c.1415.01.3202.0318.4922.0801.1825.0513.3421.1277.4462.2344.085.0871.1408.2016.1328.3652-.1444.0766-.2717.075-.3867.0352-.1408-.0489-.2781-.1604-.4023-.3037-.117-.135-.213-.2873-.2822-.4112ZM14.6494 7.998c-.0693.1241-.166.2768-.2832.4122-.1242.1433-.2614.255-.4023.3037-.115.0397-.242.0407-.3868-.0362-.0078-.1637.048-.278.1329-.3652.104-.1066.2629-.1831.4453-.2344.1724-.0484.3523-.0702.4941-.08ZM1.9873 5.7324c.1111.0894.2451.211.3594.3496.121.1469.2089.3009.2334.4483.02.1203-.0001.2459-.1006.376-.1625-.0195-.266-.093-.3379-.1915-.088-.1207-.137-.2913-.1572-.4804-.0192-.1786-.0109-.3601.0029-.502ZM14.0127 5.7324c.0138.1419.0221.3234.0029.502-.0203.189-.0692.3597-.1572.4804-.0718.0986-.1755.172-.3379.1914-.1005-.13-.1206-.2556-.1006-.376.0245-.1473.1124-.3013.2334-.4482.1143-.1385.2483-.2602.3594-.3496ZM3.2607 3.7959c.0676.125.145.2877.1963.459.0546.1817.0754.3578.041.503-.028.1182-.095.2256-.2373.3065-.1418-.0808-.2082-.1885-.2363-.3066-.0344-.1451-.0135-.3212.041-.503.0514-.171.1279-.334.1953-.4589ZM12.7383 3.7959c.0675.1249.1448.2877.1963.459.0545.1817.0754.3578.041.503-.0281.1182-.0952.2256-.2373.3065-.1419-.0808-.2083-.1885-.2363-.3066-.0344-.1451-.0136-.3212.041-.503.0513-.171.1278-.334.1953-.4589ZM5.5303 2.9707c-.0407.136-.1017.3054-.1866.4629-.0903.1674-.201.3074-.329.3867-.1047.0647-.2296.0951-.3887.0528-.043-.1575-.0136-.2817.0508-.3858.0789-.1276.2189-.2374.3867-.3281.1586-.0857.3299-.1473.4668-.1885ZM10.4697 2.9707c.1369.0412.3082.1028.4668.1885.1678.0907.3078.2005.3867.3281.0644.104.0938.2283.0508.3858-.159.0423-.284.012-.3886-.0528-.1281-.0793-.2389-.2193-.3292-.3867-.0848-.1575-.1458-.327-.1865-.4629ZM8 8.5352a.4648.4648 0 1 1 0 .9296.4648.4648 0 0 1 0-.9296Z"/><path fill-rule="evenodd" d="M9.9648 7.1602v3.6796H6.0352V7.1602h3.9296ZM8 8.2148a.7853.7853 0 0 0 0 1.5704A.7854.7854 0 0 0 8.7852 9 .7854.7854 0 0 0 8 8.2148Z" clip-rule="evenodd"/><path d="M8 4.5352A1.3398 1.3398 0 0 1 9.3398 5.875v.9648H6.6602V5.875c0-.3554.1412-.696.3925-.9473A1.3395 1.3395 0 0 1 8 4.5352Z"/><path fill-rule="evenodd" d="M8 .4102c4.1918 0 7.5898 3.398 7.5898 7.5898 0 4.1918-3.398 7.5898-7.5898 7.5898C3.8082 15.5898.4102 12.1918.4102 8 .4102 3.8082 3.8082.4102 8 .4102Zm2.2793 2.1826a.161.161 0 0 0-.1426.044.1595.1595 0 0 0-.0439.1415v.002l.0039.0195a3.3334 3.3334 0 0 0 .0605.2412c.0442.1514.1142.353.2178.545.1025.19.2453.3854.4414.5068.1817.1124.3991.154.6455.0869 1.0615.9028 1.7372 2.3502 1.7373 3.8574v.002a4.8411 4.8411 0 0 1-.9609 2.9277 4.8476 4.8476 0 0 1-.4444.5127.7836.7836 0 0 0-.082.082 4.8399 4.8399 0 0 1-2.0059 1.1602c-.079.0226-.1626.0446-.249.0683-.3796.1042-.8179.2254-1.2119.4092a3.3326 3.3326 0 0 0-.2451.127 3.2943 3.2943 0 0 0-.2451-.127c-.394-.1838-.8323-.305-1.212-.4092-.0862-.0236-.1699-.0457-.249-.0683a4.8397 4.8397 0 0 1-2.0068-1.1602.7829.7829 0 0 0-.082-.082 4.8394 4.8394 0 0 1-.4434-.5127 4.8405 4.8405 0 0 1-.96-2.9277v-.002c.0002-1.5069.6743-2.9546 1.7354-3.8574.2468.0675.4645.0257.6465-.087.196-.1213.3388-.3167.4414-.5068.1036-.192.1736-.3935.2178-.5449a3.2778 3.2778 0 0 0 .0605-.2412l.004-.0195v-.002a.1598.1598 0 0 0-.044-.1416.161.161 0 0 0-.1426-.044h-.002l-.0039.001c-.0035.0008-.0091.0016-.0156.003a2.341 2.341 0 0 0-.0537.0117 3.3954 3.3954 0 0 0-.1875.0498c-.1518.0446-.3544.1157-.5469.2197-.1901.1029-.3858.2458-.5068.4414-.1099.178-.1517.3899-.0889.629-.175.15-.3405.3127-.4941.4882a1.755 1.755 0 0 0-.0576-.2734c-.0626-.2085-.1557-.4-.2315-.5381a3.3108 3.3108 0 0 0-.0976-.167c-.0125-.0197-.0231-.035-.0303-.0459-.0035-.0052-.0058-.0097-.0078-.0127l-.003-.0039-.001-.002-.0253-.0283a.1609.1609 0 0 0-.1065-.04.1596.1596 0 0 0-.1054.04l-.0254.0283-.001.002-.003.004c-.002.003-.0052.0073-.0087.0126a3.334 3.334 0 0 0-.127.2129c-.0757.138-.1688.3296-.2314.538-.0619.2063-.0988.4446-.046.668.0534.2252.1957.4196.4552.544a5.5572 5.5572 0 0 0-.3672.8213 1.6333 1.6333 0 0 0-.207-.3174c-.1389-.1684-.2992-.31-.4229-.4082a3.3967 3.3967 0 0 0-.1543-.1162c-.0192-.0134-.035-.024-.0459-.0313-.0053-.0035-.0097-.0068-.0127-.0088l-.0058-.0029-.0352-.0166a.1608.1608 0 0 0-.1133.004.1603.1603 0 0 0-.082.078l-.0117.0362-.001.002-.004.0195c-.0024.0129-.005.0314-.0087.0547a3.2683 3.2683 0 0 0-.0254.1914c-.0163.157-.0282.3708-.0049.5879.023.2145.0815.449.2168.6347.141.1935.3573.3205.6602.3272a5.4558 5.4558 0 0 0-.0615.8066v.0156c-.1563-.1423-.3594-.2284-.5508-.2822-.2098-.0589-.422-.0838-.5791-.0937a3.1625 3.1625 0 0 0-.1924-.0059H1.084l-.001.001a.1622.1622 0 0 0-.1299.0742.16.16 0 0 0-.0117.1475l.001.002.001.0038c.0014.0033.0042.0078.0068.0137a2.533 2.533 0 0 0 .0234.0508 3.278 3.278 0 0 0 .088.1709c.076.1379.1883.3198.331.4843.141.1626.3223.3215.539.3965.1961.0679.4098.0618.628-.0498.0434.2473.1048.4908.1836.7285-.1675-.0534-.3481-.0646-.5137-.0566-.2173.0105-.4259.0545-.5781.0947a3.3195 3.3195 0 0 0-.1856.0547c-.0221.0073-.0394.0142-.0517.0186-.006.0021-.0113.0036-.0147.0048l-.0039.002h-.002a.1604.1604 0 0 0-.0635.2559l.001.0009.003.0039c.0024.0027.0063.006.0107.0108.0089.0096.0218.024.0381.041a3.253 3.253 0 0 0 .1377.1348c.1159.1067.2804.2426.4678.3535.1852.1096.4073.2035.6367.206.1873.0021.3694-.058.5293-.1982.1052.1853.2221.3649.3506.5371a4.993 4.993 0 0 0 .1064.1367 1.6123 1.6123 0 0 0-.3886.0625c-.2095.0597-.403.1498-.542.2237a3.253 3.253 0 0 0-.167.0947 2.1873 2.1873 0 0 0-.0606.0381l-.0029.0019-.001.001a.1614.1614 0 0 0-.0713.1309.1606.1606 0 0 0 .0674.1328l.001.0009.0039.003.0127.0088a3.2436 3.2436 0 0 0 .212.1298c.1373.0777.3281.1739.536.2393.2056.0647.444.1054.668.0557.1958-.0436.3687-.1556.4942-.3526a5.1626 5.1626 0 0 0 1.833.9639c.0856.0245.1741.0486.2636.0732.3784.1041.7837.2156 1.1504.3868.0262.0122.0516.0253.0772.038-.2571.2003-.4708.4564-.5967.792a.1594.1594 0 0 0 .0928.2051.16.16 0 0 0 .206-.0928c.1164-.3104.3298-.544.6006-.7285.2708.1845.4841.4181.6006.7285a.16.16 0 0 0 .206.0928.1593.1593 0 0 0 .0928-.2051c-.126-.3359-.3402-.5917-.5976-.792.0257-.0128.0517-.0257.078-.038.3668-.1712.772-.2827 1.1505-.3868.0895-.0246.179-.0497.2646-.0742a5.1595 5.1595 0 0 0 1.8321-.9629c.1264.1973.3008.3089.497.3526.224.0497.4617.0089.667-.0557.2077-.0653.3981-.1607.5352-.2383a3.276 3.276 0 0 0 .2109-.1299l.0127-.0087.0039-.003.002-.001a.1607.1607 0 0 0 .0664-.1328.1594.1594 0 0 0-.0703-.1298l-.002-.001-.0029-.003c-.003-.0019-.0074-.0044-.0127-.0078-.011-.0071-.0269-.018-.0469-.0302a3.2821 3.2821 0 0 0-.168-.0948c-.1391-.0739-.3325-.1648-.542-.2246a1.6145 1.6145 0 0 0-.3896-.0625c.0362-.0452.0727-.0902.1074-.1367a5.164 5.164 0 0 0 .3496-.5371c.1601.1406.3428.2003.5303.1982.2294-.0025.4515-.0964.6367-.206.1874-.1109.3519-.2468.4678-.3535a3.3024 3.3024 0 0 0 .1377-.1348c.0163-.017.0292-.0314.0381-.041.0044-.0048.0083-.0081.0107-.0108l.0029-.0039.001-.0009a.1604.1604 0 0 0-.0635-.2559h-.0019l-.0039-.002c-.0034-.0012-.0086-.0027-.0147-.0048-.0123-.0044-.0296-.0113-.0517-.0186a3.2609 3.2609 0 0 0-.1846-.0547c-.1523-.0403-.3615-.0842-.5791-.0947-.1659-.008-.3469.003-.5146.0566a5.167 5.167 0 0 0 .1836-.7285c.2185.1122.4325.1177.6289.0498.217-.075.399-.2336.54-.3965.1425-.1646.2542-.3464.3301-.4843a3.373 3.373 0 0 0 .0879-.171c.0101-.0212.018-.0387.0234-.0507l.0059-.0137.0029-.0058a.1611.1611 0 0 0-.0127-.1485.1598.1598 0 0 0-.1279-.0732l-.002-.001h-.0752a3.172 3.172 0 0 0-.1924.0059c-.1572.0099-.3694.0348-.5791.0937-.1916.0538-.3954.1396-.5517.2822 0-.0052.001-.0104.001-.0156a5.4712 5.4712 0 0 0-.0625-.8066c.3033-.0065.5199-.1335.6611-.3272.1353-.1856.1928-.4203.2158-.6347.0233-.217.0124-.431-.0039-.588a3.24 3.24 0 0 0-.0254-.1913 1.8297 1.8297 0 0 0-.0098-.0547c-.0011-.0062-.0022-.0111-.0029-.0147V5.415l-.001-.002-.0127-.036a.1592.1592 0 0 0-.1943-.082l-.0351.0165-.0059.003-.0127.0087c-.0109.0073-.0267.0178-.0459.0313a3.4098 3.4098 0 0 0-.1543.1162c-.1237.0983-.284.2397-.4229.4082-.0776.0943-.1512.2013-.208.3174a5.5538 5.5538 0 0 0-.3671-.8213c.2599-.1244.4026-.3186.456-.544.0529-.2233.016-.4617-.0459-.668-.0625-.2084-.1557-.4-.2314-.538a3.4173 3.4173 0 0 0-.0977-.167c-.0123-.0195-.0221-.035-.0293-.0459-.0035-.0053-.0067-.0097-.0088-.0127l-.0029-.0039-.001-.002-.0254-.0283a.1598.1598 0 0 0-.2119 0l-.0254.0283-.001.002-.0029.004c-.002.003-.0053.0073-.0088.0126a3.3487 3.3487 0 0 0-.1269.2129c-.0758.138-.1689.3296-.2315.538a1.7588 1.7588 0 0 0-.0586.2735 4.8634 4.8634 0 0 0-.4941-.4883c.0629-.2391.022-.451-.0879-.6289-.1211-.1958-.3175-.3385-.5078-.4414-.1924-.104-.3941-.175-.5459-.2197a3.4025 3.4025 0 0 0-.1875-.0498 2.3541 2.3541 0 0 0-.0537-.0117c-.0065-.0013-.0121-.0022-.0156-.003l-.004-.001h-.0019ZM8 4.2148A1.6601 1.6601 0 0 0 6.3398 5.875v.9648H5.875A.1603.1603 0 0 0 5.7148 7v4c.0001.0883.0719.1602.1602.1602h4.25A.1606.1606 0 0 0 10.2852 11V7a.1603.1603 0 0 0-.1602-.1602h-.4648V5.875A1.6604 1.6604 0 0 0 8 4.2148Z" clip-rule="evenodd"/><path fill-rule="evenodd" d="M8 0c4.4183 0 8 3.5817 8 8s-3.5817 8-8 8-8-3.5817-8-8 3.5817-8 8-8Zm0 .0898C3.6314.0898.0898 3.6314.0898 8S3.6315 15.9102 8 15.9102c4.3685-.0001 7.9101-3.5416 7.9102-7.9102C15.9102 3.6315 12.3685.0899 8 .0898Z" clip-rule="evenodd"/></g><defs><clipPath id="e8--16-a"><path fill="#fff" d="M0 0h16v16H0z"/></clipPath></defs></svg>