<svg xmlns="http://www.w3.org/2000/svg" fill="none" viewBox="0 0 24 24"><g fill="currentColor" clip-path="url(#e8--24-a)"><path d="M5.7202 17.4463c.177.0447.337.1477.4556.3633-.1227.2107-.2841.3091-.4614.3486-.218.0484-.4823.0124-.7544-.0732-.2565-.0809-.5004-.1993-.687-.3033.1887-.0986.435-.2107.6928-.2841.2736-.0779.5375-.106.7544-.0513ZM18.2798 17.4463c.2168-.0545.4808-.0268.7544.0513.2582.0737.5054.1867.6943.2856-.1861.1038-.4295.2227-.6855.3032-.2714.0854-.5346.1203-.753.0718-.1782-.0396-.3415-.1385-.4658-.3501.1185-.2148.2788-.3173.4556-.3618ZM3.3677 14.937c.2841-.0136.5468.0192.7456.1216.1622.0836.2952.2194.3618.4556-.1689.1775-.3493.2363-.5317.2343-.2238-.0024-.4727-.0966-.7178-.2417-.2309-.1367-.44-.3078-.5977-.4511.2064-.0532.4718-.1057.7398-.1187ZM20.6323 14.937c.268.013.5334.0655.7398.1187-.1576.1433-.3668.3144-.5977.4511-.2451.1451-.494.2393-.7178.2417-.1824.002-.3628-.0568-.5317-.2343.0666-.2362.1996-.372.3618-.4556.1989-.1024.4615-.1352.7456-.1216ZM2.0273 11.9971c.2124.0148.4803.0477.7383.1201.2738.0769.5133.1915.6695.3516.1273.1306.211.3023.1992.5478-.2166.1148-.4076.1124-.5801.0527-.2113-.0733-.4172-.2406-.6035-.4555-.1755-.2026-.3194-.431-.4234-.6167ZM21.9741 11.9971c-.1039.1861-.249.4151-.4248.6181-.1862.2151-.3922.3826-.6035.4556-.1725.0595-.363.0611-.5801-.0542-.0118-.2456.0719-.4171.1992-.5478.1561-.1599.3945-.2747.668-.3516.2587-.0727.5285-.1053.7412-.1201ZM2.981 8.5986c.1666.134.3676.3166.539.5244.1815.2203.3134.4513.3501.6724.03.1805-.0001.3689-.1509.564-.2436-.0292-.399-.1394-.5068-.2871-.132-.1812-.2054-.4371-.2358-.7207-.0288-.268-.0163-.5402.0044-.753ZM21.019 8.5986c.0207.2128.0332.485.0044.753-.0304.2836-.1038.5395-.2358.7207-.1078.1478-.2632.2579-.5068.2871-.1508-.1951-.1809-.3834-.1509-.564.0367-.221.1686-.452.3501-.6724.1714-.2078.3724-.3903.539-.5244ZM4.8911 5.6939c.1013.1873.2173.4314.2945.6884.0817.2726.113.5367.0615.7544-.0422.1774-.1427.3386-.356.46-.2127-.1213-.3124-.2828-.3545-.46-.0516-.2177-.0202-.4818.0615-.7544.0772-.2567.1918-.5012.293-.6884ZM19.1074 5.6939c.1013.1873.2173.4315.2945.6884.0818.2726.1131.5367.0615.7544-.0421.1774-.1427.3386-.356.46-.2127-.1213-.3123-.2828-.3545-.46-.0515-.2177-.0202-.4818.0616-.7544.077-.2567.1917-.5012.2929-.6884ZM8.2954 4.456c-.061.204-.1525.458-.2798.6944-.1354.2511-.3015.4612-.4936.58-.157.0971-.3444.1427-.583.0792-.0646-.2362-.0204-.4225.0761-.5786.1184-.1915.3284-.3562.5801-.4922.238-.1286.4949-.221.7002-.2828ZM15.7046 4.456c.2053.0618.4622.1542.7002.2828.2517.136.4617.3007.5801.4922.0965.156.1407.3424.0761.5786-.2385.0635-.426.018-.583-.0791-.1921-.119-.3582-.329-.4936-.5801-.1273-.2363-.2189-.4904-.2798-.6944ZM12 12.8027a.6973.6973 0 1 1 0 1.3946.6973.6973 0 0 1 0-1.3946Z"/><path fill-rule="evenodd" d="M14.9473 10.7402v5.5196H9.0527v-5.5196h5.8946ZM12 12.3223c-.6503 0-1.1777.5274-1.1777 1.1777s.5274 1.1777 1.1777 1.1777c.6502 0 1.1777-.5275 1.1777-1.1777 0-.6503-.5274-1.1777-1.1777-1.1777Z" clip-rule="evenodd"/><path d="M12 6.8027c.533 0 1.044.212 1.4209.5889.3769.377.5889.8879.5889 1.4209v1.4473H9.9902V8.8125c0-.533.212-1.044.5889-1.4209A2.0092 2.0092 0 0 1 12 6.8027Z"/><path fill-rule="evenodd" d="M12 .6152c6.2877 0 11.3848 5.097 11.3848 11.3848C23.3847 18.2877 18.2877 23.3847 12 23.3848 5.7123 23.3848.6153 18.2877.6152 12 .6152 5.7122 5.7122.6152 12 .6152Zm3.4189 3.274a.2413.2413 0 0 0-.2138.0659.2397.2397 0 0 0-.0659.2124v.003l.0058.0292a4.9546 4.9546 0 0 0 .0908.3618c.0663.227.1713.5294.3267.8174.1538.2851.368.5783.6621.7603.2726.1687.5987.2311.9683.1303 1.5922 1.3542 2.6057 3.5254 2.6059 5.7862v.0029a7.2623 7.2623 0 0 1-1.4414 4.3916c-.204.2735-.4283.5289-.6665.769a1.1814 1.1814 0 0 0-.123.1231 7.2589 7.2589 0 0 1-3.0088 1.7402c-.1187.0339-.244.067-.3736.1026-.5694.1562-1.2268.338-1.8178.6137a4.9582 4.9582 0 0 0-.3677.1905 4.978 4.978 0 0 0-.3677-.1905c-.5909-.2757-1.2483-.4575-1.8178-.6137-.1295-.0356-.255-.0687-.3736-.1026a7.2604 7.2604 0 0 1-3.0102-1.7402 1.1788 1.1788 0 0 0-.123-.1231 7.2591 7.2591 0 0 1-.6651-.769 7.2607 7.2607 0 0 1-1.44-4.3916v-.0029c.0002-2.2604 1.0114-4.432 2.603-5.7862.3702.1014.6968.0386.9698-.1303.294-.182.5083-.4752.6621-.7603.1553-.288.2604-.5903.3267-.8174a4.9265 4.9265 0 0 0 .0908-.3618l.0058-.0293v-.003a.2397.2397 0 0 0-.0659-.2123.2414.2414 0 0 0-.2139-.066h-.0029l-.0058.0015c-.0054.001-.0138.0024-.0235.0044a3.544 3.544 0 0 0-.0805.0176c-.069.016-.1667.041-.2813.0747-.2277.067-.5316.1736-.8203.3296-.2852.1543-.5788.3686-.7603.6621-.1647.2668-.2275.5847-.1333.9434a7.3024 7.3024 0 0 0-.7412.7324 2.633 2.633 0 0 0-.0864-.4102c-.0939-.3126-.2335-.6-.3472-.8071a4.9647 4.9647 0 0 0-.1464-.2505c-.0187-.0296-.0347-.0526-.0455-.0688-.0052-.008-.0087-.0146-.0117-.019l-.0044-.006-.0014-.0029-.0381-.0424a.2413.2413 0 0 0-.1597-.0601.2395.2395 0 0 0-.1582.06l-.038.0425-.0015.003-.0044.0058c-.0031.0045-.008.0111-.0132.019a5.0101 5.0101 0 0 0-.1904.3193c-.1137.2071-.2534.4945-.3472.8072-.0928.3094-.1482.6669-.0689 1.002.08.3377.2934.6293.6826.8159a8.3355 8.3355 0 0 0-.5507 1.232c-.085-.174-.1942-.335-.3106-.4761-.2082-.2527-.4487-.465-.6343-.6124a5.0858 5.0858 0 0 0-.2314-.1743c-.0287-.0201-.0525-.036-.0689-.0468-.008-.0054-.0144-.0102-.019-.0132l-.0088-.0044-.0527-.025a.2412.2412 0 0 0-.17.006.2405.2405 0 0 0-.123.1171l-.0176.0542-.0014.003-.0059.0293c-.0036.0193-.0075.0471-.0132.082a4.897 4.897 0 0 0-.038.2871c-.0245.2355-.0423.5563-.0074.8818.0345.3218.1222.6737.3252.9522.2116.2902.536.4807.9903.4907a8.186 8.186 0 0 0-.0923 1.21v.0234c-.2343-.2135-.539-.3427-.8262-.4233-.3146-.0884-.6328-.1258-.8687-.1407a4.8543 4.8543 0 0 0-.2885-.0088H1.626l-.0015.0015a.2433.2433 0 0 0-.1948.1113.2402.2402 0 0 0-.0176.2212l.0015.003.0014.0058c.0022.0049.0063.0117.0103.0205.008.0179.02.0443.0352.0762.0303.0636.0746.1525.1318.2563.114.2069.2826.4798.4966.7266.2115.2439.4834.4822.8086.5947.294.1018.6147.0927.9419-.0747a7.737 7.737 0 0 0 .2753 1.0928c-.2512-.0801-.522-.097-.7705-.085-.326.0158-.6387.0818-.8671.1421-.115.0305-.2113.06-.2784.0821-.0332.0109-.0592.0212-.0776.0278-.009.0032-.0169.0054-.022.0073l-.0058.003h-.003a.2404.2404 0 0 0-.0952.3837l.0015.0015.0044.0059c.0036.004.0095.0089.016.0161.0134.0145.0328.036.0572.0615.049.0508.1194.1218.2066.2021.1738.1602.4206.364.7016.5303.2779.1644.611.3053.9551.3091.281.003.5541-.087.794-.2974.1578.278.3331.5474.5258.8057a7.843 7.843 0 0 0 .1597.2051c-.201.0061-.4003.0417-.583.0937-.3142.0895-.6043.2247-.813.3355a4.904 4.904 0 0 0-.2505.1421 3.2935 3.2935 0 0 0-.0908.0571l-.0044.0029-.0015.0015a.242.242 0 0 0-.107.1963.241.241 0 0 0 .1012.1992l.0014.0015.0059.0044c.0044.003.0111.0078.019.0131a3.428 3.428 0 0 0 .0689.0455c.0594.0384.1453.0907.249.1494.2061.1165.4923.2607.8042.3589.3084.097.666.158 1.002.0835.2937-.0654.553-.2334.7412-.5289a7.7423 7.7423 0 0 0 2.7495 1.4458c.1285.0367.2612.073.3955.1099.5676.156 1.1754.3233 1.7256.5801.0392.0183.0774.038.1157.0571-.3857.3004-.7062.6845-.895 1.188a.239.239 0 0 0 .1391.3076.2402.2402 0 0 0 .3091-.1391c.1747-.4657.4947-.8162.9009-1.0928.4062.2766.7262.627.9009 1.0928a.2402.2402 0 0 0 .3091.1391.2388.2388 0 0 0 .1391-.3076c-.189-.504-.5104-.8875-.8965-1.188a5.0887 5.0887 0 0 1 .1172-.0571c.5501-.2568 1.158-.4241 1.7256-.5801.1343-.0369.2685-.0746.397-.1113a7.738 7.738 0 0 0 2.748-1.4444c.1897.296.4513.4633.7456.5289.336.0745.6926.0133 1.0005-.0835.3115-.0981.5972-.2411.8028-.3575a4.9139 4.9139 0 0 0 .3164-.1948 2.3065 2.3065 0 0 0 .019-.0132l.0059-.0044.0029-.0014a.241.241 0 0 0 .0996-.1993.2389.2389 0 0 0-.1055-.1948l-.0029-.0014-.0044-.0044c-.0044-.0029-.0111-.0067-.019-.0118-.0165-.0106-.0403-.0271-.0703-.0454a5.3001 5.3001 0 0 0-.252-.1421c-.2087-.1109-.4988-.2471-.813-.3369-.1831-.0522-.3829-.0876-.5845-.0937.0543-.0678.1091-.1353.1612-.2051a7.7524 7.7524 0 0 0 .5244-.8057c.24.2109.5141.3004.7954.2974.344-.0038.6772-.1447.9551-.3091.281-.1663.5278-.3701.7016-.5303a4.8748 4.8748 0 0 0 .2066-.2021c.0245-.0255.0438-.047.0571-.0615.0066-.0072.0125-.0121.0161-.0161l.0044-.0059.0015-.0015a.2407.2407 0 0 0-.0952-.3837h-.003l-.0058-.003c-.0051-.0019-.0129-.0041-.022-.0073-.0184-.0066-.0444-.0169-.0776-.0278a4.8871 4.8871 0 0 0-.2769-.0821c-.2285-.0604-.5422-.1263-.8686-.1421-.2489-.012-.5204.0045-.772.085a7.7472 7.7472 0 0 0 .2754-1.0928c.3278.1683.6487.1766.9433.0747.3256-.1125.5986-.3505.8101-.5947.2137-.2469.3812-.5196.4951-.7266a4.9763 4.9763 0 0 0 .1319-.2563 3.6328 3.6328 0 0 0 .0351-.0762l.0088-.0205.0044-.0088a.2394.2394 0 0 0-.2109-.3325l-.003-.0015h-.1128a4.8511 4.8511 0 0 0-.2885.0088c-.2358.0149-.5541.0523-.8687.1407-.2874.0806-.5932.2094-.8276.4233-.0001-.0078.0015-.0156.0014-.0234 0-.4072-.0341-.8116-.0937-1.21.4549-.0097.78-.2002.9917-.4907.203-.2785.2892-.6305.3237-.9522.0349-.3255.0186-.6463-.0058-.8818a4.991 4.991 0 0 0-.0381-.2871 2.9173 2.9173 0 0 0-.0191-.104v-.0073l-.0014-.003-.0191-.0542a.2401.2401 0 0 0-.123-.1172.239.239 0 0 0-.1685-.0058l-.0527.0249-.0088.0044c-.0046.003-.0109.0078-.0191.0132-.0163.0109-.0399.0266-.0688.0468a5.0647 5.0647 0 0 0-.2314.1743c-.1856.1474-.4261.3596-.6343.6124-.1166.1413-.2269.3019-.312.476a8.342 8.342 0 0 0-.5508-1.2319c.3899-.1866.604-.4779.6841-.816.0793-.335.0239-.6926-.0689-1.0019-.0938-.3127-.2335-.6-.3472-.8071a5.0679 5.0679 0 0 0-.1464-.2505c-.0185-.0292-.0332-.0526-.044-.0688-.0052-.008-.0101-.0146-.0132-.019l-.0044-.006-.0014-.0029-.0381-.0424a.2414.2414 0 0 0-.1597-.0601.2397.2397 0 0 0-.1582.06l-.0381.0425-.0014.003-.0044.0058c-.0031.0045-.008.0111-.0132.019a4.989 4.989 0 0 0-.1904.3193c-.1137.2071-.2534.4945-.3472.8072a2.6211 2.6211 0 0 0-.0879.4102 7.3044 7.3044 0 0 0-.7412-.7324c.0944-.3588.033-.6765-.1318-.9434-.1816-.2938-.4763-.5078-.7618-.6621-.2886-.156-.5912-.2627-.8188-.3296a5.0844 5.0844 0 0 0-.2813-.0747 3.5062 3.5062 0 0 0-.0805-.0176c-.0097-.002-.0181-.0033-.0235-.0044l-.0058-.0014h-.003ZM12 6.3222a2.49 2.49 0 0 0-1.7607.7296 2.49 2.49 0 0 0-.7295 1.7607v1.4473h-.6973a.2403.2403 0 0 0-.2402.2402v6c0 .1325.1077.2402.2402.2402h6.375a.2404.2404 0 0 0 .2402-.2402v-6a.2404.2404 0 0 0-.2402-.2402h-.6973V8.8125A2.4904 2.4904 0 0 0 12 6.3223Z" clip-rule="evenodd"/><path fill-rule="evenodd" d="M12 0c6.6274 0 12 5.3726 12 12s-5.3726 12-12 12S0 18.6274 0 12 5.3726 0 12 0Zm0 .1348C5.4472.1348.1348 5.4472.1348 12c0 6.5529 5.3124 11.8652 11.8652 11.8652 6.5528 0 11.8652-5.3124 11.8652-11.8652C23.8652 5.4472 18.5528.1348 12 .1348Z" clip-rule="evenodd"/></g><defs><clipPath id="e8--24-a"><path fill="#fff" d="M0 0h24v24H0z"/></clipPath></defs></svg>