<svg width="24" height="24" fill="currentColor" viewBox="0 0 24 24" xmlns="http://www.w3.org/2000/svg">
  <path d="M11 20.3005v-7.8327L4 8.8062v7.6054zM13.0002 22a.996.996 0 0 1-.126.4856c-.2683.4828-.877.6568-1.3598.3886l-9-5A1 1 0 0 1 2 17V7a1 1 0 0 1 .5144-.8742l9-5a1 1 0 0 1 .9712 0l9 5A1 1 0 0 1 22 7v6c0 .5523-.4477 1-1 1s-1-.4477-1-1V8.8084l-6.9958 3.6594V22zm6.0157-14.9583L12 3.144 4.9862 7.0405l7.0159 3.6834zM19.5858 19H15c-.5523 0-1-.4477-1-1s.4477-1 1-1h4.5858l-1.293-1.2929c-.3904-.3905-.3904-1.0237 0-1.4142.3906-.3905 1.0238-.3905 1.4143 0l3 3c.3905.3905.3905 1.0237 0 1.4142l-3 3c-.3905.3905-1.0237.3905-1.4142 0s-.3905-1.0237 0-1.4142z"/>
</svg>
