<svg xmlns="http://www.w3.org/2000/svg" fill="none" viewBox="0 0 24 24"><path fill="currentColor" d="M6.1056 3.5528A1 1 0 0 1 7 3h10a1 1 0 0 1 .8944.5528l3.9472 7.8944c.1042.2083.1584.438.1584.6708V19c0 1.1046-.8954 2-2 2H4c-1.1046 0-2-.8954-2-2v-6.882c0-.2328.0542-.4625.1584-.6708l3.9472-7.8944ZM4.618 11H8a1 1 0 0 1 .8944.5528L9.618 13h4.764l.7236-1.4472A1 1 0 0 1 16 11h3.382l-3-6H7.618l-3 6ZM20 13h-3.382l-.7236 1.4472A1 1 0 0 1 15 15H9a1 1 0 0 1-.8944-.5528L7.382 13H4v6h16v-6Zm-10 3h4c.5523 0 1 .4477 1 1s-.4477 1-1 1h-4c-.5523 0-1-.4477-1-1s.4477-1 1-1Z"/></svg>