<svg width="32" height="32" fill="currentColor" viewBox="0 0 32 32" xmlns="http://www.w3.org/2000/svg">
  <path d="M7 13c0-4.9706 4.0294-9 9-9s9 4.0294 9 9c0 3.466-1.9777 6.5648-5 8.0645V25h-8v-3.9355C8.9777 19.5648 7 16.466 7 13m11 6.7445.6248-.253C21.2474 18.43 23 15.8778 23 13c0-3.866-3.134-7-7-7s-7 3.134-7 7c0 2.8778 1.7526 5.43 4.3752 6.4915l.6248.253V23h4zM12 27h8v2h-8zM5.0448 14H1v-2h4.0448A11.1 11.1 0 0 0 5 13c0 .337.0152.6706.0448 1m.966-5.6125L2.5097 6.366l1-1.732 3.5028 2.0223A11 11 0 0 0 6.011 8.3875m18.9768-1.7312 3.5028-2.0223 1 1.732-3.5013 2.0215a11 11 0 0 0-1.0015-1.7312M26.9552 12H31v2h-4.0448A11.1 11.1 0 0 0 27 13a11.1 11.1 0 0 0-.0448-1m-.966 5.6125 3.5012 2.0215-1 1.732-3.5028-2.0223a11 11 0 0 0 1.0015-1.7312M7.0123 19.3437 3.5096 21.366l-1-1.732 3.5013-2.0215a11 11 0 0 0 1.0015 1.7312"/>
</svg>
