<svg xmlns="http://www.w3.org/2000/svg" fill="none" viewBox="0 0 24 24"><g clip-path="url(#esign-notarizations-o--24-a)"><path fill="currentColor" d="M17 20v-1c0-.5523.4477-1 1-1s1 .4477 1 1v2c0 .5523-.4477 1-1 1H2c-.5523 0-1-.4477-1-1V2c0-.5523.4477-1 1-1h16c.5523 0 1 .4477 1 1v2c0 .5523-.4477 1-1 1s-1-.4477-1-1V3H3v17h14ZM5 5h2c.5523 0 1 .4477 1 1s-.4477 1-1 1H5c-.5523 0-1-.4477-1-1s.4477-1 1-1Zm0 4h4c.5523 0 1 .4477 1 1s-.4477 1-1 1H5c-.5523 0-1-.4477-1-1s.4477-1 1-1Zm0 3h4c.5523 0 1 .4477 1 1s-.4477 1-1 1H5c-.5523 0-1-.4477-1-1s.4477-1 1-1Zm0 4h1c.5523 0 1 .4477 1 1s-.4477 1-1 1H5c-.5523 0-1-.4477-1-1s.4477-1 1-1Zm18.8493-1.2514c.2916.4676.1476 1.0823-.3215 1.3729-1.4962.9269-2.6904.48-3.6028-.7547-.644 1.7095-1.825 1.8296-2.852.4907-.6761.8107-1.3194 1.2001-2.0472 1.1356-.6725-.0595-1.2318-.4923-1.7584-1.3676-.5335.4783-1.1311.8961-1.7925 1.2519-.486.2615-1.0926.0807-1.3549-.4038s-.081-1.0892.4051-1.3507c.7154-.3849 1.3356-.8608 1.8611-1.4313-.3048-.8279-.6142-1.8241-.9448-3.003-.6116-2.1806.264-4.4411 1.8225-5.3266 2.0421-1.1602 3.5559.585 3.1871 3.5702-.2463 1.994-.8375 3.6897-1.7706 5.0704.0328.0709.0653.1389.0974.2039.1603.3243.3066.5615.4301.7116.0261-.0252.0609-.0576.1033-.0993.2763-.2718.6174-.7289 1.0078-1.3634.4288-.6967 1.4701-.6113 1.7788.1458.0505.1239.0998.2398.1477.3477l.008-.0425c.0856-.4631.1705-.7919.2775-1.0394.218-.504.5852-.8683 1.23-.7919.4594.0545.695.2809.9335.6443.1185.1805.5233.9629.6071 1.1066.4583.7862.6787.9069 1.1706.6021.469-.2906 1.0856-.1471 1.3771.3205ZM14.466 8.6885c.117-.9473.0218-1.5162-.1275-1.6883.0156.018.0458.02-.0843.094-.7455.4235-1.2559 1.7411-.8867 3.0576.1358.4839.2676.9318.3956 1.3447.3393-.8246.5733-1.7593.7029-2.808Z"/></g><defs><clipPath id="esign-notarizations-o--24-a"><path fill="#fff" d="M0 0h24v24H0z"/></clipPath></defs></svg>