<svg xmlns="http://www.w3.org/2000/svg" fill="none" viewBox="0 0 16 16"><path fill="currentColor" d="M14.8494 11.7486c.2915.4676.1475 1.0823-.3215 1.3729-1.4963.9269-2.6905.48-3.6029-.7547-.644 1.7095-1.825 1.8296-2.852.4907-.676.8107-1.3194 1.2001-2.0472 1.1356-.6725-.0595-1.2318-.4923-1.7584-1.3676-.5335.4783-1.131.8961-1.7925 1.2519-.486.2615-1.0926.0807-1.355-.4038-.2622-.4845-.0808-1.0892.4052-1.3507.7154-.3849 1.3356-.8608 1.8611-1.4313-.3048-.8279-.6141-1.8241-.9448-3.003-.6116-2.1806.264-4.4411 1.8225-5.3266 2.0421-1.1602 3.5559.585 3.1871 3.5702-.2463 1.994-.8374 3.6897-1.7706 5.0704.0328.0709.0653.1389.0974.2039.1603.3243.3066.5615.4302.7116.026-.0252.0608-.0576.1032-.0993.2763-.2718.6174-.7289 1.0078-1.3634.4288-.6967 1.4701-.6113 1.7789.1458.0505.1239.0998.2398.1477.3477l.008-.0425c.0855-.4631.1704-.7919.2774-1.0394.218-.504.5852-.8683 1.23-.7919.4595.0545.695.2809.9335.6442.1185.1806.5233.963.6071 1.1067.4583.7862.6787.9069 1.1706.6021.469-.2906 1.0856-.1471 1.3772.3205ZM5.466 5.6885c.117-.9473.0218-1.5162-.1275-1.6883.0156.018.0458.02-.0843.094-.7455.4235-1.2559 1.7411-.8866 3.0576.1357.4839.2675.9318.3955 1.3447.3393-.8246.5733-1.7593.7029-2.808Z"/></svg>