<svg width="32" height="32" fill="currentColor" viewBox="0 0 32 32" xmlns="http://www.w3.org/2000/svg">
  <path d="M5 27h18v-2c0-.45 .45-1 1-1s1 .55 1 1v3c0 .5523-.4477 1-1 1H4c-.5523 0-1-.4477-1-1V4c0-.5523 .4477-1 1-1h20c.5523 0 1 .4477 1 1v3c0 .5523-.4477 1-1 1s-1-.4477-1-1V5H5zM8 8h3c.5523 0 1 .4477 1 1s-.4477 1-1 1H8c-.5523 0-1-.4477-1-1s.4477-1 1-1m0 14h2c.5523 0 1 .4477 1 1s-.4477 1-1 1H8c-.5523 0-1-.4477-1-1s.4477-1 1-1m0-9h6c.5523 0 1 .4477 1 1s-.4477 1-1 1H8c-.5523 0-1-.4477-1-1s.4477-1 1-1m0 4h6c.5523 0 1 .4477 1 1s-.4477 1-1 1H8c-.5523 0-1-.4477-1-1s.4477-1 1-1m22.8495 2.7486c.2916 .4676 .1476 1.0823-.3215 1.3729-1.4962 .927-2.6904 .48-3.6028-.7547-.644 1.7095-1.825 1.8296-2.852 .4907-.676 .8107-1.3194 1.2-2.0472 1.1356-.6725-.0595-1.2318-.4923-1.7585-1.3676-.5334 .4783-1.131 .8961-1.7924 1.252-.486 .2614-1.0926 .0806-1.355-.4039-.2622-.4845-.0809-1.0892 .4052-1.3507 .7154-.3849 1.3356-.8608 1.861-1.4313-.3047-.8279-.614-1.8241-.9447-3.003-.6116-2.1806 .264-4.4411 1.8225-5.3266 2.0421-1.1602 3.5559 .585 3.187 3.5702-.2463 1.994-.8374 3.6897-1.7705 5.0704q.0492 .1064 .0974 .204c.1603 .3242 .3066 .5614 .4301 .7115 .0261-.0252 .0609-.0576 .1033-.0993 .2763-.2718 .6174-.729 1.0078-1.3634 .4287-.6967 1.4701-.6113 1.7788 .1458q.0758 .1859 .1477 .3477l.008-.0425c.0856-.4631 .1705-.792 .2775-1.0394 .218-.504 .5852-.8683 1.23-.7919 .4594 .0545 .695 .2809 .9335 .6443 .1185 .1805 .5233 .9629 .607 1.1066 .4584 .7862 .6788 .9069 1.1707 .6021 .469-.2906 1.0856-.147 1.3771 .3205m-9.3833-6.0601c.117-.9473 .0218-1.5162-.1275-1.6883 .0156 .018 .0458 .02-.0843 .094-.7456 .4235-1.2559 1.7411-.8867 3.0576 .1357 .4839 .2676 .9318 .3956 1.3447 .3393-.8246 .5733-1.7593 .7029-2.808"/>
</svg>
