<svg xmlns="http://www.w3.org/2000/svg" fill="none" viewBox="0 0 16 16"><g clip-path="url(#esign-notarizations-o--16-a)"><path fill="currentColor" d="M12 14c0-.5523.4477-1 1-1s1 .4477 1 1v1c0 .5523-.4477 1-1 1H1c-.5523 0-1-.4477-1-1V1c0-.5523.4477-1 1-1h12c.5523 0 1 .4477 1 1v4c0 .5523-.4477 1-1 1s-1-.4477-1-1V2H2v12h10Zm3.8923-3.6081a.7108.7108 0 0 1-.2296.9806c-1.0687.6621-1.9217.3429-2.5735-.5391-.46 1.2211-1.3035 1.3069-2.037.3506-.4829.579-.9425.8571-1.4623.8111-.4803-.0425-.8798-.3517-1.256-.9769-.381.3417-.8079.6401-1.2803.8943-.3471.1867-.7804.0576-.9678-.2885-.1873-.346-.0578-.778.2894-.9647.511-.275.954-.6149 1.3293-1.0224-.2177-.5913-.4386-1.3029-.6748-2.145-.4368-1.5575.1885-3.1721 1.3017-3.8046 1.4587-.8286 2.5399.418 2.2765 2.5501-.176 1.4243-.5982 2.6355-1.2647 3.6216.0234.0507.0466.0993.0696.1457.1145.2316.219.4011.3072.5082.0186-.0179.0435-.041.0738-.0709.1973-.1941.4409-.5206.7198-.9738.3062-.4977 1.0501-.4367 1.2706.1042.036.0884.0713.1713.1055.2483l.0057-.0304c.0611-.3308.1217-.5656.1982-.7424.1557-.36.4179-.6202.8785-.5656.3282.039.4964.2006.6668.4602.0846.129.3738.6878.4336.7904.3274.5616.4848.6477.8361.4301.3351-.2076.7755-.1051.9837.2289ZM9.1901 6.0634c.0836-.6767.0155-1.083-.091-1.206.011.0129.0326.0144-.0603.0672-.5325.3025-.897 1.2436-.6333 2.184.0969.3456.191.6655.2825.9604.2423-.589.4095-1.2566.502-2.0057Z"/></g><defs><clipPath id="esign-notarizations-o--16-a"><path fill="#fff" d="M0 0h16v16H0z"/></clipPath></defs></svg>