<svg xmlns="http://www.w3.org/2000/svg" fill="none" viewBox="0 0 16 16"><g clip-path="url(#eth-esign-o--16-a)"><path fill="currentColor" d="M13 0c.5523 0 1 .4477 1 1v4c0 .5523-.4477 1-1 1s-1-.4477-1-1V2H2v12h5c.5523 0 1 .4477 1 1s-.4477 1-1 1H1c-.5523 0-1-.4477-1-1V1c0-.5523.4477-1 1-1h12ZM6 10c.5523 0 1 .4477 1 1s-.4477 1-1 1H4c-.5523 0-1-.4477-1-1s.4477-1 1-1h2Zm2-3c.5523 0 1 .4477 1 1s-.4477 1-1 1H4c-.5523 0-1-.4477-1-1s.4477-1 1-1h4Zm7.5 2a.5.5 0 0 1 .5.5v1a.5.5 0 0 1-.5.5H13v1h1.7a.3.3 0 0 1 .3.3v.4a.3.3 0 0 1-.3.3H13v1h2.5a.5.5 0 0 1 .5.5v1a.5.5 0 0 1-.5.5h-4a.5.5 0 0 1-.5-.5v-6a.5.5 0 0 1 .5-.5h4ZM6 4c.5523 0 1 .4477 1 1s-.4477 1-1 1H4c-.5523 0-1-.4477-1-1s.4477-1 1-1h2Z"/></g><defs><clipPath id="eth-esign-o--16-a"><path fill="#fff" d="M0 0h16v16H0z"/></clipPath></defs></svg>