<svg width="24" height="24" fill="currentColor" viewBox="0 0 24 24" xmlns="http://www.w3.org/2000/svg">
  <path fill-rule="evenodd" d="M10.1429 2c-1.6569 0-3 1.3432-3 3v.8571H5c-1.6568 0-3 1.3432-3 3V19c0 1.6569 1.3432 3 3 3h14c1.6569 0 3-1.3431 3-3V8.8571c0-1.6568-1.3431-3-3-3h-2.1429V5c0-1.6569-1.3431-3-3-3zm-1 3c0-.5523.4477-1 1-1h3.7142c.5523 0 1 .4477 1 1v.8571c0 1.1046.8955 2 2 2H19c.5523 0 1 .4478 1 1V19c0 .5523-.4477 1-1 1H5c-.5523 0-1-.4477-1-1V8.8571c0-.5522.4477-1 1-1h2.1429c1.1045 0 2-.8954 2-2zM11 17.1426c0 .5523.4477 1 1 1s1-.4477 1-1v-2c0-.5523-.4477-1-1-1s-1 .4477-1 1zm5 1c-.5523 0-1-.4477-1-1v-2c0-.5523.4477-1 1-1s1 .4477 1 1v2c0 .5523-.4477 1-1 1M7 17c0 .5523.4477 1 1 1s1-.4477 1-1v-2c0-.5523-.4477-1-1-1s-1 .4477-1 1z"/>
</svg>
