<svg width="24" height="24" fill="currentColor" viewBox="0 0 24 24" xmlns="http://www.w3.org/2000/svg">
  <path fill-rule="evenodd" d="M17.1325 1.5h5.3405A1.527 1.527 0 0 1 24 3.027v5.3406a1.527 1.527 0 0 1-.4471 1.0796L10.9472 22.0527a1.53 1.53 0 0 1-.4953.3311 1.53 1.53 0 0 1-.5844.1162H4.527a1.528 1.528 0 0 1-1.0798-.4472A1.528 1.528 0 0 1 3 20.973V20h8c1.6569 0 3-1.3431 3-3V7c0-.8284-.3358-1.5784-.8786-2.1212l2.9314-2.9315A1.527 1.527 0 0 1 17.1325 1.5m-5.9654 2.5046 1.4263-1.4263-.5109-.5672A1.745 1.745 0 0 0 10.8486 1.5H4.745A1.745 1.745 0 0 0 3 3.245V4h8q.0842 0 .1671.0046m3.2395 17.4172.5109.5672a1.745 1.745 0 0 0 1.2339.5111h6.1036A1.745 1.745 0 0 0 24 20.7551v-6.1037c0-.4628-.1838-.9066-.5111-1.2338l-.5671-.5109zM11.0001 6h-10c-.5523 0-1 .4477-1 1v10c0 .5523.4477 1 1 1h10c.5523 0 1-.4477 1-1V7c0-.5523-.4477-1-1-1M8.0909 9.374H5.1053v1.7459h2.8024v1.1189H5.1053v1.8134H8.25v1.1142h-4.5V8.25h4.341z"/>
</svg>
