<svg width="32" height="32" fill="currentColor" viewBox="0 0 32 32" xmlns="http://www.w3.org/2000/svg">
  <path d="M3 26.3 18 29V3L3 5.67zM28.61 8.21c.97 0 1.39.43 1.39 1.41q0 6.38-.01 12.75c0 1.0667-.3537 1.4712-1.355 1.5073l-.155.0027h-9v-1.89c.5657.0707.8907-.2475 1.1834-.6103L20.9 21.08a19.48 19.48 0 0 0 2.51-3.78c-.048-.096-.1088-.192-.1824-.2266L23.17 17.06l-1.78 1.74a61 61 0 0 0-1.3 1.32.55.55 0 0 1-.497.2l-.093-.02v-3.8l1.23.65c.252.135.2853.1404.4425-.0713L21.23 17l-1.54-1.54a.55.55 0 0 1-.2062-.3143L19.47 15.05v-3.24c.31.01.67-.09.89.11s.43.4.66.62a5 5 0 0 0 .59-.78c.0771-.1114.0367-.2008-.0394-.2808L21.53 11.44l-1.21-1.14c-.21-.1925-.4736-.094-.7238-.1401L19.49 10.13V8.28c.0975-.0525.2006-.0656.301-.069l.099-.001zm-4.94 6.78c-.23-.13-.41-.14-.55.22a3.5 3.5 0 0 1 .32.26l2.72 2.68c.12.11.26.21.26.39v1.82h-1.3a4.46 4.46 0 0 1-1.78-.75l-.52.68c-.14.17-.09.3.06.44.37.32.73.65 1.08 1a.76.76 0 0 0 .56.24h3c.46-.01.56-.12.56-.58h-.01c0-.9-.02-1.81-.01-2.68a1.07 1.07 0 0 0-.39-.91 22.48 22.48 0 0 0-4-2.81M13.22 9.6v2.17H9.75a1.2 1.2 0 0 0-.07.6v1.6c0 .26.1.31.32.32h2.6v2.14H9.71v2.44l3.4.28v2.3l-5.7-.65V10zm14.42.57h-3a.72.72 0 0 0-.55.25 20.52 20.52 0 0 0-3 4.19c-.1137.21-.0897.351.0454.4233l.0576.0227.6818-.6535c.4535-.4325.9013-.855 1.3472-1.2775l.668-.635a1.84 1.84 0 0 1 1.58-.65c.909 0 .9917 0 .9992.7513l.0008.2487c.0187.6907.0373 1.39-.562 1.8949l-.138.1051v.09l.69.5c.14.1137.2494.0897.3616-.0119l.0484-.0481 1.09-1.16a.6.6 0 0 0 .149-.344l.001-.096v-3.12c0-.32-.14-.48-.47-.48m-6.447 4.886-.003.004h.01z"/>
</svg>
