<svg width="16" height="16" fill="currentColor" viewBox="0 0 16 16" xmlns="http://www.w3.org/2000/svg">
  <path fill-rule="evenodd" d="M11.4216 1h3.5604A1.018 1.018 0 0 1 16 2.018v3.5604c0 .27-.1072.5288-.2981.7197l-8.4038 8.4037A1.02 1.02 0 0 1 6.5784 15H3.018a1.017 1.017 0 0 1-.7199-.2982A1.018 1.018 0 0 1 2 13.982V13h6.1667A.8333.8333 0 0 0 9 12.1667V3.8333a.83.83 0 0 0-.244-.5892l1.9459-1.9459A1.017 1.017 0 0 1 11.4216 1M9.7143 13.7142l5-5 .9876.9877c.1909.1909.2981.4498.2981.7197v3.5605A1.018 1.018 0 0 1 14.9821 15h-3.5605a1.018 1.018 0 0 1-.7197-.2981zM8.2858 2.2858 7.5716 3H2v-.982A1.018 1.018 0 0 1 3.018 1h3.5604c.27 0 .5288.1073.7197.2981zM7.3335 4H.6668A.6667.6667 0 0 0 0 4.6667v6.6666C0 11.7015.2985 12 .6667 12h6.6667A.6667.6667 0 0 0 8 11.3333V4.6667A.6667.6667 0 0 0 7.3335 4M5.7657 5.975h-2.59v1.5146h2.431v.9707h-2.431v1.5731h2.728V11H2V5h3.7657z"/>
</svg>
