<svg width="16" height="16" fill="currentColor" viewBox="0 0 16 16" xmlns="http://www.w3.org/2000/svg">
  <path d="M10 11.032c.5523 0 1 .4477 1 1V14c0 .5523-.4477 1-1 1H2c-.5523 0-1-.4477-1-1V2c0-.5523.4477-1 1-1h8c.5523 0 1 .4477 1 1v2.0278c0 .5523-.4477 1-1 1s-1-.4477-1-1V3H3v10h6v-.968c0-.5523.4477-1 1-1m2.6839-3.9289-.9336-.9335a.8334.8334 0 1 1 1.1786-1.1785l2.3573 2.3573a.8334.8334 0 0 1 0 1.1786l-2.357 2.357a.8334.8334 0 0 1-1.1786 0 .8334.8334 0 0 1 0-1.1786l.9348-.9349-5.5035.0027c-.4604.0002-.835-.3728-.8366-.8333a.8307.8307 0 0 1 .8308-.834z"/>
</svg>
