<svg width="32" height="32" fill="currentColor" viewBox="0 0 32 32" xmlns="http://www.w3.org/2000/svg">
  <path d="M18 23.1712c0-.5523.4477-1 1-1s1 .4477 1 1V28c0 .5523-.4477 1-1 1H3c-.5523 0-1-.4477-1-1V4c0-.5523.4477-1 1-1h16c.5523 0 1 .4477 1 1v5.0177c0 .5523-.4477 1-1 1s-1-.4477-1-1V5H4v22h14zM26.5858 17H11c-.5523 0-1-.4477-1-1s.4477-1 1-1h15.5858l-2.293-2.2929c-.3904-.3905-.3904-1.0237 0-1.4142.3906-.3905 1.0238-.3905 1.4143 0l4 4c.3905.3905.3905 1.0237 0 1.4142l-4 4c-.3905.3905-1.0237.3905-1.4142 0s-.3905-1.0237 0-1.4142z"/>
</svg>
