<svg xmlns="http://www.w3.org/2000/svg" fill="none" viewBox="0 0 16 16"><g clip-path="url(#expand-all--16-a)"><path fill="currentColor" fill-rule="evenodd" d="M1 5c-.5523 0-1-.4477-1-1V1A.997.997 0 0 1 .2864.2995l.013-.0131A.9968.9968 0 0 1 1 0h3c.5523 0 1 .4477 1 1s-.4477 1-1 1h-.5858l3.293 3.2929c.3904.3905.3904 1.0237 0 1.4142-.3906.3905-1.0238.3905-1.4143 0L2 3.4142V4c0 .5523-.4477 1-1 1ZM.2886 15.7028A.9968.9968 0 0 1 0 15v-3c0-.5523.4477-1 1-1s1 .4477 1 1v.5858l3.2929-3.293c.3905-.3904 1.0237-.3904 1.4142 0 .3905.3906.3905 1.0238 0 1.4143L3.4142 14H4c.5523 0 1 .4477 1 1s-.4477 1-1 1H1a.9969.9969 0 0 1-.7028-.2886l-.0086-.0086Zm15.0942.2213a.9966.9966 0 0 0 .3222-.2149l.0042-.0042A.9966.9966 0 0 0 16 15v-3c0-.5523-.4477-1-1-1s-1 .4477-1 1v.5858l-3.2929-3.293c-.3905-.3904-1.0237-.3904-1.4142 0-.3905.3906-.3905 1.0238 0 1.4143L12.5858 14H12c-.5523 0-1 .4477-1 1s.4477 1 1 1h3a.997.997 0 0 0 .3828-.0759Zm.3264-15.629A.9966.9966 0 0 1 16 1v3c0 .5523-.4477 1-1 1s-1-.4477-1-1v-.5858l-3.2929 3.293c-.3905.3904-1.0237.3904-1.4142 0-.3905-.3906-.3905-1.0238 0-1.4143L12.5858 2H12c-.5523 0-1-.4477-1-1s.4477-1 1-1h3c.2751 0 .5242.111.705.2908l.0042.0042Z" clip-rule="evenodd"/></g><defs><clipPath id="expand-all--16-a"><path fill="#fff" d="M0 0h16v16H0z"/></clipPath></defs></svg>