<svg width="24" height="24" fill="currentColor" viewBox="0 0 24 24" xmlns="http://www.w3.org/2000/svg">
  <path d="M20 14c1.6569 0 3 1.3431 3 3s-1.3431 3-3 3c-1.3062 0-2.4175-.8348-2.8293-2H2c-.5523 0-1-.4477-1-1s.4477-1 1-1h4c1.1046 0 2-.8954 2-2V10c0-2.2091 1.7909-4 4-4h7.5852l-1.2925-1.293c-.3904-.3907-.3903-1.0239 .0004-1.4143s1.0238-.3903 1.4142 .0004l2.9985 3c.3903 .3905 .3903 1.0233 0 1.4138l-2.9985 3c-.3904 .3907-1.0236 .3908-1.4142 .0004-.3907-.3904-.3908-1.0236-.0004-1.4142L19.5852 8H12c-1.1046 0-2 .8954-2 2v4a3.98 3.98 0 0 1-.5351 2h7.7058c.4118-1.1652 1.523-2 2.8293-2m0 4c.5523 0 1-.4477 1-1s-.4477-1-1-1-1 .4477-1 1 .4477 1 1 1"/>
</svg>
