<svg xmlns="http://www.w3.org/2000/svg" fill="none" viewBox="0 0 32 32"><path fill="currentColor" fill-rule="evenodd" d="M24.293 5.2931c.3905-.3905 1.0235-.3905 1.414 0l3.6465 3.6465c.5857.5858.5857 1.5354 0 2.1211l-3.6465 3.6465c-.3905.3905-1.0235.3905-1.414 0-.3906-.3905-.3906-1.0235 0-1.4141l2.2929-2.2929H16c-1.6569 0-3 1.3431-3 3v5a4.9775 4.9775 0 0 1-1 3h10.126c.444-1.7253 2.0101-3 3.874-3 2.2091 0 4 1.7908 4 4-.0001 2.2091-1.7909 4-4 4-1.8638 0-3.4299-1.2749-3.874-3H3c-.5522 0-1-.4478-1-1 0-.5523.4477-1 1-1h5c1.6568 0 2.9999-1.3432 3-3v-5c0-2.7615 2.2386-5 5-5h10.5859l-2.2929-2.293a.9997.9997 0 0 1 0-1.414ZM26 21.0002c-1.1046 0-2 .8954-2 2 .0001 1.1045.8955 2 2 2s1.9999-.8955 2-2c0-1.1046-.8954-2-2-2Z" clip-rule="evenodd"/></svg>