<svg width="24" height="24" fill="currentColor" viewBox="0 0 24 24" xmlns="http://www.w3.org/2000/svg">
  <path d="M20 13c0-4.276-3.3546-7.7683-7.5756-7.989l.2814 .282c.3904 .3907 .3902 1.0239-.0004 1.4143s-1.0238 .3903-1.4142-.0004l-1.9985-2c-.3904-.3906-.3903-1.0237 .0003-1.4141L11.2915 1.2953c.3906-.3905 1.0237-.3904 1.4142 .0002s.3904 1.0238-.0002 1.4142l-.2989 .2984C17.741 3.2215 22 7.6134 22 13c0 5.5228-4.4772 10-10 10S2 18.5228 2 13c0-2.9304 1.269-5.6575 3.4361-7.5444 .4166-.3627 1.0482-.319 1.4109 .0975s.319 1.0482-.0975 1.4108C5.014 8.475 4 10.6542 4 13c0 4.4183 3.5817 8 8 8s8-3.5817 8-8m-8 2c-1.1046 0-2-.8954-2-2s.8954-2 2-2 2 .8954 2 2-.8954 2-2 2"/>
</svg>
