<svg width="16" height="16" fill="currentColor" viewBox="0 0 16 16" xmlns="http://www.w3.org/2000/svg">
  <path d="m10.7698 12.5779-.3187-.082c-.3226-.083-.5157-.4072-.4313-.7242a.6.6 0 0 1 .063-.1493l.1663-.2793a.772.772 0 0 0 0-.792l-.1663-.2794c-.1684-.2828-.0716-.6462.2163-.8116a.6.6 0 0 1 .152-.0619l.3187-.082c.279-.0717.497-.2858.5701-.56l.0834-.313c.0845-.317.4146-.5067.7372-.4237a.6.6 0 0 1 .152.0618l.2843.1634a.811.811 0 0 0 .8064 0l.2843-.1634c.2879-.1654.6578-.0703.8262.2125a.6.6 0 0 1 .063.1494l.0834.313c.073.2742.291.4883.5701.56l.3187.082c.3226.083.5157.4073.4313.7242a.6.6 0 0 1-.063.1493l-.1663.2793a.772.772 0 0 0 0 .7921l.1663.2793c.1684.2828.0716.6462-.2163.8117a.6.6 0 0 1-.152.0618l-.3187.082a.795.795 0 0 0-.516.416v2.5843c0 .347-.4031.545-.6856.3368l-.6963-.6194a.5.5 0 0 0-.6646 0l-.6963.6194c-.2825.2082-.6857.0102-.6857-.3368V12.994a.795.795 0 0 0-.516-.416M13 12c.5523 0 1-.4477 1-1s-.4477-1-1-1-1 .4477-1 1 .4477 1 1 1m-6 2c.5523 0 1 .4477 1 1s-.4477 1-1 1H1c-.5523 0-1-.4477-1-1V1c0-.5523.4477-1 1-1h12c.5523 0 1 .4477 1 1v4c0 .5523-.4477 1-1 1s-1-.4477-1-1V2H2v12zM4 4h2c.5523 0 1 .4477 1 1s-.4477 1-1 1H4c-.5523 0-1-.4477-1-1s.4477-1 1-1m0 3h4c.5523 0 1 .4477 1 1s-.4477 1-1 1H4c-.5523 0-1-.4477-1-1s.4477-1 1-1m0 3h2c.5523 0 1 .4477 1 1s-.4477 1-1 1H4c-.5523 0-1-.4477-1-1s.4477-1 1-1"/>
</svg>
