<svg xmlns="http://www.w3.org/2000/svg" fill="none" viewBox="0 0 24 24"><path fill="currentColor" d="M14 15.7433c-.5883-.4152-1.6016-.5777-1.8862-1.2446-.316-.7407.4445-1.6592.4346-2.4493-.0099-.7901-.7704-1.7382-.484-2.4493.2865-.711 1.5111-.8888 2.0444-1.4222.5333-.5333.6518-1.748 1.3925-2.064.7407-.3161 1.6592.4444 2.4493.4345.7901-.0099 1.7382-.7704 2.4493-.484.7111.2865.8889 1.511 1.4222 2.0444.5333.5333 1.748.6518 2.0641 1.3925.316.7407-.4346 1.6889-.4346 2.4493.0099.7407.7704 1.7382.484 2.4493-.2684.6662-1.3603.8643-1.9356 1.3252v5.872c0 .7916-.8761 1.2693-1.5416.8406L18 20.8538l-2.4584 1.5839c-.6655.4287-1.5416-.049-1.5416-.8406v-5.8538Zm2 2.2558v1.7641l1.4584-.9396a1 1 0 0 1 1.0832 0L20 19.7632v-1.8041c-.6305-.0479-1.3302-.5152-1.9506-.5075-.6495.0081-1.4058.5235-2.0494.5475ZM18 16c2.2091 0 4-1.7909 4-4 0-2.2091-1.7909-4-4-4-2.2091 0-4 1.7909-4 4 0 2.2091 1.7909 4 4 4Zm0-2c-1.1046 0-2-.8954-2-2s.8954-2 2-2 2 .8954 2 2-.8954 2-2 2ZM3 20h8c.5523 0 1 .4477 1 1s-.4477 1-1 1H2c-.5523 0-1-.4477-1-1V2c0-.5523.4477-1 1-1h16c.5523 0 1 .4477 1 1v2c0 .5523-.4477 1-1 1s-1-.4477-1-1V3H3v17ZM5 5h2c.5523 0 1 .4477 1 1s-.4477 1-1 1H5c-.5523 0-1-.4477-1-1s.4477-1 1-1Zm0 4h4c.5523 0 1 .4477 1 1s-.4477 1-1 1H5c-.5523 0-1-.4477-1-1s.4477-1 1-1Zm0 3h4c.5523 0 1 .4477 1 1s-.4477 1-1 1H5c-.5523 0-1-.4477-1-1s.4477-1 1-1Zm0 4h1c.5523 0 1 .4477 1 1s-.4477 1-1 1H5c-.5523 0-1-.4477-1-1s.4477-1 1-1Z"/></svg>