<svg width="32" height="32" fill="currentColor" viewBox="0 0 32 32" xmlns="http://www.w3.org/2000/svg">
  <path d="M20 22.8617a1.863 1.863 0 0 0-1.204-.9882l-.7434-.1946c-.7529-.1971-1.2034-.9673-1.0063-1.7201a1.4 1.4 0 0 1 .1469-.3547l.388-.6634a1.863 1.863 0 0 0 0-1.8814l-.388-.6634c-.393-.6717-.167-1.5349 .5047-1.9279a1.4 1.4 0 0 1 .3547-.1469l.7435-.1946a1.863 1.863 0 0 0 1.3304-1.3304l.1946-.7435c.1971-.7529 .9673-1.2034 1.7201-1.0063 .1244 .0326 .2437 .082 .3547 .1469l.6634 .388c.581 .34 1.3003 .34 1.8814 0l.6634-.388c.6717-.393 1.5349-.167 1.9279 .5047 .0649 .111 .1143 .2303 .1469 .3547l.1946 .7435a1.863 1.863 0 0 0 1.3304 1.3304l.7435 .1946c.7529 .1971 1.2034 .9673 1.0063 1.7201a1.4 1.4 0 0 1-.1469 .3547l-.388 .6634a1.863 1.863 0 0 0 0 1.8814l.388 .6634c.393 .6717 .167 1.5349-.5047 1.9279a1.4 1.4 0 0 1-.3547 .1469l-.7435 .1946A1.863 1.863 0 0 0 28 22.8617V29c0 .824-.9408 1.2944-1.6 .8L24 28.25l-2.4 1.55c-.6592 .4944-1.6 .024-1.6-.8zm2 2.1025V27l1.4-.8a1 1 0 0 1 1.2 0l1.4 .8v-2.0361a1.41 1.41 0 0 1-.396-.157l-.6633-.3882a1.863 1.863 0 0 0-1.8814 0l-.6634 .3881c-.1266 .074-.26 .1262-.3959 .1574M24 22.5c2.4853 0 4.5-2.0147 4.5-4.5s-2.0147-4.5-4.5-4.5-4.5 2.0147-4.5 4.5 2.0147 4.5 4.5 4.5m0-2.5c-1.1046 0-2-.8954-2-2s.8954-2 2-2 2 .8954 2 2-.8954 2-2 2M5 27h11c.5523 0 1 .4477 1 1s-.4477 1-1 1H4c-.5523 0-1-.4477-1-1V4c0-.5523 .4477-1 1-1h20c.5523 0 1 .4477 1 1v4c0 .5523-.4477 1-1 1s-1-.4477-1-1V5H5zM8 8h3c.5523 0 1 .4477 1 1s-.4477 1-1 1H8c-.5523 0-1-.4477-1-1s.4477-1 1-1m0 14h2c.5523 0 1 .4477 1 1s-.4477 1-1 1H8c-.5523 0-1-.4477-1-1s.4477-1 1-1m0-9h6c.5523 0 1 .4477 1 1s-.4477 1-1 1H8c-.5523 0-1-.4477-1-1s.4477-1 1-1m0 4h6c.5523 0 1 .4477 1 1s-.4477 1-1 1H8c-.5523 0-1-.4477-1-1s.4477-1 1-1"/>
</svg>
