<svg width="24" height="24" fill="currentColor" viewBox="0 0 24 24" xmlns="http://www.w3.org/2000/svg">
  <path d="M17.5106 17.9c-.4816 .2704-.653 .88-.3827 1.3615 .2703 .4817 .8798 .653 1.3615 .3827q.8533-.4788 2.5656-1.4465c.5972-.3613 .945-.9819 .945-1.6501v-3.0458c0-.5523-.4477-1-1-1s-1 .4477-1 1v2.9954a1226 1226 0 0 1-2.4894 1.4029M4 16.4515V13.506c0-.5523-.4477-1-1-1s-1 .4477-1 1v3.0417c0 .6682 .3478 1.2888 .9187 1.6347 1.5974 .8971 1.5974 .8971 2.5955 1.4572 .4817 .2703 1.0912 .099 1.3615-.3827 .2703-.4816 .099-1.0911-.3827-1.3614l-2.4354-1.3667zM5.0276 6.931l1.4347 .7475c.4898 .2552 .68 .8591 .4248 1.349-.2552 .4897-.8592 .68-1.349 .4247L4 8.6508v1.8513c0 .5523-.4477 1-1 1s-1-.4477-1-1V7.4567c0-.6682 .3478-1.2888 .9476-1.6516l2.5661-1.44c.4816-.2703 1.0912-.099 1.3614 .3827 .2703 .4816 .099 1.0911-.3826 1.3614-.6578 .3691-.8541 .4793-1.465 .8218M20 8.651l-1.538 .8012c-.4897 .2552-1.0937 .065-1.3489-.4248-.2551-.4898-.065-1.0937 .4248-1.3489l1.4327-.7464q-.956-.535-1.46-.8178c-.4816-.2703-.653-.8798-.3827-1.3614 .2703-.4817 .8798-.653 1.3615-.3827 .5078 .285 1.3619 .763 2.592 1.4518 .5708 .3459 .9186 .9665 .9186 1.6347v3.0431c0 .5523-.4477 1-1 1s-1-.4477-1-1zM9.4903 4.4268c-.4816 .2703-1.0911 .099-1.3614-.3827-.2703-.4816-.099-1.0912 .3827-1.3615 .9862-.5534 .9862-.5534 2.507-1.4062 .6036-.3658 1.3592-.3658 1.9338-.0169l2.5384 1.4245c.4816 .2702 .653 .8798 .3827 1.3614-.2703 .4817-.8798 .653-1.3615 .3827-.9871-.554-.9871-.554-2.5673-1.4413 .0336 .0203 .077 .0203 .0816 .0169zm2.5098 6.147 2.5389-1.3274c.4894-.256 1.0936-.0666 1.3495 .4228s.0666 1.0937-.4229 1.3495L13 12.308v2.1944c0 .5522-.4477 1-1 1s-1-.4478-1-1v-2.1945l-2.4654-1.289c-.4895-.256-.6788-.8601-.4229-1.3496s.86-.6787 1.3495-.4228zm-.9999 9.8257c-.6625-.3863-1.1646-.6752-1.5108-.8695-.4817-.2703-1.0912-.099-1.3615 .3827-.2702 .4816-.099 1.0912 .3827 1.3614 .4965 .2786 1.3376 .7662 2.5199 1.4606 .5917 .3588 1.3473 .3588 1.9508-.007a1275 1275 0 0 1 2.5072-1.4098c.4819-.2698 .6539-.8792 .384-1.361-.2697-.482-.879-.654-1.361-.3842q-.5197 .291-1.5113 .8493v-1.9242c0-.5523-.4477-1-1-1s-1 .4477-1 1z"/>
</svg>
