<svg width="24" height="24" fill="currentColor" viewBox="0 0 24 24" xmlns="http://www.w3.org/2000/svg">
  <path d="M5.5853 18.3128C7.2178 19.9715 9.4888 21 12 21c1.3095 0 2.5536-.2796 3.676-.7825-1.0289-.1353-2.1663-.6995-3.6572-1.6914-2.2584-1.5025-3.915-2.0483-6.4335-.2133m-1.2365-1.5713c1.302-.9586 2.4923-1.453 3.6512-1.5662V7.0059h1.6338v8.2562c.542.1084 1.0854.293 1.6387.5453V7.0059h2.8779q1.873 0 2.8061.7656t.9331 2.2558q0 1.5655-1.0253 2.3995t-2.919.834h-1.039v3.4557q.1097.0708.2203.1445c2.9984 1.9947 4.2627 2.2036 6.8603-.7086C20.6341 14.9101 21 13.4978 21 12c0-4.9706-4.0294-9-9-9s-9 4.0294-9 9c0 1.74.4938 3.3647 1.3488 4.7415M12 23C5.9249 23 1 18.0751 1 12S5.9249 1 12 1s11 4.9249 11 11-4.9249 11-11 11m.9063-11.1133h.8681q1.2579 0 1.8457-.4375.588-.4375.588-1.3672 0-.8613-.5265-1.2851-.5263-.4239-1.6406-.4239h-1.1348z"/>
</svg>
