<svg width="16" height="16" fill="currentColor" viewBox="0 0 16 16" xmlns="http://www.w3.org/2000/svg">
  <path d="M10.1506 13.603c-.6341-.2857-1.332-.6946-2.1318-1.2266-1.8047-1.2007-3.225-1.7904-5.0081-1.0426C4.0871 12.9415 5.9199 14 8 14c.7579 0 1.483-.1405 2.1506-.397m2.1446-1.4135C13.35 11.108 14 9.63 14 8c0-3.3137-2.6863-6-6-6S2 4.6863 2 8c0 .5207.0663 1.0258.191 1.5075C3.16 9.0887 4.0826 8.9406 5 9.021V5h1.5508v4.366c.4068.1425.8171.3247 1.2344.5428V5h1.9765q1.082 0 1.625.4727t.543 1.3437q0 .957-.5645 1.4785t-1.6035.5215h-.4336v1.8945h-.2018c1.2986.864 2.2718 1.3929 3.1689 1.4786M8 16c-4.4183 0-8-3.5817-8-8s3.5817-8 8-8 8 3.5817 8 8-3.5817 8-8 8m1.3281-8.4414h.2813q.3476 0 .5527-.1953t.205-.539q0-.5782-.6405-.5782H9.328z"/>
</svg>
