<svg width="16" height="16" fill="currentColor" viewBox="0 0 16 16" xmlns="http://www.w3.org/2000/svg">
  <path d="M2.477 8H7V5H3.677zM2 10v3h5v-3zm-.5 5C.6716 15 0 14.3284 0 13.5V9.0963a1.5 1.5 0 0 1 .1073-.557l1.8385-4.5964A1.5 1.5 0 0 1 3.3385 3H7V1.5C7 .6716 7.6716 0 8.5 0H15c.5523 0 1 .4477 1 1s-.4477 1-1 1H9v11h6c.5523 0 1 .4477 1 1s-.4477 1-1 1zM15 6c.5523 0 1 .4477 1 1s-.4477 1-1 1h-3c-.5523 0-1-.4477-1-1s.4477-1 1-1zm0-3c.5523 0 1 .4477 1 1s-.4477 1-1 1h-3c-.5523 0-1-.4477-1-1s.4477-1 1-1zm0 6c.5523 0 1 .4477 1 1s-.4477 1-1 1h-3c-.5523 0-1-.4477-1-1s.4477-1 1-1zM4 16c-1.1046 0-2-.8954-2-2s.8954-2 2-2 2 .8954 2 2-.8954 2-2 2m9 0c-1.1046 0-2-.8954-2-2s.8954-2 2-2 2 .8954 2 2-.8954 2-2 2"/>
</svg>
