<svg width="24" height="24" fill="currentColor" viewBox="0 0 24 24" xmlns="http://www.w3.org/2000/svg">
  <path d="M7 20c.5523 0 1-.4477 1-1s-.4477-1-1-1-1 .4477-1 1 .4477 1 1 1m2.8293 0C9.4175 21.1652 8.3063 22 7 22c-1.3113 0-2.4262-.8414-2.8341-2.0137A1 1 0 0 1 4 20H3c-1.101 0-2-.8952-2-1.9908V13a1 1 0 0 1 .0513-.3162l2-6A1 1 0 0 1 4 6h7V3c0-.5523 .4477-1 1-1h10c.5523 0 1 .4477 1 1s-.4477 1-1 1h-9v14h3q.0849 .0001 .1659 .0137C16.5739 16.8414 17.6887 16 19 16c1.3062 0 2.4175 .8348 2.8293 2h.1717c.5563 0 .999 .4477 .999 1a.997 .997 0 0 1-.999 1h-.1717c-.4118 1.1652-1.523 2-2.8293 2-1.3113 0-2.4262-.8414-2.8341-2.0137A1 1 0 0 1 16 20zm0-2H11v-4H3.0001l.0006 4H4q.0849 .0001 .1659 .0137C4.5739 16.8414 5.6887 16 7 16c1.3062 0 2.4175 .8348 2.8293 2M11 12V8H4.7208l-1.3334 4zm8 8c.5523 0 1-.4477 1-1s-.4477-1-1-1-1 .4477-1 1 .4477 1 1 1m5-13a.996 .996 0 0 1-.997 1h-6.006C16.453 8 16 7.5523 16 7c0-.5561 .4464-1 .997-1h6.006c.544 0 .997 .4477 .997 1m0 3a.996 .996 0 0 1-.997 1h-6.006C16.453 11 16 10.5523 16 10c0-.5561 .4464-1 .997-1h6.006c.544 0 .997 .4477 .997 1m0 3a.996 .996 0 0 1-.997 1h-6.006c-.544 0-.997-.4477-.997-1 0-.5561 .4464-1 .997-1h6.006c.544 0 .997 .4477 .997 1"/>
</svg>
