<svg xmlns="http://www.w3.org/2000/svg" fill="none" viewBox="0 0 16 16"><g clip-path="url(#full-size--16-a)"><path fill="currentColor" d="M2 5c0 .5523-.4477 1-1 1s-1-.4477-1-1V2C0 .8954.8954 0 2 0h12c1.1046 0 2 .8954 2 2v12c0 1.1046-.8954 2-2 2h-3c-.5523 0-1-.4477-1-1s.4477-1 1-1h3V2H2v3Zm8 2.4142-3 3V15c0 .5523-.4477 1-1 1H1c-.5523 0-1-.4477-1-1v-5c0-.5523.4477-1 1-1h4.5858l3-3H7c-.5523 0-1-.4477-1-1s.4477-1 1-1h4c.5523 0 1 .4477 1 1v4c0 .5523-.4477 1-1 1s-1-.4477-1-1V7.4142ZM2 11v3h3v-3H2Z"/></g><defs><clipPath id="full-size--16-a"><path fill="#fff" d="M0 0h16v16H0z"/></clipPath></defs></svg>