<svg xmlns="http://www.w3.org/2000/svg" fill="none" viewBox="0 0 24 24"><path fill="currentColor" d="M21 18v2c0 1.1046-.8954 2-2 2H5c-1.1046 0-2-.8954-2-2v-2h18Zm-3 3c.5523 0 1-.4477 1-1s-.4477-1-1-1-1 .4477-1 1 .4477 1 1 1Zm3-4H3V4c0-1.1046.8954-2 2-2h14c1.1046 0 2 .8954 2 2v13Zm-9-5.5714h2.4749c-.494.854-1.4174 1.4285-2.4749 1.4285-1.578 0-2.8571-1.2791-2.8571-2.8571S10.422 7.1429 12 7.1429c.7197 0 1.3952.2657 1.9176.739l1.4388-1.588A4.9849 4.9849 0 0 0 12 5c-2.7614 0-5 2.2386-5 5s2.2386 5 5 5 5-2.2386 5-5c0-.2386-.0168-.4804-.0496-.7138l-.6647-.0005H12v2.1429Z"/></svg>