<svg width="24" height="24" fill="currentColor" viewBox="0 0 24 24" xmlns="http://www.w3.org/2000/svg">
  <path d="M18.9836 7H20c.5523 0 1 .4477 1 1v5c0 .5523-.4477 1-1 1v8c0 .5523-.4477 1-1 1H5c-.5523 0-1-.4477-1-1v-8c-.5523 0-1-.4477-1-1V8c0-.5523.4477-1 1-1h1.0146A3.96 3.96 0 0 1 4.52 5.4547C4.3133 3.4893 5.739 1.7286 7.7045 1.522c2.0088-.2111 3.854 1.1173 4.2946 3.0838.4407-1.9665 2.2859-3.295 4.2946-3.0838 1.9654.2066 3.3912 1.9673 3.1847 3.9327A3.96 3.96 0 0 1 18.9836 7M13 12h6V9h-3.1331a4 4 0 0 1-.3409.0146L13 9.0154zm-2 0V9.0154l-2.5278-.0008Q8.3001 9.0145 8.1314 9H5v3zm0 2H6v7h5zm2 0v7h5v-7zm-2.9478-8.9357c-.2105-.9886-1.1333-1.6589-2.1386-1.5532-.8669.091-1.4958.8677-1.4047 1.7346.1057 1.0052.9532 1.7686 1.964 1.7689l1.9946.0006zm5.4732 1.9503c1.0108-.0003 1.8583-.7637 1.964-1.769.091-.8668-.5379-1.6434-1.4047-1.7345-1.0053-.1057-1.9281.5646-2.1386 1.5532l-.4153 1.951z"/>
</svg>
