<svg width="24" height="24" fill="currentColor" viewBox="0 0 24 24" xmlns="http://www.w3.org/2000/svg">
  <path fill-rule="evenodd" d="M6 1C4.3431 1 3 2.3432 3 4v16c0 1.6569 1.3431 3 3 3h12c1.6569 0 3-1.3431 3-3V4c0-1.6568-1.3431-3-3-3zM5 4c0-.5523.4477-1 1-1h12c.5523 0 1 .4477 1 1v16c0 .5523-.4477 1-1 1H6c-.5523 0-1-.4477-1-1zm13 6c0 2.973-2.1623 5.4409-5 5.917V19c0 .5523-.4477 1-1 1H7a1 1 0 0 1-.707-1.7071l2.9581-2.9582C7.3201 14.3377 6 12.323 6 10c0-3.3137 2.6863-6 6-6s6 2.6863 6 6m-8.5858 8H11v-1.5858zM12 6c-2.2091 0-4 1.7909-4 4 0 1.7824 1.1658 3.2925 2.7764 3.8094l.5165-.5165a1 1 0 0 1 1.6994.583C14.7214 13.4346 16 11.8666 16 10c0-2.2091-1.7909-4-4-4m0 6c-1.1046 0-2-.8954-2-2s.8954-2 2-2 2 .8954 2 2-.8954 2-2 2"/>
</svg>
