<svg width="24" height="24" fill="currentColor" viewBox="0 0 24 24" xmlns="http://www.w3.org/2000/svg">
  <path d="M18.17 11.9955C18.5831 10.8326 19.6955 10 21 10c1.6569 0 3 1.3431 3 3s-1.3431 3-3 3c-1.3382 0-2.4718-.79-2.8583-2h-3.644c-.7695 0-1.4365-.6359-1.5727-1.3545l-.8304-4.3807-1.9569 12.5134c-.2433 1.5555-1.9278 1.648-2.3742 .1495L4.8421 11.1201l-.729 1.7482C3.8612 13.472 3.1794 14 2.4952 14H1c-.5523 0-1-.4703-1-1s.4477-1.0045 1-1.0045h1.323L3.7 8.6934c.5599-1.3425 2.1242-1.2591 2.5365 .1249l2.4585 8.2534 2.1673-13.859c.0303-.1936 .0706-.358 .1299-.5031 .1608-.3938 .4177-.6918 .9854-.7089 .581-.0174 .8595 .278 1.0373 .6715 .0646 .143 .1103 .3053 .1465 .4963l1.6732 8.827zM21 14c.5523 0 1-.4477 1-1s-.4477-1-1-1-1 .4477-1 1 .4477 1 1 1"/>
</svg>
