<svg width="32" height="32" fill="currentColor" viewBox="0 0 32 32" xmlns="http://www.w3.org/2000/svg">
  <path d="M24.126 16c.444-1.7252 2.0102-3 3.874-3 2.2091 0 4 1.7909 4 4s-1.7909 4-4 4c-1.8638 0-3.43-1.2748-3.874-3h-4.635c-.735 0-1.413-.5321-1.5793-1.2683l-1.7338-8.677-3.1106 20.8647c-.0242 .1546-.0602 .2932-.1205 .4276-.154 .3433-.4215 .621-.903 .6506-.4834 .0296-.7826-.2155-.9745-.5391-.075-.1265-.126-.2595-.1666-.4087L6.913 14.3735l-.8074 2.475C5.8842 17.5275 5.2122 18 4.5096 18H1c-.5523 0-1-.4292-1-.9935S.4477 16 1 16h3.2792l1.6152-4.9665c.4009-1.229 1.8664-1.1772 2.2029 .0606l3.6394 13.388 3.196-21.4104c.0234-.1498 .0577-.284 .115-.4145 .158-.3605 .4336-.6504 .95-.657 .5001-.0066 .7767 .2577 .9515 .598 .064 .1245 .1063 .2542 .1391 .3994L19.7955 16zM28 19c1.1046 0 2-.8954 2-2s-.8954-2-2-2-2 .8954-2 2 .8954 2 2 2"/>
</svg>
