<svg xmlns="http://www.w3.org/2000/svg" fill="none" viewBox="0 0 16 16"><g clip-path="url(#help-circle--16-a)"><path fill="currentColor" d="M8 16c-4.4183 0-8-3.5817-8-8s3.5817-8 8-8 8 3.5817 8 8-3.5817 8-8 8Zm0-3c.5523 0 1-.4477 1-1s-.4477-1-1-1-1 .4477-1 1 .4477 1 1 1ZM5 5.6032c0 .191.077.3685.231.5325.154.164.343.246.567.246.38 0 .638-.2346.774-.7038.144-.4484.32-.7878.528-1.0182.208-.2304.532-.3456.972-.3456.376 0 .683.1141.921.3425.238.2283.357.5086.357.8407 0 .1703-.039.328-.117.4733a1.7814 1.7814 0 0 1-.288.3955c-.114.1183-.299.2937-.555.5263-.292.2657-.524.495-.696.6881-.172.193-.31.4173-.414.6726-.104.2553-.156.5574-.156.9062 0 .2781.071.4878.213.629.142.1411.317.2117.525.2117.4 0 .638-.2159.714-.6477.044-.2034.077-.3456.099-.4266.022-.081.053-.162.093-.2429.04-.081.101-.1702.183-.2678.082-.0975.191-.2107.327-.3394.492-.4567.833-.7816 1.023-.9746.19-.193.354-.4225.492-.6882.138-.2657.207-.575.207-.928 0-.4483-.121-.8635-.363-1.2455s-.585-.684-1.029-.9061C9.164 3.111 8.652 3 8.072 3c-.624 0-1.17.1329-1.638.3986-.468.2657-.824.601-1.068 1.0058C5.122 4.8092 5 5.2088 5 5.6032Z"/></g><defs><clipPath id="help-circle--16-a"><path fill="#fff" d="M0 0h16v16H0z"/></clipPath></defs></svg>