<svg width="32" height="32" fill="currentColor" viewBox="0 0 32 32" xmlns="http://www.w3.org/2000/svg">
  <path fill-rule="evenodd" d="M28.7071 4.7071c.3905-.3905.3905-1.0237 0-1.4142s-1.0237-.3905-1.4142 0l-24 24c-.3905.3905-.3905 1.0237 0 1.4142s1.0237.3905 1.4142 0zm-7.8172 2.1605C19.4317 6.3262 17.8022 6 16.0001 6 8.3254 6 3.7815 11.9158 2.2679 15.1803a1.898 1.898 0 0 0 .0333 1.6669C3 18.2123 4.2497 20.0627 6.015 21.7425l1.4134-1.4134C5.88 18.8683 4.7547 17.2387 4.103 15.9775 5.4845 13.033 9.4832 8 16 8c1.1839 0 2.2847.1661 3.3018.4556zm-3.3356 3.3356A6 6 0 0 0 16.0001 10c-3.3137 0-6 2.6863-6 6 0 .5375.0707 1.0584.2033 1.5541l1.8044-1.8044c.1241-2.0098 1.7322-3.6179 3.742-3.742zm-4.8229 13.3083A11.16 11.16 0 0 0 16.0002 24c6.1689 0 10.3563-5.0408 11.8971-8.0225-.5951-1.2683-1.6757-2.924-3.2339-4.3981l1.4134-1.4134c1.7872 1.7066 3.003 3.6069 3.6555 5.0143a1.897 1.897 0 0 1-.0332 1.6668C28.0491 20.0708 23.3264 26 16.0002 26c-1.7681 0-3.3845-.3453-4.8427-.9146zm7.2611-7.2612 1.8045-1.8044A6 6 0 0 1 22.0002 16c0 3.3137-2.6863 6-6 6a6 6 0 0 1-1.5541-.2032l1.8045-1.8045c2.0097-.1241 3.6178-1.7322 3.7419-3.742"/>
</svg>
