<svg width="24" height="24" fill="currentColor" viewBox="0 0 24 24" xmlns="http://www.w3.org/2000/svg">
  <path fill-rule="evenodd" d="M2 4c0-1.1046.8954-2 2-2h16c1.1046 0 2 .8954 2 2v16c0 1.1046-.8954 2-2 2H4c-1.1046 0-2-.8954-2-2zm3 0c-.5523 0-1 .4477-1 1v14c0 .5523.4477 1 1 1h3V4zm14 0h-9v16h9c.5523 0 1-.4477 1-1v-6h-4.5858l1.2929 1.2929c.3905.3905.3905 1.0237 0 1.4142s-1.0237.3905-1.4142 0l-3-3c-.3905-.3905-.3905-1.0237 0-1.4142l3-3c.3905-.3905 1.0237-.3905 1.4142 0s.3905 1.0237 0 1.4142L15.4142 11H20V5c0-.5523-.4477-1-1-1"/>
</svg>
