<svg width="16" height="16" fill="currentColor" viewBox="0 0 16 16" xmlns="http://www.w3.org/2000/svg">
  <path fill-rule="evenodd" d="M15.2071 2.2071c.3905-.3905.3905-1.0237 0-1.4142s-1.0237-.3905-1.4142 0l-1.6278 1.6278A3.484 3.484 0 0 0 10.5 2C8.567 2 7 3.567 7 5.5v2.0858l-2.9977 2.9977A1.5 1.5 0 0 1 4 10.5V5.7324C4.5978 5.3866 5 4.7403 5 4c0-1.1046-.8954-2-2-2s-2 .8954-2 2c0 .7403.4022 1.3866 1 1.7324V10.5c0 .6028.1524 1.1699.4207 1.6651L.7929 13.7929c-.3905.3905-.3905 1.0237 0 1.4142s1.0237.3905 1.4142 0zM9 5.5858l1.5835-1.5835A1.5 1.5 0 0 0 10.5 4C9.6716 4 9 4.6716 9 5.5zm3 1.8284 1.999-1.999Q14 5.4575 14 5.5v4.7676c.5978.3458 1 .9921 1 1.7324 0 1.1046-.8954 2-2 2s-2-.8954-2-2c0-.7403.4022-1.3866 1-1.7324zm-3 3L5.4152 13.999Q5.4575 14 5.5 14C7.433 14 9 12.433 9 10.5z"/>
</svg>
