<svg xmlns="http://www.w3.org/2000/svg" fill="none" viewBox="0 0 24 24"><path fill="currentColor" d="M9.97 2.2078a10.0025 10.0025 0 0 1 6.9424 1.081 10.0006 10.0006 0 0 1 4.5166 5.3809 10 10 0 0 1-.1357 7.0234 10.0007 10.0007 0 0 1-11.7012 6.0127 9.9996 9.9996 0 0 1-5.789-3.9795 9.9993 9.9993 0 0 1-1.7442-6.8047c.0597-.5489.5526-.9461 1.1016-.8867.549.0596.9461.5536.8867 1.1026a7.9998 7.9998 0 0 0 6.0264 8.6269 8.0014 8.0014 0 0 0 5.583-.6494 8.0007 8.0007 0 0 0 3.7783-4.1601 8.001 8.001 0 0 0 .1084-5.6192A8.0012 8.0012 0 0 0 15.93 5.031a8.0013 8.0013 0 0 0-5.5537-.8642 8.0011 8.0011 0 0 0-3.4649 1.662h.3311c.5521 0 .9998.447 1 .9991 0 .5523-.4477 1-1 1H4.514c-.607-.0003-1.0991-.4917-1.0996-1.0986V3.9998c0-.5522.4478-1 1-1s.9999.4478 1 1v.4785C6.7039 3.349 8.2696 2.5603 9.97 2.2078Z"/><path fill="currentColor" d="M12.0003 5.7996c.552.0001.9998.448 1 1v5.0859l3.207 3.207c.3904.3904.3902 1.0236 0 1.4141-.3905.3904-1.0235.3905-1.414 0l-3.4971-3.4971a1.0108 1.0108 0 0 1-.2959-.7138V6.7996c.0003-.552.4481-.9998 1-1Z"/></svg>