<svg width="16" height="16" fill="currentColor" viewBox="0 0 16 16" xmlns="http://www.w3.org/2000/svg">
  <path d="M16 13v1c0 .5523-.4477 1-1 1H1c-.5523 0-1-.4477-1-1V2c0-.5523.4477-1 1-1h14c.5523 0 1 .4477 1 1zm-2-2.4127V3H2v7.1777l2.0269-2.025c.3904-.3901 1.023-.3901 1.4135 0L6.9341 9.645l2.3546-2.3524c.3905-.3901 1.0231-.3901 1.4136 0zM13.5851 13 9.9955 9.4136 7.6409 11.766c-.3904.3901-1.0231.3901-1.4136 0l-1.4936-1.4923L2.0049 13zM6 7c-.5523 0-1-.4477-1-1s.4477-1 1-1 1 .4477 1 1-.4477 1-1 1"/>
</svg>
