<svg xmlns="http://www.w3.org/2000/svg" fill="none" viewBox="0 0 24 24"><path fill="currentColor" d="m2.3509 14.3656 2.2256-9.6442C4.9293 3.1926 6.4365 2 8.0085 2h7.983c1.5735 0 3.0794 1.1932 3.432 2.7214l2.2238 9.6362A4.0135 4.0135 0 0 1 22 16.0098v1.9804C22 20.2048 20.2075 22 18.0008 22H5.9992C3.7905 22 2 20.2122 2 17.9902v-1.9804c0-.5859.1255-1.1425.3509-1.6442Zm16.734-2.217-1.6102-6.9775C17.3319 4.5519 16.6353 4 15.9915 4h-7.983c-.6429 0-1.3403.5519-1.4832 1.171l-1.6104 6.9783A3.9883 3.9883 0 0 1 5.9992 12h12.0016c.3757 0 .7393.0517 1.0841.1486ZM4 16.0098v1.9804C4 19.1057 4.8931 20 5.9992 20h12.0016C19.1026 20 20 19.1005 20 17.9902v-1.9804C20 14.8943 19.1069 14 18.0008 14H5.9992C4.8974 14 4 14.8995 4 16.0098ZM6 17c0-.5523.451-1 .9908-1h4.0184c.5472 0 .9908.4439.9908 1 0 .5523-.451 1-.9908 1H6.9908C6.4436 18 6 17.5561 6 17Zm11 1c-.5523 0-1-.4477-1-1s.4477-1 1-1 1 .4477 1 1-.4477 1-1 1ZM13 7v3c0 .5523-.4477 1-1 1s-1-.4477-1-1V7H9c-.5523 0-1-.4477-1-1s.4477-1 1-1h6c.5523 0 1 .4477 1 1s-.4477 1-1 1h-2Z"/></svg>