<svg xmlns="http://www.w3.org/2000/svg" fill="none" viewBox="0 0 32 32"><path fill="currentColor" d="M14.8343 13.2672C12.513 11.1118 10.4606 10 8.6153 10 5.413 10 3 12.2644 3 16s2.4129 6 5.6154 6c1.9187 0 5.0923-2.2933 9.9384-6.9599C20.5536 12.9787 22.1822 12 23.3846 12 25.5087 12 27 13.399 27 16c0 2.6019-1.4899 4-3.6154 4-1.232 0-2.8719-.8873-4.8584-2.7299l-1.3601 1.4664C19.4873 20.8895 21.5397 22 23.3846 22 26.5873 22 29 19.7359 29 16c0-3.7352-2.4143-6-5.6154-6-1.8713 0-3.9256 1.2345-6.2424 3.6236C12.7631 17.8398 9.7736 20 8.6154 20 6.49 20 5 18.6016 5 16s1.49-4 3.6154-4c1.2317 0 2.8716.8882 4.858 2.7328l1.3609-1.4656Z"/></svg>