<svg width="24" height="24" fill="currentColor" viewBox="0 0 24 24" xmlns="http://www.w3.org/2000/svg">
  <path fill-rule="evenodd" d="M1.2638 8.3439C1.0583 6.5626 2.451 5 4.244 5h15.512c1.7931 0 3.1857 1.5626 2.9802 3.3439l-1.0385 9C21.5231 18.8576 20.2413 20 18.7175 20H5.2825c-1.5238 0-2.8056-1.1424-2.9802-2.6561zM4.244 7c-.5977 0-1.0619.5209-.9934 1.1146l1.0385 9A1 1 0 0 0 5.2825 18h13.435a1 1 0 0 0 .9934-.8854l1.0385-9C20.8179 7.521 20.3537 7 19.756 7zM12 16c-.5523 0-1-.4477-1-1v-1c0-.5523.4477-1 1-1s1 .4477 1 1v1c0 .5523-.4477 1-1 1m-1-5c0 .5523.4477 1 1 1s1-.4477 1-1v-1c0-.5523-.4477-1-1-1s-1 .4477-1 1zm5 5c-.5523 0-1-.4477-1-1v-1c0-.5523.4477-1 1-1s1 .4477 1 1v1c0 .5523-.4477 1-1 1m-1-5c0 .5523.4477 1 1 1s1-.4477 1-1v-1c0-.5523-.4477-1-1-1s-1 .4477-1 1zm-7 5c-.5523 0-1-.4477-1-1v-1c0-.5523.4477-1 1-1s1 .4477 1 1v1c0 .5523-.4477 1-1 1m-1-5c0 .5523.4477 1 1 1s1-.4477 1-1v-1c0-.5523-.4477-1-1-1s-1 .4477-1 1z"/>
</svg>
