<svg xmlns="http://www.w3.org/2000/svg" fill="none" viewBox="0 0 16 16"><g clip-path="url(#install--16-a)"><path fill="currentColor" d="M8 0c4.4183 0 8 3.5817 8 8s-3.5817 8-8 8-8-3.5817-8-8 3.5817-8 8-8Zm.0036 4c-.5128 0-.9355.386-.9932.8834L7.0036 5v3.5h-.5018c-.7866 0-1.251.8572-.8615 1.5085l.0615.0915 1.5 2c.3733.4978 1.0951.531 1.515.0996l.085-.0996 1.5-2c.472-.6293.0648-1.515-.6899-1.5943L9.502 8.5h-.4983V5c0-.5523-.4477-1-1-1Z"/></g><defs><clipPath id="install--16-a"><path fill="#fff" d="M0 0h16v16H0z"/></clipPath></defs></svg>