<svg width="16" height="16" fill="currentColor" viewBox="0 0 16 16" xmlns="http://www.w3.org/2000/svg">
  <path fill-rule="evenodd" d="M1 0h14c.5523 0 1 .4477 1 1v14c0 .5523-.4477 1-1 1H1c-.5523 0-1-.4477-1-1V1c0-.5523.4477-1 1-1m1 4v10h12V4zm8.7185 6.3592a.9613.9613 0 0 1 0 1.3593c-.3753.3753-.9839.3753-1.3592 0L8 10.3592l-1.3593 1.3593a.9612.9612 0 0 1-1.3592-1.3593l1.3593-1.3593-1.3592-1.3592a.961.961 0 0 1 0-1.3592.961.961 0 0 1 1.3592 0L8 7.6407l1.3592-1.3592c.3753-.3753.9838-.3753 1.3592 0s.3753.984 0 1.3593L9.3592 8.9999z"/>
</svg>
