<svg width="24" height="24" fill="currentColor" viewBox="0 0 24 24" xmlns="http://www.w3.org/2000/svg">
  <path d="M2 2.9918C2 2.444 2.4553 2 2.9918 2h18.0164c.5478 0 .9918.4553.9918.9918v18.0164c0 .5478-.4553.9918-.9918.9918H2.9918C2.444 22 2 21.5447 2 21.0082zM4 10v9.9975L20 20V10zm16-6H4v4h16zM6 7c-.5523 0-1-.4477-1-1s.4477-1 1-1 1 .4477 1 1-.4477 1-1 1m3 0c-.5523 0-1-.4477-1-1s.4477-1 1-1 1 .4477 1 1-.4477 1-1 1m3 0c-.5523 0-1-.4477-1-1s.4477-1 1-1 1 .4477 1 1-.4477 1-1 1m0 6.586 1.2981-1.298c.3893-.3894 1.0206-.3894 1.4099 0 .3893.3893.3893 1.0205 0 1.4099l-1.2981 1.298 1.2981 1.2982c.3893.3893.3893 1.0205 0 1.4099s-1.0206.3893-1.4099 0L12 16.4059l-1.2981 1.298c-.3893.3894-1.0206.3894-1.4099 0-.3893-.3893-.3893-1.0205 0-1.4098l1.2981-1.2981-1.2981-1.2981c-.3893-.3894-.3893-1.0206 0-1.41s1.0206-.3893 1.4099 0z"/>
</svg>
