<svg width="32" height="32" fill="currentColor" viewBox="0 0 32 32" xmlns="http://www.w3.org/2000/svg">
  <path d="M26 6h-1V4h2c.5523 0 1 .4477 1 1v23c0 .5523-.4477 1-1 1H5c-.5523 0-1-.4477-1-1V5c0-.5523.4477-1 1-1h2v2H6v21h20zM10 9c-.5523 0-1-.4477-1-1V4c0-.5523.4477-1 1-1h12c.5523 0 1 .4477 1 1v4c0 .5523-.4477 1-1 1h-2.7086c-1.0738.661-2.1748 1-3.2914 1-1.117 0-2.2185-.339-3.2932-1zm1-4v2h1.9994a1 1 0 0 1 .5546.1679C14.3973 7.7299 15.2078 8 16 8c.7917 0 1.6014-.27 2.4437-.8319A1 1 0 0 1 18.9987 7H21V5zm-2 7h14v2H9zm0 5h14v2H9zm0 5h14v2H9z"/>
</svg>
