<svg width="24" height="24" fill="currentColor" viewBox="0 0 24 24" xmlns="http://www.w3.org/2000/svg">
  <path d="m18.9437 12 3.5708 2.1425c.6473.3884.6473 1.3266 0 1.715l-10 6a1 1 0 0 1-1.029 0l-10-6c-.6473-.3884-.6473-1.3266 0-1.715L5.0563 12 1.4855 9.8575c-.6473-.3884-.6473-1.3266 0-1.715l10-6a1 1 0 0 1 1.029 0l10 6c.6473.3884.6473 1.3266 0 1.715zM17 13.1662l-4.4855 2.6913a1 1 0 0 1-1.029 0L7 13.1662 3.9437 15 12 19.8338 20.0563 15zm-.4982-2.0335L20.0563 9 12 4.1662 3.9437 9l3.5545 2.1327a1 1 0 0 1 .034.0205L12 13.8338l4.4677-2.6806a1 1 0 0 1 .034-.0205"/>
</svg>
