<svg width="16" height="16" fill="currentColor" viewBox="0 0 16 16" xmlns="http://www.w3.org/2000/svg">
  <path d="M7.9684 0c.5084 0 .916.4187.936.9444l-.0046.2176-.0061.0422-.0588.3186-.0404.449-.0078.1597.0856.0857c.9251.1446 1.8108.5026 2.5877 1.0501l.2548.1896.3439.302h.114c.1102-.0857.229-.1961.362-.3361l.0972-.0928.0732-.0873.1609-.168.0736-.0531-.0209.0085.0257-.025.0509-.0388.0379-.0334.1333-.0829c.1437-.077.2957-.1189.4613-.1189.2851 0 .5638.1307.7201.35.2953.384.2293.9299-.125 1.2772a.25.25 0 0 1-.051.0562l-.0893.07-.0508.0355c-.105.07-.1922.1216-.2393.1408a.9.9 0 0 1-.108.0618l-.1806.1081-.3196.2063-.001.1729a6.28 6.28 0 0 1 .6357 1.638 6.06 6.06 0 0 1 .1476 1.7407l.104.1567c.0582.0126.1229.0237.1988.0341l.2667.0305.0208.003.1213.0149.0195-.0009.1262.005.212.0282.5138.1927c.2716.1864.4505.4872.4505.795l-.0221.147c-.1224.3978-.503.6768-.9333.6768l-.0443-.0006a.74.74 0 0 1-.1204-.0132l-.0871-.0215-.0097-.0052-.1103-.021c-.1257-.0359-.225-.0748-.2742-.105l-.067-.0257-.0618-.0295-.0256-.0058-.3059-.1077-.1613-.047-.0674-.0155-.0787.0398a6 6 0 0 1-.3459.7416l-.1775.2978c-.4522.7181-1.0329 1.3223-1.7136 1.7826l-.008.0386-.0184.0573c.0318.0736.081.161.1639.2925l.1836.2839.1121.1488.0839.1306.1049.2036v.0114c.0738.1964.0777.4065.0273.608-.0626.2506-.2296.4414-.4726.5794a.87.87 0 0 1-.3926.095c-.2897 0-.5648-.1337-.752-.3636l-.113-.1603-.0336-.0693-.0272-.0492a1.03 1.03 0 0 1-.065-.1595l-.0392-.1356-.0497-.1505-.0039-.024-.132-.35-.0612-.1441-.161-.0515a6 6 0 0 1-.3696.0941c-.419.1048-.8776.1557-1.346.1557a6.02 6.02 0 0 1-1.4942-.1895l-.29-.0824-.0758.0484-.0357.0121c-.0298.0552-.0587.1208-.0919.2082l-.1144.323-.1124.347-.029.072-.0626.0924-.0194.0575-.0152.0264c-.1763.294-.4989.4927-.841.4927a.86.86 0 0 1-.3805-.0891c-.4437-.207-.6272-.723-.4575-1.1903v-.0163l.034-.0627.0689-.1333.158-.232.0202-.025.0807-.121a7.5 7.5 0 0 0 .1953-.3159l.0796-.1468-.0172-.0345v-.0308l-.017-.0773a5 5 0 0 1-.3272-.2365c-.8359-.6577-1.4878-1.5347-1.881-2.5255H2.368l-.088-.059c-.0698.0144-.1493.0367-.2495.0697l-.281.0994-.0198.0035-.1526.0698a1.7 1.7 0 0 1-.183.0683l-.1627.0485-.0946.0223-.0732.0111-.0646.004-.153-.0055c-.4036-.042-.7418-.3118-.8304-.7259-.0797-.4253.152-.845.545-1.0304l.1745-.0704.0631-.016.1309-.0193.1942-.0257.0774-.0059a1 1 0 0 1 .1653-.0154l.3217-.0316.2054-.0298.1008-.1618c-.0843-1.1833.176-2.354.7585-3.3807v-.1657a2.4 2.4 0 0 0-.134-.0949l-.375-.2355-.0453-.0212a2.5 2.5 0 0 1-.2552-.147l.0159.0063-.0665-.0386-.0571-.0444-.1086-.0834c-.3643-.3392-.4385-.8985-.1482-1.2754.1669-.2336.4455-.3642.7307-.3642.1708 0 .34.046.4924.1338q.21.1554.2437.1855l.1502.152.0564.0634.0747.0743.2401.252.1385.13q.0317.0278.0606.0512l.0693-.0004c.778-.7292 1.7317-1.2336 2.7861-1.4663a5.1 5.1 0 0 1 .4457-.0776l.0876-.0876-.0042-.1186-.0429-.432-.0132-.0769-.0293-.1083a1.37 1.37 0 0 1-.0322-.2599L7.033.9199c.0101-.2407.1029-.4634.2722-.6327C7.482.1104 7.7186 0 7.9684 0M8 9c.5523 0 1-.4477 1-1s-.4477-1-1-1-1 .4477-1 1 .4477 1 1 1m-.0578 1.8782-.6553 1.1862c.2235.0375.4463.0568.6675.0568.143 0 .2866-.0086.4292-.0247l.2128-.0295zM5.8729 9.8624l-1.3494.2292a3.96 3.96 0 0 0 .6327.8534l.1912.1831zm4.1394-.0135.5336 1.2788a3.9 3.9 0 0 0 .5999-.6684l.1885-.2841.0566-.0937zm1.5487-3.1472-1.013.912 1.3093.3765a3.9 3.9 0 0 0-.0966-.6495 4.2 4.2 0 0 0-.1997-.639m-7.2284-.0056-.0929.2487a4.04 4.04 0 0 0-.1775.7776l-.025.2666 1.3184-.3816zm2.537-2.2657-.2586.0827a3.8 3.8 0 0 0-.7228.349l-.2215.149 1.125.8037zm2.1658.0046.07 1.3706 1.1204-.7954a3.77 3.77 0 0 0-.9367-.4942z"/>
</svg>
