<svg width="32" height="32" fill="currentColor" viewBox="0 0 32 32" xmlns="http://www.w3.org/2000/svg">
  <path d="M13.7071 22.7071A1 1 0 0 1 13 23h-1v1a1 1 0 0 1-.2929.7071l-1 1A1 1 0 0 1 10 26H9v1a1 1 0 0 1-.2929.7071l-1 1A1 1 0 0 1 7 29H3c-.5523 0-1-.4477-1-1v-4a1 1 0 0 1 .2929-.7071l7.4658-7.4658C9.2607 14.6259 9 13.3309 9 12 9 6.4772 13.4772 2 19 2s10 4.4772 10 10-4.4772 10-10 10c-1.3309 0-2.626-.2607-3.827-.7587zm.5428-3.3712a1 1 0 0 1 1.157-.186C16.5115 19.7063 17.7336 20 19 20c4.4183 0 8-3.5817 8-8s-3.5817-8-8-8-8 3.5817-8 8c0 1.2663.2937 2.4884.8501 3.5932a1 1 0 0 1-.186 1.1569L4 24.4142V27h2.5858L7 26.5858V25c0-.5523.4477-1 1-1h1.5858L10 23.5858V22c0-.5523.4477-1 1-1h1.5858zM20 15c-2.2091 0-4-1.7909-4-4s1.7909-4 4-4 4 1.7909 4 4-1.7909 4-4 4m0-2c1.1046 0 2-.8954 2-2s-.8954-2-2-2-2 .8954-2 2 .8954 2 2 2"/>
</svg>
