<svg width="16" height="16" fill="currentColor" viewBox="0 0 16 16" xmlns="http://www.w3.org/2000/svg">
  <path d="m7.9986 13.9986-.9693-.0014-.0005 1c0 .5521-.4474.9997-.9995 1L2 16c-.5523.0003-1.0002-.4472-1.0005-.9995V15L1 11.4367a1 1 0 0 1 .2585-.671l2.911-3.2172C4.0587 7.029 4 6.49 4 6c0-3.3137 2.6863-6 6-6s6 2.6863 6 6-2.6863 6-6 6H9v.9986c0 .5523-.4477 1-1 1zM8.0293 10H10c2.2091 0 4-1.7909 4-4s-1.7909-4-4-4-4 1.7909-4 4c0 .348.0437.7477.1255 1.1315l.1066.5002a1 1 0 0 1-.2365.8795L3 11.8219V14h2.0293v-1.0028c0-.5523.4477-1 1-1h1V11c0-.5523.4477-1 1-1M10.5 7C9.6716 7 9 6.3284 9 5.5S9.6716 4 10.5 4s1.5.6716 1.5 1.5S11.3284 7 10.5 7"/>
</svg>
