<svg width="16" height="16" fill="currentColor" viewBox="0 0 16 16" xmlns="http://www.w3.org/2000/svg">
  <path d="M3.5858 3A2 2 0 0 1 5 3.5858L5.4142 4h5.1716L11 3.5858A2 2 0 0 1 12.4142 3H13c1.1046 0 2 .8954 2 2v7c0 1.1046-.8954 2-2 2H3c-1.1046 0-2-.8954-2-2V5c0-1.1046.8954-2 2-2zm9.1213 2a.707.707 0 0 0-.5.2071l-.5.5A1 1 0 0 1 11 6H5a1 1 0 0 1-.7071-.2929l-.5-.5a.707.707 0 0 0-.5-.2071A.293.293 0 0 0 3 5.2929V11c0 .5523.4477 1 1 1h8c.5523 0 1-.4477 1-1V5.2929A.293.293 0 0 0 12.7071 5M5 7c.5523 0 1 .4477 1 1v2c0 .5523-.4477 1-1 1s-1-.4477-1-1V8c0-.5523.4477-1 1-1m3 0c.5523 0 1 .4477 1 1v2c0 .5523-.4477 1-1 1s-1-.4477-1-1V8c0-.5523.4477-1 1-1m3 0c.5523 0 1 .4477 1 1v2c0 .5523-.4477 1-1 1s-1-.4477-1-1V8c0-.5523.4477-1 1-1"/>
</svg>
