<svg xmlns="http://www.w3.org/2000/svg" fill="none" viewBox="0 0 16 16"><g clip-path="url(#kubernetes-o--16-a)"><path fill="currentColor" d="M7.9684 0c.5084 0 .916.4187.936.9444l-.0046.2176-.0061.0422-.0588.3186-.0404.449-.0078.1597.0856.0857c.9251.1445 1.8108.5026 2.5877 1.0501l.2548.1896.3439.302h.1141c.1101-.0857.2289-.1962.3619-.3361l.0972-.0928.0732-.0873.1609-.168.0736-.0531-.0209.0085.0257-.025.0509-.0388.0379-.0334.1333-.0829c.1437-.077.2957-.1189.4613-.1189.2851 0 .5638.1307.7201.35.2953.384.2293.9299-.125 1.2772a.2445.2445 0 0 1-.051.0562l-.0893.07-.0508.0355c-.105.07-.1922.1216-.2393.1408a.9388.9388 0 0 1-.108.0618l-.1806.1081-.3196.2063-.001.1729a6.2808 6.2808 0 0 1 .6357 1.638 6.0584 6.0584 0 0 1 .1476 1.7406l.1039.1568c.0583.0126.123.0237.1989.0341l.2667.0305.0208.003.1213.0149.0195-.0009.1262.005.212.0282.5138.1927c.2716.1864.4505.4872.4505.795l-.0221.147c-.1224.3978-.5029.6768-.9333.6768l-.0443-.0006a.726.726 0 0 1-.1204-.0132l-.0871-.0215-.0097-.0052-.1103-.021c-.1257-.0359-.225-.0748-.2742-.1049l-.0669-.0258-.0619-.0295-.0256-.0058-.3059-.1077-.1613-.0471-.0674-.0154-.0787.0398a5.9807 5.9807 0 0 1-.3459.7416l-.1775.2978c-.4522.7181-1.0329 1.3223-1.7136 1.7825l-.0081.0387-.0183.0573c.0318.0736.081.161.1639.2925l.1836.2839.1121.1488.0839.1306.1049.2036v.0114c.0738.1964.0777.4065.0273.6081-.0626.2505-.2296.4413-.4726.5793-.1239.0619-.2563.095-.3926.095-.2897 0-.5648-.1337-.752-.3636l-.1131-.1603-.0335-.0693-.0272-.0492a1.0249 1.0249 0 0 1-.0649-.1595l-.0393-.1356-.0497-.1505-.0039-.0239-.132-.35-.0612-.1442-.161-.0515a6.2236 6.2236 0 0 1-.3696.0941c-.419.1048-.8776.1557-1.346.1557a6.0148 6.0148 0 0 1-1.4942-.1895l-.29-.0824-.0758.0484-.0357.0121c-.0298.0552-.0587.1208-.0919.2082l-.1144.323-.1124.347-.029.072-.0626.0924-.0194.0575-.0152.0264c-.1763.2941-.4989.4927-.841.4927a.8569.8569 0 0 1-.3805-.0891c-.4437-.2071-.6272-.723-.4575-1.1903v-.0163l.034-.0627.0689-.1333.158-.232.0202-.025.0807-.121a7.4895 7.4895 0 0 0 .1952-.3159l.0797-.1468-.0172-.0345v-.0308l-.017-.0773a5.0895 5.0895 0 0 1-.3272-.2365c-.8359-.6577-1.4878-1.5347-1.881-2.5255H2.368l-.088-.059c-.0698.0144-.1493.0367-.2495.0697l-.281.0994-.0198.0035-.1526.0698a1.6883 1.6883 0 0 1-.183.0683l-.1627.0485-.0947.0223-.073.0111-.0647.0039-.153-.0054c-.4036-.0421-.7418-.3118-.8304-.7259-.0797-.4253.152-.845.545-1.0304l.1745-.0704.0631-.016.1309-.0193.1942-.0257.0774-.0059a.9862.9862 0 0 1 .1653-.0154l.3217-.0316.2054-.0298.1008-.1618c-.0843-1.1833.176-2.354.7585-3.3807v-.1657a2.4325 2.4325 0 0 0-.134-.0948l-.375-.2356-.0453-.0212a2.527 2.527 0 0 1-.2552-.147l.0159.0062-.0665-.0385-.0571-.0444-.1086-.0834c-.3643-.3392-.4385-.8985-.1482-1.2754.1669-.2336.4456-.3642.7307-.3642.1708 0 .34.046.4924.1338.14.1036.2212.1654.2437.1855l.1502.152.0564.0634.0748.0743.24.252.1385.13c.0211.0185.0413.0356.0606.0512l.0694-.0005c.778-.729 1.7316-1.2334 2.786-1.4662a5.108 5.108 0 0 1 .4457-.0777l.0876-.0875-.0042-.1186-.0429-.432-.0132-.0769-.0293-.1083a1.3643 1.3643 0 0 1-.0322-.2599l.0003-.1977c.0102-.2407.103-.4634.2723-.6327C7.482.1104 7.7185 0 7.9684 0ZM8 9c.5523 0 1-.4477 1-1s-.4477-1-1-1-1 .4477-1 1 .4477 1 1 1Zm-.0578 1.8782-.6553 1.1862a4.032 4.032 0 0 0 .6674.0568c.1432 0 .2867-.0086.4293-.0247l.2128-.0295-.6542-1.1888ZM5.8729 9.8624l-1.3494.2292c.1725.3131.386.6005.6327.8534l.1912.1831.5255-1.2657Zm4.1394-.0135.5336 1.2788a3.9095 3.9095 0 0 0 .5999-.6684l.1885-.2841.0566-.0937-1.3786-.2326Zm1.5487-3.1472-1.013.912 1.3093.3765a3.9276 3.9276 0 0 0-.0966-.6495 4.2202 4.2202 0 0 0-.1997-.639Zm-7.2284-.0056-.0929.2487a4.0346 4.0346 0 0 0-.1775.7776l-.025.2666 1.3184-.3816-1.023-.9113Zm2.537-2.2657-.2586.0827a3.7934 3.7934 0 0 0-.7228.349l-.2215.149 1.125.8037.0778-1.3844Zm2.1658.0046.07 1.3706 1.1204-.7954a3.768 3.768 0 0 0-.9367-.4942l-.2537-.081Z"/></g><defs><clipPath id="kubernetes-o--16-a"><path fill="#fff" d="M0 0h16v16H0z"/></clipPath></defs></svg>