<svg width="24" height="24" fill="currentColor" viewBox="0 0 24 24" xmlns="http://www.w3.org/2000/svg">
  <path d="m10.1565 4.063-6.0703-.0004-.0215 6.097 9.1824 9.1823 6.0946-6.0944zm1.0375-1.8792 10.6227 10.6218a.6243.6243 0 0 1 0 .8838l-8.1277 8.1275a.622.622 0 0 1-.4419.1831.623.623 0 0 1-.4418-.1831L2.183 11.195A.624.624 0 0 1 2 10.7506l.0288-8.1281A.6247.6247 0 0 1 2.6538 2l8.0983.0006a.623.623 0 0 1 .4419.1831m-2.8338 7.808c.9009 0 1.6312-.7303 1.6312-1.6312s-.7303-1.6312-1.6312-1.6312-1.6313.7303-1.6313 1.6312.7303 1.6313 1.6313 1.6313"/>
</svg>
