<svg width="32" height="32" fill="currentColor" viewBox="0 0 32 32" xmlns="http://www.w3.org/2000/svg">
  <path d="m27.2974 22.8595.1842 1.258c.2266 1.5483-.8448 2.9872-2.3931 3.2139a2.83 2.83 0 0 1-.7719.0067l-1.261-.1621a4.214 4.214 0 0 0-3.9175 1.6629l-.7593 1.0197c-.9346 1.2551-2.7097 1.515-3.9648.5804a2.83 2.83 0 0 1-.5505-.541l-.777-1.0063a4.214 4.214 0 0 0-3.946-1.5943l-1.258.1842c-1.5483.2266-2.9872-.8448-3.2139-2.3931a2.83 2.83 0 0 1-.0067-.7719l.1621-1.261a4.214 4.214 0 0 0-1.6629-3.9175l-1.0197-.7593C0.8863 17.4442 0.6264 15.669 1.561 14.414a2.83 2.83 0 0 1 .541-.5505l1.0063-.777a4.214 4.214 0 0 0 1.5943-3.946l-.1842-1.258c-.2266-1.5483.8448-2.9872 2.3931-3.2139a2.83 2.83 0 0 1 .7719-.0067l1.261.1621a4.214 4.214 0 0 0 3.9175-1.6629l.7593-1.0197C14.5558 0.8863 16.331 0.6264 17.586 1.561c.2073.1544.3926.3364.5505.541l.777 1.0063a4.214 4.214 0 0 0 3.946 1.5943l1.258-.1842c1.5483-.2266 2.9872.8448 3.2139 2.3931.0374.2558.0397.5155.0067.7719l-.1621 1.261a4.214 4.214 0 0 0 1.6629 3.9175l1.0197.7593c1.2551.9346 1.515 2.7097.5804 3.9648a2.83 2.83 0 0 1-.541.5505l-1.0063.777a4.214 4.214 0 0 0-1.5943 3.946m-2.018.3903a6.428 6.428 0 0 1 2.4316-6.0188l1.0176-.7856a.6982.6982 0 0 0-.0097-1.1126l-1.0311-.7678a6.428 6.428 0 0 1-2.5364-5.9754l.164-1.275a.6982.6982 0 0 0-.7937-.7799l-1.272.1862a6.428 6.428 0 0 1-6.0187-2.4317l-.7856-1.0175a.6982.6982 0 0 0-1.1126.0097l-.7678 1.031A6.428 6.428 0 0 1 8.5896 6.849l-1.275-.164a.6982.6982 0 0 0-.7799.7936l.1862 1.272a6.428 6.428 0 0 1-2.4317 6.0187l-1.0175.7856a.6982.6982 0 0 0 .0097 1.1127l1.031.7677a6.428 6.428 0 0 1 2.5365 5.9754l-.164 1.275a.6982.6982 0 0 0 .7936.78l1.272-.1863a6.428 6.428 0 0 1 6.0187 2.4317l.7856 1.0176a.6982.6982 0 0 0 1.1127-.0097l.7677-1.0311a6.428 6.428 0 0 1 5.9754-2.5364l1.275.164a.6982.6982 0 0 0 .78-.7937zm-12.5723-6.957L14 17.5859l5.2929-5.293c.3905-.3904 1.0237-.3904 1.4142 0 .3905.3906.3905 1.0238 0 1.4143l-6 6c-.3905.3905-1.0237.3905-1.4142 0l-2-2c-.3905-.3905-.3905-1.0237 0-1.4142s1.0237-.3905 1.4142 0"/>
</svg>
