<svg width="16" height="16" fill="currentColor" viewBox="0 0 16 16" xmlns="http://www.w3.org/2000/svg">
  <path d="M15.517 7.3563c-.0235.0821-.0235.0821-.0449.159-.0659.2391-.0928.3829-.0928.4847s.027.2456.0928.4846c.0214.077.0214.077.0449.1591.245.8586.303 1.2485.1147 1.8285-.1912.59-.4878.8952-1.175 1.4289-.3098.2406-.4213.34-.4836.4253-.0664.0911-.1265.228-.2556.5838-.3023.8328-.4944 1.1986-.9923 1.561-.4964.3617-.8972.4303-1.7805.4618-.3844.0138-.5372.0297-.649.0663-.0735.0238-.1819.0823-.3519.1943a15 15 0 0 0-.1927.1298c-.7152.486-1.105.6766-1.7298.6766-.6242 0-1.0136-.1904-1.7292-.6765a15 15 0 0 0-.1935-.1302c-.1697-.1117-.2781-.1702-.3544-.195-.109-.0356-.2616-.0515-.6258-.0646-.902-.0322-1.3027-.1008-1.7989-.4617-.4996-.363-.6924-.7299-.9923-1.5565-.1315-.3625-.1914-.4992-.2564-.5887-.0625-.0855-.174-.185-.4492-.3985-.7226-.5607-1.0194-.866-1.2108-1.4569-.1874-.58-.1293-.9693.1157-1.8271.0235-.0825.0235-.0825.045-.1598.066-.2389.0928-.3827.0928-.4845s-.0269-.2456-.0927-.4845C.55 7.4382.55 7.4382.5265 7.3557.2815 6.498.2234 6.1085.411 5.5278c.1912-.5902.4875-.8947 1.1758-1.4286.3093-.24.4209-.3394.4826-.424.0664-.0915.1264-.2283.255-.5832.3025-.8338.4954-1.201.9938-1.564.4975-.3628.8992-.4313 1.783-.4622.3831-.0134.5353-.029.6458-.065.0735-.0239.1819-.0824.3516-.194a15 15 0 0 0 .1935-.1303C7.0077.1905 7.3971 0 8.0213 0c.6248 0 1.0146.1907 1.7298.6766.1014.069.1431.0972.1927.1298.17.112.2784.1705.3521.1944.1093.0355.2616.051.6282.064.9025.0316 1.3045.1002 1.8017.4634.498.3633.6902.7297.9894 1.5555.1316.363.1916.5.2565.5892.0631.0864.1747.1858.4524.4013.72.5586 1.0162.863 1.2075 1.4533.1883.5804.1303.9704-.1146 1.8288m-2.2966-1.6778-.0313-.0243c-.4271-.3315-.6292-.5115-.8425-.8034-.2168-.2983-.3227-.54-.5178-1.0781-.1616-.4461-.237-.5897-.291-.6292-.0494-.036-.2075-.063-.676-.0794-.5726-.0201-.8434-.0479-1.1916-.1608-.2824-.0916-.5275-.224-.8352-.4265a16 16 0 0 1-.2168-.146C8.2384 2.0728 8.0896 2 8.0125 2c-.0765 0-.2254.0728-.6055.331a17 17 0 0 1-.2178.1465c-.3073.2021-.5523.3344-.8328.4253-.349.1137-.621.1417-1.176.1611-.4856.017-.643.0439-.6931.0804-.054.0393-.1294.1829-.2884.621-.198.546-.3038.7875-.5213 1.0868-.2116.2902-.4142.4708-.8413.8022l-.0325.0252c-.3638.2822-.4778.3993-.4987.464-.0172.0532.006.209.1357.663.0246.086.0246.086.05.1775.11.3987.1647.6914.1647 1.016s-.0547.6173-.1646 1.016c-.0255.0915-.0255.0915-.05.1775-.1297.454-.153.6098-.136.6623.0212.0656.1356.1832.499.4652l.0352.0273c.4244.3294.627.5101.8394.8009.2166.298.3224.5393.5173 1.0768.1618.4459.237.5892.291.6283.0499.0363.2075.0633.6745.08.574.0206.8472.049 1.1936.1624.282.0914.527.2237.8343.4258.0613.0404.1137.0758.2178.1465.38.2582.529.331.6055.331.0771 0 .2259-.0728.6057-.3308a16 16 0 0 1 .2168-.146c.3077-.2026.5528-.335.8324-.4256.3492-.1143.6226-.1427 1.177-.1626.4873-.0174.645-.0444.6946-.0805.053-.0386.1282-.1817.2872-.6198.1983-.5464.3045-.7884.5228-1.0875.2108-.2886.4132-.4692.8373-.7987l.035-.027c.3633-.2822.4776-.3998.4991-.4663.0172-.053-.006-.2087-.1355-.6627-.0244-.0856-.0244-.0856-.0498-.1766-.1099-.3989-.1646-.6913-.1646-1.0159s.0547-.617.1646-1.0159c.0254-.091.0254-.091.0498-.1766.1296-.454.1527-.6096.1355-.6627-.0215-.0663-.1356-.1836-.5-.4663M7.3117 8.586l2.293-2.293c.3905-.3904 1.0236-.3904 1.4141 0 .3906.3906.3906 1.0238 0 1.4143l-3 3c-.3905.3905-1.0236.3905-1.4142 0l-2-2c-.3905-.3905-.3905-1.0237 0-1.4142s1.0237-.3905 1.4142 0z"/>
</svg>
