<svg width="24" height="24" fill="currentColor" viewBox="0 0 24 24" xmlns="http://www.w3.org/2000/svg">
  <path d="M5 9c0-3.828 3.1518-7 7-7s7 3.172 7 7c0 2.4081-1.0622 4.4224-3 5.5947V16c0 1.1046-.8954 2-2 2H10c-1.1046 0-2-.8954-2-2v-1.4053C6.0622 13.4224 5 11.4081 5 9m2 0c0 1.887 .852 3.3374 2.4338 4.099A1 1 0 0 1 10 14v2h4v-2a1 1 0 0 1 .5662-.901C16.1481 12.3374 17 10.887 17 9c0-2.7262-2.2592-5-5-5S7 6.2738 7 9M4 5c-.5523 0-1-.4477-1-1s.4477-1 1-1 1 .4477 1 1-.4477 1-1 1M2 10c-.5523 0-1-.4477-1-1s.4477-1 1-1 1 .4477 1 1-.4477 1-1 1m2 5c-.5523 0-1-.4477-1-1s.4477-1 1-1 1 .4477 1 1-.4477 1-1 1m16 0c-.5523 0-1-.4477-1-1s.4477-1 1-1 1 .4477 1 1-.4477 1-1 1m0-10c-.5523 0-1-.4477-1-1s.4477-1 1-1 1 .4477 1 1-.4477 1-1 1m2 5c-.5523 0-1-.4477-1-1s.4477-1 1-1 1 .4477 1 1-.4477 1-1 1M10 19h4c.5523 0 1 .4477 1 1s-.4477 1-1 1H10c-.5523 0-1-.4477-1-1s.4477-1 1-1"/>
</svg>
