<svg width="24" height="24" fill="currentColor" viewBox="0 0 24 24" xmlns="http://www.w3.org/2000/svg">
  <path d="m16.1836 3.404-1.4342 1.4342C13.9582 4.31 13.012 4 12 4 9.2592 4 7 6.2738 7 9c0 1.0827.2805 2.0217.8184 2.7693l-1.427 1.427C5.4827 12.0681 5 10.6236 5 9c0-3.828 3.1518-7 7-7 1.5647 0 3.0142.5244 4.1836 1.404m1.412 1.4128C18.4765 5.9887 19 7.4398 19 9c0 2.4081-1.0622 4.4224-3 5.5947V16c0 1.1046-.8954 2-2 2H10c-1.1046 0-2-.8954-2-2v-1.4053a7 7 0 0 1-.1126-.0697l1.4657-1.4658q.04.0202.0807.0398A1 1 0 0 1 10 14v2h4v-2a1 1 0 0 1 .5662-.901C16.1481 12.3374 17 10.887 17 9c0-1.0092-.3096-1.9563-.8385-2.7491zM10 19h4c.5523 0 1 .4477 1 1s-.4477 1-1 1H10c-.5523 0-1-.4477-1-1s.4477-1 1-1M19.2951 2.2925c.39-.39 1.0224-.39 1.4124 0s.39 1.0224 0 1.4124L5.7049 18.7075c-.39.39-1.0224.39-1.4124 0s-.39-1.0224 0-1.4124z"/>
</svg>
