<svg width="24" height="24" fill="currentColor" viewBox="0 0 24 24" xmlns="http://www.w3.org/2000/svg">
  <path d="M6.3961 15.6257c-.3596-.0076-.6095.1324-.802.2964-.1359-.685-.0464-.9155.3496-1.9173.3815-.9573.8323-2.065 1.5322-3.1299.8484-1.2938 1.7685-1.9795 1.7018-2.9796C8.9101 4.171 8.695 2.3102 10.33 1.4527c1.5567-.8172 2.8576-.333 3.3726-.0538.2211.1205.6711.3536 1.007.7627.337.3988.6391 1.0051.808 1.772.3512 1.5355-.1427 1.0308.2524 2.7875.3908 1.7567 1.186 2.6183 2.1577 4.007.9683 1.392 1.9805 3.6824 1.6589 5.0095-.0406.1606-.1022.3493-.1807.556a.53.53 0 0 0-.1182-.0111.98.98 0 0 0-.2051.0239H19.08a.335.335 0 0 0-.1528.047c-.0177-.152-.2667-.2972-.46-.3784-.1993-.0802-.417-.1136-.417-.1136s-.2457-.0375-.4618-.0486c-.0718-.0026-.0634-.0034-.1478.0034.0904-.1478.4348-.801.3824-2.0949-.0624-1.538-1.7077-2.4245-1.7466-2.357-.0287.0487.4635.1622.9776.8548.46.6217.693 1.4493.601 2.1154-.0624.4543-.0979.6277-.1865.9309-.07.2288-.1638.4568-.2043.5585-.1511.0196-.3005.052-.3833.1093-.1485.0973-.2667.2553-.1823.2374.0844-.0196.1781-.1588.358-.2195.1789-.0563.4896-.0546.6094-.0478.1233.0051.4263.0393.6349.1085.2076.0708.3773.175.4651.3082.0279.0445.0532.0786.0794.1008-.0777.0794-.1528.1973-.2558.3604-.0515.0794-.114.1785-.1402.2127-.0641.0794-.3013.28-.4862.398-.1233.0785-.19.1135-.3976.1135-.0465 0-.0971 0-.1511-.0034-.2575-.0222-.3267-.0837-.423-.1674-.0143-.0128-.0295-.0256-.043-.0376l-.0279-.023c-.0937-.0846-.0937-.0846-.0878-.1503l.0101-.0914c.0338-.2904.0634-.567-.1342-.7643-.103-.106-.2195-.158-.352-.1854.0312-.286.0566-.6063.0566-.7993 0-.8967-.1039-1.8096-.3073-2.4817-.1874-.6269-.4846-1.0675-.7395-1.6346-.5116-1.1324-.4854-1.638-.9421-2.3613-.2449-.3971-.3166-.7302-.3977-.9659.146-.1981.2212-.4637.2449-.825.021-.316-.1554-.5132-.4002-.6498.0794-.105.1309-.2323.1714-.3826.1013-.3886.1063-.8173-.179-1.3212-.2668-.4816-.4204-.5585-.8079-.5892-.596-.053-.8762.3697-1.007.6704-.142.327-.1124.28-.103.6934.0008.0547.0041.1085.0084.1563a1.94 1.94 0 0 0-.3841-.0393 1.7 1.7 0 0 0-.1917.0111 2 2 0 0 1-.1426.0128c-.06.0051-.1208.0068-.1832.0171a2.8 2.8 0 0 0 .0093-.2562c0-.4304-.1309-.5756-.3327-.8574-.1924-.2682-.4972-.281-.6888-.246-.1106.018-.2541.1606-.3529.3724-.0641.1426-.1148.3228-.119.5115-.0127.509.0304.702.1435 1.0453a1.03 1.03 0 0 0 .1097.228l-.0337.0265c-.2702.2246-.5048.4202-.4905.8386.0076.3314.1967.5936.4263.8182-.0422.316-.054.3911-.054.83 0 .3553-.1604.3818-.5099.9207a4.1 4.1 0 0 0-.2524.4654c-.038.14-.0616.252-.0262.3706.1039.3579.6213.427.5943.5449-.027.1187-.4322.1768-.7192.3382-.1486.088-.238.2118-.4094.3689-.2474.5747-.7007 1.223-.8214 1.766-.1427.6457-.32 1.0582-.293 1.9241.0093.24.0144.3869.0304.4877-.1258-.14-.2667-.3066-.3385-.4526-.136-.2759-.2051-.6764-.1612-1.159.049-.5542.1544-.8633.4482-1.5815.3174-.7738.5547-.9463.4905-1.0214-.0507-.0598-.347.4987-.4483.7173-.271.585-.5031 1.1384-.58 1.837-.0565.5107.0051.8736.1436 1.1777.0346.0794.1182.1972.2144.3228-.341-.2972-.5344-.3058-.6357-.3058m13.9997 3.1415q.6126.3577.604.6737c-.0143.3562-.2379.537-.3366.636-.1959.1973-.7506.803-1.4057 1.254-.8256.572-1.1101.8249-1.3786 1.0999-.4162.4193-.8112.5627-1.446.5627-.6332 0-.9194-.134-1.1127-.3125-.1967-.1717-.4136-.6106-.3925-1.263.0177-.6525.2203-1.246.319-2.2555.0414-.4347.0389-.971.0389-1.45 0-.6022.0076-1.1154.135-1.1923.2297-.1477.2812-.1563.5538-.1563.2719 0 .3951.018.4846.1094.0853.0862.0515.2835.022.5627-.0262.281.1055.369.2372.4885.1317.1085.2524.2511.6677.2861.417.0316.5707-.0384.7657-.164.1967-.122.471-.3475.5749-.4765.097-.1255.3394-.556.3858-.556.0447 0 .3242-.0964.4812.1358.2642.387-.0076.8874.1832 1.2.3148.5046.3752.6772.6191.8173m-10.0223 1.981c.407.1051 1.0477.1495 2.032-.0375 1.0434-.1947 1.8623-.7711 2.4692-1.3416-.0464.3817-.1055.7071-.1578.9966-.0726.386-.1343.725-.1436 1.0871-.0059.1939.006.3715.0313.5346-1.0477-.2459-1.5027-.1853-2.7732-.1101-.8838.053-1.105.0247-1.3557.0922.0253-.1452.0346-.3185.0295-.5491-.0042-.2639-.0523-.4791-.1317-.6721m-1.9283-3.5368c.4263.3757 1.3102 1.0299 1.43 1.2331.1276.2067.2381.533.0465.8233-.0793.1144-.2524.1793-.4288.2152a9 9 0 0 1-.1511-.2331 108 108 0 0 1-.6433-1.041 79 79 0 0 0-.4213-.685c-.314-.4953-.5782-.8574-.802-1.129.0144.0137.0296.0257.0456.0402.2558.2152.52.4159.9244.7763m2.4502-8.4053c-.1908-.0709-.461-.397-.775-.6593-.314-.2579-.607-.5346-.6162-.8941-.0135-.3817.2338-.5098.5842-.813a1.5 1.5 0 0 1 .135-.1179c-.0945-.0222-.1224-.1101-.2389-.2305-.0464-.0556-.1865-.3015-.1865-.5073 0-.1298-.0296-.3169.081-.4791.0768-.1204.173-.176.3115-.176.1258 0 .287.0855.3655.2025.0794.1161.1402.2784.1402.4628 0 .1341-.0076.2699-.033.3886.06-.0367.1157-.0717.1689-.1.2127-.1058.3478-.0845.5698-.111.3107-.0392.7345.0376.9303.1854.0574.0435.1123.0785.1604.111-.0422-.146-.0532-.3442-.0532-.4987 0-.2375.0676-.404.1866-.5398.0912-.0965.2524-.1187.3875-.1187.32 0 .5056.2887.5698.6585.0253.1673-.0127.3603-.1148.4953-.0937.1272-.2474.2126-.3926.2391.4981.14 1.0173.2673.9877.6986-.0371.6063-.2119.8779-.709 1.0367-.401.1264-1.1144.8258-1.669.8258-.2457 0-.5901.0129-.7902-.0589M9.8722 7.7207a3 3 0 0 0 .4897.3202c.0954.047.33.1017.33.1017.223.0281.4331.023.569.023.3174 0 .715-.135 1.1304-.3373.4094-.2058.5065-.2878.796-.4569.2812-.1588.634-.3647.51-.4261-.1216-.0615-.2457.0264-.6492.2724-.3917.2417-.661.3911-1.0519.562-.1781.0785-.4179.1733-.5943.187-.1714.011-.3908.0093-.5242.0093-.1528 0-.3242-.064-.4846-.1212-.0988-.0376-.1942-.0965-.2338-.1298-.1368-.0863-.3774-.3203-.4584-.3758-.0254-.0068-.0971-.0017-.082.0478.0423.141.1326.2255.2533.3237m.3462-2.568c-.0245.053.0261.1016.0928.1853.0676.0837.0625.2101.135.182.0271-.0086.0178-.2221-.0328-.3143-.0515-.088-.1722-.0991-.195-.053m.6897.9138c-.1748.035-.1748.1059-.1917.1452-.0118.0367.0929.1101.1444.0572a3 3 0 0 1 .1545-.1102c.1055-.0674.0624-.117-.1072-.0922m1.0881-.0111c-.0633-.0419-.3697-.0504-.3444.011.0481.0974.1663.1094.2465.158.0777.0428.1199.0513.1503.0334.0666-.0333.016-.1606-.0524-.2024m1.0848-.9428c-.0675.064-.0034.1059.0726.181.043.053.0692.1887.1325.1332.0684-.0495.0684-.129-.0168-.2211-.082-.0931-.1537-.1281-.1883-.0931M7.977 17.6709c.3883.6174.4803.7882 1.0645 1.725.5816.9327 1.0966 1.1752 1.1092 1.9822.0135.8147-.119.6969-.5276 1.0684-.412.3698-.5571.597-1.2333.5465-.6762-.0572-1.6833-.6379-2.752-.8608-1.9957-.4219-2.3427-.5124-2.5613-.8788-.1174-.2066-.0794-.4082-.0203-.696.0422-.2288.1064-.5132.1064-.8856.0059-.8796-.2465-1.3527-.0043-1.678.2457-.3297 1.2148-.3033 1.5998-.5817.3824-.28.6492-.8505.8678-1.0726.2161-.2212.4128-.4125.7606-.404.4381.0129 1.2047 1.1214 1.5905 1.7354"/>
</svg>
