<svg width="32" height="32" fill="currentColor" viewBox="0 0 32 32" xmlns="http://www.w3.org/2000/svg">
  <path d="M9.023 20.1261c-.426-.009-.722.155-.95.347-.161-.802-.055-1.072.414-2.245.452-1.121.986-2.418 1.815-3.665 1.005-1.515 2.095-2.318 2.016-3.489-.317-4.361-.572-6.54 1.365-7.544 1.844-.957 3.385-.39 3.995-.063.262.141.795.414 1.193.893.399.467.757 1.177.957 2.075.416 1.798-.169 1.207.299 3.264.463 2.057 1.405 3.066 2.556 4.692 1.147 1.63 2.346 4.312 1.965 5.866-.048.188-.121.409-.214.651a.64.64 0 0 0-.14-.013c-.106 0-.195.018-.243.028h-.003c-.067.005-.126.022-.181.055-.021-.178-.316-.348-.545-.443-.236-.094-.494-.133-.494-.133s-.291-.044-.547-.057c-.085-.003-.075-.004-.175.004.107-.173.515-.938.453-2.453-.074-1.801-2.023-2.839-2.069-2.76-.034.057.549.19 1.158 1.001.545.728.821 1.697.712 2.477-.074.532-.116.735-.221 1.09-.083.268-.194.535-.242.654-.179.023-.356.061-.454.128-.176.114-.316.299-.216.278.1-.023.211-.186.424-.257.212-.066.58-.064.722-.056.146.006.505.046.752.127.246.083.447.205.551.361.033.052.063.092.094.118-.092.093-.181.231-.303.422-.061.093-.135.209-.166.249-.076.093-.357.328-.576.466-.146.092-.225.133-.471.133-.055 0-.115 0-.179-.004-.305-.026-.387-.098-.501-.196-.017-.015-.035-.03-.051-.044l-.033-.027c-.111-.099-.111-.099-.104-.176l.012-.107c.04-.34.075-.664-.159-.895-.122-.124-.26-.185-.417-.217.037-.335.067-.71.067-.936 0-1.05-.123-2.119-.364-2.906-.222-.734-.574-1.25-.876-1.914-.606-1.326-.575-1.918-1.116-2.765-.29-.465-.375-.855-.471-1.131.173-.232.262-.543.29-.966.025-.37-.184-.601-.474-.761.094-.123.155-.272.203-.448.12-.455.126-.957-.212-1.547-.316-.564-.498-.654-.957-.69-.706-.062-1.038.433-1.193.785-.168.383-.133.328-.122.812.001.064.005.127.01.183a2.3 2.3 0 0 0-.455-.046c-.079 0-.156.005-.227.013-.062.007-.118.013-.169.015-.071.006-.143.008-.217.02.008-.085.011-.185.011-.3 0-.504-.155-.674-.394-1.004-.228-.314-.589-.329-.816-.288-.131.021-.301.188-.418.436-.076.167-.136.378-.141.599-.015.596.036.822.17 1.224.035.1.078.188.13.267l-.04.031c-.32.263-.598.492-.581.982.009.388.233.695.505.958-.05.37-.064.458-.064.972 0 .416-.19.447-.604 1.078-.112.174-.21.357-.299.545-.045.164-.073.295-.031.434.123.419.736.5.704.638-.032.139-.512.207-.852.396-.176.103-.282.248-.485.432-.293.673-.83 1.432-.973 2.068-.169.756-.379 1.239-.347 2.253.011.281.017.453.036.571-.149-.164-.316-.359-.401-.53-.161-.323-.243-.792-.191-1.357.058-.649.183-1.011.531-1.852.376-.906.657-1.108.581-1.196-.06-.07-.411.584-.531.84-.321.685-.596 1.333-.687 2.151-.067.598.006 1.023.17 1.379.041.093.14.231.254.378-.404-.348-.633-.358-.753-.358m17.2622 4.0794c.205.128.498.247.488.617-.017.417-.222.528-.339.644-.232.231-1.4.812-2.176 1.34-.978.67-1.315.966-1.633 1.288-.493.491-.961.659-1.713.659-.75 0-1.089-.157-1.318-.366-.233-.201-.49-.715-.465-1.479.021-.764.261-1.459.378-2.641.049-.509.046-1.137.046-1.698 0-.705.009-1.306.16-1.396.272-.173.333-.183.656-.183.322 0 .468.021.574.128.101.101.061.332.026.659-.031.329.125.432.281.572.156.127.299.294.791.335.494.037.676-.045.907-.192.233-.143.558-.407.681-.558.115-.147.402-.651.457-.651.053 0 .384-.113.57.159.313.453-.009 1.039.217 1.405.373.591 1.123 1.194 1.412 1.358m-12.5507 1.919c.482.123 1.241.175 2.407-.044 1.236-.228 2.206-.903 2.925-1.571-.055.447-.125.828-.187 1.167-.086.452-.159.849-.17 1.273-.007.227.007.435.037.626-1.241-.288-1.78-.217-3.285-.129-1.047.062-1.309.029-1.606.108.03-.17.041-.373.035-.643-.005-.309-.062-.561-.156-.787m-2.2842-4.1417c.505.44 1.552 1.206 1.694 1.444.151.242.282.624.055.964-.094.134-.299.21-.508.252-.059-.088-.118-.176-.179-.273-.376-.595-.581-.926-.762-1.219-.149-.242-.289-.468-.499-.802-.372-.58-.685-1.004-.95-1.322.017.016.035.03.054.047.303.252.616.487 1.095.909m2.9024-9.8422c-.226-.083-.546-.465-.918-.772-.372-.302-.719-.626-.73-1.047-.016-.447.277-.597.692-.952.045-.043.099-.092.16-.138-.112-.026-.145-.129-.283-.27-.055-.065-.221-.353-.221-.594 0-.152-.035-.371.096-.561.091-.141.205-.206.369-.206.149 0 .34.1.433.237.094.136.166.326.166.542 0 .157-.009.316-.039.455.071-.043.137-.084.2-.117.252-.124.412-.099.675-.13.368-.046.87.044 1.102.217.068.051.133.092.19.13-.05-.171-.063-.403-.063-.584 0-.278.08-.473.221-.632.108-.113.299-.139.459-.139.379 0 .599.338.675.771.03.196-.015.422-.136.58-.111.149-.293.249-.465.28.59.164 1.205.313 1.17.818-.044.71-.251 1.028-.84 1.214-.475.148-1.32.967-1.977.967-.291 0-.699.015-.936-.069m-1.212-1.271c.177.142.393.28.58.375.113.055.391.119.391.119.264.033.513.027.674.027.376 0 .847-.158 1.339-.395.485-.241.6-.337.943-.535.333-.186.751-.427.604-.499-.144-.072-.291.031-.769.319-.464.283-.783.458-1.246.658-.211.092-.495.203-.704.219-.203.013-.463.011-.621.011-.181 0-.384-.075-.574-.142-.117-.044-.23-.113-.277-.152-.162-.101-.447-.375-.543-.44-.03-.008-.115-.002-.097.056.05.165.157.264.3.379m.41-3.007c-.029.062.031.119.11.217.08.098.074.246.16.213.032-.01.021-.26-.039-.368-.061-.103-.204-.116-.231-.062m.817 1.07c-.207.041-.207.124-.227.17-.014.043.11.129.171.067.069-.052.151-.109.183-.129.125-.079.074-.137-.127-.108m1.289-.013c-.075-.049-.438-.059-.408.013.057.114.197.128.292.185.092.05.142.06.178.039.079-.039.019-.188-.062-.237m1.285-1.104c-.08.075-.004.124.086.212.051.062.082.221.157.156.081-.058.081-.151-.02-.259-.097-.109-.182-.15-.223-.109M10.8956 22.521c.46.723.569.923 1.261 2.02.689 1.092 1.299 1.376 1.314 2.321.016.954-.141.816-.625 1.251-.488.433-.66.699-1.461.64-.801-.067-1.994-.747-3.26-1.008-2.364-.494-2.775-.6-3.034-1.029-.139-.242-.094-.478-.024-.815.05-.268.126-.601.126-1.037.007-1.03-.292-1.584-.005-1.965.291-.386 1.439-.355 1.895-.681.453-.328.769-.996 1.028-1.256.256-.259.489-.483.901-.473.519.015 1.427 1.313 1.884 2.032"/>
</svg>
