<svg xmlns="http://www.w3.org/2000/svg" fill="none" viewBox="0 0 16 16"><g clip-path="url(#local-backup-o--16-a)"><path fill="currentColor" d="M3 10c-.5523 0-1 .4477-1 1v2c0 .5523.4477 1 1 1h10c.5523 0 1-.4477 1-1v-2c0-.5523-.4477-1-1-1H3Zm10.117-1.9978L11.2623 2H4.7377L2.883 8.0022A3.0478 3.0478 0 0 1 3 8h10c.0392 0 .0782.0008.117.0022Zm2.6265 1.7821c.1649.3716.2565.783.2565 1.2157v2c0 1.6569-1.3431 3-3 3H3c-1.6568 0-3-1.3431-3-3v-2c0-.4327.0916-.8441.2565-1.2157a1.0058 1.0058 0 0 1 .038-.1795l2.5323-8.1952A2 2 0 0 1 4.7377 0h6.5246a2 2 0 0 1 1.9109 1.4096l2.5322 8.1952a1.005 1.005 0 0 1 .0381.1795ZM12 13c-.5523 0-1-.4477-1-1s.4477-1 1-1 1 .4477 1 1-.4477 1-1 1Zm-8-2h2c.5523 0 1 .4477 1 1s-.4477 1-1 1H4c-.5523 0-1-.4477-1-1s.4477-1 1-1Z"/></g><defs><clipPath id="local-backup-o--16-a"><path fill="#fff" d="M0 0h16v16H0z"/></clipPath></defs></svg>