<svg xmlns="http://www.w3.org/2000/svg" fill="none" viewBox="0 0 24 24"><g fill="currentColor" clip-path="url(#m365-shared-mailboxes-included--24-a)"><path d="M14.5478 5.9112c.8039 0 1.4556-.6517 1.4556-1.4556 0-.8039-.6517-1.4556-1.4556-1.4556-.804 0-1.4557.6517-1.4557 1.4556 0 .0212.0005.0424.0014.0633L10.31 6.1884a1.4489 1.4489 0 0 0-.8544-.277c-.804 0-1.4557.6516-1.4557 1.4556 0 .8039.6517 1.4556 1.4557 1.4556.3707 0 .7091-.1386.9661-.3668l2.6729 1.5431c.0437.7646.6776 1.3711 1.4532 1.3711.8039 0 1.4556-.6517 1.4556-1.4556 0-.804-.6517-1.4557-1.4556-1.4557a1.449 1.449 0 0 0-.7977.2379l-2.4416-1.4097 2.5672-1.5397c.201.1048.4296.164.6721.164Z"/><path d="M18.8944 6.5527c-.247-.494-.8477-.6942-1.3417-.4472-.494.247-.6942.8477-.4472 1.3417L19.3819 12h-3.3202a1.1 1.1 0 0 0-.9833.6069l-.696 1.3877-4.7648.0048-.6956-1.3913A1.1 1.1 0 0 0 7.9381 12H4.616l2.2777-4.5526c.247-.494.047-1.0947-.447-1.3418-.4939-.247-1.0946-.047-1.3417.447l-2.896 5.7887a1.9998 1.9998 0 0 0-.2114.8948v6.7786c0 1.1045.8954 2 2 2l8.6557-.0001-.1827-.2466c-.437-.5189-.7022-1.1266-.7957-1.7534l-7.6773.0001V14h3.3843l.696 1.3919c.1864.373.5679.6085.985.608l4.3234-.0043 1.2427-1.678.0618-.069C15.3345 13.5293 16.2439 13 17.4232 13h4.5629a2.0002 2.0002 0 0 0-.1971-.6579l-2.8946-5.7894Z"/><path d="M10 17h2.6425l-.1719.2321c-.4404.5229-.7063 1.136-.7979 1.7679H9.9999c-.5523 0-1-.4477-1-1s.4477-1 1-1Z"/><path fill-rule="evenodd" d="M16.1811 15.5823c.33-.3687.7233-.5823 1.2421-.5823l5.104.0001c.9594 0 1.4728.6163 1.4728 1.5v6c0 .8836-.5134 1.5-1.4728 1.5L17.4232 24c-.5188 0-.9121-.2136-1.2421-.5823l-2.1477-2.9c-.5289-.591-.5289-1.4443 0-2.0353l2.1477-2.9001Zm1.7374 3.9369c0 .5538-.4489 1.0027-1.0027 1.0027-.5538 0-1.0027-.4489-1.0027-1.0027 0-.5538.4489-1.0027 1.0027-1.0027.5538 0 1.0027.4489 1.0027 1.0027Z" clip-rule="evenodd"/></g><defs><clipPath id="m365-shared-mailboxes-included--24-a"><path fill="#fff" d="M0 0h24v24H0z"/></clipPath></defs></svg>