<svg xmlns="http://www.w3.org/2000/svg" fill="none" viewBox="0 0 24 24"><path fill="currentColor" fill-rule="evenodd" d="M22.527 15.0002c.9593 0 1.4726.6163 1.4726 1.4999V22.5c-.0002.8834-.5135 1.4999-1.4726 1.5h-5.1044c-.5187-.0001-.9123-.2143-1.2422-.583l-2.1474-2.8994c-.5289-.5909-.5289-1.4451 0-2.0361l2.1474-2.8993c.3299-.3687.7235-.5819 1.2422-.582h5.1044Zm-5.5322 3.5155c-.5536.0002-1.0018.4493-1.0019 1.0029 0 .5537.4483 1.0028 1.0019 1.0029.5538 0 1.0029-.4491 1.0029-1.0029 0-.5537-.4491-1.0029-1.0029-1.0029Z" clip-rule="evenodd"/><path fill="currentColor" d="M12.4578 17.2491c-1.0934 1.3139-1.0932 3.187 0 4.5009l.7871 1.0625c-.4068.1232-.8262.1875-1.2451.1875-.768 0-1.5408-.206-2.2265-.622l-4.083-2.4736c.768-.0183 1.5317-.242 2.2266-.667l5.6122-3.4355-1.0713 1.4472ZM8.2098 2.5316c-.329.6308-.5077 1.3438-.5078 2.0888v7.1142c0 1.4949.7958 2.9031 2.0713 3.6757l1.33.8047-3.666 2.2402c-1.1291.6902-2.4917.7174-3.6483.0683-.5531-.3108-1.002-.74-1.3174-1.2519-.3382-.6217-.5302-1.3308-.5302-2.0576V8.7444c0-1.4949.7961-2.9031 2.0761-3.6757l4.1923-2.537ZM20.1559 12.9602c.0213.0126.0416.0269.0625.04h-2.7958c-.534 0-1.0128.1083-1.4365.2939.2015-.5021.3114-1.0434.3115-1.5956v-1.0469l3.8583 2.3086Z"/><path fill="currentColor" d="M10.4403 1.4799c.7772-.4435 1.6558-.581 2.497-.4072.2331.0457.4665.1188.6904.2148.2057.0823.4067.179.5986.2978l5.7558 3.4834c1.28.7726 2.076 2.1809 2.0761 3.6757l-.0039 4.2558h-.4228c-.286-.3175-.6236-.5956-1.0049-.8262l-6.5282-3.9052a4.1197 4.1197 0 0 0-4.202-.0137l-1.2793.755V4.6204c0-1.3164.6806-2.4869 1.8232-3.1406Z"/></svg>