<svg width="24" height="24" fill="currentColor" viewBox="0 0 24 24" xmlns="http://www.w3.org/2000/svg">
  <path d="M9.7993 8.018c-.1645-.02-.2993.1163-.2993.282v2a.2.2 0 0 1-.2.2h-2c-.1657 0-.3019.1348-.282.2993A2.4999 2.4999 0 1 0 9.7993 8.018M13 9c0-.5523.4477-1 1-1h2c.5523 0 1 .4477 1 1s-.4477 1-1 1h-2c-.5523 0-1-.4477-1-1m1 2c-.5523 0-1 .4477-1 1s.4477 1 1 1h2c.5523 0 1-.4477 1-1s-.4477-1-1-1z"/>
  <path fill-rule="evenodd" d="M12 2c.5523 0 1 .4477 1 1v1h9c.5523 0 1 .4477 1 1s-.4477 1-1 1h-1v9.9c0 .6075-.4925 1.1-1.1 1.1h-4.68l.7608 3.8039c.1083.5415-.2429 1.0684-.7845 1.1767s-1.0684-.2429-1.1767-.7845L13.1804 17H10.82l-.8392 4.1961c-.1083.5416-.6352.8928-1.1767.7845s-.8928-.6352-.7845-1.1767L8.7804 17H4.1c-.6075 0-1.1-.4925-1.1-1.1V6H2c-.5523 0-1-.4477-1-1s.4477-1 1-1h9V3c0-.5523.4477-1 1-1M5 6h14v9h-4.9793a1 1 0 0 0-.0389 0h-3.9632a1 1 0 0 0-.039 0H5z"/>
</svg>
