<svg width="16" height="16" fill="currentColor" viewBox="0 0 16 16" xmlns="http://www.w3.org/2000/svg">
  <path d="m4.0692 11.4074 1.1895-.5255c.3338-.197.5402-.5633.5402-.9596v-4.108c0-.4573.2729-.8677.6867-1.0318l3.5115-1.2196v7.4127l.2517-.314.0326-.0337c.3641-.376.8514-.6279 1.465-.6279H14V3.579c0-.6609-.4457-1.241-1.0905-1.419L9.0131 1.0806c-.2147-.0708-.6159-.1806-1.134.1096L3.7403 3.5297C3.2837 3.7889 3 4.2836 3 4.821v5.9465c0 .5657.5927.9205 1.0692.6399m4.9895 3.4461-.1062-.1327c-.643-.7026-.643-1.739 0-2.4416l.3425-.4274H5.75c-.3194 0-.6231.2064-.7116.5303-.0952.3482.0567.6966.3373.8596l2.1657 1.5552c.4133.2274.8566.2537 1.2513.1294z"/>
  <path fill-rule="evenodd" d="M11.7464 11c-.3118 0-.5483.1187-.7466.3235l-1.2911 1.6111c-.318.3284-.318.8024 0 1.1308l1.2911 1.6111c.1983.2048.4348.3235.7466.3235h3.368c.5768 0 .8854-.3424.8854-.8333v-3.3334c0-.4909-.3086-.8333-.8854-.8333zM11.5 14a.5.5 0 1 0-.0001-1.0001A.5.5 0 0 0 11.5 14"/>
</svg>
