<svg width="24" height="24" fill="currentColor" viewBox="0 0 24 24" xmlns="http://www.w3.org/2000/svg">
  <path d="m5.5274 16.8677 1.6993-.7507c.4768-.2814.7717-.8047.7717-1.3709V8.8775c0-.6533.3898-1.2395.981-1.474l5.0165-1.7422v9.5112l.6331-.8549.0618-.069c.6437-.7193 1.5531-1.2487 2.7324-1.2487L20 13V5.6843c0-.944-.6367-1.7728-1.5579-2.0272l-5.852-1.542c-.3067-.1011-.8798-.258-1.6199.1566l-5.9126 3.342C4.4053 5.9842 4 6.691 4 7.4586v8.4951c0 .8082.8467 1.315 1.5274.9141m6.9902 4.9636-.047-.0635c-1.0379-1.2325-1.1069-2.9663-.207-4.2654H7.9984c-.4563 0-.8902.2949-1.0166.7577-.136.4973.081.9951.4818 1.228l3.0242 2.2216c.5903.3248 1.2237.3625 1.7875.1849z"/>
  <path fill-rule="evenodd" d="M17.4232 14.9999c-.5188 0-.9121.2136-1.2421.5824l-2.1477 2.9c-.5289.591-.5289 1.4443 0 2.0353l2.1477 2.9c.33.3687.7233.5823 1.2421.5823l5.104.0001C23.4866 24 24 23.3837 24 22.5v-6c0-.8837-.5134-1.5-1.4728-1.5zm-.4278 5.522c.5538 0 1.0027-.449 1.0027-1.0028s-.4489-1.0027-1.0027-1.0027-1.0027.449-1.0027 1.0027c0 .5538.4489 1.0028 1.0027 1.0028"/>
</svg>
