<svg width="24" height="24" fill="currentColor" viewBox="0 0 24 24" xmlns="http://www.w3.org/2000/svg">
  <path d="M12 2c.5523 0 1 .4477 1 1v1h9c.5523 0 1 .4477 1 1s-.4477 1-1 1h-1v7h-2V6H5v9h4.9797a1 1 0 0 1 .0389 0h3.9632a1 1 0 0 1 .0389 0h.103l-1.4812 2H10.82l-.8392 4.1961c-.1083.5416-.6352.8928-1.1767.7845s-.8928-.6352-.7845-1.1767L8.7804 17H4.1c-.6075 0-1.1-.4925-1.1-1.1V6H2c-.5523 0-1-.4477-1-1s.4477-1 1-1h9V3c0-.5523.4477-1 1-1"/>
  <path d="M9.7993 8.018c-.1645-.02-.2993.1163-.2993.282v2a.2.2 0 0 1-.2.2h-2c-.1657 0-.3019.1348-.282.2993A2.4999 2.4999 0 1 0 9.7993 8.018M14 8c-.5523 0-1 .4477-1 1s.4477 1 1 1h2c.5523 0 1-.4477 1-1s-.4477-1-1-1zm0 3c-.5523 0-1 .4477-1 1s.4477 1 1 1h2c.5523 0 1-.4477 1-1s-.4477-1-1-1z"/>
  <path fill-rule="evenodd" d="M16.1811 15.5823c.33-.3687.7233-.5823 1.2421-.5823l5.104.0001c.9594 0 1.4728.6163 1.4728 1.5v6c0 .8836-.5134 1.5-1.4728 1.5L17.4232 24c-.5188 0-.9121-.2136-1.2421-.5823l-2.1477-2.9c-.5289-.591-.5289-1.4443 0-2.0353zm1.7374 3.9369c0 .5538-.4489 1.0027-1.0027 1.0027s-1.0027-.4489-1.0027-1.0027.4489-1.0027 1.0027-1.0027 1.0027.4489 1.0027 1.0027"/>
</svg>
