<svg width="24" height="24" fill="currentColor" viewBox="0 0 24 24" xmlns="http://www.w3.org/2000/svg">
  <path d="M1 4.853c0-.549 .427-1.1034 .9617-1.2404L12.0383 1.0302C12.5694 0.894 13 1.2318 13 1.7765V22.223c0 .5483-.427 .8833-.9617 .7463L1.9617 20.387C1.4306 20.251 1 19.688 1 19.1465zm2 13.7354 8 2.0502V3.361l-8 2.05zM7 16c-1.6569 0-3-1.7909-3-4s1.3431-4 3-4 3 1.7909 3 4-1.3431 4-3 4m0-2c.4069 0 1-.7909 1-2s-.5931-2-1-2-1 .7909-1 2 .5931 2 1 2m5.5547-3.832 2.4858 1.6571 6.4634-3.6933c.4795-.274 1.0903-.1075 1.3643 .372 .274 .4796 .1075 1.0904-.372 1.3644l-7 4a1 1 0 0 1-1.0509-.0361l-3-2c-.4595-.3064-.5837-.9273-.2774-1.3868s.9273-.5837 1.3868-.2774M21 6h-8V4h9.0044C22.5543 4 23 4.4446 23 5.0009V18.999c0 .553-.4448 1.001-.9956 1.001H13v-2h8z"/>
</svg>
