<svg width="24" height="24" fill="currentColor" viewBox="0 0 24 24" xmlns="http://www.w3.org/2000/svg">
  <path d="M16 4h1a1 1 0 0 1 .8944.5528l3.9472 7.8944A1.5 1.5 0 0 1 22 13.118V20c0 1.1046-.8954 2-2 2H4c-1.1046 0-2-.8954-2-2v-6.882a1.5 1.5 0 0 1 .1584-.6708l3.9472-7.8944A1 1 0 0 1 7 4h1c.5523 0 1 .4477 1 1s-.4477 1-1 1h-.382l-3 6H8a1 1 0 0 1 .8944.5528L9.618 14h4.764l.7236-1.4472A1 1 0 0 1 16 12h3.382l-3-6H16c-.5523 0-1-.4477-1-1s.4477-1 1-1m4 10h-3.382l-.7236 1.4472A1 1 0 0 1 15 16H9a1 1 0 0 1-.8944-.5528L7.382 14H4v6h16zm-10 3h4c.5523 0 1 .4477 1 1s-.4477 1-1 1h-4c-.5523 0-1-.4477-1-1s.4477-1 1-1m1-9V3c0-.5523.4477-1 1-1s1 .4477 1 1v5h1.7929a.5.5 0 0 1 .3535.8536l-2.7928 2.7928a.5.5 0 0 1-.7072 0L8.8536 8.8536A.5.5 0 0 1 9.207 8z"/>
</svg>
