<svg width="16" height="16" fill="currentColor" viewBox="0 0 16 16" xmlns="http://www.w3.org/2000/svg">
  <path d="M3.3218 9h1.6368a1.1 1.1 0 0 1 .7778.3222L6.4142 10h3.1876l.6778-.6778A1.1 1.1 0 0 1 11.0574 9h1.6208l-1.413-4h-.2022c-.5523 0-1-.4477-1-1s.4477-1 1-1h.9588a1 1 0 0 1 .9623.728l1.9782 6A1 1 0 0 1 15 10v4c0 .5523-.4477 1-1 1H2c-.5523 0-1-.4477-1-1v-4a1 1 0 0 1 .0377-.272l1.9781-6A1 1 0 0 1 3.9782 3h1.0071c.5523 0 1 .4477 1 1s-.4477 1-1 1h-.2506zM3 11v2h10v-2h-1.5698l-.6778.6778A1.1 1.1 0 0 1 9.9746 12H6.0414a1.1 1.1 0 0 1-.7778-.3222L4.5858 11zm4-5V2c0-.5523.4477-1 1-1s1 .4477 1 1v4h.7929a.5.5 0 0 1 .3535.8536L8.3536 8.6464a.5.5 0 0 1-.7072 0L5.8536 6.8536A.5.5 0 0 1 6.207 6z"/>
</svg>
