<svg width="16" height="16" fill="currentColor" viewBox="0 0 16 16" xmlns="http://www.w3.org/2000/svg">
  <path d="M16 6.0166v6.9836c0 .5523-.4477 1-1 1H9v1c0 .6085-.539 1.076-1.1414.99l-7-1a1 1 0 0 1-.8586-.99v-12a1 1 0 0 1 .8586-.99l7-1C8.461-.0758 9 .3916 9 1.0002v1h6c.5523 0 1 .4477 1 1v2.9817a1 1 0 0 1 0 .0347M9 7.3822l.9562.478L14 5.434V4.0002H9zm0 2.236v2.382h5V7.7664l-3.4855 2.0913a1 1 0 0 1-.9617.037zM7 7.9785V2.1532l-5 .7143v10.2654l5 .7143V8.0203a1 1 0 0 1 0-.0418m-2.5 3.0217c-.8284 0-1.5-1.3432-1.5-3s.6716-3 1.5-3 1.5 1.3431 1.5 3-.6716 3-1.5 3m0-1c.0877 0 .5-.8246.5-2s-.4123-2-.5-2-.5.8246-.5 2 .4123 2 .5 2"/>
</svg>
