<svg width="24" height="24" fill="currentColor" viewBox="0 0 24 24" xmlns="http://www.w3.org/2000/svg">
  <path d="M9.0002 22c-.5522 0-1-.4477-1-1s.4478-1 1-1H11l.0002-2 .0029-.0589c-1.4079-.1666-2.7563-.6838-3.914-1.5109-1.428-1.0205-2.493-2.4611-3.0386-4.1173-.1728-.5246.1123-1.0899.6369-1.2627.5245-.1728 1.0899.1124 1.2627.6369.4111 1.2481 1.2157 2.3396 2.3019 3.1158 1.0864.7764 2.3978 1.1964 3.746 1.1971s2.66-.4178 3.7473-1.193c1.0871-.775 1.893-1.8657 2.3055-3.1133.1734-.5244.739-.8089 1.2634-.6355.5243.1734.809.739.6355 1.2634-.5475 1.6556-1.6142 3.095-3.0434 4.1139-1.1568.8248-2.5036 1.3402-3.9095 1.506l.0028.0289L13 20h2.0002c.5523 0 1 .4477 1 1s-.4477 1-1 1zm3-20c2.2091 0 4 1.7909 4 4v4c0 2.2091-1.7909 4-4 4s-4-1.7909-4-4V6c0-2.2091 1.7909-4 4-4m0 2c-1.1046 0-2 .8954-2 2v4c0 1.1046.8954 2 2 2s2-.8954 2-2V6c0-1.1046-.8954-2-2-2"/>
</svg>
