<svg xmlns="http://www.w3.org/2000/svg" fill="none" viewBox="0 0 16 16"><g clip-path="url(#mobile-devices-o--16-a)"><path fill="currentColor" d="M13 5h2c.5523 0 1 .4477 1 1v9c0 .5523-.4477 1-1 1H1c-.5523 0-1-.4477-1-1V1c0-.5523.4477-1 1-1h11c.5523 0 1 .4477 1 1v4Zm-2 0V2H2v9h6V6c0-.5523.4477-1 1-1h2Zm3 9V7h-4v7h4Zm-6 0v-1H2v1h6ZM5.5 3h2a.5.5 0 0 1 0 1h-2a.5.5 0 0 1 0-1ZM12 13c-.5523 0-1-.4477-1-1s.4477-1 1-1 1 .4477 1 1-.4477 1-1 1Z"/></g><defs><clipPath id="mobile-devices-o--16-a"><path fill="#fff" d="M0 0h16v16H0z"/></clipPath></defs></svg>