<svg xmlns="http://www.w3.org/2000/svg" fill="none" viewBox="0 0 24 24"><path fill="currentColor" fill-rule="evenodd" d="M9.8994 1.5354c1.5005-.8941 3.2008-.529 4.4326.1397l5.2686 2.8594c1.5987.868 2.5936 2.5445 2.5937 4.3652v6.1767c0 .0366 0 .0747-.0009.1133-.0005.0181-.0025.0359-.0039.0537-.049 1.7669-1.0319 3.3813-2.5909 4.2266l-5.2685 2.8564a4.9434 4.9434 0 0 1-4.713 0L4.3487 19.47a4.92 4.92 0 0 1-.3955-.2393c-.0116-.0078-.022-.0172-.0332-.0254-1.5147-.936-2.1356-2.5689-2.1357-4.1806V8.9173c0-1.8062.9962-3.4628 2.5879-4.3223l5.4336-3.0137a1.0178 1.0178 0 0 1 .0937-.0459Zm6.3672 10.3584c-.0003 1.8203-.9954 3.4961-2.5947 4.3633l-5.2686 2.8564a4.9721 4.9721 0 0 1-.2676.1338l2.4346 1.3213a2.9444 2.9444 0 0 0 2.8067 0l5.2685-2.8574c.9379-.5086 1.5276-1.4859 1.5459-2.5547-.0347-1.0816-.6539-2.0605-1.6182-2.5498l-2.3066-1.1699v.457ZM5.3428 6.344 5.33 6.351c-.9554.5123-1.546 1.499-1.546 2.5664v6.1074c.0002 1.1242.4135 2.003 1.1954 2.4853a2.9431 2.9431 0 0 0 2.4707-.1543l2.4775-1.3447c-1.3962-.908-2.246-2.4711-2.246-4.1553V9.9866c0-.0346.0014-.0689.0048-.1025-.0018-.0247-.0048-.0493-.0049-.0743V5.6673c0-.2172.0144-.4326.042-.6446L5.3428 6.344Zm7.9619 3.5918a2.9412 2.9412 0 0 0-2.502-.0742l-.1582.0742-.9629.4873v1.4326c.0001 1.0789.5819 2.0671 1.5098 2.583l.8076.4493.7198-.3897c.9524-.5167 1.5475-1.5163 1.5478-2.6045v-1.4707l-.9619-.4873Zm.0732-6.503c-.9097-.4937-1.8063-.5708-2.4638-.1757-.7673.5517-1.2324 1.4467-1.2325 2.4102v2.5136l.0586-.0293a4.9415 4.9415 0 0 1 4.4688 0l5.2685 2.6709c.2542.1289.4929.2806.7168.4473V8.8997c-.0001-1.0895-.5956-2.0902-1.5478-2.6074l-5.2686-2.8594Z" clip-rule="evenodd"/></svg>