<svg xmlns="http://www.w3.org/2000/svg" fill="none" viewBox="0 0 32 32"><path fill="currentColor" d="M0 1.5C0 .6716.7355 0 1.6429 0H21.357C22.2645 0 23 .6716 23 1.5v8.5244A20.4243 20.4243 0 0 0 22 10c-3.3312 0-6.2382.8053-7.7944 2H0V1.5ZM13 14H0v1.75c0 .9665.7355 1.75 1.6429 1.75h6.5714l-.6939 2.9564c-.0648.2761.1313.5436.3985.5436H13v-7ZM22 11c-4.42 0-8 1.57-8 3.5s3.58 3.5 8 3.5 8-1.57 8-3.5-3.58-3.5-8-3.5Z"/><path fill="currentColor" d="M22 19.3c-4.42 0-8-1.64-8-3.65v3.7c0 2 3.58 3.65 8 3.65s8-1.63 8-3.65v-3.7c0 2.01-3.58 3.65-8 3.65Z"/><path fill="currentColor" d="M22 24.3c-4.42 0-8-1.64-8-3.65v3.7c0 2 3.58 3.55 8 3.55s8-1.53 8-3.55v-3.7c0 2.01-3.58 3.65-8 3.65Z"/></svg>