<svg xmlns="http://www.w3.org/2000/svg" fill="none" viewBox="0 0 32 32"><path fill="currentColor" d="M21.5879 22.9114a.9975.9975 0 0 1-.295-.2043l-10-10c-.3905-.3905-.3905-1.0237 0-1.4142.3905-.3905 1.0237-.3905 1.4142 0l10 10a.9975.9975 0 0 1 .2043.295A3.9815 3.9815 0 0 1 25 21c2.2091 0 4 1.7909 4 4 0 2.2091-1.7909 4-4 4-2.2091 0-4-1.7909-4-4 0-.7654.215-1.4807.5879-2.0886ZM24 10.874c-1.7252-.4441-3-2.0102-3-3.874 0-2.2091 1.7909-4 4-4 2.2091 0 4 1.7909 4 4 0 1.8638-1.2748 3.4299-3 3.874V18c0 .5523-.4477 1-1 1s-1-.4477-1-1v-7.126ZM6 21.126V14c0-.5523.4477-1 1-1s1 .4477 1 1v7.126c1.7252.4441 3 2.0102 3 3.874 0 2.2091-1.7909 4-4 4-2.2091 0-4-1.7909-4-4 0-1.8638 1.2748-3.4299 3-3.874ZM7 11c-2.2091 0-4-1.7909-4-4 0-2.2091 1.7909-4 4-4 2.2091 0 4 1.7909 4 4 0 2.2091-1.7909 4-4 4Zm0-2c1.1046 0 2-.8954 2-2s-.8954-2-2-2-2 .8954-2 2 .8954 2 2 2Zm18 18c1.1046 0 2-.8954 2-2s-.8954-2-2-2-2 .8954-2 2 .8954 2 2 2Zm0-18c1.1046 0 2-.8954 2-2s-.8954-2-2-2-2 .8954-2 2 .8954 2 2 2ZM7 27c1.1046 0 2-.8954 2-2s-.8954-2-2-2-2 .8954-2 2 .8954 2 2 2Z"/></svg>