<svg xmlns="http://www.w3.org/2000/svg" fill="none" viewBox="0 0 32 32"><path fill="currentColor" d="M13.6459 4c.8178 0 1.5532.4979 1.857 1.2572l1.2456 3.1142A1 1 0 0 0 17.677 9H25c1.1045 0 2 .8954 2 2v2H5V6c0-1.1046.8954-2 2-2h6.6459ZM27 15H5v5.5c0 .8284.6716 1.5 1.5 1.5H15v2h-1c-.5523 0-1 .4477-1 1H7c-.5523 0-1 .4477-1 1s.4477 1 1 1h6c0 .5523.4477 1 1 1h4c.0843 0 .1661-.0105.2443-.0301A8.0193 8.0193 0 0 1 18 26a8.02 8.02 0 0 1 .2443-1.97A1.0035 1.0035 0 0 0 18 24h-1v-2h2.0702c1.3833-2.3912 3.9686-4 6.9298-4a8.07 8.07 0 0 1 1 .0619V15Z"/></svg>