<svg width="16" height="16" fill="none" viewBox="0 0 16 16" xmlns="http://www.w3.org/2000/svg">
  <g fill="#2668C5" clip-path="url(#network-monitoring-advanced--16_svg__a)">
    <path fill-rule="evenodd" d="M16 13c0 1.6569-1.3431 3-3 3s-3-1.3431-3-3 1.3431-3 3-3 3 1.3431 3 3m-3.3536-1.8536-1 1a.5.5 0 0 0 0 .7072.5.5 0 0 0 .7072 0l.1464-.1465V14.5a.5.5 0 0 0 1 0v-1.7929l.1464.1465a.5.5 0 0 0 .7072 0 .5.5 0 0 0 0-.7072l-.9998-.9997a.5005.5005 0 0 0-.7074-.0003" clip-rule="evenodd"/>
    <path d="M15 0c.5523 0 1 .4477 1 1v8a4.978 4.978 0 0 0-3-1c-2.139 0-3.9636 1.3435-4.6777 3.2324a1 1 0 0 1-.2842-.4599L6.7227 6.166c-.046-.161-.2582-.1977-.3555-.0615L5.3135 7.579a1 1 0 0 1-.8135.419H2.2002A.2003.2003 0 0 0 2 8.1982v3.5967c0 .1105.0897.2002.2002.2002h5.9004A5.02 5.02 0 0 0 8 13c0 .3408.0346.6735.0996.9951H1c-.5523 0-1-.4477-1-1V1c0-.5523.4477-1 1-1zM2.2002 2A.2003.2003 0 0 0 2 2.2002v3.5977c0 .1104.0897.2001.2002.2001h1.7851l2.2012-3.081a1 1 0 0 1 .9834-.4043 1.001 1.001 0 0 1 .792.711L9.2773 7.83c.046.161.2582.1978.3555.0615l1.0537-1.4746a1 1 0 0 1 .8135-.419h2.2998A.2003.2003 0 0 0 14 5.798V2.2002A.2003.2003 0 0 0 13.7998 2z"/>
  </g>
  <defs>
    <clipPath id="network-monitoring-advanced--16_svg__a">
      <path fill="#fff" d="M0 0h16v16H0z"/>
    </clipPath>
  </defs>
</svg>
