<svg width="24" height="24" fill="none" viewBox="0 0 24 24" xmlns="http://www.w3.org/2000/svg">
  <path fill="#2668C5" d="M19.9004 0C21.0599.0002 21.9998.9401 22 2.0996v8.9727C20.8231 10.3913 19.4575 10 18 10c-2.937 0-5.5032 1.5834-6.8945 3.9424a1 1 0 0 1-.0821-.2256L9.5771 7.2061c-.0367-.1652-.2496-.2127-.3535-.0792L7.2891 9.6144A1 1 0 0 1 6.5 10H2.4004A.4007.4007 0 0 0 2 10.4004V15.5a.5.5 0 0 0 .5.5h7.752A8 8 0 0 0 10 18H2.0996C.9401 17.9998.0002 17.0599 0 15.9004V2.0996C.0002.9401.9401.0002 2.0996 0zM2.5 2a.5.5 0 0 0-.5.5v5.0996c0 .221.1795.4004.4004.4004H5.913a.2.2 0 0 0 .1582-.0771l3.1396-4.0372a1 1 0 0 1 1.0088-.3613c.3778.085.6729.3808.7569.7588l1.4463 6.5107c.0367.1652.2496.2127.3535.0791l1.9345-2.4873A1 1 0 0 1 15.5 8h4.0996A.4007.4007 0 0 0 20 7.5996V2.5a.5.5 0 0 0-.5-.5z"/>
  <path fill="#2668C5" fill-rule="evenodd" d="M24 18c0 3.3137-2.6863 6-6 6s-6-2.6863-6-6 2.6863-6 6-6 6 2.6863 6 6m-5 3v-3.5858l1.2929 1.2929c.3905.3905 1.0237.3905 1.4142 0s.3905-1.0237 0-1.4142l-3-3c-.3905-.3905-1.0237-.3905-1.4142 0l-3 3c-.3905.3905-.3905 1.0237 0 1.4142s1.0237.3905 1.4142 0L17 17.4142V21c0 .5523.4477 1 1 1s1-.4477 1-1" clip-rule="evenodd"/>
</svg>
