<svg width="16" height="16" fill="currentColor" viewBox="0 0 16 16" xmlns="http://www.w3.org/2000/svg">
  <path fill-rule="evenodd" d="M2 2C.8954 2 0 2.8954 0 4v4c0 1.1046.8954 2 2 2h5v1.2676A2.01 2.01 0 0 0 6.2676 12H3c-.5523 0-1 .4477-1 1s.4477 1 1 1h3.2676c.3458.5978.9921 1 1.7324 1s1.3866-.4022 1.7324-1H13c.5523 0 1-.4477 1-1s-.4477-1-1-1H9.7324A2.01 2.01 0 0 0 9 11.2676V10h5c1.1046 0 2-.8954 2-2V4c0-1.1046-.8954-2-2-2zm0 2h12v4H2zm3 2c0 .5523-.4477 1-1 1s-1-.4477-1-1 .4477-1 1-1 1 .4477 1 1m3 0c0 .5523-.4477 1-1 1s-1-.4477-1-1 .4477-1 1-1 1 .4477 1 1m5 0c0 .5523-.4477 1-1 1s-1-.4477-1-1 .4477-1 1-1 1 .4477 1 1"/>
</svg>
