<svg width="24" height="24" fill="currentColor" viewBox="0 0 24 24" xmlns="http://www.w3.org/2000/svg">
  <path fill-rule="evenodd" d="M6.2797 2a3 3 0 0 0-2.724 1.7428l-2.2213 4.813a1.493 1.493 0 0 0-.3339.9051A1 1 0 0 0 1 9.5214V14.5c0 .8284.6716 1.5 1.5 1.5H11v2.2676a2.01 2.01 0 0 0-.7324.7324H5c-.5523 0-1 .4477-1 1s.4477 1 1 1h5.2676c.3458.5978.9921 1 1.7324 1s1.3866-.4022 1.7324-1H19c.5523 0 1-.4477 1-1s-.4477-1-1-1h-5.2676A2.01 2.01 0 0 0 13 18.2676V16h8.5c.8284 0 1.5-.6716 1.5-1.5V9.5211a1 1 0 0 0-.0005-.0596 1.493 1.493 0 0 0-.3339-.9058l-2.2214-4.8129A3 3 0 0 0 17.7203 2zM21 14H3v-4h18zm-2.3717-9.419L20.2063 8H3.7937l1.578-3.419A1 1 0 0 1 6.2797 4h11.4407a1 1 0 0 1 .9079.581M7 12c0 .5523-.4477 1-1 1s-1-.4477-1-1 .4477-1 1-1 1 .4477 1 1m13 0c0 .5523-.4477 1-1 1s-1-.4477-1-1 .4477-1 1-1 1 .4477 1 1m-4 1c.5523 0 1-.4477 1-1s-.4477-1-1-1-1 .4477-1 1 .4477 1 1 1"/>
</svg>
