<svg width="24" height="24" fill="currentColor" viewBox="0 0 24 24" xmlns="http://www.w3.org/2000/svg">
  <path d="m20.2848 17.0303.135.9225c.1662 1.1355-.6195 2.1907-1.755 2.3569a2.08 2.08 0 0 1-.566.005l-.9247-.119a3.09 3.09 0 0 0-2.8729 1.2195l-.5568.7478c-.6853.9204-1.987 1.111-2.9075.4256a2.08 2.08 0 0 1-.4037-.3967l-.5698-.738a3.09 3.09 0 0 0-2.8937-1.1691l-.9225.135c-1.1355.1662-2.1907-.6195-2.3569-1.755a2.08 2.08 0 0 1-.005-.566l.119-.9247a3.09 3.09 0 0 0-1.2195-2.8729l-.7478-.5568c-.9204-.6853-1.111-1.987-.4256-2.9075a2.08 2.08 0 0 1 .3967-.4037l.738-.5698a3.09 3.09 0 0 0 1.1691-2.8937l-.135-.9225c-.1662-1.1355.6195-2.1907 1.755-2.3569a2.08 2.08 0 0 1 .566-.005l.9247.119a3.09 3.09 0 0 0 2.8729-1.2195l.5568-.7478c.6853-.9204 1.987-1.111 2.9075-.4256a2.08 2.08 0 0 1 .4037.3967l.5698.738a3.09 3.09 0 0 0 2.8937 1.1691l.9225-.135c1.1355-.1662 2.1907.6195 2.3569 1.755.0274.1875.0291.378.005.566l-.119.9247a3.09 3.09 0 0 0 1.2195 2.8729l.7478.5568c.9204.6853 1.111 1.987.4256 2.9075a2.08 2.08 0 0 1-.3967.4037l-.738.5698a3.09 3.09 0 0 0-1.1691 2.8937m-1.8606-.0112a4.45 4.45 0 0 1 1.6835-4.1668l.7044-.5439a.4834.4834 0 0 0-.0067-.7703l-.7138-.5315a4.45 4.45 0 0 1-1.756-4.1368l.1135-.8827a.4834.4834 0 0 0-.5494-.54l-.8806.129a4.45 4.45 0 0 1-4.1668-1.6835l-.5439-.7045a.4834.4834 0 0 0-.7703.0067l-.5315.7139a4.45 4.45 0 0 1-4.1368 1.756L5.987 5.551a.4834.4834 0 0 0-.54.5495l.129.8805a4.45 4.45 0 0 1-1.6835 4.1669l-.7045.5438a.4834.4834 0 0 0 .0067.7703l.7139.5316a4.45 4.45 0 0 1 1.756 4.1368l-.1136.8827a.4834.4834 0 0 0 .5495.5399l.8805-.129a4.45 4.45 0 0 1 4.1669 1.6836l.5438.7044a.4834.4834 0 0 0 .7703-.0067l.5316-.7138a4.45 4.45 0 0 1 4.1368-1.756l.8827.1135a.4834.4834 0 0 0 .5399-.5494zm-8.717-5.7262L11 12.5858l3.2929-3.293c.3905-.3904 1.0237-.3904 1.4142 0 .3905.3906.3905 1.0238 0 1.4143l-4 4c-.3905.3905-1.0237.3905-1.4142 0l-2-2c-.3905-.3905-.3905-1.0237 0-1.4142s1.0237-.3905 1.4142 0"/>
</svg>
