<svg xmlns="http://www.w3.org/2000/svg" fill="none" viewBox="0 0 32 32"><g clip-path="url(#notary-circle-d--32-a)"><path fill="currentColor" fill-rule="evenodd" d="M0 16c0 8.8366 7.1634 16 16 16s16-7.1634 16-16S24.8366 0 16 0 0 7.1634 0 16Zm19.4486-2.3702h3.1697c.7669 0 1.0943.9748.4829 1.4378l-2.5593 1.9379a.8.8 0 0 0-.3018.7932l.7085 3.5763c.1429.7214-.6814 1.2372-1.2677.7932l-2.698-2.0429a.7998.7998 0 0 0-.9658 0l-2.698 2.0429c-.5863.444-1.4106-.0718-1.2677-.7932l.7085-3.5763a.8.8 0 0 0-.3018-.7932l-2.5593-1.9379c-.6114-.463-.284-1.4378.4829-1.4378h3.1462a.7999.7999 0 0 0 .7437-.5053l1.4641-3.6955c.2696-.6805 1.2358-.6715 1.4929.0138l.8652 2.3072.6237 1.4045a.8.8 0 0 0 .7311.4753Z" clip-rule="evenodd"/></g><defs><clipPath id="notary-circle-d--32-a"><path fill="#fff" d="M0 0h32v32H0z"/></clipPath></defs></svg>