<svg xmlns="http://www.w3.org/2000/svg" fill="none" viewBox="0 0 16 16"><path fill="currentColor" d="M7.9998 1c2.7614 0 5 2.2386 5 5v1.8423A.4984.4984 0 0 1 13.0253 8v1.8418c0 .0874.0708.1582.1582.1582 1.0032 0 1.8164.8133 1.8164 1.8165V12c0 1.1046-.8954 2-2 2H9.9998c0 1.1046-.8955 2-2 2-1.1002 0-1.993-.8884-2-1.9869l-3.0038-.0089C1.8925 14.001.9997 13.1055.9997 12.002v-.1689c0-1.0125.8208-1.8333 1.8333-1.8333a.1666.1666 0 0 0 .1667-.1666V7.5154l.0001-.0108V6c0-2.7614 2.2386-5 5-5ZM3.9997 9.8332c0 .6443-.5224 1.1666-1.1667 1.1666a.8333.8333 0 0 0-.8333.8333v.1689c0 .5524.4469 1.0006.9992 1.0022l1.9016.0056A.5063.5063 0 0 1 4.9997 13H13c.5523 0 1-.4477 1-1v-.1835A.8164.8164 0 0 0 13.1835 11c-.6397 0-1.1583-.5186-1.1582-1.1583V8.1581A.5007.5007 0 0 1 11.9998 8V6c0-2.2091-1.7908-4-4-4-2.2091 0-4 1.7909-4 4v1.5154l-.0001.011v2.3068Zm3 4.1668c0 .5523.4478 1 1 1 .5524 0 1-.4477 1-1h-2Z"/></svg>