<svg xmlns="http://www.w3.org/2000/svg" fill="none" viewBox="0 0 16 16"><path fill="currentColor" d="M9.424 1.2057a3.9714 3.9714 0 0 0-.3336.9447A4.003 4.003 0 0 0 8.0001 2c-2.2091 0-4 1.7909-4 4v1.5154L4 7.5264v2.3068c0 .6443-.5224 1.1666-1.1667 1.1666A.8333.8333 0 0 0 2 11.8331v.1689c0 .5524.447 1.0006.9992 1.0022l1.9016.0056A.5064.5064 0 0 1 5 13h8.0002c.5523 0 1-.4477 1-1v-.1835A.8164.8164 0 0 0 13.1838 11c-.6397 0-1.1583-.5186-1.1582-1.1583V8.1581A.5007.5007 0 0 1 12.0001 8V6.874c.3196.0823.6548.126 1 .126v.8423A.4984.4984 0 0 1 13.0256 8v1.8418c0 .0874.0708.1582.1582.1582 1.0032 0 1.8164.8133 1.8164 1.8165V12c0 1.1046-.8954 2-2 2h-3.0001c0 1.1046-.8955 2-2 2-1.1002 0-1.993-.8884-2-1.9869l-3.0038-.0089C1.8928 14.001 1 13.1055 1 12.002v-.1689c0-1.0125.8208-1.8333 1.8333-1.8333A.1667.1667 0 0 0 3 9.8332V7.5154l.0001-.0108V6c0-2.7614 2.2386-5 5-5a5.001 5.001 0 0 1 1.424.2057ZM8 15c.5524 0 1-.4477 1-1H7c0 .5523.4478 1 1 1Z"/></svg>