<svg width="16" height="16" viewBox="0 0 16 16" fill="none" xmlns="http://www.w3.org/2000/svg">
<path fill-rule="evenodd" clip-rule="evenodd" d="M14 0C14.5523 0 15 0.447715 15 1V3C15 3.55228 14.5523 4 14 4H13V13.5C13 14.8807 11.8807 16 10.5 16H6.5C5.11929 16 4 14.8807 4 13.5V11H3.5C3.22386 11 3 10.7761 3 10.5V5.5C3 5.22386 3.22386 5 3.5 5H4V4H2C1.44772 4 1 3.55228 1 3C1 2.44772 1.44772 2 2 2H13V1C13 0.447715 13.4477 0 14 0ZM6 13.5C6 13.7761 6.22386 14 6.5 14H10.5C10.7761 14 11 13.7761 11 13.5V11.9004H9C8.7613 11.9004 8.53206 11.8055 8.36328 11.6367C8.1945 11.4679 8.09961 11.2387 8.09961 11L8.10059 4H6V13.5ZM9.90039 10.0996H11V4H9.90039V10.0996Z" fill="#2668C5"/>
</svg>
