<svg width="16" height="16" fill="currentColor" viewBox="0 0 16 16" xmlns="http://www.w3.org/2000/svg">
  <path d="M9 2.2676A1.99 1.99 0 0 1 10 2c.8858 0 1.6371.5759 1.9 1.3736A5.017 5.017 0 0 1 14.6264 6.1C15.424 6.363 16 7.1142 16 8s-.5759 1.6371-1.3736 1.9A5.017 5.017 0 0 1 11.9 12.6264C11.637 13.424 10.8858 14 10 14a1.99 1.99 0 0 1-1-.2676v1.2678c0 .6085-.539 1.076-1.1414.99l-7-1a1 1 0 0 1-.8586-.99v-12a1 1 0 0 1 .8586-.99l7-1C8.461-.0758 9 .3916 9 1.0002zm0 3.4648v4.5352A1.99 1.99 0 0 1 10 10c.5722 0 1.0882.2403 1.4528.6254a3.014 3.014 0 0 0 1.1726-1.1726A1.994 1.994 0 0 1 12 8c0-.5722.2403-1.0882.6254-1.4528a3.014 3.014 0 0 0-1.1726-1.1726A1.994 1.994 0 0 1 10 6a1.99 1.99 0 0 1-1-.2676M2 13.133l5 .7143V2.1532l-5 .7143zm4.3862-4.1163q0 .4887-.2614.851-.2615.3624-.7332.5401t-1.1348.1777q-.769 0-1.4082-.2597V8.9824q.3076.2256.6802.364.3726.1385.6939.1385.2425 0 .376-.0872.1332-.0872.1332-.2546 0-.1197-.0666-.2102-.0667-.0906-.2017-.1692t-.5007-.2154q-1.1826-.4546-1.1826-1.4697 0-.711.54-1.1365t1.4492-.4255a5 5 0 0 1 .863.0718q.176.0307.494.1162V6.952q-.6187-.3383-1.2168-.3383-.2462 0-.3965.0923t-.1504.2529q0 .1538.1213.2546t.5076.2615q.7622.3076 1.0784.6733.316.3658.3161.8682"/>
</svg>
