<svg width="24" height="24" fill="currentColor" viewBox="0 0 24 24" xmlns="http://www.w3.org/2000/svg">
  <path d="M13 3.1707A3 3 0 0 1 14 3c1.5437 0 2.815 1.1659 2.9815 2.6651a7.024 7.024 0 0 1 3.3534 3.3534C21.834 9.185 23 10.4563 23 12s-1.1659 2.815-2.6651 2.9815a7.024 7.024 0 0 1-3.3534 3.3534C16.815 19.834 15.5437 21 14 21a3 3 0 0 1-1-.1707v1.3937c0 .5483-.427.8833-.9617.7463L1.9617 20.387C1.4306 20.251 1 19.688 1 19.1465V4.853c0-.549.427-1.1034.9617-1.2404l10.0766-2.5824c.5311-.1362.9617.2016.9617.7463zM14 7c.5523 0 1-.4477 1-1s-.4477-1-1-1-1 .4477-1 1 .4477 1 1 1m6 6c.5523 0 1-.4477 1-1s-.4477-1-1-1-1 .4477-1 1 .4477 1 1 1m-6 6c.5523 0 1-.4477 1-1s-.4477-1-1-1-1 .4477-1 1 .4477 1 1 1M13 8.8293v6.3414A3 3 0 0 1 14 15c1.0404 0 1.9572.5296 2.4953 1.334a5.03 5.03 0 0 0 1.8387-1.8387C17.5296 13.9572 17 13.0404 17 12s.5296-1.9572 1.334-2.4953a5.03 5.03 0 0 0-1.8387-1.8387C15.9572 8.4704 15.0404 9 14 9a3 3 0 0 1-1-.1707M3 18.5884l8 2.0502V3.361l-8 2.05zm1.5264-2.8838v-1.7188q.4673.3921 1.0151.5882t1.1064.196q.3277 0 .572-.059.2444-.0591.4083-.1639t.2444-.247a.616.616 0 0 0 .0805-.3089q0-.2256-.1289-.4028-.129-.1773-.3518-.3277-.223-.1503-.529-.29a18 18 0 0 0-.6607-.2847q-.9024-.376-1.3454-.9184-.4432-.5425-.4432-1.3106 0-.6015.2417-1.0339t.658-.7117.9641-.4109 1.1602-.1316q.6015 0 1.0661.0726.4646.0724.8567.2229v1.606a2.6 2.6 0 0 0-.4216-.2364 3.34 3.34 0 0 0-.47-.1692 3.6 3.6 0 0 0-.4807-.0994 3.4 3.4 0 0 0-.4539-.0322q-.2954 0-.537.0564-.2418.0564-.4083.1584t-.2578.2444-.0913.3196q0 .1935.102.3464.1022.1532.2901.29.188.1372.4565.2686.2685.1317.607.2713.462.1933.8298.4109.368.2175.6311.4914t.4028.6258.1397.819q0 .6446-.2444 1.0823a1.984 1.984 0 0 1-.6633.709q-.419.2712-.9749.3894t-1.1736.1182q-.6337 0-1.2058-.1074-.572-.1075-.991-.3223"/>
</svg>
