<svg width="24" height="24" fill="currentColor" viewBox="0 0 24 24" xmlns="http://www.w3.org/2000/svg">
  <path d="M17 9c.5523 0 1 .4477 1 1v9q0 4-5 4-3.5348 0-4.5707-1.9992L12 21c1.0544 0 1.9182-.8159 1.9945-1.8507L14 19l-.0007-10zm2.8286-.0018L23 9c.5523 0 1 .4477 1 1v6q0 4-3.5 4a5.4 5.4 0 0 1-.5924-.0314 2.9 2.9 0 0 0 .0867-.5461L20 19.238V10a3 3 0 0 0-.1714-1.0018M11 7c.5523 0 1 .4477 1 1v10c0 .5523-.4477 1-1 1H1c-.5523 0-1-.4477-1-1V8c0-.5523.4477-1 1-1zM9 9H3v1.5h2.25V17h1.5v-6.5H9zm11-6c1.1046 0 2 .8954 2 2s-.8954 2-2 2-2-.8954-2-2 .8954-2 2-2m-7-2c1.6569 0 3 1.3431 3 3 0 1.3088-.8382 2.422-2.007 2.8318-.0813-.9747-.8611-1.7507-1.8373-1.8258L12 5l-1.829.0009A3 3 0 0 1 10 4c0-1.6569 1.3431-3 3-3"/>
</svg>
