<svg width="16" height="16" fill="currentColor" viewBox="0 0 16 16" xmlns="http://www.w3.org/2000/svg">
  <path d="m5.2587 10.8819-1.1895.5255C3.5927 11.688 3 11.3332 3 10.7675V4.821c0-.5374.2837-1.0321.7403-1.2913l4.1388-2.3395c.5181-.2902.9193-.1804 1.134-.1096L12.9095 2.16C13.5543 2.338 14 2.9181 14 3.579v8.8031c0 .6669-.4552 1.249-1.1084 1.4222l-4.0989 1.122c-.3947.1243-.838.098-1.2513-.1294l-2.1657-1.5552c-.2806-.163-.4325-.5114-.3373-.8596.0885-.3239.3922-.5303.7116-.5303h4.247l.0001-8.2889-3.5115 1.2196c-.4139.164-.6867.5745-.6867 1.0317v4.108c0 .3964-.2064.7627-.5402.9597"/>
</svg>
