<svg width="32" height="32" fill="currentColor" viewBox="0 0 32 32" xmlns="http://www.w3.org/2000/svg">
  <path d="M18 4v23L3 25V7zm-7.904 7.082c-1.2332 0-2.2236.4732-2.9717 1.417S6 14.6788 6 16.2072c0 1.4476.3713 2.6222 1.1069 3.5239.7366.9008 1.6876 1.351 2.857 1.351 1.2 0 2.1735-.466 2.9192-1.396Q14.0017 18.2912 14 16.0112c0-1.4789-.3599-2.672-1.0795-3.5758-.7184-.9039-1.6598-1.3533-2.8245-1.3533m-.055 2c.6068 0 1.085.2664 1.4348.8017.3498.5362.5242 1.2847.5242 2.2482 0 .9242-.1814 1.6482-.541 2.1688q-.5397.7811-1.4614.7813c-.5957 0-1.0771-.2654-1.4445-.8017C8.1858 17.7451 8 17.0166 8 16.0956c0-.9076.1858-1.6362.553-2.187.3675-.5507.8636-.8266 1.488-.8266M21 16l8-4v9c0 1.1046-.8954 2-2 2h-8v-8zm-2-8h8c1.1046 0 2 .8954 2 2l-8 4-2-1z"/>
</svg>
