<svg width="24" height="24" fill="currentColor" viewBox="0 0 24 24" xmlns="http://www.w3.org/2000/svg">
  <path d="m7.3321 16.5697-1.7548.7752c-.703.414-1.5773-.1094-1.5773-.944V7.6283c0-.7928.4186-1.5226 1.0921-1.905l6.1058-3.4514c1.0541-.5973 2.2847-.157 2.8341.7982-.2626-.4566-.6809-.7955-1.1612-.9598l5.5205 1.6145c.9512.2627 1.6088 1.1185 1.6088 2.0934V18.805c0 .9838-.6715 1.8426-1.6351 2.0981l-5.8193 1.6331c-.5823.1834-1.2363.1445-1.8459-.1909l-3.5799-2.2942c-.414-.2405-.638-.7546-.4976-1.2682.1306-.4779.5786-.7824 1.0499-.7824h6.6503V5.7723L9.1422 7.5715c-.6106.2421-1.0132.8475-1.0132 1.5221v6.0604c0 .5847-.3045 1.1251-.7969 1.4157"/>
</svg>
