<svg width="32" height="32" fill="currentColor" viewBox="0 0 32 32" xmlns="http://www.w3.org/2000/svg">
  <path d="m9.5174 21.6388-2.379 1.0509C6.1853 23.2509 5 22.5414 5 21.41V9.5169c0-1.0748.5675-2.0642 1.4806-2.5826l8.2776-4.679c1.0363-.5804 1.8386-.3608 2.268-.2191l7.7928 2.1587C26.1086 4.5511 27 5.7112 27 7.033v17.6063c0 1.3337-.9103 2.498-2.2167 2.8444l-8.1979 2.2439c-.7894.2487-1.676.196-2.5025-.2588l-4.3316-3.1103c-.5612-.326-.8648-1.0229-.6745-1.7192.177-.6479.7844-1.0607 1.4232-1.0607h8.4942l.0001-16.5778-7.023 2.4392c-.8278.3282-1.3736 1.149-1.3736 2.0635v8.2161c0 .7927-.4128 1.5253-1.0803 1.9193"/>
</svg>
