<svg width="24" height="24" fill="currentColor" viewBox="0 0 24 24" xmlns="http://www.w3.org/2000/svg">
  <path fill-rule="evenodd" d="M12 2C6.4772 2 2 6.4772 2 12s4.4772 10 10 10 10-4.4772 10-10c0-.5839-.0501-1.1562-.1461-1.7127C21.7422 9.6398 22.2107 9 22.8677 9c.4439 0 .8358.2998.919.736.14.7331.2133 1.49.2133 2.264 0 6.6274-5.3726 12-12 12S0 18.6274 0 12 5.3726 0 12 0c2.4006 0 4.6365.7049 6.5121 1.919.5026.3253.5423 1.0266.119 1.45l-.0169.0168c-.3521.3521-.9069.3866-1.3294.1231C15.7514 2.5526 13.9402 2 12 2m0 16c3.3137 0 6-2.6863 6-6s-2.6863-6-6-6-6 2.6863-6 6 2.6863 6 6 6m4-6c0 2.2091-1.7909 4-4 4s-4-1.7909-4-4 1.7909-4 4-4 4 1.7909 4 4"/>
</svg>
