<svg width="16" height="16" fill="currentColor" viewBox="0 0 16 16" xmlns="http://www.w3.org/2000/svg">
  <path d="M2 8c0-3.3137 2.6863-6 6-6q.0935 0 .1863.0028a5.964 5.964 0 0 1 3.2416 1.072c.453.316 1.0763.205 1.3923-.248.3159-.453.2049-1.0763-.2481-1.3923C11.2759.5304 9.6984 0 8 0 3.5817 0 0 3.5817 0 8s3.5817 8 8 8 8-3.5817 8-8a8.1 8.1 0 0 0-.081-1.1416c-.0782-.5467-.5848-.9265-1.1315-.8483s-.9265.5848-.8483 1.1315A6.05 6.05 0 0 1 14 8c0 3.3137-2.6863 6-6 6s-6-2.6863-6-6"/>
  <path fill-rule="evenodd" d="M12 8c0 2.2091-1.7909 4-4 4s-4-1.7909-4-4 1.7909-4 4-4 4 1.7909 4 4m-4 2c1.1046 0 2-.8954 2-2s-.8954-2-2-2-2 .8954-2 2 .8954 2 2 2"/>
</svg>
