<svg width="32" height="32" fill="currentColor" viewBox="0 0 32 32" xmlns="http://www.w3.org/2000/svg">
  <path d="M16.807 12.04c3.455 0 4.731 2.5434 4.731 2.5434s2.18-1.3312 4.566 0c2.386 1.3326 1.9336 3.876 1.9336 3.876s2.6035.531 2.929 2.8927c.022.1577.0334.323.0334.4973 0 .2797-.0274.5347-.0768.768-.441 2.088-2.6385 2.3819-2.6385 2.3819L11.254 25s-3.8254-.4846-3.8254-4.1183c0-3.6323 4.195-3.876 4.195-3.876S12.364 12.04 16.807 12.04M17.3934 7c5.995 0 6.491 5.269 6.4627 5.4836-.015 0-.029-.003-.044-.003l-.0156-.0007a6.15 6.15 0 0 0-1.7478.2581c-.8803-.9838-2.5097-2.138-5.1326-2.138h-.0276c-3.7802 0-5.6315 2.869-6.3003 5.0925-1.928.4712-4.3752 1.9194-4.3752 5.2277 0 1.0485.2383 1.918.6144 2.6398H4.737S1.0007 23.195 1 19.6646c0-3.8968 3.6163-4.2627 3.6163-4.2627s-.3619-2.4343 1.2057-4.018c3.0534-3.0847 6.0263-.8529 6.0263-.8529S13.2953 7 17.3934 7"/>
</svg>
