<svg width="24" height="24" fill="currentColor" viewBox="0 0 24 24" xmlns="http://www.w3.org/2000/svg">
  <path d="M20.5 19H9c-1.6569 0-3-1.3431-3-3s1.3431-3 3-3c0-2.2091 1.7909-4 4-4 1.6122 0 3.0016.9538 3.6348 2.328A2.99 2.99 0 0 1 18 11c1.6569 0 3 1.3431 3 3q0 .025-.0004.05C22.1409 14.2813 23 15.2903 23 16.5c0 1.3807-1.1193 2.5-2.5 2.5m-2.532-8.9598a3.48 3.48 0 0 0-.7869.2168C16.2874 8.8975 14.7485 8 13 8c-2.4564 0-4.499 1.7714-4.9204 4.1064C6.3141 12.5221 5 14.1076 5 16c0 .7286.1948 1.4117.5351 2H4.5C2.567 18 1 16.433 1 14.5c0-1.777 1.3243-3.2447 3.0399-3.47A3.5 3.5 0 0 1 4 10.5C4 8.567 5.567 7 7.5 7c.713 0 1.3762.2132 1.9293.5793C10.15 6.0547 11.7018 5 13.5 5 15.9853 5 18 7.0147 18 9.5q-.0002.2743-.032.5402"/>
</svg>
