<svg xmlns="http://www.w3.org/2000/svg" fill="none" viewBox="0 0 16 16"><path fill="currentColor" d="M3.754 8.4951c.0438 0 .082.0316.0907.0742.362 1.805 1.7822 3.2266 3.586 3.5899a.0916.0916 0 0 1 .0742.0888.0935.0935 0 0 1-.0742.0909c-1.805.3632-3.2265 1.7833-3.5899 3.5869A.0934.0934 0 0 1 3.75 16a.0929.0929 0 0 1-.0898-.0742c-.3621-1.8048-1.7824-3.2265-3.586-3.5899A.0926.0926 0 0 1 0 12.2461a.0934.0934 0 0 1 .0742-.0908c1.8049-.3622 3.2266-1.7823 3.5899-3.586a.0927.0927 0 0 1 .0898-.0742ZM10.373 0a.1375.1375 0 0 1 .1358.1113c.5436 2.707 2.6742 4.8396 5.3799 5.3858A.1367.1367 0 0 1 16 5.6318a.1375.1375 0 0 1-.1113.1358c-2.707.5436-4.8409 2.6742-5.3858 5.3799a.1367.1367 0 0 1-.1347.1113.1376.1376 0 0 1-.1358-.1113c-.5436-2.707-2.6742-4.8396-5.3799-5.3858a.1367.1367 0 0 1-.1113-.1348.1375.1375 0 0 1 .1113-.1357c2.707-.5436 4.8409-2.6742 5.3858-5.3799A.1366.1366 0 0 1 10.373 0Z"/></svg>