<svg width="32" height="32" fill="currentColor" viewBox="0 0 32 32" xmlns="http://www.w3.org/2000/svg">
  <path d="M25 3.9978v3.0024A.9974 .9974 0 0 1 24 8c-.5523 0-1-.4437-1-.9998V3.9988l-3 .0007v4.9976C20 9.551 19.5561 10 19 10c-.5523 0-1-.4379-1-1.003V3.9999c-1.32 .0002-2.68 .0003-4 .0003v7.0024A.9963 .9963 0 0 1 13 12c-.5523 0-1-.4463-1-.9975V4.0002H9v4.009C9 8.5564 8.5561 9 8 9c-.5523 0-1-.451-1-.9908v-4.009L5.0007 4C5.0005 4 5.0003 10.555 5 15h22V3.9948c0 .0013-.761 .0023-2 .003M5 17v2.0052c0 .4475 .2533 .6774 1.0673 .8554 .8224 .18 1.716 .2041 3.8973 .16l.2842-.0056C10.7746 20.0048 11.1379 20 11.5 20c2.286 0 3.2325 1.6894 2.9864 3.1652-.3943 2.3641-.4819 3.0727-.486 3.6708C14 26.9145 14 26.9145 14 27c0 1.1046 .8954 2 2 2s2-.8954 2-2c0-.085 0-.085-.0004-.163-.0041-.5977-.0916-1.3064-.486-3.6726C17.2673 21.6868 18.2136 20 20.5 20c.3454 0 .6985 .0044 1.1788 .0135 .1818 .0035 .1818 .0035 .3627 .0072 2.1856 .044 3.0768 .0198 3.897-.16 .8102-.1776 1.0615-.4066 1.0615-.8555V17zm15.5 5c-.8358 0-1.0802 .4358-1.0136 .8356 .4112 2.4671 .508 3.2518 .5132 3.9876C20 26.9128 20 26.9128 20 27c0 2.2091-1.7909 4-4 4s-4-1.7909-4-4c0-.0878 0-.0878 .0004-.178 .0052-.736 .1021-1.5208 .5132-3.9858C12.58 22.4379 12.3346 22 11.5 22c-.3463 0-.6984 .0046-1.2123 .0146l-.2827 .0057c-2.3612 .0476-3.3255 .0215-4.3651-.2059C4.0032 21.4564 3 20.5458 3 19.0052V3.9948C3 2.8917 3.8966 2 5.0007 2h21.9986C28.102 2 29 2.8963 29 3.9948v15.0104c0 1.5399-1 2.451-2.6332 2.8091-1.0379 .2276-1.9994 .2536-4.3655 .206-.1805-.0037-.1805-.0037-.3605-.0071C21.1722 22.0042 20.8303 22 20.5 22"/>
</svg>
