<svg width="24" height="24" fill="currentColor" viewBox="0 0 24 24" xmlns="http://www.w3.org/2000/svg">
  <path d="M20 10V3h-1v.9906C19 4.5481 18.5561 5 18 5c-.5523 0-1-.4434-1-1.0094V3h-2v3.0092C15 6.5564 14.5561 7 14 7c-.5523 0-1-.451-1-.9908V3H11v3.997C11 7.551 10.5561 8 10 8c-.5523 0-1-.4379-1-1.003V3.003L7 3v1.9906C7 5.5481 6.5561 6 6 6c-.5523 0-1-.4434-1-1.0094V3.0094C5 3.0062 4 3 4 3v7zm0 2H4v2.0037c0 .3016 .259 .578 .5662 .5985l5.0044 .3336c1.1232 .0749 1.9376 1.0605 1.798 2.177l-.3667 2.934c.009 .1204 .0503 .3215 .1425 .506 .1487 .2974 .3734 .4472 .8556 .4472s.7069-.1498 .8556-.4472c.0922-.1845 .1335-.3856 .1425-.506l-.3668-2.934c-.1396-1.1169 .6754-2.1021 1.7981-2.177l5.0044-.3336c.304-.0203 .5662-.2993 .5662-.5985zM4.4332 16.5978C3.0762 16.5073 2 15.3589 2 14.0037V2c0-.5523 .4477-1 1-1h18c.5523 0 1 .4477 1 1v12.0037c0 1.3541-1.0804 2.5039-2.4332 2.594l-4.9431 .3296 .3686 2.9487L15 20c0 .3914-.0862 .9084-.3556 1.4472C14.1681 22.3998 13.2678 23 12 23s-2.1681-.6002-2.6444-1.5528C9.0862 20.9084 9 20.3914 9 20l.0077-.124 .3686-2.9487z"/>
</svg>
