<svg xmlns="http://www.w3.org/2000/svg" fill="none" viewBox="0 0 16 16"><path fill="currentColor" d="M7.7466 8.0298a.9938.9938 0 0 1 .2617.0361c-.335.3637-.5682.8218-.5683 1.374v4.737c0 .2301.0406.4441.1123.6415l-.1143.7588A.4975.4975 0 0 1 6.946 16H5.8102a.4984.4984 0 0 1-.4931-.4228l-.4336-2.8641-.4248-.4258a.2994.2994 0 0 1-.086-.1757L4.0204 9.144a.9956.9956 0 0 1 .871-1.1064 1.0023 1.0023 0 0 1 .1182-.0078h2.7371ZM15.1963 14.1769c0 1.0066-1.5438 1.8221-3.447 1.8221s-3.447-.8155-3.447-1.8221v-.3506c.2082.1844.4398.3354.6786.4629.7523.3984 1.7326.6171 2.7684.6171 1.0358 0 2.0161-.221 2.7684-.6171.2369-.1253.4686-.2785.6786-.4629v.3506ZM15.1963 11.9905c0 1.0066-1.5438 1.8221-3.447 1.8221s-3.447-.8155-3.447-1.8221v-.3506c.2082.1844.4398.3354.6786.4629.7523.3984 1.7326.6171 2.7684.6171 1.0358 0 2.0161-.221 2.7684-.6171.2369-.1252.4686-.2785.6786-.4629v.3506Z"/><path fill="currentColor" d="M7.9995 0c3.0057 0 5.5108 2.141 6.0748 4.9821l.001.001c1.1491.6474 1.9237 1.8788 1.9237 3.2898 0 .191-.0156.3783-.0429.5615-.2254-.6615-.7959-1.1438-1.3662-1.4452-.3505-.1852-.7505-.3304-1.1815-.4365-.0319-.0282-.0612-.0555-.0909-.0781a1.7751 1.7751 0 0 0-.2236-.1494l-.4013-.2246a1.0007 1.0007 0 0 1-.4912-.6787l-.0889-.4511c-.3824-1.922-2.0804-3.371-4.113-3.371-1.704 0-3.1746 1.0168-3.8308 2.4814l-.1201.2988-.126.3515a1.0018 1.0018 0 0 1-.4521.5351l-.3252.1826-.001-.001C2.4568 6.2363 2 6.9705 2 7.8083c0 .7392.3586 1.3928.91 1.8016.128.0948.2214.2332.2384.3915l.1357 1.2734c.036.3381-.2703.6113-.5869.4873C1.1181 11.1432 0 9.6065 0 7.8081c0-1.5883.8727-2.9736 2.1659-3.702C3.0232 1.7123 5.3117 0 7.9995 0Z"/><path fill="currentColor" d="M11.7493 7.6177c1.9031 0 3.4469.8156 3.447 1.8221v.3643c0 1.0066-1.5438 1.8221-3.447 1.8221s-3.447-.8155-3.447-1.8221v-.3643c0-1.0065 1.5438-1.822 3.447-1.8221ZM6.3775 4.2605c.8254 0 1.495.6687 1.495 1.494s-.6697 1.494-1.495 1.494c-.825-.0002-1.494-.6688-1.494-1.494s.669-1.4938 1.494-1.494Z"/></svg>