<svg width="24" height="24" fill="currentColor" viewBox="0 0 24 24" xmlns="http://www.w3.org/2000/svg">
  <path d="M12 2c3.7392 0 6.975 2.419 7.965 5.831C21.7969 8.7324 23 10.5665 23 12.625 23 15.6023 20.5088 18 17.4545 18h-.4522c-.5523 0-1-.4477-1-1s.4477-1 1-1h.4522C19.421 16 21 14.4802 21 12.625c0-1.3903-.8935-2.6296-2.237-3.1379a1 1 0 0 1-.623-.7218C17.5387 6.0141 14.9895 4 12 4 9.2901 4 6.9187 5.6576 6.0612 8.0629a1 1 0 0 1-.5778 .5955C3.9895 9.2425 3 10.6312 3 12.1875 3 14.1537 4.576 15.8095 6.5455 16H7c.5523 0 1 .4477 1 1s-.4477 1-1 1l-.5486-.0044C3.3796 17.7055 1 15.2053 1 12.1875c0-2.2448 1.324-4.2448 3.3385-5.2108C5.5943 3.9993 8.603 2 12 2m0 10c-1.1046 0-2-.8954-2-2s.8954-2 2-2 2 .8954 2 2-.8954 2-2 2m-3 2.5c0-.8284 .6716-1.5 1.5-1.5h3c.8284 0 1.5 .6716 1.5 1.5v2.5858a1 1 0 0 1-.2929 .707l-.583 .5832a.5 .5 0 0 0-.1435 .2983l-.3818 3.4361A1 1 0 0 1 12.605 23h-1.21a1 1 0 0 1-.9938-.8896l-.3818-3.436a.5 .5 0 0 0-.1434-.2984l-.5831-.5831A1 1 0 0 1 9 17.0858z"/>
</svg>
