<svg xmlns="http://www.w3.org/2000/svg" fill="none" viewBox="0 0 16 16"><path fill="currentColor" d="M7.7466 8.0298c.5502 0 .996.4468.996.997a.9953.9953 0 0 1-.0068.1172l-.0195.163L7.518 10.892l-.004.0049c-.584.7787-.5941 1.8101-.1298 2.5907.0871.1463.1916.2811.3086.4042l-.2549 1.6855A.4975.4975 0 0 1 6.946 16H5.8102a.4984.4984 0 0 1-.4931-.4228l-.4336-2.8641-.4248-.4258a.2994.2994 0 0 1-.086-.1757L4.0204 9.144a.9956.9956 0 0 1 .871-1.1064 1.0023 1.0023 0 0 1 .1182-.0078h2.7371ZM12.0618 7.8032c.1468-.1956.4076-.2465.6239-.127.2175.1242.3294.3828.2696.6319l-.6387 2.6971 1.456-.3613c.2127-.0527.4376.047.5566.247.1187.2.1083.4556-.0254.6338l-3.1394 4.1501c-.1468.1956-.4067.2508-.624.127-.2173-.1241-.3292-.3819-.2695-.6309l.6386-2.698-1.457.3613c-.2124.0524-.4366-.0464-.5556-.2461-.119-.2-.1084-.4564.0254-.6347l3.1395-4.1502Z"/><path fill="currentColor" d="M7.9995 0c3.0057 0 5.5108 2.141 6.0748 4.9821l.001.001c1.1491.6474 1.9237 1.8788 1.9237 3.2898 0 .5316-.112 1.0365-.3105 1.495-.2748-.3577-.6527-.6343-1.0859-.7811l.0635-.2686.001.001c.2404-1.0006-.2027-2.0539-1.1084-2.5711l-.0097-.0069-.0108-.0049-.1816-.0898a2.2685 2.2685 0 0 0-1.1445-.1816c-.0034-.0143-.0078-.0285-.0107-.043l-.0889-.4511c-.3824-1.922-2.0804-3.371-4.113-3.371-1.704 0-3.1746 1.0168-3.8308 2.4814l-.1201.2988-.126.3515a1.0018 1.0018 0 0 1-.4521.5351l-.3252.1826-.001-.001C2.4568 6.2363 2 6.9705 2 7.8083c0 .7392.3586 1.3928.91 1.8016.128.0948.2214.2332.2384.3915l.1357 1.2734c.036.3381-.2703.6113-.5869.4873C1.1181 11.1432 0 9.6065 0 7.8081c0-1.5883.8727-2.9736 2.1659-3.702C3.0232 1.7123 5.3117 0 7.9995 0Z"/><path fill="currentColor" d="M6.3775 4.2605c.8254 0 1.495.6687 1.495 1.494s-.6697 1.494-1.495 1.494c-.825-.0002-1.494-.6688-1.494-1.494s.669-1.4938 1.494-1.494Z"/></svg>