<svg xmlns="http://www.w3.org/2000/svg" fill="none" viewBox="0 0 24 24"><path fill="currentColor" d="M11.5 13c.7377 0 1.3491.5328 1.4746 1.2344l-2.3359 2.8642-.0049.0059c-.693.8564-.7675 2.0619-.1826 2.998a2.5603 2.5603 0 0 0 1.2549 1.0342l-.1075.9737a1.0002 1.0002 0 0 1-.9941.8896h-1.209a1.0003 1.0003 0 0 1-.9941-.8896l-.3819-3.4356a.5016.5016 0 0 0-.1435-.2988l-.583-.583A1.0003 1.0003 0 0 1 7 17.0859V14.5c0-.8284.6716-1.5 1.5-1.5h3Z"/><path fill="currentColor" d="M16.0654 13.5537c.1828-.2254.5012-.2878.7617-.1562.2619.1366.3925.4274.3145.7119l-.833 3.081 1.7793-.4414c.2596-.0641.5304.0438.6709.2686a.6245.6245 0 0 1-.044.7217l-3.9052 4.7861a.614.614 0 0 1-.7617.1572c-.2619-.1366-.3925-.4284-.3145-.7129l.833-3.0801-1.7793.4405c-.2597.0642-.5303-.0437-.6709-.2686a.624.624 0 0 1 .044-.7217l3.9052-4.7861Z"/><path fill="currentColor" d="M12 3c3.6792 0 6.7949 2.4093 7.8584 5.7363l.3408.171C21.8682 9.8195 23 11.5897 23 13.625c0 1.4373-.5656 2.7446-1.4844 3.708a.9955.9955 0 0 1-.7177.3086c.0649-.5681-.0564-1.1556-.3741-1.6641a2.5736 2.5736 0 0 0-.1709-.2382c.4669-.5791.7471-1.3127.7471-2.1143 0-1.3595-.8044-2.5354-1.9727-3.0703l-.4023-.1826a1.0019 1.0019 0 0 1-.5381-.6075l-.1338-.4208C17.1461 6.8224 14.7833 5 12 5 9.4275 5 7.2145 6.5552 6.2559 8.7842l-.1563.3603a.9995.9995 0 0 1-.5107.5176l-.3575.1592-.001.001C3.9127 10.4079 3 11.7242 3 13.25c0 1.5555.9404 2.9978 2.5898 3.585.5204.1851.7926.757.6075 1.2773-.1852.5202-.7572.7915-1.2774.6065C2.4666 17.8456 1 15.6445 1 13.25c0-2.3449 1.4043-4.361 3.418-5.2559C5.6812 5.0571 8.6006 3 12 3Z"/><path fill="currentColor" d="M10 8c1.1046 0 2 .8954 2 2s-.8954 2-2 2-2-.8954-2-2 .8954-2 2-2Z"/></svg>