<svg width="24" height="24" fill="currentColor" viewBox="0 0 24 24" xmlns="http://www.w3.org/2000/svg">
  <path d="M16 21V4H8v17h3v-.9906C11 19.4519 11.4439 19 12 19c.5523 0 1 .4434 1 1.0094v.9812C13 20.9938 16 21 16 21m6 0c.5525 .0013 1 .4447 1 1 0 .5523-.4395 1-1.0025 1H2.0025C1.4488 23 1 22.5561 1 22c0-.5515 .4382-.9987 1-1V8.8503c0-.5487 .451-1.0694 .9908-1.1602L6 7.1837V2.9987C6 2.4472 6.4558 2 7.0025 2h9.995C17.5512 2 18 2.4386 18 2.9987V10h3.0092c.5472 0 .9908 .4475 .9908 .9985zM4 21h2V9.2118l-2 .3366zm14-9v9h2v-9zm-8 4c0-.5523 .4434-1 1.0094-1h1.9812C13.5481 15 14 15.4439 14 16c0 .5523-.4434 1-1.0094 1h-1.9812C10.4519 17 10 16.5561 10 16m0-3c0-.5523 .4434-1 1.0094-1h1.9812C13.5481 12 14 12.4439 14 13c0 .5523-.4434 1-1.0094 1h-1.9812C10.4519 14 10 13.5561 10 13m0-3c0-.5523 .4434-1 1.0094-1h1.9812C13.5481 9 14 9.4439 14 10c0 .5523-.4434 1-1.0094 1h-1.9812C10.4519 11 10 10.5561 10 10m0-3c0-.5523 .4434-1 1.0094-1h1.9812C13.5481 6 14 6.4439 14 7c0 .5523-.4434 1-1.0094 1h-1.9812C10.4519 8 10 7.5561 10 7"/>
</svg>
