<svg width="16" height="16" fill="currentColor" viewBox="0 0 16 16" xmlns="http://www.w3.org/2000/svg">
  <path d="M6 3v10h4V3zm8 12H2c-.5523 0-1-.4477-1-1V5.8198a1 1 0 0 1 .8039-.9806L4 4.4V2c0-.5523 .4477-1 1-1h6c.5523 0 1 .4477 1 1v4h2c.5523 0 1 .4477 1 1v7c0 .5523-.4477 1-1 1m-2-2h1V8h-1zM3 6.6396V13h1V6.4396zM1 13h14c.5523 0 1 .4477 1 1s-.4477 1-1 1H1c-.5523 0-1-.4477-1-1s.4477-1 1-1m7-9c.5523 0 1 .4477 1 1s-.4477 1-1 1-1-.4477-1-1 .4477-1 1-1m0 3c.5523 0 1 .4477 1 1s-.4477 1-1 1-1-.4477-1-1 .4477-1 1-1m0 3c.5523 0 1 .4477 1 1s-.4477 1-1 1-1-.4477-1-1 .4477-1 1-1"/>
</svg>
