<svg width="24" height="24" fill="currentColor" viewBox="0 0 24 24" xmlns="http://www.w3.org/2000/svg">
  <path fill-rule="evenodd" d="M11 0C7.603 0 4.5943 1.9993 3.3385 4.9767 1.324 5.9427 0 7.9427 0 10.1875c0 3.0178 2.3796 5.518 5.4514 5.8081L6 16c.5523 0 1-.4477 1-1s-.4477-1-1-1h-.4546C3.576 13.8096 2 12.1537 2 10.1875c0-1.5563.9895-2.945 2.4834-3.5291a1 1 0 0 0 .5778-.5955C5.9187 3.6576 8.29 2 11 2c2.9895 0 5.5387 2.0141 6.14 4.7653a1 1 0 0 0 .623.7218C19.1065 7.9955 20 9.2347 20 10.625 20 12.4802 18.421 14 16.4545 14h-.4522c-.5523 0-1 .4477-1 1q.0001.0885.0149.1728.0573.0205.1144.0435a3 3 0 0 1 .4954.2555A4.98 4.98 0 0 1 17.7499 15c.5388 0 1.0576.0852 1.5438.2429C20.9126 14.3062 22 12.5921 22 10.625c0-2.0585-1.2031-3.8926-3.035-4.794C17.975 2.419 14.7392 0 11 0m3 14.9971a3.01 3.01 0 0 0-1.9983.7693c-.8255-.7343-2.0268-.9829-3.1204-.5408a3 3 0 0 0-.7159.4111A1 1 0 0 1 8 15.0858V12.5c0-.8284.6716-1.5 1.5-1.5h3c.8284 0 1.5.6716 1.5 1.5zM9 8c0 1.1046.8954 2 2 2s2-.8954 2-2-.8954-2-2-2-2 .8954-2 2m1.9287 9.6289c-.2051-.5128-.787-.7622-1.2998-.5571s-.7622.7871-.5571 1.2999l2 5a1.0002 1.0002 0 0 0 1.8569 0l1.7002-4.2504a.1925.1925 0 0 1 .3714.0715v3.8076c0 .5523.4477 1 1 1s1-.4477 1-1v-3.25a.75.75 0 0 1 1.5 0v3.25c0 .5523.4477 1 1 1s1-.4477 1-1v-3.25a.75.75 0 0 1 1.5 0v3.25c0 .5523.4477 1 1 1s1-.4477 1-1v-3.25c0-1.5188-1.2312-2.75-2.75-2.75a2.74 2.74 0 0 0-1.75.6285 2.74 2.74 0 0 0-1.75-.6285 2.737 2.737 0 0 0-1.5638.4876 2.183 2.183 0 0 0-1.3788-.4878 2.193 2.193 0 0 0-2.0358 1.3783l-.7716 1.9292z"/>
</svg>
