<svg xmlns="http://www.w3.org/2000/svg" fill="none" viewBox="0 0 24 24"><path fill="currentColor" d="M11.5 13c.3234 0 .6222.1033.8672.2773-.2255.079-.4402.1671-.6406.2666-.8277.4113-1.7265 1.1659-1.7266 2.3008v5.168c.0001.8232.4742 1.4448 1.0498 1.8818a.9949.9949 0 0 1-.4453.1055h-1.209a1.0003 1.0003 0 0 1-.9941-.8896l-.3819-3.4356a.5016.5016 0 0 0-.1435-.2988l-.583-.583A1.0003 1.0003 0 0 1 7 17.0859V14.5c0-.8284.6716-1.5 1.5-1.5h3Z"/><path fill="currentColor" d="M19 21.0127C18.9997 22.1107 17.2081 23 15 23s-3.9997-.8893-4-1.9873v-.3828c.2415.2011.5102.3648.7871.5039.8729.4348 2.0108.6738 3.2129.6738 1.2021 0 2.34-.2415 3.2129-.6738.2748-.1366.5435-.3028.7871-.5039v.3828ZM19 18.627c0 1.0981-1.7917 1.9882-4 1.9882s-4-.8901-4-1.9882v-.3819c.2415.2011.5102.3649.7871.5039.8729.4348 2.0108.6729 3.2129.6729 1.2021 0 2.34-.2406 3.2129-.6729.2748-.1366.5435-.3028.7871-.5039v.3819Z"/><path fill="currentColor" d="M12 3c3.6792 0 6.7949 2.4093 7.8584 5.7363l.3408.171C21.8682 9.8195 23 11.5897 23 13.625c0 1.4373-.5656 2.7446-1.4844 3.708-.3811.3997-1.0144.4144-1.414.0332-.3993-.3811-.4142-1.0135-.0332-1.4131.5782-.6063.9316-1.4249.9316-2.3281 0-1.3595-.8044-2.5354-1.9727-3.0703l-.4023-.1826a1.0019 1.0019 0 0 1-.5381-.6075l-.1338-.4208C17.1461 6.8224 14.7833 5 12 5 9.4275 5 7.2145 6.5552 6.2559 8.7842l-.1563.3603a.9995.9995 0 0 1-.5107.5176l-.3575.1592-.001.001C3.9127 10.4079 3 11.7242 3 13.25c0 1.5555.9404 2.9978 2.5898 3.585.5204.1851.7926.757.6075 1.2773-.1852.5202-.7572.7915-1.2774.6065C2.4666 17.8456 1 15.6445 1 13.25c0-2.3449 1.4043-4.361 3.418-5.2559C5.6812 5.0571 8.6006 3 12 3Z"/><path fill="currentColor" d="M15 13.8574c2.2083 0 4 .8892 4 1.9873v.3975c0 1.0981-1.7917 1.9873-4 1.9873s-4-.8892-4-1.9873v-.3975c0-1.0981 1.7917-1.9873 4-1.9873ZM10 8c1.1046 0 2 .8954 2 2s-.8954 2-2 2-2-.8954-2-2 .8954-2 2-2Z"/></svg>