<svg width="16" height="16" fill="none" viewBox="0 0 16 16" xmlns="http://www.w3.org/2000/svg">
  <path fill="#2668C5" d="M3 3H2v11h3v2H1l-.1025-.0049a1.001 1.001 0 0 1-.8926-.8926L0 15V2c0-.5523.4477-1 1-1h2zm9 8c.5523 0 1 .4477 1 1s-.4477 1-1 1h-2c-.5523 0-1-.4477-1-1s.4477-1 1-1zm0-3c.5523 0 1 .4477 1 1s-.4477 1-1 1h-2c-.5523 0-1-.4477-1-1s.4477-1 1-1z"/>
  <path fill="#2668C5" fill-rule="evenodd" d="M15 5c.5523 0 1 .4477 1 1v9c0 .5523-.4477 1-1 1H7c-.5523 0-1-.4477-1-1V6c0-.5523.4477-1 1-1zm-7 9h6V7H8z" clip-rule="evenodd"/>
  <path fill="#2668C5" d="M8 0c.5523 0 1 .4477 1 1h1v2c0 .5523-.4477 1-1 1H5c-.5523 0-1-.4477-1-1V1h1c0-.5523.4477-1 1-1zm5 1c.5523 0 1 .4477 1 1v2h-2V3h-1V1z"/>
</svg>
