<svg width="16" height="16" fill="currentColor" viewBox="0 0 16 16" xmlns="http://www.w3.org/2000/svg">
  <path d="M11.2071 6.2071 9.793 4.793l-5 5 1.414 1.414zm3.5104-4.9246c1.1716 1.1716 1.1716 3.071 0 4.2426l-9.1924 9.1924c-1.1715 1.1716-3.071 1.1716-4.2426 0s-1.1716-3.071 0-4.2426l9.1924-9.1924c1.1715-1.1716 3.071-1.1716 4.2426 0M5.7073 4.293 4.111 2.6967c-.3905-.3905-1.0237-.3905-1.4142 0s-.3905 1.0237 0 1.4142L4.293 5.7072 2.8787 7.1213 1.2825 5.5251c-1.1716-1.1715-1.1716-3.071 0-4.2426s3.071-1.1716 4.2426 0L7.1217 2.879zm6 6 1.414-1.4144 1.5962 1.5962c1.1716 1.1715 1.1716 3.071 0 4.2426s-3.071 1.1716-4.2426 0L8.879 13.1217l1.414-1.4143 1.596 1.5959c.3905.3905 1.0237.3905 1.4142 0s.3905-1.0237 0-1.4142z"/>
</svg>
