<svg width="16" height="16" fill="currentColor" viewBox="0 0 16 16" xmlns="http://www.w3.org/2000/svg">
  <path d="M4.3018 12.1768c-.105.201-.188.41-.312.594-.524.78-1.104 1.229-1.657 1.229-.187 0-.207-.045-.25-.094-.043-.048-.083-.145-.083-.239 0-.347.075-.483.261-.667.185-.183.529-.381.979-.542.314-.112.694-.194 1.062-.281m9.031-2.51c.347 0 .452.081.532.166s.135.221.135.365c0 .12.023.469-.667.469-.316 0-.802-.283-1.333-.667.554-.193 1.03-.333 1.333-.333m-5.708-2.115c.42.576.775 1.043 1.219 1.553-.699.181-1.326.351-2.042.572.303-.743.565-1.386.823-2.125m-.625-5.552c.312 0 .394.075.5.208.107.134.167.381.167.459 0 .136-.15.717-.417 1.375-.032.08-.069.188-.104.271-.072-.115-.153-.255-.219-.365-.393-.652-.594-1.251-.594-1.281 0-.118.068-.341.178-.469.109-.128.214-.198.489-.198m0-2c-.833 0-1.564.376-2.011.896-.445.52-.656 1.149-.656 1.771 0 .936.451 1.603.886 2.323.254.42.52.845.761 1.24-.43 1.26-.956 2.681-1.469 3.812-.589.138-1.276.29-1.948.531-.602.215-1.204.51-1.708 1.01-.504.501-.855 1.254-.855 2.084 0 .551.183 1.106.583 1.563.402.456 1.047.77 1.75.77 1.519 0 2.605-1.061 3.313-2.114.476-.709.817-1.441 1.052-2.094 1.013-.331 2.15-.653 3.157-.906.868.812 1.958 1.781 3.478 1.781 1.63 0 2.667-1.3 2.667-2.469 0-.604-.211-1.232-.677-1.729s-1.186-.802-1.99-.802c-.937 0-1.796.309-2.583.625-.671-.755-1.466-1.746-2.02-2.573.126-.306.251-.623.375-.927.285-.706.562-1.349.562-2.125 0-.567-.176-1.159-.604-1.698-.429-.539-1.181-.969-2.063-.969"/>
</svg>
