<svg xmlns="http://www.w3.org/2000/svg" fill="none" viewBox="0 0 16 16"><path fill="currentColor" d="m8.6504 6.2938-4.8778 4.8764-.3526 1.41 1.4112-.3527 4.8771-4.8758-1.0579-1.058Zm1.6445-1.644 1.0579 1.0579 1.4591-1.4587c.2501-.25.2504-.659.0034-.9059l-.1547-.1547c-.252-.2519-.6522-.2517-.9074.0034l-1.4583 1.458Zm-8.2 10.3231c-.6449.1612-1.229-.4228-1.0678-1.0675l.8805-3.5213a.8801.8801 0 0 1 .2316-.409l8.2-8.1977C11.3757.7411 13.042.7417 14.0747 1.7741l.1547.1546c1.0284 1.0282 1.0277 2.7038-.0034 3.7347l-8.2 8.1976a.88.88 0 0 1-.409.2316l-3.5221.8803Z"/></svg>