<svg xmlns="http://www.w3.org/2000/svg" fill="none" viewBox="0 0 24 24"><g clip-path="url(#perceptionpoint--24-a)"><path fill="currentColor" d="M1.5 2h17c.8284 0 1.5.6716 1.5 1.5v3.4772a1.0993 1.0993 0 0 1 0 .0445v3.3406l-1.2057-.3236a1.1382 1.1382 0 0 0-.5886 0L18 10.0939V8.5388l-7.1877 3.1945a2.0003 2.0003 0 0 1-1.6246 0L2 8.5388V16h9v2H1.5C.6716 18 0 17.3284 0 16.5V7.0217a.9946.9946 0 0 1 0-.0445V3.5C0 2.6716.6716 2 1.5 2ZM10 9.9057 18 6.35V4H2v2.3501l8 3.5556Zm14 9.9896c0 1.4908-1.744 2.844-5.2321 4.0595a.8164.8164 0 0 1-.5359 0C14.744 22.7392 13 21.3861 13 19.8953v-5.8465c0-.337.2326-.6332.5699-.7258l4.7142-1.294a.8175.8175 0 0 1 .4318 0l4.7142 1.294c.3373.0926.5699.3888.5699.7258v5.8465Zm-3.7071-4.1024L18 18.0858l-1.2929-1.2929c-.3905-.3905-1.0237-.3905-1.4142 0-.3905.3905-.3905 1.0237 0 1.4142l2 2c.3905.3905 1.0237.3905 1.4142 0l3-3c.3905-.3905.3905-1.0237 0-1.4142-.3905-.3905-1.0237-.3905-1.4142 0Z"/></g><defs><clipPath id="perceptionpoint--24-a"><path fill="#fff" d="M0 0h24v24H0z"/></clipPath></defs></svg>