<svg width="24" height="24" fill="currentColor" viewBox="0 0 24 24" xmlns="http://www.w3.org/2000/svg">
  <path d="M19.8477 14a58 58 0 0 0-.4539 1.0616 8.02 8.02 0 0 1-1.737 2.5953C16.165 19.1488 14.1525 20 12 20c-4.4183 0-8-3.5817-8-8 0-2.159.8566-4.1774 2.3567-5.6704A8.01 8.01 0 0 1 8.9508 4.601Q9.4312 4.4028 10 4.1508V2.1885c-.648.1275-1.2156.3176-1.812.5638A10.01 10.01 0 0 0 4.9458 4.912C3.1263 6.723 2 9.23 2 12c0 5.5228 4.4772 10 10 10 2.7614 0 5.2614-1.1193 7.071-2.929a10.02 10.02 0 0 0 2.1703-3.2433c.248-.5983.4397-1.1774.5684-1.8277zM22 12H12V2c2.7614 0 5.2614 1.1193 7.071 2.929C20.8808 6.7385 22 9.2385 22 12m-4.3431-5.6569C16.6397 5.326 15.3805 4.6066 14 4.2518V10h5.7482c-.3548-1.3805-1.0742-2.6397-2.0913-3.6569"/>
</svg>
