<svg width="24" height="24" fill="currentColor" viewBox="0 0 24 24" xmlns="http://www.w3.org/2000/svg">
  <path d="M18 4h1.001C20.109 4 21 4.8948 21 6v15c0 1.0991-.8974 2-2.0009 2H5.001C3.8932 23 3 22.1055 3 21V6c0-1.0987 .896-2 1.999-2H6c0-.5523 .4477-1 1-1h1V2c0-.5523 .4477-1 1-1h6c.5523 0 1 .4477 1 1v1h1c.5523 0 1 .4477 1 1m0 2v1c0 .5523-.4477 1-1 1H7c-.5523 0-1-.4477-1-1V6H5v15c0 .0016 13.9991 0 13.9991 0C18.9963 21 19 6 19 6zm-8.2929 7.2929L11 14.5858l3.2929-3.293c.3905-.3904 1.0237-.3904 1.4142 0 .3905 .3906 .3905 1.0238 0 1.4143l-4 4c-.3905 .3905-1.0237 .3905-1.4142 0l-2-2c-.3905-.3905-.3905-1.0237 0-1.4142s1.0237-.3905 1.4142 0M8 6h8V5c-1.1053 0-2-.8923-2-2H10c0 1.1053-.8923 2-2 2z"/>
</svg>
