<svg width="24" height="24" fill="currentColor" viewBox="0 0 24 24" xmlns="http://www.w3.org/2000/svg">
  <path d="M20.2206 3.8342A1 1 0 0 1 21 4.8107l-.012 10.0946c-.1157 2.3958-1.7225 4.4255-4.2385 6.0627C15.0311 22.0862 12.8038 23 12 23c-.8036 0-3.031-.9136-4.7506-2.0318-2.517-1.6368-4.1268-3.6657-4.2494-6.111V4.8094a1 1 0 0 1 .7794-.9753l8-2.8096a1 1 0 0 1 .4412 0zM12 3.0252 4.9999 5.6087l-.0012 9.198c.082 1.6184 1.3068 3.1622 3.341 4.4849C9.7633 20.2172 11.6717 21 12 21s2.2364-.7828 3.6587-1.7083c2.0321-1.3224 3.2535-2.8652 3.3304-4.4358l.01-9.2475zM9.7071 11.293 11 12.5858l3.2929-3.293c.3905-.3904 1.0237-.3904 1.4142 0 .3905.3906.3905 1.0238 0 1.4143l-4 4c-.3905.3905-1.0237.3905-1.4142 0l-2-2c-.3905-.3905-.3905-1.0237 0-1.4142s1.0237-.3905 1.4142 0"/>
</svg>
