<svg width="32" height="32" fill="currentColor" viewBox="0 0 32 32" xmlns="http://www.w3.org/2000/svg">
  <path d="m16.0016 4-10 3.3788L6 18.695c.1171 2.4316 1.8668 4.7508 4.7727 6.7381C12.8064 26.824 15.5327 28 16.0016 28c.4691 0 3.1947-1.176 5.2266-2.5665 2.903-1.9867 4.6478-4.3046 4.7576-6.6642L26 7.3784zm-.4628-1.9457a2 2 0 0 1 .9256 0l9.9984 3.3784A2 2 0 0 1 28 7.3807l-.0163 11.4817c-.1417 3.0414-2.1889 5.8693-5.626 8.2216C20.257 28.5217 17.1157 30 16.0016 30c-1.1138 0-4.2554-1.478-6.358-2.916C6.1915 24.7233 4.1517 21.8906 4 18.695l.0017-11.3164a2 2 0 0 1 1.5371-1.9454zm4.754 9.2386c.3906-.3905 1.0238-.3905 1.4143 0s.3905 1.0237 0 1.4142l-7 7c-.3905.3905-1.0237.3905-1.4142 0l-3-3c-.3905-.3905-.3905-1.0237 0-1.4142s1.0237-.3905 1.4142 0L14 17.5858z"/>
</svg>
