<svg xmlns="http://www.w3.org/2000/svg" fill="none" viewBox="0 0 16 16"><path fill="currentColor" d="M3.7087 2.9855A1 1 0 0 1 4.5662 2.5h6.8676a1 1 0 0 1 .8575.4855l2.5662 4.277c.0932.1554.1425.3332.1425.5145v3.465l-1.2245-.5964c.2285-.4028.5592-1.0576.5592-1.9703 0-.615-.1473-1.3036-.5623-1.866-.2307-.3127-.5279-.5628-.8807-.731l-1.4109-2.3367a.5001.5001 0 0 0-.4281-.2416H4.9111a.5.5 0 0 0-.4298.2446L2.3622 7.3111a.125.125 0 0 0 .1075.1889H4.945a4.6357 4.6357 0 0 0-.0041.1965c0 1.144.4098 1.928.6948 2.4105l-1.6963.889c-.3137.1629-.5003.4167-.6082.6155-.11.2025-.1753.4154-.2174.5989-.084.3665-.1088.772-.1132 1.1134a9.2756 9.2756 0 0 0-.0005.1762H2c-.5523 0-1-.4477-1-1V7.777a1 1 0 0 1 .1425-.5145l2.5662-4.277Z"/><path fill="currentColor" d="m9.3047 10.8764 1.9116 1.0064c.5652.3079.3401 2.6698.3401 2.6698H4.0615s-.2757-2.3527.34-2.6698l1.9117-1.0018c.3492-.1884.5147-.3952.5147-.5836 0-.1486-.1073-.3267-.2473-.559-.2624-.4356-.6396-1.0619-.6396-2.0419 0-1.328.6939-2.1965 1.8657-2.1965 1.305 0 1.8748 1.0753 1.8748 2.2057 0 .8799-.3445 1.479-.5996 1.9225-.1499.2607-.2689.4677-.2689.6463 0 .2067.1517.4273.4917.6019Z"/><path fill="currentColor" d="m13.0131 11.3865 1.6037.7812c.5698.2757.3355 1.4337.3355 1.4337h-2.4998c-.1372 0-.1238-.1713-.1034-.4327.0323-.4129.0821-1.0507-.4159-1.5938-.1035-.1091-.2352-.22-.3794-.3416-.5726-.4827-1.3438-1.1327-1.3438-2.4983.0092-1.1855.579-1.8978 1.567-1.8978 1.0982 0 1.5577.896 1.5577 1.8381 0 .7347-.2877 1.2328-.5008 1.6018-.1255.2172-.2252.3898-.2252.5396a.6802.6802 0 0 0 .4044.5698Z"/></svg>