<svg xmlns="http://www.w3.org/2000/svg" fill="none" viewBox="0 0 24 24"><path fill="currentColor" d="M5.563 4.4783A1.5 1.5 0 0 1 6.8493 3.75h10.3014c.5269 0 1.0152.2764 1.2863.7283l3.8492 6.4154c.1399.2332.2138.4999.2138.7718v5.1975l-1.8368-.8947c.3428-.604.8389-1.5863.8389-2.9553 0-.9225-.2211-1.9554-.8435-2.799-.3461-.469-.7918-.8442-1.3211-1.0964l-2.1163-3.5052a.7501.7501 0 0 0-.6421-.3624H7.3667a.75.75 0 0 0-.6448.367l-3.1786 5.3497c-.0743.125.0158.2833.1612.2833h3.7132a6.978 6.978 0 0 0-.0062.2948c0 1.7159.6148 2.8921 1.0422 3.6157l-2.5445 1.3334c-.4705.2444-.7504.6252-.9122.9233-.165.3038-.263.6232-.3261.8984-.126.5498-.1632 1.158-.1698 1.6701-.0011.089-.0014.1773-.0008.2643H3c-.8284 0-1.5-.6716-1.5-1.5v-7.0845c0-.2719.0739-.5386.2138-.7718L5.563 4.4783Z"/><path fill="currentColor" d="m13.9571 16.3146 2.8674 1.5096c.8478.4618.5101 4.0047.5101 4.0047H6.0923s-.4136-3.5291.51-4.0047l2.8675-1.5027c.5239-.2826.772-.5927.772-.8754 0-.2229-.1609-.4901-.3708-.8385-.3937-.6535-.9595-1.5928-.9595-3.0628 0-1.992 1.0408-3.2948 2.7985-3.2948 1.9576 0 2.8123 1.613 2.8123 3.3086 0 1.3198-.5168 2.2185-.8994 2.8838-.2249.391-.4034.7014-.4034.9693 0 .3102.2275.641.7376.9029Z"/><path fill="currentColor" d="m19.5196 17.0798 2.4056 1.1718c.8547.4135.5032 2.1505.5032 2.1505h-3.7497c-.2058 0-.1857-.2569-.155-.6491.0484-.6193.1231-1.576-.6239-2.3906-.1553-.1637-.3528-.3301-.5691-.5124-.8589-.724-2.0157-1.6991-2.0157-3.7474.0138-1.7784.8685-2.8468 2.3504-2.8468 1.6474 0 2.3367 1.3441 2.3367 2.7572 0 1.1021-.4315 1.8491-.7513 2.4027-.1882.3258-.3378.5846-.3378.8093.0292.375.2623.7034.6066.8548Z"/></svg>