<svg xmlns="http://www.w3.org/2000/svg" fill="none" viewBox="0 0 32 32"><path fill="currentColor" d="M7.4174 5.971A2 2 0 0 1 9.1324 5h13.7352c.7025 0 1.3535.3686 1.715.971l5.1324 8.554c.1865.3108.285.6665.285 1.029v6.93l-2.449-1.1929c.4569-.8054 1.1185-2.1151 1.1185-3.9405 0-1.2299-.2948-2.6071-1.1248-3.732-.4614-.6254-1.0557-1.1255-1.7614-1.4619l-2.8218-4.6736A1 1 0 0 0 22.1055 7H9.8222a1 1 0 0 0-.8597.4892l-4.2381 7.1331c-.099.1666.021.3777.215.3777h4.9508a9.302 9.302 0 0 0-.0082.393c0 2.2879.8197 3.8561 1.3897 4.821L7.879 21.9919c-.6273.3259-1.0006.8335-1.2164 1.2311-.2198.405-.3507.8308-.4348 1.1978-.1679.7331-.2176 1.544-.2263 2.2268A18.5492 18.5492 0 0 0 6.0004 27H4c-1.1046 0-2-.8955-2-2v-9.446c0-.3625.0985-.7182.285-1.029l5.1324-8.554Z"/><path fill="currentColor" d="m18.6094 21.7528 3.8232 2.0128c1.1305.6157.6801 5.3396.6801 5.3396H8.1231s-.5515-4.7055.68-5.3396l3.8233-2.0036c.6985-.3768 1.0293-.7903 1.0293-1.1672 0-.2972-.2145-.6534-.4944-1.1181-.5249-.8712-1.2793-2.1236-1.2793-4.0837 0-2.656 1.3877-4.393 3.7313-4.393 2.6101 0 3.7497 2.1506 3.7497 4.4114 0 1.7597-.689 2.958-1.1992 3.8451-.2998.5213-.5378.9352-.5378 1.2924 0 .4136.3033.8547.9834 1.2039Z"/><path fill="currentColor" d="m26.0261 22.773 3.2075 1.5624c1.1396.5514.6709 2.8674.6709 2.8674h-4.9996c-.2744 0-.2476-.3426-.2067-.8654.0645-.8259.1642-2.1015-.8318-3.1876-.2071-.2182-.4704-.4401-.7588-.6832-1.1453-.9654-2.6877-2.2654-2.6877-4.9965.0184-2.3712 1.158-3.7957 3.134-3.7957 2.1965 0 3.1156 1.7922 3.1156 3.6762 0 1.4695-.5754 2.4655-1.0018 3.2036-.251.4344-.4503.7795-.4503 1.0792.0389.4999.3497.9378.8087 1.1396Z"/></svg>