<svg width="24" height="24" fill="currentColor" viewBox="0 0 24 24" xmlns="http://www.w3.org/2000/svg">
  <path d="M12 23C5.9249 23 1 18.0751 1 12S5.9249 1 12 1s11 4.9249 11 11-4.9249 11-11 11m0-2c4.9706 0 9-4.0294 9-9s-4.0294-9-9-9-9 4.0294-9 9 4.0294 9 9 9m0-2c.5523 0 1-.4477 1-1s-.4477-1-1-1-1 .4477-1 1 .4477 1 1 1M10 9.0018c0-.0526 .0433-.224 .1761-.4006C10.4465 8.2418 10.9913 8 12.0056 8c.5829 0 1.0476 .0487 1.4033 .1268 .1801 .0395 .3676 .1124 .3676 .1124C14.4232 8.48 15 9.3085 15 10c0 .6394-.5455 1.319-1.1776 1.4595l-.5787 .1286c-1.6318 .3626-2.6354 1.9682-2.2305 3.5879l.0167 .0665c.134 .5358 .6768 .8616 1.2126 .7276s.8616-.6768 .7276-1.2126l-.0166-.0666c-.1309-.5236 .1862-1.0309 .7241-1.1504l.5787-.1286C15.8032 13.068 17 11.5769 17 10c0-1.5277-1.0968-3.1031-2.5257-3.6351-.067-.0368-.3042-.1187-.6368-.1917C13.3387 6.0638 12.7303 6 12.0055 6 10.393 6 9.248 6.5082 8.578 7.3988c-.4313 .5734-.5771 1.152-.5779 1.5994-.001 .5523 .446 1.0008 .9982 1.0018S9.999 9.554 10 9.0018"/>
</svg>
