<svg width="32" height="32" fill="currentColor" viewBox="0 0 32 32" xmlns="http://www.w3.org/2000/svg">
  <path d="M16 30C8.268 30 2 23.732 2 16S8.268 2 16 2s14 6.268 14 14-6.268 14-14 14m0-2c6.6274 0 12-5.3726 12-12S22.6274 4 16 4 4 9.3726 4 16s5.3726 12 12 12m0-4c-.5523 0-1-.4477-1-1s.4477-1 1-1 1 .4477 1 1-.4477 1-1 1m-3.007-10.8825c-.0648 .5485-.562 .9405-1.1105 .8756-.5485-.065-.9405-.5622-.8756-1.1106 .0666-.5626 .3498-1.314 1.0066-2.049C13.0495 9.6746 14.6984 9 17.0077 9c5.8376 0 6.9645 7.7801 1.2048 8.979-.6674 .139-.994 .4184-1.1508 .8281-.1087 .2838-.1276 .6153-.0893 .9076 .0054 .042 .0096 .0648 .0095 .0643 .122 .5387-.2157 1.0743-.7543 1.1963s-1.0742-.2157-1.1963-.7543a2.8 2.8 0 0 1-.042-.2465c-.0778-.5934-.0406-1.242 .2046-1.8824 .3996-1.0438 1.275-1.793 2.611-2.0711C21.1364 15.3276 20.5096 11 17.0078 11c-1.7617 0-2.8632 .4506-3.503 1.1664-.3486 .39-.4894 .7637-.5116 .9511"/>
</svg>
