<svg width="24" height="24" fill="currentColor" viewBox="0 0 24 24" xmlns="http://www.w3.org/2000/svg">
  <path d="M15 3.997h4v10.086A6.04 6.04 0 0 1 20 14c.3407 0 .6748.0284 1 .083V2.997c0-.5522-.4477-1-1-1h-6c-.5523 0-1 .4478-1 1v18.0001c0 .5523.4477 1 1 1h.3404A5.99 5.99 0 0 1 14 20c0-1.2267.3682-2.3675 1-3.3178zm-8.004.9971c.5524 0 1 .4478 1 1s-.4476 1-1 1c-.5522 0-1-.4477-1-1s.4478-1 1-1"/>
  <path fill-rule="evenodd" d="M11 2.997c0-.5522-.4477-1-1-1H4c-.5523 0-1 .4478-1 1v18.0001c0 .5523.4477 1 1 1h6c.5523 0 1-.4477 1-1zm-2 1H5v16.0001h4z"/>
  <path d="M16.0039 5.9941c0-.5522.4477-1 1-1s1 .4478 1 1-.4477 1-1 1-1-.4477-1-1"/>
</svg>
