<svg width="16" height="16" viewBox="0 0 16 16" fill="none" xmlns="http://www.w3.org/2000/svg">
<path d="M5.5 6C5.77614 6 6 6.22386 6 6.5V8.5C6 8.77614 5.77614 9 5.5 9H4.5C4.22386 9 4 8.77614 4 8.5V6.5C4 6.22386 4.22386 6 4.5 6H5.5Z" fill="#2668C5"/>
<path d="M8.5 6C8.77614 6 9 6.22386 9 6.5V8.5C9 8.77614 8.77614 9 8.5 9H7.5C7.22386 9 7 8.77614 7 8.5V6.5C7 6.22386 7.22386 6 7.5 6H8.5Z" fill="#2668C5"/>
<path d="M11.5 6C11.7761 6 12 6.22386 12 6.5V8.5C12 8.77614 11.7761 9 11.5 9H10.5C10.2239 9 10 8.77614 10 8.5V6.5C10 6.22386 10.2239 6 10.5 6H11.5Z" fill="#2668C5"/>
<path fill-rule="evenodd" clip-rule="evenodd" d="M15 3C15.5523 3 16 3.44772 16 4V11C16 11.5523 15.5523 12 15 12H14C14 12.5523 13.5523 13 13 13H3C2.44772 13 2 12.5523 2 12H1C0.447715 12 8.05325e-09 11.5523 0 11V4C1.28852e-07 3.44772 0.447715 3 1 3H15ZM2 10H3.5C3.77614 10 4 10.2239 4 10.5V11H12V10.5C12 10.2239 12.2239 10 12.5 10H14V5H2V10Z" fill="#2668C5"/>
</svg>
