<svg xmlns="http://www.w3.org/2000/svg" fill="none" viewBox="0 0 16 16"><path fill="currentColor" d="M5.5 6a.5.5 0 0 1 .5.5v2a.5.5 0 0 1-.5.5h-1a.5.5 0 0 1-.5-.5v-2a.5.5 0 0 1 .5-.5h1ZM8.5 6a.5.5 0 0 1 .5.5v2a.5.5 0 0 1-.5.5h-1a.5.5 0 0 1-.5-.5v-2a.5.5 0 0 1 .5-.5h1ZM11.5 6a.5.5 0 0 1 .5.5v2a.5.5 0 0 1-.5.5h-1a.5.5 0 0 1-.5-.5v-2a.5.5 0 0 1 .5-.5h1Z"/><path fill="currentColor" fill-rule="evenodd" d="M15 3c.5523 0 1 .4477 1 1v7c0 .5523-.4477 1-1 1h-1c0 .5523-.4477 1-1 1H3c-.5523 0-1-.4477-1-1H1c-.5523 0-1-.4477-1-1V4c0-.5523.4477-1 1-1h14ZM2 10h1.5a.5.5 0 0 1 .5.5v.5h8v-.5a.5.5 0 0 1 .5-.5H14V5H2v5Z" clip-rule="evenodd"/></svg>