<svg xmlns="http://www.w3.org/2000/svg" fill="none" viewBox="0 0 24 24"><path fill="currentColor" d="M2 18c-.5523 0-1-.4477-1-1V5c0-.5523.4477-1 1-1h20c.5523 0 1 .4477 1 1v12c0 .5523-.4477 1-1 1v1c0 .5523-.4477 1-1 1H3c-.5523 0-1-.4477-1-1v-1Zm15 0v-1c0-.5523.4477-1 1-1s1 .4477 1 1v1h1v-1c0-.5523.4477-1 1-1V6H3v10c.5523 0 1 .4477 1 1v1h1v-1c0-.5523.4477-1 1-1s1 .4477 1 1v1h2v-1c0-.5523.4477-1 1-1s1 .4477 1 1v1h2v-1c0-.5523.4477-1 1-1s1 .4477 1 1v1h2ZM6 8h2c.5523 0 1 .4477 1 1v4c0 .5523-.4477 1-1 1H6c-.5523 0-1-.4477-1-1V9c0-.5523.4477-1 1-1Zm0 1v4h2V9H6Zm5-1h2c.5523 0 1 .4477 1 1v4c0 .5523-.4477 1-1 1h-2c-.5523 0-1-.4477-1-1V9c0-.5523.4477-1 1-1Zm0 1v4h2V9h-2Zm5-1h2c.5523 0 1 .4477 1 1v4c0 .5523-.4477 1-1 1h-2c-.5523 0-1-.4477-1-1V9c0-.5523.4477-1 1-1Zm0 1v4h2V9h-2Z"/></svg>