<svg width="32" height="32" fill="currentColor" viewBox="0 0 32 32" xmlns="http://www.w3.org/2000/svg">
  <path d="M23.5 15c4.6944 0 8.5 3.8056 8.5 8.5S28.1944 32 23.5 32 15 28.1944 15 23.5s3.8056-8.5 8.5-8.5m0 2c-3.5899 0-6.5 2.9101-6.5 6.5s2.9101 6.5 6.5 6.5 6.5-2.9101 6.5-6.5-2.9101-6.5-6.5-6.5M27 3c1.1046 0 2 .8954 2 2v9.554a10.45 10.45 0 0 0-2-.9565V13H5v14h8.5975c.2489.7042.5707 1.3739.9565 2H5c-1.1046 0-2-.8954-2-2V5c0-1.1046.8954-2 2-2zm-7.2071 19.2929c.3605-.3605.9277-.3882 1.32-.0832l.0942.0832 2 2c.3605.3605.3882.9277.0832 1.32l-.0832.0942-2 2c-.3905.3905-1.0237.3905-1.4142 0-.3605-.3605-.3882-.9277-.0832-1.32l.0832-.0942L21.0858 25l-1.2929-1.2929c-.3905-.3905-.3905-1.0237 0-1.4142m7.4142-3c.3905.3905.3905 1.0237 0 1.4142L25.9142 22l1.2929 1.2929c.3905.3905.3905 1.0237 0 1.4142s-1.0237.3905-1.4142 0l-2-2c-.3905-.3905-.3905-1.0237 0-1.4142l2-2c.3905-.3905 1.0237-.3905 1.4142 0M27 5H5v6h22zM8 7c.5523 0 1 .4477 1 1s-.4477 1-1 1-1-.4477-1-1 .4477-1 1-1m3 0c.5523 0 1 .4477 1 1s-.4477 1-1 1-1-.4477-1-1 .4477-1 1-1m3 0c.5523 0 1 .4477 1 1s-.4477 1-1 1-1-.4477-1-1 .4477-1 1-1"/>
</svg>
