<svg width="32" height="32" fill="currentColor" viewBox="0 0 32 32" xmlns="http://www.w3.org/2000/svg">
  <path d="M13.5975 26c.2489.7042.5707 1.3739.9565 2h-3.5515C10.4488 28 10 27.5561 10 27c0-.5523.4558-1 1.0025-1zM27.5087 2C28.3323 2 29 2.675 29 3.4934V13.554a10.45 10.45 0 0 0-2-.9565V4H5v12h10.2532a10.5 10.5 0 0 0-1.2428 2H5v3h8.1063a10.6 10.6 0 0 0-.0946 2H4.4913C3.6677 23 3 22.3251 3 21.5066V3.4934C3 2.6686 3.6688 2 4.4913 2ZM23.5 14c4.6944 0 8.5 3.8056 8.5 8.5S28.1944 31 23.5 31 15 27.1944 15 22.5s3.8056-8.5 8.5-8.5m0 2c-3.5899 0-6.5 2.9101-6.5 6.5s2.9101 6.5 6.5 6.5 6.5-2.9101 6.5-6.5-2.9101-6.5-6.5-6.5m-3.7071 5.2929c.3905-.3905 1.0237-.3905 1.4142 0l2 2c.3905.3905.3905 1.0237 0 1.4142l-2 2c-.3905.3905-1.0237.3905-1.4142 0s-.3905-1.0237 0-1.4142L21.0858 24l-1.2929-1.2929c-.3905-.3905-.3905-1.0237 0-1.4142m7.4142-3c.3905.3905.3905 1.0237 0 1.4142L25.9142 21l1.2929 1.2929c.3905.3905.3905 1.0237 0 1.4142s-1.0237.3905-1.4142 0l-2-2c-.3905-.3905-.3905-1.0237 0-1.4142l2-2c.3905-.3905 1.0237-.3905 1.4142 0"/>
</svg>
