<svg width="24" height="24" fill="currentColor" viewBox="0 0 24 24" xmlns="http://www.w3.org/2000/svg">
  <path d="M23 14.8027C22.1175 14.2922 21.0929 14 20 14c-1.777 0-3.3736.7725-4.4722 2H7v4h7c0 .7013.1203 1.3744.3414 2H6c-.5523 0-1-.4477-1-1v-5H2c-.5523 0-1-.4477-1-1V3c0-.5523.4477-1 1-1h16c.5523 0 1 .4477 1 1v5h3c.5523 0 1 .4477 1 1zM21 10H7v4h14zm-4-2V4H3v4zM3 10v4h2v-4zm6 3c-.5523 0-1-.4477-1-1s.4477-1 1-1 1 .4477 1 1-.4477 1-1 1m0 6c-.5523 0-1-.4477-1-1s.4477-1 1-1 1 .4477 1 1-.4477 1-1 1m10-6c-.5523 0-1-.4477-1-1s.4477-1 1-1 1 .4477 1 1-.4477 1-1 1m-3 0c-.5523 0-1-.4477-1-1s.4477-1 1-1 1 .4477 1 1-.4477 1-1 1M5 7c-.5523 0-1-.4477-1-1s.4477-1 1-1 1 .4477 1 1-.4477 1-1 1m10 0c-.5523 0-1-.4477-1-1s.4477-1 1-1 1 .4477 1 1-.4477 1-1 1m-3 0c-.5523 0-1-.4477-1-1s.4477-1 1-1 1 .4477 1 1-.4477 1-1 1"/>
</svg>
