<svg width="16" height="16" fill="currentColor" viewBox="0 0 16 16" xmlns="http://www.w3.org/2000/svg">
  <path fill-rule="evenodd" d="M8 10c-2.6667 0-4-2.5-4-5.625C4 1.9588 4.6667 0 8 0s4 1.9588 4 4.375C12 7.5 10.6667 10 8 10m0-2c1.188 0 2-1.2371 2-3.625C10 2.4272 9.6853 2 8 2s-2 .4272-2 2.375C6 6.7629 6.812 8 8 8m-2.1313 2.2355a3 3 0 0 0-1.6762-.0644l-3.0563.7641A1.5 1.5 0 0 0 0 12.3904V14.5c0 .8284.6716 1.5 1.5 1.5h13c.8284 0 1.5-.6716 1.5-1.5v-2.1096a1.5 1.5 0 0 0-1.1362-1.4552l-3.0563-.7641a3 3 0 0 0-1.6762.0644l-1.815.605a1 1 0 0 1-.6325 0zM14 14h-2v-1.7192l2 .5zm-4-1.6126V14H6v-1.6126l1.0513.3505a3 3 0 0 0 1.8974 0zm-6-.1066V14H2v-1.2192z"/>
</svg>
