<svg xmlns="http://www.w3.org/2000/svg" fill="none" viewBox="0 0 32 32"><path fill="currentColor" d="M25.9871 17A9.6635 9.6635 0 0 0 26 16.5c0-5.2467-4.2533-9.5-9.5-9.5-2.8613 0-5.532 1.3052-7.3402 3.5029L6.8432 8.5967C9.2122 5.7176 12.7267 4 16.5 4 23.4036 4 29 9.5964 29 16.5c0 .1671-.0033.3338-.0098.5H32l-4.5 7-4.5-7h2.9871ZM7.0129 17c.26 5.0143 4.4081 9 9.4871 9 2.6723 0 5.1637-1.1071 6.9506-3.0239l2.1944 2.0457C23.2964 27.5411 20.0132 29 16.5 29 9.7639 29 4.2723 23.6718 4.0098 17H1l4.5-7 4.5 7H7.013Z"/></svg>