<svg width="32" height="32" fill="currentColor" viewBox="0 0 32 32" xmlns="http://www.w3.org/2000/svg">
  <path fill-rule="evenodd" d="M5 6v19.9964h8.3384a10.03 10.03 0 0 0 1.5214 2H4.2c-.6628 0-1.2-.5373-1.2-1.2V5.2C3 4.5373 3.5373 4 4.2 4h16.6c.6627 0 1.2.5373 1.2 1.2v5.798c-.6849 0-1.3538.0689-2 .2V6zm17 22.9982c4.4183 0 8-3.5817 8-8s-3.5817-8-8-8-8 3.5817-8 8 3.5817 8 8 8m0-9.4136 2.1213-2.1213v.0001l.0001-.0001 1.4142 1.4142-2.1213 2.1213 2.1213 2.1213-1.4142 1.4142h-.0001L22 22.4131l-2.1212 2.1212h-.0001l-1.4142-1.4142 2.1213-2.1213-2.1213-2.1213 1.4142-1.4142v.0001l.0001-.0001zM28 21c0 3.3137-2.6863 6-6 6s-6-2.6863-6-6 2.6863-6 6-6 6 2.6863 6 6M8 8.9994c-.5523 0-1 .4477-1 1s.4477 1 1 1h9.5c.5523 0 1-.4477 1-1s-.4477-1-1-1zm5.9982 5.9994a10.06 10.06 0 0 1 1.9994-2H8c-.5523 0-1 .4477-1 1s.4477 1 1 1zm-1.1666 1.9994a9.92 9.92 0 0 0-.6319 2H8c-.5523 0-1-.4477-1-1s.4477-1 1-1zM12 20.9976c.0001.685.0691 1.3538.2004 2H8c-.5523 0-1-.4477-1-1s.4477-1 1-1z"/>
</svg>
