<svg width="16" height="16" fill="currentColor" viewBox="0 0 16 16" xmlns="http://www.w3.org/2000/svg">
  <path fill-rule="evenodd" d="M1.027 13.9054c-.1611.6447.423 1.2287 1.0679 1.0675l3.522-.8803a.88.88 0 0 0 .4091-.2316l8.2-8.1976c1.0311-1.031 1.0318-2.7065.0034-3.7347l-.1547-.1546c-1.0327-1.0324-2.699-1.033-3.7355.0033l-8.2 8.1977a.88.88 0 0 0-.2316.409zm3.8042-1.6779-1.4112.3527.3526-1.41 4.8778-4.8764 1.058 1.058zm6.5216-6.5198-1.0579-1.058 1.4583-1.4579c.2552-.255.6554-.2553.9074-.0034l.1547.1547c.247.247.2467.656-.0034.9059zM9 13c-.5523 0-1 .4477-1 1s.4477 1 1 1h5c.5523 0 1-.4477 1-1s-.4477-1-1-1z"/>
</svg>
