<svg xmlns="http://www.w3.org/2000/svg" fill="none" viewBox="0 0 24 24"><g fill="currentColor" clip-path="url(#retention-policy--24-a)"><path d="M16 2.1006c0-.6902.6838-1.1706 1.3027-.8653C21.2701 3.1928 23.9998 7.2768 24 12c-.0003 6.6272-5.3727 12-12 12S.0003 18.6272 0 12C.0002 7.2768 2.73 3.1927 6.6973 1.2354 7.3163.93 8 1.4104 8 2.1006v.0781c0 .3975-.2379.7538-.5908.9365C4.1963 4.7785 2.0002 8.1325 2 12c.0003 5.5226 4.4773 10 10 10s9.9997-4.4774 10-10c-.0002-3.8675-2.1963-7.2215-5.4092-8.8848-.3529-.1827-.5908-.539-.5908-.9365v-.0781Z"/><path d="M12 0c.5523 0 1 .4477 1 1v12.5859l2.293-2.2929a.9996.9996 0 0 1 1.414 0 .9996.9996 0 0 1 0 1.414l-4 4a.9996.9996 0 0 1-1.414 0l-4-4c-.3906-.3905-.3906-1.0235 0-1.414a.9997.9997 0 0 1 1.414 0L11 13.5859V1c0-.5523.4477-1 1-1Z"/></g><defs><clipPath id="retention-policy--24-a"><path fill="#fff" d="M0 0h24v24H0z"/></clipPath></defs></svg>