<svg xmlns="http://www.w3.org/2000/svg" fill="none" viewBox="0 0 24 24"><path fill="currentColor" d="m2.625 21.375 3-1.5-1.5-1.5-1.5 3ZM15.375 9.375a.75.75 0 1 0 0-1.5.75.75 0 0 0 0 1.5Z"/><path stroke="currentColor" stroke-linecap="round" stroke-linejoin="round" stroke-width="2.25" d="m6.375 14.625-3-.75s0-2.25.75-4.5 6-2.25 6-2.25m-3.75 7.5 3 3m-3-3s3-7.5 6.75-9.75 8.25-2.25 8.25-2.25 0 4.5-2.25 8.25-9.75 6.75-9.75 6.75m0 0 .75 3s2.25 0 4.5-.75 2.25-6 2.25-6m-14.25 7.5 3-1.5-1.5-1.5-1.5 3Zm13.5-12.75a.75.75 0 1 1-1.5 0 .75.75 0 0 1 1.5 0Z"/></svg>