<svg xmlns="http://www.w3.org/2000/svg" fill="none" viewBox="0 0 16 16"><g clip-path="url(#rocket--16-a)"><path fill="currentColor" d="m1 15 2.24-1.12-1.12-1.12L1 15ZM10.52 6.04a.56.56 0 1 0 0-1.12.56.56 0 0 0 0 1.12Z"/><path stroke="currentColor" stroke-linecap="round" stroke-linejoin="round" stroke-width="1.68" d="M3.8 9.96 1.56 9.4s0-1.68.56-3.36S6.6 4.36 6.6 4.36m-2.8 5.6 2.24 2.24M3.8 9.96s2.24-5.6 5.04-7.28C11.64 1 15 1 15 1s0 3.36-1.68 6.16c-1.68 2.8-7.28 5.04-7.28 5.04m0 0 .56 2.24s1.68 0 3.36-.56 1.68-4.48 1.68-4.48M1 15l2.24-1.12-1.12-1.12L1 15Zm10.08-9.52a.56.56 0 1 1-1.12 0 .56.56 0 0 1 1.12 0Z"/></g><defs><clipPath id="rocket--16-a"><path fill="#fff" d="M0 0h16v16H0z"/></clipPath></defs></svg>