<svg width="16" height="16" fill="currentColor" viewBox="0 0 16 16" xmlns="http://www.w3.org/2000/svg">
  <path d="M2.083 9h1.948A16 16 0 0 1 4 8c0-.3387.0105-.6724.031-1H2.083A6.04 6.04 0 0 0 2 8c0 .3407.0284.6748.083 1m.7197 2a6.03 6.03 0 0 0 2.1427 2.1653c-.272-.6427-.4942-1.3724-.6546-2.1653zM13.917 9A6.04 6.04 0 0 0 14 8c0-.3407-.0284-.6748-.083-1h-1.948c.0205.3276.031.6613.031 1s-.0105.6724-.031 1zm-.7197 2h-1.488c-.1605.7929-.3827 1.5226-.6547 2.1653A6.03 6.03 0 0 0 13.1973 11M6.0355 9h3.929C9.988 8.673 10 8.3389 10 8s-.012-.673-.0355-1h-3.929C6.012 7.327 6 7.6611 6 8s.012.673.0355 1m.303 2c.1588.6604.3693 1.2571.622 1.7624C7.402 13.6456 7.821 14 8 14s.598-.3544 1.0396-1.2376c.2526-.5053.463-1.102.622-1.7624zM2.8026 5h1.488c.1605-.7929.3827-1.5226.6547-2.1653A6.03 6.03 0 0 0 2.8027 5m10.3946 0a6.03 6.03 0 0 0-2.1427-2.1653c.272.6427.4942 1.3724.6546 2.1653zM6.3384 5h3.3232c-.159-.6604-.3694-1.2571-.622-1.7624C8.598 2.3544 8.179 2 8 2s-.598.3544-1.0396 1.2376c-.2526.5053-.463 1.102-.622 1.7624M8 16c-4.4183 0-8-3.5817-8-8s3.5817-8 8-8 8 3.5817 8 8-3.5817 8-8 8"/>
</svg>
