<svg xmlns="http://www.w3.org/2000/svg" fill="none" viewBox="0 0 24 24"><path fill="currentColor" d="M12 22C6.4771 22 2 17.5228 2 12 2 6.4771 6.4771 2 12 2c5.5228 0 10 4.4771 10 10 0 5.5228-4.4772 10-10 10Zm7.748-12h-2.9277A11.267 11.267 0 0 1 17 12c0 .6684-.06 1.3351-.1797 2h2.9277A8.0156 8.0156 0 0 0 20 12a8.0156 8.0156 0 0 0-.252-2Zm-.8183-2c-1.0019-1.732-2.6346-3.0537-4.584-3.6506C15.1912 5.559 15.8366 6.7762 16.2791 8h2.6506Zm-9.7106 2C9.0728 10.6692 9 11.3358 9 12c0 .6642.0728 1.3308.2191 2h5.5618c.1463-.6692.2191-1.3358.2191-2 0-.6642-.0728-1.3308-.2191-2H9.2191Zm.6534-2h4.255C13.6319 6.8587 12.9239 5.7092 12 4.5507 11.0761 5.7092 10.3681 6.8587 9.8725 8ZM4.252 10A8.0142 8.0142 0 0 0 4 12c0 .6906.0875 1.3608.252 2h2.9277A11.2734 11.2734 0 0 1 7 12c0-.6684.06-1.3351.1797-2H4.252Zm.8183-2h2.6506c.4425-1.2238 1.088-2.441 1.9334-3.6506C7.705 4.9464 6.0723 6.2679 5.0703 8Zm13.8594 8h-2.6506c-.4425 1.2238-1.0879 2.441-1.9334 3.6506 1.9494-.597 3.5821-1.9185 4.584-3.6506Zm-9.0572 0c.4956 1.1413 1.2036 2.2907 2.1275 3.4493.9239-1.1586 1.6319-2.308 2.1275-3.4493h-4.255Zm-4.8022 0c1.002 1.7321 2.6346 3.0536 4.584 3.6506C8.8088 18.441 8.1634 17.2238 7.721 16H5.0703Z"/></svg>