<svg width="24" height="24" fill="currentColor" viewBox="0 0 24 24" xmlns="http://www.w3.org/2000/svg">
  <path d="M12 23C5.9249 23 1 18.0751 1 12S5.9249 1 12 1s11 4.9249 11 11-4.9249 11-11 11m0-2c4.9706 0 9-4.0294 9-9s-4.0294-9-9-9-9 4.0294-9 9 4.0294 9 9 9m2.6667-5.153v1.3202a.8334.8334 0 1 1-1.6667 0v-3.3338A.8334.8334 0 0 1 13.8333 13h3.3334a.8334.8334 0 0 1 .8333.8334.8334.8334 0 0 1-.8333.8335h-1.322l1.772 1.7683c.3257.3254.3268.854.0024 1.1808a.8307.8307 0 0 1-1.1773.0023zm-7-.6934 1.7751-1.7713a.8307.8307 0 0 1 1.1773.0023c.3244.3268.3233.8554-.0024 1.1808l-1.772 1.7683h1.322a.8334.8334 0 0 1 .8333.8335.8334.8334 0 0 1-.8333.8334H6.8333A.8334.8334 0 0 1 6 17.1672v-3.3338a.8334.8334 0 1 1 1.6667 0zm1.6666-7V6.8334a.8334.8334 0 1 1 1.6667 0v3.3338a.8334.8334 0 0 1-.8333.8334H6.8333A.8334.8334 0 0 1 6 10.1672a.8334.8334 0 0 1 .8333-.8335h1.322l-1.772-1.7683c-.3257-.3254-.3268-.854-.0024-1.1808a.8307.8307 0 0 1 1.1773-.0023zm7 .6934-1.7751 1.7713a.8307.8307 0 0 1-1.1773-.0023c-.3244-.3268-.3233-.8554.0024-1.1808l1.772-1.7683h-1.322A.8334.8334 0 0 1 13 6.8334.8334.8334 0 0 1 13.8333 6h3.3334A.8334.8334 0 0 1 18 6.8334v3.3338a.8334.8334 0 1 1-1.6667 0z"/>
</svg>
