<svg width="32" height="32" fill="currentColor" viewBox="0 0 32 32" xmlns="http://www.w3.org/2000/svg">
  <path d="M16 30C8.268 30 2 23.732 2 16S8.268 2 16 2s14 6.268 14 14-6.268 14-14 14m0-2c6.6274 0 12-5.3726 12-12S22.6274 4 16 4 4 9.3726 4 16s5.3726 12 12 12m-2.9991-16.416V10c0-.5523.4477-1 1-1s1 .4477 1 1v4c0 .5523-.4478 1-1 1h-4c-.5523 0-1-.4477-1-1s.4477-1 1-1h1.5864L8.294 9.7116c-.3909-.3904-.3922-1.0247-.0028-1.4167a.997.997 0 0 1 1.4127-.0029zm9-.168-3.297 3.292a.997.997 0 0 1-1.4127-.0029c-.3894-.392-.388-1.0263.0028-1.4167L20.5873 10H19.001c-.5523 0-1-.4477-1-1s.4477-1 1-1h4c.5522 0 1 .4477 1 1v4c0 .5523-.4478 1-1 1s-1-.4477-1-1zm-3.0009 9V22c0 .5523-.4477 1-1 1s-1-.4477-1-1v-4c0-.5523.4477-1 1-1h4c.5523 0 1 .4477 1 1s-.4477 1-1 1h-1.5865l3.2934 3.2884c.3908.3904.3921 1.0247.0028 1.4167a.997.997 0 0 1-1.4127.0029zm-9 .168 3.297-3.292a.997.997 0 0 1 1.4127.0029c.3893.392.388 1.0263-.0028 1.4167L11.4135 22H13c.5523 0 1 .4477 1 1s-.4477 1-1 1H9c-.5523 0-1-.4477-1-1v-4c0-.5523.4477-1 1-1s1 .4477 1 1z"/>
</svg>
