<svg width="24" height="24" fill="currentColor" viewBox="0 0 24 24" xmlns="http://www.w3.org/2000/svg">
  <path d="M11.1724 1.1793a2 2 0 0 1 1.6552 0l9 4.0909A2 2 0 0 1 23 7.0909v9.4244a2 2 0 0 1-1.1724 1.8207l-9 4.0909a2 2 0 0 1-1.6552 0l-9-4.091A2 2 0 0 1 1 16.5154V7.0909a2 2 0 0 1 1.1724-1.8207zM8.641 15.913q.968 0 1.7215-.2915 .7535-.2916 1.177-.836t.4235-1.2815q0-.671-.286-1.1165t-.8965-.726-1.6335-.4675q-.627-.132-.9625-.2585t-.484-.2805-.1485-.385q0-.341 .264-.517t.759-.176q.429 0 .7205 .176t.3575 .429q.066 .099 .1485 .143t.2145 .044h1.452q.099 0 .165-.066t.066-.165q-.022-.484-.3905-.9845T10.236 8.323t-1.661-.33q-.924 0-1.617 .297t-1.067 .825-.374 1.199q0 .99 .6545 1.5235t1.9745 .8085q.715 .154 1.078 .275t.5335 .275 .1705 .396q0 .341-.33 .539t-.957 .198q-.528 0-.847-.187t-.462-.473q-.088-.099-.1705-.1485t-.2145-.0495H5.561a.233 .233 0 0 0-.1705 .0715q-.0715 .0714-.0715 .1595 .022 .594 .4015 1.0945t1.1275 .8085 1.793 .308m7.227 0q.924 0 1.661-.297t1.155-.847 .418-1.287q0-1.012-.5885-1.5565t-1.6005-.6765l-.077-.022 1.672-1.551q.176-.154 .176-.363v-.935q0-.121-.0825-.198t-.2035-.077h-5.06q-.11 0-.1925 .077t-.0825 .198v1.034q0 .11 .0825 .1925t.1925 .0825h3.058l-1.804 1.529q-.176 .132-.176 .374v.616q0 .11 .0825 .1925t.1925 .0825h1.221q1.144 0 1.144 .88 0 .451-.3135 .7095t-.8745 .2585q-.979 0-1.199-.572-.066-.121-.143-.165t-.198-.044h-1.441a.243 .243 0 0 0-.1705 .066 .215 .215 0 0 0-.0715 .165q.022 .495 .3685 .9845t1.067 .8195 1.7875 .33"/>
</svg>
