<svg xmlns="http://www.w3.org/2000/svg" fill="none" viewBox="0 0 16 16"><g clip-path="url(#save--16-a)"><path fill="currentColor" d="M3.4288 1.4296c.4533-.3155 1.0765-.2038 1.392.2495.3155.4533.2037 1.0766-.2496 1.392C2.9708 4.185 2 6.0073 2 7.9993c0 3.3133 2.6863 5.9994 6 5.9994s6-2.6861 6-5.9994c0-1.9807-.977-3.812-2.5736-4.9302-.4524-.3168-.5623-.9404-.2455-1.3927.3168-.4524.9404-.5623 1.3927-.2455C14.6987 2.9191 16 5.3584 16 7.9993c0 4.418-3.5817 7.9994-8 7.9994s-8-3.5814-8-7.9994c0-2.6527 1.296-5.0854 3.4288-6.5697ZM9 7.5853l.2929-.293c.3905-.3904 1.0237-.3904 1.4142 0 .3905.3906.3905 1.0237 0 1.4142l-2 1.9998c-.3905.3905-1.0237.3905-1.4142 0l-2-1.9998c-.3905-.3905-.3905-1.0236 0-1.4141.3905-.3905 1.0237-.3905 1.4142 0L7 7.5853V.9999C7 .4477 7.4477 0 8 0s1 .4477 1 1v6.5853Z"/></g><defs><clipPath id="save--16-a"><path fill="#fff" d="M0 0h16v16H0z"/></clipPath></defs></svg>