<svg width="32" height="32" fill="currentColor" viewBox="0 0 32 32" xmlns="http://www.w3.org/2000/svg">
  <path d="m26 9.1753-10.1015 6.8585L25.99 22.832s-1.4743 1.504-2.7196.6618c-.9663-.6518-7.0531-4.2815-9.7728-5.8958l-3.8453 2.607a4.398 4.398 0 0 1 .259 2.8677c-.2983 1.2898-1.066 2.4204-2.1518 3.1685-2.0024 1.3536-4.3634.8523-5.3596-1.1531a4.398 4.398 0 0 1-.269-2.8978c.2992-1.2895 1.0668-2.4197 2.1519-3.1685A4.43 4.43 0 0 1 5.797 18.36h.1295c3.168-.5615 4.7917-1.6143 5.5787-2.3663-.787-.742-2.4108-1.8049-5.5787-2.3664H5.797a4.44 4.44 0 0 1-1.5043-.6618c-1.085-.7488-1.8526-1.879-2.1518-3.1685a4.398 4.398 0 0 1 .269-2.8877c.9564-1.9954 3.387-2.5068 5.3795-1.1531 1.077.7485 1.8372 1.875 2.1319 3.1584a4.398 4.398 0 0 1-.259 2.8778l3.8453 2.607c2.7196-1.6144 8.7766-5.2441 9.7728-5.8959C24.5256 7.6613 26 9.1753 26 9.1753M7.7894 10.7095a1.846 1.846 0 0 0 .1096-1.2033 3.007 3.007 0 0 0-1.305-1.8048c-1.076-.6818-2.351-.5816-2.7894.3208a1.836 1.836 0 0 0-.0498 1.1933A3.1 3.1 0 0 0 5 11.0303c1.076.6819 2.351.5816 2.7894-.3208m.0897 11.8317.0199.01a1.836 1.836 0 0 0-.0897-1.173c-.4383-.9025-1.7134-1.053-2.7893-.321a3.108 3.108 0 0 0-1.2652 1.815 1.836 1.836 0 0 0 .0896 1.1931c.4384.9024 1.7135 1.0528 2.7894.3209a3.01 3.01 0 0 0 1.2453-1.845M20 15h2v2h-2zm4 0h2v2h-2zm4 0h2v2h-2z"/>
</svg>
