<svg xmlns="http://www.w3.org/2000/svg" fill="none" viewBox="0 0 24 24"><path fill="currentColor" d="M12.999 2.314c.0002-.6275.5637-1.1093 1.166-.9336 3.9489 1.1521 6.8338 4.7981 6.834 9.1191 0 2.5178-.9814 4.8049-2.5801 6.5049l3.9454 3.9453c.3902.3905.3902 1.0236 0 1.4141-.3905.3904-1.0236.3903-1.4141 0l-4.0508-4.0498c-1.5336 1.0618-3.3938 1.6855-5.4004 1.6855-4.321-.0002-7.966-2.8852-9.1181-6.834-.1757-.6024.3061-1.1658.9335-1.166.4857 0 .8977.3455 1.047.8076.9731 3.013 3.8007 5.1922 7.1376 5.1924 4.1422 0 7.5-3.3579 7.5-7.5-.0002-3.337-2.1793-6.1654-5.1924-7.1387-.4621-.1492-.8076-.5612-.8076-1.0468Z"/><path fill="currentColor" d="M10.0205.9497c.5522.0001 1 .4478 1 1V9.021c-.0001.5521-.4479.9999-1 1H2.9492c-.5522 0-.9999-.4478-1-1 0-.5523.4477-1 1-1h4.6573L2.2422 2.6567c-.3905-.3905-.3905-1.0235 0-1.414.3905-.3905 1.0235-.3905 1.414 0l5.3643 5.3642V1.9497c0-.5523.4477-1 1-1Z"/></svg>