<svg width="24" height="24" fill="currentColor" viewBox="0 0 24 24" xmlns="http://www.w3.org/2000/svg">
  <path d="M11.48 1c5.2357 0 9.48 4.2552 9.48 9.5043 0 2.536-.9907 4.84-2.6053 6.5443L22.24 21.326c.371.4086.3414 1.0413-.066 1.4133a.996.996 0 0 1-1.3198.0213l-.09-.0875-3.9278-4.326c-1.5239 1.0482-3.3687 1.6615-5.3564 1.6615-5.2357 0-9.48-4.2552-9.48-9.5043C2 5.2553 6.2443 1 11.48 1m0 2.0009c-4.1334 0-7.4842 3.3594-7.4842 7.5034s3.3508 7.5034 7.4842 7.5034 7.4842-3.3594 7.4842-7.5034-3.3508-7.5034-7.4842-7.5034"/>
</svg>
