<svg width="32" height="32" fill="currentColor" viewBox="0 0 32 32" xmlns="http://www.w3.org/2000/svg">
  <path d="M3 2h11c.5523 0 1 .4477 1 1v11c0 .5523-.4477 1-1 1H3c-.5523 0-1-.4477-1-1V3c0-.5523 .4477-1 1-1m15 0h11c.5523 0 1 .4477 1 1v11c0 .5523-.4477 1-1 1H18c-.5523 0-1-.4477-1-1V3c0-.5523 .4477-1 1-1m0 15h11c.5523 0 1 .4477 1 1v11c0 .5523-.4477 1-1 1H18c-.5523 0-1-.4477-1-1V18c0-.5523 .4477-1 1-1M3 17h11c.5523 0 1 .4477 1 1v11c0 .5523-.4477 1-1 1H3c-.5523 0-1-.4477-1-1V18c0-.5523 .4477-1 1-1m1-4h9V4H4zm15 0h9V4h-9zM4 28h9v-9H4zm15 0h9v-9h-9z"/>
</svg>
