<svg width="24" height="24" fill="currentColor" viewBox="0 0 24 24" xmlns="http://www.w3.org/2000/svg">
  <path d="M23 14.8027C22.1175 14.2922 21.0929 14 20 14c-1.777 0-3.3736.7725-4.4722 2H3v4h11c0 .7013.1203 1.3744.3414 2H1.9918C1.444 22 1 21.5447 1 21.0082V2.9918C1 2.444 1.4553 2 1.9918 2h20.0164c.5478 0 .9918.4553.9918.9918zM3 8h18V4H3zm0 6h18v-4H3zm16-1c-.5523 0-1-.4477-1-1s.4477-1 1-1 1 .4477 1 1-.4477 1-1 1m-3 0c-.5523 0-1-.4477-1-1s.4477-1 1-1 1 .4477 1 1-.4477 1-1 1m-3 0c-.5523 0-1-.4477-1-1s.4477-1 1-1 1 .4477 1 1-.4477 1-1 1m-8 0c-.5523 0-1-.4477-1-1s.4477-1 1-1 1 .4477 1 1-.4477 1-1 1m0 6c-.5523 0-1-.4477-1-1s.4477-1 1-1 1 .4477 1 1-.4477 1-1 1M5 7c-.5523 0-1-.4477-1-1s.4477-1 1-1 1 .4477 1 1-.4477 1-1 1m11 0c-.5523 0-1-.4477-1-1s.4477-1 1-1 1 .4477 1 1-.4477 1-1 1m3 0c-.5523 0-1-.4477-1-1s.4477-1 1-1 1 .4477 1 1-.4477 1-1 1"/>
</svg>
