<svg xmlns="http://www.w3.org/2000/svg" fill="none" viewBox="0 0 16 16"><path fill="currentColor" d="M2 1h4c.5523 0 1 .4477 1 1v4c0 .5523-.4477 1-1 1H2c-.5523 0-1-.4477-1-1V2c0-.5523.4477-1 1-1Zm8 0h4c.5523 0 1 .4477 1 1v4c0 .5523-.4477 1-1 1h-4c-.5523 0-1-.4477-1-1V2c0-.5523.4477-1 1-1Zm0 8h4c.5523 0 1 .4477 1 1v4c0 .5523-.4477 1-1 1h-4c-.5523 0-1-.4477-1-1v-4c0-.5523.4477-1 1-1ZM2 9h4c.5523 0 1 .4477 1 1v4c0 .5523-.4477 1-1 1H2c-.5523 0-1-.4477-1-1v-4c0-.5523.4477-1 1-1Zm9-6v2h2V3h-2Zm0 8v2h2v-2h-2Zm-8 2h2v-2H3v2Zm0-8h2V3H3v2Z"/></svg>