<svg width="24" height="24" fill="currentColor" viewBox="0 0 24 24" xmlns="http://www.w3.org/2000/svg">
  <path fill-rule="evenodd" d="M2.4507 6.8916.4636 8.1561c-.466.2965-.6036.9148-.3071 1.3808l.0078.012c.2994.4563.9109.5887 1.3727.2948l.4632-.2948V22c0 .5523.4477 1 1 1h18c.5522 0 1-.4477 1-1V9.549l.4631.2947c.4619.2939 1.0733.1615 1.3727-.2948l.0078-.012c.2965-.466.1584-1.0846-.3076-1.381l-10.4623-6.658a2 2 0 0 0-2.1475 0L2.4775 6.8747a1 1 0 0 0-.0268.017M6 21H4.0002V8.2762l8-5.0909 8 5.091V21H18V10c0-.5523-.4477-1-1-1H7c-.5523 0-1 .4477-1 1zm2-10h8v4H8zm0 10v-4h8v4zm3-8c0 .5523-.4477 1-1 1s-1-.4477-1-1 .4477-1 1-1 1 .4477 1 1m3 0c0 .5523-.4477 1-1 1s-1-.4477-1-1 .4477-1 1-1 1 .4477 1 1m-3 6c0 .5523-.4477 1-1 1s-1-.4477-1-1 .4477-1 1-1 1 .4477 1 1"/>
</svg>
