<svg width="16" height="16" fill="currentColor" viewBox="0 0 16 16" xmlns="http://www.w3.org/2000/svg">
  <path d="M14 0c1.0529 0 1.918.8173 1.9945 1.851L16 2v8c0 1.0529-.8173 1.918-1.851 1.9945L14 12h-2v2c0 1.0529-.8173 1.918-1.851 1.9945L10 16H2C.9471 16 .082 15.1827.0055 14.149L0 14V6c0-1.0529.8173-1.918 1.851-1.9945L2 4h2V2C4 .9471 4.8173.082 5.851.0055L6 0zm-4 12H2v2h8zm4-4h-2v2h2zm-4-2H1.999L2 10h8zM4.5 7c.552 0 1 .448 1 1s-.448 1-1 1-1-.448-1-1 .448-1 1-1m3 0c.552 0 1 .448 1 1s-.448 1-1 1-1-.448-1-1 .448-1 1-1M14 2H6v2h4c1.0529 0 1.918.8173 1.9945 1.851L12 6h2z"/>
</svg>
