<svg xmlns="http://www.w3.org/2000/svg" fill="none" viewBox="0 0 16 16"><g clip-path="url(#settings-d-o--16-a)"><path fill="currentColor" d="M8 0c.823 0 1.519.6093 1.6278 1.4251l.1262.9463c.0626.4694.6091.6958.9852.4082l.7587-.5802c.6538-.4999 1.5767-.4386 2.1587.1432.582.582.6434 1.505.1434 2.1589l-.5804.759c-.2878.3763-.0613.923.4083.9856l.9469.1262C15.3907 6.481 16 7.177 16 8a1.642 1.642 0 0 1-1.4252 1.6277l-.9466.1262c-.4694.0625-.6958.6091-.4081.9852l.5799.7585c.5.6538.4386 1.5768-.1434 2.1588-.582.5819-1.5049.6431-2.1587.1432l-.7584-.58c-.3763-.2877-.923-.0612-.9855.4083l-.1262.9469C9.519 15.3907 8.823 16 8 16c-.823 0-1.519-.6093-1.6278-1.4252l-.1261-.9466c-.0627-.4695-.6094-.6959-.9856-.4081l-.7586.5802c-.6538.5001-1.5767.4389-2.1588-.143-.582-.5819-.6434-1.5049-.1435-2.1587l.5806-.7593c.2877-.3762.0612-.9229-.4083-.9854l-.9467-.1262C.6093 9.519 0 8.8231 0 8c0-.823.6093-1.519 1.4252-1.6277l.9468-.1261c.4696-.0626.696-.6094.4083-.9856l-.5806-.7593c-.5-.6537-.4388-1.5765.1429-2.1587.582-.5824 1.5055-.6438 2.1595-.1436l.7587.5803c.3761.2877.9227.0613.9852-.408l.1262-.9462C6.481.6093 7.177 0 8 0Zm-.6366 1.5573-.1261.9462c-.1642 1.231-1.5976 1.8246-2.584 1.0701l-.7587-.5803a.6424.6424 0 0 0-.9005.9005l.5806.7593c.7545.9866.1606 2.4202-1.0706 2.5843l-.9468.1261a.642.642 0 0 0 0 1.273l.9467.1261c1.231.164 1.825 1.5975 1.0706 2.5841l-.5805.7593a.6421.6421 0 0 0 .9002.9001l.7586-.5803c.9866-.7546 2.4203-.1609 2.5844 1.0703l.1262.9466a.6422.6422 0 0 0 1.273 0l.1263-.947c.164-1.231 1.5975-1.8248 2.5841-1.0704l.7585.5799a.642.642 0 0 0 .9002-.9002l-.5799-.7584c-.7544-.9866-.1606-2.42 1.0704-2.584l.9466-.1261a.6421.6421 0 0 0 0-1.273l-.9469-.1261c-1.2312-.164-1.8251-1.5976-1.0706-2.5843l.5804-.759a.6423.6423 0 0 0-.9002-.9003l-.7587.5801c-.9865.7544-2.4198.1606-2.584-1.0703l-.1261-.9463a.6422.6422 0 0 0-1.2732 0ZM8 5.5c1.3807 0 2.5 1.1193 2.5 2.5S9.3807 10.5 8 10.5 5.5 9.3807 5.5 8 6.6193 5.5 8 5.5ZM6.5 8c0 .8284.6716 1.5 1.5 1.5S9.5 8.8284 9.5 8 8.8284 6.5 8 6.5 6.5 7.1716 6.5 8Z"/></g><defs><clipPath id="settings-d-o--16-a"><path fill="#fff" d="M0 0h16v16H0z"/></clipPath></defs></svg>