<svg width="32" height="32" fill="currentColor" viewBox="0 0 32 32" xmlns="http://www.w3.org/2000/svg">
  <path d="M16 26c-.3266 0-.6496-.0157-.9682-.0463l-.34 .8198c-.4418 .993-1.5848 1.4659-2.5995 1.0752l-1.6832-.697c-1.0137-.4217-1.4948-1.5839-1.0756-2.5983l.3365-.8115a10.06 10.06 0 0 1-1.3988-1.396l-.8102 .3358a1.993 1.993 0 0 1-1.528 .004 1.992 1.992 0 0 1-1.0814-1.0792L4.1544 19.924c-.4192-1.0144 .062-2.1766 1.0757-2.5984l.818-.339A10.1 10.1 0 0 1 6 16c0-.3286 .0159-.6536 .0468-.9741l-.8167-.3385a1.992 1.992 0 0 1-1.0798-1.081A1.99 1.99 0 0 1 4.1544 12.079l.6972-1.6825a1.992 1.992 0 0 1 1.0813-1.0793 1.993 1.993 0 0 1 1.5281 .0041l.8083 .335c.4166-.507 .8821-.9724 1.3893-1.3889l-.335-.8078a1.99 1.99 0 0 1-.0042-1.5275A1.992 1.992 0 0 1 10.3992 4.8512L12.0824 4.1543c1.0148-.419 2.1775 .062 2.5994 1.0753l.3393 .8177C15.343 6.016 15.6697 6 16 6q.4971 .0002 .9818 .0476l.3394-.818A1.992 1.992 0 0 1 18.4025 4.1503a1.993 1.993 0 0 1 1.5281 .004l1.6832 .697c1.0137 .4217 1.4949 1.584 1.0757 2.5983l-.3394 .825c.5051 .4157 .9688 .88 1.3839 1.3857l.818-.339c1.0148-.419 2.1775 .0619 2.5994 1.0752l.6972 1.6825c.4192 1.0144-.062 2.1767-1.0756 2.5984l-.8207 .3401Q26 15.5026 26 16c0 .3292-.016 .6547-.047 .9758l.82 .3398c1.0137 .4218 1.4948 1.584 1.0756 2.5985l-.6972 1.6825c-.4418 .993-1.5848 1.4658-2.5995 1.0752l-.8137-.3373a10.06 10.06 0 0 1-1.385 1.3883l.3363 .8107a1.99 1.99 0 0 1 .0086 1.5334 1.992 1.992 0 0 1-1.0843 1.0849l-1.6832 .6969c-1.0148 .419-2.1775-.062-2.5995-1.0752l-.3409-.822Q16.5015 25.9999 16 26m4.8447-.6944-.9064-2.1848 1.1434-.9418a8.06 8.06 0 0 0 1.1097-1.1123l.941-1.1482 1.3716 .5684 .7666 .3184q.021 .0081 .726-1.6464l-2.177-.9023 .1427-1.4736Q24 16.3946 24 16q0-.3974-.0382-.7884l-.1438-1.4744 1.3686-.5673 .81-.3357-.6884-1.6614-2.179 .9032-.9412-1.1469a8.06 8.06 0 0 0-1.1088-1.1102l-1.141-.939 .5623-1.3664 .337-.819-1.6716-.6922-.9041 2.1795-1.474-.1436A8.1 8.1 0 0 0 16 8c-.2639 0-.526 .0127-.7855 .038l-1.4736 .1431-.5672-1.3675-.335-.8077-1.6667 .69 .9025 2.1757-1.1468 .9416a8.06 8.06 0 0 0-1.113 1.1127l-.9413 1.1457-1.3698-.5677-.8073-.3346-.6934 1.6734 2.177 .9023-.1423 1.4733A8.1 8.1 0 0 0 8 16q.0001 .3991 .0385 .7916l.1445 1.4751-1.3692 .5675-.8074 .3346 .6899 1.665 2.1785-.903 .9414 1.1451a8.06 8.06 0 0 0 1.1207 1.1184l1.1499 .9413-.5694 1.3726-.332 .8004 1.6255 .6736q.021 .0081 .9402-2.1607l1.472 .1414q.3854 .037 .7769 .0371 .4006 0 .7946-.0388l1.475-.145 .568 1.369 .3367 .812zM16 21c-2.7614 0-5-2.2386-5-5s2.2386-5 5-5 5 2.2386 5 5-2.2386 5-5 5m0-2c1.6569 0 3-1.3431 3-3s-1.3431-3-3-3-3 1.3431-3 3 1.3431 3 3 3"/>
</svg>
