<svg width="32" height="32" fill="currentColor" viewBox="0 0 32 32" xmlns="http://www.w3.org/2000/svg">
  <path d="M22.9352 9.9355c1.8982.7047 3.4078 2.2091 4.1193 4.104A2.5 2.5 0 0 1 27.4992 14c1.3807 0 2.5 1.1193 2.5 2.5s-1.1193 2.5-2.5 2.5a2.5 2.5 0 0 1-.4447-.0394c-.7115 1.8948-2.221 3.3992-4.1193 4.1039C22.6793 24.1733 21.6858 25 20.4992 25a2.49 2.49 0 0 1-1.497-.4976l.0016-4.006A2.49 2.49 0 0 1 20.4992 20c1.2026 0 2.2068.849 2.446 1.9804 1.4645-.6546 2.6186-1.879 3.1803-3.3913-.6785-.447-1.1263-1.2158-1.1263-2.0891s.4478-1.642 1.1263-2.0891c-.5617-1.5123-1.7158-2.7367-3.1803-3.3913C22.706 12.1509 21.7018 13 20.4992 13A2.49 2.49 0 0 1 19 12.5008l.0064-4.0063A2.49 2.49 0 0 1 20.4992 8c1.1866 0 2.1801.8267 2.436 1.9355M3 7l15-3v23L3 25zm8.167 13.195c1.484-1.11 1.347-3.602-.248-4.572-.817-.684-2.508-1.18-1.974-2.492.766-.891 1.956-.335 2.889-.058-.016-.638-.033-1.28-.049-1.92-1.119-.147-2.359-.338-3.374.266-1.738 1.086-1.671 3.866.119 4.881.834.561 2.276 1.297 1.543 2.454-.949.754-2.127-.058-2.922-.611.023.682.041 1.359.057 2.036 1.239.479 2.782.819 3.959.016"/>
</svg>
