<svg width="32" height="32" fill="currentColor" viewBox="0 0 32 32" xmlns="http://www.w3.org/2000/svg">
  <path d="m3.6454 19.4105 6.7992-6.7992c2.1938-2.1938 5.7507-2.1938 7.9446 0 .3988.3989.3988 1.0456 0 1.4445s-1.0456.3988-1.4445 0c-1.3462-1.3462-3.499-1.3943-4.9028-.1442l-.1528.1442-6.7993 6.7992c-1.396 1.3961-1.396 3.6596 0 5.0556 1.3462 1.3462 3.499 1.3943 4.9029.1442l.1528-.1442 3.6179-3.618c.3989-.3988 1.0456-.3988 1.4445 0 .3682.3682.3965.9476.085 1.3483l-.085.0962-3.618 3.618c-2.1938 2.1938-5.7507 2.1938-7.9445 0-2.133-2.1329-2.1922-5.5541-.1778-7.7587zl6.7992-6.7992zM15.792 7.2633l3.618-3.618c2.1938-2.1938 5.7507-2.1938 7.9445 0 2.133 2.133 2.1922 5.5542.1777 7.7587l-.1777.1859-6.7992 6.7993c-2.1938 2.1938-5.7507 2.1938-7.9446 0-.3988-.3989-.3988-1.0456 0-1.4445s1.0456-.3989 1.4445 0c1.3462 1.3462 3.499 1.3943 4.9028.1442l.1528-.1442 6.7993-6.7992c1.396-1.3961 1.396-3.6596 0-5.0557-1.3462-1.3462-3.499-1.3943-4.9029-.1442l-.1528.1442-3.6179 3.618c-.3989.3989-1.0456.3989-1.4445 0-.3682-.3682-.3965-.9475-.085-1.3482zl3.618-3.618z"/>
</svg>
