<svg width="24" height="24" fill="currentColor" viewBox="0 0 24 24" xmlns="http://www.w3.org/2000/svg">
  <path d="M5.5004 18c1.3807 0 2.5 1.1193 2.5 2.5s-1.1193 2.5-2.5 2.5-2.5-1.1193-2.5-2.5 1.1193-2.5 2.5-2.5m11 0c1.3807 0 2.5 1.1193 2.5 2.5s-1.1193 2.5-2.5 2.5-2.5-1.1193-2.5-2.5 1.1193-2.5 2.5-2.5m-11 2a.5.5 0 1 0 0 1 .5.5 0 0 0 0-1m11 0a.5.5 0 1 0 0 1 .5.5 0 0 0 0-1m5.5-18c.5523 0 1 .4477 1 1 0 .5128-.386.9355-.8833.9933L22.0004 4h-2.261l-.765 3.2267-2.0953 9a1 1 0 0 1-.8591.7667L15.905 17H5.0681a1 1 0 0 1-.9179-.603l-.0407-.1122-2.0677-6.9596c-.1637-.5511.1695-1.1174.7125-1.2541l.1113-.0215L17.166 6.104l.8167-3.3412a1 1 0 0 1 .8576-.7563L18.954 2zm-5.303 6.186L4.2904 9.874 5.8144 15h9.296z"/>
</svg>
