<svg width="32" height="32" fill="currentColor" viewBox="0 0 32 32" xmlns="http://www.w3.org/2000/svg">
  <path fill-rule="evenodd" d="M16.0001 24c-6.169 0-10.3563-5.0408-11.8971-8.0225C5.4845 13.033 9.4832 8 16 8s10.5156 5.033 11.8971 7.9775C26.3564 18.9592 22.1691 24 16.0001 24m0-18C8.3254 6 3.7815 11.9158 2.2679 15.1803a1.898 1.898 0 0 0 .0333 1.6669C3.9512 20.0708 8.674 26 16.0001 26s12.0489-5.9292 13.6989-9.1528a1.898 1.898 0 0 0 .0333-1.6669C28.2187 11.9158 23.6748 6 16.0001 6M16 22c3.3137 0 6-2.6863 6-6s-2.6863-6-6-6-6 2.6863-6 6 2.6863 6 6 6m4-6c0 2.2091-1.7909 4-4 4s-4-1.7909-4-4 1.7909-4 4-4 4 1.7909 4 4"/>
</svg>
