<svg xmlns="http://www.w3.org/2000/svg" fill="none" viewBox="0 0 24 24"><path fill="currentColor" d="M18.6897 23c-1.1485-1.6004-3.7118-2.7145-6.6897-2.7145S6.4588 21.3996 5.3103 23C2.8753 22.6629 1 20.5663 1 18.0302V5.9698C1 3.4337 2.8753 1.337 5.3103 1 6.4588 2.6004 9.0221 3.7145 12 3.7145S17.5412 2.6004 18.6897 1C21.1247 1.3371 23 3.4337 23 5.9698v12.0604c0 2.5361-1.8753 4.6327-4.3103 4.9698Zm-11.174-9.5564c0-.2587-.0457-.4834-.1368-.6742-.0911-.1907-.2344-.3619-.4297-.5134-.1953-.1516-.5026-.3149-.9219-.49-.3723-.1541-.6302-.2783-.7734-.3723-.1432-.0941-.246-.1941-.3086-.2999-.0625-.1058-.0937-.2332-.0937-.3822 0-.2168.078-.3913.2343-.5232.1563-.132.3855-.198.6875-.198.3985 0 .8516.1072 1.3594.3214l.2969-.7643c-.5417-.2404-1.086-.3606-1.6328-.3606-.5703 0-1.0248.1372-1.3633.4116-.3386.2744-.5078.6506-.5078 1.1288 0 .3815.1067.7082.3203.9799.2135.2718.5807.5135 1.1016.7252.5052.2038.8385.3802 1 .5291.1614.149.2421.3306.2421.5448 0 .2378-.0879.4273-.2636.5684-.1758.1411-.4486.2116-.8184.2116-.2526 0-.5254-.0352-.8183-.1058a4.2978 4.2978 0 0 1-.8301-.29v.8858c.4114.2012.94.3018 1.586.3018.6457 0 1.1522-.145 1.5194-.4351.3672-.29.5508-.6898.5508-1.1994Zm3.5741 1.5561h.8243l1.7148-4.778h.0313c-.0105.0967-.0228.3737-.0372.831-.0143.4572-.0214.8283-.0214 1.1131v2.8339H14.5V9.2692h-1.3203l-1.6328 4.5585h-.0235L9.9375 9.2692H8.6211v5.7305h.8476v-2.7868c0-.622-.022-1.2883-.0664-1.999h.0313l1.6562 4.7858Zm4.9141-5.7305v5.7305h2.0625c.638 0 1.1361-.1457 1.4941-.437.3581-.2914.5372-.6944.5372-1.2092 0-.3815-.0944-.684-.2832-.9074-.1888-.2234-.4838-.373-.8848-.4488v-.0392c.3229-.0575.5703-.1973.7422-.4194.1719-.2221.2578-.5004.2578-.8349 0-.4965-.1751-.8597-.5254-1.0896-.3503-.23-.9186-.345-1.7051-.345h-1.6953Zm.9336 2.3675v-1.5835h.8086c.4219 0 .7298.0601.9238.1803.194.1202.291.3148.291.584 0 .2979-.0898.5089-.2695.633-.1797.1241-.4648.1862-.8555.1862h-.8984Zm0 .7604h.9453c.4141 0 .7227.0718.9258.2156.2031.1437.3047.3645.3047.6624 0 .324-.0996.5611-.2988.7114-.1993.1502-.4942.2254-.8848.2254h-.9922v-1.8148Z"/></svg>