<svg width="32" height="32" fill="currentColor" viewBox="0 0 32 32" xmlns="http://www.w3.org/2000/svg">
  <path d="M12 7c0 .5523-.4477 1-1 1H5v3h6c.5523 0 1 .4477 1 1s-.4477 1-1 1H5v14h22V13h-6.001c-.5523 0-1-.4477-1-1v-.001c-.0001-.5523.4476-1 .9999-1l.0001.0001L27 11V8h-6c-.5523 0-1-.4477-1-1s.4477-1 1-1h6.5087C28.3323 6 29 6.7713 29 7.7068v19.5864C29 28.2358 28.3312 29 27.5087 29H4.4913C3.6677 29 3 28.2287 3 27.2932V7.7068C3 6.7642 3.6688 6 4.4913 6H11c.5523 0 1 .4477 1 1m4-4c.5523 0 1 .4477 1 1v15.5858l2.2929-2.293c.3905-.3904 1.0237-.3904 1.4142 0 .3905.3906.3905 1.0238 0 1.4143l-4 4c-.3905.3905-1.0237.3905-1.4142 0l-4-4c-.3905-.3905-.3905-1.0237 0-1.4142s1.0237-.3905 1.4142 0L15 19.5858V4c0-.5523.4477-1 1-1"/>
</svg>
