<svg xmlns="http://www.w3.org/2000/svg" fill="none" viewBox="0 0 16 16"><path fill="currentColor" d="M15.7071 5.7071c-.3905.3905-1.0237.3905-1.4142 0L13 4.4142V14c0 .5523-.4477 1-1 1s-1-.4477-1-1V4.4142l-1.2929 1.293c-.3905.3904-1.0237.3904-1.4142 0-.3905-.3906-.3905-1.0238 0-1.4143l3-3c.3905-.3905 1.0237-.3905 1.4142 0l3 3c.3905.3905.3905 1.0237 0 1.4142ZM.2929 10.2929c.3905-.3905 1.0237-.3905 1.4142 0L3 11.5858V2c0-.5523.4477-1 1-1s1 .4477 1 1v9.5858l1.2929-1.2929c.3905-.3905 1.0237-.3905 1.4142 0 .3905.3905.3905 1.0237 0 1.4142l-3 3c-.3905.3905-1.0237.3905-1.4142 0l-3-3c-.3905-.3905-.3905-1.0237 0-1.4142Z"/></svg>