<svg width="24" height="24" fill="currentColor" viewBox="0 0 24 24" xmlns="http://www.w3.org/2000/svg">
  <path fill-rule="evenodd" d="M6 1C4.3431 1 3 2.3432 3 4v16c0 1.6569 1.3431 3 3 3h8.8027a5.96 5.96 0 0 1-.7197-2H13v-1c0-.5523-.4477-1-1-1s-1 .4477-1 1v1H9v-1c0-.5523-.4477-1-1-1s-1 .4477-1 1v1H6c-.5523 0-1-.4477-1-1V4c0-.5523.4477-1 1-1h12c.5523 0 1 .4477 1 1v10.083A6.04 6.04 0 0 1 20 14c.3407 0 .6748.0284 1 .083V4c0-1.6568-1.3431-3-3-3zm3 4c-1.1046 0-2 .8954-2 2v6c0 1.1046.8954 2 2 2h6c1.1046 0 2-.8954 2-2V7c0-1.1046-.8954-2-2-2zm0 2h6v6H9z"/>
</svg>
