<svg xmlns="http://www.w3.org/2000/svg" fill="none" viewBox="0 0 16 16"><g clip-path="url(#stamp--16-a)"><path fill="currentColor" fill-rule="evenodd" d="M7.234.327a1.0606 1.0606 0 0 1 1.532 0l.7375.7673a1.061 1.061 0 0 0 1.0089.2989l1.0315-.2432c.5864-.1382 1.1699.2401 1.2889.8357l.2093 1.0477c.074.3706.3354.675.6885.8016l.9981.3581c.5674.2036.8555.8402.6365 1.406l-.3854.9956a1.0842 1.0842 0 0 0 .1496 1.05l.6478.8456c.3682.4808.2695 1.1734-.2181 1.53l-.8576.6273a1.0802 1.0802 0 0 0-.4368.9649l.0918 1.0648c.0521.6052-.4021 1.1341-1.0033 1.1681l-1.0577.0599a1.0665 1.0665 0 0 0-.8845.5735l-.4934.9458c-.2805.5376-.946.7348-1.47.4355l-.9219-.5266a1.0593 1.0593 0 0 0-1.0514 0l-.9219.5266c-.524.2993-1.1895.1021-1.47-.4355l-.4934-.9458a1.0665 1.0665 0 0 0-.8845-.5735l-1.0576-.0599c-.6013-.034-1.0555-.5629-1.0034-1.1681l.0918-1.0648a1.0804 1.0804 0 0 0-.4368-.9649l-.8576-.6273c-.4876-.3566-.5863-1.0493-.218-1.53l.6477-.8456a1.0844 1.0844 0 0 0 .1496-1.05l-.3854-.9955c-.219-.566.0691-1.2025.6365-1.406l.998-.3582c.3532-.1267.6146-.431.6886-.8016l.2093-1.0477c.119-.5956.7025-.974 1.2889-.8357l1.0315.2432a1.061 1.061 0 0 0 1.0089-.2989L7.234.3271Zm4.3847 6.2917a.875.875 0 0 0-1.2374-1.2374L7 8.7626l-.8813-.8813a.875.875 0 1 0-1.2374 1.2374l1.5 1.5a.875.875 0 0 0 1.2374 0l4-4Z" clip-rule="evenodd"/></g><defs><clipPath id="stamp--16-a"><path fill="#fff" d="M0 0h16v16H0z"/></clipPath></defs></svg>