<svg xmlns="http://www.w3.org/2000/svg" fill="none" viewBox="0 0 16 16"><path fill="currentColor" d="M8 6c.5523 0 1 .4477 1 1v1.9219l1.5.8672c.478.2761.642.887.3662 1.3652-.2761.4783-.888.6424-1.3662.3662l-2-1.1543c-.01-.0058-.0195-.0124-.0293-.0185a1.0543 1.0543 0 0 1-.044-.0293c-.0155-.0109-.0301-.0226-.0449-.0342-.0084-.0066-.0172-.0127-.0254-.0196a.9479.9479 0 0 1-.0693-.0644.989.989 0 0 1-.1035-.124c-.0076-.0107-.0153-.0213-.0225-.0323a.96.96 0 0 1-.0302-.0507.9782.9782 0 0 1-.0215-.04c-.0045-.009-.0095-.0175-.0137-.0264a.9907.9907 0 0 1-.0293-.0694c-.0025-.0064-.0045-.013-.0068-.0195a.9869.9869 0 0 1-.0215-.0664c-.0037-.013-.0066-.026-.0098-.039a.9893.9893 0 0 1-.0185-.0987c-.0021-.0156-.0045-.0311-.0059-.0469A.9952.9952 0 0 1 7 9.5195V7c0-.5523.4477-1 1-1Z"/><path fill="currentColor" fill-rule="evenodd" d="M8 3c3.5899 0 6.5 2.9101 6.5 6.5S11.5899 16 8 16s-6.5-2.9101-6.5-6.5S4.4101 3 8 3Zm0 2C5.5147 5 3.5 7.0147 3.5 9.5S5.5147 14 8 14s4.5-2.0147 4.5-4.5S10.4853 5 8 5Z" clip-rule="evenodd"/><path fill="currentColor" d="M13.293 2.293c.3905-.3906 1.0235-.3906 1.414 0l1 1c.3905.3905.3906 1.0235 0 1.414-.3905.3906-1.0235.3905-1.414 0l-1-1a.9997.9997 0 0 1 0-1.414ZM9 0c.5523 0 1 .4477 1 1s-.4477 1-1 1H7c-.5523 0-1-.4477-1-1s.4477-1 1-1h2Z"/></svg>