<svg xmlns="http://www.w3.org/2000/svg" fill="none" viewBox="0 0 24 24"><path fill="currentColor" d="M4.085 11.0205c.7893.2777 1.1741.6983 1.3867 1.2695.2176.5849.2794 1.3949.1933 2.5079l-.0459.4951-.001.0097-.0195.2012-.001.0098c-.0521.5989-.0531 1.1787.1104 1.6416l.003.0078.0019.0068.0068.0186.4014 1.0791 1.0127-.5488.0117-.0069.0566-.0303.0518-.0371c.3962-.2849.7432-.717 1.0518-1.2549l.0039-.0078.0049-.0068.1005-.1836.004-.0078.0038-.0068c.2158-.4078.4125-.8779.5948-1.4073 1.3621 1.8074 1.4557 3.6048.8017 5.2227l-.0039.0117-.08.2022C9.0389 21.8784 7.3963 22.9999 5.541 23 3.0796 23 1.0658 21.0416 1 18.5645c.0038-1.4094.4837-2.78 1.5635-4.6817l1.041-1.791.0117-.0215c.209-.3811.379-.7371.4688-1.0498Z"/><path fill="currentColor" fill-rule="evenodd" d="M12 1c2.0645 0 4.008.237 5.499.663.7319.2092 1.4697.4957 2.0703.9014C20.1002 2.923 21 3.709 21 5v14c0 .8028-.4372 1.4481-.9648 1.916-.529.469-1.2379.8456-2.0274 1.1416C16.4215 22.6525 14.2972 23 12 23a22.053 22.053 0 0 1-1.6875-.0645 6.5218 6.5218 0 0 0 1.2617-1.9443c.1408.0029.2827.0088.4258.0088 2.121 0 3.9965-.3245 5.3057-.8154.658-.2468 1.1216-.5159 1.4023-.7647.2819-.2499.292-.3944.292-.4199v-4.3838c-.3091.1636-.6428.3104-.9922.4414C16.4215 15.6525 14.2972 16 12 16c-.0352 0-.0704-.0008-.1055-.001-.2144-.682-.5405-1.3626-.9912-2.0322.3569.0193.7229.0332 1.0967.0332 2.121 0 3.9965-.3245 5.3057-.8154.658-.2468 1.1216-.5159 1.4023-.7647.2819-.2499.292-.3944.292-.4199V7.7676c-.4702.2376-.9871.4225-1.501.5693C16.008 8.763 14.0645 9 12 9s-4.008-.237-5.499-.663C5.987 8.19 5.4702 8.0051 5 7.7675v1.461a5.6143 5.6143 0 0 0-.3467-.129C4.0737 8.9067 3.473 9.0043 3 9.3076V5c0-1.2911.8998-2.077 1.4307-2.4356.6006-.4057 1.3384-.6922 2.0703-.9013C7.992 1.237 9.9355 1 12 1Zm0 2c-3.866 0-7 .8954-7 2s3.134 2 7 2 7-.8954 7-2-3.134-2-7-2Z" clip-rule="evenodd"/><path fill="currentColor" d="M17 17c.5523 0 1 .4477 1 1s-.4477 1-1 1-1-.4477-1-1 .4477-1 1-1ZM17 10c.5523 0 1 .4477 1 1s-.4477 1-1 1-1-.4477-1-1 .4477-1 1-1Z"/></svg>