<svg width="16" height="16" fill="currentColor" viewBox="0 0 16 16" xmlns="http://www.w3.org/2000/svg">
  <path d="M7 11H4.5714C2.6138 11 1 9.4938 1 7.6c0-1.3026 .772-2.4507 1.9306-3.021C3.5853 2.4798 5.6366 1 8 1s4.4147 1.4798 5.0694 3.579C14.228 5.1493 15 6.2974 15 7.6c0 1.8938-1.6138 3.4-3.5714 3.4H9v1.2676c.3036 .1756 .5568 .4288 .7324 .7324H12c.5523 0 1 .4477 1 1s-.4477 1-1 1H9.7324c-.3458 .5978-.9921 1-1.7324 1s-1.3866-.4022-1.7324-1H4c-.5523 0-1-.4477-1-1s.4477-1 1-1h2.2676A2.01 2.01 0 0 1 7 12.2676zm1-8C6.3786 3 5.022 4.0772 4.76 5.4982a1 1 0 0 1-.6934 .7757C3.4258 6.468 3 7.0062 3 7.6 3 8.3572 3.6887 9 4.5714 9h6.8572C12.3113 9 13 8.3572 13 7.6c0-.5938-.4258-1.132-1.0666-1.3261a1 1 0 0 1-.6934-.7757C10.978 4.0772 9.6214 3 8 3"/>
</svg>
