<svg width="24" height="24" fill="currentColor" viewBox="0 0 24 24" xmlns="http://www.w3.org/2000/svg">
  <path d="M13 19.2676c.3036 .1756 .5568 .4288 .7324 .7324H19c.5523 0 1 .4477 1 1s-.4477 1-1 1h-5.2676c-.3458 .5978-.9921 1-1.7324 1s-1.3866-.4022-1.7324-1H5c-.5523 0-1-.4477-1-1s.4477-1 1-1h5.2676A2.01 2.01 0 0 1 11 19.2676V18H7l-.5486-.0044C3.3796 17.7055 1 15.2053 1 12.1875c0-2.2448 1.324-4.2448 3.3385-5.2108C5.5943 3.9993 8.603 2 12 2c3.7392 0 6.975 2.419 7.965 5.831C21.7969 8.7324 23 10.5665 23 12.625 23 15.6023 20.5088 18 17.4545 18H13zM17 16h.4545C19.421 16 21 14.4802 21 12.625c0-1.3903-.8935-2.6296-2.237-3.1379a1 1 0 0 1-.623-.7218C17.5387 6.0141 14.9895 4 12 4 9.2901 4 6.9187 5.6576 6.0612 8.0629a1 1 0 0 1-.5778 .5955C3.9895 9.2425 3 10.6312 3 12.1875 3 14.1537 4.576 15.8095 6.5455 16z"/>
</svg>
