<svg width="16" height="16" fill="currentColor" viewBox="0 0 16 16" xmlns="http://www.w3.org/2000/svg">
  <path d="M8 0c4.4183 0 8 3.5817 8 8s-3.5817 8-8 8-8-3.5817-8-8 3.5817-8 8-8m4 6.5c-.5523 0-1 .4477-1 1 0 1.4865-1.0811 2.7205-2.5 2.9585v-.4603c0-.824-.9408-1.2944-1.6-.8l-2 1.5c-.5333.4-.5333 1.2 0 1.6l2 1.5c.6592.4944 1.6.024 1.6-.8v-.5229C11.0267 12.2245 13 10.0927 13 7.5c0-.5523-.4477-1-1-1M9.1 2.2018c-.6592-.4944-1.6-.024-1.6.8v.5229C4.9733 3.7755 3 5.9073 3 8.5c0 .5523.4477 1 1 1s1-.4477 1-1c0-1.4865 1.0811-2.7205 2.5-2.9585v.4603c0 .824.9408 1.2944 1.6.8l2-1.5c.5333-.4.5333-1.2 0-1.6Z"/>
</svg>
