<svg xmlns="http://www.w3.org/2000/svg" fill="none" viewBox="0 0 32 32"><path fill="currentColor" d="M7.6274 21.4518c1.1393 1.7538 2.8008 3.1113 4.7401 3.8728C13.0013 23.9518 14.3895 23 16 23c2.2091 0 4 1.7909 4 4 0 2.2091-1.7909 4-4 4-2.0987 0-3.8199-1.6163-3.9867-3.672-2.4888-.8818-4.6234-2.5702-6.063-4.7862-.3009-.4632-.1694-1.0828.2937-1.3838.4632-.3009 1.0825-.1694 1.3834.2938ZM16 25c-1.1046 0-2 .8954-2 2s.8954 2 2 2 2-.8954 2-2-.8954-2-2-2Zm11-13c2.2091 0 4 1.7909 4 4 0 2.0929-1.6074 3.8104-3.655 3.9853-.8766 2.4996-2.5652 4.6432-4.784 6.0888-.4628.3015-1.0823.1706-1.3838-.2922-.3014-.4629-.1706-1.0826.2922-1.3841 1.7555-1.1437 3.113-2.8116 3.8713-4.7578C23.9591 19.0094 23 17.6167 23 16c0-2.2091 1.7909-4 4-4ZM10.5247 6.4237c.3173.4521.2081 1.076-.2439 1.3933-1.6176 1.136-2.8664 2.7255-3.5818 4.5603C8.0589 13.0169 9 14.3985 9 16c0 2.2091-1.7909 4-4 4-2.2091 0-4-1.7909-4-4 0-2.1092 1.6325-3.8372 3.703-3.9891.8304-2.3548 2.3839-4.3953 4.4286-5.8311.452-.3175 1.0757-.2083 1.3931.2439ZM27 14c-1.1046 0-2 .8954-2 2s.8954 2 2 2 2-.8954 2-2-.8954-2-2-2ZM5 14c-1.1046 0-2 .8954-2 2s.8954 2 2 2 2-.8954 2-2-.8954-2-2-2ZM16 1c2.1011 0 3.8238 1.62 3.9873 3.679 2.5073.8782 4.6573 2.5738 6.1043 4.8036.3007.4634.1689 1.0828-.2944 1.3836-.4632.3008-1.0825.169-1.3832-.2944-1.1472-1.7678-2.8245-3.1331-4.7819-3.8921C18.9967 8.0496 17.6094 9 16 9c-2.2091 0-4-1.7909-4-4 0-2.2091 1.7909-4 4-4Zm0 2c-1.1046 0-2 .8954-2 2s.8954 2 2 2 2-.8954 2-2-.8954-2-2-2Z"/></svg>