<svg width="24" height="24" fill="currentColor" viewBox="0 0 24 24" xmlns="http://www.w3.org/2000/svg">
  <path d="M14.9573 3.4925a8.973 8.973 0 0 1 4.084 2.8836c.3447 .4316 .2741 1.0608-.1576 1.4054s-1.0611 .274-1.4058-.1576a6.974 6.974 0 0 0-2.8755-2.1304C14.0846 6.3938 13.1131 7 12 7 10.3431 7 9 5.6569 9 4s1.3431-3 3-3c1.4839 0 2.7161 1.0773 2.9573 2.4925M3.4978 9.042C4.0535 7.445 5.0519 6.0368 6.37 4.9788c.4308-.3458 1.0604-.277 1.4062 .1537 .3459 .4307 .277 1.06-.1537 1.4058-.9433 .7572-1.676 1.7443-2.1237 2.8625C6.3962 9.9192 7 10.889 7 12c0 1.6569-1.3431 3-3 3s-3-1.3431-3-3c0-1.4857 1.08-2.7192 2.4978-2.9581M9.0412 20.498c-1.592-.5574-2.998-1.5563-4.0563-2.8712-.3463-.4303-.278-1.0598 .1524-1.406s1.06-.278 1.4063 .1522c.7581 .942 1.7444 1.6754 2.859 2.1246C9.9218 17.6023 10.8907 17 12 17c1.6569 0 3 1.3431 3 3s-1.3431 3-3 3c-1.4872 0-2.7216-1.0821-2.9588-2.502m9.4542-5.902C17.6013 14.0765 17 13.1084 17 12c0-1.6569 1.3431-3 3-3s3 1.3431 3 3c0 1.4875-1.0826 2.7221-2.5028 2.959-.5593 1.5804-1.5574 2.9802-2.8638 4.038-.4293 .3476-1.0592 .2815-1.4069-.1477s-.2815-1.0588 .1478-1.4064c.9368-.7586 1.6702-1.741 2.1211-2.8469M12 21c.5523 0 1-.4477 1-1s-.4477-1-1-1-1 .4477-1 1 .4477 1 1 1m0-16c.5523 0 1-.4477 1-1s-.4477-1-1-1-1 .4477-1 1 .4477 1 1 1m-8 8c.5523 0 1-.4477 1-1s-.4477-1-1-1-1 .4477-1 1 .4477 1 1 1m16 0c.5523 0 1-.4477 1-1s-.4477-1-1-1-1 .4477-1 1 .4477 1 1 1"/>
</svg>
