<svg width="24" height="24" fill="currentColor" viewBox="0 0 24 24" xmlns="http://www.w3.org/2000/svg">
  <path fill-rule="evenodd" d="M2 0C.8954 0 0 .8954 0 2v20c0 1.1046.8954 2 2 2h20.0001c1.1045 0 2-.8954 1.9999-2V2c0-1.1046-.8954-2-2-2zm0 22V2h20l.0001 20zM6.1758 7.8548c.423-1.144 1.1453-1.6581 1.6184-1.8438l.0276.0137a4.61 4.61 0 0 1 1.9146 1.7799l-.5869.5842c-1.182 1.1768-1.182 3.0884 0 4.2652l2.2063 2.1962c1.1771 1.1717 3.0817 1.1717 4.2588 0l.5985-.5958a4.46 4.46 0 0 1 1.7792 1.8722c-.2822.5739-.8784 1.3454-2.1245 1.7412-1.0042.3189-2.1822.0385-3.2266-.6666-1.6499-1.1142-3.8134-2.9713-5.6444-5.5839-.8725-1.245-1.2406-2.6277-.821-3.7625m6.591 5.578-2.2063-2.1963a1.008 1.008 0 0 1 0-1.4302l.8175-.8138a1.564 1.564 0 0 0 .2953-1.8113 6.604 6.604 0 0 0-2.9604-2.947l-.0295-.0147c-.3774-.1878-.9146-.3176-1.4774-.1228-1.0172.352-2.2487 1.2866-2.906 3.0644-.7433 2.01.0027 4.0969 1.059 5.604 1.9942 2.8456 4.3465 4.867 6.163 6.0936 1.3636.9207 3.1783 1.4783 4.9512.9152 1.9171-.6089 2.8939-1.8711 3.3516-2.8434.2803-.5954.1937-1.2257-.0453-1.7016a6.46 6.46 0 0 0-2.8956-2.8824l-.0432-.0215a1.582 1.582 0 0 0-1.8196.2939l-.8175.8139c-.3968.3949-1.0401.3949-1.4368 0"/>
</svg>
