<svg width="32" height="32" fill="currentColor" viewBox="0 0 32 32" xmlns="http://www.w3.org/2000/svg">
  <path d="M11.3368 13A3.49 3.49 0 0 1 11 11.5C11 9.567 12.567 8 14.5 8S18 9.567 18 11.5a3.49 3.49 0 0 1-.3368 1.5h1.6736A3.49 3.49 0 0 1 19 11.5C19 9.567 20.567 8 22.5 8S26 9.567 26 11.5c0 .9537-.3814 1.8182-1 2.4495V18h3V5H9v8zM23 15H4v13h19zM7 13V3h23v17h-5v10H2V13zm7.3368 10A3.49 3.49 0 0 1 14 21.5c0-1.933 1.567-3.5 3.5-3.5s3.5 1.567 3.5 3.5-1.567 3.5-3.5 3.5h-8C7.567 25 6 23.433 6 21.5S7.567 18 9.5 18s3.5 1.567 3.5 3.5a3.49 3.49 0 0 1-.3368 1.5zM9.5 23c.8284 0 1.5-.6716 1.5-1.5S10.3284 20 9.5 20 8 20.6716 8 21.5 8.6716 23 9.5 23m8 0c.8284 0 1.5-.6716 1.5-1.5s-.6716-1.5-1.5-1.5-1.5.6716-1.5 1.5.6716 1.5 1.5 1.5m-3-10c.8284 0 1.5-.6716 1.5-1.5s-.6716-1.5-1.5-1.5-1.5.6716-1.5 1.5.6716 1.5 1.5 1.5m8 0c.8284 0 1.5-.6716 1.5-1.5s-.6716-1.5-1.5-1.5-1.5.6716-1.5 1.5.6716 1.5 1.5 1.5"/>
</svg>
