<svg width="24" height="24" fill="currentColor" viewBox="0 0 24 24" xmlns="http://www.w3.org/2000/svg">
  <path d="M16 6.0065c3.8763.1019 7 1.3894 7 3.4935v10c0 2.1939-3.396 3.5-7.5 3.5S8 21.6939 8 19.5v-1.5065C4.1237 17.8916 1 16.604 1 14.5v-10C1 2.3061 4.396 1 8.5 1S16 2.3061 16 4.5zm5 5.969C19.6241 12.6382 17.6602 13 15.5 13s-4.1241-.3618-5.5-1.0245V14.5c0 .5675 2.4244 1.5 5.5 1.5s5.5-.9325 5.5-1.5zM21 19.5v-2.5245C19.6241 17.6382 17.6602 18 15.5 18s-4.1241-.3618-5.5-1.0245V19.5c0 .5675 2.4244 1.5 5.5 1.5s5.5-.9325 5.5-1.5M8 15.9918v-2.9983c-1.962-.0516-3.731-.4069-5-1.018V14.5c0 .5364 2.1657 1.3988 5 1.4918m0-5V9.5c0-.5604.2216-1.0628.6199-1.5004L8.5 8C6.3398 8 4.3759 7.6382 3 6.9755V9.5c0 .5364 2.1657 1.3988 5 1.4918M8.5 6c3.0756 0 5.5-.9325 5.5-1.5S11.5756 3 8.5 3 3 3.9325 3 4.5 5.4244 6 8.5 6m7 5c3.0756 0 5.5-.9325 5.5-1.5S18.5756 8 15.5 8 10 8.9325 10 9.5s2.4244 1.5 5.5 1.5"/>
</svg>
