<svg width="16" height="16" fill="currentColor" viewBox="0 0 16 16" xmlns="http://www.w3.org/2000/svg">
  <path d="M2.2954 12.2785c-.3939 .3938-.3939 1.0323 0 1.4261 .3938 .3939 1.0323 .3939 1.4261 0L8 9.4262l4.2785 4.2784c.3938 .3939 1.0323 .3939 1.4261 0 .3939-.3938 .3939-1.0323 0-1.4261L9.4262 8l4.2784-4.2785c.3939-.3938 .3939-1.0323 0-1.4261-.3938-.3939-1.0323-.3939-1.4261 0L8 6.5738 3.7215 2.2954C3.3277 1.9015 2.6892 1.9015 2.2954 2.2954c-.3939 .3938-.3939 1.0323 0 1.4261L6.5738 8z"/>
</svg>
