<svg xmlns="http://www.w3.org/2000/svg" fill="none" viewBox="0 0 32 32"><g clip-path="url(#times-circle-d--32-a)"><path fill="currentColor" fill-rule="evenodd" d="M16 32c8.8366 0 16-7.1634 16-16S24.8366 0 16 0 0 7.1634 0 16s7.1634 16 16 16Zm4.7-18.5L18.2 16l2.4 2.6c.6.6.6 1.5 0 2.1-.6.6-1.5.6-2.1 0L16 18.2l-2.5 2.4c-.6.6-1.5.6-2.1 0-.6-.6-.6-1.5 0-2.1l2.5-2.5-2.5-2.4c-.5-.6-.5-1.6 0-2.2.6-.5 1.6-.5 2.2 0l2.4 2.5 2.5-2.5c.6-.5 1.5-.5 2.2 0 .6.6.6 1.5 0 2.1Z" clip-rule="evenodd"/></g><defs><clipPath id="times-circle-d--32-a"><path fill="#fff" d="M0 0h32v32H0z"/></clipPath></defs></svg>