<svg xmlns="http://www.w3.org/2000/svg" fill="none" viewBox="0 0 16 16"><g clip-path="url(#times-circle--16-a)"><path fill="currentColor" d="M8 16c-4.4183 0-8-3.5817-8-8s3.5817-8 8-8 8 3.5817 8 8-3.5817 8-8 8ZM5.2954 9.2785c-.3939.3938-.3939 1.0323 0 1.4261.3938.3939 1.0323.3939 1.4261 0L8 9.4262l1.2785 1.2784c.3938.3939 1.0323.3939 1.4261 0 .3939-.3938.3939-1.0323 0-1.4261L9.4262 8l1.2784-1.2785c.3939-.3938.3939-1.0323 0-1.4261-.3938-.3939-1.0323-.3939-1.4261 0L8 6.5738 6.7215 5.2954c-.3938-.3939-1.0323-.3939-1.4261 0-.3939.3938-.3939 1.0323 0 1.4261L6.5738 8 5.2954 9.2785Z"/></g><defs><clipPath id="times-circle--16-a"><path fill="#fff" d="M0 0h16v16H0z"/></clipPath></defs></svg>