<svg width="16" height="16" fill="currentColor" viewBox="0 0 16 16" xmlns="http://www.w3.org/2000/svg">
  <path d="m13.523 8-1.2-3H9v3zM14 10H9v3h5zm.5 5H1c-.5523 0-1-.4477-1-1s.4477-1 1-1h6V2H1c-.5523 0-1-.4477-1-1s.4477-1 1-1h6.5C8.3284 0 9 .6716 9 1.5V3h3.6615a1.5 1.5 0 0 1 1.3927.943l1.8385 4.5962a1.5 1.5 0 0 1 .1073.557V13.5c0 .8284-.6716 1.5-1.5 1.5M1 6h3c.5523 0 1 .4477 1 1s-.4477 1-1 1H1c-.5523 0-1-.4477-1-1s.4477-1 1-1m0-3h3c.5523 0 1 .4477 1 1s-.4477 1-1 1H1c-.5523 0-1-.4477-1-1s.4477-1 1-1m0 6h3c.5523 0 1 .4477 1 1s-.4477 1-1 1H1c-.5523 0-1-.4477-1-1s.4477-1 1-1m11 7c-1.1046 0-2-.8954-2-2s.8954-2 2-2 2 .8954 2 2-.8954 2-2 2m-9 0c-1.1046 0-2-.8954-2-2s.8954-2 2-2 2 .8954 2 2-.8954 2-2 2"/>
</svg>
