<svg width="24" height="24" fill="currentColor" viewBox="0 0 24 24" xmlns="http://www.w3.org/2000/svg">
  <path d="M17 20c.5523 0 1-.4477 1-1s-.4477-1-1-1-1 .4477-1 1 .4477 1 1 1m-2.8293 0H8q-.0849-.0001-.1659-.0137C7.4261 21.1586 6.3113 22 5 22c-1.3062 0-2.4175-.8348-2.8293-2H1.999A.997 .997 0 0 1 1 19c0-.5523 .4427-1 .999-1h.1717c.4118-1.1652 1.523-2 2.8293-2 1.3113 0 2.4262 .8414 2.8341 2.0137Q7.9151 18.0001 8 18h3V4H2c-.5523 0-1-.4477-1-1s.4477-1 1-1h10c.5523 0 1 .4477 1 1v3h7a1 1 0 0 1 .9487 .6838l2 6A1 1 0 0 1 23 13v5.0092C23 19.1048 22.101 20 21 20h-1q-.0849-.0001-.1659-.0137C19.4261 21.1586 18.3113 22 17 22c-1.3062 0-2.4175-.8348-2.8293-2m0-2c.4118-1.1652 1.523-2 2.8293-2 1.3113 0 2.4262 .8414 2.8341 2.0137q.081-.0136 .1659-.0137h.9993l.0006-4H13v4zM13 12h7.6126l-1.3334-4H13zm-8 8c.5523 0 1-.4477 1-1s-.4477-1-1-1-1 .4477-1 1 .4477 1 1 1M0 7c0-.5523 .453-1 .997-1h6.006A.996 .996 0 0 1 8 7c0 .5523-.453 1-.997 1H.997A.996 .996 0 0 1 0 7m0 3c0-.5523 .453-1 .997-1h6.006A.996 .996 0 0 1 8 10c0 .5523-.453 1-.997 1H.997A.996 .996 0 0 1 0 10m0 3c0-.5523 .453-1 .997-1h6.006A.996 .996 0 0 1 8 13c0 .5523-.453 1-.997 1H.997A.996 .996 0 0 1 0 13"/>
</svg>
