<svg width="16" height="16" fill="currentColor" viewBox="0 0 16 16" xmlns="http://www.w3.org/2000/svg">
  <path d="M14 15c0 .5523-.4477 1-1 1H3c-.5523 0-1-.4477-1-1V5.0028L1 5c-.5523 0-1-.4477-1-1s.4477-1 1-1h14c.5523 0 1 .4477 1 1s-.4477 1-1 1h-1zM4 5v9h8V5zm2-5h4c.5523 0 1 .4477 1 1s-.4477 1-1 1H6c-.5523 0-1-.4477-1-1s.4477-1 1-1m0 6c.5523 0 1 .4477 1 1v5c0 .5523-.4477 1-1 1s-1-.4477-1-1V7c0-.5523.4477-1 1-1m4 0c.5523 0 1 .4477 1 1v5c0 .5523-.4477 1-1 1s-1-.4477-1-1V7c0-.5523.4477-1 1-1"/>
</svg>
