<svg xmlns="http://www.w3.org/2000/svg" fill="none" viewBox="0 0 16 16"><path fill="currentColor" fill-rule="evenodd" d="M8.8009 10.9742C8.5183 9.8764 7.235 8.9745 6.0052 8.9736c-1.2456-.0008-2.4156.886-2.854 2.0006l-1.1504.0257s-.9507-.0339-.967 1c.0038.9676.963.9758.963.9758h1.1665C3.4458 14.0736 4.742 14.9864 6 14.9819c1.318-.0047 2.4105-.8124 2.8249-1.9942l5.1314-.012s1.009.0663 1.0289-.9676c.0198-1.0339-1.0049-1.0339-1.0049-1.0339H8.8009Zm-2.753 2.0039c-.4392-.0024-1.0082-.269-1.033-.9491-.0255-.7012.5129-1.0469.9971-1.057.4474-.0093.9422.49.9612.9371.0199.4708-.2223 1.0728-.9252 1.069ZM7.1846 2.9923C7.467 1.8944 8.7504.9926 9.9802.9917c1.2457-.0009 2.4156.886 2.854 2.0006l1.1504.0257s.9507-.0339.967 1c-.0037.9676-.963.9758-.963.9758h-1.1664C12.5396 6.0916 11.2434 7.0045 9.9854 7c-1.318-.0047-2.4104-.8125-2.8248-1.9943l-5.1315-.012s-1.009.0664-1.0288-.9675c-.0199-1.034 1.0049-1.034 1.0049-1.034l5.1794.0001Zm2.7529 2.0039c.4392-.0024 1.0082-.269 1.033-.9492.0255-.7011-.5128-1.0469-.997-1.057-.4474-.0093-.9423.4901-.9612.9372-.02.4708.2223 1.0728.9252 1.069Z" clip-rule="evenodd"/></svg>