<svg xmlns="http://www.w3.org/2000/svg" fill="none" viewBox="0 0 16 16"><path fill="currentColor" d="M8.625 15.333c0 .3682-.2798.667-.625.667s-.625-.2988-.625-.667v-3.6855h1.25v3.6855ZM3 3a.5.5 0 0 1 .707 0L13 12.293A.4998.4998 0 0 1 13 13a.4998.4998 0 0 1-.707 0L3 3.707A.5.5 0 0 1 3 3ZM8.9106 10.3256c.126.126.0367.3414-.1415.3414H3.5557C3.249 10.6669 3 10.4014 3 10.0742c0-1.4097.577-2.6757 1.4925-3.5441.183-.1736.4686-.154.647.0244l3.771 3.7711ZM9.875 0c.6903 0 1.2499.5968 1.25 1.333 0 .7364-.5596 1.334-1.25 1.334H9.25v2.7236C11.3748 5.7462 13 7.708 13 10.0742c-.0001.3272-.2489.5927-.5556.5928h-.1552a.5001.5001 0 0 1-.3536-.1465l-5.0391-5.039a.5.5 0 0 1-.1465-.3537V2.667h-.625c-.6903 0-1.25-.5976-1.25-1.334C4.8752.5968 5.4348 0 6.125 0h3.75Z"/></svg>