<svg width="24" height="24" fill="currentColor" viewBox="0 0 24 24" xmlns="http://www.w3.org/2000/svg">
  <path fill-rule="evenodd" d="M20.2206 3.8342A1 1 0 0 1 21 4.8107l-.0121 10.0946c-.1156 2.3958-1.7224 4.4255-4.2384 6.0627C15.0311 22.0862 12.8038 23 12 23c-.8036 0-3.031-.9136-4.7506-2.0318C4.7324 19.3314 3.1226 17.3025 3 14.8571V4.8095a1 1 0 0 1 .7794-.9753l8-2.8096a1 1 0 0 1 .4412 0zM12 3.0252 4.9999 5.6087l-.0012 9.1979c.082 1.6185 1.3068 3.1623 3.341 4.485C9.7633 20.2172 11.6717 21 12 21s2.2364-.7828 3.6587-1.7083c2.0321-1.3224 3.2535-2.8652 3.3304-4.4358l.0099-9.2475z" clip-rule="evenodd"/>
  <path d="M15.7185 14.3592a.9613.9613 0 0 1 0 1.3593c-.3753.3753-.9839.3753-1.3592 0L12 13.3592l-2.3593 2.3593a.9612.9612 0 0 1-1.3592-1.3593l2.3593-2.3593-2.3592-2.3591a.961.961 0 0 1 0-1.3593.961.961 0 0 1 1.3592 0L12 10.6407l2.3592-2.3592c.3753-.3753.9838-.3753 1.3592 0s.3753.984 0 1.3593l-2.3592 2.3591z"/>
</svg>
