<svg width="32" height="32" fill="currentColor" viewBox="0 0 32 32" xmlns="http://www.w3.org/2000/svg">
  <path d="M5 16c0 3.5865 1.7274 6.8818 4.5852 8.937 .4484 .3225 .5505 .9474 .228 1.3958s-.9473 .5504-1.3957 .228C5.0426 24.1337 3 20.237 3 16 3 8.9568 8.6011 3.2218 15.592 3.0063l-.2991-.2992c-.3905-.3905-.3905-1.0237 0-1.4142s1.0237-.3905 1.4142 0l2 2c.3905 .3905 .3905 1.0237 0 1.4142l-2 2c-.3905 .3905-1.0237 .3905-1.4142 0s-.3905-1.0237 0-1.4142l.285-.285C9.6982 5.23 5 10.0663 5 16m11.4222 10.992C22.3017 26.7702 27 21.9338 27 16c0-3.5806-1.728-6.8744-4.5845-8.932-.4481-.3228-.5497-.9478-.2269-1.396 .3228-.448 .9478-.5496 1.3959-.2268C26.9569 7.8744 29 11.7689 29 16c0 7.0432-5.6011 12.7782-12.592 12.9937l.2991 .2992c.3905 .3905 .3905 1.0237 0 1.4142s-1.0237 .3905-1.4142 0l-2-2c-.3905-.3905-.3905-1.0237 0-1.4142l2-2c.3905-.3905 1.0237-.3905 1.4142 0s.3905 1.0237 0 1.4142zM17 15h2c.5523 0 1 .4477 1 1s-.4477 1-1 1h-2v2c0 .5523-.4477 1-1 1s-1-.4477-1-1v-2h-2c-.5523 0-1-.4477-1-1s.4477-1 1-1h2v-2c0-.5523 .4477-1 1-1s1 .4477 1 1z"/>
</svg>
