<svg width="24" height="24" fill="currentColor" viewBox="0 0 24 24" xmlns="http://www.w3.org/2000/svg">
  <path d="M12.427 18.9872C16.0942 18.7665 19 15.7226 19 12c0-1.7146-.6306-3.3401-1.7514-4.6165-.3644-.415-.3234-1.0468 .0916-1.4112s1.0468-.3234 1.4112 .0916C20.1882 7.7 21 9.7926 21 12c0 4.8348-3.8123 8.7791-8.5947 8.991l.3018 .3019c.3905 .3905 .3905 1.0237 0 1.4142s-1.0237 .3905-1.4142 0l-2-2c-.3905-.3905-.3905-1.0237 0-1.4142l2-2c.3905-.3905 1.0237-.3905 1.4142 0s.3905 1.0237 0 1.4142zM11.573 5.0128C7.9058 5.2335 5 8.2774 5 12c0 1.7462 .6262 3.38 1.748 4.644 .3665 .4132 .3288 1.0452-.0843 1.4118s-1.045 .3289-1.4117-.0842C3.807 16.343 3 14.2376 3 12c0-4.8348 3.8123-8.7791 8.5947-8.991l-.3017-.302c-.3905-.3905-.3905-1.0237 0-1.4142s1.0237-.3905 1.4142 0l2 2c.3905 .3905 .3905 1.0237 0 1.4142l-2 2c-.3905 .3905-1.0237 .3905-1.4142 0s-.3905-1.0237 0-1.4142zM13 11h1c.5523 0 1 .4477 1 1s-.4477 1-1 1h-1v1c0 .5523-.4477 1-1 1s-1-.4477-1-1v-1H10c-.5523 0-1-.4477-1-1s.4477-1 1-1h1V10c0-.5523 .4477-1 1-1s1 .4477 1 1z"/>
</svg>
