<svg width="24" height="24" fill="currentColor" viewBox="0 0 24 24" xmlns="http://www.w3.org/2000/svg">
  <path d="M15 5.8148c0-.7432-.3564-1.1518-1.2096-1.4756-.379-.1438-.809-.2416-1.2438-.2962-.2622-.0329-.457-.0432-.5422-.043-.094-.0002-.2888 .0101-.551 .043-.4348 .0546-.8647 .1524-1.2438 .2962C9.3564 4.663 9 5.0716 9 5.8148 9 9.6898 10.412 12 12 12c1.5926 0 3-2.3053 3-6.1852m2 0C17 10.6547 14.9606 14 12 14c-2.9523 0-5-3.3453-5-8.1852C7 1.98 12 2 12 2s5-.02 5 3.8148M2 18.6688c0-.83 .6421-1.731 1.422-2.0078l3.6405-1.2925c.5178-.1838 1.3505-.1569 1.8652 .0624l1.2362 .5266c1.014 .432 2.6649 .4292 3.6722 0l1.2362-.5266c.5123-.2183 1.3496-.2454 1.8652-.0624l3.6406 1.2925C21.3634 16.9398 22 17.838 22 18.6689v1.337C22 21.1071 21.1018 22 20.0092 22H3.9908C2.8913 22 2 21.1133 2 20.0058zm18 0c0 .0172-.1022-.127-.091-.123l-3.6406-1.2926c-.042-.0148-.3607-.0043-.4123 .0177l-1.2361 .5266c-1.5101 .6434-3.727 .6446-5.24 0l-1.236-.5265c-.0539-.023-.368-.0334-.4123-.0177L4.091 18.5457c.0144-.005-.091 .1435-.091 .1232V20h16z"/>
</svg>
