<svg width="24" height="24" fill="currentColor" viewBox="0 0 24 24" xmlns="http://www.w3.org/2000/svg">
  <path d="M10.2095 4.3394c.379-.144.809-.242 1.244-.296.262-.033.457-.043.551-.043.085 0 .28.01.542.043.435.054.865.152 1.244.296.853.324 1.21.732 1.21 1.476 0 3.879-1.408 6.185-3 6.185-1.588 0-3-2.31-3-6.185 0-.744.356-1.152 1.209-1.476m1.791 9.661c2.96 0 5-3.346 5-8.185 0-3.835-5-3.815-5-3.815s-5-.02-5 3.815c0 4.839 2.047 8.185 5 8.185M4 20v-1.331c0 .02.105-.128.091-.123l3.64-1.293c.045-.016.359-.005.413.018l1.236.526c.76.324 1.698.485 2.634.483-.004-.093-.014-.185-.014-.28 0-.602.091-1.182.256-1.73-.747.031-1.521-.069-2.092-.312l-1.236-.527c-.515-.22-1.348-.246-1.865-.062l-3.641 1.292C2.642 16.938 2 17.839 2 18.669v1.337C2 21.113 2.891 22 3.991 22h9.546a5.98 5.98 0 0 1-1.188-2zm17.9697-3.0171a.58.58 0 0 0-.46-.39l-2.083-.319-.903-1.94a.5774.5774 0 0 0-1.047 0l-.903 1.939-2.083.319a.584.584 0 0 0-.461.391.584.584 0 0 0 .134.589l1.527 1.572-.354 2.181a.5775.5775 0 0 0 .85.602l1.813-1.008 1.814 1.008a.59.59 0 0 0 .28.073c.17 0 .331-.076.441-.205.11-.13.157-.302.128-.47l-.353-2.181 1.527-1.572a.581.581 0 0 0 .133-.589"/>
</svg>
