<svg width="24" height="24" fill="currentColor" viewBox="0 0 24 24" xmlns="http://www.w3.org/2000/svg">
  <path d="M14.6162 21.6888c0 1.1092-.9827 1.3127-2.6173 1.3112-1.6352-.0016-2.6152-.2052-2.6111-1.227l-.4842-4.9571a4 4 0 0 1-.1371-.0814c-.5657-.3498-.947-.75-.9816-1.3312l-.7494-4.4777C6.7708 9.3441 8.0161 8 9.7537 8h4.4925c1.7339 0 2.9836 1.34 2.7182 2.9256l-.7494 4.4776c-.0346 .5834-.4174 .9863-.9834 1.3347a4 4 0 0 1-.136 .0803zm-1.492-5.5637c.034-.3401 .2745-.635 .6241-.7651 .0772-.0287 .2228-.0941 .3577-.1753a1.3 1.3 0 0 0 .1046-.0693l.7477-4.3682C15.0332 10.3098 14.7377 10 14.2462 10H9.7537c-.492 0-.7868 .311-.7121 .7472l.7472 4.3653c.028 .0209 .0643 .0453 .1069 .071 .136 .0823 .2827 .1488 .3608 .1783 .3471 .1311 .5854 .4249 .6192 .7633l.4799 4.8408c.1865 .0215 .4116 .0339 .6454 .0341 .2317 .0002 .4545-.0116 .6395-.0323zm8.0655 .5302c.0422-.028 .078-.0546 .1054-.0772l.689-3.792c.0856-.4708-.178-.7861-.659-.7861h-1.2156c-.5523 0-1-.4477-1-1s.4477-1 1-1h1.2157c1.7277 0 2.9356 1.4443 2.6268 3.1436l-.685 3.7693c-.0397 .6144-.416 1.0398-.9703 1.4082a4 4 0 0 1-.1307 .0834L21.8113 21.6c0 1.134-.9415 1.4003-2.254 1.3993-1.313-.001-2.2526-.2665-2.2507-1.335l-.3046-3.8296c-.0347-.5511 .3839-1.0262 .935-1.061 .5513-.0347 1.0263 .384 1.061 .9351l.2681 3.2774c.0906 .0083 .1901 .013 .2926 .0131 .1057 0 .208-.0048 .3006-.0134l.36-3.2976a1 1 0 0 1 .6164-.8414c.0764-.0314 .2205-.1028 .354-.1916m-18.3792 0c.1335 .0888 .2776 .1602 .354 .1916a1 1 0 0 1 .6164 .8414l.36 3.2976a3.3 3.3 0 0 0 .3006 .0134c.1025 0 .202-.0048 .2926-.0131l.268-3.2774c.0348-.5511 .5099-.9698 1.061-.935 .5512 .0347 .9699 .5098 .9351 1.061l-.3046 3.8295c.002 1.0685-.9377 1.334-2.2506 1.335-1.3126 .001-2.2541-.2653-2.2541-1.3993l-.3546-3.1955a4 4 0 0 1-.1307-.0834c-.5543-.3684-.9306-.7938-.9704-1.4082l-.685-3.7693C-.2604 11.4443 .9474 10 2.6752 10h1.2157c.5523 0 1 .4477 1 1s-.4477 1-1 1H2.675c-.481 0-.7446 .3153-.659 .786l.689 3.792c.0275 .0227 .0632 .0493 .1054 .0773M12 7c-1.6569 0-3-1.3431-3-3s1.3431-3 3-3 3 1.3431 3 3-1.3431 3-3 3m7 2c-1.6569 0-3-1.3431-3-3s1.3431-3 3-3 3 1.3431 3 3-1.3431 3-3 3M5 9C3.3431 9 2 7.6569 2 6s1.3431-3 3-3 3 1.3431 3 3-1.3431 3-3 3m0-1.7c.718 0 1.3-.582 1.3-1.3S5.718 4.7 5 4.7 3.7 5.282 3.7 6 4.282 7.3 5 7.3m14 0c.718 0 1.3-.582 1.3-1.3s-.582-1.3-1.3-1.3-1.3 .582-1.3 1.3 .582 1.3 1.3 1.3m-7-2c.718 0 1.3-.582 1.3-1.3s-.582-1.3-1.3-1.3-1.3 .582-1.3 1.3 .582 1.3 1.3 1.3"/>
</svg>
