<svg width="16" height="16" fill="currentColor" viewBox="0 0 16 16" xmlns="http://www.w3.org/2000/svg">
  <path d="M4.1925 10.1711a3 3 0 0 1 1.6762.0644l1.815.605a1 1 0 0 0 .6325 0l1.815-.605a3 3 0 0 1 1.6763-.0644l3.0563.764A1.5 1.5 0 0 1 16 12.3905V14.5c0 .8284-.6716 1.5-1.5 1.5h-13C.6716 16 0 15.3284 0 14.5v-2.1096a1.5 1.5 0 0 1 1.1362-1.4552zM2 14h12v-1.2192l-2.6775-.6694a1 1 0 0 0-.5588.0215l-1.815.605a3 3 0 0 1-1.8974 0l-1.815-.605a1 1 0 0 0-.5588-.0215L2 12.7808zm6-4c-2.6667 0-4-2.5-4-5.625C4 1.9588 4.6667 0 8 0s4 1.9588 4 4.375C12 7.5 10.6667 10 8 10m0-2c1.188 0 2-1.2371 2-3.625C10 2.4272 9.6853 2 8 2s-2 .4272-2 2.375C6 6.7629 6.812 8 8 8"/>
</svg>
