<svg width="24" height="24" fill="currentColor" viewBox="0 0 24 24" xmlns="http://www.w3.org/2000/svg">
  <path d="M12 23C5.9249 23 1 18.0751 1 12S5.9249 1 12 1s11 4.9249 11 11-4.9249 11-11 11m0-2c4.9706 0 9-4.0294 9-9s-4.0294-9-9-9-9 4.0294-9 9 4.0294 9 9 9m4-12.3657C16 12.3778 14.6901 15 12 15s-4-2.6222-4-6.3657c0-1.555 .8162-2.6515 2.0952-3.2203 .7086-.3152 1.3885-.4152 1.908-.414 .5131-.0012 1.193 .0988 1.9016 .414C15.1838 5.9828 16 7.0793 16 8.6343m-2-.2732c0-.6506-.2757-.947-.8572-1.1538-.4266-.1518-.9015-.2077-1.1374-.2073h-.0121c-.2346-.0004-.7095 .0555-1.1361 .2073C10.2757 7.414 10 7.7105 10 8.361 10 11.3955 11.0019 13 12 13s2-1.6045 2-4.6389M10.8989 18.3l-2.6522-.5743c-.1124 .0156-3.4024 1.2335-3.5266 1.2743L4 17.3439c.1312-.043 4.2432-1.5152 4.8318-1.3214l2.8237 .6338c.1612 .056 .5262 .0567 .6893 0l2.8415-.6398c.57-.1875 4.6824 1.2843 4.8137 1.3274L19.2805 19c-.1243-.0408-3.4148-1.2584-3.5273-1.2742l-2.6517 .5741c-.6504 .226-1.5572 .2243-2.2026 0"/>
</svg>
