<svg width="24" height="24" fill="currentColor" viewBox="0 0 24 24" xmlns="http://www.w3.org/2000/svg">
  <path d="M11.4535 4.0434c.262-.033.457-.043.551-.043.085 0 .28.01.542.043.435.054.865.152 1.244.296.853.324 1.21.732 1.21 1.476 0 3.879-1.408 6.185-3 6.185-1.588 0-3-2.31-3-6.185 0-.744.356-1.152 1.209-1.476.379-.144.809-.242 1.244-.296m5.547 1.772c0-3.835-5-3.815-5-3.815s-5-.02-5 3.815c0 4.839 2.047 8.185 5 8.185 2.96 0 5-3.346 5-8.185M4 20v-1.331c0 .02.105-.128.091-.123l3.64-1.293c.045-.016.359-.005.413.018l1.236.526c.76.324 1.698.485 2.634.483-.004-.093-.014-.185-.014-.28 0-.602.091-1.182.256-1.73-.747.031-1.521-.069-2.092-.312l-1.236-.527c-.515-.22-1.348-.246-1.865-.062l-3.641 1.292C2.642 16.938 2 17.839 2 18.669v1.337C2 21.113 2.891 22 3.991 22h9.546a5.98 5.98 0 0 1-1.188-2zm19.9596-3.104c-.0654-.4863-.5908-.8192-1.0938-.6377-.1883.0687-.415-.0333-.5-.2164a3.54 3.54 0 0 0-.3712-.622c-.1292-.1731-.1046-.3996.0558-.5273.1917-.1518.2988-.3763.2938-.6152-.005-.243-.1238-.4666-.3259-.6144a5.06 5.06 0 0 0-1.0779-.6.86.86 0 0 0-.322-.063c-.3992 0-.7359.2735-.8009.6501-.0342.198-.2287.3325-.448.3097a3.67 3.67 0 0 0-.7395 0c-.2183.0228-.4138-.1117-.448-.3097-.065-.3766-.4016-.6501-.8007-.6501a.85.85 0 0 0-.3217.063 5.03 5.03 0 0 0-1.0784.6c-.2016.1478-.3204.3714-.3254.614-.005.2393.1021.4634.2938.616.1608.1273.1846.3538.0558.5265a3.54 3.54 0 0 0-.3717.622c-.085.1831-.295.2907-.5045.2148a.84.84 0 0 0-.2838-.0498c-.4066 0-.7525.2964-.8054.6895a4.6 4.6 0 0 0-.04.604c0 .2012.0137.4048.0404.604.065.4859.59.8188 1.0938.6377.1879-.0687.415.0333.5.2164.1016.2185.2262.4277.3712.622.1292.1731.1046.3996-.0558.5273-.1917.1518-.2988.3763-.2938.6152.005.243.1238.4666.3259.6144.3325.2426.695.4445 1.0779.6a.86.86 0 0 0 .322.063c.3992 0 .7359-.2735.8009-.6501.0342-.198.2292-.3305.448-.3097a3.67 3.67 0 0 0 .7395 0c.2192-.0212.4138.1117.448.3097.065.3766.4016.6497.8007.6501a.85.85 0 0 0 .3217-.063 5.03 5.03 0 0 0 1.078-.6c.2016-.1478.3208-.3714.3258-.614.005-.2393-.1021-.4634-.2938-.616-.1608-.1273-.1846-.3538-.0558-.5265a3.54 3.54 0 0 0 .3717-.622c.085-.1835.2954-.2907.5045-.2148a.83.83 0 0 0 .2838.0502c.4067 0 .7525-.2964.8054-.6895.0262-.2016.04-.4044.04-.6044s-.0138-.4028-.0404-.604M19 19c-.8272 0-1.5-.6728-1.5-1.5S18.1728 16 19 16s1.5.6728 1.5 1.5S19.8272 19 19 19"/>
</svg>
