<svg width="32" height="32" fill="currentColor" viewBox="0 0 32 32" xmlns="http://www.w3.org/2000/svg">
  <path d="m3.8247 29.8067-.7008-6.6458C2.236 22.615 1.6292 21.8205 1.5038 20.8801l-.4804-4.5908C0.7687 14.3835 2.6266 13 4.9136 13H7.144c.5553 0 1.0055.4477 1.0055 1s-.4502 1-1.0055 1H4.9136c-1.2201 0-1.9602.5511-1.8934 1.054l.4804 4.5907c.043.3218.392.706.9871.9776a1 1 0 0 1 .5808.8046l.6893 6.5386c.224.022.4943.0343.7743.0345.2798.0002.5495-.0117.7729-.0333l.6895-6.539c.0579-.5493.5525-.9479 1.1048-.8903s.953.5496.8951 1.0989l-.758 7.187c-.1924 1.5708-5.2178 1.567-5.4117-.0166m26.6669-8.8985c-.1225.917-.7286 1.7083-1.6164 2.2538l-.7023 6.6613c-.1924 1.5708-5.2162 1.567-5.41-.0166l-.7559-7.1712c-.0579-.5493.3427-1.0413.8948-1.0989s1.0466.341 1.1045.8903l.6891 6.5386c.224.022.4941.0343.774.0345.2797.0002.5494-.0117.7727-.0333l.6892-6.539a1 1 0 0 1 .5809-.8048c.5948-.2712.9435-.6556.9833-.95l.487-4.6472C29.046 15.5488 28.31 15 27.0862 15h-2.2297c-.5551 0-1.0051-.4477-1.0051-1s.45-1 1.0051-1h2.2297c2.2906 0 4.1438 1.3818 3.8922 3.2611zm-19.99-1.785-.481-4.3945C9.7917 12.6395 11.5951 11 13.8922 11h4.2182c2.3015 0 4.1008 1.6374 3.8718 3.7287l-.481 4.3944c-.1128 1.0296-.7076 1.9548-1.5975 2.5996l-.7098 8.0158c-.1134 1.1301-1.0209 1.263-3.1935 1.2615-2.1744-.0015-3.0785-.1344-3.1928-1.2732l-.7087-8.0052c-.8898-.6448-1.4847-1.5694-1.5974-2.5985m7.4532 1.9346a1 1 0 0 1 .5098-.7856c.61-.3395.9924-.854 1.0485-1.3667l.481-4.3945c.0881-.8041-.6886-1.511-1.8836-1.511h-4.2182c-1.191 0-1.9714.7096-1.8837 1.511l.4811 4.3945c.056.5119.4386 1.026 1.0487 1.3659a1 1 0 0 1 .5095.7854l.6973 7.8757c.3382.0428.7878.0672 1.2567.0675.4691.0003.9181-.0234 1.2556-.0659zM6.5014 11c-1.933 0-3.5-1.567-3.5-3.5s1.567-3.5 3.5-3.5 3.5 1.567 3.5 3.5-1.567 3.5-3.5 3.5m19 0c-1.933 0-3.5-1.567-3.5-3.5s1.567-3.5 3.5-3.5 3.5 1.567 3.5 3.5-1.567 3.5-3.5 3.5m-9.5-2c-2.209 0-4-1.7909-4-4s1.791-4 4-4c2.2092 0 4 1.7909 4 4s-1.7908 4-4 4m9.5.3c.9942 0 1.8-.8059 1.8-1.8s-.8058-1.8-1.8-1.8c-.994 0-1.8.8059-1.8 1.8s.806 1.8 1.8 1.8m-19 0c.9942 0 1.8-.8059 1.8-1.8s-.8058-1.8-1.8-1.8c-.994 0-1.8.8059-1.8 1.8s.806 1.8 1.8 1.8m9.5-2.3c1.1046 0 2-.8954 2-2s-.8954-2-2-2-2 .8954-2 2 .8955 2 2 2"/>
</svg>
