<svg width="32" height="32" fill="currentColor" viewBox="0 0 32 32" xmlns="http://www.w3.org/2000/svg">
  <path d="M16 30C8.268 30 2 23.732 2 16S8.268 2 16 2s14 6.268 14 14-6.268 14-14 14m0-2c6.6274 0 12-5.3726 12-12S22.6274 4 16 4 4 9.3726 4 16s5.3726 12 12 12m5-16.1852C21 16.6547 18.9606 20 16 20c-2.9523 0-5-3.3453-5-8.1852C11 7.98 16 8 16 8s5-.02 5 3.8148m-2 0c0-.7432-.3564-1.1518-1.2096-1.4756-.379-.1438-.809-.2416-1.2438-.2962-.2622-.0329-.457-.0432-.5422-.043-.094-.0002-.2888 .0101-.551 .043-.4348 .0546-.8647 .1524-1.2438 .2962C13.3564 10.663 13 11.0716 13 11.8148 13 15.6898 14.412 18 16 18c1.5926 0 3-2.3053 3-6.1852M8 24.752v1.0079l-2 .0003V24.752c0-.8246 .6195-1.7512 1.3916-2.073l3.684-1.535c.5106-.2127 1.3226-.186 1.8121 .0588l1.3229 .6614c.9883 .4941 2.5989 .49 3.5788 0l1.3229-.6614c.4902-.2452 1.3001-.272 1.812-.0587l3.6841 1.535C25.377 22.9993 26 23.9307 26 24.765v.9922h-2v-.9922c0-.0256-.1362-.2296-.1608-.2399l-3.684-1.535c.0238 .01-.1788 .0166-.1485 .0014l-1.3229 .6615c-1.5453 .7726-3.8186 .7745-5.3676 0l-1.3229-.6615c.0313 .0157-.1734 .009-.1484-.0014l-3.684 1.535c-.0276 .0115-.1609 .2104-.1609 .2268"/>
</svg>
