<svg width="16" height="16" fill="currentColor" viewBox="0 0 16 16" xmlns="http://www.w3.org/2000/svg">
  <path d="M3.5 6.4197V3a1 1 0 0 1 .5039-.8682l3.5-2a1 1 0 0 1 .9817-.006l3.6 2A1 1 0 0 1 12.6 3v3.4768l2.8961 1.655A1 1 0 0 1 16 9v4a1 1 0 0 1-.5039.8682l-3.5 2a1 1 0 0 1-.9922 0L8 14.1518l-3.0039 1.7164a1 1 0 0 1-.9922 0l-3.5-2A1 1 0 0 1 0 13V9a1 1 0 0 1 .5039-.8682zm-.613 2.6538 1.613.9022 1.613-.9022L4.5 8.1518zM7 10.908l-1.496.8367v1.5298L7 12.4197zm-3.504 2.3665v-1.5298L2 10.908v1.5117zm6.391-4.201 1.613.9022 1.613-.9022-1.613-.9217zM14 10.908l-1.496.8367v1.5298L14 12.4197zm-3.504 2.3665v-1.5298L9 10.908v1.5117zM6.387 3.0735 8 3.9757l1.643-.919-1.636-.9089zM10.6 4.852l-1.596.8926v1.5535l1.596-.8866zM6.996 7.2745V5.7447L5.5 4.908v1.5117z"/>
</svg>
