<svg width="24" height="24" fill="currentColor" viewBox="0 0 24 24" xmlns="http://www.w3.org/2000/svg">
  <path d="M10.0867 13.0182 7 11.1662l-3.0867 1.852L7 14.7702zM11 14.9006l-3 1.7028v2.6304l3-1.8zm-5 4.3332v-2.6304l-3-1.7028v2.5332zm7-1.8 3 1.8v-2.6304l-3-1.7028zm-7-8V5a1 1 0 0 1 .4855-.8575l5-3a1 1 0 0 1 1.029 0l5 3A1 1 0 0 1 18 5v4.4338l4.5145 2.7087A1 1 0 0 1 23 13v5a1 1 0 0 1-.4855 .8575l-5 3a1 1 0 0 1-1.029 0L12 19.1662l-4.4855 2.6913a1 1 0 0 1-1.029 0l-5-3A1 1 0 0 1 1 18v-5a1 1 0 0 1 .4855-.8575zm5 1.8V8.6034L8 6.9006v2.5332zm9.0867 1.7844L17 11.1662l-3.0867 1.852L17 14.7702zM21 14.9006l-3 1.7028v2.6304l3-1.8zm-5-5.4668V6.9006l-3 1.7028v2.6304zm-.9133-4.4156L12 3.1662l-3.0867 1.852L12 6.7702z"/>
</svg>
