<svg xmlns="http://www.w3.org/2000/svg" fill="none" viewBox="0 0 24 24"><g fill="currentColor" clip-path="url(#vcd-virtual-machines--24-a)"><path fill-rule="evenodd" d="m12.5145 1.1425 9 5A1 1 0 0 1 22 7v8.0637A5.0362 5.0362 0 0 0 21.1999 15c-.4136 0-.8155.0502-1.1999.1449V8.795l-7 3.6794v2.6978a3.0081 3.0081 0 0 0-.9984.5942 3.0108 3.0108 0 0 0-1.0016-.59v-2.702L4 8.795v7.616l3.0057 1.6703c.0087.3506.0794.7057.2186 1.05l.7085 1.7525-5.4473-3.0263A1 1 0 0 1 2 17V7a1 1 0 0 1 .4855-.8575l9-5a1 1 0 0 1 1.029 0ZM12 10.718l7.0048-3.6819L12 3.1446l-7.0057 3.891L12 10.718Z" clip-rule="evenodd"/><path d="M9.6289 17.0718c.5128-.2051 1.0947.0443 1.2998.5571l1.0716 2.6788.7716-1.9292a2.1928 2.1928 0 0 1 2.0358-1.3783c.5224 0 1.0022.1828 1.3788.4878a2.737 2.737 0 0 1 1.5638-.4876c.6648 0 1.2745.2359 1.75.6285a2.739 2.739 0 0 1 1.75-.6285c1.5188 0 2.75 1.2312 2.75 2.75v3.25c0 .5523-.4477 1-1 1s-1-.4477-1-1v-3.25a.75.75 0 0 0-1.5 0v3.25c0 .5523-.4477 1-1 1s-1-.4477-1-1v-3.25a.75.75 0 0 0-1.5 0v3.25c0 .5523-.4477 1-1 1s-1-.4477-1-1v-3.8076a.1927.1927 0 0 0-.3714-.0715l-1.7002 4.2504a1 1 0 0 1-1.8569 0l-2-5c-.2051-.5128.0443-1.0948.557-1.2999Z"/></g><defs><clipPath id="vcd-virtual-machines--24-a"><path fill="#fff" d="M0 0h24v24H0z"/></clipPath></defs></svg>