<svg width="32" height="32" fill="currentColor" viewBox="0 0 32 32" xmlns="http://www.w3.org/2000/svg">
  <path d="M24 12h-6c-.5523 0-1-.4477-1-1V5H7v23h14v2H6c-.5523 0-1-.4477-1-1V4c0-.5523.4477-1 1-1h12a1 1 0 0 1 .7071.2929l7 7A1 1 0 0 1 26 11v13h-2zm-1.4142-2L19 6.4142V10zm-2.5293 12.5813 5.5809 4.6392c.4251.3533.485.9867.134 1.4145-.3511.4279-.9804.4883-1.4055.1349l-5.722-4.7565C17.753 24.6353 16.669 25 15.5 25c-3.0376 0-5.5-2.4624-5.5-5.5s2.4624-5.5 5.5-5.5 5.5 2.4624 5.5 5.5c0 1.1418-.3479 2.2022-.9435 3.0813M15.5 23c1.933 0 3.5-1.567 3.5-3.5S17.433 16 15.5 16 12 17.567 12 19.5s1.567 3.5 3.5 3.5"/>
</svg>
