<svg width="16" height="16" fill="currentColor" viewBox="0 0 16 16" xmlns="http://www.w3.org/2000/svg">
  <path fill-rule="evenodd" d="M7 6.8293C5.8348 6.4175 5 5.3063 5 4c0-1.6568 1.3431-3 3-3s3 1.3432 3 3c0 1.3062-.8348 2.4175-2 2.8293v1.6666l2.0786 1.2A2.988 2.988 0 0 1 13 9c1.6569 0 3 1.3431 3 3s-1.3431 3-3 3-3-1.3431-3-3c0-.2.0196-.3954.0569-.5845L7.903 10.172l-1.9813 1.144c.0512.2197.0783.4487.0783.684 0 1.6569-1.3431 3-3 3s-3-1.3431-3-3 1.3432-3 3-3a2.987 2.987 0 0 1 1.8405.6308L7 8.384zm5.0582 4.8338A1 1 0 0 0 12 12c0 .5523.4477 1 1 1s1-.4477 1-1-.4477-1-1-1a.998.998 0 0 0-.7634.354zM8 5c.5523 0 1-.4477 1-1s-.4477-1-1-1-1 .4477-1 1 .4477 1 1 1m-5 8c.5523 0 1-.4477 1-1s-.4477-1-1-1-1 .4477-1 1 .4477 1 1 1"/>
</svg>
