<svg width="24" height="24" fill="currentColor" viewBox="0 0 24 24" xmlns="http://www.w3.org/2000/svg">
  <path d="M11 9.874c.3196 .0822 .6547 .126 1 .126s.6804-.0438 1-.126v3.7414l-1 .718-1-.718zC9.2748 9.43 8 7.8638 8 6c0-2.2091 1.7909-4 4-4s4 1.7909 4 4c0 1.8638-1.2748 3.43-3 3.874v2.7157l3.4107 2.3613A3.984 3.984 0 0 1 19 14c2.2091 0 4 1.7909 4 4s-1.7909 4-4 4-4-1.7909-4-4c0-.4723 .0819-.9255 .2322-1.3461L12 14.3333 8.7678 16.654C8.9181 17.0745 9 17.5277 9 18c0 2.2091-1.7909 4-4 4s-4-1.7909-4-4 1.7909-4 4-4c.9875 0 1.8915 .3579 2.5893 .951L11 12.5897zM12 8c1.1046 0 2-.8954 2-2s-.8954-2-2-2-2 .8954-2 2 .8954 2 2 2m7 12c1.1046 0 2-.8954 2-2s-.8954-2-2-2-2 .8954-2 2 .8954 2 2 2M5 20c1.1046 0 2-.8954 2-2s-.8954-2-2-2-2 .8954-2 2 .8954 2 2 2"/>
</svg>
