<svg xmlns="http://www.w3.org/2000/svg" fill="none" viewBox="0 0 24 24"><g fill="currentColor" fill-rule="evenodd" clip-path="url(#virtual-machines-included--24-a)" clip-rule="evenodd"><path d="m12.5145 1.1425 9 5A1 1 0 0 1 22 7v6h-2V8.795l-7 3.6794v4.0428l-.5294.7149c-1.1118 1.3202-1.1118 3.2157 0 4.5359l.5845.7892-.5406.3003a1 1 0 0 1-1.029 0l-9-5A1 1 0 0 1 2 17V7a1 1 0 0 1 .4855-.8575l9-5a1 1 0 0 1 1.029 0ZM4 8.795v7.616l7 3.8899v-7.8265L4 8.795Zm15.0048-1.7589L12 10.718 4.9942 7.0356 12 3.1446l7.0049 3.8915Z"/><path d="M16.1811 15.5823c.33-.3687.7233-.5823 1.2421-.5823l5.104.0001c.9594 0 1.4728.6163 1.4728 1.5v6c0 .8836-.5134 1.5-1.4728 1.5L17.4232 24c-.5188 0-.9121-.2136-1.2421-.5823l-2.1477-2.9c-.5289-.591-.5289-1.4443 0-2.0353l2.1477-2.9001Zm1.7374 3.9369c0 .5538-.4489 1.0027-1.0027 1.0027-.5538 0-1.0027-.4489-1.0027-1.0027 0-.5538.4489-1.0027 1.0027-1.0027.5538 0 1.0027.4489 1.0027 1.0027Z"/></g><defs><clipPath id="virtual-machines-included--24-a"><path fill="#fff" d="M0 0h24v24H0z"/></clipPath></defs></svg>