<svg xmlns="http://www.w3.org/2000/svg" fill="none" viewBox="0 0 24 24"><path fill="currentColor" fill-rule="evenodd" d="m11.1056.9472-8 3.9998A2 2 0 0 0 2 6.736v10.5278c0 .7575.428 1.4501 1.1056 1.7889l8 4a2 2 0 0 0 1.7888 0l8-4A2.0001 2.0001 0 0 0 22 17.2637V6.7359a2 2 0 0 0-1.1056-1.7889l-8-3.9998a2 2 0 0 0-1.7888 0Zm-1.179 9.2194 2.0221-3.5259h-1.8148L10.3932 5.5h4.0444l-2.2815 3.4222h1.9186v1.2444H9.9265Zm2.229 6.7404 4.7703-10.3185H19l-6.1185 12.9111h-1.7111L5 6.5885h2.074l4.8223 10.3185.1037.2593h.0519l.1037-.2593Z" clip-rule="evenodd"/></svg>