<svg width="24" height="24" fill="currentColor" viewBox="0 0 24 24" xmlns="http://www.w3.org/2000/svg">
  <path fill-rule="evenodd" d="m4.5765 4.7214-2.2256 9.6442A4 4 0 0 0 2 16.0098v1.9804C2 20.2122 3.7905 22 5.9992 22h1.2509l-.6327-.8543C6.3239 20.8046 6.135 20.41 6.0508 20h-.0516C4.8932 20 4 19.1057 4 17.9902v-1.9804C4 14.8995 4.8974 14 5.9992 14h15.5655l-2.1412-9.2786C19.0709 3.1932 17.565 2 15.9915 2h-7.983c-1.572 0-3.0792 1.1926-3.432 2.7214m12.8982.4497 1.6102 6.9775A4 4 0 0 0 18.0008 12H5.9992c-.3757 0-.7394.052-1.0843.1493l1.6104-6.9782C6.6682 4.5519 7.3656 4 8.0085 4h7.983c.6438 0 1.3404.552 1.4832 1.171" clip-rule="evenodd"/>
  <path d="M6.9908 16h1l-1.3734 1.8544a3 3 0 0 0-.0446.0531C6.2345 17.7493 6 17.4043 6 17c0-.5523.451-1 .9908-1m10.9076 3.4946q0 .8374.3179 1.2613.3178.4238.9502.4238 1.268 0 1.268-1.6851 0-1.6884-1.2612-1.6884-.6323 0-.9536.4272-.3213.4239-.3213 1.2612"/>
  <path fill-rule="evenodd" d="M9.5444 15.5823c.33-.3687.7233-.5823 1.2421-.5823h11.7407C23.4866 15 24 15.6163 24 16.5v6c0 .8837-.5134 1.5-1.4728 1.5H10.7865c-.5188 0-.912-.2136-1.242-.5823l-2.1478-2.9c-.529-.591-.529-1.4443 0-2.0353zm12.001 3.9123q0 1.2408-.6153 1.9073t-1.7636.6665q-1.1485 0-1.7637-.6665t-.6152-1.9141.6152-1.9038q.6186-.6597 1.7705-.6597t1.7603.6631q.6118.6631.6118 1.9072m-5.5102 2.1841q.4887-.3897.4888-1.0664 0-.4887-.2598-.8237-.2598-.3384-.9604-.6734-.5298-.2529-.6734-.3486-.1401-.0991-.2051-.2017-.065-.1059-.0649-.2461 0-.2255.1606-.3657.1606-.1401.4615-.1401.2529 0 .5127.0649.2631.065.663.229l.3418-.8237q-.3862-.1675-.7417-.2598-.352-.0922-.7417-.0922-.7929 0-1.2441.3793-.4477.3795-.4477 1.0425 0 .352.1367.6153.1367.2631.3657.4614t.687.4136q.4887.2324.646.3383.1607.106.2427.2222.082.1128.082.2598 0 .2631-.188.3965-.1845.1332-.5332.1333-.2905 0-.6426-.0923-.3486-.0923-.8545-.3179v.9844q.6153.3008 1.4151.3008.8682 0 1.3535-.3897m-4.3583-4.6758V22h1.0596v-4.9971z" clip-rule="evenodd"/>
</svg>
