<svg width="24" height="24" fill="currentColor" viewBox="0 0 24 24" xmlns="http://www.w3.org/2000/svg">
  <path d="m16.005 12-1.7187-5H9.7137l-1.7188 5zm2.698 1.6968A2.99 2.99 0 0 1 19 15v1c0 1.6569-1.3431 3-3 3H8c-1.6569 0-3-1.3431-3-3v-1c0-.467.1067-.909.297-1.3032l.0073-.0219 2.518-7.325A2 2 0 0 1 9.7137 5h4.5726a2 2 0 0 1 1.8914 1.3498l2.518 7.3251zM8 14c-.5523 0-1 .4477-1 1v1c0 .5523.4477 1 1 1h8c.5523 0 1-.4477 1-1v-1c0-.5523-.4477-1-1-1zm.5 1h3a.5.5 0 1 1 0 1h-3a.5.5 0 1 1 0-1m7 1a.5.5 0 1 1 0-1 .5.5 0 0 1 0 1M5 3H3v2c0 .5523-.4477 1-1 1s-1-.4477-1-1V2c0-.5523.4477-1 1-1h3c.5523 0 1 .4477 1 1s-.4477 1-1 1m14 0c-.5523 0-1-.4477-1-1s.4477-1 1-1h3c.5523 0 1 .4477 1 1v3c0 .5523-.4477 1-1 1s-1-.4477-1-1V3zm0 18h2v-2c0-.5523.4477-1 1-1s1 .4477 1 1v3c0 .5523-.4477 1-1 1h-3c-.5523 0-1-.4477-1-1s.4477-1 1-1M5 21c.5523 0 1 .4477 1 1s-.4477 1-1 1H2c-.5523 0-1-.4477-1-1v-3c0-.5523.4477-1 1-1s1 .4477 1 1v2z"/>
</svg>
