<svg width="24" height="24" fill="currentColor" viewBox="0 0 24 24" xmlns="http://www.w3.org/2000/svg">
  <path d="M12 23C5.9249 23 1 18.0751 1 12S5.9249 1 12 1s11 4.9249 11 11-4.9249 11-11 11m0-2c4.9706 0 9-4.0294 9-9s-4.0294-9-9-9-9 4.0294-9 9 4.0294 9 9 9m-4.4142-8H5c-.5523 0-1-.4477-1-1s.4477-1 1-1h2.5858l-.293-.2929c-.3904-.3905-.3904-1.0237 0-1.4142.3906-.3905 1.0238-.3905 1.4143 0l2 2c.3905.3905.3905 1.0237 0 1.4142l-2 2c-.3905.3905-1.0237.3905-1.4142 0s-.3905-1.0237 0-1.4142zM11 16.5858V14c0-.5523.4477-1 1-1s1 .4477 1 1v2.5858l.2929-.293c.3905-.3904 1.0237-.3904 1.4142 0 .3905.3906.3905 1.0238 0 1.4143l-2 2c-.3905.3905-1.0237.3905-1.4142 0l-2-2c-.3905-.3905-.3905-1.0237 0-1.4142s1.0237-.3905 1.4142 0zm2-9.1716V10c0 .5523-.4477 1-1 1s-1-.4477-1-1V7.4142l-.2929.293c-.3905.3904-1.0237.3904-1.4142 0-.3905-.3906-.3905-1.0238 0-1.4143l2-2c.3905-.3905 1.0237-.3905 1.4142 0l2 2c.3905.3905.3905 1.0237 0 1.4142s-1.0237.3905-1.4142 0zM16.4142 11H19c.5523 0 1 .4477 1 1s-.4477 1-1 1h-2.5858l.293.2929c.3904.3905.3904 1.0237 0 1.4142-.3906.3905-1.0238.3905-1.4143 0l-2-2c-.3905-.3905-.3905-1.0237 0-1.4142l2-2c.3905-.3905 1.0237-.3905 1.4142 0s.3905 1.0237 0 1.4142z"/>
</svg>
