<svg width="16" height="16" fill="currentColor" viewBox="0 0 16 16" xmlns="http://www.w3.org/2000/svg">
  <path fill-rule="evenodd" d="M15 10.527q0 2.9817-6.659 5.4127a.994.994 0 0 1-.682 0Q1 13.5087 1 10.527V2.7317c0-.4494.296-.8443.7253-.9677l6-1.7253a.994.994 0 0 1 .5494 0l6 1.7253c.4293.1234.7253.5183.7253.9677zM8 2 3 3.4537v7.1146C3 11.3935 4.5267 12.674 8 14c3.4733-1.326 5-2.6065 5-3.4317V3.4537zm1 6.7324c.5978-.3458 1-.9921 1-1.7324 0-1.1046-.8954-2-2-2s-2 .8954-2 2c0 .7403.4022 1.3866 1 1.7324V10c0 .5523.4477 1 1 1s1-.4477 1-1z"/>
</svg>
