<svg width="24" height="24" fill="currentColor" viewBox="0 0 24 24" xmlns="http://www.w3.org/2000/svg">
  <path fill-rule="evenodd" d="M20.2206 3.8342A1 1 0 0 1 21 4.8107l-.0121 9.0946c-.1156 2.3958-1.7224 4.4255-4.2384 6.0627C15.0311 21.0862 12.8038 22 12 22c-.8036 0-3.031-.9136-4.7506-2.0318C4.7324 18.3314 3.1226 16.3025 3 13.8571V4.8095a1 1 0 0 1 .7794-.9753l8-1.8096a1 1 0 0 1 .4412 0zM12 4.0252 4.9999 5.6087l-.0012 8.1979c.082 1.6185 1.3068 3.1623 3.341 4.485C9.7633 19.2172 11.6717 20 12 20s2.2364-.7828 3.6587-1.7083c2.0321-1.3224 3.2535-2.8652 3.3304-4.4358l.0099-8.2475zm1 7.7072c.5978-.3458 1-.9921 1-1.7324 0-1.1046-.8954-2-2-2s-2 .8954-2 2c0 .7403.4022 1.3866 1 1.7324V15c0 .5523.4477 1 1 1s1-.4477 1-1z"/>
</svg>
