<svg width="24" height="24" fill="currentColor" viewBox="0 0 24 24" xmlns="http://www.w3.org/2000/svg">
  <path d="M11 17H4c-1.1046 0-2-.8954-2-2V5C2 3.8954 2.8954 3 4 3h16c1.1046 0 2 .8954 2 2v10c0 1.1046-.8954 2-2 2h-7v1.2676c.3036 .1756 .5568 .4288 .7324 .7324H19c.5523 0 1 .4477 1 1s-.4477 1-1 1h-5.2676c-.3458 .5978-.9921 1-1.7324 1s-1.3866-.4022-1.7324-1H5c-.5523 0-1-.4477-1-1s.4477-1 1-1h5.2676A2.01 2.01 0 0 1 11 18.2676zM4 5v10h16V5zm9.1707 6A3 3 0 0 1 13 10c0-1.6569 1.3431-3 3-3s3 1.3431 3 3-1.3431 3-3 3H8c-1.6569 0-3-1.3431-3-3s1.3431-3 3-3 3 1.3431 3 3c0 .3506-.0602 .6872-.1707 1zM16 11c.5523 0 1-.4477 1-1s-.4477-1-1-1-1 .4477-1 1 .4477 1 1 1M8 11c.5523 0 1-.4477 1-1s-.4477-1-1-1-1 .4477-1 1 .4477 1 1 1"/>
</svg>
