<svg width="32" height="32" fill="none" viewBox="0 0 32 32" xmlns="http://www.w3.org/2000/svg">
  <path fill="#2668C5" d="M26.201 6.8575c.6125.3607.6123 1.248-.0005 1.6084l-9.7299 5.7213a.93.93 0 0 1-.9425 0l-9.73-5.7213c-.6127-.3603-.613-1.2477-.0004-1.6084l9.7299-5.729a.93.93 0 0 1 .9434 0zM14.5681 29.066c0 .7209-.7815 1.1692-1.4022.8043l-9.7062-5.7074A.933.933 0 0 1 3 23.3586V11.9171c0-.7209.7816-1.1693 1.4022-.8043l9.7062 5.7073a.933.933 0 0 1 .4597.8043zm2.8638 0c0 .7209.7815 1.1692 1.4022.8043l9.7062-5.7074A.933.933 0 0 0 29 23.3586V11.9171c0-.7209-.7816-1.1693-1.4022-.8043l-9.7062 5.7073a.933.933 0 0 0-.4597.8043z"/>
</svg>
