<svg width="32" height="32" fill="none" viewBox="0 0 32 32" xmlns="http://www.w3.org/2000/svg">
  <path fill="#2668C5" d="M20.5 19.8616c0-.3839.4147-.6246.748-.4341l5.4922 3.1384c.3359.1919.3359.6763 0 .8682l-5.4922 3.1384c-.3333.1905-.748-.0502-.748-.4341z"/>
  <path fill="#2668C5" fill-rule="evenodd" d="M32 23c0 4.9706-4.0295 9-9 9s-9-4.0294-9-9 4.0294-9 9-9 9 4.0295 9 9m-2 0c0 3.866-3.1341 7-7 7-3.866 0-7-3.134-7-7s3.134-7 7-7c3.8659 0 7 3.134 7 7" clip-rule="evenodd"/>
  <path fill="#2668C5" d="M26.201 6.8575c.6125.3607.6123 1.248-.0005 1.6084l-9.7299 5.7213a.93.93 0 0 1-.9425 0l-9.73-5.7213c-.6127-.3603-.613-1.2477-.0004-1.6084l9.7299-5.729a.93.93 0 0 1 .9434 0zM14.5681 29.066c0 .7209-.7815 1.1692-1.4022.8043l-9.7062-5.7074A.933.933 0 0 1 3 23.3586V11.9171c0-.7209.7816-1.1693 1.4022-.8043l9.7062 5.7073a.933.933 0 0 1 .4597.8043v2.2216C14.2008 20.8275 14 21.8903 14 23s.2008 2.1725.5681 3.154zM29 16.2917v-4.3746c0-.7209-.7816-1.1693-1.4022-.8043l-4.9198 2.8929A9 9 0 0 1 23 14c2.305 0 4.4077.8666 6 2.2917"/>
</svg>
