<svg xmlns="http://www.w3.org/2000/svg" fill="none" viewBox="0 0 24 24"><g fill="currentColor" clip-path="url(#web-hosting-server-included--24-a)"><path d="M19.965 7.831C18.975 4.419 15.7392 2 12 2 8.603 2 5.5942 3.9992 4.3385 6.9767 2.324 7.9427 1 9.9427 1 12.1875c0 2.3426 1.4421 4.4221 3.6144 5.3347.5092.2139 1.0953-.0254 1.3093-.5346.2139-.5092-.0255-1.0954-.5347-1.3093C3.9452 15.0718 3 13.7088 3 12.1875c0-1.5563.9895-2.945 2.4834-3.5291a1 1 0 0 0 .5778-.5955C6.9187 5.6576 9.29 4 12 4c2.9895 0 5.5387 2.0141 6.14 4.7653a.9999.9999 0 0 0 .623.7218C20.1065 9.9955 21 11.2347 21 12.625c0 .1263-.0075.2515-.0223.375l1.5495.0001c.1525 0 .3053.0084.4573.0258A5.1722 5.1722 0 0 0 23 12.625c0-2.0585-1.2031-3.8926-3.035-4.794Z"/><path fill-rule="evenodd" d="M17 11.5v1.5234c-.8433.0949-1.5319.4696-2.0676.9766H7.5a.5.5 0 0 1-.5-.5v-2a.5.5 0 0 1 .5-.5h9a.5.5 0 0 1 .5.5Zm-8 1a.5.5 0 1 1-1 0 .5.5 0 0 1 1 0Zm4.5.5a.5.5 0 1 0-.0001-1.0001A.5.5 0 0 0 13.5 13Zm2.5-.5a.5.5 0 1 1-1.0001-.0001A.5.5 0 0 1 16 12.5ZM14.1237 15H7.5a.5.5 0 0 0-.5.5v2a.5.5 0 0 0 .5.5h4.4755a3.571 3.571 0 0 1 .4951-.7679l.5297-.7153L13 16.5c0-.2314.1571-.426.3705-.4831L14.1237 15ZM9 16.5a.5.5 0 1 1-1 0 .5.5 0 0 1 1 0Zm2.5.5a.5.5 0 1 0-.0001-1.0001A.5.5 0 0 0 11.5 17ZM7.5 19h4.1727c-.1395.9635.1264 1.9706.7979 2.768l.1718.232H7.5a.5.5 0 0 1-.5-.5v-2a.5.5 0 0 1 .5-.5ZM9 20.5a.5.5 0 1 1-1 0 .5.5 0 0 1 1 0ZM16.1811 15.5823c.33-.3687.7233-.5823 1.2421-.5823l5.104.0001c.9594 0 1.4728.6163 1.4728 1.5v6c0 .8836-.5134 1.5-1.4728 1.5L17.4232 24c-.5188 0-.9121-.2136-1.2421-.5823l-2.1477-2.9c-.5289-.591-.5289-1.4443 0-2.0353l2.1477-2.9001Zm1.7374 3.9369c0 .5538-.4489 1.0027-1.0027 1.0027-.5538 0-1.0027-.4489-1.0027-1.0027 0-.5538.4489-1.0027 1.0027-1.0027.5538 0 1.0027.4489 1.0027 1.0027Z" clip-rule="evenodd"/></g><defs><clipPath id="web-hosting-server-included--24-a"><path fill="#fff" d="M0 0h24v24H0z"/></clipPath></defs></svg>