<svg width="16" height="16" fill="currentColor" viewBox="0 0 16 16" xmlns="http://www.w3.org/2000/svg">
  <path d="M15.8389 10.1218A3.98 3.98 0 0 0 16 9c0-1.541-.8791-2.9122-2.2098-3.578C13.0914 2.8477 10.7392 1 8 1S2.9086 2.8477 2.2098 5.422C.879 6.0878 0 7.459 0 9c0 1.7103 1.0832 3.2144 2.6708 3.7736.521.1834 1.092-.0901 1.2754-.611s-.09-1.092-.611-1.2754a2.0012 2.0012 0 0 1 .0463-3.79 1 1 0 0 0 .6767-.7815C4.3857 4.412 6.0455 3 8 3s3.6143 1.412 3.9419 3.3157a1 1 0 0 0 .6766.7815A2.001 2.001 0 0 1 14 9c0 .3601-.0978.703-.2711 1h1.3855c.2447 0 .4915.0374.7245.1218"/>
  <path fill-rule="evenodd" d="M8.5425 13c-.1726.5857-.036 1.2335.41 1.7208L9.9775 16H5.5a.5.5 0 0 1-.5-.5v-2a.5.5 0 0 1 .5-.5zM7.5 15a.5.5 0 1 0 0-1 .5.5 0 0 0 0 1m1.6762-3H5.5a.5.5 0 0 1-.5-.5v-2a.5.5 0 0 1 .5-.5h5a.5.5 0 0 1 .5.5v.6392c-.2777.1104-.517.2805-.7186.4887l-.0326.0337zM9.5 11a.5.5 0 1 0 0-1 .5.5 0 0 0 0 1m2.2464 0c-.3118 0-.5483.1187-.7466.3235l-1.2911 1.6111c-.318.3284-.318.8024 0 1.1308l1.2911 1.6111c.1983.2048.4348.3235.7466.3235h3.368c.5768 0 .8854-.3424.8854-.8333v-3.3334c0-.4909-.3086-.8333-.8854-.8333zM11.5 14a.5.5 0 1 0 0-1 .5.5 0 0 0 0 1"/>
</svg>
