<svg xmlns="http://www.w3.org/2000/svg" fill="none" viewBox="0 0 16 16"><g fill="currentColor" fill-rule="evenodd" clip-path="url(#website-ab--16-a)" clip-rule="evenodd"><path d="M0 2C0 .8954.8954 0 2 0h12c1.1046 0 2 .8954 2 2v2.5H0V2Zm3.5.25c0 .5523-.4477 1-1 1s-1-.4477-1-1 .4477-1 1-1 1 .4477 1 1Zm2 1c.5523 0 1-.4477 1-1s-.4477-1-1-1-1 .4477-1 1 .4477 1 1 1ZM0 6h16v8c0 1.1046-.8954 2-2 2H2c-1.1046 0-2-.8954-2-2V6Zm6 8V8H2v6h4Zm2-6h6v1H8V8Zm0 6h6v-1H8v1Zm0-2.5h6v-1H8v1Z"/></g><defs><clipPath id="website-ab--16-a"><path fill="#fff" d="M0 0h16v16H0z"/></clipPath></defs></svg>