<svg width="16" height="16" fill="currentColor" viewBox="0 0 16 16" xmlns="http://www.w3.org/2000/svg">
  <path d="M1 0h14c.5523 0 1 .4477 1 1v14c0 .5523-.4477 1-1 1H1c-.5523 0-1-.4477-1-1V1c0-.5523.4477-1 1-1m1 2v12h12V2zm6 5v7H6V7H2V5h12v2zm1.5 1h3a.5.5 0 1 1 0 1h-3a.5.5 0 0 1 0-1m0 2h1a.5.5 0 1 1 0 1h-1a.5.5 0 1 1 0-1m0 2h3a.5.5 0 1 1 0 1h-3a.5.5 0 1 1 0-1m-6-8a.5.5 0 1 1 0-1 .5.5 0 0 1 0 1m2 0a.5.5 0 1 1 0-1 .5.5 0 0 1 0 1m2 0a.5.5 0 1 1 0-1 .5.5 0 0 1 0 1m-4 4h1a.5.5 0 0 1 0 1h-1a.5.5 0 0 1 0-1m0 2h1a.5.5 0 1 1 0 1h-1a.5.5 0 1 1 0-1m0 2h1a.5.5 0 1 1 0 1h-1a.5.5 0 1 1 0-1"/>
</svg>
