<svg width="24" height="24" fill="currentColor" viewBox="0 0 24 24" xmlns="http://www.w3.org/2000/svg">
  <path d="M20 10H11v10h9zm0-2V4H4v4zM4 10v10h5V10zM2 2.9918C2 2.444 2.4553 2 2.9918 2h18.0164C21.556 2 22 2.4553 22 2.9918v18.0164c0 .5478-.4553 .9918-.9918 .9918H2.9918C2.444 22 2 21.5447 2 21.0082zM6 7c-.5523 0-1-.4477-1-1s.4477-1 1-1 1 .4477 1 1-.4477 1-1 1m3 0c-.5523 0-1-.4477-1-1s.4477-1 1-1 1 .4477 1 1-.4477 1-1 1m3 0c-.5523 0-1-.4477-1-1s.4477-1 1-1 1 .4477 1 1-.4477 1-1 1m-7 5c0-.5523 .4427-1 .999-1h1.002A.997 .997 0 0 1 8 12c0 .5523-.4427 1-.999 1H5.999A.997 .997 0 0 1 5 12m7 0c0-.5523 .4379-1 1.003-1h4.994C18.551 11 19 11.4439 19 12c0 .5523-.4379 1-1.003 1h-4.994C12.449 13 12 12.5561 12 12m0 3c0-.5523 .4434-1 1.0094-1h1.9812C15.5481 14 16 14.4439 16 15c0 .5523-.4434 1-1.0094 1h-1.9812C12.4519 16 12 15.5561 12 15m0 3c0-.5523 .451-1 .9908-1h4.0184c.5472 0 .9908 .4439 .9908 1 0 .5523-.451 1-.9908 1h-4.0184C12.4436 19 12 18.5561 12 18m-7-3c0-.5523 .4427-1 .999-1h1.002A.997 .997 0 0 1 8 15c0 .5523-.4427 1-.999 1H5.999A.997 .997 0 0 1 5 15m0 3c0-.5523 .4427-1 .999-1h1.002A.997 .997 0 0 1 8 18c0 .5523-.4427 1-.999 1H5.999A.997 .997 0 0 1 5 18"/>
</svg>
