<svg width="24" height="24" fill="currentColor" viewBox="0 0 24 24" xmlns="http://www.w3.org/2000/svg">
  <path d="m18.9925 11 .0065-5.3916L13 4.2514V11zm-.0024 2H13v6.6736c.7588-.3137 1.7977-.8216 2.6587-1.382 2.0321-1.3223 3.2535-2.8651 3.3304-4.4357zM11 11V4.2515L4.9999 5.6086l-.0012 8.198c.082 1.6184 1.3068 3.1622 3.341 4.4849.8618.5604 1.9013 1.0684 2.6603 1.3821V13H5V11zm9.2206-7.1658A1 1 0 0 1 21 4.8107l-.012 9.0946c-.1157 2.3958-1.7225 4.4255-4.2385 6.0627C15.0311 21.0862 12.8038 22 12 22c-.8036 0-3.031-.9136-4.7506-2.0318C4.7324 18.3314 3.1226 16.3025 3 13.8572V4.8094a1 1 0 0 1 .7794-.9753l8-1.8096a1 1 0 0 1 .4412 0z"/>
</svg>
