<svg width="16" height="16" fill="currentColor" viewBox="0 0 16 16" xmlns="http://www.w3.org/2000/svg">
  <path fill-rule="evenodd" d="M15 2v6.416A4.98 4.98 0 0 0 13 8a4.978 4.978 0 0 0-3.0005 1H3v1h5.9996A4.978 4.978 0 0 0 8 13c0 .7111.1485 1.3875.416 2H6c-.5523 0-1-.4477-1-1s.4477-1 1-1h1v-1H2c-.5523 0-1-.4477-1-1V2c0-.5523.4477-1 1-1h12c.5523 0 1 .4477 1 1M3 7h10V3H3zm12.6323 4.9448a.435.435 0 0 1 .345.2925.436.436 0 0 1-.0997.4417l-1.1453 1.1791.2647 1.6358a.432.432 0 0 1-.096.3525.436.436 0 0 1-.3307.1537.445.445 0 0 1-.21-.0547l-1.3605-.7561-1.3598.7561a.4331.4331 0 0 1-.6375-.4515l.2655-1.6358-1.1453-1.1791a.438.438 0 0 1-.1005-.4417.438.438 0 0 1 .3458-.2933l1.5622-.2392.6773-1.4543a.433.433 0 0 1 .7853 0l.6772 1.455z"/>
</svg>
