<svg width="24" height="24" fill="currentColor" viewBox="0 0 24 24" xmlns="http://www.w3.org/2000/svg">
  <path fill-rule="evenodd" d="M11 18H3.5033C2.673 18 2 17.3361 2 16.5069V3.4931C2 2.6685 2.6654 2 3.5033 2h16.9934C21.327 2 22 2.6639 22 3.4931v10.3096C21.1175 13.2922 20.0929 13 19 13c-1.2267 0-2.3675.3682-3.3178 1H4v2h9.8027a5.96 5.96 0 0 0-.7197 2H13v2h.083a5.96 5.96 0 0 0 .7197 2H8.997A.996.996 0 0 1 8 21c0-.5523.453-1 .997-1H11zm11.9696-.017a.58.58 0 0 0-.46-.39l-2.083-.319-.903-1.94a.5774.5774 0 0 0-1.047 0l-.903 1.939-2.083.319a.584.584 0 0 0-.461.391.584.584 0 0 0 .134.589l1.527 1.572-.354 2.181a.5775.5775 0 0 0 .85.602l1.813-1.008 1.814 1.008a.59.59 0 0 0 .28.073c.17 0 .331-.076.441-.205.11-.13.157-.302.128-.47l-.353-2.181 1.527-1.572a.581.581 0 0 0 .133-.589M20 4H4v8h16z"/>
</svg>
