<svg xmlns="http://www.w3.org/2000/svg" fill="none" viewBox="0 0 16 16"><g clip-path="url(#wrench-o--16-a)"><path fill="currentColor" d="M6.6875 0c3.6937 0 6.6875 2.9935 6.6875 6.6875 0 .45-.049.8967-.1435 1.3403l-.0155.0612 1.7221 1.7226c1.3653 1.3654 1.4141 3.5483.1465 4.9714l-.1463.1549A3.6147 3.6147 0 0 1 12.375 16a3.616 3.616 0 0 1-2.5632-1.062L8.09 13.216l-.0607.0152a6.4877 6.4877 0 0 1-1.0044.1347l-.3374.0091C2.9938 13.375 0 10.3815 0 6.6875c0-.9761.215-1.9263.6213-2.8047.308-.666.9972-.8205 1.595-.57.2847.1193.5676.3288.8982.6371.4644.4332 1.0602 1.1042 1.7985 2.0217l.4169.525c.1729.2205.4607.3165.6922.2553l.1147-.035a.961.961 0 0 0 .6042-.6559.699.699 0 0 0-.2438-.7309C5.3062 4.396 4.462 3.6635 3.95 3.1146c-.3084-.3306-.518-.6136-.6372-.8984-.2505-.5978-.0957-1.2871.5703-1.595C4.762.215 5.7115 0 6.6875 0Zm0 2a4.611 4.611 0 0 0-.8647.0817l-.0658.0143c.4125.3896.9864.8774 1.723 1.462l.2516.1985a2.699 2.699 0 0 1 .9412 2.8223c-.2518.9397-.9488 1.6944-1.901 2.0343l-.1929.0593a2.6995 2.6995 0 0 1-2.8226-.9413c-.5237-.6676-.9756-1.214-1.3518-1.6365L2.095 5.757l-.0133.0656a4.6105 4.6105 0 0 0-.0725.5738L2 6.6875c0 2.5894 2.0983 4.6875 4.6875 4.6875.4638 0 .9294-.0769 1.4009-.2263l.5794-.1836 2.5582 2.5587A1.6163 1.6163 0 0 0 12.375 14c.4292 0 .8393-.1664 1.149-.4763.6347-.6344.6347-1.6631-.0002-2.298L10.966 8.6674l.1829-.579c.1492-.4722.2261-.938.2261-1.4009C11.375 4.0981 9.2767 2 6.6875 2Z"/></g><defs><clipPath id="wrench-o--16-a"><path fill="#fff" d="M0 0h16v16H0z"/></clipPath></defs></svg>