<svg xmlns="http://www.w3.org/2000/svg" fill="none" viewBox="0 0 16 16"><g clip-path="url(#ztc-esign-o--16-a)"><path fill="currentColor" d="M13 0c.5523 0 1 .4477 1 1v4c0 .5523-.4477 1-1 1s-1-.4477-1-1V2H2v12h5c.5523 0 1 .4477 1 1s-.4477 1-1 1H1c-.5523 0-1-.4477-1-1V1c0-.5523.4477-1 1-1h12ZM6 10c.5523 0 1 .4477 1 1s-.4477 1-1 1H4c-.5523 0-1-.4477-1-1s.4477-1 1-1h2Zm2-3c.5523 0 1 .4477 1 1s-.4477 1-1 1H4c-.5523 0-1-.4477-1-1s.4477-1 1-1h4ZM6 4c.5523 0 1 .4477 1 1s-.4477 1-1 1H4c-.5523 0-1-.4477-1-1s.4477-1 1-1h2Zm9.5 5a.5.5 0 0 1 .5.5v1.319a.5001.5001 0 0 1-.1159.3201L13.5 14h2a.5.5 0 0 1 .5.5v1a.5.5 0 0 1-.5.5h-4a.5.5 0 0 1-.5-.5v-1.319c0-.1169.041-.2302.1159-.3201L13.5 11h-2a.5.5 0 0 1-.5-.5v-1a.5.5 0 0 1 .5-.5h4Z"/></g><defs><clipPath id="ztc-esign-o--16-a"><path fill="#fff" d="M0 0h16v16H0z"/></clipPath></defs></svg>