<svg xmlns="http://www.w3.org/2000/svg" fill="none" viewBox="0 0 24 24"><path fill="currentColor" d="M19 2c.5523 0 1 .4477 1 1v1.9444c0 .5523-.4477 1-1 1s-1-.4477-1-1V4H4v17h14v-.8331c0-.5523.4477-1 1-1s1 .4477 1 1V22c0 .5523-.4477 1-1 1H3c-.5523 0-1-.4477-1-1V3c0-.5523.4477-1 1-1h16Zm-3 7a.5.5 0 0 1 .5.5v1a.5.5 0 0 1-.5.5h-1v4.5a.5.5 0 0 1-.5.5h-1a.5.5 0 0 1-.5-.5V11h-1a.5.5 0 0 1-.5-.5v-1A.5.5 0 0 1 12 9h4Zm-5.5 0a.5.5 0 0 1 .5.5v1.319a.5001.5001 0 0 1-.1159.3201L8.5 14h2a.5.5 0 0 1 .5.5v1a.5.5 0 0 1-.5.5h-4a.5.5 0 0 1-.5-.5v-1.319c0-.1169.041-.2302.1159-.3201L8.5 11h-2a.5.5 0 0 1-.5-.5v-1a.5.5 0 0 1 .5-.5h4ZM20 9c1.1046 0 2 .8954 2 2v.2a.3.3 0 0 1-.3.3h-1.4a.3.3 0 0 1-.3-.3V11a.5.5 0 0 0-.9919-.0899L19 11v3a.5.5 0 0 0 .9919.0899L20 14v-.2a.3.3 0 0 1 .3-.3h1.4a.3.3 0 0 1 .3.3v.2c0 1.1046-.8954 2-2 2h-1c-1.1046 0-2-.8954-2-2v-3c0-1.1046.8954-2 2-2h1Z"/></svg>